<?xml version="1.0" encoding="UTF-8" standalone="no"?>
<!-- Created with Inkscape (http://www.inkscape.org/) -->

<svg
   xmlns:dc="http://purl.org/dc/elements/1.1/"
   xmlns:cc="http://creativecommons.org/ns#"
   xmlns:rdf="http://www.w3.org/1999/02/22-rdf-syntax-ns#"
   xmlns:svg="http://www.w3.org/2000/svg"
   xmlns="http://www.w3.org/2000/svg"
   xmlns:xlink="http://www.w3.org/1999/xlink"
   xmlns:sodipodi="http://sodipodi.sourceforge.net/DTD/sodipodi-0.dtd"
   xmlns:inkscape="http://www.inkscape.org/namespaces/inkscape"
   id="svg2"
   version="1.1"
   inkscape:version="0.91 r"
   width="2481"
   height="663"
   sodipodi:docname="Pepper-and-Carrot_by-David-Revoy_E02P00.svg"
   inkscape:export-filename="C:\Users\Mahwiii\Desktop\Manga\translations\pepper carrot\peppercarrot_ep02_translation-master\ar\Pepper-and-Carrot_by-David-Revoy_E02P00.png"
   inkscape:export-xdpi="90"
   inkscape:export-ydpi="90">
  <metadata
     id="metadata8">
    <rdf:RDF>
      <cc:Work
         rdf:about="">
        <dc:format>image/svg+xml</dc:format>
        <dc:type
           rdf:resource="http://purl.org/dc/dcmitype/StillImage" />
        <dc:title />
      </cc:Work>
    </rdf:RDF>
  </metadata>
  <defs
     id="defs6" />
  <sodipodi:namedview
     pagecolor="#ffffff"
     bordercolor="#666666"
     borderopacity="1"
     objecttolerance="10"
     gridtolerance="10"
     guidetolerance="10"
     inkscape:pageopacity="0"
     inkscape:pageshadow="2"
     inkscape:window-width="1366"
     inkscape:window-height="705"
     id="namedview4"
     showgrid="false"
     inkscape:zoom="0.51171512"
     inkscape:cx="1171.4441"
     inkscape:cy="199.96331"
     inkscape:window-x="-8"
     inkscape:window-y="-8"
     inkscape:window-maximized="1"
     inkscape:current-layer="layer1" />
  <g
     inkscape:groupmode="layer"
     id="layer2"
     inkscape:label="artwork"
     sodipodi:insensitive="true">
    <image
       sodipodi:absref="/home/deevad/peppercarrot/webcomics/New/lang/ar/../gfx_Pepper-and-Carrot_by-David-Revoy_E02P00.png"
       xlink:href="../gfx_Pepper-and-Carrot_by-David-Revoy_E02P00.png"
       width="2481"
       height="663"
       id="image10"
       x="-1.6728083e-06"
       y="0" />
  </g>
  <g
     inkscape:groupmode="layer"
     id="layer1"
     inkscape:label="text">
    <flowRoot
       xml:space="preserve"
       id="flowRoot3063"
       style="font-style:normal;font-variant:normal;font-weight:normal;font-stretch:normal;font-size:72px;line-height:125%;font-family:Arial;-inkscape-font-specification:Arial;letter-spacing:0px;word-spacing:0px;display:inline;fill:#562f13;fill-opacity:1;stroke:none"
       transform="matrix(0.71485854,0,0,0.67797407,169.89822,229.51428)"><flowRegion
         id="flowRegion3065"><rect
           id="rect3067"
           width="2738.5396"
           height="179.25047"
           x="92.642677"
           y="425.30325"
           style="font-size:72px;fill:#562f13;fill-opacity:1" /></flowRegion><flowPara
         id="flowPara3069"
         style="font-style:normal;font-variant:normal;font-weight:normal;font-stretch:normal;font-size:138.98440552px;font-family:AlHor;-inkscape-font-specification:AlHor;text-align:center;text-anchor:middle;fill:#562f13;fill-opacity:1">حلقة ٢ : جرعةُ قوسِ قزح</flowPara></flowRoot>    <path
       style="fill:#562f13;fill-opacity:1"
       d="m 764.96649,483.81189 c 0.0338,-2.44809 -3.24436,-4.273 -7.3265,-4.0786 -3.52524,0.1679 -3.69303,0.081 -4.83376,-2.50255 -1.91079,-4.32764 -0.35245,-7.01222 7.546,-12.99939 5.93118,-4.49597 15.77047,-14.37119 17.37032,-17.43375 0.30682,-0.58732 1.64331,-1.00906 3.13289,-0.98859 4.96072,0.0682 7.61148,-3.68938 5.34942,-7.58286 -0.76699,-1.3202 -0.0362,-3.2594 4.29819,-11.4053 2.87228,-5.3981 7.31275,-15.0072 9.86774,-21.3537 4.96673,-12.3371 6.01278,-14.2543 8.78924,-16.108 1.582,-1.0562 1.89826,-1.0703 2.89807,-0.1292 1.59386,1.5003 6.57939,1.4057 8.4985,-0.1612 0.87376,-0.7135 2.16522,-1.1205 2.86987,-0.9044 2.32514,0.7128 5.44074,5.9698 8.69289,14.6675 3.83548,10.2579 5.46993,12.9184 10.53702,17.1522 5.39984,4.5118 10.81933,5.9973 19.95533,5.4698 3.7951,-0.2191 9.65977,-0.4078 13.03264,-0.4194 6.40281,-0.022 8.70112,-1.0218 8.7395,-3.8021 0.009,-0.6419 1.43193,-1.7786 3.16241,-2.5261 10.12161,-4.3721 38.18243,-21.2963 49.71426,-29.9839 l 6.23896,-4.7001 -9.07686,-4.6324 c -8.88655,-4.5353 -9.04719,-4.6638 -7.66123,-6.1266 0.77859,-0.8217 1.42527,-2.1934 1.43708,-3.0481 0.051,-3.6886 -7.06223,-5.7793 -10.64956,-3.1303 -1.70054,1.2558 -1.8674,1.1661 -10.1022,-5.4283 -8.42061,-6.7432 -14.21919,-12.402 -16.95562,-16.547 l -1.47654,-2.2366 -3.69629,1.7111 c -6.48356,3.0014 -11.48161,4.2193 -17.00358,4.1434 -4.34755,-0.06 -5.71818,-0.3842 -8.01477,-1.8976 -5.86852,-3.8674 -6.83083,-8.6802 -2.8991,-14.4995 2.70648,-4.0059 13.17481,-12.0113 22.61115,-17.2914 l 6.33589,-3.5452 0.57691,5.2562 c 0.68973,6.2838 3.39926,9.864 9.46981,12.5128 l 3.90186,1.7025 -2.8454,-4.0768 c -2.24092,-3.2108 -3.00732,-5.3707 -3.60773,-10.1675 -0.4193,-3.3499 -0.58586,-6.221 -0.37016,-6.3803 0.76583,-0.5655 8.80027,5.7965 12.66878,10.0317 3.26265,3.5719 3.76408,4.5268 2.95974,5.6361 -0.53261,0.7346 -0.97522,1.8304 -0.98358,2.4351 -0.0223,1.6188 4.0296,4.5023 6.40769,4.5599 1.50992,0.037 3.05266,1.1982 5.77031,4.345 5.21913,6.0432 11.57807,11.4377 19.58868,16.6176 13.76268,8.8995 23.48017,11.8251 56.11379,16.8941 16.50015,2.563 21.53305,3.9593 20.55525,5.7029 -1.4776,2.6349 -1.5108,3.6092 -0.177,5.2 0.7725,0.9213 2.2548,1.8925 3.2941,2.1583 4.0945,1.0473 -1.073,7.4513 -8.1102,10.0507 -3.0509,1.127 -7.0802,1.7542 -14.39446,2.2406 l -10.15752,0.6754 -2.12853,-1.7949 c -3.73399,-3.1488 -11.19687,-1.7061 -11.25045,2.1749 -0.0108,0.7506 -0.55531,1.3574 -1.21095,1.3484 -1.99509,-0.027 -12.24729,3.1886 -16.24534,5.096 -2.06995,0.9876 -10.15693,6.1792 -17.97107,11.537 -13.41659,9.1991 -14.38141,9.7236 -17.33112,9.421 -3.96678,-0.4069 -7.16501,1.6717 -6.78731,4.4113 0.21841,1.5841 -0.68748,2.36 -6.53428,5.5963 -15.77677,8.73266 -30.07299,12.97347 -45.1938,13.40627 -11.98065,0.34291 -13.63158,0.0225 -14.70755,-2.85453 -0.48629,-1.30029 -1.871,-2.68862 -3.30286,-3.31146 -2.23886,-0.97389 -2.71979,-0.96643 -5.23154,0.081 -1.8939,0.78984 -3.24463,0.95118 -4.28398,0.51173 -1.92425,-0.81361 -9.41649,-7.07601 -13.40932,-11.20821 l -3.0546,-3.1612 -4.29199,7.8379 c -9.52215,17.38926 -22.1775,33.55989 -33.28409,42.5294 -6.9097,5.58017 -15.86872,8.58261 -15.82345,5.3029 z m 434.60771,-1.15059 c -3.6169,-1.93124 -7.426,-7.88273 -6.4639,-10.09977 0.3232,-0.74426 6.307,-5.48317 13.2976,-10.5309 12.1425,-8.76761 14.2563,-10.66208 15.6916,-14.06401 l 0.6355,-1.50597 -4.2816,1.37404 c -7.6019,2.43967 -18.4234,0.90799 -28.2529,-3.99894 -3.9717,-1.98274 -4.1261,-2.18103 -3.648,-4.6872 0.7097,-3.7199 -2.0461,-5.862 -6.8734,-5.3426 -3.2831,0.3533 -3.5384,0.2347 -6.555,-3.0455 -3.7376,-4.0641 -7.9571,-10.4722 -10.7732,-16.3603 -1.9345,-4.0449 -1.9642,-4.3793 -0.5513,-6.1976 1.891,-2.4333 1.0748,-5.3871 -1.7731,-6.4172 -1.7848,-0.6456 -2.1613,-1.4164 -2.59,-5.3019 -0.7286,-6.6056 -0.5535,-11.1865 0.6866,-17.9637 0.9396,-5.1346 1.3414,-5.9998 2.777,-5.9801 4.6159,0.063 7.0216,-5.4558 3.5584,-8.1637 l -1.8062,-1.4122 3.6097,-5.6772 c 7.209,-11.3376 11.7041,-14.5489 20.1839,-14.4195 5.5366,0.084 10.3282,1.1632 18.9755,4.2718 l 6.0871,2.1883 -1.8113,-1.7989 c -2.0119,-1.998 -8.0848,-5.2124 -12.1478,-6.4301 -2.3069,-0.6913 -2.016,-0.7374 2.2919,-0.3631 10.7933,0.9377 24.0186,7.4462 33.1214,16.3 6.2608,6.0895 13.4726,16.3665 16.3278,23.2672 l 2.2989,5.5563 -1.9561,1.4443 c -1.0754,0.7943 -1.9663,2.2119 -1.9793,3.1502 -0.025,1.8481 2.7638,4.4744 4.7815,4.5021 1.883,0.026 2.3724,1.6561 3.1884,10.6228 0.8546,9.391 0.2382,17.2089 -2.0298,25.7373 -1.5382,5.7846 -1.6521,5.9494 -4.0838,5.916 -3.1247,-0.043 -6.1234,2.09307 -6.155,4.38438 -0.014,0.99687 0.9649,2.45551 2.2939,3.41914 l 2.3177,1.68056 -5.195,7.96508 c -6.0547,9.28311 -15.0986,19.56949 -20.8114,23.67051 -3.7304,2.67811 -4.1799,2.8202 -6.3897,2.02089 -3.0227,-1.09333 -6.4687,-0.0795 -7.9675,2.3438 -1.3418,2.16962 -3.8962,2.15234 -8.0291,-0.0543 z m 19.6496,-62.90495 c 3.0173,0.034 6.8008,-3.0087 6.3106,-5.0771 -0.4362,-1.8411 0.1744,-1.9775 4.4279,-0.989 2.5337,0.5887 2.858,0.4961 3.2362,-0.9235 1.3148,-4.9381 -3.2667,-17.5213 -11.0558,-30.3646 -4.3445,-7.1633 -4.6837,-8.0544 -3.4487,-9.0627 1.8112,-1.4789 1.7879,-4.6829 -0.045,-6.2661 -1.6154,-1.3947 -6.9859,-1.8091 -7.9839,-0.616 -0.3858,0.4612 -1.6483,-0.05 -3.4019,-1.3772 -7.7979,-5.902 -16.3044,-5.5597 -20.6822,0.8321 -3.5554,5.191 -4.6308,10.3641 -4.8423,23.2941 -0.2117,12.8961 0.7526,16.7506 5.9345,23.7336 5.2294,7.0472 15.5575,13.8559 22.55,14.866 l 3.2295,0.4665 1.8551,-4.2701 c 1.5658,-3.6039 2.1768,-4.2663 3.9165,-4.246 z m -546.38651,36.64343 c 0.0322,-2.32908 -1.88696,-3.96564 -5.33587,-4.55031 -2.64877,-0.44904 -3.1485,-0.86676 -3.73094,-3.11883 -0.82048,-3.17243 -0.84754,-3.14174 10.52525,-11.94089 6.87116,-5.3162 9.62953,-8.0464 12.60822,-12.4798 2.09707,-3.1212 4.37127,-5.6672 5.0538,-5.6578 1.89835,0.026 5.69292,-3.094 5.71509,-4.6992 0.0108,-0.7847 -0.94215,-2.1788 -2.11773,-3.098 -2.07347,-1.6212 -2.14412,-2.0552 -2.36075,-14.5049 -0.19228,-11.0487 -0.54379,-13.8278 -2.52729,-19.9797 -1.57571,-4.8871 -2.00952,-7.3632 -1.37246,-7.8337 2.44209,-1.8033 0.0437,-7.2522 -3.21184,-7.2969 -1.27167,-0.017 -6.34742,-14.7252 -6.2716,-18.173 0.15115,-6.8761 3.24509,-10.7493 9.17136,-11.4814 l 3.20099,-0.3954 -0.41358,2.4649 c -0.55099,3.2841 1.60418,5.1619 5.9936,5.2222 l 3.2659,0.045 2.79396,6.0104 c 3.7642,8.0977 5.71128,14.2057 8.76354,27.4911 5.19773,22.624 6.32573,40.3638 3.22804,50.7679 -1.54178,5.1784 -1.59327,5.2398 -4.04877,4.832 -1.8898,-0.3138 -3.0464,-2e-4 -4.81573,1.3065 -2.92705,2.1615 -2.98118,4.0938 -0.17612,6.287 l 2.19186,1.7137 -2.70878,3.39368 c -9.13604,11.44583 -19.17569,17.39701 -29.17637,17.29476 -3.86276,-0.0394 -4.26347,-0.19236 -4.24377,-1.61915 z m 282.84339,4.94306 c -6.28439,-2.45824 -9.12964,-6.67182 -9.165,-13.57261 -0.0233,-4.53974 1.39561,-6.56589 6.33379,-9.04488 5.32622,-2.6737 5.87347,-2.5807 5.82418,0.9892 -0.0435,3.1518 1.74659,7.17489 3.78244,8.50077 0.76664,0.49928 1.0504,-0.75647 1.10763,-4.90166 l 0.0769,-5.57291 2.5934,0.1772 c 5.7477,0.3928 10.45232,6.3027 10.35967,13.01376 -0.10703,7.75101 -3.54302,10.50756 -13.42628,10.77127 -3.38074,0.0903 -6.74978,-0.0717 -7.48677,-0.36014 z m 481.25042,2.31025 c -5.6811,-1.10244 -13.2989,-4.09771 -13.2833,-5.22301 0.023,-1.61436 -3.2686,-3.83632 -5.7319,-3.87016 -1.6204,-0.0222 -3.2594,-1.11314 -6.2804,-4.18014 -11.5541,-11.72933 -17.698,-28.77913 -19.5183,-54.16533 -0.9957,-13.8866 -0.3516,-29.2917 1.434,-34.3 0.9667,-2.7115 1.4914,-3.2215 3.2886,-3.1968 4.7827,0.066 7.4223,-4.6545 4.4539,-7.9653 -1.6127,-1.799 -0.7715,-3.3888 2.9261,-5.5308 4.6575,-2.6979 10.2875,-1.0117 15.4792,4.636 3.8284,4.1644 4.3136,7.6893 1.8932,13.7536 -1.0173,2.5493 -2.3669,6.4138 -2.999,8.5878 -0.7385,2.539 -1.6856,4.0887 -2.6489,4.3331 -4.4323,1.1243 -6.2534,5.1877 -3.4217,7.6329 1.0313,0.8903 1.1328,1.9087 0.482,4.8344 -1.0303,4.6312 0.067,15.7729 2.1897,22.2351 l 1.5935,4.8516 -2.1349,1.4027 c -4.4595,2.93 -1.4731,8.8107 4.1933,8.2574 2.4544,-0.2397 2.9156,0.086 6.0666,4.2815 6.0728,8.0865 13.375,12.33951 22.4474,13.07413 5.1265,0.41513 5.9845,0.29281 8.7744,-1.25093 5.6565,-3.13 9.7705,-9.0566 13.3043,-19.1667 1.627,-4.6544 2.8509,-6.7854 4.5738,-7.9637 2.8573,-1.954 3.0729,-4.56 0.5411,-6.5395 -1.1927,-0.9327 -1.676,-1.9629 -1.3482,-2.8746 1.2432,-3.457 -0.9069,-36.1868 -3.4725,-52.8613 l -2.6475,-17.2067 2.0525,-1.3485 c 2.5949,-1.7049 2.7551,-5.0418 0.3332,-6.9355 -0.9775,-0.7642 -2.3222,-1.3969 -2.9882,-1.4061 -0.8552,-0.012 -1.7578,-2.6811 -3.0722,-9.0856 -1.0235,-4.9879 -3.3918,-14.9255 -5.2632,-22.0836 -4.6056,-17.6197 -4.6891,-18.4961 -2.1128,-22.2109 1.8289,-2.637 2.5793,-3.0923 5.6343,-3.4171 3.4392,-0.3656 5.9377,-1.9246 5.9626,-3.7205 0.011,-0.568 1.1712,-0.8772 3.1959,-0.8494 4.9692,0.068 7.0134,2.2151 9.2029,9.6654 3.1207,10.6186 8.3364,40.3744 10.4362,59.5389 2.5517,23.2872 6.9479,49.1696 10.9232,64.3069 3.4834,13.2646 11.2382,31.7842 14.9252,35.6433 2.2955,2.4025 4.5152,3.3886 5.3649,2.3834 0.4701,-0.5558 5.1239,-0.8021 15.0293,-0.7953 13.4825,0.01 14.4716,-0.081 16.39,-1.4889 1.1228,-0.8242 2.0503,-2.1407 2.0612,-2.9254 0.018,-1.3533 -2.9941,-4.3037 -5.0202,-4.9165 -1.152,-0.3483 -11.2783,-14.8015 -13.7022,-19.5571 -7.401,-14.5195 -9.8086,-24.0037 -8.9466,-35.2435 0.7401,-9.653 1.0278,-10.2659 4.7907,-10.2142 5.4661,0.075 7.9529,-4.6627 4.1211,-7.8507 l -1.8472,-1.5367 5.0391,-3.6618 c 9.5672,-6.952 23.8684,-8.2711 36.0666,-3.3266 15.2565,6.1842 28.5968,22.8103 33.498,41.7485 2.9637,11.4515 2.1747,27.5847 -1.3463,27.5363 -1.9951,-0.027 -4.852,2.5322 -4.8775,4.3694 -0.013,0.9383 0.7964,2.3469 1.7984,3.1304 l 1.8217,1.4243 -2.5253,3.8555 c -1.3887,2.1205 -2.6714,4.0598 -2.8503,4.3094 -0.1789,0.2497 2.3823,1.4783 5.6916,2.7302 4.94,1.8689 7.4465,2.358 14.0045,2.7324 l 7.9873,0.4561 4.7759,-3.7309 c 5.8425,-4.5644 7.4939,-8.2003 9.0013,-19.8222 0.9708,-7.4846 0.847,-9.7599 -1.4665,-26.92 -2.2584,-16.75 -2.3815,-18.8633 -1.1576,-19.8627 2.0914,-1.7075 1.7786,-5.1282 -0.6049,-6.6193 -1.9386,-1.2127 -2.2695,-3.0518 -7.1178,-39.5628 -2.7967,-21.0601 -5.0579,-39.2634 -5.025,-40.4518 0.089,-3.2124 3.1348,-7.8278 6.2797,-9.5146 1.6435,-0.8816 4.7834,-1.6385 7.7145,-1.8598 4.8626,-0.3671 4.9713,-0.3364 6.7012,1.8874 0.9671,1.2432 2.4202,4.4141 3.2292,7.0464 1.3658,4.4449 1.3641,4.9196 -0.028,6.6596 -2.1168,2.6471 -1.8995,3.9162 1.0384,6.0632 2.8504,2.083 3.2153,3.6819 5.5779,24.4436 0.933,8.1985 0.945,10.767 0.058,12.492 -0.9441,1.8368 -0.8788,2.4951 0.4248,4.2715 1.1351,1.5469 2.0759,6.6291 3.5716,19.2951 2.3266,19.7003 5.6714,42.7677 7.1746,49.4804 0.9863,4.4041 0.9456,4.6488 -1.0175,6.0983 -1.1249,0.8307 -2.0539,2.1523 -2.0647,2.9371 -0.022,1.6106 3.6871,4.8283 5.5966,4.8545 0.7849,0.011 1.8294,1.7047 2.79,4.5234 1.9176,5.6287 8.7508,13.9658 13.7981,16.8355 3.4626,1.9687 4.3002,2.1337 11.3201,2.2301 6.2211,0.085 7.987,0.3546 9.8451,1.5003 2.8155,1.73611 4.7577,1.78933 7.5307,0.2064 1.5089,-0.8614 4.387,-1.3289 9.5588,-1.5528 16.7219,-0.724 25.2414,-4.4674 33.1091,-14.5482 l 2.5288,-3.2402 -5.0352,2.0781 c -4.6847,1.9334 -5.4218,2.0386 -10.5872,1.5114 -19.1723,-1.9567 -35.1798,-12.0109 -43.368,-27.2388 -7.1055,-13.2149 -8.3296,-34.2454 -2.89,-49.6525 0.7705,-2.183 1.2594,-2.5422 3.4192,-2.5125 4.7824,0.066 7.4276,-4.7047 4.169,-7.5184 -2.0041,-1.7305 -0.9551,-3.4849 4.5944,-7.6831 7.9387,-6.0056 12.4971,-5.7329 28.9691,1.7331 l 8.757,3.9691 -4.8858,-3.9032 c -2.6871,-2.1468 -6.8076,-4.876 -9.1563,-6.0649 -2.3487,-1.189 -4.1168,-2.2752 -3.9292,-2.4139 0.9244,-0.6825 10.3774,1.4966 15.0765,3.4755 7.0719,2.9782 12.1178,6.5556 18.3294,12.995 6.6783,6.9233 14.0072,17.9071 12.628,18.9256 -2.6506,1.9572 -0.1208,7.3007 3.4808,7.3502 1.5857,0.022 4.5383,6.4902 6.5834,14.4233 1.8949,7.3497 1.8613,26.3903 -0.061,34.8077 -1.8305,8.0142 -6.0993,18.2502 -10.0066,23.994 -4.6613,6.85226 -6.4502,8.54092 -9.0104,8.50575 -2.7918,-0.0383 -5.8068,2.17543 -5.8358,4.28507 -0.017,1.20429 -1.1535,2.16569 -4.3164,3.65049 -11.5575,5.42519 -18.3957,6.19105 -48.7992,5.46534 -22.0353,-0.52594 -23.0923,-0.61299 -28.1574,-2.31857 -8.0701,-2.71757 -16.3257,-9.33271 -20.768,-16.64134 l -3.5449,-5.83214 -1.1027,3.0382 c -2.8069,7.73305 -11.8343,15.92492 -20.807,18.8813 -2.3024,0.75859 -6.92,1.50384 -10.2614,1.65616 -5.7025,0.25994 -6.2083,0.16476 -8.2434,-1.55136 -2.4674,-2.08066 -5.4047,-2.36919 -8.4034,-0.82547 -1.3508,0.6952 -2.8907,0.89292 -4.474,0.57435 -2.1063,-0.42381 -16.7632,-6.52715 -24.823,-10.33657 l -2.7674,-1.30802 -5.1367,2.70439 c -7.0418,3.70737 -15.6068,6.40855 -24.8177,7.82681 -9.9965,1.5392 -13.1407,1.48859 -15.361,-0.24727 -0.9774,-0.76422 -2.7871,-1.40335 -4.022,-1.42031 -2.5221,-0.0347 -5.8664,2.08522 -5.8892,3.73295 -0.013,0.89194 -0.6889,0.99304 -3.8251,0.57166 -12.316,-1.65476 -21.9194,-9.60111 -24.7291,-20.46222 l -0.9711,-3.7537 -1.769,5.06 c -0.973,2.78307 -2.9578,6.74248 -4.4111,8.79873 -2.3403,3.31188 -3.0293,3.7816 -6.0363,4.11512 -4.0017,0.44389 -5.8087,1.99699 -5.8505,5.02877 -0.026,1.90627 -0.5871,2.42704 -4.2041,3.90499 -6.621,2.70535 -12.4841,3.64946 -21.4328,3.45119 -4.4782,-0.0993 -9.6053,-0.46431 -11.3934,-0.81128 z m 147.7537,-62.42774 c 0.049,-7.5578 -0.295,-10.4151 -1.6489,-13.673 -1.2919,-3.1092 -1.4904,-4.5689 -0.8104,-5.9557 1.2808,-2.612 -0.4355,-5.2456 -3.7806,-5.8011 -2.0116,-0.3341 -3.5912,-1.564 -6.6985,-5.2153 -4.6653,-5.4824 -8.3405,-7.3677 -12.2652,-6.2919 -3.6084,0.989 -5.142,3.8769 -5.8496,11.0165 -0.5177,5.2256 -0.3057,7.3635 1.1765,11.8597 2.4478,7.4264 11.9414,22.2149 18.2598,28.4448 l 5.1308,5.0587 3.2118,-4.9441 3.2116,-4.9442 0.063,-9.5544 z m 165.6882,0.8539 c 0.21,-0.1551 0.3369,-2.9571 0.2814,-6.2266 -0.056,-3.2696 0.3718,-6.7834 0.949,-7.8085 0.9921,-1.7614 7.067,-4.5632 9.8126,-4.5255 2.5139,0.034 -2.4073,-13.412 -8.6448,-23.6213 -6.9546,-11.3828 -13.8933,-16.2679 -20.3562,-14.3308 -6.3333,1.8984 -9.9767,9.3949 -10.8806,22.3888 -0.685,9.843 0.1831,14.2302 3.9799,20.1146 1.4396,2.2312 2.6054,4.9346 2.5906,6.0076 -0.031,2.3125 2.7391,4.7191 5.477,4.7567 1.0722,0.015 2.6551,0.5264 3.5173,1.137 3.3254,2.3552 11.2375,3.6117 13.2738,2.108 z m -943.72242,-44.5756 c -7.86888,-1.606 -15.27076,-7.2739 -17.29334,-13.2424 -1.81327,-5.3507 0.50893,-11.6719 5.09873,-13.879 l 2.331,-1.121 3.37235,5.751 c 3.14043,5.3555 8.12215,10.8431 9.86527,10.867 0.41553,0.01 -0.1618,-1.6171 -1.28299,-3.6063 -2.47867,-4.3976 -5.26907,-12.0763 -4.57477,-12.589 0.95262,-0.7035 8.2512,2.367 11.24657,4.7314 4.34767,3.4319 7.16272,8.5227 7.11332,12.8639 -0.0863,7.5861 -6.99698,12.0366 -15.87614,10.2244 z m 744.50912,-40.6219 c 0.7606,-4.5327 -5.8143,-6.9695 -9.9368,-3.6829 -1.6224,1.2935 -2.2982,1.4526 -3.4227,0.8061 -5.198,-2.9881 -5.6745,-11.6026 -0.9533,-17.245 3.5719,-4.269 7.2166,-5.7575 14.7023,-6.0044 5.0627,-0.167 6.5463,0.057 9.5622,1.4418 3.0912,1.4195 3.635,2.0398 4.0555,4.624 0.4817,2.962 2.4583,4.863 5.094,4.8992 1.0574,0.015 1.186,0.7921 0.6812,4.1216 -1.0224,6.7423 -4.8773,10.4991 -12.6909,12.3683 -6.6201,1.5836 -7.551,1.4092 -7.0915,-1.3287 z m 165.1324,-10.4668 c -4.0044,-0.9511 -9.3779,-4.7431 -11.2137,-7.9131 -1.7836,-3.0801 -2.2251,-11.3404 -0.6048,-11.3182 1.7711,0.024 5.3932,-3.2766 5.4162,-4.9357 0.032,-2.3589 4.6716,-3.8014 11.8622,-3.6885 7.2519,0.1139 11.7704,2.0189 15.735,6.6335 l 2.8928,3.3672 -2.6508,1.1812 c -4.6904,2.0898 -4.7938,5.8396 -0.2217,8.0294 l 2.507,1.2007 -2.4155,2.6255 c -4.3599,4.7384 -13.2133,6.7404 -21.3067,4.818 z m -877.57566,-25.2499 c 0.0846,-6.1246 4.50347,-9.414 23.72775,-17.6626 9.78374,-4.1979 13.4893,-5.4455 16.06909,-5.41 3.3332,0.046 5.48933,-1.0658 6.61684,-3.4111 0.40107,-0.8343 19.87765,-9.6832 24.35454,-11.0652 2.26322,-0.6986 -0.49926,8.4078 -3.33397,10.9904 -2.61505,2.3824 -50.48276,22.3387 -51.60238,21.5133 -1.47112,-1.0846 -6.42195,-0.7582 -7.99617,0.5272 -0.82683,0.6752 -1.51389,1.9909 -1.52676,2.924 -0.0176,1.2669 -0.82313,1.9739 -3.18202,2.7922 l -3.1586,1.0958 0.0317,-2.294 z m 663.06026,-10.474 c -2.5574,-0.816 -2.8371,-0.5835 4.4476,-3.6967 3.2299,-1.3803 8.8899,-4.0805 12.5776,-6.0005 5.376,-2.7988 7.1979,-3.4092 9.1889,-3.0785 3.1184,0.5178 7.3914,-2.3039 7.0291,-4.6417 -0.1672,-1.0793 1.0766,-2.4453 4.2693,-4.6877 l 4.5055,-3.1645 -4.2573,-2.8772 c -4.4608,-3.0149 -7.0975,-6.3616 -7.991,-10.1432 -1.0542,-4.4612 3.64,-15.3733 6.9345,-16.1202 2.3376,-0.53 4.727,-3.3626 4.1965,-4.9757 -0.2864,-0.8715 0.5234,-1.9787 2.4111,-3.2963 4.023,-2.808 6.1798,-3.4674 11.1106,-3.3968 8.6538,0.1236 13.5569,4.6781 13.7384,12.7607 0.092,4.0759 -0.1005,4.5597 -2.3252,5.848 -2.6239,1.52 -3.2718,4.4271 -1.4848,6.6637 0.7788,0.9749 0.5903,1.9196 -0.8687,4.3483 l -1.8638,3.1028 4.0449,2.2802 4.0449,2.2802 -0.658,6.1283 c -0.3619,3.3706 -0.6701,7.0132 -0.685,8.0947 -0.024,1.7549 -0.2192,1.8851 -1.8131,1.2112 -1.1693,-0.4944 -1.776,-1.4534 -1.7577,-2.7782 0.052,-3.6962 -4.6625,-5.8588 -9.0407,-4.1479 -1.3092,0.5116 -2.1497,0.4805 -3.0633,-0.1133 -1.0189,-0.6624 -2.1721,-0.076 -6.0474,3.0757 -17.4119,14.1597 -26.374,18.3865 -38.4501,18.1343 -3.3281,-0.07 -7.0147,-0.4339 -8.1928,-0.8097 z m 54.3967,-45.6846 c -1.968,-5.8075 -12.8259,-9.4373 -13.5019,-4.5137 -0.5409,3.9402 1.8945,6.639 9.8877,10.9567 l 3.081,1.6643 0.6967,-2.7842 c 0.3833,-1.5313 0.3096,-3.9267 -0.1635,-5.3231 z m 113.6541,31.6153 -2.235,-0.7488 3.6139,-1.5469 c 9.872,-4.2257 20.4755,-9.779 29.354,-15.3733 5.4051,-3.4057 10.1296,-6.5534 10.4988,-6.9949 0.4144,-0.4957 -0.917,-1.8659 -3.4815,-3.5822 -7.166,-4.7963 -9.2747,-9.7992 -7.0531,-16.7341 2.6478,-8.2663 10.7021,-17.8342 17.0183,-20.2166 3.6289,-1.3688 5.8008,-1.1337 8.4162,0.9112 1.9141,1.4965 2.8371,1.7392 5.3745,1.413 2.8888,-0.3715 3.1685,-0.2328 4.9038,2.4307 3.421,5.2507 1.6538,17.7816 -3.5629,25.2638 -1.1824,1.6961 -1.0734,1.8557 2.7385,4.0045 3.8618,2.1769 3.9659,2.3348 3.8098,5.7767 -0.088,1.9463 -0.4419,5.6158 -0.7862,8.1546 l -0.6258,4.6159 -8.3385,-4.2461 -8.3386,-4.246 -3.4685,2.9121 c -3.0664,2.5745 -3.8309,2.875 -6.5943,2.5915 -4.3811,-0.4494 -7.32,1.7253 -6.6794,4.9424 0.4124,2.0703 0.045,2.5691 -3.6759,4.9844 -6.8462,4.4444 -13.103,6.3024 -21.4672,6.3747 -3.9521,0.034 -8.1915,-0.2748 -9.4209,-0.6866 z m 54.491,-45.6861 c -2.072,-6.1141 -12.8815,-9.3788 -13.7188,-4.1433 -0.1444,0.9024 -0.7493,2.305 -1.3442,3.1167 -1.6197,2.2097 -1.3514,3.488 1.1414,5.4369 1.8753,1.4663 2.8141,1.7026 5.5939,1.4075 2.5183,-0.2673 3.8881,-0.019 5.5668,1.0097 l 2.2264,1.3642 0.6974,-2.8264 c 0.3836,-1.5545 0.3102,-3.9689 -0.1629,-5.3653 z"
       id="path3548"
       inkscape:connector-curvature="0" />
  </g>
</svg>
