<?xml version="1.0" encoding="UTF-8" standalone="no"?>
<!-- Created with Inkscape (http://www.inkscape.org/) -->

<svg
   xmlns:dc="http://purl.org/dc/elements/1.1/"
   xmlns:cc="http://creativecommons.org/ns#"
   xmlns:rdf="http://www.w3.org/1999/02/22-rdf-syntax-ns#"
   xmlns:svg="http://www.w3.org/2000/svg"
   xmlns="http://www.w3.org/2000/svg"
   xmlns:xlink="http://www.w3.org/1999/xlink"
   xmlns:sodipodi="http://sodipodi.sourceforge.net/DTD/sodipodi-0.dtd"
   xmlns:inkscape="http://www.inkscape.org/namespaces/inkscape"
   id="svg2"
   version="1.1"
   inkscape:version="0.92.1 renderfarm"
   width="2481"
   height="663"
   sodipodi:docname="Pepper-and-Carrot_by-David-Revoy_E02P00_092.svg">
  <sodipodi:namedview pagecolor="#ffffff" bordercolor="#666666" inkscape:pageopacity="0" inkscape:pageshadow="2" inkscape:window-width="1813" inkscape:window-height="955" id="namedview70" showgrid="false" inkscape:zoom="0.4" inkscape:cx="1284.4231" inkscape:cy="2618.6204" inkscape:current-layer="layer1" /><metadata
     id="metadata8">
    <rdf:RDF>
      <cc:Work
         rdf:about="">
        <dc:format>image/svg+xml</dc:format>
        <dc:type
           rdf:resource="http://purl.org/dc/dcmitype/StillImage" />
        <dc:title />
        <cc:license
           rdf:resource="http://creativecommons.org/licenses/by/3.0/" />
      </cc:Work>
      <cc:License
         rdf:about="http://creativecommons.org/licenses/by/3.0/">
        <cc:permits
           rdf:resource="http://creativecommons.org/ns#Reproduction" />
        <cc:permits
           rdf:resource="http://creativecommons.org/ns#Distribution" />
        <cc:requires
           rdf:resource="http://creativecommons.org/ns#Notice" />
        <cc:requires
           rdf:resource="http://creativecommons.org/ns#Attribution" />
        <cc:permits
           rdf:resource="http://creativecommons.org/ns#DerivativeWorks" />
      </cc:License>
    </rdf:RDF>
  </metadata>
  <defs
     id="defs6" />
  <sodipodi:namedview
     pagecolor="#ffffff"
     bordercolor="#666666"
     borderopacity="1"
     objecttolerance="10"
     gridtolerance="10"
     guidetolerance="10"
     inkscape:pageopacity="0"
     inkscape:pageshadow="2"
     inkscape:window-width="1920"
     inkscape:window-height="1026"
     id="namedview4"
     showgrid="false"
     inkscape:zoom="0.59209996"
     inkscape:cx="1238.8111"
     inkscape:cy="314.61096"
     inkscape:window-x="0"
     inkscape:window-y="27"
     inkscape:window-maximized="1"
     inkscape:current-layer="layer1" />
  <g
     inkscape:groupmode="layer"
     id="layer2"
     inkscape:label="artwork"
     sodipodi:insensitive="true">
    <image
       sodipodi:absref="/home/deevad/peppercarrot/webcomics/ep02_Rainbow-potions/lang/cs/../gfx_Pepper-and-Carrot_by-David-Revoy_E02P00.png"
       xlink:href="../gfx_Pepper-and-Carrot_by-David-Revoy_E02P00.png"
       width="2481"
       height="663"
       id="image10"
       x="-1.6728083e-06"
       y="0" />
  </g>
  <g
     inkscape:groupmode="layer"
     id="layer1"
     inkscape:label="text"
     style="opacity:1">
    <flowRoot
       xml:space="preserve"
       id="flowRoot3063"
       style="font-style:normal;font-variant:normal;font-weight:normal;font-stretch:normal;line-height:0.01%;font-family:Arial;-inkscape-font-specification:Arial;letter-spacing:0px;word-spacing:0px;display:inline;fill:#562f13;fill-opacity:1;stroke:none"
       transform="matrix(0.77923967,0,0,0.77489763,116.89217,207.70055)"><flowRegion
         id="flowRegion3065"><rect
           id="rect3067"
           width="2715.5891"
           height="110.01318"
           x="92.642677"
           y="425.30325"
           style="font-size:72px;fill:#562f13;fill-opacity:1" /></flowRegion><flowPara
         id="flowPara3069"
         style="font-style:normal;font-variant:normal;font-weight:normal;font-stretch:normal;font-size:88px;line-height:1.25;font-family:Lavi;-inkscape-font-specification:Lavi;text-align:center;text-anchor:middle;fill:#562f13;fill-opacity:1">Epizoda 2 : Duhové lektvary</flowPara></flowRoot>    <path
       style="display:inline;fill:#562f13;fill-opacity:1;stroke:none"
       d="m 718.85835,508.10597 c -1.96642,-1.72654 -4.22539,-4.39631 -5.01996,-5.93281 l -1.44465,-2.79365 0,-4.08305 0,-4.08305 2.44732,-2.44729 2.44731,-2.44734 1.79018,-0.0317 c 0.98459,-0.0175 2.65521,-0.68615 3.71252,-1.48604 l 1.92237,-1.45434 0.74674,-5.2441 0.74674,-5.24401 0.0728,-22.7485 0.0728,-22.74862 -1.03212,-1.92855 -1.03214,-1.92855 -1.77805,0 c -0.97794,0 -4.15661,-0.70638 -7.06373,-1.56962 l -5.28564,-1.56975 -2.37322,-2.37316 -2.37324,-2.37329 0,-1.54089 0,-1.5409 5.73307,-0.0412 5.73307,-0.0412 4.48674,-2.20218 4.48675,-2.20232 0.28487,-34.89693 0.28489,-34.89681 -1.18347,-4.31334 -1.1835,-4.31333 -2.09255,-1.3573 -2.09257,-1.35718 -8.72423,-0.69814 -8.72423,-0.69814 0,-1.1942 0,-1.1942 4.40978,-4.47294 4.40977,-4.47294 12.61926,-5.70398 12.61925,-5.70399 1.92038,0.60959 c 1.05622,0.33521 3.26399,1.7401 4.90618,3.12188 l 2.98578,2.51229 0,1.33583 c 0,0.7346 0.70507,2.0407 1.56681,2.90245 l 1.56679,1.56687 10.28631,0 10.28633,0 8.64377,2.50479 c 4.7541,1.37767 10.8077,3.60146 13.45248,4.94166 2.64476,1.34019 8.37254,5.12224 12.72843,8.40448 l 7.91975,5.96775 2.73701,3.94941 2.73702,3.94952 1.42718,4.74221 1.42718,4.7422 0,6.73208 0,6.73208 -1.86603,5.9956 -1.86604,5.99561 -3.68837,6.59545 -3.68837,6.59532 -5.99663,6.41049 -5.99666,6.41036 -6.64519,4.89719 c -3.65485,2.69351 -8.88856,6.0076 -11.63045,7.36465 -2.74191,1.35706 -10.14504,4.1757 -16.4514,6.26374 -6.30637,2.08804 -12.47564,4.16259 -13.7095,4.61007 l -2.24337,0.81379 0,21.50334 0,21.50334 2.40677,2.40676 2.40677,2.40675 2.82776,0.59935 c 1.55528,0.32959 3.58164,1.00512 4.50305,1.50118 l 1.67529,0.9018 4.34763,-0.0873 c 2.3912,-0.0478 6.6382,0.22777 9.43777,0.61282 l 5.09014,0.70006 3.16774,-1.63808 3.16775,-1.63819 2.93598,0.64494 c 1.61481,0.35468 4.94711,0.6448 7.40514,0.6448 2.45804,0 4.46914,0.20982 4.46914,0.46634 0,0.25648 -1.6202,1.1433 -3.60047,1.97069 -3.63289,1.51791 -11.44571,6.42148 -16.69525,10.47843 l -2.8473,2.20042 -6.48744,1.79892 -6.48745,1.79891 -4.62403,2.93995 -4.62402,2.93995 -7.47791,2.11249 c -4.11285,1.16191 -9.76072,2.76974 -12.55082,3.57301 l -5.0729,1.46042 -4.11515,0 -4.11516,0 -3.5753,-3.13918 z m 44.03455,-106.98329 8.82558,-4.4346 8.03723,-6.45233 8.03721,-6.45232 4.81465,-5.81364 4.81463,-5.81376 2.85095,-5.98224 2.85096,-5.98236 7.7e-4,-4.28698 8e-4,-4.28698 -1.45976,-2.8229 c -0.80288,-1.55263 -2.85174,-3.99411 -4.55306,-5.42572 l -3.09327,-2.60284 -5.66676,-1.70175 -5.66676,-1.70188 -8.47496,-0.0262 -8.47496,-0.0262 -5.50904,1.24516 -5.50904,1.24528 -3.21519,1.95528 -3.21518,1.95528 0,29.87672 0,29.87673 1.74484,1.01636 c 0.95967,0.55888 2.26007,1.02984 2.88981,1.04658 0.62973,0.0162 5.11648,-1.96528 9.97055,-4.40438 z m 73.13557,108.54752 c -1.37094,-0.88638 -3.71755,-3.1988 -5.2147,-5.13871 l -2.72207,-3.52711 -0.6134,-3.26978 -0.61343,-3.26976 1.34138,-2.82671 1.34137,-2.8267 4.40567,-2.11419 4.40565,-2.11421 1.3274,-1.81533 1.3274,-1.81531 0,-27.60351 0,-27.60348 -5.23452,-0.58473 c -2.879,-0.32172 -6.99239,-0.93968 -9.14088,-1.37342 l -3.90632,-0.78856 -0.31495,-0.9935 c -0.17321,-0.54639 0.0345,-1.54427 0.4617,-2.21742 l 0.77666,-1.22405 7.70742,-1.47471 c 4.23909,-0.81103 8.14471,-1.74496 8.67916,-2.0753 l 0.97173,-0.60047 0,-40.37137 0,-40.37137 -1.45487,-2.8134 -1.45488,-2.81353 -8.26641,-1.17409 c -4.54651,-0.64568 -9.72459,-1.39677 -11.50683,-1.66891 l -3.24041,-0.49494 0,-0.77806 c 0,-0.42788 1.00951,-1.69738 2.24336,-2.82102 2.44145,-2.22342 15.02373,-10.26935 16.05925,-10.26935 0.35128,0 4.63531,-1.79954 9.52007,-3.99898 l 8.8814,-3.99911 2.83353,1.07731 c 1.55842,0.59247 3.61956,1.78867 4.58024,2.65803 l 1.7466,1.58074 0,2.72036 0,2.72023 2.24339,0.60122 c 1.23393,0.33071 6.73916,0.60734 12.23404,0.61483 l 9.99054,0.0137 7.15368,1.98238 c 3.93449,1.09029 9.70553,3.11102 12.82439,4.4903 l 5.67095,2.50792 6.598,4.90956 c 3.62898,2.70025 8.25837,6.62455 10.2878,8.72071 l 3.68968,3.81115 2.21246,4.98524 2.21232,4.98524 0.4462,7.53025 0.44618,7.53013 -2.91843,8.4668 -2.91829,8.46668 -3.8386,5.78292 c -2.11115,3.1807 -6.08759,8.24387 -8.83648,11.2516 l -4.99789,5.46844 -3.17969,-0.59647 -3.17957,-0.59648 -1.03952,1.26564 c -0.57177,0.69601 -1.19479,2.38303 -1.38456,3.74883 l -0.34476,2.48319 -4.90604,3.20555 -4.90618,3.20543 -12.37385,4.53114 -12.37391,4.53102 -2.1626,0.015 c -1.18935,0.0125 -2.8355,0.44048 -3.65807,0.96015 l -1.49559,0.94492 0,21.39219 0,21.39219 2.37684,2.53102 2.37675,2.53102 5.17769,1.07481 5.17767,1.07493 9.89402,-0.0287 c 5.44167,-0.0162 12.50001,-0.0799 15.68537,-0.14262 l 5.79141,-0.11365 0.68115,0.68115 0.68115,0.68109 -1.98587,1.1648 c -1.09212,0.64064 -4.84048,2.40428 -8.3296,3.91919 l -6.34373,2.75441 -2.95553,2.48688 c -1.62542,1.36773 -3.53087,2.48681 -4.23411,2.48681 l -1.27868,0 -4.37791,3.84611 c -2.40777,2.11533 -6.29927,4.82392 -8.64766,6.01908 l -4.26987,2.17301 -9.68886,2.63379 -9.68895,2.63378 -4.98524,0.33893 -4.98532,0.33893 -2.49264,-1.61159 z m 40.6593,-107.56413 7.20176,-3.45134 7.2275,-5.36541 7.22734,-5.36528 6.9793,-7.39875 6.97944,-7.39861 2.79407,-5.76356 2.79406,-5.76356 0.50501,-4.69237 0.50499,-4.69212 -1.80336,-3.46433 -1.80364,-3.46433 -3.98817,-2.77394 -3.98818,-2.77393 -7.47795,-1.58199 -7.47796,-1.5821 -6.48077,0.57824 c -3.56452,0.31809 -9.1729,1.26513 -12.46319,2.10452 l -5.98228,1.52616 -2.28666,2.58135 -2.28666,2.58123 0.2925,28.15874 0.29259,28.15874 1.36837,1.64705 1.36836,1.64692 1.65097,0 c 0.90793,0 4.8916,-1.55313 8.85256,-3.45133 z m 343.70513,77.30489 c -2.742,-0.97739 -7.2691,-2.9348 -10.0604,-4.34993 l -5.0749,-2.57299 -3.1446,-3.58135 c -1.7296,-1.96989 -4.1421,-5.47593 -5.3614,-7.79127 l -2.2167,-4.20967 -0.032,-7.47793 -0.033,-7.47792 3.1476,-6.64403 3.1477,-6.64416 7.737,-8.098 7.7368,-8.09813 -2.8008,-5.86022 -2.8009,-5.8601 0.5981,-2.99074 0.5982,-2.99075 -1.427,-1.18433 -1.4271,-1.18433 1.5476,-2.99262 1.5476,-2.99262 -2.2127,-2.3553 -2.2128,-2.35531 0.6323,-4.61269 0.6322,-4.6127 1.9859,-4.48955 1.986,-4.48942 4.2401,-5.06455 4.2403,-5.06442 4.377,-2.77581 4.377,-2.77593 5.3999,-1.20844 5.3999,-1.20831 5.1909,1.6398 5.1911,1.63994 5.692,3.56486 5.6918,3.56487 3.6322,5.97911 3.6322,5.97912 0.5101,3.80366 0.5103,3.80353 -2.2011,6.97411 -2.2012,6.97424 -3.8306,4.87796 c -2.107,2.68289 -5.4778,7.34567 -7.4911,10.36164 -2.0131,3.0161 -5.0036,6.67626 -6.6455,8.1336 l -2.9851,2.64967 0.8489,1.4481 c 0.4669,0.79655 4.9344,5.78541 9.9276,11.08638 l 9.0786,9.63814 1.1909,-1.43473 1.1907,-1.43474 0.1997,-2.82926 0.1997,-2.82927 -3.734,-0.3091 -3.734,-0.30923 -2.4975,-3.27462 -2.4977,-3.27462 0,-2.07804 0,-2.07805 1.4283,-1.42837 1.4283,-1.42825 8.293,-2.57823 c 4.5611,-1.418 10.5362,-3.08791 13.2782,-3.71086 l 4.9852,-1.13275 11.9646,-0.39341 c 6.5806,-0.21643 14.3203,-0.66017 17.1993,-0.98613 l 5.2345,-0.5926 -5e-4,1.31809 -6e-4,1.31809 -7.0907,6.4808 c -3.8999,3.56449 -8.4986,7.88182 -10.2192,9.59394 l -3.1285,3.11326 -4.8636,0.706 c -2.6749,0.38829 -5.4791,0.94217 -6.2315,1.23092 l -1.3682,0.52504 0,4.84124 0,4.84112 -2.1273,5.68575 -2.1274,5.68562 2.8649,2.07892 c 1.5756,1.14337 4.6642,3.46371 6.8633,5.1561 l 3.9985,3.07729 -0.1851,1.40951 c -0.1011,0.77519 -0.8056,3.08853 -1.5638,5.14073 l -1.3787,3.73122 -2.3488,2.5003 -2.3489,2.50042 -3.0667,0 -3.0667,0 -3.2645,-1.99037 c -1.7955,-1.09416 -3.8664,-1.98988 -4.6017,-1.98988 -0.7354,0 -2.4777,-0.89733 -3.8721,-1.99412 -1.3943,-1.09678 -3.1374,-1.98263 -3.8735,-1.96852 -0.7359,0.0137 -3.806,1.60085 -6.8221,3.5264 l -5.4838,3.50092 -9.4323,2.95441 -9.4325,2.9544 -5.0248,-0.0729 -5.0248,-0.0729 -4.9854,-1.77688 z m 24.1933,-24.12866 4.3834,-2.12201 0.488,-1.27213 0.4884,-1.27226 -10.2899,-10.06002 -10.2898,-10.06003 -1.2038,0 -1.2038,0 -2.7845,3.67015 c -1.5314,2.0186 -4.2425,5.01758 -6.0248,6.66438 l -3.2404,2.99412 0,1.34844 0,1.34832 4.2374,4.32357 c 2.3307,2.37791 5.1349,4.81564 6.2317,5.41723 l 1.9941,1.09367 6.4153,0.03 6.4153,0.03 4.3834,-2.12188 z m -5.3338,-61.27823 7.6978,-6.5681 1.9226,-3.15323 1.9228,-3.15323 0,-3.16384 0,-3.16397 -2.4725,-2.93829 -2.4724,-2.93841 -2.9946,-1.24041 -2.9948,-1.24041 -3.4462,0.64643 -3.4462,0.64656 -2.7039,3.20655 c -1.4872,1.76357 -3.3088,4.65029 -4.0483,6.41486 l -1.3451,3.20843 0,3.86173 0,3.86185 1.4122,4.6915 c 1.4021,4.65978 3.1551,7.59007 4.5401,7.59007 0.3975,0 4.1869,-2.95565 8.4207,-6.56809 z m 176.8432,58.41912 c -3.1363,-0.40227 -8.8818,-1.75383 -12.768,-3.00336 l -7.0658,-2.272 -5.9206,-3.59609 c -3.2561,-1.97776 -8.2149,-5.39063 -11.0192,-7.5842 l -5.0986,-3.98825 -5.7653,-6.78453 -5.7652,-6.78453 -3.0163,-5.67863 c -1.6589,-3.12326 -3.9333,-8.59495 -5.0542,-12.15944 -1.1209,-3.56449 -2.99,-11.63102 -4.1539,-17.92561 l -2.116,-11.44468 0.4433,-4.50816 c 0.6402,-6.51277 3.4581,-20.97743 6.235,-32.00511 2.7648,-10.97897 8.6781,-28.4004 11.6376,-34.28509 4.4088,-8.76667 15.5004,-26.37269 22.3084,-35.41049 3.9497,-5.24301 10.258,-12.67972 14.0188,-16.52609 3.7606,-3.84624 9.9767,-9.36651 13.8135,-12.26709 l 6.9758,-5.27386 8.2677,-4.09677 8.2674,-4.09677 10.68,-0.0674 10.6799,-0.0674 9.472,3.82214 c 5.2097,2.10228 10.3695,3.89695 11.4663,3.98825 l 1.994,0.1661 0.4986,-5.52889 0.4985,-5.52889 1.8498,-2.82176 1.8496,-2.82177 5.4857,0.64468 5.4854,0.64481 5.3889,2.54926 5.3887,2.54925 3.4781,3.28025 3.4781,3.28024 0,4.99223 c 0,2.74571 -0.2806,6.395 -0.6235,8.10949 l -0.6234,3.11739 -3.9328,4.46794 -3.9329,4.46782 0.627,1.01436 0.6267,1.01436 1.8249,0 1.8248,0 2.303,1.86473 2.3028,1.86486 -1.1839,13.83883 c -1.363,15.92762 -2.3854,23.53668 -4.5158,33.59721 -0.834,3.93903 -1.951,9.40535 -2.4822,12.14732 -0.5313,2.74183 -1.7044,8.28359 -2.6071,12.31479 l -1.641,7.32955 -2.4751,4.88433 -2.4751,4.88446 -0.8639,0 -0.8639,0 -0.6013,-2.2434 c -0.3307,-1.23392 -0.6073,-4.61332 -0.6148,-7.5099 l -0.014,-5.26662 -1.3473,-3.22441 -1.3472,-3.22454 -0.7353,-12.90578 -0.7351,-12.90577 -4.2723,-12.50301 -4.2724,-12.503 -4.2935,-8.37226 -4.2937,-8.37227 -3.5824,-3.76581 -3.5823,-3.76581 -2.7624,-0.69339 -2.7624,-0.69327 -4.367,1.66779 c -2.4018,0.91719 -7.2055,3.54113 -10.675,5.83087 l -6.3081,4.16321 -9.2927,9.41934 -9.2927,9.41934 -7.3451,11.04129 -7.3455,11.04142 -6.9695,14.45729 c -7.4845,15.52597 -12.4978,28.36155 -16.5815,42.45329 l -2.5604,8.83523 -0.6174,7.50777 -0.6174,7.50777 -2.3339,2.80816 -2.3338,2.80815 1.4671,2.83713 c 0.8071,1.5605 2.7455,3.88621 4.3078,5.16833 l 2.8406,2.33108 2.6708,4.67751 2.6706,4.67751 4.7285,4.84174 4.7281,4.84174 4.831,2.33108 4.8309,2.33095 11.122,-0.52242 11.1219,-0.52254 9.6552,-3.12775 c 5.3104,-1.72023 12.2349,-4.26862 15.3882,-5.66314 l 5.7329,-2.53527 1.7716,0.46322 1.7716,0.46321 2.8636,-2.73647 2.8635,-2.73646 7.0306,-2.68664 7.031,-2.68664 1.8581,-2.05319 c 1.022,-1.12926 3.0298,-2.65916 4.462,-3.39964 l 2.6037,-1.34656 1.1829,-2.78893 1.1827,-2.78892 5.6434,-3.42811 c 3.1039,-1.88547 7.329,-4.95089 9.3893,-6.81226 l 3.7458,-3.38415 3.9572,-6.26574 3.9571,-6.26574 1.4912,-0.57224 1.4913,-0.57212 1.2202,1.4702 1.2202,1.47033 -1.1119,2.20944 c -0.6116,1.21518 -2.214,6.78016 -3.5609,12.36662 l -2.449,10.15732 -4.8122,8.78677 -4.8123,8.78665 -6.6641,6.66901 -6.6639,6.66888 -2.8608,1.4792 -2.8606,1.47933 -1.922,-0.17185 -1.9223,-0.1716 -2.7739,5.4838 -2.7736,5.4838 -10.7086,6.67201 -10.7085,6.67188 -8.9735,2.98001 -8.9735,2.97988 -7.7993,1.06643 c -8.5414,1.16785 -13.1788,1.18346 -21.8322,0.0737 z m -940.36538,-17.34325 -3.85137,-1.44735 -2.97006,-2.82077 -2.97008,-2.82077 -1.95784,-3.80703 -1.95785,-3.80715 -0.55977,-4.72634 -0.55977,-4.72622 2.3783,-2.76494 2.37828,-2.76495 6.24772,-0.73672 6.24772,-0.73661 1.69723,-1.69725 1.69721,-1.69714 0.51138,-9.19391 0.5114,-9.19379 2.99116,-0.50943 2.99117,-0.50942 0.30947,-2.67478 0.30946,-2.67477 -2.80208,-1.78418 c -1.54116,-0.98139 -3.13175,-2.24328 -3.53465,-2.80441 l -0.7325,-1.01998 -0.0154,-28.69664 -0.0152,-28.69663 1.24632,-0.38392 c 0.68547,-0.21119 2.43068,-0.64193 3.87825,-0.95715 l 2.63192,-0.57325 0.63321,-1.65005 0.63321,-1.65017 -1.27103,-1.70176 c -0.69907,-0.93592 -2.78136,-3.67439 -4.62734,-6.08564 l -3.3563,-4.3839 0.806,-15.95285 c 0.4433,-8.77415 0.83196,-20.29215 0.86367,-25.59574 l 0.0576,-9.64277 -2.40759,-2.56087 -2.40758,-2.561 -5.56886,-2.07642 -5.56881,-2.07642 -2.1628,-2.0201 -2.1628,-2.01998 -2.1233,-4.93578 -2.12331,-4.93578 -0.16333,-5.89307 -0.16336,-5.89319 2.33517,-2.48569 2.33516,-2.48569 8.59513,-3.14174 8.59513,-3.14186 15.45434,-2.88359 15.45435,-2.88359 17.94697,0.0212 17.94698,0.0212 9.58765,0.93306 9.58762,0.93305 8.19327,2.99012 c 4.50631,1.64468 10.96742,4.54163 14.35802,6.43772 3.39061,1.89608 8.1965,5.23589 10.67979,7.42184 l 4.51503,3.97426 6.32515,8.81962 6.32512,8.81962 4.77831,9.97048 4.77832,9.9706 1.67466,6.4808 1.67467,6.48093 0.0894,7.4778 0.0895,7.47792 -1.29148,5.48381 -1.29145,5.4838 -3.89791,7.97648 -3.89792,7.97636 -5.72877,6.6564 c -3.15082,3.66103 -7.97215,8.64852 -10.71406,11.08325 -2.7419,2.43461 -8.49948,6.94727 -12.79462,10.02793 l -7.80936,5.60133 -12.13173,5.86971 c -15.29447,7.39987 -33.14188,14.54521 -41.54482,16.63262 -3.56447,0.88547 -8.14319,2.03659 -10.17494,2.55813 l -3.69409,0.94817 -1.54045,1.54039 -1.54044,1.5404 0,12.93587 0,12.93575 2.28699,2.28699 2.28701,2.28699 4.06435,0.64992 4.06436,0.64993 1.24863,1.50455 1.24864,1.50456 5.11243,0.015 5.11247,0.015 4.30371,1.49893 4.3037,1.49906 0.92352,-0.57087 c 0.86968,-0.53741 21.85819,-1.65355 28.35712,-1.5078 1.64514,0.0375 4.56153,0.0737 6.48085,0.0812 1.91934,0.0125 4.10107,0.23329 4.8483,0.50118 l 1.35862,0.48695 -1.23142,1.48369 -1.23144,1.48382 -1.55722,0 c -0.8565,0 -3.60578,0.95329 -6.10953,2.11826 -2.50373,1.16498 -7.24431,3.36942 -10.53459,4.89857 -3.29027,1.52928 -8.67438,3.54039 -11.96464,4.46907 -3.29029,0.92881 -7.45576,2.31384 -9.25659,3.07779 l -3.27427,1.38928 -3.73254,0 -3.73256,0 -2.18054,1.52728 c -3.25986,2.28325 -9.634,4.34706 -20.19835,6.5395 l -9.47202,1.9659 -11.96464,0.49806 -11.96466,0.49806 -3.85136,-1.44735 z m 74.50736,-110.97153 8.83866,-3.49268 4.31493,0.64706 4.31495,0.64705 1.59845,-2.4396 1.59846,-2.43948 -0.6005,-2.39265 -0.6005,-2.39252 1.96764,-1.78068 1.96766,-1.78069 2.14078,1.14575 2.14078,1.14561 1.51779,-1.25964 1.5178,-1.25964 -0.55474,-2.77369 -0.55475,-2.77368 4.98046,-5.6915 c 6.22179,-7.11 11.23938,-14.62551 14.71056,-22.03387 l 2.68194,-5.72409 6.5e-4,-8.97349 6.4e-4,-8.97348 -2.65257,-5.6584 -2.65256,-5.6584 -4.08008,-4.42635 -4.08006,-4.42636 -5.81365,-2.60896 -5.81365,-2.60908 -7.65101,-1.138 -7.65099,-1.13787 -9.71434,1.17884 c -5.34289,0.6483 -10.46275,1.3949 -11.37749,1.65904 l -1.66316,0.48033 -3.45374,-3.03246 -3.45375,-3.03246 -2.07666,0 -2.07668,0 -1.03213,1.92855 c -0.56766,1.0607 -1.03213,3.00461 -1.03213,4.3197 l 0,2.39115 -3.66079,2.41038 c -2.01344,1.32584 -4.53993,3.60571 -5.61444,5.06655 l -1.95365,2.65616 -0.82053,15.78937 -0.82056,15.78936 -0.0458,28.47471 -0.0458,28.47483 1.24632,1.57137 c 0.68548,0.86436 1.91933,1.77344 2.74191,2.02035 l 1.49557,0.44873 11.46613,-2.42112 11.46613,-2.42125 8.83864,-3.4928 z m 93.85793,108.67106 c -1.64512,-0.21831 -5.38101,-1.07094 -8.30195,-1.89484 l -5.31079,-1.49793 -4.20442,-4.20443 -4.20443,-4.20443 -4.37959,-11.44918 -4.37957,-11.44918 -0.41612,-13.42107 -0.41611,-13.4212 1.18421,-7.34079 1.1842,-7.34092 2.40109,-7.05942 c 1.3206,-3.88271 4.01059,-9.98759 5.97775,-13.56644 4.2836,-7.79302 11.10537,-16.85893 17.60178,-23.39206 l 4.75366,-4.78054 8.26393,-3.96526 8.26396,-3.96539 5.08356,-0.6021 5.08357,-0.60209 5.17256,2.81527 5.17255,2.81527 5.2944,5.08703 5.29439,5.08715 2.4864,4.93529 2.48642,4.93528 1.12106,5.28361 1.12107,5.2836 -0.005,12.66336 -0.005,12.66337 -1.04097,3.74845 -1.04095,3.74833 -2.19389,1.42362 -2.19391,1.4235 -6.97939,1.14125 c -6.99763,1.14411 -41.3729,9.68186 -48.85566,12.1342 l -3.98821,1.30698 -1.73788,3.5525 -1.73789,3.5525 1.69061,4.42398 c 0.92983,2.43311 2.73731,6.12274 4.01657,8.19904 l 2.32597,3.77506 3.2051,2.02134 3.20512,2.02148 6.07174,-0.43437 6.07176,-0.43425 6.39141,-2.81877 c 3.5153,-1.55038 11.773,-6.03844 18.35047,-9.97348 l 11.95903,-7.15458 1.35845,0.52129 1.35846,0.52129 -0.53307,3.28487 c -0.29318,1.80678 -1.43759,5.32968 -2.54309,7.82899 l -2.01002,4.54387 -2.47748,0 -2.47747,0 -1.63363,1.63369 -1.6336,1.63357 0.15926,4.09952 c 0.0877,2.25464 0.11765,4.58584 0.0668,5.18032 l -0.0924,1.08104 -8.75247,4.15935 -8.75248,4.15946 -6.95112,1.47233 c -6.8844,1.45835 -9.13061,1.58049 -14.92757,0.81167 z m 9.53032,-73.57293 16.39311,-3.68676 4.15221,-1.80778 4.1522,-1.80791 1.08234,-2.02235 1.08231,-2.02234 0,-10.51451 0,-10.51438 -1.60748,-4.01746 -1.60747,-4.01759 -2.35469,-0.59098 -2.35469,-0.59098 -4.50082,2.17883 -4.50082,2.17883 -7.44975,6.95726 c -4.09737,3.82651 -8.97965,9.06091 -10.84952,11.63214 -1.86987,2.57137 -5.30117,8.34154 -7.62512,12.82273 l -4.22536,8.14758 0.70647,1.14312 0.70647,1.14312 1.20376,-0.46197 c 0.66207,-0.25402 8.58066,-2.12088 17.59685,-4.1486 z m 315.89059,71.89478 c -1.98397,-0.70888 -5.24082,-2.29861 -7.23746,-3.53265 l -3.63047,-2.24377 -2.49477,-4.25701 c -1.37214,-2.34144 -4.17242,-8.92028 -6.22275,-14.61977 l -3.72799,-10.36276 0.093,-15.95285 0.093,-15.95284 2.1604,-7.97649 2.16026,-7.97636 4.04252,-8.47504 4.04267,-8.47493 5.40051,-7.06628 c 2.97023,-3.88646 7.8845,-9.41547 10.92054,-12.28682 l 5.51989,-5.22054 7.50946,-3.46957 7.5094,-3.46945 4.85338,-0.57487 4.8536,-0.57487 4.3204,2.10952 4.3204,2.10952 6.19,5.54013 6.1902,5.54025 3.2819,6.66102 3.2818,6.66102 0.3232,17.47488 0.323,17.47476 -1.0263,2.68976 -1.0264,2.68976 -2.2879,1.48432 -2.2878,1.48444 -9.0041,1.55164 c -4.9523,0.85337 -17.5151,3.81764 -27.91757,6.58733 l -18.91352,5.03557 -4.48669,2.20031 -4.48683,2.20032 0.16765,6.15234 0.16753,6.15246 2.03469,4.59958 2.03455,4.59958 3.49882,1.46197 3.49896,1.46184 7.26053,-0.0175 7.26079,-0.0175 8.40885,-3.41 8.40874,-3.41 1.8941,1.0136 1.8938,1.01361 1.8215,-1.64842 c 1.0018,-0.90671 2.0701,-2.62494 2.3741,-3.81839 l 0.5527,-2.16997 6.2725,-4.23752 6.2729,-4.23753 1.8346,0 1.8346,0 2.852,-2.03071 c 1.5685,-1.11702 4.9281,-2.94916 7.4655,-4.07155 l 4.6134,-2.04083 0.5213,0.52129 0.5212,0.5213 -1.6712,4.37602 -1.6711,4.37603 -3.8877,5.13648 c -2.1383,2.82502 -4.7832,6.89182 -5.8777,9.03718 l -1.9899,3.90069 -5.0455,4.4135 -5.0451,4.41349 -9.1975,4.62906 -9.1972,4.62893 -4.74512,1.24478 -4.74483,1.2449 -1.54314,-2.20331 -1.54327,-2.20331 -2.68526,0 -2.68539,0 -3.98836,2.45634 c -2.19357,1.35106 -4.66122,2.45072 -5.48372,2.44385 -0.82266,-0.0125 -3.11887,-0.59273 -5.1027,-1.30173 z m 16.07015,-71.46878 c 7.40324,-1.63981 16.26923,-3.90556 19.70213,-5.03494 l 6.2418,-2.05345 1.1009,-2.05694 1.1008,-2.05694 0.1353,-11.56783 0.1351,-11.56795 -2.0747,-3.48968 -2.0749,-3.48968 -3.4916,0.0987 -3.4917,0.0987 -6.12919,4.16234 -6.12961,4.16247 -2.36879,-0.59448 -2.36891,-0.5946 -1.63969,1.63981 -1.63993,1.63981 0.61084,2.43336 0.61084,2.43348 -3.95357,5.22166 c -2.17442,2.87185 -5.81393,8.6419 -8.08776,12.82222 l -4.13425,7.60082 0,2.23691 0,2.2369 2.24335,-0.6498 c 1.23389,-0.35744 8.30047,-1.9915 15.70354,-3.63143 z m 619.43983,72.14431 -2.2234,-0.4295 -2.0141,-2.56037 -2.014,-2.56038 0,-1.73759 0,-1.73748 -1.408,-1.16859 -1.4081,-1.16873 -6.0425,2.54327 c -3.3232,1.39877 -9.5318,3.69525 -13.7968,5.10338 l -7.7546,2.56013 -9.0534,0.56638 -9.0535,0.56625 -5.2904,-1.75721 -5.2902,-1.7572 -3.8469,-3.47532 -3.8468,-3.47532 -1.5013,-5.05543 -1.5012,-5.0553 0,-4.75894 0,-4.75907 2.4156,-6.65502 2.4156,-6.65502 3.7318,-5.41824 3.7317,-5.41823 5.568,-4.01984 5.5682,-4.01984 11.9645,-5.82875 11.9646,-5.82875 8.7832,-2.19007 8.7833,-2.18995 2.0939,-1.69551 2.0937,-1.69539 -1.1008,-9.6901 -1.1007,-9.6901 -1.7998,-3.68226 -1.7999,-3.68227 -7.9765,-0.28075 -7.9764,-0.28075 -7.9763,3.87734 -7.9765,3.87734 -7.478,5.54824 c -4.1128,3.05157 -8.0508,6.14423 -8.7511,6.87246 -0.7002,0.72836 -2.3515,2.67028 -3.6696,4.31533 l -2.3964,2.99124 -1.1991,-1.17971 -1.199,-1.17959 2.6906,-6.79677 c 1.4796,-3.73821 4.1192,-9.19903 5.8657,-12.13508 l 3.1752,-5.3383 5.8565,-4.91193 c 3.2212,-2.7015 7.7227,-6.00535 10.0033,-7.34192 2.2805,-1.33658 6.151,-3.14336 8.6007,-4.01509 l 4.454,-1.58511 7.1755,-0.04 7.1755,-0.04 5.3331,2.4416 5.3334,2.44161 3.653,3.20755 3.6533,3.20755 2.4186,5.16658 2.4186,5.16659 1.1338,5.38801 1.1336,5.38813 0.9599,14.05439 c 0.5279,7.73008 0.9667,17.98044 0.9747,22.77885 l 0.015,8.7242 0.9383,0 c 0.516,0 1.2155,-0.44873 1.5544,-0.99712 l 0.6161,-0.997 2.06,0 2.0599,0 -0.6471,3.2404 c -0.3559,1.78231 -1.9822,6.09501 -3.6144,9.58395 l -2.9672,6.34354 0,1.88222 0,1.8821 1.0521,0 c 0.5785,0 3.6072,-1.31035 6.7302,-2.91194 8.3688,-4.2921 14.6255,-7.05855 15.9632,-7.05855 l 1.1809,0 0,0.92656 c 0,0.50956 -1.8257,3.67515 -4.057,7.03444 l -4.057,6.10801 -0.7685,4.86122 -0.7685,4.86135 -1.6155,2.46546 -1.6154,2.46546 -5.2744,2.99399 -5.2745,2.99399 -5.4155,1.58885 c -2.9784,0.87373 -5.6705,1.52766 -5.9823,1.45297 -0.3119,-0.0749 -1.5674,-0.32908 -2.7903,-0.56525 z m -35.6582,-22.69967 7.6596,-1.46558 5.639,-2.57186 c 3.1014,-1.41451 7.3236,-3.73372 9.3824,-5.15385 l 3.7432,-2.5821 1.9898,-3.21955 1.9899,-3.21954 0,-4.16509 0,-4.16508 -2.4474,-2.44735 -2.4475,-2.44735 -1.9177,0 -1.9176,0 -1.4987,-2.24328 -1.4987,-2.2434 -1.9078,1.71399 -1.908,1.714 -6.7487,2.08454 -6.7487,2.08442 -3.6758,3.24914 c -2.0218,1.78705 -5.7905,4.74083 -8.3751,6.56398 l -4.6993,3.31483 -2.4298,3.59621 c -1.3362,1.97801 -2.7361,4.62793 -3.1106,5.88857 l -0.681,2.29224 1.6013,2.44372 1.6014,2.44386 5.3731,0 5.3732,0 7.6595,-1.46547 z m -505.3444,18.01891 -3.6582,-3.65841 -2.4926,-4.9188 -2.4927,-4.9188 0,-2.46695 0,-2.46683 1.2416,-0.7672 1.2412,-0.76733 8.4801,-0.04 8.4798,-0.0387 0.6003,-19.94109 0.6002,-19.94109 1.2241,-5.22016 1.224,-5.22003 -0.3287,-12.89891 -0.3288,-12.8989 -2.2081,-2.34744 -2.2083,-2.34743 0.5765,-2.20444 0.5765,-2.20444 -1.676,-0.64318 -1.6759,-0.64306 -2.1761,1.14512 -2.1761,1.14511 -4.9854,-1.90657 -4.9851,-1.9067 -0.3397,-1.68751 -0.3394,-1.68764 2.2135,-2.35618 2.2133,-2.35605 8.5952,-3.1581 8.5951,-3.15797 5.5464,-0.1174 5.5461,-0.1174 2.7627,1.81028 2.7628,1.81016 1.4123,3.38003 1.4122,3.38015 0,5.01734 0,5.01734 1.2463,-6.3e-4 1.2464,-5e-4 5.7021,-6.37639 5.702,-6.37639 4.3341,-2.09803 4.3339,-2.09803 4.589,0 c 2.5239,0 5.3329,0.2855 6.2425,0.63444 l 1.6534,0.63457 0.896,2.35668 0.896,2.35667 2.8293,0 2.8293,0 2.5557,2.74184 2.5558,2.74197 4.1117,8.50989 4.1115,8.51001 -0.057,1.95915 c -0.031,1.07743 -0.8575,5.02746 -1.8353,8.77766 l -1.7774,6.81875 -4.3965,1.96428 -4.3965,1.96439 -2.6491,2.5314 -2.649,2.5314 -5.9522,-2.67102 -5.9518,-2.67116 -1.0827,-2.37616 -1.0826,-2.37616 0.8262,-0.51055 0.8261,-0.51067 1.7835,1.97064 1.7833,1.97052 2.6461,0 2.646,0 1.633,-1.24628 1.633,-1.24628 1.5342,-4.48681 c 0.8439,-2.4677 1.5408,-5.29234 1.5488,-6.27685 l 0.015,-1.79018 -2.4927,-2.49268 c -1.3709,-1.37092 -2.4925,-2.84262 -2.4925,-3.2705 0,-0.42787 -1.0385,-1.75358 -2.3076,-2.94591 l -2.3076,-2.16797 -5.4471,0 -5.447,0 -2.2378,1.5675 -2.2379,1.5675 -2.8305,5.66114 c -1.5567,3.11364 -3.5539,7.90455 -4.438,10.64639 -0.8843,2.74196 -2.7543,11.70571 -4.1557,19.91961 l -2.5481,14.93424 -0.1,7.72733 -0.1,7.7272 1.7085,2.60734 1.7083,2.60733 4.2849,1.89546 4.2848,1.89545 0.5426,2.07405 0.5424,2.07418 2.0449,-1.09441 2.0451,-1.09454 1.9555,1.2213 1.9554,1.2213 2.4775,-1.32583 2.4773,-1.32584 2.8188,0.70351 c 1.5501,0.38704 3.4917,1.28137 4.3143,1.98763 0.8225,0.70613 2.7386,1.57936 4.2579,1.94054 l 2.7624,0.65655 2.0807,-1.11352 2.0807,-1.11352 0.954,0.95403 0.9542,0.95416 -1.7084,1.70825 -1.7083,1.70837 -2.0212,-0.52853 -2.0211,-0.52854 -2.5662,1.38104 c -3.8995,2.09853 -12.046,4.50641 -15.2466,4.50641 l -2.8534,0 -4.1979,2.17284 -4.1976,2.17284 -10.9677,0.73835 c -6.0321,0.40614 -15.2663,1.05957 -20.5202,1.45222 l -9.5527,0.71375 -3.6584,-3.65828 z m 578.5253,0.75458 c -1.424,-1.56787 -3.3309,-3.96001 -4.2376,-5.31595 l -1.6485,-2.4652 0,-2.76932 0,-2.76931 1.9549,-1.95478 1.9548,-1.95491 5.5217,-1.60521 5.5217,-1.60521 0.5684,-2.26476 0.5685,-2.26476 -0.3178,-35.80214 -0.3179,-35.80227 -2.048,-3.4863 -2.0479,-3.48631 -3.4359,-2.31534 -3.4358,-2.31534 0,-1.17772 0,-1.17771 9.472,-3.21505 c 5.2097,-1.76832 10.3695,-3.22654 11.4663,-3.2404 l 1.9941,-0.025 2.5836,3.2404 2.5836,3.2404 1.2758,3.98825 c 0.7016,2.19344 1.6554,4.3995 2.1194,4.90231 l 0.8437,0.9142 7.2616,-7.54249 7.2617,-7.54262 4.2375,-1.13725 4.2374,-1.13713 3.7608,1.01261 3.7607,1.01274 4.2308,3.11114 4.2305,3.11126 2.3799,4.14023 c 1.309,2.27713 2.6753,5.55874 3.036,7.29247 l 0.6563,3.15235 -1.1241,6.31969 c -0.6183,3.47582 -2.2562,10.0654 -3.6399,14.6435 l -2.5156,8.3238 -5.8972,6.04544 -5.8971,6.0453 -0.6126,-0.61246 -0.6123,-0.61246 1.7059,-6.96088 1.7057,-6.96075 -0.5672,-10.21314 -0.5674,-10.21315 -1.0063,-1.00649 -1.0065,-1.00636 -5.5366,1.74521 -5.5367,1.74534 -3.0705,4.17396 c -1.6887,2.29573 -3.6901,5.61843 -4.4476,7.38375 l -1.3771,3.20968 -2.4921,16.41931 -2.492,16.41944 0,6.09464 0,6.09451 1.4586,2.8209 c 0.8024,1.55138 2.0363,3.03645 2.7419,3.3001 0.7059,0.26364 6.6673,0.15873 13.2479,-0.23317 l 11.9646,-0.71263 0.9013,0.80654 0.9011,0.80667 -2.7335,3.58385 c -1.5035,1.97114 -4.1873,4.53688 -5.9641,5.70148 l -3.2305,2.11764 -2.1554,3.28823 -2.1555,3.28824 -2.6076,1.70862 -2.6077,1.7085 -9.6165,0.72161 c -5.2891,0.39678 -13.8792,1.03634 -19.0887,1.42113 l -9.4721,0.69963 -2.5889,-2.85074 z m 85.1649,1.00799 c -1.1954,-1.02547 -3.3267,-3.6097 -4.7359,-5.7427 l -2.5624,-3.87809 0,-1.93167 0,-1.93168 2.7934,-2.79342 2.7934,-2.79342 4.1285,-0.69751 4.1287,-0.69751 0.9624,-1.16835 0.9625,-1.16834 0.2124,-34.89694 0.2126,-34.89693 -0.9958,-4.77193 -0.9953,-4.77193 -1.7556,-1.94005 -1.7558,-1.93991 -5.0966,-1.89858 -5.0962,-1.89846 -0.272,-1.36005 -0.2719,-1.36018 12.6416,-2.25589 12.6419,-2.2559 2.5858,1.64468 c 1.4223,0.90458 3.5796,2.81703 4.7938,4.25002 l 2.2078,2.60533 0.6451,3.2404 0.6452,3.24052 1.1353,-0.0125 1.1354,-0.0125 4.685,-5.87596 4.6854,-5.87596 5.4812,-2.68176 5.4813,-2.68177 3.2937,0.7095 c 1.8116,0.39028 4.6398,1.37979 6.285,2.19894 3.8386,1.91132 8.2886,6.04831 9.9745,9.27322 l 1.3213,2.5279 -1.4231,12.92651 -1.4231,12.92651 -2.9528,4.48668 c -1.624,2.4677 -3.7205,5.94502 -4.6588,7.7272 l -1.7057,3.2404 -1.6142,0 -1.6143,0 -0.096,-8.22564 -0.097,-8.22577 -1.6954,-4.21829 -1.6952,-4.21829 -3.2575,-2.01335 -3.2576,-2.01323 -2.5014,0 -2.5014,0 -1.9944,4.73608 c -1.0968,2.60471 -2.6965,6.97937 -3.5549,9.72121 -1.6929,5.40736 -5.1664,26.5981 -6.2316,38.01719 l -0.6632,7.10837 1.165,3.53015 c 0.6408,1.94154 1.703,3.96963 2.3604,4.50678 l 1.1952,0.97664 5.4838,-0.98126 c 3.0161,-0.53965 8.1759,-1.10228 11.4662,-1.25015 3.2902,-0.14799 6.7221,-0.58923 7.6263,-0.98076 l 1.6439,-0.71163 0.7059,1.14212 0.7058,1.142 -6.5543,6.30146 -6.5545,6.30133 -1.5576,3.89295 -1.5575,3.89283 -3.1915,1.88522 -3.1916,1.88521 -9.4919,0.70439 c -5.2204,0.3874 -13.5298,1.02797 -18.4652,1.42337 l -8.9735,0.71912 -2.1736,-1.86461 z m 113.3452,0.0849 -5.4838,-1.50593 -5.2983,-3.62731 -5.2981,-3.62731 -3.9091,-4.57073 -3.9088,-4.57073 -2.9053,-5.98224 -2.9053,-5.98236 -1.0985,-5.2836 -1.0985,-5.28361 0.02,-9.17368 0.02,-9.17368 0.9697,-6.70361 0.9694,-6.70348 2.1411,-6.25812 c 2.818,-8.23713 7.3888,-17.31752 11.0657,-21.98342 l 2.9634,-3.76056 6.2535,-4.46245 c 3.4395,-2.45422 8.7053,-5.58484 11.702,-6.95676 l 5.4486,-2.49443 7.3904,-0.60235 7.3905,-0.60247 6.957,1.63681 6.9571,1.63681 4.1656,2.44111 4.1653,2.44122 3.0828,3.89221 3.0825,3.89207 3.4611,7.33793 c 1.9035,4.03582 4.1752,10.02992 5.0486,13.32016 l 1.5876,5.98236 0.5574,9.47205 0.5571,9.47192 -1.6131,8.47504 c -0.8872,4.66115 -2.0732,10.11935 -2.6355,12.12921 l -1.0223,3.65441 -3.4663,2.04508 -3.4661,2.04507 0,1.54277 c 0,0.84851 0.5534,2.42887 1.23,3.51204 l 1.2298,1.96927 -1.9777,3.68638 c -1.0877,2.02759 -4.0687,5.97749 -6.6245,8.77778 l -4.6469,5.09152 -5.3237,2.93904 -5.3236,2.93904 -12.4632,0.24179 -12.4631,0.24166 -5.4838,-1.50592 z m 23.8859,-20.64385 5.4989,-1.24628 3.8152,-3.80103 3.8152,-3.80091 1.9378,-4.52127 1.9381,-4.52127 1.0988,-7.0819 1.0989,-7.08202 -0.6631,-14.00893 c -0.3648,-7.70485 -0.6447,-16.09322 -0.6219,-18.64061 l 0.04,-4.6318 -2.6932,-1.76457 c -1.4812,-0.97053 -5.0809,-3.70949 -7.9994,-6.08665 l -5.306,-4.32195 -3.27,0 -3.27,0 -5.1189,1.52016 -5.1191,1.52017 -3.2115,2.70249 -3.2118,2.70238 -3.7921,5.86721 -3.7923,5.86722 -0.6082,3.61969 c -0.3347,1.99075 -0.8176,4.38489 -1.0731,5.3202 -0.2554,0.9353 -2.2354,3.84349 -4.3996,6.46256 l -3.9351,4.76206 0,1.54152 0,1.54152 1.84,1.57562 1.8404,1.57561 0.6848,5.82788 0.685,5.82787 4.3104,9.09912 4.3102,9.099 2.9223,2.08092 c 3.4491,2.45597 8.4783,4.02734 13.2893,4.15235 1.9032,0.05 5.9349,-0.47096 8.9592,-1.15636 z m 89.0005,19.61425 -5.1576,-2.57011 -2.5638,-3.04682 c -1.41,-1.67565 -3.3987,-4.68363 -4.4193,-6.68425 l -1.8558,-3.63742 -1.0879,-5.88445 -1.0876,-5.88458 -0.07,-26.48808 -0.07,-26.48808 -0.7797,-1.99412 -0.7797,-1.99412 -7.1955,0 -7.1955,0 -3.9194,-4.19894 -3.9194,-4.1988 0,-2.54477 0,-2.54476 -1.1544,-1.8485 -1.1542,-1.8485 0.5434,-1.4165 0.5434,-1.41638 5.8822,-3.08329 5.8821,-3.08329 5.753,-1.28749 5.7531,-1.28749 1.1897,-2.07205 1.1897,-2.07206 -0.2558,-20.26805 -0.2559,-20.26805 -1.0597,-1.98013 -1.0597,-1.98014 1.1884,-1.43186 1.1883,-1.43187 1.9909,0 1.9908,0 5.8344,3.54426 5.8344,3.54426 2.0986,2.94728 2.0988,2.94741 0.5804,15.10247 0.5805,15.10259 1.852,1.85187 1.8517,1.85187 2.7267,-0.65529 c 1.4998,-0.36031 4.2971,-1.43237 6.2163,-2.38216 l 3.4898,-1.72711 7.8326,-0.71911 7.8326,-0.719 3.6337,-1.54813 3.6333,-1.54827 5.2238,-0.10116 5.2238,-0.10241 0.4886,1.27388 0.4885,1.27388 -1.7241,1.40526 c -0.9483,0.77295 -3.8286,3.11614 -6.4007,5.20705 -2.5721,2.09091 -8.4823,7.20129 -13.134,11.35639 l -8.4572,7.55473 -8.8012,3.32832 c -4.8406,1.83064 -9.4744,3.94266 -10.2971,4.69325 l -1.4954,1.36467 -0.3211,27.63433 -0.3214,27.63432 0.6464,5.26712 0.6463,5.26699 2.3135,2.68989 2.3136,2.68976 3.0648,-1.47596 3.0646,-1.47607 11.3489,-11.10311 c 6.2418,-6.10676 12.3215,-11.62378 13.5105,-12.2601 l 2.1616,-1.15686 0.8511,0.52604 0.8513,0.52604 -0.806,4.25613 c -0.4434,2.34082 -1.5225,5.95726 -2.3981,8.03643 l -1.5921,3.78055 -3.0944,2.76482 -3.0944,2.76482 1.1539,2.15623 1.1538,2.1561 -1.5655,3.7617 -1.5657,3.76169 -4.1902,4.36154 c -2.3047,2.39876 -6.185,5.65165 -8.6231,7.22864 l -4.4328,2.8671 -5.5912,0 -5.5912,0 -5.1577,-2.57011 z"
       id="path4376"
       inkscape:connector-curvature="0" />
  </g>
</svg>
