<?xml version="1.0" encoding="UTF-8" standalone="no"?>
<!-- Created with Inkscape (http://www.inkscape.org/) -->

<svg
   xmlns:dc="http://purl.org/dc/elements/1.1/"
   xmlns:cc="http://creativecommons.org/ns#"
   xmlns:rdf="http://www.w3.org/1999/02/22-rdf-syntax-ns#"
   xmlns:svg="http://www.w3.org/2000/svg"
   xmlns="http://www.w3.org/2000/svg"
   xmlns:xlink="http://www.w3.org/1999/xlink"
   xmlns:sodipodi="http://sodipodi.sourceforge.net/DTD/sodipodi-0.dtd"
   xmlns:inkscape="http://www.inkscape.org/namespaces/inkscape"
   id="svg2"
   version="1.1"
   inkscape:version="0.92.1 renderfarm"
   width="2481"
   height="663"
   sodipodi:docname="Pepper-and-Carrot_by-David-Revoy_E02P00_092.svg">
  <sodipodi:namedview pagecolor="#ffffff" bordercolor="#666666" inkscape:pageopacity="0" inkscape:pageshadow="2" inkscape:window-width="1813" inkscape:window-height="955" id="namedview70" showgrid="false" inkscape:zoom="0.4" inkscape:cx="1284.4231" inkscape:cy="2618.6204" inkscape:current-layer="layer1" /><metadata
     id="metadata8">
    <rdf:RDF>
      <cc:Work
         rdf:about="">
        <dc:format>image/svg+xml</dc:format>
        <dc:type
           rdf:resource="http://purl.org/dc/dcmitype/StillImage" />
        <dc:title />
      </cc:Work>
    </rdf:RDF>
  </metadata>
  <defs
     id="defs6" />
  <sodipodi:namedview
     pagecolor="#ffffff"
     bordercolor="#666666"
     borderopacity="1"
     objecttolerance="10"
     gridtolerance="10"
     guidetolerance="10"
     inkscape:pageopacity="0"
     inkscape:pageshadow="2"
     inkscape:window-width="1920"
     inkscape:window-height="1026"
     id="namedview4"
     showgrid="false"
     inkscape:zoom="0.59209996"
     inkscape:cx="1243.8778"
     inkscape:cy="314.61096"
     inkscape:window-x="0"
     inkscape:window-y="27"
     inkscape:window-maximized="1"
     inkscape:current-layer="layer1"
     inkscape:document-units="px" />
  <g
     inkscape:groupmode="layer"
     id="layer2"
     inkscape:label="artwork"
     sodipodi:insensitive="true">
    <image
       sodipodi:absref="/home/deevad/peppercarrot/webcomics/ep02_Rainbow-potions/lang/de/../gfx_Pepper-and-Carrot_by-David-Revoy_E02P00.png"
       xlink:href="../gfx_Pepper-and-Carrot_by-David-Revoy_E02P00.png"
       y="0"
       x="-1.6728083e-06"
       id="image10"
       height="663"
       width="2481" />
  </g>
  <g
     inkscape:groupmode="layer"
     id="layer1"
     inkscape:label="text">
    <flowRoot
       xml:space="preserve"
       id="flowRoot3063"
       style="font-style:normal;font-variant:normal;font-weight:normal;font-stretch:normal;line-height:0.01%;font-family:Arial;-inkscape-font-specification:Arial;letter-spacing:0px;word-spacing:0px;display:inline;fill:#562f13;fill-opacity:1;stroke:none"
       transform="matrix(0.89678481,0,0,0.8917878,-72.539752,150.26317)"><flowRegion
         id="flowRegion3065"><rect
           id="rect3067"
           width="2715.5891"
           height="110.01318"
           x="92.642677"
           y="425.30325"
           style="font-size:72px;fill:#562f13;fill-opacity:1" /></flowRegion><flowPara
         id="flowPara3069"
         style="font-style:normal;font-variant:normal;font-weight:normal;font-stretch:normal;font-size:88px;line-height:1.25;font-family:Lavi;-inkscape-font-specification:Lavi;text-align:center;text-anchor:middle;fill:#562f13;fill-opacity:1">Episode 2 : Regenbogentränke</flowPara></flowRoot>    <path
       style="display:inline;fill:#562f13;fill-opacity:1;stroke:none"
       d="m 720.48977,505.24566 c -1.96603,-1.72622 -4.22456,-4.39544 -5.01897,-5.93166 l -1.44435,-2.79309 0,-4.0822 0,-4.08229 2.44683,-2.44678 2.44682,-2.4469 1.78983,-0.0312 c 0.9844,-0.0173 2.65468,-0.68607 3.7118,-1.48578 l 1.92198,-1.45399 0.74659,-5.24308 0.74658,-5.24296 0.0728,-22.74413 0.0728,-22.74402 -1.0319,-1.92813 -1.03195,-1.92824 -1.77769,0 c -0.97775,0 -4.15579,-0.70619 -7.06233,-1.56926 l -5.2846,-1.56949 -2.37275,-2.37268 -2.37277,-2.37279 0,-1.54058 0,-1.54059 5.73194,-0.0416 5.73193,-0.0416 4.48585,-2.2018 4.48587,-2.20179 0.28482,-34.89007 0.28483,-34.88996 -1.18324,-4.31248 -1.18326,-4.31237 -2.09214,-1.3571 -2.09216,-1.35687 -8.7225,-0.69798 -8.7225,-0.69809 0,-1.19397 0,-1.19397 4.40889,-4.47203 4.40891,-4.47203 12.61676,-5.70289 12.61676,-5.70288 1.91999,0.60953 c 1.05601,0.33517 3.26335,1.73979 4.90522,3.12129 l 2.98518,2.51176 0,1.3356 c 0,0.73439 0.70493,2.04028 1.56651,2.90185 l 1.56648,1.5666 10.28427,0 10.2843,0 8.64206,2.50424 c 4.75316,1.37746 10.80556,3.60075 13.44982,4.94063 2.64424,1.33999 8.37089,5.12133 12.72592,8.40287 l 7.91818,5.96649 2.73646,3.94875 2.73647,3.94876 1.4269,4.74118 1.4269,4.74131 0,6.73071 0,6.73083 -1.86566,5.99435 -1.86566,5.99447 -3.68764,6.59405 -3.68765,6.59405 -5.99545,6.4093 -5.99546,6.40907 -6.64388,4.89623 c -3.65412,2.69293 -8.8868,6.00637 -11.62814,7.36313 -2.74138,1.35687 -10.14303,4.1749 -16.44816,6.26258 -6.30512,2.08757 -12.47317,4.16172 -13.70679,4.60915 l -2.24293,0.8136 0,21.49905 0,21.49906 2.4063,2.40632 2.4063,2.40632 2.82719,0.59924 c 1.55498,0.32951 3.58094,1.00482 4.50217,1.50081 l 1.67496,0.90158 4.34677,-0.0867 c 2.39073,-0.0474 6.63688,0.22765 9.43591,0.61265 l 5.08912,0.69994 3.16712,-1.63782 3.16712,-1.63782 2.9354,0.64479 c 1.61449,0.3546 4.94613,0.64468 7.40367,0.64468 2.45756,0 4.46826,0.20984 4.46826,0.46628 0,0.25643 -1.61987,1.14309 -3.59974,1.97033 -3.63219,1.51758 -11.44346,6.42016 -16.69197,10.47633 l -2.84673,2.19994 -6.48617,1.79857 -6.48616,1.79857 -4.62312,2.93936 -4.6231,2.93937 -7.47643,2.11209 c -4.11203,1.16166 -9.75879,2.76919 -12.54832,3.57229 l -5.07191,1.46013 -4.11434,0 -4.11434,0 -3.5746,-3.13855 z m 44.02584,-106.9621 8.82383,-4.43376 8.03565,-6.45104 8.03561,-6.45104 4.8137,-5.81248 4.81368,-5.81261 2.85039,-5.98105 2.85039,-5.98117 7.8e-4,-4.28613 7.9e-4,-4.28624 -1.45946,-2.8223 c -0.80273,-1.55227 -2.85119,-3.99327 -4.55217,-5.4246 l -3.09265,-2.6024 -5.66565,-1.70153 -5.66563,-1.7014 -8.47329,-0.0266 -8.47328,-0.0266 -5.50795,1.24484 -5.50796,1.24507 -3.21454,1.95484 -3.21454,1.95496 0,29.87082 0,29.87083 1.74448,1.01615 c 0.95949,0.55877 2.25964,1.02956 2.88923,1.04633 0.62962,0.0162 5.11549,-1.9649 9.96859,-4.40348 z m 73.12111,108.526 c -1.37067,-0.8862 -3.71682,-3.19816 -5.21367,-5.13768 l -2.72153,-3.52642 -0.61328,-3.26912 -0.6133,-3.26914 1.34111,-2.82612 1.3411,-2.82612 4.4048,-2.11381 4.40477,-2.11381 1.32714,-1.81494 1.32714,-1.81495 0,-27.59804 0,-27.59804 -5.23348,-0.58468 c -2.87843,-0.32164 -6.99101,-0.93938 -9.13907,-1.37305 l -3.90556,-0.78839 -0.31488,-0.99337 c -0.17318,-0.54629 0.0344,-1.54394 0.46161,-2.21706 l 0.7765,-1.22368 7.7059,-1.47445 c 4.23825,-0.81082 8.1431,-1.74465 8.67745,-2.07485 l 0.97153,-0.6004 0,-40.36334 0,-40.36346 -1.45458,-2.81282 -1.4546,-2.81294 -8.26477,-1.17385 c -4.54561,-0.6456 -9.72266,-1.39653 -11.50456,-1.66858 l -3.23977,-0.49483 0,-0.77799 c 0,-0.42777 1.00932,-1.69701 2.24293,-2.82045 2.44097,-2.22295 15.02075,-10.2673 16.05607,-10.2673 0.35121,0 4.63439,-1.79922 9.51818,-3.99812 l 8.87965,-3.99835 2.83298,1.07708 c 1.5581,0.5923 3.61883,1.78835 4.57932,2.65755 l 1.74627,1.58036 0,2.71987 0,2.71964 2.24293,0.60109 c 1.23369,0.33066 6.73783,0.60721 12.23162,0.61473 l 9.98857,0.0139 7.15227,1.98201 c 3.93372,1.09003 9.70361,3.11042 12.82185,4.48938 l 5.66983,2.50748 6.59669,4.90848 c 3.62826,2.69976 8.25674,6.62331 10.28577,8.71908 l 3.68895,3.81036 2.21203,4.98422 2.21187,4.98433 0.44611,7.52869 0.4461,7.5287 -2.91786,8.46495 -2.9177,8.46518 -3.83785,5.78174 c -2.11073,3.18002 -6.08639,8.24228 -8.83473,11.24934 l -4.9969,5.46737 -3.17907,-0.59635 -3.17893,-0.59635 -1.03932,1.26542 c -0.57166,0.6959 -1.19455,2.3825 -1.38429,3.74793 l -0.34468,2.48286 -4.90508,3.20488 -4.9052,3.20476 -12.37142,4.53031 -12.37145,4.53007 -2.16217,0.015 c -1.18912,0.0127 -2.83494,0.44038 -3.65734,0.95996 l -1.49531,0.9447 0,21.38795 0,21.38796 2.37639,2.5306 2.37626,2.53049 5.17666,1.07454 5.17666,1.07477 9.89206,-0.0289 c 5.44058,-0.0162 12.49754,-0.0798 15.68227,-0.14267 l 5.79025,-0.11331 0.68103,0.68098 0.68101,0.68098 -1.98547,1.1646 c -1.09192,0.64052 -4.83952,2.40378 -8.32795,3.91846 l -6.34249,2.75387 -2.95494,2.48632 c -1.6251,1.36751 -3.53016,2.48633 -4.23327,2.48633 l -1.27843,0 -4.37704,3.84538 c -2.40729,2.11491 -6.29803,4.82296 -8.64595,6.01789 l -4.26901,2.17257 -9.68695,2.63327 -9.68704,2.63328 -4.98426,0.33886 -4.98434,0.33884 -2.49214,-1.61125 z m 40.65126,-107.5428 7.20034,-3.45068 7.22606,-5.36436 7.22592,-5.36424 6.97792,-7.39724 6.97805,-7.39724 2.79352,-5.76231 2.79351,-5.76254 0.50491,-4.69136 0.5049,-4.69136 -1.80301,-3.46351 -1.80329,-3.46363 -3.98737,-2.7734 -3.9874,-2.7734 -7.47647,-1.58163 -7.47648,-1.58186 -6.47948,0.57819 c -3.56382,0.31806 -9.1711,1.26473 -12.46074,2.1041 l -5.98109,1.52591 -2.28622,2.58078 -2.28619,2.58067 0.29243,28.15323 0.29254,28.15312 1.3681,1.64672 1.36809,1.6466 1.65065,0 c 0.90773,0 4.89062,-1.55284 8.8508,-3.45056 z m 343.63712,77.28953 c -2.7415,-0.97719 -7.2676,-2.93422 -10.0583,-4.34902 l -5.074,-2.57246 -3.1439,-3.58063 c -1.7293,-1.96952 -4.1414,-5.47489 -5.3604,-7.78976 l -2.2163,-4.209 -0.032,-7.47632 -0.032,-7.47644 3.1469,-6.64284 3.1471,-6.64273 7.7354,-8.09637 7.7353,-8.0966 -2.8002,-5.85897 -2.8004,-5.85896 0.598,-2.99018 0.5981,-2.99018 -1.4267,-1.18403 -1.4268,-1.18414 1.5473,-2.99203 1.5473,-2.99203 -2.2124,-2.35487 -2.2123,-2.35476 0.6322,-4.61181 0.6321,-4.61181 1.9855,-4.48869 1.9856,-4.48845 4.2393,-5.06352 4.2394,-5.06353 4.3762,-2.77525 4.3761,-2.77537 5.3989,-1.20819 5.3988,-1.20818 5.1899,1.63966 5.19,1.63956 5.6908,3.56421 5.6908,3.5641 3.6315,5.97794 3.6314,5.97793 0.5099,3.80296 0.5103,3.80274 -2.2007,6.97269 -2.2007,6.97293 -3.8299,4.87692 c -2.1066,2.6823 -5.4767,7.34429 -7.4895,10.35967 -2.0128,3.0155 -5.0026,6.67487 -6.6443,8.13198 l -2.9845,2.64911 0.8488,1.44787 c 0.4668,0.79636 4.9333,5.78427 9.9256,11.08412 l 9.0768,9.63626 1.1906,-1.43445 1.1905,-1.43445 0.1997,-2.82866 0.1997,-2.82879 -3.7333,-0.30904 -3.7332,-0.30916 -2.4971,-3.2739 -2.4972,-3.27402 0,-2.07762 0,-2.07762 1.428,-1.42809 1.4281,-1.42798 8.2913,-2.57778 c 4.5602,-1.41768 10.5341,-3.0873 13.2756,-3.71012 l 4.9842,-1.13246 11.9622,-0.39333 c 6.5794,-0.21643 14.3175,-0.66005 17.1959,-0.98597 l 5.2334,-0.59253 -4e-4,1.3179 -6e-4,1.3178 -7.0892,6.47947 c -3.8992,3.56387 -8.497,7.88029 -10.2173,9.5921 l -3.1279,3.11262 -4.8627,0.70584 c -2.6743,0.38824 -5.4779,0.94204 -6.2302,1.23073 l -1.3679,0.5249 0,4.84027 0,4.84015 -2.1268,5.68462 -2.127,5.6845 2.8643,2.07855 c 1.5753,1.14321 4.6633,3.46305 6.8619,5.15509 l 3.9978,3.07666 -0.1851,1.40925 c -0.1017,0.77509 -0.8055,3.08788 -1.5636,5.13972 l -1.3784,3.73047 -2.3483,2.49985 -2.3485,2.49985 -3.066,0 -3.0661,0 -3.2639,-1.98998 c -1.7951,-1.09385 -3.8656,-1.98941 -4.6008,-1.98941 -0.7352,0 -2.4772,-0.89718 -3.8713,-1.9938 -1.394,-1.0965 -3.1368,-1.98224 -3.8727,-1.96813 -0.7359,0.0139 -3.8052,1.60059 -6.8208,3.52571 l -5.4827,3.50028 -9.4305,2.95376 -9.4305,2.95388 -5.0239,-0.0728 -5.0238,-0.0728 -4.9844,-1.77644 z m 24.1884,-24.12389 4.3826,-2.12156 0.488,-1.27201 0.4883,-1.27189 -10.2879,-10.05803 -10.2878,-10.05803 -1.2035,0 -1.2036,0 -2.7839,3.66942 c -1.5311,2.0182 -4.2416,5.01659 -6.0236,6.66308 l -3.2398,2.99353 0,1.3482 0,1.34797 4.2366,4.32278 c 2.3301,2.37741 5.1338,4.81472 6.2303,5.41604 l 1.9938,1.09349 6.4141,0.0301 6.4139,0.0301 4.3825,-2.12144 z m -5.3326,-61.26606 7.6963,-6.56688 1.9221,-3.15251 1.9225,-3.15262 0,-3.16326 0,-3.16337 -2.472,-2.93769 -2.472,-2.93781 -2.994,-1.24021 -2.9941,-1.2401 -3.4456,0.64629 -3.4455,0.64641 -2.7033,3.20592 c -1.4869,1.76327 -3.3082,4.64939 -4.0476,6.41358 l -1.3447,3.20777 0,3.861 0,3.86112 1.4117,4.69055 c 1.402,4.65887 3.1545,7.58858 4.5394,7.58858 0.3973,0 4.1861,-2.95503 8.419,-6.56677 z m 176.8082,58.40756 c -3.1356,-0.40223 -8.8801,-1.75355 -12.7655,-3.00278 l -7.0644,-2.27151 -5.9193,-3.59543 c -3.2555,-1.97739 -8.2134,-5.38957 -11.0171,-7.58269 l -5.0976,-3.98749 -5.7642,-6.7832 -5.764,-6.7832 -3.0158,-5.67745 c -1.6586,-3.12267 -3.9325,-8.59329 -5.0532,-12.15704 -1.1207,-3.56375 -2.9894,-11.62867 -4.1529,-17.92201 l -2.1157,-11.44253 0.4432,-4.50718 c 0.64,-6.51162 3.4574,-20.97336 6.2338,-31.99886 2.7642,-10.97672 8.6764,-28.39476 11.6353,-34.27823 4.4079,-8.76498 15.4973,-26.36754 22.304,-35.40352 3.9489,-5.24193 10.2559,-12.6772 14.0159,-16.52283 3.7599,-3.84551 9.9748,-9.36468 13.8109,-12.26468 l 6.9744,-5.27279 8.266,-4.09593 8.2658,-4.09605 10.6779,-0.0671 10.6777,-0.0671 9.4702,3.82135 c 5.2087,2.1019 10.3675,3.89626 11.4641,3.98748 l 1.9935,0.16615 0.4985,-5.52785 0.4985,-5.52795 1.8494,-2.82104 1.8492,-2.82126 5.4846,0.64456 5.4843,0.64467 5.3879,2.54876 5.3877,2.54876 3.4774,3.27957 3.4774,3.27968 0,4.99115 c 0,2.74519 -0.2806,6.39381 -0.6234,8.10794 l -0.6233,3.11678 -3.932,4.46706 -3.9321,4.46694 0.6268,1.01419 0.6267,1.01407 1.8245,0 1.8243,0 2.3026,1.86443 2.3024,1.86442 -1.1838,13.83614 c -1.3626,15.92451 -2.3849,23.53205 -4.5148,33.59043 -0.8338,3.93835 -1.9507,9.40364 -2.4817,12.14501 -0.5312,2.74138 -1.7041,8.28194 -2.6066,12.31243 l -1.6407,7.3281 -2.4746,4.88328 -2.4745,4.88351 -0.8638,0 -0.8638,0 -0.6011,-2.24295 c -0.3306,-1.23362 -0.6072,-4.61239 -0.6147,-7.50834 l -0.014,-5.26563 -1.347,-3.22372 -1.347,-3.22396 -0.735,-12.90323 -0.735,-12.90323 -4.2715,-12.50053 -4.2715,-12.50054 -4.2926,-8.37061 -4.2929,-8.37061 -3.5817,-3.76504 -3.5816,-3.76504 -2.7619,-0.69324 -2.7618,-0.69312 -4.3662,1.66742 c -2.4012,0.91695 -7.204,3.5404 -10.6729,5.82971 l -6.3067,4.16242 -9.2909,9.4174 -9.2908,9.41751 -7.3437,11.03915 -7.3441,11.03927 -6.9681,14.45433 c -7.483,15.52297 -12.4954,28.35602 -16.5783,42.44489 l -2.5599,8.83354 -0.6172,7.50627 -0.6173,7.50626 -2.3335,2.80763 -2.3333,2.80762 1.4668,2.83653 c 0.807,1.56024 2.745,3.88551 4.307,5.16735 l 2.84,2.33059 2.6703,4.67655 2.6701,4.67668 4.7276,4.84073 4.7271,4.84074 4.8301,2.3307 4.8298,2.33048 11.1199,-0.52236 11.1197,-0.52247 9.6533,-3.12707 c 5.3093,-1.7199 12.2325,-4.26774 15.3851,-5.66207 l 5.7318,-2.53477 1.7713,0.46316 1.7712,0.46316 2.863,-2.73594 2.8629,-2.73594 7.0293,-2.68611 7.0296,-2.68611 1.8577,-2.05277 c 1.0217,-1.12911 3.0293,-2.65871 4.4611,-3.399 l 2.6032,-1.34623 1.1828,-2.78843 1.1824,-2.78832 5.6423,-3.42744 c 3.1032,-1.88512 7.3275,-4.94999 9.3874,-6.81095 l 3.7451,-3.38351 3.9563,-6.26443 3.9564,-6.26454 1.4909,-0.57219 1.491,-0.57195 1.22,1.46994 1.2198,1.47006 -1.1116,2.20896 c -0.6115,1.2149 -2.2135,6.77881 -3.5602,12.36411 l -2.4485,10.15538 -4.8113,8.78498 -4.8113,8.78498 -6.6629,6.6677 -6.6625,6.66759 -2.8602,1.47884 -2.86,1.47896 -1.9216,-0.17169 -1.922,-0.17157 -2.7732,5.48252 -2.7732,5.48286 -10.7065,6.6706 -10.7063,6.6707 -8.9717,2.97943 -8.9717,2.9792 -7.7978,1.06621 c -8.5398,1.16772 -13.1762,1.18333 -21.8279,0.074 z m -940.17938,-17.33988 -3.85061,-1.44705 -2.96947,-2.82023 -2.96949,-2.82011 -1.95745,-3.80631 -1.95747,-3.80644 -0.55965,-4.72534 -0.55967,-4.72547 2.37783,-2.76427 2.37781,-2.76438 6.24649,-0.73659 6.24648,-0.73647 1.69689,-1.6969 1.69688,-1.6969 0.51128,-9.19195 0.51131,-9.19206 2.99055,-0.50929 2.9906,-0.50929 0.30939,-2.67432 0.3094,-2.6742 -2.80153,-1.78384 c -1.54085,-0.98112 -3.13112,-2.24284 -3.53394,-2.80381 l -0.73236,-1.01997 -0.0154,-28.69085 -0.0153,-28.69096 1.24607,-0.38384 c 0.68534,-0.21112 2.43021,-0.64179 3.87749,-0.95696 l 2.6314,-0.57311 0.63308,-1.64973 0.63309,-1.64984 -1.27078,-1.70141 c -0.69894,-0.93568 -2.78081,-3.6737 -4.62643,-6.08441 l -3.35563,-4.38301 0.80584,-15.94972 c 0.44322,-8.77249 0.83179,-20.28821 0.86349,-25.59071 l 0.0576,-9.64089 -2.40712,-2.56032 -2.4071,-2.56043 -5.56775,-2.07612 -5.56772,-2.07601 -2.16237,-2.0197 -2.16237,-2.01958 -2.12289,-4.93473 -2.12288,-4.93485 -0.16331,-5.89191 -0.16332,-5.89203 2.33471,-2.48517 2.33472,-2.48517 8.59341,-3.14118 8.59343,-3.14117 15.45129,-2.88301 15.45128,-2.88312 17.94342,0.0208 17.94344,0.0208 9.58576,0.93279 9.58571,0.93291 8.19167,2.98949 c 4.5054,1.64441 10.96524,4.54082 14.35517,6.43647 3.38994,1.89575 8.19487,5.23486 10.67767,7.42036 l 4.51414,3.97349 6.32389,8.81793 6.32388,8.81782 4.77737,9.96854 4.77737,9.96866 1.67432,6.47948 1.67435,6.47947 0.0894,7.47644 0.0895,7.47655 -1.29122,5.48264 -1.29119,5.48275 -3.89715,7.97485 -3.89714,7.97486 -5.72765,6.6551 c -3.15019,3.66029 -7.97057,8.64682 -10.71193,11.08088 -2.74135,2.4343 -8.49781,6.94599 -12.7921,10.02612 l -7.8078,5.60022 -12.12934,5.86856 c -15.29145,7.3984 -33.13532,14.54232 -41.53661,16.62931 -3.56376,0.88527 -8.14158,2.03611 -10.17292,2.55754 l -3.69336,0.94794 -1.54015,1.54024 -1.54013,1.54 0,12.93329 0,12.93329 2.28653,2.28654 2.28656,2.28654 4.06355,0.64977 4.06355,0.64976 1.24839,1.50428 1.24839,1.50428 5.11142,0.0139 5.11146,0.015 4.30286,1.49861 4.30285,1.49862 0.92332,-0.57057 c 0.86952,-0.53726 21.85388,-1.65319 28.35153,-1.50751 1.64481,0.0358 4.56062,0.074 6.47957,0.0809 1.91895,0.0127 4.10026,0.23319 4.84734,0.50108 l 1.35835,0.48686 -1.23118,1.48335 -1.23119,1.48359 -1.55691,0 c -0.85634,0 -3.60508,0.95291 -6.10833,2.11786 -2.50324,1.16471 -7.24288,3.3687 -10.53251,4.89761 -3.28962,1.52891 -8.67265,3.53948 -11.96227,4.46811 -3.28964,0.92863 -7.45428,2.31324 -9.25476,3.07724 l -3.27362,1.38889 -3.73181,0 -3.73181,0 -2.18012,1.52706 c -3.25921,2.28284 -9.6321,4.34625 -20.19435,6.53821 l -9.47015,1.96548 -11.96227,0.49796 -11.96229,0.49795 -3.8506,-1.44705 z m 74.49262,-110.94956 8.83692,-3.49196 4.31408,0.64688 4.31409,0.64698 1.59814,-2.43915 1.59814,-2.43904 -0.60037,-2.3921 -0.6004,-2.3921 1.96726,-1.78025 1.96726,-1.78038 2.14036,1.14553 2.14035,1.14541 1.5175,-1.25941 1.5175,-1.25941 -0.55462,-2.77317 -0.55465,-2.77305 4.97947,-5.6904 c 6.22057,-7.10866 11.23716,-14.62267 14.70766,-22.0295 l 2.68141,-5.72301 6.5e-4,-8.97169 6.3e-4,-8.9717 -2.65204,-5.65734 -2.65203,-5.65721 -4.07928,-4.42556 -4.07925,-4.42544 -5.81249,-2.60853 -5.81251,-2.60842 -7.6495,-1.13777 -7.64948,-1.13767 -9.71241,1.17859 c -5.34183,0.64815 -10.46068,1.39457 -11.37525,1.65875 l -1.66283,0.48015 -3.45306,-3.0318 -3.45306,-3.03192 -2.07625,0 -2.07627,0 -1.03192,1.92825 c -0.56755,1.06043 -1.03193,3.00394 -1.03193,4.31884 l 0,2.3906 -3.66006,2.4099 c -2.01305,1.32554 -4.53903,3.60503 -5.61333,5.06561 l -1.95328,2.65558 -0.82036,15.78624 -0.82039,15.78623 -0.0458,28.4691 -0.0458,28.46921 1.24608,1.57111 c 0.68534,0.86411 1.91895,1.77309 2.74136,2.01993 l 1.49528,0.44859 11.46386,-2.42066 11.46387,-2.42065 8.83689,-3.49219 z m 93.83938,108.64961 c -1.64481,-0.21829 -5.37996,-1.07073 -8.30031,-1.89449 l -5.30974,-1.49758 -4.2036,-4.20369 -4.20359,-4.20357 -4.37872,-11.44692 -4.37871,-11.44693 -0.41603,-13.41841 -0.41604,-13.41853 1.18398,-7.33932 1.18397,-7.33943 2.40062,-7.05802 c 1.32034,-3.88204 4.00979,-9.98565 5.97656,-13.56386 4.28276,-7.79149 11.10317,-16.85556 17.59831,-23.38742 l 4.75271,-4.77957 8.2623,-3.96459 8.26232,-3.96448 5.08258,-0.60202 5.08254,-0.60189 5.17155,2.81467 5.17152,2.81468 5.29335,5.08607 5.29335,5.08619 2.48591,4.93426 2.48592,4.93427 1.12084,5.28262 1.12085,5.2825 -0.005,12.6609 -0.005,12.6609 -1.04078,3.74769 -1.04074,3.74759 -2.19346,1.42335 -2.19348,1.42323 -6.978,1.14102 c -6.99625,1.14379 -41.36472,9.67985 -48.846,12.13172 l -3.98743,1.30669 -1.73752,3.55185 -1.73756,3.55184 1.69028,4.42313 c 0.92965,2.43256 2.73676,6.12153 4.01579,8.19742 l 2.32549,3.77429 3.20447,2.02085 3.20449,2.02109 6.07054,-0.43425 6.07055,-0.43414 6.39016,-2.81826 c 3.5146,-1.55007 11.77066,-6.03725 18.34683,-9.97144 l 11.95666,-7.15317 1.35819,0.5212 1.35819,0.5212 -0.53297,3.28419 c -0.29312,1.80639 -1.43729,5.32863 -2.54258,7.82745 l -2.00961,4.5429 -2.477,0 -2.47699,0 -1.6333,1.63343 -1.63327,1.63319 0.15923,4.0986 c 0.0876,2.25428 0.11761,4.5851 0.0668,5.17948 l -0.0924,1.08078 -8.75073,4.15849 -8.75075,4.15871 -6.94975,1.47203 c -6.88304,1.45803 -9.1288,1.58012 -14.92462,0.81151 z m 9.52843,-73.55837 16.38987,-3.68607 4.15139,-1.80743 4.15138,-1.80754 1.08212,-2.0219 1.0821,-2.02201 0,-10.5124 0,-10.51229 -1.60716,-4.01685 -1.60716,-4.01662 -2.35422,-0.59092 -2.35422,-0.59079 -4.49994,2.17832 -4.49993,2.17844 -7.44827,6.95593 c -4.09656,3.82574 -8.97787,9.05911 -10.84738,11.62983 -1.8695,2.57084 -5.30012,8.33986 -7.62361,12.82022 l -4.22452,8.14597 0.70633,1.14286 0.70632,1.14287 1.20353,-0.46189 c 0.66194,-0.25401 8.57895,-2.1204 17.59337,-4.14773 z m 315.82813,71.88054 c -1.98362,-0.70872 -5.23984,-2.29821 -7.23607,-3.53195 l -3.62977,-2.2433 -2.49423,-4.25618 c -1.37187,-2.341 -4.17159,-8.91852 -6.22153,-14.61689 l -3.72724,-10.36072 0.0931,-15.94971 0.0931,-15.94971 2.15998,-7.97486 2.15983,-7.97474 4.04173,-8.4734 4.0419,-8.47327 5.39939,-7.06485 c 2.96961,-3.88574 7.88295,-9.4137 10.91845,-12.28445 l 5.51871,-5.21949 7.50799,-3.46883 7.50789,-3.46883 4.85245,-0.57473 4.8526,-0.57473 4.3195,2.10907 4.3196,2.10907 6.1888,5.53906 6.1889,5.53917 3.2812,6.65972 3.2813,6.65972 0.3231,17.47134 0.323,17.47134 -1.0261,2.68923 -1.0262,2.68924 -2.2875,1.48404 -2.2874,1.48417 -9.0023,1.55122 c -4.9512,0.85325 -17.5117,3.81695 -27.91204,6.58608 l -18.90972,5.03462 -4.48579,2.19983 -4.48591,2.19994 0.16753,6.15113 0.16753,6.15124 2.03427,4.59864 2.03415,4.59863 3.4982,1.46162 3.4982,1.46162 7.25907,-0.0173 7.25943,-0.0174 8.40714,-3.4094 8.40704,-3.40929 1.8937,1.01337 1.8934,1.0135 1.8212,-1.64811 c 1.0016,-0.90655 2.0696,-2.62449 2.3736,-3.81765 l 0.5526,-2.16965 6.2714,-4.23664 6.2715,-4.23664 1.8342,0 1.8344,0 2.8513,-2.03034 c 1.5682,-1.11673 4.9271,-2.94855 7.464,-4.07073 l 4.6126,-2.04039 0.5212,0.5212 0.521,0.5212 -1.6708,4.37514 -1.6709,4.37503 -3.8869,5.13556 c -2.1379,2.8245 -4.7822,6.89049 -5.8765,9.0354 l -1.9896,3.89997 -5.0444,4.41261 -5.0441,4.4126 -9.1956,4.62812 -9.1955,4.628 -4.74415,1.24461 -4.74385,1.2446 -1.54289,-2.20283 -1.54279,-2.20295 -2.68484,0 -2.68483,0 -3.98761,2.45592 c -2.19312,1.35074 -4.66025,2.45025 -5.48263,2.44331 -0.82249,-0.0127 -3.11817,-0.59264 -5.10168,-1.30149 z m 16.06695,-71.45461 c 7.40175,-1.63955 16.26607,-3.90482 19.69837,-5.03404 l 6.2405,-2.053 1.1006,-2.05658 1.1006,-2.05646 0.1353,-11.56555 0.135,-11.56567 -2.0743,-3.48895 -2.0745,-3.48906 -3.4908,0.0983 -3.491,0.0983 -6.12801,4.16149 -6.12847,4.1616 -2.36828,-0.5945 -2.36839,-0.59438 -1.63944,1.63955 -1.63955,1.63944 0.61068,2.43291 0.61068,2.43303 -3.95268,5.22065 c -2.17405,2.87121 -5.81284,8.64011 -8.0862,12.81963 l -4.13339,7.59934 0,2.23648 0,2.23648 2.24284,-0.64977 c 1.23362,-0.35737 8.29881,-1.99102 15.70044,-3.63069 z m 619.31737,72.13004 -2.223,-0.42951 -2.0137,-2.55986 -2.0137,-2.55986 0,-1.73724 0,-1.73714 -1.4076,-1.1683 -1.4078,-1.16853 -6.0413,2.54275 c -3.3226,1.39849 -9.53,3.69451 -13.7942,5.10237 l -7.753,2.55962 -9.0516,0.56629 -9.0518,0.56618 -5.2893,-1.75691 -5.2891,-1.7569 -3.8461,-3.47461 -3.8462,-3.47462 -1.5009,-5.05439 -1.501,-5.05428 0,-4.75806 0,-4.75807 2.4153,-6.65371 2.4151,-6.65371 3.7309,-5.4172 3.7311,-5.4172 5.5668,-4.01905 5.5671,-4.01905 11.9621,-5.82751 11.9622,-5.82764 8.7816,-2.18965 8.7816,-2.18954 2.0934,-1.69516 2.0933,-1.69505 -1.1006,-9.68818 -1.1004,-9.68817 -1.7995,-3.68157 -1.7995,-3.68156 -7.9749,-0.2806 -7.975,-0.28072 -7.9746,3.87661 -7.975,3.8765 -7.4765,5.54715 c -4.1119,3.05099 -8.0492,6.14303 -8.7493,6.87118 -0.7001,0.72815 -2.3511,2.66969 -3.6689,4.31445 l -2.3959,2.99064 -1.1989,-1.17951 -1.1988,-1.17929 2.6901,-6.79545 c 1.4793,-3.73764 4.1184,-9.19727 5.8646,-12.13265 l 3.1746,-5.33731 5.8552,-4.91091 c 3.2205,-2.70102 7.7212,-6.00418 10.0014,-7.34047 2.2801,-1.33629 6.1498,-3.14279 8.599,-4.01431 l 4.453,-1.58487 7.1743,-0.0393 7.1739,-0.0405 5.3321,2.44112 5.3323,2.44112 3.6523,3.20696 3.6526,3.20685 2.4182,5.16561 2.4181,5.16562 1.1335,5.3869 1.1335,5.38691 0.9596,14.05175 c 0.5279,7.7286 0.9665,17.97693 0.9745,22.77431 l 0.015,8.72255 0.9381,0 c 0.5159,0 1.2153,-0.44871 1.5542,-0.99696 l 0.616,-0.99684 2.0594,0 2.0596,0 -0.647,3.23979 c -0.3558,1.78199 -1.9817,6.09378 -3.6137,9.58204 l -2.9666,6.34236 0,1.88177 0,1.88176 1.0519,0 c 0.5784,0 3.6065,-1.31004 6.7289,-2.91133 8.3671,-4.29132 14.6226,-7.05721 15.9601,-7.05721 l 1.1806,0 0,0.92643 c 0,0.50941 -1.8253,3.6744 -4.0561,7.03305 l -4.0563,6.10673 -0.7682,4.86028 -0.7685,4.86038 -1.6152,2.46494 -1.615,2.46505 -5.2734,2.99342 -5.2735,2.9933 -5.4144,1.58846 c -2.9777,0.87371 -5.6694,1.52752 -5.9812,1.45283 -0.3117,-0.0752 -1.5671,-0.32905 -2.7897,-0.56525 z m -35.6512,-22.69522 7.6581,-1.46532 5.6379,-2.5713 c 3.1008,-1.41422 7.3221,-3.73302 9.3805,-5.1529 l 3.7425,-2.58159 1.9894,-3.21887 1.9894,-3.21887 0,-4.16427 0,-4.16426 -2.4469,-2.4469 -2.4469,-2.4469 -1.9174,0 -1.9172,0 -1.4984,-2.24284 -1.4984,-2.24295 -1.9074,1.71366 -1.9076,1.71366 -6.7474,2.08421 -6.7473,2.08399 -3.6752,3.24846 c -2.0213,1.78674 -5.7893,4.73992 -8.3734,6.56272 l -4.6984,3.31403 -2.4292,3.59566 c -1.336,1.97761 -2.7356,4.62696 -3.1101,5.88741 l -0.6809,2.29174 1.6011,2.4432 1.6009,2.44343 5.3721,0 5.3721,0 7.6581,-1.4652 z m -505.2445,18.01531 -3.6576,-3.65763 -2.492,-4.91785 -2.4922,-4.91785 0,-2.46644 0,-2.46644 1.2413,-0.76711 1.241,-0.767 8.4783,-0.0405 8.4782,-0.0393 0.6003,-19.9372 0.6,-19.93708 1.2238,-5.21915 1.2238,-5.21903 -0.3286,-12.8964 -0.3288,-12.89629 -2.2076,-2.34701 -2.2079,-2.34689 0.5765,-2.20411 0.5763,-2.20399 -1.6757,-0.64306 -1.6755,-0.64294 -2.1757,1.14495 -2.1757,1.14483 -4.9844,-1.90617 -4.9841,-1.90628 -0.3396,-1.6873 -0.3394,-1.68719 2.2131,-2.35568 2.2129,-2.35567 8.5935,-3.15748 8.5933,-3.15725 5.5453,-0.11746 5.5451,-0.11736 2.7621,1.80986 2.7623,1.80986 1.412,3.37934 1.4119,3.37958 0,5.01624 0,5.01624 1.2461,-4.7e-4 1.2461,-4.6e-4 5.7011,-6.37519 5.7008,-6.37508 4.3331,-2.09762 4.3332,-2.09763 4.588,0 c 2.5235,0 5.3319,0.28546 6.2413,0.63427 l 1.6531,0.63451 0.8958,2.35614 0.8959,2.35626 2.8287,0 2.8288,0 2.5552,2.74126 2.5552,2.74137 4.111,8.50831 4.1106,8.50831 -0.058,1.95877 c -0.031,1.0772 -0.8573,5.02641 -1.8348,8.77596 l -1.7772,6.81731 -4.3956,1.96397 -4.3956,1.96386 -2.6485,2.53107 -2.6486,2.53084 -5.951,-2.67051 -5.9506,-2.67062 -1.0825,-2.37568 -1.0823,-2.37568 0.826,-0.51044 0.8259,-0.51056 1.7832,1.97021 1.7829,1.9701 2.6456,0 2.6454,0 1.6328,-1.24599 1.6326,-1.246 1.534,-4.48591 c 0.8436,-2.46725 1.5405,-5.2914 1.5484,-6.27564 l 0.015,-1.78986 -2.4921,-2.49222 c -1.3707,-1.37063 -2.4922,-2.84196 -2.4922,-3.26986 0,-0.42778 -1.0382,-1.7532 -2.3071,-2.94532 l -2.3071,-2.16746 -5.446,0 -5.446,0 -2.2373,1.56718 -2.2375,1.56718 -2.8299,5.65999 c -1.5564,3.11308 -3.5531,7.90306 -4.437,10.64432 -0.8842,2.74137 -2.7539,11.70336 -4.1549,19.91569 l -2.5477,14.93125 -0.1,7.72582 -0.099,7.72571 1.7082,2.6068 1.708,2.60679 4.2841,1.89507 4.2839,1.89506 0.5425,2.0737 0.5422,2.07369 2.0446,-1.09419 2.0446,-1.09431 1.9552,1.22114 1.9551,1.22102 2.477,-1.32554 2.4767,-1.32566 2.8183,0.70341 c 1.5498,0.38697 3.491,1.28115 4.3135,1.98721 0.8222,0.70596 2.738,1.57909 4.257,1.94016 l 2.7619,0.65647 2.0802,-1.11339 2.0803,-1.11338 0.9538,0.95395 0.954,0.95395 -1.708,1.708 -1.7079,1.70799 -2.0209,-0.52848 -2.0206,-0.52836 -2.5658,1.3808 c -3.8987,2.09809 -12.0437,4.50545 -15.2436,4.50545 l -2.8527,0 -4.1971,2.17243 -4.1968,2.17242 -10.9656,0.73821 c -6.0309,0.40605 -15.2633,1.05939 -20.5161,1.45191 l -9.5508,0.71358 -3.6578,-3.65751 z m 578.4109,0.75451 c -1.4238,-1.56764 -3.3302,-3.95939 -4.2367,-5.31499 l -1.6483,-2.4647 0,-2.76878 0,-2.76878 1.9545,-1.95449 1.9545,-1.95437 5.5207,-1.60487 5.5206,-1.60487 0.5682,-2.26434 0.5684,-2.26434 -0.3177,-35.795 -0.3179,-35.79523 -2.0475,-3.4856 -2.0476,-3.4856 -3.4352,-2.31498 -3.4352,-2.31487 0,-1.17743 0,-1.17744 9.4703,-3.21447 c 5.2086,-1.76801 10.3674,-3.22593 11.4639,-3.2398 l 1.9938,-0.0254 2.5831,3.2398 2.5831,3.2398 1.2755,3.98748 c 0.7014,2.19301 1.655,4.39862 2.119,4.90132 l 0.8435,0.91395 7.2603,-7.54107 7.2601,-7.54106 4.2366,-1.13697 4.2367,-1.13686 3.76,1.01234 3.76,1.01256 4.2299,3.11054 4.2297,3.11065 2.3794,4.13941 c 1.3088,2.2766 2.6748,5.55767 3.0354,7.29099 l 0.6561,3.15169 -1.1238,6.31854 c -0.6182,3.47508 -2.2558,10.06335 -3.6391,14.6406 l -2.5153,8.32216 -5.8959,6.04419 -5.896,6.04406 -0.6124,-0.6123 -0.6122,-0.6123 1.7055,-6.95952 1.7054,-6.9594 -0.5671,-10.2111 -0.5673,-10.21111 -1.006,-1.00632 -1.0063,-1.00621 -5.5356,1.74488 -5.5356,1.74499 -3.0698,4.17317 c -1.6885,2.29533 -3.6894,5.61733 -4.4467,7.38232 l -1.3769,3.20905 -2.4915,16.41599 -2.4917,16.41623 0,6.09343 0,6.09332 1.4584,2.82034 c 0.8023,1.55111 2.0359,3.03585 2.7414,3.29946 0.7057,0.2636 6.6659,0.15874 13.2452,-0.2332 l 11.9622,-0.71243 0.9011,0.80642 0.901,0.80643 -2.7329,3.58317 c -1.5032,1.9708 -4.1866,4.53586 -5.963,5.70034 l -3.2299,2.11728 -2.1549,3.28755 -2.155,3.28754 -2.6072,1.70835 -2.6071,1.70811 -9.6146,0.72145 c -5.2881,0.39679 -13.8765,1.03615 -19.085,1.42092 l -9.4702,0.69948 -2.5884,-2.85017 z m 85.1481,1.00771 c -1.1952,-1.02528 -3.326,-3.60895 -4.7351,-5.7415 l -2.5618,-3.8773 0,-1.93137 0,-1.93125 2.7928,-2.79294 2.793,-2.79282 4.1276,-0.6974 4.1278,-0.69728 0.9622,-1.16819 0.9624,-1.16807 0.2124,-34.89007 0.2125,-34.89007 -0.9956,-4.7709 -0.9951,-4.77102 -1.7553,-1.93969 -1.7555,-1.93946 -5.0954,-1.89831 -5.0954,-1.89807 -0.2719,-1.35987 -0.2718,-1.35977 12.6392,-2.25544 12.6394,-2.25544 2.5852,1.6443 c 1.422,0.90446 3.5789,2.81652 4.7929,4.24924 l 2.2074,2.60483 0.6449,3.23968 0.645,3.23991 1.1352,-0.0127 1.1351,-0.0127 4.6841,-5.87481 4.6844,-5.8748 5.4801,-2.68126 5.4803,-2.68125 3.293,0.70942 c 1.8113,0.3902 4.6389,1.37953 6.2838,2.19856 3.8378,1.9109 8.287,6.04707 9.9726,9.27137 l 1.321,2.52737 -1.4229,12.92393 -1.4228,12.92392 -2.9522,4.48579 c -1.6236,2.46725 -3.7198,5.94394 -4.6579,7.72571 l -1.7054,3.23979 -1.6139,0 -1.6139,0 -0.096,-8.22401 -0.097,-8.22412 -1.695,-4.21745 -1.6947,-4.21768 -3.2569,-2.01276 -3.257,-2.01288 -2.5009,0 -2.5009,0 -1.9941,4.73506 c -1.0965,2.60426 -2.6959,6.97813 -3.5541,9.71939 -1.6925,5.40633 -5.1654,26.59288 -6.2305,38.00963 l -0.663,7.10704 1.1648,3.52942 c 0.6406,1.94119 1.7027,3.96887 2.36,4.50591 l 1.1949,0.97649 5.4827,-0.98112 c 3.0155,-0.53958 8.1743,-1.10205 11.4639,-1.24993 3.2895,-0.14798 6.7208,-0.58906 7.6248,-0.98054 l 1.6436,-0.7115 0.7057,1.14183 0.7057,1.14182 -6.553,6.30027 -6.5532,6.30005 -1.5574,3.8921 -1.5571,3.8921 -3.1909,1.88489 -3.1909,1.88489 -9.49,0.70422 c -5.2193,0.38731 -13.5272,1.02771 -18.4616,1.42312 l -8.9717,0.7189 -2.1732,-1.86419 z m 113.3228,0.0844 -5.4827,-1.50567 -5.2973,-3.62653 -5.2971,-3.62665 -3.9083,-4.56984 -3.9079,-4.56985 -2.9049,-5.98105 -2.9047,-5.98117 -1.0983,-5.28251 -1.0982,-5.28262 0.02,-9.17183 0.02,-9.17183 0.9694,-6.70227 0.9693,-6.70215 2.1406,-6.25692 c 2.8174,-8.23557 7.3874,-17.3141 11.0636,-21.9791 l 2.9628,-3.75983 6.2523,-4.46152 c 3.4388,-2.45372 8.7035,-5.5838 11.6997,-6.95547 l 5.4475,-2.49384 7.3889,-0.60224 7.389,-0.60236 6.9556,1.63643 6.9558,1.63655 4.1647,2.44065 4.1645,2.44066 3.0822,3.89141 3.0819,3.89141 3.4604,7.33642 c 1.9032,4.03501 4.1744,10.02797 5.0476,13.31749 l 1.5873,5.98117 0.5572,9.47023 0.5571,9.47001 -1.6128,8.47339 c -0.887,4.66026 -2.0727,10.11734 -2.635,12.12687 l -1.022,3.65358 -3.4656,2.04468 -3.4655,2.04467 0,1.54255 c 0,0.84828 0.5534,2.4284 1.2297,3.51126 l 1.2296,1.96895 -1.9773,3.68561 c -1.0875,2.02721 -4.0678,5.97631 -6.6232,8.77608 l -4.646,5.09046 -5.3226,2.9385 -5.3225,2.9385 -12.4608,0.24152 -12.4606,0.24176 -5.4828,-1.50556 z m 23.8811,-20.6398 5.4979,-1.24611 3.8143,-3.80018 3.8145,-3.80031 1.9375,-4.52024 1.9376,-4.52037 1.0986,-7.08056 1.0987,-7.08057 -0.6629,-14.0062 c -0.3648,-7.70328 -0.6446,-16.08996 -0.6218,-18.63687 l 0.039,-4.63089 -2.6927,-1.76419 c -1.4809,-0.97036 -5.0799,-3.70885 -7.9977,-6.08545 l -5.3051,-4.32116 -3.2694,0 -3.2693,0 -5.1178,1.51989 -5.1181,1.51989 -3.2108,2.70184 -3.2112,2.70195 -3.7914,5.86602 -3.7916,5.86613 -0.6081,3.6189 c -0.3346,1.99033 -0.8173,4.38405 -1.0728,5.31915 -0.2554,0.93511 -2.235,3.84274 -4.3987,6.46133 l -3.9343,4.76107 0,1.54128 0,1.54117 1.8396,1.57527 1.8401,1.57538 0.6845,5.82671 0.6849,5.82671 4.3095,9.09726 4.3094,9.09726 2.9217,2.08051 c 3.4484,2.45534 8.4767,4.02657 13.2868,4.15155 1.9028,0.0497 5.9336,-0.47091 8.9574,-1.15617 z m 88.983,19.61036 -5.1566,-2.56957 -2.5632,-3.04626 c -1.4099,-1.67528 -3.3982,-4.68268 -4.4185,-6.68296 l -1.8555,-3.63671 -1.0877,-5.88336 -1.0875,-5.88324 -0.069,-26.48293 -0.071,-26.48281 -0.7796,-1.99368 -0.7794,-1.9938 -7.1941,0 -7.194,0 -3.9187,-4.19803 -3.9187,-4.19802 0,-2.54425 0,-2.54425 -1.1541,-1.84812 -1.1541,-1.84824 0.5434,-1.41619 0.5433,-1.41606 5.8811,-3.08268 5.8808,-3.08279 5.752,-1.28715 5.7519,-1.28716 1.1895,-2.07172 1.1894,-2.07161 -0.2557,-20.26405 -0.2559,-20.26405 -1.0595,-1.97969 -1.0594,-1.97981 1.1881,-1.43156 1.1881,-1.43156 1.9904,0 1.9906,0 5.8332,3.54352 5.8331,3.54363 2.0982,2.94671 2.0985,2.94683 0.5802,15.09947 0.5803,15.09959 1.8517,1.85136 1.8514,1.85148 2.7262,-0.65508 c 1.4995,-0.36015 4.2962,-1.43203 6.215,-2.38158 l 3.4892,-1.72685 7.831,-0.7189 7.831,-0.7189 3.633,-1.54787 3.6326,-1.54787 5.2228,-0.10058 5.2227,-0.1029 0.4885,1.27363 0.4885,1.27351 -1.7238,1.40508 c -0.9481,0.77278 -3.8279,3.11551 -6.3995,5.20608 -2.5715,2.09046 -8.4806,7.19988 -13.1313,11.35409 l -8.4555,7.55332 -8.7996,3.32766 c -4.8397,1.83021 -9.4725,3.94182 -10.295,4.69229 l -1.4952,1.36438 -0.321,27.62892 -0.3212,27.62879 0.6462,5.26597 0.6461,5.26609 2.3132,2.68935 2.3131,2.68923 3.0642,-1.47584 3.0639,-1.47561 11.3467,-11.10089 c 6.2405,-6.10557 12.319,-11.6215 13.5078,-12.25774 l 2.1611,-1.15662 0.8511,0.52593 0.851,0.52594 -0.8057,4.25526 c -0.4434,2.34041 -1.5223,5.95608 -2.3977,8.03486 l -1.5918,3.77984 -3.0937,2.76426 -3.0939,2.76427 1.1537,2.15567 1.1536,2.15577 -1.5652,3.761 -1.5654,3.76099 -4.1894,4.36047 c -2.3043,2.39845 -6.1837,5.65074 -8.6214,7.2274 l -4.4319,2.86647 -5.5901,0 -5.5901,0 -5.1567,-2.56957 z"
       id="path4376"
       inkscape:connector-curvature="0" />
  </g>
</svg>
