<?xml version="1.0" encoding="UTF-8" standalone="no"?>
<!-- Created with Inkscape (http://www.inkscape.org/) -->

<svg
   xmlns:dc="http://purl.org/dc/elements/1.1/"
   xmlns:cc="http://creativecommons.org/ns#"
   xmlns:rdf="http://www.w3.org/1999/02/22-rdf-syntax-ns#"
   xmlns:svg="http://www.w3.org/2000/svg"
   xmlns="http://www.w3.org/2000/svg"
   xmlns:xlink="http://www.w3.org/1999/xlink"
   xmlns:sodipodi="http://sodipodi.sourceforge.net/DTD/sodipodi-0.dtd"
   xmlns:inkscape="http://www.inkscape.org/namespaces/inkscape"
   id="svg2"
   version="1.1"
   inkscape:version="0.91 r"
   width="2481"
   height="663"
   sodipodi:docname="Pepper-and-Carrot_by-David-Revoy_E02P00.svg">
  <metadata
     id="metadata8">
    <rdf:RDF>
      <cc:Work
         rdf:about="">
        <dc:format>image/svg+xml</dc:format>
        <dc:type
           rdf:resource="http://purl.org/dc/dcmitype/StillImage" />
        <dc:title />
      </cc:Work>
    </rdf:RDF>
  </metadata>
  <defs
     id="defs6" />
  <sodipodi:namedview
     pagecolor="#ffffff"
     bordercolor="#666666"
     borderopacity="1"
     objecttolerance="10"
     gridtolerance="10"
     guidetolerance="10"
     inkscape:pageopacity="0"
     inkscape:pageshadow="2"
     inkscape:window-width="1920"
     inkscape:window-height="1028"
     id="namedview4"
     showgrid="false"
     inkscape:zoom="0.59975816"
     inkscape:cx="1240.5"
     inkscape:cy="331.5"
     inkscape:window-x="0"
     inkscape:window-y="0"
     inkscape:window-maximized="1"
     inkscape:current-layer="layer1"
     showguides="false" />
  <g
     inkscape:groupmode="layer"
     id="layer2"
     inkscape:label="artwork"
     sodipodi:insensitive="true">
    <image
       sodipodi:absref="/home/deevad/peppercarrot/webcomics/New/lang/pl/../gfx_Pepper-and-Carrot_by-David-Revoy_E02P00.png"
       xlink:href="../gfx_Pepper-and-Carrot_by-David-Revoy_E02P00.png"
       y="0"
       x="-1.6728083e-06"
       id="image10"
       height="663"
       width="2481" />
  </g>
  <g
     inkscape:groupmode="layer"
     id="layer1"
     inkscape:label="text">
    <flowRoot
       xml:space="preserve"
       id="flowRoot3063"
       style="font-style:normal;font-variant:normal;font-weight:normal;font-stretch:normal;font-size:72px;line-height:125%;font-family:Arial;-inkscape-font-specification:Arial;letter-spacing:0px;word-spacing:0px;display:inline;fill:#562f13;fill-opacity:1;stroke:none"
       transform="matrix(0.77923967,0,0,0.77489763,102.65365,204.33534)"><flowRegion
         id="flowRegion3065"><rect
           id="rect3067"
           width="2715.5891"
           height="110.01318"
           x="92.642677"
           y="425.30325"
           style="font-size:72px;fill:#562f13;fill-opacity:1" /></flowRegion><flowPara
         id="flowPara3069"
         style="font-style:normal;font-variant:normal;font-weight:normal;font-stretch:normal;font-size:88px;font-family:Lavi;-inkscape-font-specification:Lavi;text-align:center;text-anchor:middle;fill:#562f13;fill-opacity:1">Odcinek 2: Tęczowe eliksiry</flowPara></flowRoot>    <path
       style="display:inline;fill:#562f13;fill-opacity:1;stroke:none"
       d="m 720.62505,502.81402 c -1.9593,-1.72031 -4.2101,-4.3804 -5.00178,-5.91135 l -1.43942,-2.78353 0,-4.06826 0,-4.06827 2.43845,-2.43845 2.43847,-2.43846 1.78368,-0.0316 c 0.98103,-0.0174 2.64562,-0.68368 3.6991,-1.48067 l 1.91541,-1.44908 0.74404,-5.2251 0.74403,-5.22503 0.0725,-22.66627 0.0725,-22.66615 -1.02839,-1.92157 -1.02841,-1.92157 -1.77161,0 c -0.9744,0 -4.14156,-0.70383 -7.03816,-1.56394 l -5.26649,-1.56406 -2.36463,-2.36458 -2.36465,-2.36469 0,-1.53532 0,-1.53532 5.7123,-0.0411 5.71232,-0.0411 4.4705,-2.19421 4.4705,-2.19434 0.28386,-34.77061 0.28384,-34.77049 -1.17919,-4.29772 -1.17921,-4.29772 -2.08497,-1.35239 -2.085,-1.35227 -8.69265,-0.69561 -8.69263,-0.6956 0,-1.18988 0,-1.18988 4.39381,-4.45675 4.39381,-4.45675 12.57357,-5.68333 12.57358,-5.68334 1.91343,0.60738 c 1.05238,0.334 3.25216,1.7338 4.88841,3.11058 l 2.97496,2.5032 0,1.33099 c 0,0.73194 0.70252,2.03332 1.56114,2.89194 l 1.56113,1.5612 10.24907,0 10.24909,0 8.61248,2.49573 c 4.7369,1.37267 10.76857,3.58842 13.40379,4.92376 2.63518,1.33535 8.34224,5.10371 12.68235,8.37406 l 7.89108,5.94603 2.72711,3.93523 2.7271,3.93523 1.42201,4.72504 1.42202,4.72503 0,6.70771 0,6.70771 -1.85928,5.9739 -1.85927,5.9739 -3.67502,6.57158 -3.67502,6.57145 -5.97493,6.38728 -5.97495,6.38715 -6.62112,4.87947 c -3.64163,2.68376 -8.8564,5.98585 -11.58836,7.33799 -2.73199,1.35214 -10.10832,4.16059 -16.39185,6.24107 -6.28354,2.08048 -12.43047,4.14752 -13.65987,4.59338 l -2.23524,0.81084 0,21.4255 0,21.42549 2.39805,2.39805 2.39805,2.39805 2.81753,0.59717 c 1.54965,0.3284 3.56867,1.00148 4.48676,1.49575 l 1.66921,0.89852 4.33189,-0.087 c 2.38256,-0.0477 6.61417,0.22695 9.40361,0.6106 l 5.07171,0.69753 3.15629,-1.63218 3.15627,-1.63223 2.92536,0.6426 c 1.60895,0.3534 4.92921,0.64247 7.37834,0.64247 2.44914,0 4.45296,0.2091 4.45296,0.46465 0,0.25553 -1.61434,1.13914 -3.58744,1.96356 -3.61974,1.51241 -11.40427,6.39822 -16.63483,10.44049 l -2.83699,2.19246 -6.46396,1.7924 -6.46396,1.7924 -4.60728,2.9293 -4.60729,2.92931 -7.45085,2.10486 c -4.09794,1.15768 -9.72538,2.75971 -12.50536,3.56007 l -5.05454,1.45513 -4.10027,0 -4.10025,0 -3.56237,-3.12781 z M 764.5002,396.218 l 8.79363,-4.41855 8.00814,-6.42897 8.00812,-6.42896 4.79721,-5.7926 4.7972,-5.79271 2.84065,-5.96059 2.84062,-5.96071 7.9e-4,-4.27146 7.8e-4,-4.27146 -1.45448,-2.81267 c -0.79998,-1.54702 -2.84142,-3.97966 -4.53657,-5.40609 l -3.08208,-2.59341 -5.64624,-1.69572 -5.64625,-1.69559 -8.44428,-0.0261 -8.44428,-0.0261 -5.4891,1.24065 -5.4891,1.24077 -3.20355,1.9482 -3.20353,1.94821 0,29.76857 0,29.76857 1.73852,1.01268 c 0.9562,0.55686 2.25188,1.02612 2.87935,1.04279 0.62745,0.0162 5.09795,-1.95816 9.93445,-4.38843 z m 72.87082,108.15457 c -1.36598,-0.88317 -3.70409,-3.18721 -5.19582,-5.1201 l -2.71222,-3.51435 -0.61117,-3.25793 -0.61121,-3.25793 1.33653,-2.81647 1.33652,-2.81648 4.3897,-2.10653 4.38971,-2.10655 1.32261,-1.80876 1.32259,-1.80875 0,-27.50358 0,-27.50355 -5.21559,-0.58262 c -2.86857,-0.32055 -6.96708,-0.93627 -9.10778,-1.36845 l -3.89219,-0.7857 -0.31381,-0.9899 c -0.17258,-0.54442 0.0344,-1.53868 0.46005,-2.20953 l 0.77383,-1.21949 7.67952,-1.46936 c 4.22375,-0.8081 8.11523,-1.73865 8.64774,-2.06779 l 0.96823,-0.5983 0,-40.22523 0,-40.22523 -1.44961,-2.80321 -1.44961,-2.80335 -8.2365,-1.16984 c -4.53005,-0.64334 -9.68938,-1.39171 -11.46516,-1.66286 l -3.2287,-0.49315 0,-0.77525 c 0,-0.42633 1.00586,-1.69124 2.23525,-2.81081 2.43262,-2.21537 14.96934,-10.23217 16.00113,-10.23217 0.34999,0 4.61852,-1.79303 9.4856,-3.9845 l 8.84924,-3.98464 2.82328,1.07341 c 1.55278,0.59033 3.60646,1.7822 4.56365,2.64841 l 1.74029,1.57501 0,2.71051 0,2.71039 2.23527,0.59905 c 1.22945,0.32951 6.71477,0.60514 12.18974,0.6126 l 9.95439,0.0137 7.12777,1.97521 c 3.92025,1.08634 9.6704,3.09975 12.77796,4.47404 l 5.65044,2.49885 6.5741,4.89178 c 3.61585,2.69048 8.22849,6.60057 10.25057,8.68914 l 3.67633,3.79735 2.20444,4.96719 2.20432,4.9672 0.44457,7.50299 0.44457,7.50287 -2.90786,8.43603 -2.90773,8.43616 -3.82469,5.76198 c -2.10353,3.16919 -6.06557,8.21403 -8.80451,11.21087 l -4.9798,5.44865 -3.16818,-0.59432 -3.16804,-0.59432 -1.03577,1.26106 c -0.56969,0.69349 -1.19045,2.3744 -1.37955,3.73513 l -0.34351,2.47433 -4.88828,3.19395 -4.88841,3.19383 -12.32907,4.51474 -12.32912,4.51461 -2.15477,0.0149 c -1.18505,0.0125 -2.82523,0.4389 -3.64483,0.95668 l -1.49018,0.9415 0,21.31475 0,21.31475 2.36826,2.52186 2.36814,2.52186 5.15893,1.07092 5.15894,1.07104 9.8582,-0.0286 c 5.42197,-0.0162 12.45477,-0.0796 15.6286,-0.1421 l 5.77043,-0.11324 0.67868,0.67865 0.67869,0.67866 -1.97867,1.16057 c -1.08818,0.63833 -4.82297,2.39558 -8.29944,3.905 l -6.32079,2.74445 -2.94481,2.47787 c -1.61955,1.36278 -3.5181,2.47782 -4.2188,2.47782 l -1.27405,0 -4.36206,3.83218 c -2.39904,2.10767 -6.27646,4.80646 -8.61636,5.9973 l -4.2544,2.16513 -9.65379,2.62425 -9.65388,2.62426 -4.96719,0.3377 -4.96727,0.33769 -2.48363,-1.60573 z m 40.51211,-107.17475 7.1757,-3.43884 7.20133,-5.34599 7.20119,-5.34585 6.95404,-7.37197 6.95417,-7.37183 2.78395,-5.74269 2.78396,-5.74282 0.50316,-4.67526 0.50317,-4.67527 -1.79684,-3.45166 -1.7971,-3.45179 -3.97374,-2.76389 -3.97373,-2.7639 -7.45089,-1.57625 -7.45089,-1.57638 -6.4573,0.57614 c -3.55163,0.31695 -9.13971,1.26044 -12.41809,2.09691 l -5.96062,1.52063 -2.27838,2.57201 -2.27838,2.57189 0.29143,28.0568 0.29154,28.05681 1.36341,1.64109 1.36341,1.64096 1.64501,0 c 0.90464,0 4.87388,-1.54751 8.82049,-3.43885 z m 342.46107,77.02506 c -2.732,-0.97386 -7.2426,-2.92417 -10.0239,-4.33418 l -5.0566,-2.56367 -3.1332,-3.56839 c -1.7233,-1.96276 -4.1271,-5.45611 -5.342,-7.76307 l -2.2087,-4.19456 -0.032,-7.45073 -0.032,-7.45085 3.1364,-6.62011 3.1363,-6.61998 7.7089,-8.06869 7.7087,-8.06881 -2.7906,-5.83901 -2.7908,-5.83888 0.5961,-2.97992 0.596,-2.97992 -1.4219,-1.18005 -1.4218,-1.18004 1.542,-2.98179 1.5419,-2.98178 -2.2048,-2.34678 -2.2047,-2.34678 0.6301,-4.59599 0.6299,-4.596 1.9787,-4.4733 1.9787,-4.47317 4.2247,-5.04622 4.225,-5.04609 4.3612,-2.76576 4.3611,-2.76588 5.3804,-1.20406 5.3803,-1.20407 5.1723,1.634 5.1722,1.634 5.6714,3.55196 5.6713,3.55196 3.6189,5.95747 3.619,5.95747 0.5084,3.78989 0.5083,3.78976 -2.1931,6.94887 -2.1932,6.949 -3.8168,4.8603 c -2.0993,2.67305 -5.458,7.31907 -7.4639,10.32413 -2.0058,3.00518 -4.9854,6.65208 -6.6214,8.10415 l -2.9744,2.64008 0.8459,1.44286 c 0.4653,0.79366 4.9164,5.76447 9.8916,11.04624 l 9.0459,9.60326 1.1864,-1.42954 1.1864,-1.42955 0.1991,-2.81902 0.1988,-2.81902 -3.7204,-0.30798 -3.7203,-0.30811 -2.4887,-3.26277 -2.4886,-3.26276 0,-2.07053 0,-2.07052 1.4231,-1.4232 1.4232,-1.42308 8.2629,-2.5689 c 4.5446,-1.41286 10.4981,-3.07673 13.2301,-3.69742 l 4.9672,-1.12866 11.9214,-0.39198 c 6.5568,-0.21565 14.2684,-0.65778 17.137,-0.98256 l 5.2155,-0.59046 -5e-4,1.31332 -5e-4,1.31332 -7.0651,6.45734 c -3.8858,3.55159 -8.4679,7.85329 -10.1823,9.55921 l -3.1172,3.10199 -4.8458,0.70345 c -2.6654,0.38688 -5.4594,0.93876 -6.209,1.22646 l -1.3633,0.52314 0,4.82372 0,4.82359 -2.1195,5.66517 -2.1196,5.66504 2.8543,2.0714 c 1.5699,1.13923 4.6473,3.45116 6.8386,5.13742 l 3.9839,3.06616 -0.1844,1.4044 c -0.1008,0.77239 -0.8026,3.07736 -1.5582,5.12212 l -1.3737,3.71772 -2.3403,2.49125 -2.3404,2.49137 -3.0556,0 -3.0556,0 -3.2527,-1.98317 c -1.789,-1.0902 -3.8522,-1.98267 -4.5849,-1.98267 -0.7328,0 -2.4688,-0.89409 -3.8582,-1.9869 -1.3892,-1.09282 -3.126,-1.97546 -3.8593,-1.9614 -0.7334,0.0137 -3.7924,1.59505 -6.7976,3.51364 l -5.4638,3.48825 -9.3983,2.9437 -9.3982,2.94371 -5.0067,-0.0727 -5.0067,-0.0727 -4.9673,-1.77043 z m 24.1057,-24.04131 4.3675,-2.11433 0.4865,-1.26765 0.4864,-1.26753 -10.2526,-10.02361 -10.2526,-10.02361 -1.1994,0 -1.1995,0 -2.7742,3.65686 c -1.526,2.01129 -4.2273,4.99942 -6.0032,6.64026 l -3.2286,2.98328 0,1.34356 0,1.34343 4.2222,4.30793 c 2.3221,2.3693 5.1161,4.7982 6.209,5.3975 l 1.9868,1.08983 6.3923,0.0299 6.3919,0.0299 4.3675,-2.11421 z m -5.3144,-61.05642 7.6699,-6.54432 1.9157,-3.14181 1.9157,-3.14181 0,-3.15239 0,-3.15252 -2.4633,-2.92765 -2.4637,-2.92778 -2.9837,-1.23592 -2.9839,-1.23592 -3.4338,0.64409 -3.4337,0.64422 -2.6941,3.19495 c -1.4818,1.75719 -3.2968,4.63345 -4.0337,6.39163 l -1.3402,3.19682 0,3.84775 0,3.84787 1.407,4.67452 c 1.3972,4.64291 3.1437,7.5626 4.5239,7.5626 0.3961,0 4.1716,-2.94496 8.3901,-6.54433 z m 176.203,58.20765 c -3.1248,-0.40081 -8.8497,-1.74748 -12.7218,-2.99248 l -7.0403,-2.26378 -5.8989,-3.58307 c -3.2445,-1.9706 -8.1853,-5.37112 -10.9795,-7.55675 l -5.0801,-3.97381 -5.7445,-6.75997 -5.7443,-6.75997 -3.0054,-5.65808 c -1.6529,-3.11195 -3.9191,-8.56383 -5.0359,-12.11541 -1.1167,-3.55159 -2.9792,-11.58892 -4.1387,-17.86072 l -2.1083,-11.40326 0.4415,-4.49184 c 0.6378,-6.48932 3.4457,-20.90149 6.2125,-31.88925 2.7547,-10.93923 8.6467,-28.29759 11.5954,-34.16099 4.3928,-8.73493 15.4443,-26.27721 22.2277,-35.2823 3.9353,-5.22403 10.2209,-12.63382 13.968,-16.46627 3.7471,-3.83231 9.9406,-9.3326 13.7635,-12.22268 l 6.9507,-5.25477 8.2376,-4.08194 8.2376,-4.08194 10.6412,-0.0672 10.6414,-0.0672 9.4377,3.8083 c 5.1908,2.09466 10.3319,3.88284 11.4247,3.9738 l 1.9868,0.16551 0.4968,-5.50888 0.4967,-5.50899 1.8431,-2.81143 1.843,-2.81156 5.4657,0.64235 5.4657,0.64247 5.3692,2.54003 5.3693,2.54003 3.4654,3.26837 3.4655,3.26837 0,4.97416 c 0,2.73577 -0.2796,6.37185 -0.6212,8.08014 l -0.6212,3.1061 -3.9184,4.45177 -3.9188,4.45165 0.6248,1.01068 0.6246,1.01069 1.8181,0 1.8182,0 2.2946,1.85798 2.2945,1.85811 -1.1796,13.78874 c -1.3579,15.86996 -2.3768,23.45147 -4.4993,33.47545 -0.8312,3.92491 -1.9441,9.37144 -2.4734,12.10347 -0.5293,2.73192 -1.6982,8.25361 -2.5976,12.27022 l -1.635,7.30302 -2.4661,4.86665 -2.4661,4.86677 -0.8609,0 -0.8609,0 -0.599,-2.23528 c -0.3295,-1.22945 -0.6052,-4.59662 -0.6125,-7.48271 l -0.014,-5.24755 -1.3424,-3.21274 -1.3425,-3.21287 -0.7325,-12.85906 -0.7325,-12.85905 -4.2569,-12.45775 -4.2569,-12.45774 -4.2779,-8.34196 -4.2782,-8.34195 -3.5694,-3.75218 -3.5692,-3.75219 -2.7526,-0.69088 -2.7523,-0.69075 -4.3511,1.66174 c -2.3932,0.91388 -7.1796,3.52832 -10.6365,5.80977 l -6.2852,4.14814 -9.2591,9.38525 -9.2589,9.38524 -7.3187,11.00132 -7.3189,11.00145 -6.9441,14.40495 c -7.4575,15.46977 -12.4528,28.25889 -16.5216,42.29961 l -2.5511,8.80325 -0.6153,7.48059 -0.6151,7.4806 -2.3253,2.79799 -2.3254,2.79799 1.4618,2.82686 c 0.8041,1.55485 2.7355,3.87214 4.2922,5.14962 l 2.8303,2.32263 2.6612,4.66058 2.6609,4.66058 4.7113,4.82422 4.7109,4.82421 4.8137,2.32264 4.8132,2.32251 11.0819,-0.52052 11.0816,-0.52065 9.6203,-3.11643 c 5.2911,-1.71401 12.1907,-4.25317 15.3325,-5.64264 l 5.7121,-2.5261 1.7652,0.46154 1.7652,0.46154 2.8531,-2.72656 2.8531,-2.72656 7.0053,-2.67691 7.0055,-2.67691 1.8515,-2.04577 c 1.0182,-1.12516 3.0188,-2.64953 4.4456,-3.38732 l 2.5943,-1.3417 1.1787,-2.77882 1.1784,-2.77883 5.6231,-3.4157 c 3.0927,-1.87864 7.3023,-4.93297 9.3552,-6.7876 l 3.7322,-3.3719 3.9429,-6.24306 3.9428,-6.24305 1.4859,-0.57018 1.4858,-0.57005 1.2157,1.46489 1.2159,1.465 -1.108,2.20144 c -0.6093,1.21078 -2.2059,6.75562 -3.5479,12.32186 l -2.44,10.12055 -4.795,8.75496 -4.7948,8.75484 -6.6399,6.64487 -6.6399,6.64474 -2.8504,1.47385 -2.8501,1.47384 -1.9151,-0.1711 -1.9154,-0.17098 -2.7639,5.46383 -2.7636,5.46408 -10.6698,6.64773 -10.6696,6.64785 -8.9411,2.96922 -8.941,2.96909 -7.7712,1.06258 c -8.5104,1.16362 -13.131,1.17917 -21.7531,0.0734 z m -936.96147,-17.28046 -3.83742,-1.44211 -2.95932,-2.81056 -2.95932,-2.81056 -1.95075,-3.79325 -1.95076,-3.79337 -0.55774,-4.70923 -0.55774,-4.70924 2.36968,-2.75481 2.36966,-2.75493 6.22512,-0.73406 6.2251,-0.73394 1.69108,-1.69111 1.69106,-1.69111 0.50955,-9.16051 0.50955,-9.16051 2.98033,-0.50758 2.98034,-0.50759 0.30833,-2.66509 0.30836,-2.66509 -2.79196,-1.77772 c -1.53557,-0.97783 -3.1204,-2.23516 -3.52183,-2.79426 l -0.72987,-1.01641 -0.0153,-28.59263 -0.0152,-28.59276 1.2418,-0.38252 c 0.68298,-0.21043 2.42188,-0.63961 3.8642,-0.95369 l 2.6224,-0.57118 0.63091,-1.64407 0.63094,-1.6442 -1.26644,-1.69559 c -0.69653,-0.93254 -2.7713,-3.6611 -4.61058,-6.06362 l -3.34417,-4.36803 0.80309,-15.8951 c 0.44171,-8.74239 0.82894,-20.21869 0.86054,-25.50308 l 0.0574,-9.60786 -2.39888,-2.55161 -2.39888,-2.55172 -5.5487,-2.06891 -5.54865,-2.06891 -2.15497,-2.01278 -2.15497,-2.01267 -2.11561,-4.91791 -2.11563,-4.91792 -0.16275,-5.87173 -0.16276,-5.87186 2.32673,-2.47669 2.32671,-2.4767 8.56401,-3.13036 8.56402,-3.13049 15.39839,-2.87315 15.3984,-2.87315 17.882,0.0212 17.88201,0.0212 9.55295,0.92968 9.55291,0.92967 8.16362,2.9793 c 4.48999,1.63872 10.92771,4.52519 14.30604,6.41441 3.37833,1.88922 8.16683,5.21694 10.64112,7.39498 l 4.4987,3.95987 6.30224,8.78769 6.30223,8.78769 4.76101,9.93439 4.76103,9.93452 1.6686,6.45734 1.6686,6.45734 0.0891,7.45085 0.0892,7.45085 -1.2868,5.46396 -1.28678,5.46395 -3.88379,7.94761 -3.88382,7.94748 -5.70803,6.6323 c -3.13941,3.64778 -7.9433,8.61722 -10.67527,11.04301 -2.73196,2.42592 -8.46871,6.92224 -12.7483,9.99176 l -7.7811,5.58104 -12.08781,5.84847 c -15.2391,7.37308 -33.02191,14.49256 -41.39444,16.57241 -3.55156,0.88227 -8.11371,2.02921 -10.1381,2.54887 l -3.68072,0.94461 -1.53486,1.53494 -1.53488,1.53482 0,12.88905 0,12.88892 2.27871,2.27871 2.27874,2.27871 4.04963,0.64758 4.04967,0.64757 1.24409,1.49911 1.24412,1.4991 5.09394,0.0137 5.09394,0.0149 4.28814,1.49351 4.28812,1.4935 0.92018,-0.56868 c 0.86653,-0.53545 21.77907,-1.64756 28.25448,-1.50234 1.63917,0.0361 4.54501,0.0734 6.45739,0.0809 1.91237,0.0124 4.08622,0.23245 4.83073,0.49937 l 1.35372,0.48518 -1.22698,1.47832 -1.22698,1.47845 -1.55158,0 c -0.8534,0 -3.59272,0.94971 -6.0874,2.1106 -2.49467,1.16076 -7.21811,3.35721 -10.49648,4.88083 -3.27835,1.52375 -8.64297,3.52745 -11.92133,4.45289 -3.27837,0.92545 -7.42876,2.30534 -9.22307,3.06666 l -3.26242,1.38412 -3.71903,0 -3.71903,0 -2.17265,1.52188 c -3.24807,2.27497 -9.59914,4.33131 -20.12525,6.51582 l -9.43772,1.95878 -11.92133,0.49626 -11.92134,0.49626 -3.83742,-1.44211 z m 74.23765,-110.56982 8.80668,-3.48004 4.2993,0.64471 4.29933,0.64472 1.59266,-2.43078 1.59267,-2.43064 -0.59832,-2.38399 -0.59832,-2.38386 1.96051,-1.77424 1.96053,-1.77424 2.13304,1.1416 2.13302,1.14147 1.5123,-1.25508 1.5123,-1.25508 -0.55272,-2.76365 -0.55275,-2.76365 4.96244,-5.67089 c 6.19926,-7.08426 11.19868,-14.57257 14.6573,-21.95411 l 2.67224,-5.70337 6.4e-4,-8.941 6.5e-4,-8.941 -2.64298,-5.63791 -2.64296,-5.63792 -4.06529,-4.41033 -4.06531,-4.41034 -5.79259,-2.59963 -5.79262,-2.59952 -7.62331,-1.13388 -7.6233,-1.13375 -9.67917,1.17457 c -5.32355,0.64596 -10.42487,1.38985 -11.33631,1.65304 l -1.65714,0.47858 -3.44123,-3.02148 -3.44124,-3.02148 -2.06914,0 -2.06916,0 -1.0284,1.92158 c -0.56561,1.05685 -1.0284,2.99373 -1.0284,4.30406 l 0,2.38249 -3.64753,2.40166 c -2.00615,1.32091 -4.5235,3.59265 -5.59411,5.0482 l -1.9466,2.64655 -0.81754,15.73221 -0.81759,15.7322 -0.0457,28.37164 -0.0457,28.37175 1.2418,1.56568 c 0.683,0.86124 1.91239,1.76702 2.73198,2.01304 l 1.49015,0.4471 11.42463,-2.41235 11.42462,-2.41249 8.80664,-3.48015 z m 93.51818,108.27767 c -1.63918,-0.21752 -5.36155,-1.06706 -8.27189,-1.88798 l -5.29157,-1.49251 -4.18921,-4.1892 -4.1892,-4.18921 -4.36374,-11.40774 -4.36372,-11.40773 -0.41461,-13.37249 -0.4146,-13.37261 1.1799,-7.31423 1.17993,-7.31434 2.39239,-7.03386 c 1.31582,-3.86866 3.99608,-9.95144 5.95611,-13.51734 4.26811,-7.76481 11.06518,-16.79789 17.53807,-23.30737 l 4.73644,-4.76324 8.23403,-3.95104 8.23403,-3.95091 5.06518,-0.59991 5.06515,-0.59992 5.15384,2.80509 5.15383,2.80508 5.27523,5.06861 5.27522,5.06874 2.4774,4.91742 2.47742,4.91741 1.11702,5.26448 1.117,5.26448 -0.005,12.61752 -0.005,12.61752 -1.03721,3.73489 -1.03718,3.73476 -2.18596,1.41847 -2.18597,1.41834 -6.95412,1.13712 c -6.9723,1.13998 -41.22314,9.64681 -48.67879,12.09028 l -3.9738,1.30224 -1.73158,3.53964 -1.73159,3.53964 1.68448,4.40797 c 0.92647,2.42431 2.7274,6.10058 4.00204,8.16936 l 2.31753,3.76139 3.19351,2.01403 3.19352,2.01416 6.04976,-0.4328 6.04977,-0.43267 6.36828,-2.80857 c 3.50257,-1.54477 11.73039,-6.01658 18.28405,-9.93737 l 11.91573,-7.12869 1.35354,0.51941 1.35355,0.5194 -0.53115,3.27297 c -0.29212,1.80025 -1.43239,5.3104 -2.53389,7.80065 l -2.00273,4.52743 -2.46853,0 -2.4685,0 -1.62771,1.62778 -1.62769,1.62765 0.15868,4.08455 c 0.0874,2.24661 0.11723,4.56937 0.0666,5.16169 l -0.0921,1.07714 -8.72078,4.14429 -8.72079,4.14441 -6.92596,1.467 c -6.85948,1.45306 -9.09756,1.57476 -14.87353,0.80872 z m 9.49581,-73.30659 16.33377,-3.67342 4.13718,-1.80124 4.13718,-1.80136 1.0784,-2.01503 1.0784,-2.01502 0,-10.47645 0,-10.47631 -1.60166,-4.00305 -1.60165,-4.00292 -2.34617,-0.58885 -2.34617,-0.58884 -4.48452,2.17095 -4.48453,2.17095 -7.42277,6.93207 c -4.08254,3.81266 -8.94716,9.0281 -10.81024,11.59004 -1.86311,2.56205 -5.28199,8.31134 -7.59753,12.7763 l -4.21007,8.11809 0.70391,1.13898 0.70391,1.13899 1.19941,-0.4603 c 0.65968,-0.25311 8.54959,-2.11321 17.53315,-4.13358 z m 314.74707,71.63451 c -1.97683,-0.70631 -5.2218,-2.29028 -7.21125,-3.51985 l -3.61732,-2.23566 -2.48573,-4.24159 c -1.36719,-2.33297 -4.15732,-8.88799 -6.20023,-14.56685 l -3.71449,-10.32525 0.0927,-15.89509 0.0927,-15.8951 2.15257,-7.94761 2.15244,-7.94749 4.0279,-8.44436 4.02802,-8.44425 5.38099,-7.0407 c 2.95951,-3.87239 7.85603,-9.38139 10.88099,-12.24235 l 5.49992,-5.20163 7.48221,-3.45702 7.48221,-3.45689 4.83592,-0.57278 4.8359,-0.57279 4.3048,2.10188 4.3047,2.10188 6.1678,5.52008 6.1676,5.52019 3.2701,6.63691 3.2699,6.6369 0.322,17.41163 0.322,17.4115 -1.0227,2.68002 -1.0227,2.68002 -2.2796,1.47895 -2.2796,1.47907 -8.9714,1.54602 c -4.9344,0.85028 -17.4518,3.80382 -27.81659,6.56348 l -18.8449,5.01735 -4.47057,2.19235 -4.47057,2.19235 0.16706,6.13007 0.16691,6.13019 2.02738,4.58293 2.02722,4.58293 3.48613,1.45655 3.48626,1.45667 7.23421,-0.0174 7.23458,-0.0174 8.37829,-3.39766 8.37839,-3.39766 1.8871,1.00994 1.887,1.00994 1.8151,-1.64246 c 0.9981,-0.90342 2.0624,-2.61544 2.3654,-3.80457 l 0.5508,-2.16223 6.2497,-4.22206 6.2501,-4.22219 1.828,0 1.8281,0 2.8415,-2.02336 c 1.5628,-1.11297 4.9102,-2.93848 7.4384,-4.05681 l 4.5968,-2.03344 0.5195,0.51941 0.5193,0.5194 -1.6652,4.36019 -1.6651,4.36006 -3.8737,5.11801 c -2.1305,2.81479 -4.7658,6.86687 -5.8564,9.00446 l -1.9827,3.88658 -5.027,4.39752 -5.0271,4.39751 -9.1641,4.6123 -9.164,4.61217 -4.72776,1.24028 -4.72778,1.2404 -1.53756,-2.19534 -1.53755,-2.19534 -2.67567,0 -2.67567,0 -3.9738,2.44745 c -2.18563,1.34617 -4.64441,2.44185 -5.46396,2.43501 -0.81967,-0.0125 -3.10746,-0.59059 -5.08416,-1.29702 z m 16.01219,-71.21006 c 7.37632,-1.63387 16.21017,-3.89142 19.63077,-5.01672 l 6.2191,-2.04601 1.0969,-2.04949 1.0968,-2.0495 0.1348,-11.52595 0.1347,-11.52608 -2.0672,-3.47704 -2.0674,-3.47705 -3.4789,0.0983 -3.4791,0.0983 -6.10703,4.14727 -6.1073,4.1474 -2.36021,-0.59245 -2.36034,-0.59233 -1.63388,1.63387 -1.63399,1.63388 0.60875,2.42455 0.6085,2.42467 -3.93921,5.20276 c -2.16659,2.86145 -5.79284,8.61062 -8.05849,12.77581 l -4.11939,7.5733 0,2.22881 0,2.22881 2.23528,-0.64745 c 1.22945,-0.35614 8.27052,-1.98429 15.64684,-3.61829 z m 617.19747,71.88315 -2.2153,-0.42794 -2.0069,-2.55111 -2.0066,-2.5511 0,-1.73131 0,-1.73118 -1.403,-1.16437 -1.403,-1.16449 -6.0206,2.53406 c -3.3112,1.3937 -9.4974,3.68187 -13.7469,5.08491 l -7.7265,2.55086 -9.0206,0.56432 -9.0208,0.5642 -5.2711,-1.75084 -5.2712,-1.75084 -3.8329,-3.46274 -3.8328,-3.46274 -1.496,-5.03713 -1.4958,-5.037 0,-4.74172 0,-4.74183 2.407,-6.63093 2.4068,-6.63094 3.7183,-5.39862 3.7181,-5.39862 5.5479,-4.00529 5.548,-4.00528 11.9212,-5.80765 11.9214,-5.80765 8.7513,-2.18215 8.7516,-2.18202 2.0864,-1.68937 2.0859,-1.68925 -1.0966,-9.65502 -1.0967,-9.65503 -1.7934,-3.66893 -1.7933,-3.66906 -7.9476,-0.27961 -7.9476,-0.27974 -7.9475,3.86331 -7.9476,3.8633 -7.4509,5.52816 c -4.098,3.04052 -8.0216,6.12198 -8.7195,6.84758 -0.6977,0.72572 -2.3429,2.66061 -3.6562,4.29971 l -2.3879,2.98042 -1.1947,-1.17545 -1.1947,-1.17531 2.6809,-6.77217 c 1.4742,-3.72481 4.1043,-9.16574 5.8445,-12.09115 l 3.1637,-5.31898 5.8354,-4.89415 c 3.2094,-2.69172 7.6946,-5.98361 9.967,-7.31534 2.2722,-1.33174 6.1287,-3.13199 8.5695,-4.00056 l 4.438,-1.57937 7.1496,-0.0398 7.1494,-0.0398 5.3139,2.43276 5.3139,2.43277 3.6399,3.19594 3.64,3.19594 2.4098,5.14788 2.41,5.14788 1.1296,5.36851 1.1295,5.3685 0.9565,14.00364 c 0.526,7.7021 0.9631,17.91535 0.9711,22.69639 l 0.015,8.69262 0.9348,0 c 0.514,0 1.211,-0.44711 1.5487,-0.99351 l 0.6139,-0.99339 2.0524,0 2.0525,0 -0.6447,3.22867 c -0.3546,1.77585 -1.9751,6.07295 -3.6013,9.54925 l -2.9563,6.32058 0,1.87541 0,1.87528 1.0482,0 c 0.5764,0 3.5941,-1.3056 6.7058,-2.9014 8.3384,-4.27656 14.5725,-7.03299 15.9054,-7.03299 l 1.1767,0 0,0.92321 c 0,0.50771 -1.8192,3.66184 -4.0424,7.00897 l -4.0424,6.08589 -0.7656,4.84363 -0.7657,4.84375 -1.6097,2.45654 -1.6096,2.45653 -5.2553,2.98315 -5.2553,2.98316 -5.3959,1.58297 c -2.9677,0.8707 -5.6501,1.52225 -5.9608,1.44784 -0.3107,-0.0747 -1.5616,-0.32789 -2.7802,-0.56333 z m -35.5292,-22.61749 7.6319,-1.46028 5.6188,-2.56255 c 3.09,-1.40939 7.2969,-3.72021 9.3483,-5.13519 l 3.7297,-2.57276 1.9826,-3.20789 1.9825,-3.20789 0,-4.15001 0,-4.15001 -2.4385,-2.43848 -2.4384,-2.43849 -1.9109,0 -1.9108,0 -1.4932,-2.23516 -1.4933,-2.23528 -1.9008,1.70779 -1.9011,1.70779 -6.7243,2.07699 -6.7241,2.07687 -3.6627,3.23738 c -2.0144,1.78059 -5.7695,4.72367 -8.3447,6.54022 l -4.6823,3.30271 -2.4209,3.58332 c -1.3315,1.97085 -2.7262,4.61118 -3.0994,5.86726 l -0.6785,2.28393 1.5954,2.43488 1.5955,2.43501 5.3537,0 5.3537,0 7.6318,-1.46016 z m -503.5151,17.95368 -3.6449,-3.64517 -2.4836,-4.90099 -2.4836,-4.901 0,-2.45802 0,-2.45803 1.2369,-0.76442 1.2368,-0.76442 8.4494,-0.0398 8.4491,-0.0398 0.5983,-19.86891 0.598,-19.8689 1.2196,-5.20126 1.2197,-5.20114 -0.3276,-12.85221 -0.3276,-12.85221 -2.2002,-2.33894 -2.2003,-2.33894 0.5744,-2.19646 0.5744,-2.19645 -1.67,-0.64086 -1.6698,-0.64073 -2.1682,1.14097 -2.1681,1.14097 -4.9673,-1.89967 -4.9672,-1.89979 -0.3385,-1.68154 -0.3382,-1.6814 2.2055,-2.34765 2.2055,-2.34753 8.564,-3.14666 8.564,-3.14654 5.5262,-0.11697 5.5261,-0.11698 2.7526,1.80361 2.7528,1.80373 1.4073,3.36779 1.407,3.36792 0,4.99917 0,4.99905 1.2418,-4.9e-4 1.242,-5e-4 5.6815,-6.35331 5.6813,-6.35331 4.3183,-2.09044 4.3183,-2.09043 4.5723,0 c 2.5147,0 5.3136,0.28446 6.2199,0.63214 l 1.6476,0.63227 0.8926,2.34815 0.8928,2.34815 2.8192,0 2.819,0 2.5464,2.73191 2.5465,2.73191 4.0968,8.47921 4.0968,8.47921 -0.059,1.95206 c -0.031,1.07353 -0.8543,5.00926 -1.8285,8.74588 l -1.771,6.79407 -4.3807,1.95717 -4.3806,1.95716 -2.6395,2.52236 -2.6394,2.52223 -5.9305,-2.66135 -5.9305,-2.66149 -1.0788,-2.36755 -1.0786,-2.36756 0.8232,-0.50871 0.8231,-0.50882 1.777,1.96351 1.777,1.96338 2.6364,0 2.6366,0 1.627,-1.24177 1.6271,-1.24177 1.5288,-4.47056 c 0.8407,-2.45877 1.5352,-5.27319 1.543,-6.25413 l 0.015,-1.7837 -2.4835,-2.48366 c -1.366,-1.36595 -2.4837,-2.83233 -2.4837,-3.25866 0,-0.42632 -1.0347,-1.74723 -2.2991,-2.93524 l -2.2994,-2.16012 -5.4274,0 -5.4271,0 -2.2298,1.56182 -2.2298,1.56182 -2.8203,5.64066 c -1.551,3.10236 -3.541,7.87593 -4.4219,10.60784 -0.8811,2.73204 -2.7443,11.66334 -4.1406,19.8475 l -2.5388,14.88018 -0.1,7.69936 -0.099,7.69923 1.7024,2.5979 1.7021,2.59789 4.2693,1.8886 4.2695,1.88859 0.5405,2.06655 0.5404,2.06666 2.0375,-1.09045 2.0377,-1.09057 1.9484,1.21688 1.9485,1.21688 2.4683,-1.32104 2.4684,-1.32103 2.8086,0.70096 c 1.5446,0.38563 3.479,1.27673 4.2987,1.98043 0.8196,0.70357 2.7288,1.57364 4.2426,1.93352 l 2.7523,0.65417 2.0732,-1.10949 2.0731,-1.10961 0.9506,0.9507 0.9507,0.95071 -1.7021,1.70206 -1.702,1.70219 -2.0139,-0.52662 -2.0139,-0.52662 -2.557,1.37603 c -3.8854,2.09094 -12.0025,4.4901 -15.1914,4.4901 l -2.843,0 -4.1827,2.16498 -4.1825,2.16497 -10.928,0.73568 c -6.0102,0.40467 -15.2111,1.05573 -20.4459,1.44696 l -9.5182,0.71117 -3.6451,-3.64504 z m 576.4312,0.75185 c -1.419,-1.5622 -3.3189,-3.94581 -4.2223,-5.29671 l -1.6426,-2.45628 0,-2.75929 0,-2.75929 1.9478,-1.94783 1.9478,-1.9477 5.5017,-1.59941 5.5017,-1.5994 0.5663,-2.25656 0.5666,-2.25656 -0.3167,-35.67254 -0.3167,-35.67266 -2.0407,-3.47369 -2.0405,-3.47369 -3.4234,-2.30695 -3.4233,-2.30696 0,-1.17345 0,-1.17345 9.4377,-3.20341 c 5.1908,-1.76192 10.3319,-3.21486 11.4247,-3.22867 l 1.9869,-0.0249 2.5744,3.22867 2.5741,3.22867 1.2713,3.97381 c 0.6991,2.1855 1.6493,4.38358 2.1117,4.88456 l 0.8406,0.91089 7.2353,-7.51531 7.2353,-7.51519 4.2222,-1.13313 4.2222,-1.13301 3.7471,1.00894 3.7472,1.00907 4.2153,3.09988 4.2152,3.1 2.3714,4.12524 c 1.3041,2.26888 2.6655,5.53862 3.0249,7.26607 l 0.654,3.14094 -1.12,6.29681 c -0.6161,3.46324 -2.248,10.02897 -3.6268,14.59049 l -2.5066,8.29368 -5.8758,6.02355 -5.8756,6.02342 -0.6105,-0.61024 -0.6101,-0.61025 1.6997,-6.93568 1.6997,-6.93555 -0.5653,-10.17618 -0.5652,-10.17617 -1.0027,-1.00285 -1.0029,-1.00272 -5.5166,1.7389 -5.5167,1.73902 -3.0593,4.15885 c -1.6827,2.28742 -3.6768,5.59809 -4.4315,7.35702 l -1.3722,3.19806 -2.483,16.35988 -2.483,16.35999 0,6.07258 0,6.07246 1.4533,2.81068 c 0.7995,1.54577 2.0289,3.02546 2.7321,3.28815 0.7032,0.26269 6.643,0.15816 13.1998,-0.23233 l 11.9213,-0.71004 0.8981,0.80362 0.8978,0.80375 -2.7236,3.57087 c -1.4981,1.96401 -4.172,4.52034 -5.9424,5.68085 l -3.2188,2.10997 -2.1477,3.27633 -2.1477,3.27633 -2.5981,1.70244 -2.5982,1.70231 -9.5818,0.719 c -5.27,0.39534 -13.829,1.03259 -19.0197,1.41598 l -9.4377,0.69711 -2.5795,-2.84043 z m 84.8566,1.00434 c -1.1911,-1.02176 -3.3147,-3.59663 -4.7188,-5.72191 l -2.5531,-3.86405 0,-1.92469 0,-1.92468 2.7833,-2.78331 2.7833,-2.7833 4.1136,-0.69499 4.1136,-0.69499 0.9589,-1.16411 0.9591,-1.16412 0.2116,-34.77061 0.2118,-34.77061 -0.992,-4.75466 -0.9919,-4.75465 -1.7492,-1.93302 -1.7494,-1.9329 -5.078,-1.89171 -5.078,-1.89158 -0.2709,-1.35526 -0.271,-1.35513 12.5959,-2.24772 12.5961,-2.24773 2.5765,1.63873 c 1.4172,0.9013 3.5666,2.80682 4.7764,4.23463 l 2.1998,2.5959 0.6429,3.22867 0.6427,3.22879 1.1314,-0.0124 1.1311,-0.0124 4.6682,-5.85469 4.6684,-5.85469 5.4613,-2.67206 5.4615,-2.67205 3.2817,0.70693 c 1.8051,0.38887 4.623,1.37479 6.2622,2.19098 3.8249,1.9044 8.2586,6.02641 9.9384,9.23965 l 1.3167,2.51875 -1.418,12.87972 -1.418,12.87971 -2.9422,4.47044 c -1.6181,2.45877 -3.7069,5.9235 -4.6419,7.69923 l -1.6996,3.22867 -1.6083,0 -1.6084,0 -0.096,-8.19587 -0.097,-8.19598 -1.6891,-4.20302 -1.6891,-4.20315 -3.2458,-2.00594 -3.2458,-2.00594 -2.4924,0 -2.4922,0 -1.9872,4.71881 c -1.0929,2.59541 -2.6868,6.95422 -3.5421,9.68614 -1.6867,5.38779 -5.1477,26.50182 -6.2091,37.87957 l -0.6607,7.08264 1.1607,3.51737 c 0.6385,1.93451 1.6969,3.95526 2.3519,4.49047 l 1.191,0.97311 5.4638,-0.97771 c 3.0052,-0.5377 8.1465,-1.09829 11.4247,-1.24563 3.2784,-0.14746 6.6977,-0.5871 7.5987,-0.97721 l 1.6379,-0.70905 0.7034,1.13786 0.7034,1.13799 -6.5307,6.27865 -6.5307,6.27852 -1.552,3.87873 -1.552,3.87886 -3.1799,1.8784 -3.18,1.87839 -9.4575,0.70183 c -5.2015,0.38601 -13.4808,1.02425 -18.3984,1.41822 l -8.941,0.71651 -2.1657,-1.85786 z m 112.935,0.0846 -5.4641,-1.50048 -5.279,-3.61418 -5.2791,-3.61418 -3.8947,-4.55418 -3.8948,-4.55418 -2.8948,-5.96059 -2.8948,-5.96071 -1.0946,-5.26447 -1.0944,-5.26448 0.02,-9.14047 0.02,-9.14048 0.9661,-6.67934 0.9659,-6.67921 2.1334,-6.23547 c 2.8078,-8.20731 7.3621,-17.25483 11.0257,-21.90384 l 2.9527,-3.74695 6.2308,-4.4463 c 3.427,-2.44533 8.6737,-5.56462 11.6597,-6.93157 l 5.4288,-2.4854 7.3636,-0.60017 7.3638,-0.60029 6.9318,1.63089 6.932,1.63088 4.1504,2.43227 4.1504,2.43239 3.0715,3.87811 3.0714,3.87799 3.4485,7.31136 c 1.8966,4.02122 4.1603,9.99362 5.0305,13.27194 l 1.5817,5.96071 0.5554,9.43776 0.5551,9.43763 -1.6071,8.44437 c -0.8842,4.64428 -2.0658,10.08272 -2.6262,12.0853 l -1.0185,3.64118 -3.4538,2.03768 -3.4535,2.03767 0,1.53718 c 0,0.84543 0.5515,2.42007 1.2254,3.49933 l 1.2254,1.96213 -1.9705,3.67304 c -1.0837,2.02026 -4.0539,5.95586 -6.6006,8.74601 l -4.63,5.07309 -5.3043,2.9284 -5.3045,2.9284 -12.418,0.24079 -12.4181,0.24091 -5.4639,-1.50047 z m 23.7994,-20.56912 5.4789,-1.24189 3.8013,-3.78715 3.8015,-3.78727 1.9308,-4.50478 1.9311,-4.50491 1.0947,-7.05626 1.0949,-7.05639 -0.6606,-13.95822 c -0.3634,-7.67695 -0.6422,-16.03496 -0.6197,-18.57312 l 0.04,-4.61504 -2.6834,-1.75818 c -1.4759,-0.96701 -5.0626,-3.69606 -7.9705,-6.06462 l -5.2869,-4.3063 -3.258,0 -3.2583,0 -5.1003,1.51466 -5.1005,1.51466 -3.1999,2.69259 -3.2002,2.69271 -3.7784,5.84598 -3.7785,5.84598 -0.6061,3.60659 c -0.3335,1.98354 -0.8146,4.36902 -1.0692,5.30093 -0.2545,0.93192 -2.2272,3.82958 -4.3837,6.43918 l -3.9208,4.74482 0,1.53594 0,1.53594 1.8334,1.56991 1.8337,1.56991 0.6823,5.80678 0.6825,5.80678 4.2947,9.06618 4.2947,9.06606 2.9118,2.07339 c 3.4365,2.44695 8.4475,4.01275 13.2412,4.13731 1.8962,0.0498 5.9134,-0.46925 8.9268,-1.15217 z m 88.6782,19.54325 -5.1389,-2.56081 -2.5544,-3.03579 c -1.405,-1.66959 -3.3864,-4.66668 -4.4035,-6.66005 l -1.8489,-3.62426 -1.0841,-5.86327 -1.0837,-5.86315 -0.07,-26.3922 -0.07,-26.39219 -0.7767,-1.98691 -0.777,-1.9869 -7.1695,0 -7.1693,0 -3.9053,-4.18373 -3.9053,-4.18361 0,-2.53555 0,-2.53555 -1.15,-1.84181 -1.1502,-1.84193 0.5414,-1.41125 0.5416,-1.41125 5.8609,-3.07213 5.8606,-3.07225 5.7324,-1.28271 5.7322,-1.28283 1.1853,-2.06455 1.1854,-2.06456 -0.2548,-20.19468 -0.2549,-20.19468 -1.056,-1.97297 -1.0558,-1.97296 1.184,-1.42668 1.184,-1.42669 1.9837,0 1.9838,0 5.8131,3.53143 5.8134,3.53143 2.0909,2.93661 2.0912,2.93674 0.5783,15.0478 0.5785,15.04792 1.8452,1.84505 1.845,1.84517 2.717,-0.65281 c 1.4942,-0.359 4.2814,-1.42718 6.1938,-2.37353 l 3.4771,-1.72085 7.8042,-0.71652 7.8043,-0.71639 3.6204,-1.54253 3.6202,-1.54266 5.2049,-0.1008 5.205,-0.10203 0.4866,1.26926 0.4868,1.26915 -1.7178,1.4003 c -0.9449,0.77015 -3.8147,3.10485 -6.3776,5.1882 -2.5627,2.08334 -8.4516,7.17522 -13.0864,11.31527 l -8.4266,7.52739 -8.7694,3.31627 c -4.8231,1.82402 -9.44,3.92839 -10.2596,4.67626 l -1.4901,1.35974 -0.32,27.53428 -0.3201,27.53429 0.6439,5.24793 0.6439,5.24805 2.3054,2.68015 2.3052,2.68002 3.0537,-1.47073 3.0533,-1.47061 11.3078,-11.06292 c 6.2192,-6.08465 12.277,-11.5817 13.4618,-12.21571 l 2.1537,-1.15267 0.848,0.52413 0.8481,0.52413 -0.803,4.24073 c -0.4419,2.33234 -1.517,5.93569 -2.3894,8.00734 l -1.5862,3.76686 -3.0834,2.75481 -3.0832,2.75481 1.1497,2.1483 1.1498,2.14843 -1.5599,3.74807 -1.56,3.74808 -4.1751,4.34562 c -2.2964,2.39021 -6.1626,5.63132 -8.5919,7.2026 l -4.4167,2.85673 -5.571,0 -5.571,0 -5.1391,-2.56081 z"
       id="path4376"
       inkscape:connector-curvature="0" />
  </g>
</svg>
