<?xml version="1.0" encoding="UTF-8" standalone="no"?>
<!-- Created with Inkscape (http://www.inkscape.org/) -->

<svg
   xmlns:dc="http://purl.org/dc/elements/1.1/"
   xmlns:cc="http://creativecommons.org/ns#"
   xmlns:rdf="http://www.w3.org/1999/02/22-rdf-syntax-ns#"
   xmlns:svg="http://www.w3.org/2000/svg"
   xmlns="http://www.w3.org/2000/svg"
   xmlns:xlink="http://www.w3.org/1999/xlink"
   xmlns:sodipodi="http://sodipodi.sourceforge.net/DTD/sodipodi-0.dtd"
   xmlns:inkscape="http://www.inkscape.org/namespaces/inkscape"
   id="svg2"
   version="1.1"
   inkscape:version="0.91 r"
   width="2481"
   height="663"
   sodipodi:docname="Pepper-and-Carrot_by-David-Revoy_E02P00.svg">
  <metadata
     id="metadata8">
    <rdf:RDF>
      <cc:Work
         rdf:about="">
        <dc:format>image/svg+xml</dc:format>
        <dc:type
           rdf:resource="http://purl.org/dc/dcmitype/StillImage" />
        <dc:title />
      </cc:Work>
    </rdf:RDF>
  </metadata>
  <defs
     id="defs6" />
  <sodipodi:namedview
     pagecolor="#ffffff"
     bordercolor="#666666"
     borderopacity="1"
     objecttolerance="10"
     gridtolerance="10"
     guidetolerance="10"
     inkscape:pageopacity="0"
     inkscape:pageshadow="2"
     inkscape:window-width="1006"
     inkscape:window-height="1009"
     id="namedview4"
     showgrid="false"
     inkscape:zoom="0.59209996"
     inkscape:cx="1240.5"
     inkscape:cy="331.5"
     inkscape:window-x="896"
     inkscape:window-y="-1"
     inkscape:window-maximized="0"
     inkscape:current-layer="layer1" />
  <g
     inkscape:groupmode="layer"
     id="layer2"
     inkscape:label="artwork"
     sodipodi:insensitive="true">
    <image
       sodipodi:absref="/home/deevad/peppercarrot/webcomics/New/lang/fi/../gfx_Pepper-and-Carrot_by-David-Revoy_E02P00.png"
       xlink:href="../gfx_Pepper-and-Carrot_by-David-Revoy_E02P00.png"
       y="0"
       x="-1.6728083e-006"
       id="image10"
       height="663"
       width="2481" />
  </g>
  <g
     inkscape:groupmode="layer"
     id="layer1"
     inkscape:label="text">
    <flowRoot
       xml:space="preserve"
       id="flowRoot3063"
       style="font-style:normal;font-variant:normal;font-weight:normal;font-stretch:normal;font-size:72px;line-height:125%;font-family:Arial;-inkscape-font-specification:Arial;letter-spacing:0px;word-spacing:0px;display:inline;fill:#562f13;fill-opacity:1;stroke:none"
       transform="matrix(0.77923967,0,0,0.77489763,106.92143,209.14165)"><flowRegion
         id="flowRegion3065"><rect
           id="rect3067"
           width="2715.5891"
           height="110.01318"
           x="92.642677"
           y="425.30325"
           style="font-size:72px;fill:#562f13;fill-opacity:1" /></flowRegion><flowPara
         id="flowPara3069"
         style="font-style:normal;font-variant:normal;font-weight:normal;font-stretch:normal;font-size:88px;font-family:Lavi;-inkscape-font-specification:Lavi;text-align:center;text-anchor:middle;fill:#562f13;fill-opacity:1">Episodi 2 : Sateenkaariseokset</flowPara></flowRoot>    <path
       style="display:inline;fill:#562f13;fill-opacity:1;stroke:none"
       d="m 719.02103,504.48034 c -1.96642,-1.72656 -4.22539,-4.39631 -5.01996,-5.93282 l -1.44464,-2.79364 0,-4.08305 0,-4.08305 2.44731,-2.44731 2.44731,-2.44732 1.79018,-0.0317 c 0.98459,-0.0175 2.65521,-0.68616 3.71253,-1.48605 l 1.92236,-1.45434 0.74675,-5.24409 0.74673,-5.24401 0.0728,-22.74862 0.0728,-22.7485 -1.03212,-1.92855 -1.03214,-1.92856 -1.77805,0 c -0.97794,0 -4.15661,-0.70637 -7.06373,-1.56961 l -5.28564,-1.56975 -2.37322,-2.37316 -2.37324,-2.37329 0,-1.5409 0,-1.54089 5.73307,-0.0412 5.73307,-0.0412 4.48674,-2.20219 4.48675,-2.20231 0.28487,-34.89693 0.28489,-34.89682 -1.18347,-4.31333 -1.1835,-4.31333 -2.09255,-1.35731 -2.09257,-1.35718 -8.72423,-0.69813 -8.72423,-0.69814 0,-1.1942 0,-1.1942 4.40978,-4.47294 4.40977,-4.47294 12.61926,-5.70399 12.61926,-5.70398 1.92037,0.60959 c 1.05622,0.33521 3.26399,1.74009 4.90618,3.12188 l 2.98578,2.51229 0,1.33583 c 0,0.7346 0.70507,2.0407 1.56681,2.90244 l 1.5668,1.56687 10.2863,0 10.28633,0 8.64377,2.5048 c 4.7541,1.37767 10.8077,3.60146 13.45248,4.94166 2.64477,1.34019 8.37254,5.12224 12.72844,8.40448 l 7.91974,5.96763 2.73701,3.94952 2.73702,3.94953 1.42718,4.74221 1.42718,4.7422 0,6.73208 0,6.73208 -1.86603,5.9956 -1.86604,5.9956 -3.68837,6.59545 -3.68836,6.59533 -5.99664,6.41049 -5.99665,6.41036 -6.6452,4.89719 c -3.65485,2.69351 -8.88856,6.00759 -11.63045,7.36465 -2.74191,1.35706 -10.14504,4.1757 -16.4514,6.26374 -6.30637,2.08804 -12.47564,4.16259 -13.7095,4.61007 l -2.24337,0.81379 0,21.50334 0,21.50334 2.40677,2.40675 2.40677,2.40676 2.82776,0.59935 c 1.55528,0.32959 3.58164,1.00512 4.50305,1.50118 l 1.67529,0.90178 4.34763,-0.0873 c 2.39121,-0.0478 6.6382,0.22778 9.43778,0.61283 l 5.09013,0.70006 3.16774,-1.63811 3.16775,-1.63816 2.93598,0.64493 c 1.61481,0.35469 4.94711,0.64481 7.40514,0.64481 2.45804,0 4.46915,0.20986 4.46915,0.46634 0,0.25646 -1.6202,1.14328 -3.60046,1.97069 -3.63291,1.5179 -11.44573,6.42147 -16.69527,10.47842 l -2.8473,2.20043 -6.48744,1.79891 -6.48745,1.79891 -4.62403,2.93994 -4.62402,2.93996 -7.47791,2.1125 c -4.11285,1.16189 -9.76072,2.76974 -12.5508,3.57301 l -5.07292,1.46041 -4.11515,0 -4.11516,0 -3.5753,-3.13917 z m 44.03455,-106.98329 8.82558,-4.4346 8.03723,-6.45233 8.03721,-6.45232 4.81465,-5.81364 4.81463,-5.81376 2.85096,-5.98224 2.85095,-5.98237 7.7e-4,-4.28698 8e-4,-4.28698 -1.45976,-2.82289 c -0.80288,-1.55263 -2.85174,-3.99411 -4.55306,-5.42573 l -3.09327,-2.60283 -5.66676,-1.70188 -5.66676,-1.70175 -8.47496,-0.0262 -8.47496,-0.0262 -5.50904,1.24516 -5.50904,1.24528 -3.21519,1.95528 -3.21517,1.95528 0,29.87672 0,29.87673 1.74483,1.01635 c 0.95967,0.55889 2.26007,1.02985 2.88981,1.04658 0.62973,0.0162 5.11648,-1.96527 9.97055,-4.40437 z m 73.13557,108.5475 c -1.37094,-0.88637 -3.71755,-3.19879 -5.2147,-5.13869 l -2.72207,-3.52713 -0.61339,-3.26976 -0.61343,-3.26977 1.34137,-2.8267 1.34137,-2.82672 4.40567,-2.11418 4.40565,-2.1142 1.3274,-1.81533 1.3274,-1.81533 0,-27.6035 0,-27.60347 -5.23452,-0.58474 c -2.879,-0.32171 -6.99239,-0.93967 -9.14088,-1.37341 l -3.90632,-0.78856 -0.31495,-0.9935 c -0.17321,-0.5464 0.0345,-1.54427 0.46171,-2.21755 l 0.77665,-1.22393 7.70742,-1.4747 c 4.23909,-0.81104 8.14471,-1.74496 8.67916,-2.0753 l 0.97173,-0.60047 0,-40.37137 0,-40.37137 -1.45487,-2.8134 -1.45488,-2.81353 -8.26641,-1.17409 c -4.54651,-0.64568 -9.72459,-1.39677 -11.50683,-1.66891 l -3.24041,-0.49494 0,-0.77806 c 0,-0.42788 1.00951,-1.69739 2.24336,-2.82102 2.44145,-2.22342 15.02373,-10.26935 16.05925,-10.26935 0.35128,0 4.63531,-1.79954 9.52007,-3.99898 l 8.8814,-3.99911 2.83353,1.0773 c 1.55842,0.59248 3.61956,1.78868 4.58024,2.65804 l 1.74661,1.58074 0,2.72035 0,2.72024 2.24338,0.60122 c 1.23393,0.33071 6.73916,0.60734 12.23404,0.61483 l 9.99054,0.0137 7.15368,1.98238 c 3.93449,1.09029 9.70553,3.11102 12.82439,4.4903 l 5.67095,2.50792 6.598,4.90956 c 3.62898,2.70025 8.25837,6.62455 10.2878,8.72071 l 3.68968,3.81114 2.21247,4.98524 2.21231,4.98525 0.4462,7.53025 0.44618,7.53013 -2.91843,8.46667 -2.91829,8.46681 -3.8386,5.78291 c -2.11115,3.18071 -6.08759,8.24388 -8.83647,11.25161 l -4.9979,5.46844 -3.17969,-0.59648 -3.17956,-0.59647 -1.03953,1.26564 c -0.57177,0.69601 -1.19478,2.38302 -1.38456,3.7487 l -0.34475,2.48331 -4.90605,3.20556 -4.90618,3.20543 -12.37385,4.53114 -12.37391,4.53102 -2.16259,0.015 c -1.18936,0.0125 -2.83551,0.44049 -3.65808,0.96016 l -1.49559,0.94492 0,21.39219 0,21.39218 2.37686,2.53103 2.37673,2.53102 5.17769,1.07481 5.17767,1.07493 9.89402,-0.0287 c 5.44167,-0.0162 12.50001,-0.0799 15.68537,-0.14262 l 5.79141,-0.11365 0.68115,0.68111 0.68115,0.68113 -1.98587,1.16478 c -1.09212,0.64065 -4.84048,2.40429 -8.3296,3.9192 l -6.34373,2.75441 -2.95553,2.48688 c -1.62542,1.36773 -3.53087,2.48682 -4.23411,2.48682 l -1.27868,0 -4.37791,3.84611 c -2.40777,2.11532 -6.29927,4.82392 -8.64766,6.01908 l -4.26985,2.173 -9.68887,2.63378 -9.68895,2.6338 -4.98525,0.33893 -4.98532,0.33891 -2.49264,-1.61157 z m 40.6593,-107.56412 7.20176,-3.45134 7.2275,-5.3654 7.22734,-5.36528 6.9793,-7.39875 6.97944,-7.39862 2.79407,-5.76355 2.79406,-5.76368 0.50501,-4.69225 0.50499,-4.69225 -1.80336,-3.46421 -1.80364,-3.46432 -3.98817,-2.77394 -3.98818,-2.77393 -7.47795,-1.58199 -7.47796,-1.58211 -6.48076,0.57824 c -3.56453,0.3181 -9.17291,1.26502 -12.4632,2.10453 l -5.98228,1.52616 -2.28666,2.58135 -2.28665,2.58123 0.29249,28.15874 0.29259,28.15873 1.36837,1.64706 1.36836,1.64692 1.65097,0 c 0.90793,0 4.8916,-1.55313 8.85256,-3.45134 z m 343.70515,77.30489 c -2.7419,-0.97739 -7.2689,-2.93479 -10.0604,-4.34992 l -5.0749,-2.57299 -3.1446,-3.58135 c -1.7296,-1.96989 -4.1421,-5.47593 -5.3614,-7.79127 l -2.2167,-4.2098 -0.032,-7.4778 -0.033,-7.47792 3.1477,-6.64416 3.1477,-6.64403 7.737,-8.098 7.7367,-8.09813 -2.8008,-5.86022 -2.8009,-5.8601 0.5982,-2.99075 0.5982,-2.99074 -1.4271,-1.18433 -1.427,-1.18434 1.5477,-2.99262 1.5474,-2.99261 -2.2127,-2.35531 -2.2127,-2.3553 0.6323,-4.61269 0.6322,-4.6127 1.9859,-4.48955 1.9859,-4.48943 4.2401,-5.06454 4.2403,-5.06442 4.377,-2.77581 4.377,-2.77594 5.3999,-1.20843 5.3999,-1.20844 5.191,1.63993 5.1911,1.63993 5.692,3.56487 5.6919,3.56486 3.632,5.97912 3.6322,5.97912 0.5102,3.80365 0.5102,3.80353 -2.2011,6.97412 -2.2012,6.97424 -3.8306,4.87796 c -2.1069,2.68277 -5.4778,7.34567 -7.4911,10.36164 -2.0131,3.0161 -5.0034,6.67625 -6.6454,8.1336 l -2.9852,2.64967 0.849,1.4481 c 0.4669,0.79655 4.9343,5.78541 9.9275,11.08637 l 9.0788,9.63815 1.1907,-1.43474 1.1907,-1.43473 0.1998,-2.82927 0.1996,-2.82926 -3.734,-0.3091 -3.7338,-0.30923 -2.4977,-3.27462 -2.4977,-3.27462 0,-2.07805 0,-2.07804 1.4283,-1.42837 1.4283,-1.42825 8.293,-2.57823 c 4.5611,-1.418 10.5362,-3.08791 13.2782,-3.71086 l 4.9852,-1.13276 11.9647,-0.3934 c 6.5806,-0.21643 14.3202,-0.66017 17.1993,-0.98613 l 5.2344,-0.59261 -5e-4,1.31809 -5e-4,1.3181 -7.0908,6.4808 c -3.8999,3.56449 -8.4986,7.88181 -10.2192,9.59393 l -3.1285,3.11327 -4.8635,0.706 c -2.675,0.38828 -5.4792,0.94217 -6.2315,1.23092 l -1.3683,0.52504 0,4.84124 0,4.84112 -2.1273,5.68575 -2.1272,5.68562 2.8647,2.07892 c 1.5756,1.14337 4.6641,3.46371 6.8635,5.15609 l 3.9983,3.0773 -0.1851,1.40951 c -0.1011,0.77519 -0.8055,3.08853 -1.5638,5.14073 l -1.3787,3.73122 -2.3488,2.5003 -2.3489,2.50042 -3.0667,0 -3.0667,0 -3.2645,-1.99037 c -1.7956,-1.09416 -3.8662,-1.98988 -4.6016,-1.98988 -0.7355,0 -2.4778,-0.89733 -3.8722,-1.99412 -1.3943,-1.09678 -3.1374,-1.98263 -3.8733,-1.96852 -0.7361,0.0137 -3.8062,1.60084 -6.8223,3.5264 l -5.4837,3.50092 -9.4324,2.9544 -9.4324,2.95441 -5.0249,-0.0729 -5.0248,-0.0729 -4.9854,-1.77686 z m 24.1933,-24.12865 4.3834,-2.12201 0.4882,-1.27226 0.4881,-1.27213 -10.2898,-10.06003 -10.2898,-10.06002 -1.2038,0 -1.2038,0 -2.7843,3.67014 c -1.5316,2.0186 -4.2427,5.01759 -6.025,6.66439 l -3.2404,2.99412 0,1.34844 0,1.34831 4.2375,4.32358 c 2.3306,2.3779 5.1348,4.81564 6.2317,5.41711 l 1.994,1.09379 6.4153,0.03 6.4153,0.03 4.3834,-2.12188 z m -5.3337,-61.27824 7.6977,-6.5681 1.9227,-3.15322 1.9227,-3.15323 0,-3.16384 0,-3.16397 -2.4723,-2.93829 -2.4726,-2.93842 -2.9946,-1.24041 -2.9948,-1.24041 -3.4462,0.64644 -3.4462,0.64655 -2.7039,3.20656 c -1.4872,1.76357 -3.3087,4.65028 -4.0483,6.41486 l -1.3451,3.20842 0,3.86173 0,3.86186 1.4122,4.6915 c 1.4022,4.65977 3.1551,7.59007 4.5402,7.59007 0.3974,0 4.1868,-2.95565 8.4206,-6.5681 z m 176.8431,58.41913 c -3.1361,-0.40227 -8.8818,-1.75383 -12.768,-3.00336 l -7.0658,-2.272 -5.9204,-3.59609 c -3.2563,-1.97776 -8.2151,-5.39063 -11.0194,-7.58421 l -5.0986,-3.98824 -5.7653,-6.78453 -5.7652,-6.78454 -3.0163,-5.67863 c -1.6589,-3.12325 -3.9333,-8.59494 -5.0542,-12.15943 -1.1209,-3.56449 -2.99,-11.63102 -4.1537,-17.92561 l -2.116,-11.44468 0.4431,-4.50816 c 0.6402,-6.5129 3.4581,-20.97743 6.2351,-32.00511 2.7647,-10.97897 8.6781,-28.4004 11.6375,-34.2851 4.4088,-8.76666 15.5004,-26.37268 22.3084,-35.41048 3.9497,-5.24302 10.2581,-12.67973 14.0188,-16.52609 3.7607,-3.84625 9.9767,-9.36652 13.8135,-12.26709 l 6.976,-5.27386 8.2674,-4.09677 8.2677,-4.09678 10.6798,-0.0674 10.68,-0.0674 9.472,3.82214 c 5.2096,2.10228 10.3694,3.89695 11.4662,3.98824 l 1.994,0.16611 0.4987,-5.52889 0.4984,-5.52901 1.8499,-2.82165 1.8496,-2.82176 5.4856,0.64468 5.4855,0.64481 5.3888,2.54925 5.3887,2.54926 3.4781,3.28024 3.4781,3.28024 0,4.99224 c 0,2.74571 -0.2806,6.395 -0.6235,8.10949 l -0.6234,3.11738 -3.9327,4.46795 -3.933,4.46782 0.627,1.01436 0.6269,1.01436 1.8247,0 1.8248,0 2.303,1.86473 2.3028,1.86486 -1.1839,13.83883 c -1.3628,15.92762 -2.3854,23.53668 -4.5157,33.59708 -0.8341,3.93916 -1.9511,9.40548 -2.4823,12.14744 -0.5313,2.74184 -1.7044,8.28359 -2.6071,12.3148 l -1.6409,7.32955 -2.4751,4.88433 -2.4751,4.88446 -0.864,0 -0.8639,0 -0.6013,-2.24341 c -0.3307,-1.23391 -0.6073,-4.61331 -0.6147,-7.50989 l -0.014,-5.26662 -1.3474,-3.22441 -1.3472,-3.22454 -0.7353,-12.90578 -0.7351,-12.90577 -4.2723,-12.50301 -4.2724,-12.503 -4.2935,-8.37227 -4.2937,-8.37226 -3.5824,-3.76581 -3.5822,-3.76581 -2.7626,-0.69339 -2.7623,-0.69327 -4.3669,1.66778 c -2.4019,0.9172 -7.2056,3.54114 -10.6751,5.83088 l -6.3081,4.16321 -9.2927,9.41934 -9.2926,9.41934 -7.3452,11.04129 -7.3455,11.04142 -6.9693,14.45728 c -7.4846,15.52597 -12.498,28.36156 -16.5817,42.45329 l -2.5604,8.83523 -0.6174,7.50778 -0.6174,7.50777 -2.3338,2.80815 -2.3339,2.80816 1.4672,2.83713 c 0.807,1.5605 2.7454,3.88621 4.3078,5.16833 l 2.8405,2.33107 2.6709,4.67752 2.6707,4.67751 4.7283,4.84174 4.7281,4.84174 4.8311,2.33108 4.8308,2.33095 11.1221,-0.52242 11.1218,-0.52254 9.6553,-3.12775 c 5.3103,-1.72024 12.2348,-4.26862 15.3882,-5.66314 l 5.7328,-2.53527 1.7717,0.46321 1.7715,0.46322 2.8636,-2.73647 2.8635,-2.73647 7.0306,-2.68663 7.031,-2.68664 1.8582,-2.05319 c 1.022,-1.12926 3.0299,-2.65917 4.4619,-3.39964 l 2.6037,-1.34657 1.1829,-2.78892 1.1827,-2.78892 5.6436,-3.42811 c 3.1039,-1.88547 7.3288,-4.9509 9.3891,-6.81226 l 3.7458,-3.38415 3.9572,-6.26574 3.9571,-6.26574 1.4913,-0.57224 1.4912,-0.57213 1.2202,1.47021 1.2203,1.47033 -1.112,2.20943 c -0.6116,1.21519 -2.214,6.78017 -3.5609,12.36663 l -2.4488,10.15732 -4.8124,8.78677 -4.8123,8.78665 -6.664,6.66901 -6.664,6.66888 -2.8608,1.4792 -2.8605,1.4792 -1.922,-0.17172 -1.9223,-0.1716 -2.774,5.48367 -2.7736,5.48393 -10.7086,6.67188 -10.7084,6.67201 -8.9736,2.98001 -8.9735,2.97988 -7.7993,1.06643 c -8.5414,1.16785 -13.1788,1.18346 -21.8322,0.0737 z m -940.3654,-17.34325 -3.85137,-1.44735 -2.97006,-2.82077 -2.97008,-2.82077 -1.95784,-3.80703 -1.95785,-3.80715 -0.55977,-4.72634 -0.55977,-4.72635 2.3783,-2.76482 2.37828,-2.76494 6.24772,-0.73673 6.24772,-0.7366 1.69723,-1.69726 1.69721,-1.69725 0.51138,-9.19379 0.51142,-9.19379 2.99114,-0.50943 2.99118,-0.50943 0.30946,-2.67477 0.30946,-2.67477 -2.80208,-1.78418 c -1.54116,-0.98139 -3.13175,-2.24328 -3.53465,-2.80441 l -0.7325,-1.0201 -0.0154,-28.69652 -0.0152,-28.69664 1.24632,-0.38391 c 0.68547,-0.21119 2.43068,-0.64193 3.87825,-0.95716 l 2.63192,-0.57324 0.63321,-1.65005 0.63321,-1.65018 -1.27103,-1.70175 c -0.69907,-0.93593 -2.78136,-3.67439 -4.62734,-6.08565 l -3.3563,-4.38389 0.806,-15.95285 c 0.4433,-8.77416 0.83196,-20.29215 0.86367,-25.59574 l 0.0576,-9.64277 -2.40759,-2.56087 -2.40758,-2.561 -5.56886,-2.07642 -5.56881,-2.07643 -2.1628,-2.0201 -2.1628,-2.01997 -2.1233,-4.93578 -2.12331,-4.93579 -0.16333,-5.89306 -0.16336,-5.8932 2.33517,-2.48569 2.33517,-2.48567 8.59512,-3.14174 8.59513,-3.14186 15.45434,-2.88359 15.45435,-2.88359 17.94697,0.0212 17.94698,0.0212 9.58765,0.93306 9.58762,0.93305 8.19328,2.99012 c 4.5063,1.64468 10.96741,4.54163 14.35801,6.43772 3.39061,1.89608 8.1965,5.23588 10.67979,7.42183 l 4.51503,3.97426 6.32515,8.81961 6.32512,8.81962 4.77831,9.97049 4.77832,9.9706 1.67466,6.4808 1.67467,6.4808 0.0894,7.47793 0.0895,7.47792 -1.29147,5.4838 -1.29146,5.48381 -3.89791,7.97648 -3.89792,7.97636 -5.72877,6.6564 c -3.15082,3.66103 -7.97215,8.64852 -10.71406,11.08313 -2.74188,2.43473 -8.49948,6.94739 -12.79462,10.02805 l -7.80936,5.60133 -12.13173,5.86971 c -15.29447,7.39987 -33.14188,14.54521 -41.54482,16.63262 -3.56447,0.88547 -8.14319,2.03659 -10.17494,2.55813 l -3.69409,0.94804 -1.54045,1.54052 -1.54044,1.54039 0,12.93588 0,12.93575 2.28699,2.28699 2.28701,2.28698 4.06435,0.64993 4.06436,0.64993 1.24863,1.50455 1.24864,1.50455 5.11243,0.0137 5.11247,0.015 4.30371,1.49893 4.3037,1.49893 0.92352,-0.57075 c 0.86968,-0.5374 21.85819,-1.65354 28.35712,-1.50779 1.64514,0.0362 4.56153,0.0737 6.48085,0.0812 1.91934,0.0125 4.10107,0.2333 4.8483,0.50119 l 1.35862,0.48695 -1.23142,1.48369 -1.23144,1.48382 -1.55722,0 c -0.8565,0 -3.60578,0.95316 -6.10953,2.11826 -2.50373,1.16498 -7.24431,3.36941 -10.53459,4.89857 -3.29027,1.52928 -8.67438,3.54026 -11.96464,4.46907 -3.29029,0.92881 -7.45576,2.31372 -9.25659,3.07779 l -3.27427,1.38916 -3.73254,0 -3.73256,0 -2.18054,1.5274 c -3.25986,2.28325 -9.634,4.34706 -20.19835,6.5395 l -9.47202,1.9659 -11.96464,0.49806 -11.96466,0.49806 -3.85136,-1.44735 z m 74.50736,-110.97153 8.83866,-3.49268 4.31494,0.64705 4.31494,0.64706 1.59845,-2.4396 1.59846,-2.43948 -0.6005,-2.39265 -0.6005,-2.39252 1.96764,-1.78069 1.96766,-1.78068 2.14078,1.14574 2.14078,1.14562 1.51779,-1.25964 1.5178,-1.25964 -0.55474,-2.77369 -0.55475,-2.77369 4.98046,-5.69149 c 6.22179,-7.11 11.23938,-14.62551 14.71056,-22.03387 l 2.68194,-5.72409 6.5e-4,-8.97349 6.4e-4,-8.97348 -2.65257,-5.6584 -2.65256,-5.6584 -4.08008,-4.42636 -4.08006,-4.42635 -5.81364,-2.60908 -5.81366,-2.60896 -7.65101,-1.138 -7.65099,-1.13787 -9.71434,1.17883 c -5.34289,0.64831 -10.46275,1.3949 -11.37749,1.65905 l -1.66316,0.48032 -3.45374,-3.03245 -3.45375,-3.03246 -2.07666,0 -2.07668,0 -1.03213,1.92855 c -0.56766,1.06069 -1.03213,3.00461 -1.03213,4.3197 l 0,2.39115 -3.66079,2.41038 c -2.01344,1.32571 -4.53993,3.6057 -5.61444,5.06654 l -1.95365,2.65617 -0.82053,15.78936 -0.82056,15.78937 -0.0458,28.47471 -0.0458,28.47483 1.24632,1.57137 c 0.68548,0.86436 1.91933,1.77344 2.74191,2.02035 l 1.49557,0.44873 11.46613,-2.42112 11.46613,-2.42125 8.83864,-3.4928 z m 93.85793,108.67105 c -1.64512,-0.21831 -5.38101,-1.07093 -8.30194,-1.89483 l -5.3108,-1.49793 -4.20442,-4.20443 -4.20443,-4.20443 -4.37959,-11.44918 -4.37957,-11.44918 -0.41612,-13.42107 -0.41611,-13.4212 1.18421,-7.34079 1.18421,-7.34092 2.40108,-7.05942 c 1.3206,-3.88271 4.01059,-9.98759 5.97775,-13.56644 4.2836,-7.79303 11.10537,-16.85893 17.60178,-23.39206 l 4.75366,-4.78054 8.26394,-3.96539 8.26395,-3.96526 5.08358,-0.6021 5.08355,-0.6021 5.17256,2.81528 5.17256,2.81527 5.29439,5.08703 5.29439,5.08715 2.4864,4.93529 2.48642,4.93528 1.12106,5.2836 1.12108,5.28361 -0.005,12.66336 -0.005,12.66336 -1.04099,3.74846 -1.04094,3.74833 -2.1939,1.42362 -2.19391,1.4235 -6.97939,1.14124 c -6.99763,1.14412 -41.3729,9.68186 -48.85566,12.13421 l -3.98821,1.30697 -1.73788,3.5525 -1.73789,3.5525 1.69061,4.42399 c 0.92983,2.43311 2.73731,6.12274 4.01658,8.19904 l 2.32596,3.77505 3.2051,2.02135 3.20512,2.02147 6.07174,-0.43436 6.07176,-0.43425 6.39141,-2.81877 c 3.5153,-1.55039 11.773,-6.03844 18.35047,-9.97348 l 11.95903,-7.15458 1.35845,0.52129 1.35846,0.52129 -0.53307,3.28486 c -0.29318,1.80679 -1.43758,5.32969 -2.54309,7.82899 l -2.01001,4.54388 -2.47749,0 -2.47747,0 -1.63363,1.63369 -1.6336,1.63356 0.15926,4.0994 c 0.0877,2.25477 0.11765,4.58597 0.0668,5.18044 l -0.0924,1.08105 -8.75247,4.15934 -8.75247,4.15947 -6.95113,1.47233 c -6.8844,1.45834 -9.13061,1.58049 -14.92757,0.81166 z m 9.53032,-73.57292 16.39311,-3.68676 4.15221,-1.80778 4.1522,-1.80791 1.08234,-2.02235 1.08231,-2.02235 0,-10.5145 0,-10.51438 -1.60748,-4.01759 -1.60747,-4.01747 -2.35469,-0.59098 -2.35469,-0.59098 -4.50082,2.17884 -4.50082,2.17883 -7.44975,6.95726 c -4.09737,3.82651 -8.97965,9.0609 -10.84952,11.63214 -1.86987,2.57137 -5.30117,8.34154 -7.62512,12.82273 l -4.22536,8.14758 0.70647,1.14312 0.70647,1.14312 1.20376,-0.46197 c 0.66207,-0.25403 8.58066,-2.12088 17.59685,-4.1486 z m 315.89059,71.89477 c -1.98397,-0.70887 -5.24082,-2.2986 -7.23746,-3.53264 l -3.63047,-2.24378 -2.49477,-4.257 c -1.37214,-2.34144 -4.17242,-8.92028 -6.22275,-14.61977 l -3.72799,-10.36276 0.0931,-15.95285 0.093,-15.95284 2.1604,-7.97649 2.16026,-7.97636 4.04252,-8.47505 4.04267,-8.47492 5.40052,-7.06628 c 2.97022,-3.88646 7.88449,-9.41547 10.92053,-12.28682 l 5.51989,-5.22054 7.50938,-3.46957 7.50939,-3.46945 4.85348,-0.57487 4.8535,-0.57487 4.3205,2.10952 4.3203,2.10952 6.1902,5.54013 6.19,5.54025 3.282,6.66102 3.2818,6.66102 0.3232,17.47488 0.3231,17.47476 -1.0264,2.68975 -1.0264,2.68976 -2.2879,1.48432 -2.2879,1.48445 -9.0039,1.55163 c -4.9524,0.85338 -17.5153,3.81765 -27.91777,6.58734 l -18.91343,5.03557 -4.48669,2.20031 -4.48683,2.20032 0.16765,6.15234 0.16753,6.15246 2.03469,4.59958 2.03455,4.59958 3.49882,1.46184 3.49896,1.46196 7.26053,-0.0175 7.26082,-0.0175 8.40873,-3.41001 8.40894,-3.41 1.8939,1.01361 1.8938,1.01361 1.8217,-1.64842 c 1.0017,-0.90671 2.0699,-2.62495 2.374,-3.8184 l 0.5527,-2.17009 6.2726,-4.2374 6.2727,-4.23752 1.8346,0 1.8348,0 2.8519,-2.03071 c 1.5685,-1.11702 4.928,-2.94916 7.4654,-4.07155 l 4.6135,-2.04083 0.5213,0.52129 0.5213,0.52129 -1.6713,4.37603 -1.6712,4.3759 -3.8877,5.13661 c -2.1382,2.82502 -4.7831,6.89181 -5.8777,9.03718 l -1.9899,3.90069 -5.0454,4.4135 -5.0452,4.41349 -9.1974,4.62905 -9.1973,4.62893 -4.74499,1.24478 -4.74496,1.24491 -1.54314,-2.20331 -1.54314,-2.20332 -2.68539,0 -2.68539,0 -3.98827,2.45634 c -2.19357,1.35107 -4.66122,2.45072 -5.48372,2.44385 -0.82266,-0.0125 -3.11887,-0.59272 -5.1027,-1.30173 z m 16.07012,-71.46877 c 7.40324,-1.63981 16.26918,-3.90557 19.70218,-5.03495 l 6.2417,-2.05344 1.1009,-2.05694 1.1008,-2.05694 0.1353,-11.56783 0.1351,-11.56795 -2.0747,-3.48968 -2.0749,-3.48968 -3.4915,0.0987 -3.4917,0.0987 -6.12924,4.16234 -6.12961,4.16247 -2.36867,-0.59461 -2.36904,-0.59447 -1.63968,1.6398 -1.63994,1.63981 0.61097,2.43336 0.61071,2.43349 -3.95352,5.22166 c -2.17443,2.87185 -5.81394,8.6419 -8.08777,12.82222 l -4.13425,7.60082 0,2.2369 0,2.23691 2.24335,-0.6498 c 1.23389,-0.35744 8.30047,-1.9915 15.70351,-3.63143 z m 619.43988,72.1443 -2.2233,-0.42949 -2.0142,-2.56038 -2.0138,-2.56037 0,-1.7376 0,-1.73747 -1.4082,-1.1686 -1.4081,-1.16872 -6.0425,2.54327 c -3.3232,1.39877 -9.5318,3.69525 -13.7968,5.10338 l -7.7546,2.56013 -9.0534,0.56637 -9.0535,0.56626 -5.2903,-1.75721 -5.2903,-1.7572 -3.8469,-3.47532 -3.8467,-3.47532 -1.5014,-5.05543 -1.5012,-5.0553 0,-4.75894 0,-4.75907 2.4157,-6.65502 2.4155,-6.65502 3.7319,-5.41824 3.7316,-5.41823 5.5679,-4.01984 5.5683,-4.01984 11.9645,-5.82875 11.9647,-5.82875 8.7831,-2.19008 8.7834,-2.18995 2.0939,-1.6955 2.0936,-1.69539 -1.1007,-9.6901 -1.1006,-9.6901 -1.8,-3.68227 -1.7997,-3.68238 -7.9765,-0.28063 -7.9765,-0.28075 -7.9764,3.87734 -7.9765,3.87734 -7.4779,5.54824 c -4.1129,3.05157 -8.0508,6.14422 -8.7512,6.87246 -0.7002,0.72836 -2.3514,2.67027 -3.6695,4.31533 l -2.3965,2.99124 -1.1991,-1.17971 -1.199,-1.17959 2.6906,-6.79677 c 1.4796,-3.73834 4.1192,-9.19904 5.8657,-12.13508 l 3.1752,-5.3383 5.8566,-4.91193 c 3.2211,-2.7015 7.7226,-6.00535 10.0032,-7.34192 2.2805,-1.33658 6.151,-3.14336 8.6007,-4.0151 l 4.4541,-1.5851 7.1755,-0.04 7.1755,-0.04 5.3332,2.4416 5.3332,2.4416 3.6531,3.20756 3.6532,3.20755 2.4186,5.16658 2.4186,5.16658 1.1338,5.38802 1.1336,5.38801 0.96,14.05451 c 0.528,7.73008 0.9666,17.98044 0.9747,22.77885 l 0.015,8.7242 0.9381,0 c 0.516,0 1.2155,-0.44873 1.5544,-0.99713 l 0.6161,-0.99699 2.0599,0 2.06,0 -0.6471,3.2404 c -0.3559,1.7823 -1.9822,6.09501 -3.6144,9.58394 l -2.967,6.34355 0,1.88222 0,1.88209 1.052,0 c 0.5785,0 3.6071,-1.31034 6.7301,-2.91193 8.3688,-4.29211 14.6255,-7.05855 15.9632,-7.05855 l 1.181,0 0,0.92656 c 0,0.50955 -1.8258,3.67515 -4.0571,7.03444 l -4.057,6.108 -0.7685,4.86123 -0.7684,4.86135 -1.6156,2.46546 -1.6154,2.46545 -5.2744,2.994 -5.2744,2.99399 -5.4155,1.58873 c -2.9785,0.87385 -5.6706,1.52778 -5.9824,1.45309 -0.3119,-0.0749 -1.5673,-0.32908 -2.7903,-0.56538 z m -35.6582,-22.69966 7.6596,-1.46558 5.6392,-2.57187 c 3.1012,-1.4145 7.3234,-3.73371 9.3822,-5.15384 l 3.7434,-2.5821 1.9897,-3.21955 1.9898,-3.21954 0,-4.16509 0,-4.16509 -2.4474,-2.44734 -2.4473,-2.44735 -1.9179,0 -1.9176,0 -1.4987,-2.24328 -1.4987,-2.2434 -1.9077,1.71399 -1.9081,1.714 -6.7487,2.08454 -6.7487,2.08441 -3.6759,3.24915 c -2.0217,1.78705 -5.7904,4.74083 -8.375,6.56397 l -4.6992,3.31471 -2.4297,3.59634 c -1.3364,1.97801 -2.7361,4.62793 -3.1107,5.88857 l -0.681,2.29224 1.6012,2.44372 1.6014,2.44385 5.3731,0 5.3732,0 7.6595,-1.46546 z m -505.3444,18.01891 -3.6582,-3.65841 -2.4926,-4.9188 -2.4926,-4.9188 0,-2.46696 0,-2.46695 1.2414,-0.7672 1.2413,-0.7672 8.48,-0.04 8.4798,-0.04 0.6004,-19.94109 0.6002,-19.94109 1.224,-5.22016 1.2241,-5.22003 -0.3286,-12.89891 -0.3289,-12.8989 -2.2081,-2.34744 -2.2083,-2.34744 0.5765,-2.20443 0.5765,-2.20444 -1.6761,-0.64318 -1.6759,-0.64306 -2.176,1.14512 -2.176,1.14511 -4.9854,-1.90657 -4.9852,-1.9067 -0.3397,-1.68764 -0.3395,-1.68751 2.2136,-2.35618 2.2134,-2.35606 8.5952,-3.15809 8.595,-3.15798 5.5463,-0.11739 5.5463,-0.1174 2.7625,1.81016 2.7629,1.81028 1.4122,3.38003 1.4123,3.38015 0,5.01734 0,5.01721 1.2463,-5e-4 1.2465,-5e-4 5.7021,-6.37639 5.7019,-6.37639 4.334,-2.09803 4.3341,-2.09803 4.5888,0 c 2.5239,0 5.333,0.2855 6.2425,0.63444 l 1.6536,0.63457 0.8958,2.35667 0.8961,2.35668 2.8294,0 2.8293,0 2.5556,2.74184 2.5557,2.74184 4.1118,8.51002 4.1116,8.51001 -0.059,1.95915 c -0.031,1.07743 -0.8573,5.02746 -1.8351,8.77766 l -1.7774,6.81875 -4.3967,1.96428 -4.3965,1.96427 -2.649,2.53152 -2.6491,2.5314 -5.952,-2.67103 -5.952,-2.67115 -1.0827,-2.37616 -1.0825,-2.37616 0.8261,-0.51055 0.8262,-0.51067 1.7834,1.97064 1.7834,1.97051 2.6461,0 2.646,0 1.633,-1.24627 1.633,-1.24628 1.5343,-4.48681 c 0.8438,-2.4677 1.5406,-5.29234 1.5486,-6.27685 l 0.015,-1.79018 -2.4925,-2.49268 c -1.3711,-1.37092 -2.4927,-2.84263 -2.4927,-3.2705 0,-0.42787 -1.0385,-1.75358 -2.3075,-2.94591 l -2.3077,-2.16797 -5.4471,0 -5.4469,0 -2.2378,1.5675 -2.2379,1.5675 -2.8305,5.66114 c -1.5567,3.11364 -3.5539,7.90455 -4.438,10.64639 -0.8844,2.74196 -2.7543,11.70571 -4.1557,19.91961 l -2.548,14.93424 -0.1,7.72733 -0.1,7.7272 1.7086,2.60733 1.7083,2.60734 4.2849,1.89545 4.2849,1.89546 0.5426,2.07405 0.5422,2.07418 2.045,-1.09441 2.0451,-1.09454 1.9555,1.2213 1.9555,1.2213 2.4773,-1.32583 2.4774,-1.32584 2.8187,0.70351 c 1.5503,0.38703 3.4917,1.28137 4.3144,1.98763 0.8225,0.70613 2.7386,1.57936 4.258,1.94054 l 2.7623,0.65655 2.0807,-1.11352 2.0806,-1.11365 0.9541,0.95416 0.9541,0.95416 -1.7082,1.70825 -1.7083,1.70837 -2.0212,-0.52853 -2.0212,-0.52854 -2.5663,1.38104 c -3.8994,2.09853 -12.046,4.50641 -15.2465,4.50641 l -2.8533,0 -4.1979,2.17284 -4.1977,2.17284 -10.9677,0.73835 c -6.0321,0.40614 -15.2664,1.05957 -20.5202,1.45222 l -9.5528,0.71375 -3.6584,-3.65828 z m 578.5254,0.75458 c -1.4241,-1.56787 -3.331,-3.96014 -4.2377,-5.31595 l -1.6485,-2.4652 0,-2.76932 0,-2.76931 1.9549,-1.95491 1.9548,-1.95478 5.5217,-1.60521 5.5217,-1.60522 0.5684,-2.26476 0.5686,-2.26475 -0.3179,-35.80214 -0.3178,-35.80227 -2.0481,-3.48631 -2.0479,-3.48631 -3.4359,-2.31533 -3.4357,-2.31534 0,-1.17772 0,-1.17771 9.472,-3.21505 c 5.2096,-1.76832 10.3694,-3.22654 11.4662,-3.2404 l 1.9941,-0.025 2.5836,3.2404 2.5836,3.2404 1.2759,3.98824 c 0.7016,2.19345 1.6553,4.39951 2.1194,4.90232 l 0.8436,0.91419 7.2616,-7.54261 7.2617,-7.54249 4.2375,-1.13725 4.2375,-1.13713 3.7607,1.01261 3.7608,1.01273 4.2307,3.11114 4.2305,3.11127 2.38,4.14023 c 1.3089,2.27712 2.6752,5.55874 3.0359,7.29246 l 0.6564,3.15236 -1.1242,6.31969 c -0.6183,3.47582 -2.2561,10.0654 -3.6399,14.6435 l -2.5156,8.3238 -5.8972,6.04543 -5.897,6.04531 -0.6127,-0.61246 -0.6123,-0.61246 1.7059,-6.96088 1.7058,-6.96075 -0.5673,-10.21315 -0.5673,-10.21314 -1.0064,-1.00649 -1.0065,-1.00636 -5.5366,1.74521 -5.5367,1.74534 -3.0705,4.17396 c -1.6887,2.29573 -3.6901,5.61843 -4.4476,7.38375 l -1.3771,3.20968 -2.4921,16.41931 -2.492,16.41944 0,6.09464 0,6.09451 1.4586,2.8209 c 0.8024,1.55138 2.0363,3.03645 2.742,3.30009 0.7058,0.26365 6.6672,0.15874 13.2478,-0.23317 l 11.9646,-0.71262 0.9013,0.80654 0.9011,0.80667 -2.7335,3.58384 c -1.5035,1.97115 -4.1872,4.53677 -5.964,5.70149 l -3.2305,2.11764 -2.1555,3.28823 -2.1555,3.28823 -2.6076,1.70863 -2.6075,1.70849 -9.6167,0.72162 c -5.2891,0.39678 -13.8792,1.03634 -19.0887,1.42113 l -9.4721,0.69963 -2.5888,-2.85074 z m 85.1648,1.00799 c -1.1954,-1.02547 -3.3267,-3.6097 -4.7359,-5.7427 l -2.5624,-3.87809 0,-1.93167 0,-1.93168 2.7934,-2.79342 2.7934,-2.79342 4.1287,-0.69751 4.1285,-0.69751 0.9624,-1.16835 0.9625,-1.16835 0.2124,-34.89693 0.2126,-34.89694 -0.9956,-4.77193 -0.9955,-4.77192 -1.7556,-1.94005 -1.7557,-1.93992 -5.0965,-1.89858 -5.0964,-1.89845 -0.2719,-1.36018 -0.272,-1.36006 12.6416,-2.25589 12.6419,-2.25589 2.5858,1.64468 c 1.4224,0.90458 3.5796,2.81702 4.7938,4.25001 l 2.2078,2.60534 0.6451,3.2404 0.6452,3.24052 1.1355,-0.0125 1.1352,-0.0125 4.6852,-5.87595 4.6853,-5.87596 5.4812,-2.68177 5.4813,-2.68176 3.2936,0.7095 c 1.8117,0.39028 4.6398,1.37978 6.285,2.19894 3.8387,1.91132 8.2886,6.0483 9.9745,9.27322 l 1.3214,2.5279 -1.4231,12.92651 -1.4232,12.9265 -2.9528,4.48668 c -1.624,2.46771 -3.7205,5.94503 -4.6588,7.72721 l -1.7057,3.2404 -1.6142,0 -1.6143,0 -0.096,-8.22564 -0.097,-8.22577 -1.6953,-4.21829 -1.6953,-4.21841 -3.2575,-2.01323 -3.2576,-2.01323 -2.5014,0 -2.5013,0 -1.9944,4.73596 c -1.0969,2.60483 -2.6966,6.97948 -3.555,9.72132 -1.6929,5.40737 -5.1665,26.59811 -6.2316,38.01719 l -0.6632,7.10838 1.165,3.53014 c 0.6408,1.94155 1.703,3.96964 2.3604,4.50679 l 1.1953,0.97664 5.4837,-0.98126 c 3.0161,-0.53965 8.1761,-1.10228 11.4662,-1.25015 3.2902,-0.148 6.7221,-0.58923 7.6263,-0.98076 l 1.6439,-0.71163 0.7059,1.142 0.706,1.14212 -6.5545,6.30146 -6.5544,6.30133 -1.5576,3.89283 -1.5576,3.89295 -3.1915,1.88522 -3.1916,1.88521 -9.4919,0.70438 c -5.2204,0.38741 -13.5297,1.02797 -18.4652,1.42338 l -8.9735,0.71911 -2.1736,-1.86461 z m 113.3454,0.0849 -5.484,-1.50593 -5.2982,-3.62731 -5.2982,-3.62731 -3.9089,-4.57073 -3.909,-4.57073 -2.9053,-5.98224 -2.9053,-5.98236 -1.0985,-5.28361 -1.0985,-5.2836 0.02,-9.17368 0.02,-9.17368 0.9697,-6.70361 0.9694,-6.70348 2.1411,-6.25812 c 2.818,-8.23713 7.3888,-17.31752 11.0657,-21.98342 l 2.9634,-3.76057 6.2535,-4.46245 c 3.4395,-2.45421 8.7053,-5.58484 11.702,-6.95675 l 5.4486,-2.49443 7.3904,-0.60235 7.3905,-0.60247 6.957,1.63681 6.9572,1.63681 4.1655,2.4411 4.1654,2.44123 3.0827,3.8922 3.0825,3.89208 3.4611,7.33792 c 1.9035,4.03583 4.1754,10.02993 5.0487,13.32016 l 1.5875,5.98237 0.5574,9.47204 0.5571,9.47192 -1.613,8.47505 c -0.8873,4.66115 -2.0733,10.11935 -2.6356,12.12921 l -1.0223,3.65441 -3.4663,2.04508 -3.4661,2.04507 0,1.54277 c 0,0.8485 0.5536,2.42886 1.23,3.51204 l 1.2297,1.96927 -1.9776,3.68638 c -1.0877,2.02759 -4.0687,5.97749 -6.6245,8.77778 l -4.6469,5.09152 -5.3237,2.93904 -5.3236,2.93904 -12.4632,0.24166 -12.4631,0.24179 -5.4838,-1.50592 z m 23.8858,-20.64385 5.4988,-1.2464 3.8152,-3.80091 3.8152,-3.80103 1.9378,-4.52115 1.9382,-4.52128 1.0987,-7.08189 1.0989,-7.08202 -0.6631,-14.00893 c -0.3647,-7.70485 -0.6445,-16.09323 -0.6219,-18.64061 l 0.04,-4.6318 -2.6931,-1.76458 c -1.4813,-0.97052 -5.081,-3.70948 -7.9995,-6.08664 l -5.306,-4.32195 -3.2699,0 -3.2701,0 -5.1189,1.52016 -5.119,1.52016 -3.2116,2.70238 -3.2118,2.7025 -3.7921,5.86721 -3.7922,5.86722 -0.6083,3.61969 c -0.3347,1.99075 -0.8176,4.38489 -1.0731,5.32019 -0.2554,0.93531 -2.2353,3.8435 -4.3996,6.46257 l -3.9351,4.76206 0,1.54152 0,1.54152 1.84,1.57562 1.8404,1.57561 0.6848,5.82787 0.685,5.82788 4.3104,9.09912 4.3102,9.099 2.9224,2.08092 c 3.449,2.45584 8.4782,4.02733 13.2893,4.15235 1.9031,0.05 5.9349,-0.47096 8.9591,-1.15636 z m 89.0004,19.61425 -5.1576,-2.57011 -2.5638,-3.04682 c -1.41,-1.67565 -3.3986,-4.68363 -4.4193,-6.68425 l -1.8556,-3.63743 -1.0881,-5.88457 -1.0876,-5.88445 -0.07,-26.48808 -0.07,-26.48808 -0.7796,-1.99412 -0.7798,-1.99413 -7.1955,0 -7.1953,0 -3.9196,-4.19893 -3.9194,-4.19881 0,-2.54476 0,-2.54476 -1.1543,-1.8485 -1.1543,-1.84862 0.5434,-1.41638 0.5435,-1.41638 5.8822,-3.08329 5.882,-3.08341 5.753,-1.28737 5.7532,-1.28749 1.1896,-2.07206 1.1897,-2.07205 -0.2558,-20.26805 -0.2559,-20.26805 -1.0597,-1.98014 -1.0597,-1.98013 1.1884,-1.43186 1.1883,-1.43187 1.9909,0 1.991,0 5.8342,3.54426 5.8345,3.54426 2.0985,2.94728 2.0988,2.94741 0.5804,15.10247 0.5806,15.10259 1.8519,1.85175 1.8517,1.85187 2.7269,-0.65518 c 1.4996,-0.36031 4.2969,-1.43236 6.2162,-2.38215 l 3.4897,-1.72711 7.8326,-0.71912 7.8328,-0.71899 3.6335,-1.54814 3.6333,-1.54826 5.2238,-0.10116 5.2238,-0.10241 0.4886,1.27388 0.4885,1.27375 -1.7241,1.40539 c -0.9483,0.77295 -3.8285,3.11614 -6.4007,5.20705 -2.572,2.09091 -8.4823,7.20129 -13.134,11.35639 l -8.4572,7.55473 -8.8012,3.32832 c -4.8406,1.83064 -9.4743,3.94266 -10.297,4.69325 l -1.4954,1.36467 -0.3212,27.63433 -0.3212,27.63432 0.6462,5.26699 0.6463,5.26712 2.3135,2.68988 2.3138,2.68976 3.0646,-1.47607 3.0646,-1.47596 11.3489,-11.10311 c 6.2418,-6.10675 12.3215,-11.62377 13.5106,-12.26009 l 2.1616,-1.15686 0.851,0.52604 0.8513,0.52604 -0.806,4.25613 c -0.4434,2.34082 -1.5225,5.95726 -2.3981,8.03643 l -1.592,3.78055 -3.0945,2.76482 -3.0944,2.76482 1.1539,2.1561 1.1539,2.15623 -1.5656,3.76169 -1.5656,3.7617 -4.1903,4.36141 c -2.3047,2.39889 -6.185,5.65178 -8.6231,7.22877 l -4.4327,2.8671 -5.5913,0 -5.5912,0 -5.1577,-2.57011 z"
       id="path4376"
       inkscape:connector-curvature="0" />
  </g>
</svg>
