<?xml version="1.0" encoding="UTF-8" standalone="no"?>
<!-- Created with Inkscape (http://www.inkscape.org/) -->

<svg
   xmlns:dc="http://purl.org/dc/elements/1.1/"
   xmlns:cc="http://creativecommons.org/ns#"
   xmlns:rdf="http://www.w3.org/1999/02/22-rdf-syntax-ns#"
   xmlns:svg="http://www.w3.org/2000/svg"
   xmlns="http://www.w3.org/2000/svg"
   xmlns:xlink="http://www.w3.org/1999/xlink"
   xmlns:sodipodi="http://sodipodi.sourceforge.net/DTD/sodipodi-0.dtd"
   xmlns:inkscape="http://www.inkscape.org/namespaces/inkscape"
   id="svg2"
   version="1.1"
   inkscape:version="0.91 r"
   width="2481"
   height="663"
   sodipodi:docname="Pepper-and-Carrot_by-David-Revoy_E02P00.svg">
  <metadata
     id="metadata8">
    <rdf:RDF>
      <cc:Work
         rdf:about="">
        <dc:format>image/svg+xml</dc:format>
        <dc:type
           rdf:resource="http://purl.org/dc/dcmitype/StillImage" />
        <dc:title />
      </cc:Work>
    </rdf:RDF>
  </metadata>
  <defs
     id="defs6" />
  <sodipodi:namedview
     pagecolor="#ffffff"
     bordercolor="#666666"
     borderopacity="1"
     objecttolerance="10"
     gridtolerance="10"
     guidetolerance="10"
     inkscape:pageopacity="0"
     inkscape:pageshadow="2"
     inkscape:window-width="1920"
     inkscape:window-height="1056"
     id="namedview4"
     showgrid="false"
     inkscape:zoom="0.44771263"
     inkscape:cx="1278.2364"
     inkscape:cy="350.03685"
     inkscape:window-x="0"
     inkscape:window-y="24"
     inkscape:window-maximized="1"
     inkscape:current-layer="layer1"
     showguides="true"
     inkscape:guide-bbox="true" />
  <g
     inkscape:groupmode="layer"
     id="layer2"
     inkscape:label="artwork"
     sodipodi:insensitive="true">
    <image
       sodipodi:absref="/home/deevad/peppercarrot/webcomics/New/lang/el/../gfx_Pepper-and-Carrot_by-David-Revoy_E02P00.png"
       xlink:href="../gfx_Pepper-and-Carrot_by-David-Revoy_E02P00.png"
       width="2481"
       height="663"
       id="image10"
       x="-1.6728083e-06"
       y="0" />
  </g>
  <g
     inkscape:groupmode="layer"
     id="layer1"
     inkscape:label="text">
    <path
       style="display:inline;opacity:0.98000004;fill:#562f13;fill-opacity:1"
       d="m 685.91232,537.58576 c -2.12475,-5.53705 -1.54158,-67.52814 0.93855,-99.76623 4.21287,-54.76107 11.96427,-89.85193 19.84788,-89.85193 4.6388,0 5.1809,-1.65335 2.12559,-6.48323 -2.80073,-4.42751 3.48232,-14.65566 13.01819,-21.19228 5.31147,-3.64081 10.69571,-5.23737 17.66326,-5.23737 11.65175,0 15.28884,2.77831 15.28884,11.67843 0,5.64303 0.42345,6.061 3.52873,3.48394 3.00006,-2.48991 3.99299,-2.29366 6.62747,1.30913 8.19437,11.20645 10.67667,46.44627 4.52517,64.242 -4.26196,12.32934 -12.24741,23.79408 -18.58425,26.68136 -13.99416,6.37609 -32.00379,-0.1286 -40.57446,-14.65481 l -4.81038,-8.15292 -2.95599,15.30389 c -1.6959,8.7803 -2.79469,27.156 -2.57761,43.10726 0.27629,20.3043 -0.60026,31.16946 -3.24988,40.28393 -2.79793,9.62451 -3.09612,14.00709 -1.30304,19.15077 1.27889,3.66858 2.32524,9.2875 2.32524,12.48645 0,9.48487 -8.91418,15.21878 -11.83331,7.61161 z m 63.26537,-136.81225 c 4.95937,-5.48006 9.78637,-19.08975 9.90902,-27.93832 0.0529,-3.82158 1.33053,-7.36488 2.83904,-7.87415 3.48921,-1.17773 -1.75339,-12.87334 -10.35024,-23.09003 -4.58847,-5.45311 -7.68219,-7.06856 -13.53714,-7.06856 -9.66497,0 -16.6319,7.21947 -22.75184,23.5765 -3.88211,10.37588 -4.15597,13.2339 -1.92069,20.04417 3.23618,9.85979 11.72478,23.5759 15.53571,25.10321 6.62734,2.65605 16.6074,1.30109 20.27614,-2.75282 z m 681.35591,136.90456 c -2.1861,-2.63409 -2.4734,-13.3211 -1.3043,-48.50344 3.2807,-98.70509 12.6972,-145.47827 33.3106,-165.4576 6.0657,-5.87913 9.5781,-7.37134 19.236,-8.1723 l 11.8152,-0.97977 1.4105,7.05284 c 0.7759,3.87911 0.8629,7.93875 0.1931,9.02165 -0.6691,1.08289 0.2734,1.96881 2.095,1.96881 1.8213,0 4.3473,-1.72795 5.6133,-3.83987 2.16,-3.60351 2.5101,-3.56975 5.6911,0.54864 1.8643,2.4136 4.9575,9.77958 6.8738,16.36874 6.4393,22.14012 -0.4114,63.71921 -10.4981,63.71921 -2.9484,0 -4.1501,1.56632 -4.1501,5.40826 0,6.53735 -5.6335,9.95108 -16.4215,9.95108 -10.3152,0 -18.9177,-4.58938 -27.0144,-14.41236 -3.5913,-4.35681 -7.0817,-7.02833 -7.7561,-5.93678 -0.6747,1.09155 -2.391,17.20541 -3.8141,35.80856 -1.9635,25.67183 -3.3991,34.41757 -5.9564,36.28753 -3.0162,2.20544 -2.9876,3.0088 0.2721,7.66241 2.7934,3.98835 3.6413,10.22701 3.6413,26.79663 0,11.87887 -1.0222,23.50782 -2.2716,25.84209 -2.7356,5.11172 -7.1528,5.46043 -10.966,0.86567 z m 62.7548,-136.41419 c 6.3574,-6.35732 10.0002,-18.08913 10.0002,-32.20566 0,-22.62561 -6.639,-34.25577 -19.5542,-34.25577 -9.8762,0 -19.9827,10.34967 -24.7808,25.37723 -3.0524,9.55907 -3.0941,11.98547 -0.3465,20.22798 4.3757,13.12724 15.6731,24.60893 24.2132,24.60893 3.6936,0 8.4042,-1.68882 10.4681,-3.75271 z m 599.468,129.37022 c -6.6403,-14.92482 -7.3087,-37.50008 -2.5658,-86.63449 5.4033,-55.9756 5.5595,-91.35071 0.4174,-94.61049 -2.9526,-1.87179 -4.8949,-1.28792 -9.2137,2.7694 -3.4313,3.22346 -6.847,4.61364 -9.1574,3.72699 -3.0943,-1.18735 -3.4761,-0.36848 -2.381,5.1067 0.8833,4.41679 -0.3797,10.27057 -3.9138,18.14155 -2.8696,6.39133 -8.3587,19.27283 -12.1977,28.62554 -5.154,12.55642 -8.0404,17.00502 -11.0339,17.00502 -4.6025,0 -5.3358,-0.92736 -7.3283,-9.2669 -1.1012,-4.60962 -0.7198,-5.70397 1.6688,-4.78734 5.4752,2.10107 6.3919,-3.72662 1.6046,-10.20157 -2.7823,-3.76344 -4.662,-9.62209 -4.6848,-14.60227 -0.022,-4.57427 -1.502,-15.22831 -3.2912,-23.67547 -1.7893,-8.4473 -3.2532,-18.18946 -3.2532,-21.64938 0,-5.14912 -0.7739,-6.08842 -4.2637,-5.17569 -5.9081,1.54487 -11.5888,-5.36328 -10.7117,-13.02583 0.5035,-4.39899 2.0874,-6.42399 5.3923,-6.89547 9.9221,-1.41506 25.1621,25.32091 28.4159,49.85134 0.8142,6.13608 2.0937,11.12991 2.8431,11.09748 0.7497,-0.0329 4.237,-6.49176 7.7496,-14.35385 3.5125,-7.86208 10.2613,-18.69676 14.9972,-24.07711 10.5653,-12.00278 20.4559,-13.39772 29.0727,-4.10035 10.8999,11.76107 11.5225,27.0168 4.2116,103.16152 -4.5133,47.0078 -4.4699,72.844 0.1425,84.92109 2.9294,7.67061 3.2066,10.82435 1.2704,14.44274 -3.987,7.44986 -8.7966,5.42935 -13.7897,-5.79316 z M 908.58311,428.94585 c -2.2709,-3.73418 -5.3641,-11.38637 -6.8738,-17.00489 -1.5097,-5.61865 -3.4226,-10.98937 -4.2507,-11.93513 -0.8283,-0.94577 -4.238,2.60277 -7.5773,7.88561 -15.39324,24.35283 -41.39152,22.08733 -50.41428,-4.3929 -4.58056,-13.44319 -4.70098,-40.82116 -0.19594,-44.55998 1.81021,-1.50233 3.29128,-6.10573 3.29128,-10.22985 0,-8.54407 7.38173,-24.4796 12.19513,-26.32665 1.77106,-0.67967 4.664,-0.0378 6.42876,1.42725 2.63169,2.18407 3.67636,1.63641 5.80974,-3.04574 5.09816,-11.18927 18.25841,-5.62328 26.89771,11.37613 l 5.1876,10.20743 2.8201,-13.09763 c 2.7079,-12.57628 12.5747,-27.12309 16.044,-23.65378 4.3722,4.37217 -1.374,35.20995 -7.3585,39.48997 -7.1041,5.08086 -2.6075,41.91844 8.6132,70.56105 6.7517,17.23528 -1.7482,27.88261 -10.617,13.29911 z m -33.61717,-28.87262 c 2.55425,-2.71882 7.25247,-10.64087 10.44057,-17.60448 l 5.7964,-12.66125 -4.5454,-13.46001 c -7.64527,-22.63866 -15.53161,-27.17441 -25.06132,-14.41382 -7.41595,9.93011 -11.0179,22.3661 -11.05137,38.15561 -0.035,16.56913 4.53421,24.92731 13.62754,24.92731 3.54263,0 8.11821,-2.09558 10.79358,-4.94336 z m 529.53096,27.31886 c -2.4189,-4.74127 -5.5503,-13.19648 -6.9584,-18.78929 -1.4082,-5.5928 -3.2063,-10.16878 -3.9952,-10.16878 -0.7894,0 -3.3585,3.57182 -5.7096,7.93741 -9.728,18.06366 -30.3937,24.41744 -41.9219,12.88907 -3.0271,-3.02721 -4.852,-6.55869 -4.0554,-7.84783 0.7968,-1.28901 -0.5486,-4.20432 -2.9894,-6.47835 -3.1254,-2.91178 -4.8823,-8.28371 -5.9403,-18.16459 -2.6713,-24.94511 6.4859,-53.77873 20.943,-65.94363 8.3583,-7.03309 9.5849,-7.11403 12.6484,-0.83448 l 2.4084,4.93703 1.4739,-4.93703 c 0.8109,-2.71528 2.7378,-4.9369 4.2822,-4.9369 3.5025,0 15.5434,13.50463 17.4792,19.60353 2.4899,7.8449 4.8703,4.99102 7.6575,-9.18108 3.163,-16.08266 5.631,-21.39341 9.9419,-21.39341 8.6503,0 9.2054,20.70727 0.6395,23.87587 -3.9843,1.47393 -4.0917,1.98003 -1.0647,5.00724 3.0273,3.02721 2.8978,5.1379 -1.2806,20.88718 l -4.6479,17.51977 5.6408,20.66119 c 3.1024,11.3637 6.9799,23.89538 8.6159,27.84824 2.1938,5.29977 2.3495,8.18059 0.592,10.97096 -4.3105,6.84501 -9.118,5.63534 -13.7593,-3.46212 z m -31.2343,-30.05511 c 3.7085,-4.22383 7.6943,-7.67973 8.8573,-7.67973 2.0736,0 2.7441,-5.33415 2.9156,-23.19888 0.1262,-13.02412 -8.9971,-30.3613 -16.4381,-31.24148 -4.6346,-0.54828 -6.8304,0.96441 -11.1475,7.67961 -8.0013,12.44598 -10.8091,23.64659 -9.8203,39.17402 1.4747,23.16024 12.7869,29.8975 25.633,15.26646 z m 749.0626,35.98312 c -1.5087,-1.56803 -2.7428,-5.22884 -2.7428,-8.13537 0,-4.4603 0.8089,-5.08147 5.1874,-3.98248 3.4624,0.86897 6.8582,-0.14664 10.2098,-3.05341 2.7619,-2.39556 7.3708,-4.35548 10.2421,-4.35548 7.5974,0 20.4388,-5.87035 20.4388,-9.34345 0,-1.64153 -5.4469,-7.68692 -12.1037,-13.43416 -6.6572,-5.74725 -14.0626,-14.28901 -16.4567,-18.98176 -8.6014,-16.86033 -3.847,-44.35447 9.2572,-53.53299 4.6064,-3.22663 5.1741,-3.07511 9.7342,2.59766 4.1925,5.21579 5.0383,5.52296 6.3031,2.28939 0.8034,-2.05414 0.8212,-4.76943 0.039,-6.03406 -3.5439,-5.73372 8.8147,-1.53805 15.6742,5.32135 8.1931,8.19327 9.0963,15.35081 2.4615,19.5093 -2.9251,1.83327 -4.8707,1.28378 -8.918,-2.51867 -13.4581,-12.64296 -30.2251,2.0951 -22.7464,19.99383 1.7524,4.19421 6.2392,9.88307 9.9705,12.64175 4.7855,3.53793 6.7846,6.83379 6.7846,11.18585 0,3.39338 0.9872,6.16985 2.1942,6.16985 1.2067,0 2.1941,-1.60191 2.1941,-3.55988 0,-6.68484 5.9612,0.96698 8.4482,10.84419 4.0539,16.09899 -1.3291,27.56983 -15.621,33.28843 -12.427,4.97225 -36.9429,6.84051 -40.5511,3.09011 z m -1024.4351,-12.58092 -3.7676,-10.60772 -6.4239,7.31649 c -16.5915,18.89667 -34.7441,-1.40676 -28.0402,-31.36252 5.1807,-23.14988 21.6679,-32.93738 30.6377,-18.18775 4.4625,7.33758 5.4817,6.81527 7.8003,-3.99698 1.6978,-7.91584 4.8651,-10.93805 8.0865,-7.7163 1.3767,1.37653 0.5467,8.32942 -2.3473,19.66362 -4.207,16.47685 -4.2702,18.24881 -1.0518,29.38542 5.6913,19.69397 6.2603,26.11346 2.3149,26.11346 -2.1314,0 -4.8754,-4.0377 -7.2086,-10.60772 z m -12.239,-17.27855 c 4.5909,-8.33832 4.8261,-10.09967 2.4206,-18.12814 -3.0232,-10.09028 -6.521,-13.86445 -11.1891,-12.07299 -4.6619,1.78878 -10.5127,15.31095 -10.5127,24.29616 0,18.33609 10.6427,21.59538 19.2812,5.90497 z m -769.58491,17.12094 c -3.57707,-6.68387 -2.93694,-26.43086 0.90458,-27.90491 2.77794,-1.06608 2.74053,-1.94602 -0.27841,-6.55357 -3.01821,-4.60633 -3.29079,-10.99704 -2.02675,-47.52051 3.19194,-92.22786 5.83085,-132.01829 9.08662,-137.01114 4.70354,-7.21301 37.34857,-14.60544 76.72108,-17.37338 17.32084,-1.21771 20.19117,-0.90591 23.01796,2.50014 3.61745,4.35877 5.06109,50.12 5.32167,168.68889 0.13236,60.1692 -0.17289,65.78565 -3.6957,68.00873 -6.31225,3.98346 -11.41339,-0.94259 -12.2088,-11.78971 -0.37908,-5.16996 0.31524,-10.4044 1.54297,-11.63211 1.51351,-1.51354 1.4982,-3.60376 -0.0474,-6.49189 -2.70793,-5.05989 -5.4777,-47.36509 -2.94616,-44.99989 0.96051,0.8975 3.08742,-0.28291 4.72649,-2.62301 2.57715,-3.67945 2.38234,-5.23517 -1.44065,-11.50558 -3.98835,-6.54162 -4.42154,-11.02715 -4.42895,-45.86069 -0.004,-21.23531 -0.65729,-47.75455 -1.45068,-58.93151 l -1.44246,-20.3216 -10.37459,1.37617 c -8.14946,1.08107 -10.64899,0.66127 -11.65383,-1.95735 -1.74955,-4.55916 -7.38285,-4.19726 -9.97206,0.64067 -1.41469,2.64349 -6.67961,4.82098 -15.7222,6.50261 -7.47739,1.39055 -14.10327,3.03635 -14.72416,3.65715 -0.6209,0.62092 -1.60536,6.08757 -2.18771,12.14808 -0.58231,6.06063 -1.85403,11.01923 -2.82596,11.01923 -3.71325,0 -4.33806,8.83808 -1.0714,15.15517 2.88572,5.58038 3.2381,13.80204 2.28537,53.31883 -1.96126,81.34588 -3.24474,107.67009 -5.37469,110.23654 -1.13918,1.37264 -5.52695,2.72845 -9.75055,3.01283 -5.72284,0.38542 -8.26635,-0.57973 -9.98353,-3.78819 z m 137.99886,-0.75415 c -7.02131,-7.39962 -8.53092,-13.01157 -9.91527,-36.86025 -1.15243,-19.85305 1.57422,-56.06203 4.86801,-64.6456 0.78077,-2.03451 3.29191,-3.22077 6.00032,-2.83425 4.03694,0.57594 4.59977,1.98039 4.22325,10.53836 -2.71128,61.62582 -2.69421,64.16193 0.48282,71.7656 3.17889,7.60806 3.37897,7.70313 13.12921,6.24103 8.9905,-1.34813 10.08192,-1.01805 11.86675,3.58962 2.56457,6.62061 -2.04187,14.09239 -8.13646,13.19758 -2.44813,-0.35947 -5.09051,0.38103 -5.87206,1.64567 -2.45854,3.97797 -11.76883,2.5027 -16.64657,-2.63776 z m 51.43501,-0.77828 c -0.7889,-3.14338 -0.31404,-19.82855 1.0553,-37.07808 3.34233,-42.10299 3.30474,-43.56241 -1.07966,-41.88005 -5.15782,1.9793 -9.59574,-2.64214 -9.59574,-9.99265 0,-4.72688 1.47086,-7.03114 5.72584,-8.96984 4.93852,-2.25014 6.1628,-2.01733 8.9035,1.69272 2.89282,3.91593 3.36249,3.97566 5.23994,0.66578 1.32462,-2.33522 3.7142,-3.20383 6.68044,-2.4281 2.71525,0.71015 5.39672,-0.0524 6.50766,-1.8496 2.48637,-4.02307 54.71028,-6.02309 54.71028,-2.09534 0,1.3869 1.72793,2.23137 3.83983,1.87678 5.16515,-0.86726 6.27264,7.58003 1.60568,12.24694 -1.96063,1.96064 -5.87408,3.56475 -8.69656,3.56475 -4.86298,0 -5.21475,0.99611 -6.71586,19.01686 -1.03079,12.37456 -0.60566,25.21182 1.21713,36.75275 4.30929,27.28387 4.10319,32.97516 -1.22167,33.73724 -3.29982,0.47221 -5.59316,-1.55828 -8.6735,-7.67974 -4.17996,-8.30662 -5.08132,-19.19933 -5.37933,-65.00932 l -0.11202,-17.19224 -17.005,1.5512 c -9.35274,0.85313 -17.16939,1.67786 -17.37033,1.83291 -0.89598,0.69076 -5.36278,58.4109 -5.25554,67.91219 0.0657,5.8199 -0.89909,12.48475 -2.14396,14.81083 -3.34636,6.25273 -10.51274,5.38242 -12.23661,-1.48599 z m 110.46417,1.32875 c -3.34697,-2.63276 -5.19304,-5.92241 -4.61743,-8.22825 0.52749,-2.11301 -1.5395,-6.71069 -4.59329,-10.21705 -3.45569,-3.96786 -5.516,-8.93926 -5.45606,-13.16516 0.12388,-8.71594 4.98548,-22.33941 9.91708,-27.78875 3.18869,-3.52355 3.41244,-5.20823 1.30572,-9.83187 -3.68787,-8.09405 -3.11802,-28.73013 1.03501,-37.48203 4.37579,-9.22131 11.88783,-15.15432 14.28221,-11.28008 1.19592,1.93505 2.70627,1.63885 5.76685,-1.13092 10.16404,-9.19827 28.59162,2.32827 22.3543,13.98293 -2.1454,4.00869 -3.73688,4.39265 -12.9525,3.12521 -9.63927,-1.32571 -10.89271,-0.95406 -15.1848,4.50235 -2.57303,3.27112 -4.66311,9.02324 -4.64465,12.78265 0.0335,6.8377 2.51293,12.86091 5.14866,12.50815 5.46183,-0.73099 8.13784,0.39055 10.22146,4.2838 3.53754,6.61001 0.48969,13.08312 -7.78874,16.54207 -9.0987,3.8016 -14.19753,10.83322 -14.19753,19.57928 0,17.64605 15.89228,21.71264 38.46013,9.84138 14.05102,-7.39134 18.58886,-6.30808 18.58886,4.43714 0,6.32392 -7.4678,13.14881 -14.38751,13.14881 -1.96402,0 -6.08147,1.97479 -9.14988,4.38839 -7.71372,6.06758 -26.3953,6.06867 -34.10789,0 z m 185.40228,-0.0122 c -3.95217,-2.40958 -8.21731,-7.09416 -9.47801,-10.41013 -1.26074,-3.31597 -3.85558,-7.75641 -5.76635,-9.86783 -2.96569,-3.27709 -3.28246,-8.41548 -2.16431,-35.1111 1.44173,-34.42227 4.87857,-48.82598 11.65014,-48.82598 3.40834,0 4.28857,1.878 4.8317,10.30799 0.41293,6.40973 -0.68434,12.91551 -2.9015,17.20297 -2.06708,3.99735 -2.88125,8.42572 -1.93724,10.5369 0.89562,2.00306 1.70946,12.03459 1.80857,22.29248 0.10836,11.21121 1.3503,20.70764 3.11366,23.80749 2.62,4.60572 3.96985,5.00138 12.63233,3.70237 8.78007,-1.31668 9.87748,-0.9738 11.58483,3.61997 2.17964,5.86439 0.88093,10.53568 -3.98395,14.32984 -4.99466,3.89545 -11.23818,3.38496 -19.38987,-1.58509 z m 184.8567,-25.77264 c 0.8623,-16.59351 2.5036,-31.14922 3.6474,-32.34596 4.0713,-4.25967 6.519,4.19433 5.2357,18.08377 -0.6968,7.54248 -0.8311,13.71367 -0.2985,13.71367 0.5325,0 4.0525,-4.19641 7.82209,-9.32529 8.9238,-12.14223 23.4996,-23.58759 30.0389,-23.58759 7.0395,0 6.787,6.50724 -0.5172,13.33117 -7.7788,7.26712 -11.8596,15.73806 -11.8596,24.6182 0,13.56361 12.9255,19.09182 24.1361,10.32285 6.666,-5.21433 10.0767,-5.49529 11.8121,-0.97282 1.5319,3.99211 -7.939,13.63297 -15.1774,15.44966 -16.6582,4.18092 -27.2244,-4.23577 -29.0402,-23.13257 l -1.0739,-11.17671 -4.7219,6.4001 c -2.5971,3.52002 -7.08159,11.43818 -9.96559,17.59583 -2.8842,6.15766 -6.6754,11.19586 -8.4248,11.19586 -2.7002,0 -2.944,-4.55965 -1.6132,-30.17017 z m 129.46659,25.72705 c -7.6101,-8.40914 -6.6036,-58.09142 1.1767,-58.09142 2.6962,0 3.2613,4.37047 3.2613,25.23327 l 0,25.23315 6.5826,0.0792 c 5.5113,0.067 6.5824,0.95917 6.5824,5.48554 0,4.42105 -1.2197,5.52552 -6.6945,6.06112 -4.6233,0.45234 -7.9987,-0.7856 -10.9085,-4.00101 z m 93.6865,1.61398 c -4.8778,-5.87718 -7.1435,-23.77957 -8.459,-66.83649 l -1.3576,-44.43236 6.1126,0 6.1129,0 -5.8769,-5.87657 -5.8765,-5.8767 1.4813,-33.07024 c 0.8143,-18.18872 2.3594,-34.77552 3.4332,-36.85964 1.2448,-2.41616 0.9845,-5.33915 -0.7186,-8.06614 -3.452,-5.52747 -0.1048,-19.67118 5.4507,-23.03676 3.2449,-1.9654 4.8063,-1.39884 8.4783,3.07645 4.2243,5.14875 4.4047,7.23617 2.9403,34.00992 -0.858,15.68845 -2.5717,29.75793 -3.8082,31.26525 -1.5389,1.87679 -1.4966,4.64375 0.1334,8.77677 1.3105,3.31987 2.665,9.23545 3.0098,13.14577 0.6178,6.99762 1.0833,6.61622 29.5799,-24.23399 15.9241,-17.23893 34.8813,-38.86271 42.1276,-48.05294 15.4313,-19.57062 16.304,-20.24615 22.1278,-17.12922 3.2365,1.73209 4.4268,4.5739 4.408,10.52385 -0.022,6.64438 -2.4855,11.25388 -13.3335,24.93792 -11.5519,14.57192 -14.6219,17.11777 -23.267,19.29466 -9.7553,2.45638 -9.8785,2.59692 -6.0181,6.86256 3.8311,4.23322 3.6965,4.61328 -4.8283,13.61823 -43.4007,45.84607 -53.7575,59.38104 -51.8496,67.76093 0.4999,2.19468 7.9437,6.51053 18.7255,10.85674 35.2364,14.2038 71.8201,44.81852 71.8201,60.10217 0,7.46117 -3.3444,12.06897 -8.7589,12.06897 -1.9209,0 -7.8947,-4.53198 -13.2747,-10.07103 -5.3803,-5.53893 -13.9785,-12.99182 -19.1077,-16.56182 -5.1286,-3.56999 -9.3251,-8.22947 -9.3251,-10.35442 0,-2.12508 -1.3561,-5.71799 -3.0135,-7.98447 -2.9016,-3.96846 -3.0713,-3.9375 -4.5867,0.83643 -0.865,2.7265 -2.7182,4.47932 -4.1177,3.89521 -1.3995,-0.58399 -7.7515,-3.26527 -14.1157,-5.95812 -6.364,-2.69298 -12.1219,-4.3456 -12.7949,-3.67263 -0.6728,0.67297 0,10.63636 1.5129,22.14085 2.2213,16.97735 2.2044,21.55869 -0.089,24.32358 -3.4364,4.1407 -9.6871,4.42093 -12.877,0.57728 z m 337.459,-2.10789 c -8.6445,-5.85061 -16.6871,-20.80722 -18.5835,-34.55843 -2.6458,-19.18727 5.5247,-51.57808 13.6981,-54.3025 1.48,-0.4933 3.8053,1.54852 5.1672,4.53758 1.947,4.27307 1.6953,7.78541 -1.1773,16.43407 -4.3065,12.96586 -4.1672,47.24845 0.1843,45.57815 1.4054,-0.53925 4.282,0.92785 6.3925,3.26002 7.4628,8.24605 29.9098,2.58644 36.1752,-9.12087 1.2341,-2.30572 4.2893,-4.19226 6.7895,-4.19226 3.4898,0 4.1661,-0.89238 2.9113,-3.83986 -0.8991,-2.11192 -1.4372,-10.8498 -1.1956,-19.4174 0.3945,-13.98927 -0.1536,-16.28256 -5.3775,-22.49056 -6.567,-7.80431 -16.451,-9.26507 -24.5081,-3.62192 -5.7275,4.01173 -10.7823,2.41055 -12.4433,-3.94202 -1.5427,-5.89888 3.6349,-14.09166 11.0361,-17.46406 4.7225,-2.15165 6.0619,-1.9381 8.4662,1.35008 2.6807,3.66617 2.9853,3.67556 4.9573,0.15164 1.5757,-2.81548 3.6287,-3.37107 8.2085,-2.22162 13.534,3.39678 25.1869,24.87795 25.1869,46.42969 0,23.32857 -14.7471,50.82917 -31.5263,58.79157 -10.9294,5.18629 -25.5436,4.6073 -34.3623,-1.3613 z m 136.1029,0.55595 c -4.2239,-2.30267 -9.356,-4.67666 -11.4047,-5.27539 -7.6677,-2.241 -11.638,-14.35751 -11.5753,-35.32453 0.051,-17.09997 0.86,-21.31637 6.0341,-31.44749 3.2862,-6.43484 5.975,-12.11236 5.975,-12.61663 0,-0.50415 -5.4306,-0.91676 -12.0683,-0.91676 -9.2643,0 -12.0679,-0.76463 -12.0679,-3.29134 0,-3.96749 -2.5602,-4.24175 -6.1437,-0.65823 -3.8707,3.87047 -7.5194,-0.74244 -6.6445,-8.39975 l 0.72,-6.30137 24.1361,-0.61507 c 23.0859,-0.58838 24.2316,-0.40359 26.3305,4.24638 3.1394,6.9563 6.4313,7.18911 9.9041,0.70027 2.394,-4.47322 4.4093,-5.50687 9.7232,-4.98724 5.5229,0.54023 6.8273,1.74136 7.4098,6.82246 0.8685,7.57442 -2.2157,11.57884 -10.1396,13.16357 -23.3065,4.6613 -39.1778,48.55075 -23.299,64.4296 5.1276,5.12742 6.7752,5.53612 17.3217,4.2966 9.4463,-1.1102 11.9072,-0.71356 12.984,2.0929 3.7322,9.7257 -2.137,19.39289 -8.5448,14.07471 -2.6956,-2.23722 -3.2913,-2.08729 -3.2913,0.82838 0,4.67801 -5.8459,4.36559 -15.3594,-0.82107 z m 61.4373,0.79267 c -7.6045,-5.39266 -10.5247,-9.16841 -15.755,-20.37157 -10.7327,-22.98922 -0.5038,-78.95825 12.4638,-68.19609 5.2108,4.32464 3.4107,21.94192 -2.242,21.94192 -2.1207,0 -2.5577,3.42799 -1.7475,13.71367 1.4652,18.60828 4.3554,27.08251 11.0268,32.32999 7.3132,5.75261 15.9835,5.59732 27.7155,-0.4961 8.2847,-4.30294 9.9685,-6.4769 13.4459,-17.35936 3.9359,-12.31812 4.1795,-14.8641 3.4002,-35.52748 -0.3512,-9.30274 -0.9261,-10.49314 -4.6048,-9.53129 -2.3118,0.60459 -4.756,0.20454 -5.432,-0.88896 -1.9893,-3.2187 -13.846,-2.27854 -19.7086,1.56266 -6.7888,4.44824 -11.9797,1.03914 -11.9797,-7.86781 0,-8.76178 6.9621,-13.83922 20.3303,-14.82667 14.4163,-1.06486 23.4973,4.10571 30.5805,17.41189 7.1253,13.3859 7.2108,44.14786 0.1646,59.44504 -4.2265,9.17609 -5.3932,10.2496 -9.0258,8.30553 -5.4652,-2.92506 -7.1336,-0.97916 -4.684,5.46348 4.8272,12.69672 -30.2726,24.58955 -43.9491,14.89115 z m 121.2686,-0.79998 c -4.1952,-4.8996 -8.5585,-5.70994 -9.852,-1.82949 -1.653,4.95872 -12.6902,-10.25508 -16.958,-23.37489 -7.0348,-21.62585 -11.455,-66.47874 -7.5532,-76.64606 2.0077,-5.232 9.4695,-4.20262 11.6797,1.61118 2.5626,6.74006 3.7263,51.6801 1.5058,58.15505 -1.4127,4.12009 -0.8669,5.32074 2.8633,6.29625 2.5352,0.66285 5.2031,3.57133 5.9288,6.46324 0.7259,2.89191 3.8104,7.21715 6.8546,9.61173 13.5249,10.63868 26.7254,1.43127 32.7088,-22.81491 3.2464,-13.15528 3.3473,-17.33742 0.8564,-35.48055 -3.0766,-22.40975 -2.3821,-27.31276 3.8697,-27.31276 6.926,0 9.9422,10.40891 10.9236,37.69839 0.9816,27.30045 -1.6523,40.67781 -11.0915,56.32933 -8.4743,14.05156 -24.4937,19.75212 -31.736,11.29349 z m 55.7296,2.92555 c -3.2571,-3.25685 -1.0103,-12.50279 7.6113,-31.3234 8.3031,-18.12497 9.5152,-19.69799 14.2622,-18.50661 4.838,1.21429 5.1883,0.68004 5.1883,-7.91487 0,-5.84366 1.5797,-11.22571 4.3166,-14.7049 l 4.3166,-5.48773 -6.5987,-13.50902 c -10.8848,-22.28261 -13.3276,-26.36601 -20.0655,-33.53818 -12.0175,-12.79229 -4.0198,-27.57605 8.5611,-15.82498 7.4666,6.97397 10.9455,14.20563 12.8075,26.62346 1.3214,8.8098 2.2017,10.25813 5.5841,9.18474 5.1446,-1.63288 6.3908,0.81863 27.2893,53.67853 9.1848,23.2307 16.3962,44.3641 16.0259,46.9631 -0.4173,2.92811 -2.5127,4.98724 -5.5085,5.41338 -3.9536,0.56241 -6,-1.63824 -11.2236,-12.06812 -3.5136,-7.01566 -9.2134,-20.40802 -12.6661,-29.76073 -3.453,-9.35283 -6.9706,-17.00502 -7.8168,-17.00502 -2.3322,0 -16.4366,24.02483 -25.0539,42.67601 -5.3923,11.67099 -8.824,16.56718 -11.6107,16.56718 -2.176,0 -4.6145,-0.65835 -5.4191,-1.46284 z M 871.02865,288.61581 c -2.1629,-4.04147 -1.16775,-7.73361 6.57731,-24.4033 5.01925,-10.80275 10.44145,-25.92927 12.04935,-33.61449 3.3487,-16.00489 4.6209,-18.67032 8.9112,-18.67032 12.3736,0 6.2293,36.59051 -11.6016,69.08968 -6.6896,12.19282 -12.09744,14.77121 -15.93626,7.59843 z m 989.66475,0.15688 c -3.7058,-6.92449 6.5096,-28.74805 12.6991,-27.12943 3.9151,1.0239 4.2457,0.21587 3.4273,-8.38342 -1.258,-13.22659 5.737,-39.96938 10.7026,-40.91673 2.3949,-0.45685 4.7767,1.38105 6.3962,4.93556 2.2444,4.92605 1.912,6.37487 -2.5526,11.12723 -4.2542,4.52844 -4.5042,5.46372 -1.4592,5.46372 4.7534,0 4.63,2.93554 -0.7887,18.7732 -6.27,18.32609 -17.889,39.21802 -22.2685,40.04104 -2.0304,0.38153 -4.8005,-1.37848 -6.1562,-3.91117 z"
       id="path3822"
       inkscape:connector-curvature="0" />
    <flowRoot
       xml:space="preserve"
       id="flowRoot3063-0"
       style="font-style:normal;font-variant:normal;font-weight:normal;font-stretch:normal;font-size:70.52928162px;line-height:125%;font-family:Purisa;-inkscape-font-specification:Purisa;text-align:center;letter-spacing:0px;word-spacing:0px;writing-mode:lr-tb;text-anchor:middle;display:inline;opacity:0.98000004;fill:#562f13;fill-opacity:1;stroke:none"
       inkscape:transform-center-x="73.964104"
       inkscape:transform-center-y="-85.894001"
       transform="matrix(1.0417011,0,0,1.0417011,-11.24698,1531.9351)"><flowRegion
         id="flowRegion3065-6"><rect
           id="rect3067-4"
           width="2130.6746"
           height="115.32771"
           x="135.88023"
           y="-958.71552"
           style="font-style:normal;font-variant:normal;font-weight:normal;font-stretch:normal;font-size:70.52928162px;line-height:125%;font-family:Purisa;-inkscape-font-specification:Purisa;text-align:center;writing-mode:lr-tb;text-anchor:middle;fill:#562f13;fill-opacity:1" /></flowRegion><flowPara
         id="flowPara3069-3"
         style="font-style:normal;font-variant:normal;font-weight:normal;font-stretch:expanded;font-size:86.20245361px;line-height:125%;font-family:Pecita;-inkscape-font-specification:'Pecita Expanded';text-align:center;writing-mode:lr-tb;text-anchor:middle;fill:#562f13;fill-opacity:1">Επεισόδιο 2 : Τα φίλτρα του ουράνιου τόξου</flowPara></flowRoot>  </g>
</svg>
