<?xml version="1.0" encoding="UTF-8" standalone="no"?>
<!-- Created with Inkscape (http://www.inkscape.org/) -->

<svg
   xmlns:dc="http://purl.org/dc/elements/1.1/"
   xmlns:cc="http://creativecommons.org/ns#"
   xmlns:rdf="http://www.w3.org/1999/02/22-rdf-syntax-ns#"
   xmlns:svg="http://www.w3.org/2000/svg"
   xmlns="http://www.w3.org/2000/svg"
   xmlns:xlink="http://www.w3.org/1999/xlink"
   xmlns:sodipodi="http://sodipodi.sourceforge.net/DTD/sodipodi-0.dtd"
   xmlns:inkscape="http://www.inkscape.org/namespaces/inkscape"
   id="svg2"
   version="1.1"
   inkscape:version="0.92.1 renderfarm"
   width="2481"
   height="663"
   sodipodi:docname="Pepper-and-Carrot_by-David-Revoy_E02P00_092.svg">
  <sodipodi:namedview pagecolor="#ffffff" bordercolor="#666666" inkscape:pageopacity="0" inkscape:pageshadow="2" inkscape:window-width="1813" inkscape:window-height="955" id="namedview70" showgrid="false" inkscape:zoom="0.4" inkscape:cx="1284.4231" inkscape:cy="2618.6204" inkscape:current-layer="layer1" /><metadata
     id="metadata8">
    <rdf:RDF>
      <cc:Work
         rdf:about="">
        <dc:format>image/svg+xml</dc:format>
        <dc:type
           rdf:resource="http://purl.org/dc/dcmitype/StillImage" />
        <dc:title />
      </cc:Work>
    </rdf:RDF>
  </metadata>
  <defs
     id="defs6" />
  <sodipodi:namedview
     pagecolor="#ffffff"
     bordercolor="#666666"
     borderopacity="1"
     objecttolerance="10"
     gridtolerance="10"
     guidetolerance="10"
     inkscape:pageopacity="0"
     inkscape:pageshadow="2"
     inkscape:window-width="1920"
     inkscape:window-height="1026"
     id="namedview4"
     showgrid="false"
     inkscape:zoom="0.59209996"
     inkscape:cx="1259.9224"
     inkscape:cy="314.61096"
     inkscape:window-x="0"
     inkscape:window-y="27"
     inkscape:window-maximized="1"
     inkscape:current-layer="layer1" />
  <g
     inkscape:groupmode="layer"
     id="layer2"
     inkscape:label="artwork"
     sodipodi:insensitive="true">
    <image
       sodipodi:absref="/home/deevad/peppercarrot/webcomics/ep02_Rainbow-potions/lang/hu/../gfx_Pepper-and-Carrot_by-David-Revoy_E02P00.png"
       xlink:href="../gfx_Pepper-and-Carrot_by-David-Revoy_E02P00.png"
       width="2481"
       height="663"
       id="image10"
       x="-1.6728083e-06"
       y="0" />
  </g>
  <g
     inkscape:groupmode="layer"
     id="layer1"
     inkscape:label="text">
    <flowRoot
       xml:space="preserve"
       id="flowRoot3063"
       style="font-style:normal;font-variant:normal;font-weight:normal;font-stretch:normal;line-height:0.01%;font-family:Arial;-inkscape-font-specification:Arial;letter-spacing:0px;word-spacing:0px;display:inline;fill:#562f13;fill-opacity:1;stroke:none"
       transform="matrix(0.77923967,0,0,0.77489763,73.615922,209.68823)"><flowRegion
         id="flowRegion3065"><rect
           id="rect3067"
           width="2715.5891"
           height="110.01318"
           x="92.642677"
           y="425.30325"
           style="font-size:72px;fill:#562f13;fill-opacity:1" /></flowRegion><flowPara
         id="flowPara3069"
         style="font-style:normal;font-variant:normal;font-weight:normal;font-stretch:normal;font-size:88px;line-height:1.25;font-family:Lavi;-inkscape-font-specification:Lavi;text-align:center;text-anchor:middle;fill:#562f13;fill-opacity:1">2. rész: Szivárvány főzetek</flowPara></flowRoot>    <path
       style="display:inline;fill:#562f13;fill-opacity:1;stroke:none"
       d="m 718.51405,507.29297 c -1.97177,-1.73125 -4.23691,-4.4083 -5.03364,-5.94898 l -1.44858,-2.80127 0,-4.0942 0,-4.09417 2.45398,-2.45398 2.454,-2.45399 1.79504,-0.0318 c 0.98729,-0.0175 2.66247,-0.68804 3.72266,-1.4901 l 1.92761,-1.45832 0.74878,-5.25838 0.74876,-5.25831 0.073,-22.81065 0.073,-22.81053 -1.03494,-1.93381 -1.03495,-1.9338 -1.7829,0 c -0.98061,0 -4.16795,-0.70832 -7.08298,-1.57391 l -5.30004,-1.57403 -2.37971,-2.37962 -2.3797,-2.37977 0,-1.54509 0,-1.5451 5.74869,-0.0414 5.7487,-0.0414 4.49897,-2.20819 4.49899,-2.20832 0.28565,-34.9921 0.28566,-34.99196 -1.1867,-4.32509 -1.18673,-4.32509 -2.09825,-1.36102 -2.09828,-1.36087 -8.74801,-0.70004 -8.74801,-0.70004 0,-1.19745 0,-1.19746 4.4218,-4.48514 4.42179,-4.48514 12.65367,-5.71953 12.65367,-5.71955 1.92561,0.61126 c 1.05909,0.33611 3.27288,1.74483 4.91956,3.13039 l 2.9939,2.51914 0,1.33946 c 0,0.73661 0.707,2.04628 1.57109,2.91037 l 1.57106,1.57114 10.31436,0 10.31438,0 8.66734,2.51163 c 4.76706,1.38143 10.83717,3.61128 13.48917,4.95513 2.65196,1.34385 8.39538,5.13621 12.76313,8.4274 l 7.94135,5.9839 2.74448,3.9603 2.74446,3.96029 1.43108,4.75514 1.43107,4.75514 0,6.75043 0,6.75044 -1.87112,6.01195 -1.87111,6.01195 -3.69844,6.61342 -3.69842,6.61331 -6.013,6.42797 -6.013,6.42785 -6.66329,4.91054 c -3.66483,2.70086 -8.91282,6.02397 -11.66218,7.38473 -2.74939,1.36076 -10.1727,4.18709 -16.49627,6.28083 -6.32356,2.09372 -12.50964,4.17394 -13.74686,4.62264 l -2.24949,0.816 0,21.56198 0,21.56196 2.41333,2.41332 2.41334,2.41333 2.83545,0.60098 c 1.55953,0.33049 3.59142,1.00785 4.51535,1.50528 l 1.67985,0.90423 4.35947,-0.0876 c 2.39774,-0.0479 6.6563,0.22839 9.46351,0.61448 l 5.10402,0.70196 3.17639,-1.64256 3.17638,-1.64262 2.94399,0.64669 c 1.61919,0.35565 4.9606,0.64656 7.42534,0.64656 2.46473,0 4.48132,0.21044 4.48132,0.46762 0,0.25715 -1.62462,1.14639 -3.61029,1.97604 -3.6428,1.52205 -11.47691,6.43899 -16.74079,10.507 l -2.85506,2.20643 -6.50513,1.80382 -6.50513,1.80383 -4.63663,2.94795 -4.63664,2.94797 -7.49831,2.11826 c -4.12404,1.16506 -9.78732,2.77729 -12.58502,3.58276 l -5.08673,1.4644 -4.12639,0 -4.12637,0 -3.58506,-3.14774 z m 44.15463,-107.27499 8.84964,-4.4467 8.05915,-6.46991 8.05913,-6.46992 4.82777,-5.82949 4.82776,-5.82963 2.85874,-5.99854 2.85872,-5.99868 7.8e-4,-4.29867 7.9e-4,-4.29867 -1.46375,-2.83058 c -0.80507,-1.55687 -2.85951,-4.00501 -4.56545,-5.44053 l -3.10172,-2.60993 -5.68221,-1.70652 -5.68222,-1.7064 -8.49807,-0.0263 -8.49807,-0.0263 -5.52405,1.24856 -5.52407,1.24868 -3.22393,1.96061 -3.22396,1.96061 0,29.95819 0,29.95819 1.74959,1.01912 c 0.96229,0.56042 2.26625,1.03266 2.89769,1.04944 0.63145,0.0162 5.13044,-1.97063 9.99774,-4.41638 z m 73.33499,108.84347 c -1.37469,-0.88879 -3.72769,-3.2075 -5.22892,-5.1527 l -2.7295,-3.53674 -0.61506,-3.27869 -0.6151,-3.27868 1.34504,-2.83442 1.34503,-2.83441 4.41766,-2.11995 4.41768,-2.11996 1.33102,-1.82028 1.33102,-1.82028 0,-27.67876 0,-27.67874 -5.2488,-0.58634 c -2.88685,-0.32259 -7.01146,-0.94223 -9.16581,-1.37716 l -3.91697,-0.79071 -0.31582,-0.9962 c -0.17368,-0.54789 0.0347,-1.54848 0.46298,-2.22361 l 0.77877,-1.22725 7.72844,-1.47873 c 4.25065,-0.81325 8.16692,-1.74972 8.70281,-2.08096 l 0.9744,-0.60211 0,-40.48144 0,-40.48146 -1.45883,-2.82107 -1.45886,-2.8212 -8.28895,-1.1773 c -4.55892,-0.64744 -9.7511,-1.40057 -11.5382,-1.67345 l -3.24926,-0.4963 0,-0.78018 c 0,-0.42917 1.01227,-1.70201 2.24948,-2.82871 2.44812,-2.22948 15.06469,-10.29735 16.10306,-10.29735 0.35222,0 4.64793,-1.80444 9.54602,-4.00988 l 8.9056,-4.01002 2.84128,1.08024 c 1.56266,0.5941 3.62942,1.79356 4.59272,2.66529 l 1.75137,1.58505 0,2.72777 0,2.72766 2.2495,0.60285 c 1.23728,0.33161 6.75753,0.609 12.26739,0.61651 l 10.01779,0.0138 7.17318,1.98779 c 3.94521,1.09326 9.73199,3.1195 12.85935,4.50254 l 5.68643,2.51476 6.61597,4.92295 c 3.63888,2.70761 8.2809,6.64261 10.31587,8.74448 l 3.69974,3.82155 2.21849,4.99882 2.21836,4.99884 0.44741,7.55079 0.44738,7.55066 -2.92637,8.48976 -2.92625,8.48989 -3.84906,5.79869 c -2.11693,3.18937 -6.1042,8.26635 -8.86059,11.28229 l -5.01151,5.48334 -3.18837,-0.5981 -3.18822,-0.59809 -1.04236,1.26895 c -0.57333,0.69804 -1.19804,2.38965 -1.38834,3.75905 l -0.3457,2.49009 -4.91941,3.2143 -4.91955,3.21417 -12.4076,4.5435 -12.40765,4.54336 -2.16849,0.0151 c -1.19261,0.0126 -2.84324,0.44169 -3.66806,0.96277 l -1.49967,0.9475 0,21.45051 0,21.45052 2.38333,2.53793 2.38323,2.53792 5.19179,1.07775 5.19181,1.07785 9.921,-0.0288 c 5.4565,-0.0151 12.53409,-0.0802 15.72814,-0.14301 l 5.80718,-0.11393 0.68301,0.68296 0.68302,0.68298 -1.99128,1.16798 c -1.09512,0.6424 -4.85369,2.41084 -8.35231,3.92987 l -6.36105,2.76193 -2.96357,2.49365 c -1.62986,1.37148 -3.5405,2.49361 -4.24567,2.49361 l -1.28215,0 -4.38986,3.85658 c -2.41432,2.12111 -6.31644,4.83709 -8.67124,6.0355 l -4.28149,2.17894 -9.71529,2.64096 -9.71537,2.64096 -4.99884,0.33987 -4.99892,0.33984 -2.49943,-1.61598 z m 40.77015,-107.85741 7.22141,-3.46075 7.2472,-5.38004 7.24706,-5.37991 6.99834,-7.41891 6.99847,-7.41879 2.80168,-5.77928 2.80169,-5.77939 0.50637,-4.70505 0.50636,-4.70505 -1.80827,-3.47364 -1.80855,-3.47378 -3.99906,-2.78149 -3.99904,-2.7815 -7.49835,-1.58631 -7.49834,-1.58642 -6.49844,0.57983 c -3.57424,0.31896 -9.19792,1.26846 -12.49719,2.11026 l -5.99859,1.53031 -2.29288,2.5884 -2.2929,2.58827 0.29328,28.23551 0.29341,28.23552 1.3721,1.65155 1.37208,1.65142 1.65549,0 c 0.9104,0 4.90493,-1.55738 8.87667,-3.46076 z m 344.64238,77.51568 c -2.7495,-0.98006 -7.2888,-2.9428 -10.0877,-4.36178 l -5.0887,-2.58 -3.1533,-3.59112 c -1.7343,-1.97526 -4.1533,-5.49087 -5.3761,-7.81252 l -2.2226,-4.22128 -0.032,-7.49819 -0.032,-7.49831 3.1563,-6.66228 3.1562,-6.66214 7.7581,-8.12021 7.758,-8.12009 -2.8085,-5.8762 -2.8087,-5.87608 0.5999,-2.99889 0.5998,-2.9989 -1.4309,-1.18757 -1.4309,-1.18756 1.5518,-3.00078 1.5517,-3.00077 -2.2187,-2.36173 -2.2188,-2.36173 0.634,-4.62527 0.634,-4.62527 1.9912,-4.50179 1.9914,-4.50167 4.2518,-5.07836 4.2518,-5.07822 4.389,-2.78351 4.389,-2.78338 5.4145,-1.21173 5.4145,-1.21173 5.2052,1.6444 5.2052,1.6444 5.7075,3.57459 5.7075,3.57459 3.6419,5.99542 3.6422,5.99542 0.5114,3.81402 0.5117,3.81391 -2.2071,6.99313 -2.2071,6.99326 -3.8411,4.89126 c -2.1128,2.69008 -5.4927,7.3657 -7.5114,10.38989 -2.0187,3.02432 -5.0173,6.69446 -6.6637,8.15577 l -2.9933,2.6569 0.8513,1.45206 c 0.4681,0.79871 4.9478,5.80117 9.9545,11.1166 l 9.1035,9.66442 1.194,-1.43865 1.1941,-1.43865 0.2002,-2.83698 0.2001,-2.83697 -3.744,-0.30995 -3.7442,-0.31006 -2.5044,-3.28355 -2.5046,-3.28356 0,-2.08371 0,-2.08372 1.4323,-1.43225 1.4324,-1.43214 8.3154,-2.58527 c 4.5736,-1.42187 10.565,-3.09633 13.3144,-3.72098 l 4.9989,-1.13584 11.9972,-0.39448 c 6.5986,-0.21702 14.3594,-0.66196 17.2462,-0.98882 l 5.2488,-0.59422 -6e-4,1.32168 -5e-4,1.32157 -7.11,6.49859 c -3.9108,3.57421 -8.5219,7.90331 -10.2473,9.6201 l -3.1369,3.12175 -4.8769,0.70793 c -2.6821,0.38935 -5.494,0.94474 -6.2485,1.23428 l -1.3718,0.52646 0,4.85445 0,4.85432 -2.1331,5.70125 -2.1332,5.70113 2.8726,2.08459 c 1.58,1.14648 4.677,3.47315 6.8822,5.17015 l 4.0093,3.08568 -0.1856,1.41335 c -0.1014,0.77732 -0.8078,3.09696 -1.5683,5.15475 l -1.3822,3.74139 -2.3553,2.50712 -2.3554,2.50725 -3.075,0 -3.075,0 -3.2735,-1.99581 c -1.8005,-1.09714 -3.8768,-1.99529 -4.6141,-1.99529 -0.7374,0 -2.4846,-0.89978 -3.8828,-1.99956 -1.3981,-1.09977 -3.1458,-1.98804 -3.8839,-1.97389 -0.738,0.0138 -3.8165,1.6052 -6.8407,3.53601 l -5.4988,3.51048 -9.458,2.96246 -9.4583,2.96245 -5.0385,-0.0731 -5.0385,-0.0731 -4.9989,-1.78172 z m 24.2593,-24.19444 4.3953,-2.12781 0.4895,-1.27572 0.4896,-1.2756 -10.3179,-10.08745 -10.3179,-10.08746 -1.2071,0 -1.2071,0 -2.792,3.68016 c -1.5355,2.02409 -4.2541,5.03126 -6.0412,6.68255 l -3.2493,3.00229 0,1.35211 0,1.35199 4.249,4.33536 c 2.337,2.3844 5.1489,4.82877 6.2486,5.43189 l 1.9996,1.09676 6.4329,0.0301 6.4326,0.0301 4.3954,-2.1278 z m -5.3483,-61.44533 7.7188,-6.58601 1.9278,-3.16182 1.928,-3.16183 0,-3.17247 0,-3.17259 -2.4791,-2.9463 -2.4792,-2.94644 -3.0029,-1.24378 -3.003,-1.2438 -3.4556,0.6482 -3.4556,0.64831 -2.7112,3.21518 c -1.4911,1.76851 -3.3178,4.66309 -4.0592,6.43248 l -1.3488,3.21717 0,3.87226 0,3.87238 1.4158,4.7043 c 1.4062,4.67248 3.1639,7.61077 4.5527,7.61077 0.3986,0 4.1983,-2.96371 8.4437,-6.58601 z m 177.3253,58.57829 c -3.1447,-0.40324 -8.9061,-1.75849 -12.8027,-3.01142 l -7.0851,-2.2782 -5.9368,-3.60589 c -3.2649,-1.98315 -8.2372,-5.40534 -11.0492,-7.60489 l -5.1126,-3.99912 -5.7809,-6.80302 -5.7809,-6.80304 -3.0246,-5.69412 c -1.6634,-3.13177 -3.944,-8.6185 -5.0679,-12.19258 -1.124,-3.57421 -2.9983,-11.66274 -4.1651,-17.97449 l -2.1219,-11.47589 0.4445,-4.52046 c 0.6419,-6.53065 3.4675,-21.03463 6.2519,-32.09237 2.7724,-11.00891 8.7019,-28.47784 11.6694,-34.37859 4.4206,-8.79069 15.5426,-26.44471 22.3692,-35.50703 3.9603,-5.25732 10.286,-12.7143 14.057,-16.57116 3.7709,-3.85673 10.004,-9.39205 13.8512,-12.30054 l 6.995,-5.28823 8.2901,-4.10794 8.2899,-4.10796 10.7092,-0.0676 10.709,-0.0676 9.4978,3.83256 c 5.2239,2.10801 10.3976,3.90758 11.4976,3.99912 l 1.9995,0.16656 0.4998,-5.54397 0.5,-5.54409 1.8548,-2.82934 1.8546,-2.82946 5.5007,0.64644 5.5004,0.64656 5.4034,2.55622 5.4036,2.55621 3.4874,3.28918 3.4875,3.28919 0,5.00584 c 0,2.7532 -0.2812,6.41244 -0.6249,8.13161 l -0.6252,3.12588 -3.9435,4.48013 -3.9437,4.48001 0.6287,1.01712 0.6285,1.01713 1.8299,0 1.8297,0 2.3093,1.86982 2.3091,1.86994 -1.1873,13.87656 c -1.3665,15.97105 -2.3918,23.60085 -4.528,33.6887 -0.8363,3.94989 -1.9563,9.43111 -2.4889,12.18055 -0.5327,2.74932 -1.7091,8.30618 -2.6142,12.34838 l -1.6456,7.34954 -2.4818,4.89765 -2.4818,4.89777 -0.8662,0 -0.8665,0 -0.6028,-2.24951 c -0.3315,-1.23729 -0.6089,-4.62591 -0.6164,-7.53038 l -0.014,-5.28098 -1.3509,-3.23321 -1.3509,-3.23333 -0.7372,-12.94096 -0.7372,-12.94097 -4.2839,-12.53709 -4.284,-12.5371 -4.3054,-8.3951 -4.3052,-8.39509 -3.5921,-3.77608 -3.5922,-3.77608 -2.77,-0.69528 -2.77,-0.69515 -4.3788,1.67233 c -2.4083,0.91969 -7.2252,3.55078 -10.7041,5.84677 l -6.3254,4.17456 -9.3179,9.44503 -9.3181,9.44489 -7.3651,11.07153 -7.3655,11.07152 -6.9885,14.4967 c -7.5049,15.56831 -12.5319,28.43891 -16.6269,42.56906 l -2.5671,8.85932 -0.6192,7.52825 -0.619,7.52824 -2.3404,2.81581 -2.3401,2.81581 1.471,2.84487 c 0.8095,1.56476 2.7532,3.89681 4.3197,5.18242 l 2.8484,2.33743 2.678,4.69026 2.678,4.69027 4.7412,4.85495 4.7411,4.85494 4.8441,2.33743 4.844,2.3373 11.1524,-0.52383 11.1523,-0.52397 9.6814,-3.13627 c 5.325,-1.72493 12.2684,-4.28026 15.4302,-5.67859 l 5.7486,-2.54231 1.7763,0.4646 1.7765,0.46449 2.8713,-2.74393 2.8714,-2.74393 7.0498,-2.69397 7.0502,-2.69396 1.8632,-2.05879 c 1.0247,-1.13234 3.0381,-2.66641 4.474,-3.4089 l 2.6109,-1.35025 1.186,-2.79652 1.1862,-2.79653 5.6587,-3.43746 c 3.1123,-1.8906 7.3489,-4.96439 9.4148,-6.83083 l 3.7561,-3.39338 3.9679,-6.28282 3.9679,-6.28283 1.4954,-0.5738 1.4953,-0.57369 1.2233,1.47423 1.2237,1.47434 -1.1149,2.21544 c -0.6132,1.2185 -2.22,6.79866 -3.5706,12.40036 l -2.4557,10.18501 -4.8253,8.81073 -4.8254,8.8106 -6.6823,6.68708 -6.6821,6.68719 -2.8686,1.48323 -2.8683,1.48323 -1.9273,-0.17219 -1.9276,-0.17207 -2.7813,5.49863 -2.7813,5.49876 -10.7379,6.6902 -10.7376,6.69021 -8.9979,2.98812 -8.9981,2.98801 -7.8205,1.06935 c -8.5646,1.17102 -13.2148,1.18667 -21.8917,0.0738 z m -942.92953,-17.39041 -3.86186,-1.4513 -2.97817,-2.82846 -2.97817,-2.82846 -1.96318,-3.81741 -1.96317,-3.81754 -0.56129,-4.73922 -0.56131,-4.73923 2.38479,-2.77236 2.38476,-2.77248 6.26475,-0.73874 6.26476,-0.73861 1.70185,-1.70189 1.70184,-1.70188 0.51279,-9.21886 0.51279,-9.21886 2.99931,-0.51082 2.99933,-0.51081 0.31029,-2.68206 0.31033,-2.68207 -2.80974,-1.78905 c -1.54536,-0.98406 -3.14028,-2.24939 -3.54426,-2.81205 l -0.73452,-1.0229 -0.0154,-28.77475 -0.0153,-28.77489 1.24971,-0.38496 c 0.68733,-0.21177 2.4373,-0.64368 3.88882,-0.95977 l 2.63909,-0.5748 0.63493,-1.65455 0.63496,-1.65468 -1.27451,-1.70639 c -0.70096,-0.93848 -2.78895,-3.68441 -4.63994,-6.10224 l -3.36546,-4.39585 0.8082,-15.99634 c 0.44451,-8.79808 0.83422,-20.34749 0.86601,-25.66554 l 0.0577,-9.66906 -2.41415,-2.56785 -2.41416,-2.56799 -5.58405,-2.08209 -5.58399,-2.08208 -2.1687,-2.0256 -2.16869,-2.02548 -2.12908,-4.94925 -2.12912,-4.94924 -0.16377,-5.90914 -0.16381,-5.90926 2.34155,-2.49247 2.34153,-2.49246 8.61857,-3.15031 8.61856,-3.15042 15.49648,-2.89146 15.49648,-2.89145 17.99591,0.0213 17.99591,0.0213 9.6138,0.9356 9.61376,0.93561 8.21563,2.99827 c 4.51858,1.64903 10.99731,4.55401 14.39715,6.45526 3.39985,1.90126 8.21886,5.25018 10.70892,7.44209 l 4.52734,3.98509 6.34239,8.84367 6.34236,8.84366 4.79135,9.99768 4.79135,9.99778 1.67923,6.49848 1.67923,6.49847 0.0896,7.49831 0.0897,7.49832 -1.29499,5.49876 -1.29497,5.49875 -3.90855,7.99824 -3.90855,7.99811 -5.74439,6.67454 c -3.15941,3.67101 -7.99388,8.6721 -10.74326,11.11335 -2.74937,2.44137 -8.52266,6.96634 -12.82951,10.0554 l -7.83065,5.6166 -12.16482,5.88571 c -15.33616,7.42005 -33.23224,14.58487 -41.6581,16.67798 -3.57419,0.88789 -8.1654,2.04214 -10.20269,2.56497 l -3.70416,0.95076 -1.54463,1.54471 -1.54466,1.54461 0,12.97114 0,12.97102 2.29323,2.29322 2.29324,2.29323 4.07544,0.6517 4.07545,0.6517 1.25202,1.50866 1.25205,1.50866 5.12638,0.015 5.12641,0.015 4.31543,1.50301 4.31544,1.50302 0.92605,-0.57231 c 0.87204,-0.53886 21.91779,-1.65805 28.43444,-1.51191 1.64961,0.0363 4.57396,0.0739 6.49852,0.0815 1.92456,0.0126 4.11225,0.23393 4.86152,0.50255 l 1.36233,0.48828 -1.23479,1.48773 -1.2348,1.48787 -1.56147,0 c -0.85883,0 -3.6156,0.95577 -6.12617,2.12405 -2.51057,1.16814 -7.26407,3.37859 -10.56334,4.91191 -3.29924,1.53345 -8.69801,3.54993 -11.99725,4.48126 -3.29926,0.93134 -7.47609,2.32003 -9.28184,3.08618 l -3.28319,1.39295 -3.74273,0 -3.74272,0 -2.18649,1.53157 c -3.26876,2.28947 -9.66028,4.3589 -20.25343,6.55733 l -9.49784,1.97126 -11.99726,0.49942 -11.99728,0.49942 -3.86186,-1.4513 z m 74.71053,-111.27412 8.86277,-3.50221 4.32669,0.64882 4.32672,0.64882 1.60281,-2.44625 1.60281,-2.44613 -0.60213,-2.39917 -0.60214,-2.39905 1.97299,-1.78553 1.97304,-1.78555 2.14662,1.14887 2.1466,1.14874 1.52193,-1.26308 1.52196,-1.26307 -0.55627,-2.78126 -0.55626,-2.78124 4.99405,-5.70701 c 6.23875,-7.12939 11.27002,-14.6654 14.75067,-22.09396 l 2.68925,-5.73969 6.5e-4,-8.99796 6.5e-4,-8.99796 -2.65981,-5.67382 -2.6598,-5.67383 -4.09118,-4.43842 -4.0912,-4.43843 -5.8295,-2.6162 -5.82951,-2.61606 -7.67188,-1.14111 -7.67186,-1.14098 -9.74081,1.18206 c -5.35744,0.65007 -10.49127,1.3987 -11.40852,1.66356 l -1.66769,0.48151 -3.46317,-3.04059 -3.46315,-3.04073 -2.08232,0 -2.08233,0 -1.03496,1.93381 c -0.56922,1.06359 -1.03495,3.0128 -1.03495,4.33148 l 0,2.39767 -3.67075,2.41695 c -2.01894,1.32932 -4.55231,3.61554 -5.62976,5.08036 l -1.959,2.66341 -0.82275,15.83242 -0.82279,15.83241 -0.046,28.55235 -0.046,28.55248 1.24972,1.57565 c 0.68735,0.86673 1.92457,1.77828 2.74939,2.02586 l 1.49964,0.44995 11.49739,-2.42772 11.49739,-2.42785 8.86276,-3.50232 z m 94.11388,108.96736 c -1.64964,-0.21889 -5.39571,-1.07385 -8.32459,-1.89999 l -5.32528,-1.50202 -4.21589,-4.21589 -4.21589,-4.21589 -4.39153,-11.4804 -4.39151,-11.4804 -0.41726,-13.45767 -0.41725,-13.4578 1.18743,-7.36081 1.18744,-7.36093 2.40763,-7.07867 c 1.32421,-3.89329 4.02154,-10.01482 5.99405,-13.60343 4.29529,-7.81427 11.13567,-16.9049 17.64979,-23.45584 l 4.76661,-4.79358 8.28647,-3.97621 8.28649,-3.97606 5.09743,-0.60375 5.09742,-0.60373 5.18667,2.82295 5.18665,2.82295 5.30883,5.10089 5.30883,5.10104 2.49318,4.94873 2.49319,4.94875 1.12414,5.298 1.12412,5.29801 -0.005,12.6979 -0.005,12.69789 -1.04381,3.75867 -1.04379,3.75856 -2.19989,1.42751 -2.19989,1.42737 -6.99841,1.14436 c -7.01672,1.14724 -41.48573,9.70826 -48.98887,12.16729 l -3.99911,1.31054 -1.7426,3.56218 -1.74263,3.56219 1.69521,4.43605 c 0.93237,2.43975 2.74477,6.13944 4.02753,8.2214 l 2.3323,3.78535 3.21384,2.02685 3.21387,2.02699 6.0883,-0.43556 6.0883,-0.43542 6.40886,-2.82646 c 3.52486,-1.55461 11.8051,-6.05491 18.40049,-10.00068 l 11.99164,-7.17408 1.36215,0.52271 1.36218,0.52271 -0.53454,3.29382 c -0.29397,1.81172 -1.44151,5.34422 -2.55001,7.85021 l -2.01549,4.5564 -2.48424,0 -2.48424,0 -1.63809,1.63814 -1.63806,1.63802 0.15972,4.11058 c 0.0879,2.2609 0.11796,4.59846 0.0669,5.19456 l -0.0926,1.084 -8.77634,4.17068 -8.77634,4.17081 -6.97008,1.47634 c -6.90317,1.46233 -9.15551,1.5848 -14.96826,0.81387 z m 9.55628,-73.77353 16.43781,-3.69681 4.16354,-1.81271 4.16353,-1.81284 1.08527,-2.02786 1.08528,-2.02786 0,-10.54318 0,-10.54304 -1.61187,-4.02856 -1.61186,-4.02841 -2.36111,-0.59259 -2.36111,-0.59259 -4.5131,2.18477 -4.51308,2.18477 -7.47005,6.97623 c -4.10855,3.83682 -9.00415,9.08561 -10.87911,11.66386 -1.87498,2.57837 -5.31563,8.36429 -7.64592,12.85769 l -4.23688,8.1698 0.70839,1.14624 0.70839,1.14624 1.20705,-0.46323 c 0.66389,-0.25473 8.60405,-2.12679 17.64483,-4.15992 z m 316.752,72.09082 c -1.98941,-0.71082 -5.25515,-2.30487 -7.25726,-3.54228 l -3.64035,-2.24989 -2.50157,-4.26862 c -1.3759,-2.34783 -4.1838,-8.9446 -6.23973,-14.65963 l -3.73814,-10.39102 0.0933,-15.99634 0.0933,-15.99635 2.16627,-7.99824 2.16615,-7.99811 4.05356,-8.49815 4.05368,-8.49804 5.41526,-7.08554 c 2.97831,-3.89705 7.90602,-9.44115 10.95026,-12.32032 l 5.53494,-5.23477 7.52992,-3.47904 7.53,-3.47891 4.86665,-0.57643 4.8668,-0.57644 4.3321,2.11527 4.3323,2.11527 6.2069,5.55523 6.2071,5.55537 3.2908,6.67917 3.2908,6.67918 0.324,17.52241 0.3239,17.52253 -1.0291,2.69709 -1.0292,2.6971 -2.2941,1.48836 -2.2941,1.4885 -9.0286,1.55587 c -4.9658,0.8557 -17.5628,3.82804 -27.99374,6.60529 l -18.96511,5.0493 -4.49899,2.20631 -4.49906,2.20631 0.16813,6.16913 0.16797,6.16923 2.04023,4.61213 2.04011,4.61212 3.50838,1.46583 3.50846,1.46594 7.28041,-0.0175 7.28059,-0.0175 8.43178,-3.41931 8.43174,-3.41929 1.8991,1.01636 1.8991,1.01638 1.8265,-1.65292 c 1.0045,-0.90918 2.0757,-2.6321 2.3805,-3.8288 l 0.5543,-2.17602 6.2896,-4.24895 6.2899,-4.24907 1.8397,0 1.8396,0 2.8598,-2.03625 c 1.5728,-1.12007 4.9415,-2.9572 7.4857,-4.08264 l 4.6261,-2.04641 0.5227,0.52271 0.5226,0.52272 -1.6757,4.38795 -1.6757,4.38784 -3.8983,5.15062 c -2.1441,2.83271 -4.7962,6.9106 -5.8938,9.06181 l -1.9954,3.91134 -5.0591,4.42553 -5.0589,4.42553 -9.2226,4.64167 -9.2224,4.64155 -4.75793,1.24817 -4.75776,1.24831 -1.54747,-2.20933 -1.54736,-2.20932 -2.69271,0 -2.69276,0 -3.99912,2.46305 c -2.19955,1.35473 -4.67398,2.4574 -5.49875,2.45038 -0.82477,-0.0126 -3.12726,-0.59422 -5.11656,-1.30515 z m 16.11394,-71.66365 c 7.42347,-1.64441 16.3135,-3.91622 19.756,-5.04869 l 6.2588,-2.05903 1.1039,-2.06256 1.1037,-2.06255 0.1357,-11.59936 0.1355,-11.5995 -2.0805,-3.49919 -2.0805,-3.4992 -3.501,0.099 -3.5012,0.099 -6.146,4.17381 -6.14632,4.17382 -2.37525,-0.59623 -2.37543,-0.59609 -1.64415,1.64428 -1.6444,1.64427 0.61249,2.44 0.61239,2.44012 -3.96418,5.2359 c -2.1804,2.87968 -5.82986,8.66546 -8.10982,12.85719 l -4.14552,7.62154 0,2.243 0,2.24301 2.2494,-0.65157 c 1.23728,-0.35841 8.32308,-1.99694 15.74639,-3.64134 z m 621.129,72.34101 -2.2295,-0.43066 -2.0196,-2.56736 -2.0195,-2.56736 0,-1.74232 0,-1.74221 -1.4118,-1.17179 -1.412,-1.1719 -6.0589,2.55019 c -3.3322,1.40258 -9.558,3.70533 -13.8344,5.1173 l -7.7759,2.56711 -9.0779,0.56792 -9.0783,0.56779 -5.3048,-1.76199 -5.3047,-1.762 -3.8572,-3.4848 -3.8575,-3.48479 -1.5053,-5.06921 -1.5055,-5.06909 0,-4.77192 0,-4.77204 2.4224,-6.67316 2.4222,-6.67317 3.7419,-5.43302 3.7419,-5.43301 5.5832,-4.0308 5.5834,-4.0308 11.9971,-5.84464 11.9972,-5.84464 8.8072,-2.19604 8.8073,-2.19593 2.0995,-1.70013 2.0995,-1.7 -1.1039,-9.71653 -1.1036,-9.71653 -1.8047,-3.6923 -1.8049,-3.69243 -7.9981,-0.28139 -7.9983,-0.28152 -7.9981,3.88792 -7.9983,3.88791 -7.4983,5.56338 c -4.124,3.05988 -8.0727,6.16096 -8.7748,6.89119 -0.7024,0.73035 -2.358,2.67743 -3.6797,4.3271 l -2.4029,2.99939 -1.2024,-1.18292 -1.2024,-1.18281 2.6979,-6.81531 c 1.4838,-3.74853 4.1307,-9.22411 5.8817,-12.16816 l 3.184,-5.35286 5.8725,-4.92533 c 3.2299,-2.70886 7.7438,-6.02172 10.0304,-7.36194 2.2869,-1.34021 6.1679,-3.15193 8.6243,-4.02603 l 4.4661,-1.58944 7.1951,-0.0401 7.1951,-0.0401 5.3477,2.44826 5.3477,2.44826 3.6631,3.2163 3.6633,3.21631 2.425,5.18067 2.4254,5.18066 1.1367,5.4027 1.1368,5.4027 0.9626,14.09284 c 0.5293,7.75116 0.9691,18.02947 0.9773,22.84096 l 0.015,8.74799 0.9408,0 c 0.5174,0 1.2186,-0.44995 1.5586,-0.99985 l 0.6178,-0.99971 2.0656,0 2.0655,0 -0.6487,3.24924 c -0.3569,1.78716 -1.9877,6.11164 -3.6244,9.61008 l -2.9752,6.36084 0,1.88735 0,1.88723 1.055,0 c 0.58,0 3.617,-1.31392 6.7486,-2.91988 8.3913,-4.3038 14.6651,-7.07779 16.0067,-7.07779 l 1.184,0 0,0.92909 c 0,0.51094 -1.8308,3.68516 -4.068,7.05361 l -4.0682,6.12467 -0.7704,4.87448 -0.7707,4.8746 -1.6199,2.47218 -1.6199,2.47219 -5.2888,3.00214 -5.2887,3.00216 -5.4303,1.59307 c -2.9865,0.87623 -5.686,1.53194 -5.9987,1.45706 -0.3127,-0.0751 -1.5716,-0.32999 -2.7978,-0.56693 z m -35.7556,-22.76155 7.6806,-1.46959 5.6544,-2.57886 c 3.1099,-1.41837 7.3436,-3.7439 9.408,-5.1679 l 3.7535,-2.58914 1.995,-3.22833 1.9952,-3.22832 0,-4.17645 0,-4.17644 -2.4538,-2.45402 -2.4541,-2.45403 -1.923,0 -1.9231,0 -1.5026,-2.24939 -1.5028,-2.24952 -1.9129,1.71867 -1.9133,1.71866 -6.767,2.09023 -6.7671,2.0901 -3.6859,3.25801 c -2.0273,1.79191 -5.8064,4.75375 -8.398,6.58187 l -4.7121,3.32374 -2.4363,3.60615 c -1.3399,1.9834 -2.7435,4.64055 -3.1191,5.90463 l -0.6829,2.29848 1.6057,2.45039 1.6057,2.45051 5.3878,0 5.3877,0 7.6804,-1.46945 z m -506.7222,18.06804 -3.6682,-3.66839 -2.4994,-4.93221 -2.4995,-4.93221 0,-2.47368 0,-2.47368 1.2449,-0.7693 1.2447,-0.76929 8.5031,-0.0388 8.503,-0.0401 0.602,-19.99546 0.6018,-19.99547 1.2274,-5.23439 1.2274,-5.23426 -0.3296,-12.93408 -0.3297,-12.93408 -2.2142,-2.35383 -2.2142,-2.35384 0.578,-2.21045 0.578,-2.21044 -1.6806,-0.64494 -1.6805,-0.64481 -2.1819,1.14823 -2.182,1.14824 -4.999,-1.91177 -4.9988,-1.9119 -0.3405,-1.69224 -0.3404,-1.69211 2.2195,-2.36261 2.2194,-2.36247 8.6187,-3.16671 8.6185,-3.16659 5.5615,-0.11771 5.5613,-0.11772 2.7701,1.81509 2.7703,1.81522 1.4162,3.38924 1.4162,3.38938 0,5.03101 0,5.0309 1.2496,-5.1e-4 1.2498,-4.9e-4 5.7176,-6.39378 5.7176,-6.39378 4.3458,-2.10375 4.3458,-2.10375 4.6016,0 c 2.5307,0 5.3474,0.28628 6.2593,0.63617 l 1.6581,0.6363 0.8982,2.36309 0.8987,2.36311 2.837,0 2.837,0 2.5626,2.74932 2.5628,2.74931 4.1229,8.53322 4.1228,8.53323 -0.058,1.96436 c -0.031,1.08049 -0.8599,5.04129 -1.8403,8.80171 l -1.7823,6.83736 -4.4086,1.96962 -4.4084,1.96963 -2.6562,2.53843 -2.6564,2.5383 -5.9683,-2.67831 -5.9681,-2.67844 -1.0856,-2.38264 -1.0855,-2.38263 0.8283,-0.51195 0.8285,-0.51206 1.7883,1.97601 1.7881,1.97589 2.6535,0 2.6531,0 1.6375,-1.24968 1.6374,-1.24968 1.5384,-4.49903 c 0.8463,-2.47444 1.545,-5.30679 1.553,-6.29398 l 0.015,-1.79505 -2.4994,-2.49948 c -1.3747,-1.37466 -2.4994,-2.85038 -2.4994,-3.27942 0,-0.42904 -1.0413,-1.75836 -2.3139,-2.95394 l -2.314,-2.17388 -5.4618,0 -5.4618,0 -2.2439,1.57177 -2.2442,1.57177 -2.838,5.67658 c -1.5611,3.12213 -3.5637,7.9261 -4.4503,10.67542 -0.8865,2.74944 -2.7616,11.73763 -4.1668,19.97392 l -2.5551,14.97497 -0.1002,7.7484 -0.1003,7.74828 1.7132,2.61444 1.713,2.61443 4.2967,1.90063 4.2965,1.90063 0.5439,2.0797 0.5439,2.07984 2.0506,-1.0974 2.0506,-1.09752 1.9608,1.22462 1.9608,1.22464 2.4843,-1.32945 2.484,-1.32945 2.8265,0.70542 c 1.5543,0.3881 3.5012,1.28487 4.3261,1.99305 0.8247,0.70805 2.746,1.58367 4.2695,1.94583 l 2.7699,0.65834 2.0863,-1.11655 2.0865,-1.11669 0.9565,0.95677 0.9566,0.95676 -1.7128,1.7129 -1.7129,1.71304 -2.0268,-0.52998 -2.0267,-0.52997 -2.5732,1.3848 c -3.91,2.10424 -12.0788,4.5187 -15.2882,4.5187 l -2.861,0 -4.2094,2.17875 -4.209,2.17877 -10.9978,0.74036 c -6.0484,0.40726 -15.3078,1.06246 -20.576,1.45619 l -9.5788,0.71569 -3.6684,-3.66825 z m 580.1028,0.75664 c -1.4281,-1.57215 -3.34,-3.97094 -4.2492,-5.33045 l -1.653,-2.47193 0,-2.77686 0,-2.77687 1.9601,-1.96023 1.9602,-1.96011 5.5369,-1.60959 5.5367,-1.6096 0.5699,-2.27093 0.5701,-2.27093 -0.3187,-35.89976 -0.3187,-35.8999 -2.0537,-3.49581 -2.0534,-3.49581 -3.4453,-2.32165 -3.4452,-2.32166 0,-1.18092 0,-1.18093 9.4979,-3.22382 c 5.2238,-1.77314 10.3977,-3.23532 11.4975,-3.24923 l 1.9996,-0.025 2.5907,3.24923 2.5904,3.24925 1.2795,3.99911 c 0.7035,2.19943 1.6598,4.41151 2.1251,4.91568 l 0.8461,0.91669 7.2812,-7.56318 7.2814,-7.56306 4.2493,-1.14036 4.249,-1.14021 3.771,1.01537 3.7709,1.01549 4.2423,3.11963 4.2421,3.11974 2.3864,4.15152 c 1.3126,2.28333 2.6826,5.5739 3.0442,7.31235 l 0.6582,3.16095 -1.1273,6.33693 c -0.6199,3.48529 -2.2622,10.09284 -3.6497,14.68342 l -2.5225,8.3465 -5.9132,6.06191 -5.9133,6.0618 -0.6142,-0.61413 -0.6139,-0.61413 1.7103,-6.97986 1.7105,-6.97974 -0.5688,-10.24099 -0.5688,-10.24099 -1.0092,-1.00924 -1.0092,-1.0091 -5.5516,1.74997 -5.5518,1.7501 -3.0788,4.18534 c -1.6934,2.30199 -3.7002,5.63375 -4.4598,7.40388 l -1.3809,3.21844 -2.4989,16.46408 -2.4988,16.4642 0,6.11127 0,6.11113 1.4626,2.82858 c 0.8046,1.55561 2.0419,3.04473 2.7494,3.3091 0.7078,0.26436 6.6853,0.15916 13.2839,-0.23393 l 11.9973,-0.71444 0.9037,0.80873 0.9036,0.80888 -2.7409,3.59361 c -1.5076,1.97651 -4.1988,4.54914 -5.9804,5.71704 l -3.2393,2.1234 -2.1612,3.2972 -2.1616,3.2972 -2.6145,1.71329 -2.6149,1.71315 -9.6428,0.72359 c -5.3036,0.39785 -13.917,1.03916 -19.1407,1.425 l -9.4978,0.70153 -2.596,-2.85851 z m 85.3971,1.01074 c -1.1987,-1.02828 -3.3359,-3.61955 -4.7488,-5.75836 l -2.5694,-3.88866 0,-1.93695 0,-1.93695 2.801,-2.80103 2.8009,-2.80104 4.14,-0.6994 4.1398,-0.69942 0.965,-1.17153 0.9652,-1.17153 0.213,-34.9921 0.2131,-34.99209 -0.9984,-4.78494 -0.9982,-4.78494 -1.7604,-1.94533 -1.7605,-1.94521 -5.1104,-1.90376 -5.1101,-1.90363 -0.2728,-1.36388 -0.2727,-1.36377 12.6762,-2.26204 12.6763,-2.26205 2.5929,1.64917 c 1.4262,0.90705 3.5893,2.8247 4.8068,4.2616 l 2.2137,2.61244 0.647,3.24923 0.647,3.24937 1.1384,-0.0126 1.1383,-0.0126 4.698,-5.89198 4.6981,-5.89198 5.4962,-2.68907 5.4962,-2.68909 3.3027,0.71144 c 1.8164,0.39134 4.6525,1.38355 6.3019,2.20494 3.8493,1.91652 8.3115,6.0648 10.0018,9.2985 l 1.3251,2.5348 -1.427,12.96175 -1.427,12.96175 -2.9609,4.49892 c -1.6285,2.47443 -3.7306,5.96111 -4.6717,7.74827 l -1.7101,3.24924 -1.6189,0 -1.6185,0 -0.097,-8.24808 -0.098,-8.24819 -1.7001,-4.22979 -1.6998,-4.22992 -3.2663,-2.01872 -3.2667,-2.01872 -2.5081,0 -2.5083,0 -1.9998,4.74887 c -1.0997,2.61195 -2.7038,6.99853 -3.5645,9.74784 -1.6975,5.42211 -5.1805,26.67063 -6.2487,38.12085 l -0.6651,7.12776 1.1682,3.53977 c 0.6426,1.94684 1.7076,3.98046 2.3668,4.51908 l 1.1986,0.9793 5.4987,-0.98393 c 3.0244,-0.54112 8.1983,-1.10529 11.4975,-1.25356 3.2991,-0.1484 6.7403,-0.59084 7.6471,-0.98344 l 1.6485,-0.71356 0.7075,1.1451 0.708,1.14524 -6.5722,6.31864 -6.5723,6.31851 -1.562,3.90344 -1.5619,3.90358 -3.2,1.89036 -3.2002,1.89034 -9.5178,0.70631 c -5.2347,0.38846 -13.5667,1.03078 -18.5156,1.42726 l -8.998,0.72107 -2.1796,-1.86969 z m 113.6543,0.0851 -5.4987,-1.51003 -5.3128,-3.63721 -5.3126,-3.6372 -3.9198,-4.58318 -3.9194,-4.5832 -2.9132,-5.99855 -2.9133,-5.99867 -1.1015,-5.29802 -1.1015,-5.29801 0.02,-9.19869 0.02,-9.1987 0.9723,-6.72189 0.9721,-6.72175 2.1468,-6.27519 c 2.8259,-8.25959 7.4091,-17.36474 11.0961,-22.04336 l 2.9714,-3.77082 6.2705,-4.47462 c 3.4489,-2.46091 8.7291,-5.60007 11.734,-6.97573 l 5.4634,-2.50123 7.4105,-0.60398 7.4105,-0.60411 6.9761,1.64126 6.9761,1.64127 4.177,2.44777 4.1767,2.44776 3.0912,3.90293 3.0909,3.9027 3.4705,7.35793 c 1.9087,4.04683 4.1867,10.05728 5.0624,13.35648 l 1.5919,5.99868 0.5588,9.49786 0.5588,9.49776 -1.6175,8.49815 c -0.8896,4.67386 -2.079,10.14695 -2.6428,12.16228 l -1.0249,3.66438 -3.4758,2.05065 -3.4756,2.05065 0,1.54698 c 0,0.85081 0.555,2.43548 1.2332,3.52161 l 1.2332,1.97464 -1.983,3.69643 c -1.0906,2.03313 -4.0798,5.9938 -6.6426,8.80172 l -4.6596,5.1054 -5.3382,2.94706 -5.338,2.94705 -12.4973,0.24233 -12.4972,0.24244 -5.4986,-1.51003 z m 23.951,-20.70013 5.5139,-1.24981 3.8256,-3.81127 3.8255,-3.8114 1.9432,-4.53347 1.9434,-4.53361 1.1017,-7.1012 1.1019,-7.10133 -0.665,-14.04714 c -0.3656,-7.72585 -0.6463,-16.13709 -0.6235,-18.69142 l 0.04,-4.64444 -2.7007,-1.76939 c -1.4852,-0.97316 -5.0947,-3.7196 -8.0211,-6.10324 l -5.3205,-4.33373 -3.2791,0 -3.2788,0 -5.133,1.52431 -5.133,1.5243 -3.2201,2.70974 -3.2206,2.70988 -3.8026,5.88321 -3.8025,5.88321 -0.61,3.62956 c -0.3355,1.99618 -0.8198,4.39685 -1.0759,5.3347 -0.2562,0.93786 -2.2415,3.85398 -4.4117,6.4802 l -3.9457,4.77504 0,1.54572 0,1.54573 1.8451,1.57991 1.8452,1.5799 0.6868,5.84377 0.6869,5.84377 4.3219,9.12393 4.3222,9.12381 2.9302,2.0866 c 3.4585,2.46253 8.5015,4.03831 13.3256,4.16366 1.9083,0.0501 5.9511,-0.47224 8.9836,-1.1595 z m 89.2432,19.66772 -5.1717,-2.57711 -2.5707,-3.05513 c -1.4139,-1.68022 -3.4081,-4.69641 -4.4314,-6.70248 l -1.8609,-3.64733 -1.0909,-5.90064 -1.0906,-5.90049 -0.07,-26.5603 -0.07,-26.56031 -0.7819,-1.99956 -0.7818,-1.99956 -7.2152,0 -7.215,0 -3.9302,-4.21038 -3.93,-4.21025 0,-2.5517 0,-2.55171 -1.1576,-1.85354 -1.1573,-1.85367 0.5448,-1.42024 0.5449,-1.42024 5.8983,-3.09182 5.8981,-3.09169 5.7687,-1.29088 5.7687,-1.291 1.1931,-2.07771 1.1928,-2.0777 -0.2565,-20.32332 -0.2565,-20.32331 -1.0628,-1.98553 -1.0624,-1.98554 1.1916,-1.43577 1.1915,-1.43577 1.9963,0 1.9964,0 5.8502,3.55393 5.8504,3.55392 2.1043,2.95531 2.1045,2.95545 0.582,15.14366 0.582,15.14364 1.8571,1.85692 1.8568,1.85693 2.7341,-0.65697 c 1.504,-0.36129 4.3088,-1.43626 6.2333,-2.38877 l 3.4992,-1.73169 7.8541,-0.72108 7.8539,-0.72096 3.6435,-1.55235 3.6432,-1.55249 5.2382,-0.10149 5.238,-0.10265 0.4898,1.27736 0.49,1.27723 -1.7289,1.40921 c -0.9508,0.77505 -3.839,3.12463 -6.4181,5.22125 -2.5792,2.09661 -8.5054,7.22092 -13.1698,11.38735 l -8.4802,7.57533 -8.8254,3.3374 c -4.8538,1.83564 -9.5002,3.95328 -10.325,4.70605 l -1.4996,1.36839 -0.3219,27.70968 -0.3222,27.70967 0.6479,5.28136 0.6482,5.28147 2.3199,2.69722 2.3199,2.6971 3.0732,-1.4801 3.0729,-1.47999 11.3798,-11.13338 c 6.2587,-6.1234 12.3552,-11.65548 13.5474,-12.29353 l 2.1674,-1.16 0.8535,0.52747 0.8536,0.52747 -0.8082,4.26774 c -0.4446,2.34719 -1.5266,5.97351 -2.4047,8.05834 l -1.5964,3.79087 -3.1028,2.77235 -3.1029,2.77236 1.1571,2.16198 1.157,2.1621 -1.5698,3.77196 -1.5701,3.77195 -4.2015,4.37331 c -2.3111,2.40543 -6.202,5.66718 -8.6467,7.24835 l -4.4448,2.87504 -5.6065,0 -5.6064,0 -5.1718,-2.57711 z"
       id="path4376"
       inkscape:connector-curvature="0" />
    <text
       xml:space="preserve"
       style="font-style:normal;font-variant:normal;font-weight:normal;font-stretch:normal;line-height:0%;font-family:Risque;-inkscape-font-specification:Risque;letter-spacing:0px;word-spacing:0px;fill:#a65714;fill-opacity:1;stroke:none"
       x="655.69281"
       y="265.7558"
       id="text3174"><tspan
         sodipodi:role="line"
         id="tspan3176"
         x="655.69281"
         y="265.7558"
         style="font-size:75.73953247px;line-height:1.25">Paprika</tspan></text>
    <text
       xml:space="preserve"
       style="font-style:normal;font-variant:normal;font-weight:normal;font-stretch:normal;line-height:0%;font-family:Risque;-inkscape-font-specification:Risque;letter-spacing:0px;word-spacing:0px;fill:#a65714;fill-opacity:1;stroke:none"
       x="1553.8778"
       y="268.57486"
       id="text3174-4"><tspan
         sodipodi:role="line"
         id="tspan3176-0"
         x="1553.8778"
         y="268.57486"
         style="font-size:75.73953247px;line-height:1.25">Sárgarépa</tspan></text>
  </g>
</svg>
