<?xml version="1.0" encoding="UTF-8" standalone="no"?>
<!-- Created with Inkscape (http://www.inkscape.org/) -->

<svg
   xmlns:dc="http://purl.org/dc/elements/1.1/"
   xmlns:cc="http://creativecommons.org/ns#"
   xmlns:rdf="http://www.w3.org/1999/02/22-rdf-syntax-ns#"
   xmlns:svg="http://www.w3.org/2000/svg"
   xmlns="http://www.w3.org/2000/svg"
   xmlns:xlink="http://www.w3.org/1999/xlink"
   xmlns:sodipodi="http://sodipodi.sourceforge.net/DTD/sodipodi-0.dtd"
   xmlns:inkscape="http://www.inkscape.org/namespaces/inkscape"
   id="svg2"
   version="1.1"
   inkscape:version="0.91 r"
   width="2481"
   height="663"
   sodipodi:docname="Pepper-and-Carrot_by-David-Revoy_E02P00.svg">
  <metadata
     id="metadata8">
    <rdf:RDF>
      <cc:Work
         rdf:about="">
        <dc:format>image/svg+xml</dc:format>
        <dc:type
           rdf:resource="http://purl.org/dc/dcmitype/StillImage" />
        <dc:title />
      </cc:Work>
    </rdf:RDF>
  </metadata>
  <defs
     id="defs6" />
  <sodipodi:namedview
     pagecolor="#ffffff"
     bordercolor="#666666"
     borderopacity="1"
     objecttolerance="10"
     gridtolerance="10"
     guidetolerance="10"
     inkscape:pageopacity="0"
     inkscape:pageshadow="2"
     inkscape:window-width="1408"
     inkscape:window-height="855"
     id="namedview4"
     showgrid="false"
     inkscape:zoom="0.59975816"
     inkscape:cx="1240.5"
     inkscape:cy="331.5"
     inkscape:window-x="32"
     inkscape:window-y="0"
     inkscape:window-maximized="1"
     inkscape:current-layer="layer1" />
  <g
     inkscape:groupmode="layer"
     id="layer2"
     inkscape:label="artwork"
     sodipodi:insensitive="true">
    <image
       sodipodi:absref="/home/deevad/peppercarrot/webcomics/New/lang/it/../gfx_Pepper-and-Carrot_by-David-Revoy_E02P00.png"
       xlink:href="../gfx_Pepper-and-Carrot_by-David-Revoy_E02P00.png"
       width="2481"
       height="663"
       id="image10"
       x="-1.6728083e-06"
       y="0" />
  </g>
  <g
     inkscape:groupmode="layer"
     id="layer1"
     inkscape:label="text">
    <flowRoot
       xml:space="preserve"
       id="flowRoot3063"
       style="font-style:normal;font-variant:normal;font-weight:normal;font-stretch:normal;font-size:72px;line-height:125%;font-family:Arial;-inkscape-font-specification:Arial;letter-spacing:0px;word-spacing:0px;display:inline;fill:#562f13;fill-opacity:1;stroke:none"
       transform="matrix(0.77923967,0,0,0.77489763,97.662838,206.14684)"><flowRegion
         id="flowRegion3065"><rect
           id="rect3067"
           width="2715.5891"
           height="110.01318"
           x="92.642677"
           y="425.30325"
           style="font-size:72px;fill:#562f13;fill-opacity:1" /></flowRegion><flowPara
         id="flowPara3069"
         style="font-style:normal;font-variant:normal;font-weight:normal;font-stretch:normal;font-size:88px;font-family:Lavi;-inkscape-font-specification:Lavi;text-align:center;text-anchor:middle;fill:#562f13;fill-opacity:1">Episodio 2 : Pozioni arcobaleno</flowPara></flowRoot>    <path
       style="display:inline;fill:#562f13;fill-opacity:1;stroke:none"
       d="m 720.36738,507.99111 c -1.96987,-1.72959 -4.23282,-4.40403 -5.02877,-5.94324 l -1.44719,-2.79855 0,-4.09021 0,-4.09022 2.45162,-2.45161 2.45161,-2.45162 1.79331,-0.0318 c 0.98633,-0.0175 2.65988,-0.68737 3.71905,-1.48866 l 1.92574,-1.4569 0.74806,-5.25329 0.74804,-5.25322 0.0729,-22.78856 0.0729,-22.78844 -1.03395,-1.93194 -1.03394,-1.93194 -1.78117,0 c -0.97966,0 -4.16392,-0.70762 -7.07613,-1.57238 l -5.29492,-1.5725 -2.37739,-2.37733 -2.3774,-2.37745 0,-1.5436 0,-1.5436 5.74313,-0.0413 5.74313,-0.0413 4.49463,-2.20606 4.49461,-2.20618 0.28538,-34.95821 0.28539,-34.95808 -1.18556,-4.32091 -1.18556,-4.3209 -2.09622,-1.35969 -2.09626,-1.35956 -8.73954,-0.69937 -8.73954,-0.69936 0,-1.1963 0,-1.19629 4.41751,-4.4808 4.41752,-4.48079 12.64142,-5.714 12.64141,-5.714 1.92374,0.61066 c 1.05808,0.33579 3.26971,1.74315 4.91479,3.12736 l 2.99102,2.5167 0,1.33817 c 0,0.7359 0.7063,2.04429 1.56956,2.90755 l 1.56955,1.56962 10.30437,0 10.30438,0 8.65896,2.5092 c 4.76244,1.38008 10.82668,3.60778 13.47609,4.95033 2.64942,1.34255 8.38725,5.13123 12.75078,8.41924 l 7.93367,5.9781 2.74181,3.95646 2.74182,3.95646 1.42969,4.75053 1.42968,4.75054 0,6.7439 0,6.7439 -1.8693,6.00613 -1.86931,6.00612 -3.69485,6.60703 -3.69484,6.60691 -6.00717,6.42174 -6.00718,6.42162 -6.65686,4.90579 c -3.66127,2.69824 -8.90416,6.01814 -11.65088,7.37758 -2.74672,1.35944 -10.16284,4.18304 -16.48028,6.27474 -6.31744,2.09171 -12.49755,4.1699 -13.73357,4.61817 l -2.24731,0.81521 0,21.5411 0,21.54109 2.411,2.41098 2.41099,2.41099 2.83273,0.6004 c 1.558,0.33016 3.58793,1.00688 4.51096,1.50381 l 1.67822,0.90337 4.35527,-0.0874 c 2.3954,-0.0479 6.64986,0.22817 9.45433,0.6139 l 5.09909,0.70129 3.1733,-1.64099 3.1733,-1.64103 2.94115,0.64606 c 1.61764,0.35531 4.9558,0.64594 7.41814,0.64594 2.46235,0 4.47699,0.21023 4.47699,0.46716 0,0.25691 -1.62306,1.14529 -3.60679,1.97415 -3.63927,1.52057 -11.46581,6.43274 -16.72458,10.49682 l -2.85229,2.20429 -6.49883,1.80207 -6.49884,1.80207 -4.63215,2.94511 -4.63215,2.94511 -7.49103,2.11621 c -4.12007,1.16393 -9.77785,2.77461 -12.57285,3.57928 l -5.08181,1.46298 -4.12238,0 -4.12238,0 -3.5816,-3.14468 z m 44.11187,-107.17114 8.84106,-4.44238 8.05134,-6.46366 8.05133,-6.46365 4.8231,-5.82385 4.82309,-5.82397 2.85596,-5.99274 2.85597,-5.99287 7.7e-4,-4.2945 8e-4,-4.29451 -1.46233,-2.82785 c -0.80429,-1.55536 -2.85675,-4.00113 -4.56105,-5.43525 l -3.09871,-2.60741 -5.67671,-1.70487 -5.6767,-1.70474 -8.48984,-0.0263 -8.48985,-0.0263 -5.5187,1.24734 -5.51872,1.24746 -3.22083,1.95872 -3.22083,1.95871 0,29.92918 0,29.92919 1.7479,1.01814 c 0.96136,0.55986 2.26405,1.03165 2.89489,1.04841 0.63084,0.0163 5.12547,-1.96872 9.98806,-4.41211 z m 73.26398,108.7381 c -1.37335,-0.88793 -3.72409,-3.20441 -5.22386,-5.14772 l -2.72684,-3.53332 -0.61448,-3.2755 -0.61451,-3.27551 1.34374,-2.83167 1.34372,-2.83168 4.4134,-2.11789 4.41339,-2.11791 1.32974,-1.81852 1.32972,-1.81851 0,-27.65197 0,-27.65194 -5.24372,-0.58576 c -2.88404,-0.32229 -7.00466,-0.94133 -9.15691,-1.37583 l -3.91319,-0.78994 -0.3155,-0.99525 c -0.17353,-0.54735 0.0345,-1.54698 0.46252,-2.22144 l 0.77801,-1.22608 7.72095,-1.47729 c 4.24654,-0.81246 8.15902,-1.74803 8.6944,-2.07894 l 0.97344,-0.60153 0,-40.44225 0,-40.44226 -1.45742,-2.81834 -1.45744,-2.81847 -8.28092,-1.17615 c -4.5545,-0.64682 -9.74166,-1.39922 -11.52704,-1.67184 l -3.2461,-0.49581 0,-0.77943 c 0,-0.42862 1.01127,-1.70036 2.24731,-2.82597 2.44574,-2.22732 15.05009,-10.28738 16.08744,-10.28738 0.3519,0 4.64345,-1.8027 9.53679,-4.006 l 8.89699,-4.00613 2.83851,1.07919 c 1.56115,0.59352 3.62591,1.79182 4.58828,2.66271 l 1.74966,1.58351 0,2.72513 0,2.72501 2.24733,0.60228 c 1.2361,0.33129 6.751,0.60841 12.25553,0.61591 l 10.00808,0.0138 7.16624,1.98586 c 3.9414,1.0922 9.72256,3.11647 12.8469,4.49818 l 5.68091,2.51233 6.60958,4.91817 c 3.63536,2.70499 8.27288,6.63618 10.30587,8.73602 l 3.69616,3.81784 2.21634,4.99399 2.21621,4.994 0.44696,7.54347 0.44698,7.54335 -2.92355,8.48155 -2.92342,8.48167 -3.84533,5.79307 c -2.11486,3.18628 -6.09829,8.25835 -8.85199,11.27136 l -5.00667,5.47804 -3.18529,-0.59752 -3.18514,-0.59753 -1.04136,1.26786 c -0.57276,0.69724 -1.19687,2.38722 -1.38699,3.75529 l -0.34535,2.48767 -4.91466,3.21119 -4.91479,3.21106 -12.39558,4.53909 -12.39563,4.53898 -2.1664,0.015 c -1.19144,0.0125 -2.84048,0.44126 -3.6645,0.96184 l -1.49821,0.94658 0,21.42975 0,21.42974 2.38102,2.53547 2.38092,2.53547 5.18677,1.07669 5.18677,1.07682 9.91139,-0.0288 c 5.45122,-0.0163 12.52196,-0.0801 15.71291,-0.14287 l 5.80158,-0.11385 0.68234,0.68231 0.68235,0.68232 -1.98935,1.16683 c -1.09405,0.64178 -4.84898,2.40851 -8.34423,3.92608 l -6.35487,2.75925 -2.96071,2.49124 c -1.62829,1.37014 -3.53707,2.49119 -4.24155,2.49119 l -1.28092,0 -4.3856,3.85286 c -2.412,2.11904 -6.31034,4.83239 -8.66286,6.02965 l -4.27735,2.17682 -9.70588,2.6384 -9.70595,2.63843 -4.994,0.33952 -4.99408,0.33951 -2.49701,-1.6144 z m 40.73069,-107.75298 7.21439,-3.4574 7.2402,-5.37483 7.24003,-5.3747 6.99156,-7.41174 6.99169,-7.41161 2.79897,-5.77367 2.79898,-5.7738 0.50588,-4.70049 0.50589,-4.70049 -1.80653,-3.47028 -1.80681,-3.47041 -3.99517,-2.77881 -3.99518,-2.77881 -7.49109,-1.58476 -7.49108,-1.58488 -6.49215,0.57925 c -3.57078,0.31866 -9.189,1.26724 -12.48509,2.10822 l -5.99277,1.52884 -2.29067,2.58589 -2.29067,2.58576 0.29299,28.20818 0.29312,28.20817 1.37078,1.64995 1.37076,1.64982 1.65387,0 c 0.90952,0 4.90019,-1.55586 8.8681,-3.4574 z m 344.30858,77.44062 c -2.7469,-0.97911 -7.2819,-2.93995 -10.0781,-4.35756 l -5.0838,-2.57751 -3.1501,-3.58764 c -1.7327,-1.97335 -4.1494,-5.48554 -5.3709,-7.80495 l -2.2205,-4.21719 -0.033,-7.49093 -0.033,-7.49105 3.1533,-6.65582 3.1532,-6.6557 7.7506,-8.11222 7.7504,-8.11235 -2.8057,-5.87051 -2.8059,-5.87039 0.5992,-2.99599 0.5993,-2.996 -1.4295,-1.18641 -1.4297,-1.18641 1.5504,-2.99788 1.5502,-2.99787 -2.2165,-2.35944 -2.2167,-2.35944 0.6334,-4.62079 0.6333,-4.62079 1.9894,-4.49744 1.9895,-4.49731 4.2475,-5.07344 4.2478,-5.07331 4.3847,-2.78068 4.3847,-2.78081 5.4093,-1.21056 5.4094,-1.21056 5.2,1.64281 5.2002,1.64282 5.702,3.57112 5.7019,3.57113 3.6384,5.98961 3.6387,5.98962 0.5109,3.81033 0.5112,3.81021 -2.205,6.98636 -2.2049,6.98649 -3.8374,4.88652 c -2.1107,2.68748 -5.4874,7.35856 -7.5042,10.37983 -2.0166,3.0214 -5.0124,6.68798 -6.6572,8.14788 l -2.9904,2.65432 0.8504,1.45065 c 0.4678,0.79794 4.9431,5.79557 9.9451,11.10584 l 9.0946,9.65507 1.1928,-1.43726 1.1929,-1.43726 0.2,-2.83422 0.2001,-2.83423 -3.7405,-0.30965 -3.7406,-0.30977 -2.5019,-3.28037 -2.5021,-3.28037 0,-2.0817 0,-2.08169 1.4308,-1.43088 1.4309,-1.43075 8.3074,-2.58276 c 4.5692,-1.42049 10.5548,-3.09333 13.3016,-3.71738 l 4.994,-1.13474 11.9856,-0.3941 c 6.5921,-0.21681 14.3454,-0.66132 17.2294,-0.98786 l 5.2438,-0.59364 -5e-4,1.3204 -7e-4,1.32041 -7.1031,6.49218 c -3.9068,3.57074 -8.5135,7.89565 -10.2372,9.61078 l -3.134,3.11873 -4.8721,0.70724 c -2.6796,0.38897 -5.4887,0.94383 -6.2425,1.23308 l -1.3705,0.52596 0,4.84974 0,4.84962 -2.131,5.69573 -2.1311,5.69561 2.8698,2.08257 c 1.5784,1.14538 4.6724,3.46979 6.8754,5.16515 l 4.0055,3.08269 -0.1854,1.41199 c -0.1013,0.77655 -0.8071,3.09396 -1.5667,5.14975 l -1.381,3.73777 -2.3529,2.50469 -2.3532,2.50482 -3.0719,0 -3.0721,0 -3.2704,-1.99387 c -1.7985,-1.09608 -3.873,-1.99337 -4.6096,-1.99337 -0.7367,0 -2.4821,-0.89891 -3.8789,-1.99762 -1.3967,-1.09871 -3.1429,-1.98611 -3.8803,-1.97197 -0.7372,0.0138 -3.8127,1.60365 -6.8341,3.53259 l -5.4934,3.50706 -9.4489,2.95959 -9.449,2.95959 -5.0337,-0.0731 -5.0336,-0.0731 -4.9941,-1.77998 z m 24.2357,-24.17102 4.3911,-2.12574 0.4889,-1.27449 0.4892,-1.27436 -10.3079,-10.07769 -10.3079,-10.07769 -1.2059,0 -1.206,0 -2.7893,3.67659 c -1.5341,2.02214 -4.2499,5.0264 -6.0354,6.67609 l -3.2461,2.99937 0,1.35081 0,1.35068 4.2449,4.33117 c 2.3348,2.38208 5.1438,4.82409 6.2426,5.42662 l 1.9976,1.09571 6.4266,0.03 6.4265,0.03 4.3911,-2.12561 z m -5.3432,-61.38583 7.7114,-6.57963 1.9259,-3.15876 1.9262,-3.15877 0,-3.16939 0,-3.16953 -2.4768,-2.94345 -2.4768,-2.94357 -2.9999,-1.24259 -3,-1.24259 -3.4522,0.64757 -3.4523,0.64769 -2.7086,3.21219 c -1.4898,1.76667 -3.3147,4.65845 -4.0554,6.42612 l -1.3475,3.21406 0,3.86851 0,3.86863 1.4146,4.69974 c 1.4047,4.66796 3.1607,7.6034 4.5482,7.6034 0.3982,0 4.1942,-2.96084 8.4355,-6.57963 z m 177.1537,58.5217 c -3.1417,-0.40298 -8.8974,-1.75691 -12.7904,-3.00863 l -7.0782,-2.27599 -5.9309,-3.60241 c -3.2619,-1.98123 -8.2294,-5.4001 -11.0386,-7.59752 l -5.1076,-3.99524 -5.7754,-6.79645 -5.7753,-6.79644 -3.0216,-5.68861 c -1.6619,-3.12873 -3.9402,-8.61003 -5.0631,-12.18078 -1.1228,-3.57075 -2.9952,-11.65144 -4.1611,-17.95708 l -2.1197,-11.46478 0.444,-4.51608 c 0.6413,-6.52433 3.4641,-21.01426 6.2459,-32.0613 2.7697,-10.99824 8.6934,-28.45026 11.6581,-34.34529 4.4164,-8.78206 15.5276,-26.41899 22.3476,-35.47266 3.9565,-5.25222 10.2759,-12.70199 14.0434,-16.55511 3.7671,-3.853 9.9942,-9.38296 13.8377,-12.28863 l 6.9881,-5.28312 8.2821,-4.10396 8.282,-4.10397 10.6988,-0.0676 10.6986,-0.0676 9.4886,3.82885 c 5.2189,2.10597 10.3876,3.90379 11.4865,3.99525 l 1.9975,0.16639 0.4994,-5.53859 0.4994,-5.53872 1.853,-2.8266 1.8529,-2.82672 5.4953,0.64581 5.4951,0.64594 5.3983,2.55374 5.3982,2.55373 3.4842,3.286 3.4841,3.286 0,5.001 c 0,2.75053 -0.281,6.40623 -0.6245,8.12373 l -0.6245,3.12286 -3.9397,4.47579 -3.9398,4.47566 0.6282,1.01614 0.6278,1.01614 1.8281,0 1.8279,0 2.307,1.86801 2.3069,1.86814 -1.186,13.86312 c -1.3653,15.95559 -2.3896,23.57801 -4.5237,33.65607 -0.8356,3.94608 -1.9545,9.422 -2.4866,12.16877 -0.5322,2.74666 -1.7073,8.29814 -2.6116,12.33642 l -1.644,7.34243 -2.4794,4.8929 -2.4794,4.89303 -0.8654,0 -0.8656,0 -0.6022,-2.24734 c -0.3313,-1.23608 -0.6084,-4.62142 -0.6159,-7.52308 l -0.014,-5.27587 -1.3497,-3.23007 -1.3496,-3.2302 -0.7365,-12.92844 -0.7364,-12.92843 -4.2799,-12.52496 -4.2798,-12.52496 -4.3012,-8.38696 -4.3011,-8.38696 -3.5886,-3.77243 -3.5887,-3.77242 -2.7673,-0.69461 -2.7671,-0.69448 -4.3747,1.67071 c -2.406,0.9188 -7.2182,3.54735 -10.6938,5.84111 l -6.3193,4.17052 -9.3089,9.43588 -9.309,9.43588 -7.358,11.06068 -7.3583,11.0608 -6.9818,14.48267 c -7.4977,15.55323 -12.5198,28.41135 -16.6106,42.52783 l -2.5649,8.85074 -0.6185,7.52096 -0.6185,7.52095 -2.338,2.81309 -2.3379,2.81308 1.4696,2.84211 c 0.8086,1.56325 2.7504,3.89304 4.3154,5.17741 l 2.8456,2.33517 2.6755,4.68572 2.6754,4.68573 4.7367,4.85024 4.7364,4.85024 4.8395,2.33517 4.8394,2.33504 11.1415,-0.52333 11.1415,-0.52346 9.672,-3.13324 c 5.3198,-1.72326 12.2565,-4.27611 15.4153,-5.67309 l 5.743,-2.53972 1.7747,0.46403 1.7747,0.46403 2.8686,-2.74127 2.8685,-2.74127 7.043,-2.69136 7.0433,-2.69135 1.8614,-2.0568 c 1.0238,-1.13124 3.0352,-2.66383 4.4698,-3.40561 l 2.6083,-1.34893 1.185,-2.79382 1.1848,-2.79381 5.6533,-3.43413 c 3.1094,-1.88878 7.3418,-4.95959 9.4057,-6.82422 l 3.7524,-3.39009 3.9641,-6.27675 3.9641,-6.27674 1.4938,-0.57325 1.494,-0.57313 1.2223,1.47279 1.2223,1.47292 -1.1138,2.21331 c -0.6127,1.21731 -2.2179,6.79207 -3.5672,12.38834 l -2.4532,10.17515 -4.8207,8.8022 -4.8208,8.80207 -6.6758,6.68072 -6.6756,6.6806 -2.8658,1.48179 -2.8656,1.4818 -1.9254,-0.17202 -1.9257,-0.17191 -2.7787,5.49331 -2.7785,5.49356 -10.7275,6.68359 -10.7272,6.68373 -8.9892,2.98523 -8.9893,2.98511 -7.813,1.06831 c -8.5564,1.1699 -13.202,1.18554 -21.8706,0.0738 z m -942.01635,-17.3737 -3.85813,-1.44989 -2.97526,-2.82573 -2.97529,-2.82572 -1.9613,-3.81371 -1.96127,-3.81384 -0.56076,-4.73464 -0.56075,-4.73464 2.38247,-2.76967 2.38246,-2.7698 6.25869,-0.73802 6.25869,-0.7379 1.70021,-1.70024 1.70019,-1.70023 0.51228,-9.20994 0.5123,-9.20993 2.99641,-0.51032 2.99642,-0.51032 0.31001,-2.67947 0.31001,-2.67947 -2.80701,-1.78731 c -1.54386,-0.98311 -3.13724,-2.24722 -3.54084,-2.80933 l -0.7338,-1.0219 -0.0154,-28.7469 -0.0153,-28.74702 1.24851,-0.38459 c 0.68667,-0.21156 2.43495,-0.64306 3.88505,-0.95884 l 2.63655,-0.57425 0.63431,-1.65295 0.63434,-1.65307 -1.27328,-1.70474 c -0.70028,-0.93757 -2.78623,-3.68084 -4.63545,-6.09633 l -3.36221,-4.39159 0.80743,-15.98086 c 0.44408,-8.78956 0.83341,-20.32778 0.86517,-25.64068 l 0.0577,-9.6597 -2.41182,-2.56537 -2.41183,-2.5655 -5.57861,-2.08007 -5.57861,-2.08007 -2.16658,-2.02364 -2.1666,-2.02352 -2.12703,-4.94445 -2.12705,-4.94445 -0.16361,-5.90342 -0.16364,-5.90354 2.33927,-2.49005 2.33926,-2.49005 8.61022,-3.14726 8.61022,-3.14738 15.48148,-2.88865 15.48148,-2.88865 17.97848,0.0213 17.97849,0.0213 9.60448,0.93469 9.60447,0.93469 8.20765,2.99537 c 4.51423,1.64757 10.98666,4.54961 14.38323,6.44902 3.39656,1.89941 8.21089,5.24509 10.69854,7.43488 l 4.52296,3.98123 6.33624,8.83511 6.33624,8.8351 4.78669,9.98799 4.78671,9.98811 1.67761,6.49218 1.67762,6.49218 0.0896,7.49106 0.0897,7.49105 -1.29375,5.49343 -1.2937,5.49343 -3.90476,7.99049 -3.90478,7.99037 -5.73883,6.66808 c -3.15635,3.66746 -7.98615,8.6637 -10.73285,11.10259 -2.74672,2.43901 -8.51441,6.95959 -12.81709,10.04566 l -7.82307,5.61116 -12.15303,5.88002 c -15.32133,7.41286 -33.20007,14.57075 -41.61777,16.66183 -3.57074,0.88702 -8.1575,2.04016 -10.19281,2.56261 l -3.70057,0.94971 -1.54315,1.54322 -1.54316,1.5431 0,12.95859 0,12.95846 2.29101,2.29101 2.29102,2.291 4.0715,0.65107 4.0715,0.65107 1.25082,1.50719 1.25083,1.5072 5.1214,0.0138 5.12145,0.015 4.31127,1.50157 4.31126,1.50156 0.92513,-0.57175 c 0.8712,-0.53835 21.89657,-1.65645 28.40692,-1.51045 1.64803,0.0363 4.56953,0.0738 6.49223,0.0813 1.9227,0.0125 4.10827,0.23371 4.85681,0.50207 l 1.361,0.4878 -1.23359,1.4863 -1.2336,1.48643 -1.55996,0 c -0.858,0 -3.61209,0.95483 -6.12024,2.12198 -2.50813,1.16702 -7.25703,3.37533 -10.55309,4.90717 -3.29605,1.53196 -8.68961,3.54647 -11.98565,4.47691 -3.29606,0.93044 -7.46885,2.31778 -9.27284,3.0832 l -3.28002,1.39159 -3.73911,0 -3.73909,0 -2.18438,1.53009 c -3.26559,2.28725 -9.65093,4.35469 -20.23381,6.55098 l -9.48865,1.96935 -11.98565,0.49894 -11.98566,0.49893 -3.85813,-1.44989 z m 74.63819,-111.16638 8.85419,-3.49881 4.3225,0.64819 4.32252,0.64819 1.60127,-2.44388 1.60125,-2.44377 -0.60154,-2.39684 -0.60157,-2.39673 1.97109,-1.78381 1.97113,-1.78381 2.14453,1.14776 2.14453,1.14763 1.52047,-1.26186 1.52047,-1.26185 -0.55571,-2.77856 -0.55574,-2.77855 4.98921,-5.70149 c 6.23271,-7.12248 11.2591,-14.65119 14.7364,-22.07256 l 2.68665,-5.73414 6.3e-4,-8.98924 6.6e-4,-8.98924 -2.65724,-5.66834 -2.65721,-5.66833 -4.08724,-4.43413 -4.08723,-4.43413 -5.82386,-2.61366 -5.82385,-2.61354 -7.66446,-1.13999 -7.66443,-1.13988 -9.73139,1.18091 c -5.35225,0.64945 -10.48112,1.39735 -11.39746,1.66196 l -1.66609,0.48117 -3.45979,-3.03778 -3.45981,-3.03779 -2.08031,0 -2.08032,0 -1.03396,1.93194 c -0.56864,1.06256 -1.03393,3.00989 -1.03393,4.32729 l 0,2.39534 -3.66722,2.41462 c -2.01697,1.32803 -4.5479,3.61203 -5.62429,5.07544 l -1.95709,2.66082 -0.82197,15.81709 -0.82199,15.81709 -0.0459,28.5247 -0.0459,28.52483 1.2485,1.57413 c 0.68669,0.86588 1.92271,1.77656 2.74673,2.0239 l 1.49819,0.44952 11.48627,-2.42538 11.48626,-2.42549 8.85416,-3.49894 z m 94.02273,108.86186 c -1.64801,-0.21869 -5.39046,-1.07281 -8.31652,-1.89816 l -5.32012,-1.50056 -4.21181,-4.21181 -4.21181,-4.21181 -4.38727,-11.46928 -4.38727,-11.46929 -0.41685,-13.44463 -0.41684,-13.44477 1.18629,-7.35368 1.18629,-7.35381 2.4053,-7.07181 c 1.32291,-3.88953 4.01763,-10.00513 5.98824,-13.59026 4.29113,-7.80671 11.12487,-16.88853 17.63269,-23.43313 l 4.762,-4.78894 8.27845,-3.97235 8.27846,-3.97222 5.0925,-0.60316 5.09249,-0.60315 5.18164,2.82022 5.18164,2.82021 5.30369,5.09596 5.30367,5.09609 2.49078,4.94395 2.49078,4.94395 1.12303,5.29288 1.12304,5.29288 -0.005,12.6856 -0.005,12.68559 -1.0428,3.75504 -1.04278,3.75491 -2.19774,1.42612 -2.19778,1.426 -6.99163,1.14325 c -7.00992,1.14613 -41.44555,9.69886 -48.94144,12.15551 l -3.99523,1.30927 -1.74091,3.55874 -1.74095,3.55873 1.69357,4.43176 c 0.93147,2.43738 2.74212,6.13349 4.02363,8.21343 l 2.33005,3.78169 3.21074,2.02489 3.21074,2.02502 6.0824,-0.43513 6.08242,-0.435 6.40264,-2.82372 c 3.52147,-1.55311 11.79367,-6.04904 18.38268,-9.99099 l 11.98003,-7.16715 1.36084,0.52221 1.36084,0.52221 -0.53401,3.29062 c -0.2937,1.80996 -1.4401,5.33905 -2.54754,7.84274 l -2.01355,4.55186 -2.48184,0 -2.48182,0 -1.6365,1.63655 -1.63647,1.63644 0.15955,4.10659 c 0.0878,2.25872 0.11785,4.59402 0.0669,5.18954 l -0.0926,1.08295 -8.76783,4.16664 -8.76785,4.16677 -6.96333,1.47492 c -6.89649,1.4609 -9.14664,1.58326 -14.95378,0.81308 z m 9.54706,-73.7021 16.42188,-3.69323 4.15951,-1.81096 4.15949,-1.81108 1.08424,-2.0259 1.08421,-2.0259 0,-10.53296 0,-10.53284 -1.6103,-4.02465 -1.6103,-4.02452 -2.35882,-0.59202 -2.35883,-0.59202 -4.50872,2.18266 -4.50872,2.18266 -7.46283,6.96947 c -4.10456,3.83323 -8.99542,9.07682 -10.86857,11.65257 -1.87315,2.57588 -5.31048,8.35619 -7.6385,12.84524 l -4.2328,8.16189 0.70772,1.14513 0.70771,1.14513 1.20587,-0.46278 c 0.66324,-0.25448 8.59572,-2.12461 17.62776,-4.15589 z m 316.44521,72.02101 c -1.98743,-0.71012 -5.25,-2.30264 -7.25015,-3.53885 l -3.63685,-2.24771 -2.49914,-4.26449 c -1.37456,-2.34555 -4.17975,-8.93594 -6.23368,-14.64543 l -3.73453,-10.38096 0.0932,-15.98086 0.0932,-15.98085 2.16419,-7.99049 2.16405,-7.99037 4.04963,-8.48992 4.04977,-8.48981 5.40999,-7.07869 c 2.97544,-3.89328 7.89831,-9.432 10.93972,-12.30839 l 5.52959,-5.2297 7.52258,-3.47567 7.52258,-3.47554 4.8619,-0.57588 4.8621,-0.57588 4.328,2.11323 4.328,2.11322 6.2009,5.54986 6.201,5.54998 3.2877,6.67271 3.2876,6.67271 0.3238,17.50557 0.3235,17.50544 -1.0281,2.69448 -1.0282,2.69448 -2.2919,1.48693 -2.2919,1.48705 -9.0199,1.55436 c -4.9609,0.85487 -17.5458,3.82434 -27.96654,6.59889 l -18.9467,5.04442 -4.49455,2.20418 -4.4947,2.20417 0.16794,6.16315 0.16782,6.16326 2.03826,4.60766 2.03812,4.60766 3.50492,1.4644 3.50519,1.46453 7.27324,-0.0175 7.27349,-0.0175 8.42362,-3.41599 8.42349,-3.41598 1.8974,1.01538 1.8972,1.01539 1.8247,-1.65132 c 1.0035,-0.90829 2.0737,-2.62955 2.3782,-3.82509 l 0.5537,-2.17391 6.2835,-4.24483 6.2839,-4.24497 1.8379,0 1.8378,0 2.857,-2.03428 c 1.5713,-1.11898 4.9367,-2.95433 7.4786,-4.07869 l 4.6215,-2.04441 0.5222,0.5222 0.5221,0.52221 -1.6741,4.38371 -1.6741,4.38358 -3.8945,5.14563 c -2.142,2.82998 -4.7916,6.90392 -5.888,9.05305 l -1.9934,3.90754 -5.0543,4.42124 -5.0541,4.42125 -9.2135,4.63718 -9.2135,4.63705 -4.75336,1.24697 -4.75316,1.24709 -1.54585,-2.20718 -1.54598,-2.20718 -2.68998,0 -2.6901,0 -3.99525,2.46065 c -2.19755,1.35344 -4.66946,2.45502 -5.49343,2.44814 -0.8241,-0.0125 -3.12436,-0.59377 -5.1116,-1.30401 z m 16.09834,-71.59426 c 7.41624,-1.64269 16.29772,-3.91242 19.73672,-5.04379 l 6.2528,-2.05705 1.1028,-2.06055 1.1027,-2.06055 0.1355,-11.58814 0.1354,-11.58827 -2.0783,-3.4958 -2.0786,-3.49581 -3.4977,0.0988 -3.4978,0.0988 -6.14,4.16965 -6.14037,4.16977 -2.37295,-0.59564 -2.37308,-0.59553 -1.64256,1.64269 -1.64281,1.64269 0.61191,2.43763 0.61191,2.43776 -3.96046,5.23083 c -2.17829,2.87689 -5.82422,8.65707 -8.10197,12.84473 l -4.1415,7.61416 0,2.24084 0,2.24083 2.24735,-0.65094 c 1.23595,-0.35806 8.31489,-1.995 15.73101,-3.63781 z m 620.52742,72.27097 -2.2273,-0.43025 -2.0176,-2.56487 -2.0176,-2.56486 0,-1.74065 0,-1.74053 -1.4104,-1.17064 -1.4107,-1.17078 -6.053,2.54773 c -3.329,1.40123 -9.5486,3.70174 -13.8211,5.11235 l -7.7682,2.56462 -9.0693,0.56737 -9.0694,0.56724 -5.2996,-1.76029 -5.2995,-1.76029 -3.8537,-3.48142 -3.8536,-3.48142 -1.5039,-5.0643 -1.5038,-5.06418 0,-4.7673 0,-4.76742 2.4198,-6.66671 2.4199,-6.6667 3.7383,-5.42775 3.7382,-5.42775 5.5778,-4.0269 5.578,-4.0269 11.9855,-5.83898 11.9856,-5.83898 8.7987,-2.19392 8.7987,-2.1938 2.0976,-1.69848 2.0973,-1.69836 -1.1027,-9.70712 -1.1026,-9.70712 -1.803,-3.68873 -1.803,-3.68885 -7.9905,-0.28112 -7.9905,-0.28124 -7.9903,3.88414 -7.9904,3.88415 -7.4912,5.55799 c -4.12,3.05692 -8.065,6.15501 -8.7664,6.88452 -0.7015,0.72964 -2.3557,2.67497 -3.6761,4.32291 l -2.4006,2.9965 -1.2012,-1.18179 -1.2012,-1.18166 2.6954,-6.8087 c 1.4821,-3.74491 4.1265,-9.21519 5.876,-12.15639 l 3.1808,-5.34768 5.8667,-4.92055 c 3.2268,-2.70624 7.7363,-6.01589 10.0208,-7.35481 2.2846,-1.33892 6.1619,-3.14888 8.6159,-4.02215 l 4.4618,-1.58788 7.1881,-0.04 7.1881,-0.04 5.3425,2.44589 5.3427,2.44588 3.6595,3.21319 3.6597,3.21319 2.4228,5.17565 2.4229,5.17565 1.1357,5.39747 1.1357,5.39748 0.9616,14.07919 c 0.5288,7.74365 0.9683,18.01201 0.9763,22.81884 l 0.015,8.73952 0.94,0 c 0.5168,0 1.2175,-0.44952 1.5571,-0.99888 l 0.6171,-0.99874 2.0636,0 2.0636,0 -0.6482,3.24609 c -0.3566,1.78543 -1.9858,6.10571 -3.6208,9.60077 l -2.9724,6.35468 0,1.88553 0,1.8854 1.0539,0 c 0.5795,0 3.6136,-1.31265 6.7421,-2.91705 8.3834,-4.29964 14.6512,-7.07094 15.9912,-7.07094 l 1.1829,0 0,0.92819 c 0,0.51044 -1.829,3.68159 -4.064,7.04679 l -4.0642,6.11872 -0.7698,4.86976 -0.7699,4.86989 -1.6183,2.46979 -1.6183,2.46978 -5.2836,2.99925 -5.2838,2.99925 -5.425,1.59152 c -2.9836,0.87539 -5.6805,1.53046 -5.9929,1.45565 -0.3124,-0.0751 -1.5701,-0.32967 -2.7952,-0.56638 z m -35.7209,-22.73951 7.6731,-1.46816 5.649,-2.57638 c 3.1068,-1.41699 7.3364,-3.74027 9.3988,-5.16289 l 3.7498,-2.58664 1.9932,-3.2252 1.9934,-3.2252 0,-4.1724 0,-4.1724 -2.4516,-2.45164 -2.4518,-2.45165 -1.9211,0 -1.921,0 -1.5013,-2.24721 -1.5013,-2.24734 -1.9112,1.717 -1.9113,1.717 -6.7605,2.0882 -6.7606,2.08808 -3.6823,3.25485 c -2.0253,1.79019 -5.8006,4.74915 -8.3897,6.5755 l -4.7077,3.32053 -2.434,3.60265 c -1.3385,1.98149 -2.7409,4.63606 -3.1161,5.89891 l -0.6822,2.29626 1.6042,2.44802 1.6041,2.44814 5.3826,0 5.3826,0 7.6729,-1.46803 z m -506.2315,18.05054 -3.6647,-3.66483 -2.497,-4.92744 -2.497,-4.92744 0,-2.47128 0,-2.47129 1.2437,-0.76855 1.2434,-0.76854 8.495,-0.04 8.4947,-0.04 0.6014,-19.97611 0.6012,-19.9761 1.2262,-5.22932 1.2262,-5.2292 -0.3293,-12.92156 -0.3294,-12.92155 -2.212,-2.35156 -2.2121,-2.35155 0.5775,-2.20831 0.5775,-2.20831 -1.6791,-0.64431 -1.6788,-0.64419 -2.1798,1.14713 -2.1799,1.14713 -4.9941,-1.90992 -4.9939,-1.91005 -0.3403,-1.6906 -0.34,-1.69048 2.2174,-2.36032 2.2172,-2.36019 8.6103,-3.16364 8.6101,-3.16352 5.5561,-0.1176 5.5559,-0.1176 2.7675,1.81333 2.7676,1.81346 1.4149,3.38597 1.4147,3.38608 0,5.02615 0,5.02602 1.2485,-5e-4 1.2486,-5e-4 5.7121,-6.38759 5.712,-6.38758 4.3416,-2.10172 4.3416,-2.10171 4.597,0 c 2.5284,0 5.3423,0.286 6.2535,0.63555 l 1.6563,0.63569 0.8975,2.36081 0.8977,2.36082 2.8342,0 2.8342,0 2.5603,2.74665 2.5602,2.74665 4.119,8.52496 4.1187,8.52496 -0.058,1.96259 c -0.031,1.07932 -0.8591,5.03628 -1.8385,8.79307 l -1.7806,6.83072 -4.4042,1.96772 -4.4042,1.96773 -2.6537,2.53596 -2.6537,2.53585 -5.9626,-2.67572 -5.9623,-2.67584 -1.0846,-2.38033 -1.0844,-2.38033 0.8276,-0.51145 0.8276,-0.51157 1.7865,1.9741 1.7865,1.97398 2.6508,0 2.6505,0 1.636,-1.24847 1.6357,-1.24847 1.537,-4.49468 c 0.8454,-2.47204 1.5435,-5.30164 1.5515,-6.28788 l 0.015,-1.79332 -2.4971,-2.49706 c -1.3733,-1.37332 -2.4968,-2.84761 -2.4968,-3.27624 0,-0.42862 -1.0403,-1.75666 -2.3117,-2.95108 l -2.3116,-2.17177 -5.4567,0 -5.4565,0 -2.2417,1.57025 -2.2419,1.57024 -2.8354,5.67109 c -1.5595,3.1191 -3.5602,7.91843 -4.4459,10.66508 -0.8858,2.74678 -2.7591,11.72626 -4.1629,19.95458 l -2.5526,14.96047 -0.1001,7.74089 -0.1001,7.74078 1.7115,2.61191 1.7114,2.61191 4.2923,1.89878 4.2924,1.89879 0.5435,2.07769 0.5433,2.07782 2.0486,-1.09634 2.0487,-1.09646 1.9589,1.22345 1.9589,1.22345 2.4818,-1.32817 2.4816,-1.32816 2.8237,0.70474 c 1.5529,0.38772 3.4979,1.28363 4.322,1.99112 0.8239,0.70737 2.7433,1.58213 4.2653,1.94395 l 2.7673,0.6577 2.0843,-1.11547 2.0843,-1.11561 0.9557,0.95584 0.9558,0.95584 -1.7113,1.71124 -1.7113,1.71138 -2.0247,-0.52947 -2.0247,-0.52946 -2.5707,1.38346 c -3.9063,2.10221 -12.0672,4.51432 -15.2733,4.51432 l -2.8584,0 -4.2053,2.17666 -4.205,2.17665 -10.9869,0.73965 c -6.0427,0.40686 -15.2932,1.06143 -20.5563,1.45477 l -9.5695,0.715 -3.6648,-3.6647 z m 579.5409,0.75591 c -1.4265,-1.57063 -3.3366,-3.9671 -4.2449,-5.32529 l -1.6515,-2.46953 0,-2.77418 0,-2.77417 1.9584,-1.95834 1.9582,-1.95822 5.5314,-1.60803 5.5314,-1.60803 0.5693,-2.26873 0.5695,-2.26874 -0.3182,-35.865 -0.3186,-35.86513 -2.0515,-3.49243 -2.0515,-3.49243 -3.4419,-2.3194 -3.4419,-2.31941 0,-1.17978 0,-1.17978 9.4887,-3.22069 c 5.2188,-1.77143 10.3875,-3.23221 11.4864,-3.24609 l 1.9976,-0.025 2.5881,3.24609 2.5881,3.24608 1.2781,3.99525 c 0.7028,2.1973 1.6583,4.40723 2.1231,4.91092 l 0.8452,0.9158 7.2744,-7.55586 7.2743,-7.55573 4.245,-1.13925 4.2449,-1.13912 3.7674,1.01439 3.7673,1.01451 4.2382,3.1166 4.2379,3.11673 2.3841,4.1475 c 1.3113,2.28112 2.68,5.5685 3.0413,7.30527 l 0.6575,3.15788 -1.126,6.33079 c -0.6194,3.48192 -2.2603,10.08307 -3.6463,14.66921 l -2.5201,8.33842 -5.9076,6.05605 -5.9074,6.05592 -0.6136,-0.61353 -0.6135,-0.61354 1.7089,-6.9731 1.7088,-6.97298 -0.5683,-10.23107 -0.5684,-10.23108 -1.0081,-1.00826 -1.0081,-1.00813 -5.5464,1.74828 -5.5465,1.74841 -3.0758,4.18128 c -1.6917,2.29976 -3.6966,5.6283 -4.4554,7.39672 l -1.3796,3.21531 -2.4964,16.44814 -2.4964,16.44827 0,6.10534 0,6.10522 1.4611,2.82584 c 0.8039,1.55411 2.0399,3.04179 2.7468,3.30589 0.7071,0.26411 6.679,0.15902 13.2711,-0.23357 l 11.9856,-0.71388 0.9029,0.80796 0.9027,0.80808 -2.7383,3.59014 c -1.5062,1.9746 -4.1946,4.54473 -5.9746,5.7115 l -3.2362,2.12135 -2.1591,3.29401 -2.1594,3.29401 -2.612,1.71162 -2.6123,1.7115 -9.6334,0.72288 c -5.2986,0.39747 -13.9036,1.03816 -19.1223,1.42362 l -9.4887,0.70086 -2.5935,-2.85575 z m 85.3145,1.00976 c -1.1975,-1.02728 -3.3325,-3.61604 -4.7442,-5.75279 l -2.5669,-3.88489 0,-1.93507 0,-1.93507 2.7983,-2.79832 2.7983,-2.79833 4.1358,-0.69873 4.1359,-0.69874 0.964,-1.1704 0.9643,-1.1704 0.2128,-34.95821 0.2129,-34.9582 -0.9975,-4.78031 -0.9971,-4.78031 -1.7587,-1.94345 -1.7589,-1.94332 -5.1055,-1.90192 -5.1052,-1.90179 -0.2725,-1.36256 -0.2723,-1.36244 12.6638,-2.25986 12.6641,-2.25985 2.5904,1.64757 c 1.4247,0.90617 3.5859,2.82197 4.8022,4.25747 l 2.2117,2.60991 0.6462,3.24609 0.6463,3.24622 1.1373,-0.0125 1.1374,-0.0125 4.6932,-5.88627 4.6937,-5.88628 5.4908,-2.68647 5.4909,-2.68648 3.2995,0.71075 c 1.8147,0.39097 4.6479,1.38221 6.296,2.2028 3.8454,1.91468 8.3031,6.05893 9.992,9.2895 l 1.3237,2.53235 -1.4257,12.9492 -1.4256,12.9492 -2.958,4.49456 c -1.6268,2.47204 -3.727,5.95546 -4.6669,7.74077 l -1.7088,3.24609 -1.6171,0 -1.6169,0 -0.096,-8.24008 -0.098,-8.24021 -1.6983,-4.2257 -1.6981,-4.22582 -3.2633,-2.01676 -3.2633,-2.01677 -2.5058,0 -2.5058,0 -1.9979,4.74428 c -1.0987,2.6094 -2.7013,6.99174 -3.5611,9.73839 -1.6959,5.41687 -5.1756,26.64481 -6.2426,38.08394 l -0.6644,7.12086 1.1669,3.53634 c 0.6421,1.94495 1.7062,3.97661 2.3646,4.5147 l 1.1974,0.97836 5.4935,-0.98299 c 3.0214,-0.54059 8.1903,-1.10421 11.4863,-1.25234 3.296,-0.14826 6.7339,-0.59027 7.6396,-0.98249 l 1.6469,-0.71287 0.7071,1.144 0.7071,1.14413 -6.5659,6.31252 -6.566,6.3124 -1.5603,3.89966 -1.5603,3.89978 -3.197,1.88853 -3.1972,1.88853 -9.5086,0.70562 c -5.2295,0.38809 -13.5536,1.02977 -18.4976,1.42587 l -8.9893,0.72038 -2.1775,-1.86789 z m 113.5443,0.0851 -5.4935,-1.50857 -5.3076,-3.63368 -5.3074,-3.63368 -3.9159,-4.57875 -3.9157,-4.57876 -2.9104,-5.99274 -2.9105,-5.99287 -1.1004,-5.29288 -1.1004,-5.29288 0.02,-9.18979 0.02,-9.18979 0.9713,-6.71537 0.9711,-6.71525 2.1449,-6.26911 c 2.823,-8.2516 7.4019,-17.34793 11.0852,-22.02202 l 2.9685,-3.76717 6.2646,-4.47029 c 3.4455,-2.45852 8.7205,-5.59464 11.7225,-6.96897 l 5.4581,-2.49881 7.4034,-0.6034 7.4033,-0.60353 6.9694,1.63969 6.9693,1.63968 4.1729,2.44539 4.1727,2.44551 3.0882,3.89904 3.0879,3.89891 3.4672,7.35081 c 1.9068,4.04291 4.1825,10.04754 5.0574,13.34355 l 1.5904,5.99286 0.5582,9.48868 0.5583,9.48855 -1.6159,8.48993 c -0.8888,4.66933 -2.0768,10.13712 -2.6402,12.1505 l -1.024,3.66083 -3.4724,2.04867 -3.4722,2.04866 0,1.54548 c 0,0.85 0.5544,2.43313 1.2319,3.5182 l 1.2321,1.97273 -1.9811,3.69286 c -1.0896,2.03115 -4.0758,5.98798 -6.6362,8.79319 l -4.655,5.10046 -5.3331,2.9442 -5.3329,2.9442 -12.485,0.24209 -12.4852,0.24221 -5.4933,-1.50857 z m 23.9278,-20.68009 5.5085,-1.24859 3.8219,-3.80758 3.8219,-3.80771 1.9412,-4.52909 1.9415,-4.52921 1.1007,-7.09433 1.1008,-7.09446 -0.6642,-14.03352 c -0.3654,-7.71838 -0.6458,-16.12148 -0.623,-18.67334 l 0.04,-4.63994 -2.698,-1.76767 c -1.4838,-0.97222 -5.0898,-3.716 -8.0133,-6.09733 l -5.3154,-4.32954 -3.2758,0 -3.2757,0 -5.1279,1.52283 -5.1281,1.52284 -3.2171,2.70711 -3.2174,2.70725 -3.799,5.87751 -3.7988,5.87752 -0.6094,3.62605 c -0.3352,1.99424 -0.8188,4.39259 -1.0748,5.32954 -0.2559,0.93694 -2.2393,3.85024 -4.4074,6.47391 l -3.9419,4.77042 0,1.54423 0,1.54423 1.8432,1.57838 1.8436,1.57838 0.686,5.8381 0.6862,5.83811 4.3178,9.1151 4.3179,9.11498 2.9275,2.08457 c 3.4551,2.46015 8.4931,4.0344 13.3126,4.15964 1.9066,0.05 5.9453,-0.47179 8.975,-1.15839 z m 89.1567,19.64869 -5.1666,-2.57463 -2.5683,-3.05217 c -1.4125,-1.67859 -3.4047,-4.69185 -4.4271,-6.69598 l -1.859,-3.64381 -1.0898,-5.89491 -1.0896,-5.89478 -0.07,-26.53459 -0.07,-26.53459 -0.7811,-1.99762 -0.7811,-1.99763 -7.2081,0 -7.2081,0 -3.9263,-4.2063 -3.9263,-4.20618 0,-2.54923 0,-2.54923 -1.1564,-1.85175 -1.1563,-1.85187 0.5444,-1.41886 0.5443,-1.41887 5.8926,-3.0887 5.8924,-3.08883 5.7631,-1.28963 5.7632,-1.28975 1.1918,-2.07569 1.1918,-2.07569 -0.2562,-20.30364 -0.2564,-20.30364 -1.0615,-1.98361 -1.0616,-1.98361 1.1904,-1.43438 1.1905,-1.43438 1.9943,0 1.9944,0 5.8446,3.55048 5.8446,3.55048 2.1024,2.95246 2.1024,2.95259 0.5814,15.12898 0.5815,15.12911 1.8553,1.855 1.855,1.85512 2.7315,-0.65632 c 1.5024,-0.36094 4.3046,-1.43488 6.2272,-2.38634 l 3.4959,-1.73014 7.8464,-0.72038 7.8463,-0.72025 3.6401,-1.55086 3.6397,-1.55098 5.2329,-0.10134 5.233,-0.10259 0.4894,1.27612 0.4894,1.27599 -1.7271,1.40785 c -0.95,0.77431 -3.8354,3.12161 -6.412,5.21619 -2.5766,2.09459 -8.4972,7.21394 -13.157,11.37633 l -8.472,7.568 -8.8167,3.33416 c -4.8492,1.83386 -9.4911,3.94958 -10.3152,4.70149 l -1.4981,1.36707 -0.3216,27.68285 -0.3219,27.68284 0.6474,5.27624 0.6475,5.27637 2.3176,2.6946 2.3177,2.69449 3.0702,-1.47867 3.0699,-1.47855 11.3688,-11.1226 c 6.2527,-6.11748 12.3432,-11.64419 13.5342,-12.28162 l 2.1654,-1.15889 0.8526,0.52696 0.8528,0.52696 -0.8073,4.26361 c -0.4443,2.34492 -1.5252,5.96772 -2.4024,8.05054 l -1.5949,3.78719 -3.0998,2.76967 -3.0999,2.76967 1.1559,2.15989 1.1559,2.16002 -1.5682,3.76829 -1.5685,3.7683 -4.1976,4.36907 c -2.3087,2.40311 -6.1958,5.66171 -8.6383,7.24146 l -4.4405,2.87214 -5.601,0 -5.601,0 -5.1668,-2.57463 z"
       id="path4376"
       inkscape:connector-curvature="0" />
  </g>
</svg>
