<?xml version="1.0" encoding="UTF-8" standalone="no"?>
<!-- Created with Inkscape (http://www.inkscape.org/) -->

<svg
   xmlns:dc="http://purl.org/dc/elements/1.1/"
   xmlns:cc="http://creativecommons.org/ns#"
   xmlns:rdf="http://www.w3.org/1999/02/22-rdf-syntax-ns#"
   xmlns:svg="http://www.w3.org/2000/svg"
   xmlns="http://www.w3.org/2000/svg"
   xmlns:xlink="http://www.w3.org/1999/xlink"
   xmlns:sodipodi="http://sodipodi.sourceforge.net/DTD/sodipodi-0.dtd"
   xmlns:inkscape="http://www.inkscape.org/namespaces/inkscape"
   id="svg2"
   version="1.1"
   inkscape:version="0.91 r"
   width="2481"
   height="663"
   sodipodi:docname="Pepper-and-Carrot_by-David-Revoy_E02P00.svg">
  <metadata
     id="metadata8">
    <rdf:RDF>
      <cc:Work
         rdf:about="">
        <dc:format>image/svg+xml</dc:format>
        <dc:type
           rdf:resource="http://purl.org/dc/dcmitype/StillImage" />
        <dc:title />
      </cc:Work>
    </rdf:RDF>
  </metadata>
  <defs
     id="defs6" />
  <sodipodi:namedview
     pagecolor="#ffffff"
     bordercolor="#666666"
     borderopacity="1"
     objecttolerance="10"
     gridtolerance="10"
     guidetolerance="10"
     inkscape:pageopacity="0"
     inkscape:pageshadow="2"
     inkscape:window-width="1381"
     inkscape:window-height="876"
     id="namedview4"
     showgrid="false"
     inkscape:zoom="0.38931533"
     inkscape:cx="819.47095"
     inkscape:cy="395.54012"
     inkscape:window-x="59"
     inkscape:window-y="24"
     inkscape:window-maximized="1"
     inkscape:current-layer="layer1" />
  <g
     inkscape:groupmode="layer"
     id="layer2"
     inkscape:label="artwork"
     sodipodi:insensitive="true">
    <image
       sodipodi:absref="/home/deevad/peppercarrot/webcomics/New/lang/br/../gfx_Pepper-and-Carrot_by-David-Revoy_E02P00.png"
       xlink:href="../gfx_Pepper-and-Carrot_by-David-Revoy_E02P00.png"
       y="0"
       x="-1.6728083e-06"
       id="image10"
       height="663"
       width="2481" />
  </g>
  <g
     inkscape:groupmode="layer"
     id="layer1"
     inkscape:label="text">
    <flowRoot
       xml:space="preserve"
       id="flowRoot3063"
       style="font-style:normal;font-variant:normal;font-weight:normal;font-stretch:normal;font-size:72px;line-height:125%;font-family:Arial;-inkscape-font-specification:Arial;letter-spacing:0px;word-spacing:0px;display:inline;fill:#562f13;fill-opacity:1;stroke:none"
       transform="matrix(0.77923967,0,0,0.77489763,93.775993,205.74072)"><flowRegion
         id="flowRegion3065"><rect
           id="rect3067"
           width="2715.5891"
           height="110.01318"
           x="92.642677"
           y="425.30325"
           style="font-size:72px;fill:#562f13;fill-opacity:1" /></flowRegion><flowPara
         id="flowPara3069"
         style="font-style:normal;font-variant:normal;font-weight:normal;font-stretch:normal;font-size:88px;font-family:Lavi;-inkscape-font-specification:Lavi;text-align:center;text-anchor:middle;fill:#562f13;fill-opacity:1">Rann 2 : An drammoù gwareg-ar-glav</flowPara></flowRoot>    <path
       style="display:inline;fill:#562f13;fill-opacity:1;stroke:none"
       d="m 721.67677,506.07563 c -1.96642,-1.72654 -4.22539,-4.39631 -5.01996,-5.93281 l -1.44464,-2.79365 0,-4.08305 0,-4.08304 2.44731,-2.4473 2.44731,-2.44734 1.79018,-0.0317 c 0.98459,-0.0175 2.65523,-0.68615 3.71253,-1.48603 l 1.92237,-1.45435 0.74675,-5.24407 0.74673,-5.24407 0.0728,-22.74853 0.0728,-22.74852 -1.03213,-1.92856 -1.03214,-1.92856 -1.77805,0 c -0.97794,0 -4.15661,-0.70636 -7.06373,-1.56967 l -5.28562,-1.56967 -2.37323,-2.37322 -2.37324,-2.37324 0,-1.54089 0,-1.54091 5.73306,-0.0411 5.73307,-0.0411 4.48674,-2.20228 4.48675,-2.20226 0.28487,-34.8969 0.28489,-34.89688 -1.18347,-4.31331 -1.1835,-4.31332 -2.09255,-1.35727 -2.09257,-1.35724 -8.72423,-0.69814 -8.72421,-0.69812 0,-1.1942 0,-1.19419 4.40977,-4.47297 4.40977,-4.47296 12.61925,-5.70394 12.61927,-5.70393 1.92037,0.60951 c 1.05621,0.33522 3.26398,1.74006 4.90617,3.12186 l 2.98578,2.51238 0,1.33574 c 0,0.73465 0.70507,2.04079 1.56681,2.90252 l 1.5668,1.56679 10.2863,0 10.28633,0 8.64377,2.50488 c 4.75411,1.37769 10.8077,3.60142 13.45248,4.94161 2.64477,1.34021 8.37255,5.12221 12.72844,8.40446 l 7.91974,5.96772 2.73702,3.9495 2.73701,3.9495 1.42718,4.74219 1.42718,4.74218 0,6.73209 0,6.73208 -1.86603,5.99559 -1.86604,5.99561 -3.68837,6.59542 -3.68836,6.5954 -5.99664,6.41043 -5.99665,6.41045 -6.64519,4.89718 c -3.65486,2.69345 -8.88857,6.00753 -11.63045,7.3646 -2.74192,1.35708 -10.14505,4.17577 -16.45141,6.26376 -6.30637,2.08799 -12.47563,4.16255 -13.7095,4.6101 l -2.24336,0.81374 0,21.50336 0,21.50336 2.40676,2.40677 2.40677,2.40676 2.82776,0.59931 c 1.55528,0.32961 3.58164,1.00512 4.50305,1.50113 l 1.67529,0.90183 4.34763,-0.0873 c 2.39121,-0.0478 6.6382,0.22778 9.43778,0.61283 l 5.09013,0.70006 3.16775,-1.63811 3.16774,-1.6381 2.936,0.64485 c 1.61479,0.35468 4.94711,0.64485 7.40512,0.64485 2.45804,0 4.46916,0.20986 4.46916,0.46633 0,0.25646 -1.62021,1.14328 -3.60047,1.97068 -3.6329,1.5179 -11.44571,6.42148 -16.69527,10.47842 l -2.8473,2.20043 -6.48744,1.79892 -6.48745,1.79892 -4.62402,2.93994 -4.62403,2.93995 -7.47791,2.1125 c -4.11285,1.16189 -9.76072,2.76973 -12.5508,3.57301 l -5.0729,1.4604 -4.11517,0 -4.11515,0 -3.57531,-3.13916 z m 44.03455,-106.98324 8.82558,-4.43469 8.03723,-6.45231 8.03722,-6.45231 4.81464,-5.81368 4.81463,-5.81365 2.85097,-5.98232 2.85094,-5.98233 7.9e-4,-4.28701 7.8e-4,-4.28698 -1.45976,-2.82289 c -0.80288,-1.55258 -2.85174,-3.99414 -4.55306,-5.4257 l -3.09327,-2.60284 -5.66676,-1.70183 -5.66676,-1.70184 -8.47496,-0.0263 -8.47496,-0.0263 -5.50904,1.24525 -5.50904,1.24527 -3.21519,1.95527 -3.21517,1.95527 0,29.87674 0,29.87673 1.74484,1.01629 c 0.95967,0.55895 2.26006,1.02991 2.8898,1.04659 0.62973,0.0167 5.11649,-1.96529 9.97055,-4.40437 z m 73.13559,108.54747 c -1.37096,-0.88637 -3.71757,-3.1988 -5.21472,-5.1387 l -2.72207,-3.52712 -0.61339,-3.26977 -0.61343,-3.26977 1.34139,-2.82671 1.34135,-2.8267 4.40567,-2.11419 4.40565,-2.11419 1.32745,-1.81533 1.32734,-1.81533 0,-27.60349 0,-27.60347 -5.23451,-0.5848 c -2.87899,-0.32166 -6.99239,-0.93966 -9.14088,-1.37341 l -3.90632,-0.78858 -0.31495,-0.99344 c -0.17321,-0.5464 0.0345,-1.54428 0.46172,-2.21748 l 0.77664,-1.22403 7.70742,-1.47468 c 4.23909,-0.81107 8.1447,-1.74492 8.67911,-2.07523 l 0.97177,-0.60056 0,-40.37139 0,-40.37136 -1.45485,-2.81341 -1.45484,-2.81344 -8.26646,-1.17411 c -4.54651,-0.64575 -9.72458,-1.3968 -11.50682,-1.66899 l -3.24042,-0.49487 0,-0.77807 c 0,-0.42794 1.00951,-1.69743 2.24336,-2.82107 2.44147,-2.22341 15.02373,-10.26926 16.05927,-10.26926 0.35126,0 4.63526,-1.79958 9.52009,-3.99907 l 8.88131,-3.99907 2.83363,1.07731 c 1.55838,0.59251 3.61957,1.78864 4.58023,2.65802 l 1.74659,1.58074 0,2.72032 0,2.72034 2.2434,0.60121 c 1.23391,0.33066 6.73907,0.60733 12.23399,0.61481 l 9.99059,0.0136 7.15371,1.98237 c 3.93441,1.09031 9.70546,3.11094 12.82434,4.49029 l 5.67089,2.50794 6.59807,4.90954 c 3.62894,2.70026 8.25837,6.62456 10.28783,8.72067 l 3.68963,3.81112 2.21243,4.98528 2.21231,4.98526 0.44623,7.53021 0.44623,7.53019 -2.91843,8.46671 -2.91831,8.46672 -3.83863,5.78299 c -2.11114,3.18066 -6.08764,8.24386 -8.83647,11.25154 l -4.99786,5.4685 -3.1797,-0.59651 -3.17958,-0.5965 -1.03959,1.2656 c -0.57174,0.69606 -1.1947,2.38304 -1.38453,3.74883 l -0.3447,2.48323 -4.90606,3.20552 -4.90618,3.20553 -12.37387,4.53104 -12.37387,4.53104 -2.1626,0.0152 c -1.18933,0.007 -2.8355,0.44049 -3.65815,0.96021 l -1.49556,0.94492 0,21.39219 0,21.39218 2.37691,2.53098 2.37666,2.53098 5.17769,1.0749 5.1777,1.07488 9.89405,-0.0285 c 5.44171,-0.0156 12.5,-0.0798 15.68533,-0.14264 l 5.79141,-0.11427 0.68115,0.68109 0.68115,0.68112 -1.98588,1.1648 c -1.09204,0.64064 -4.84049,2.40429 -8.32955,3.9192 l -6.3438,2.75441 -2.95552,2.48688 c -1.62532,1.36773 -3.53077,2.48681 -4.23403,2.48681 l -1.27875,0 -4.3779,3.8461 c -2.40776,2.11534 -6.29921,4.82394 -8.64765,6.01909 l -4.26987,2.17301 -9.68885,2.63378 -9.68898,2.63379 -4.98524,0.33894 -4.98524,0.33891 -2.49268,-1.61158 z m 40.65924,-107.56412 7.20179,-3.45134 7.22752,-5.36537 7.22739,-5.36534 6.97924,-7.3987 6.97949,-7.39869 2.79404,-5.76356 2.79404,-5.76358 0.50506,-4.69225 0.50493,-4.69223 -1.80329,-3.46429 -1.80366,-3.46428 -3.98824,-2.77393 -3.98812,-2.77394 -7.47793,-1.58205 -7.47804,-1.58208 -6.48068,0.57826 c -3.56462,0.31805 -9.17293,1.26505 -12.46329,2.10446 l -5.98224,1.52621 -2.28661,2.58129 -2.28674,2.5813 0.29249,28.15873 0.29262,28.15875 1.36842,1.64698 1.3683,1.64698 1.65104,0 c 0.90783,0 4.89158,-1.5531 8.85247,-3.45133 z m 343.70505,77.30483 c -2.742,-0.97731 -7.269,-2.93473 -10.0604,-4.34988 l -5.0749,-2.57293 -3.1446,-3.58144 c -1.7295,-1.9698 -4.142,-5.47584 -5.3614,-7.79121 l -2.2166,-4.20976 -0.032,-7.4779 -0.033,-7.47791 3.1477,-6.64406 3.1477,-6.64406 7.737,-8.0981 7.7368,-8.09809 -2.8008,-5.86015 -2.801,-5.86014 0.5982,-2.99077 0.5982,-2.99077 -1.427,-1.18431 -1.4271,-1.18432 1.5477,-2.9926 1.5475,-2.99263 -2.2127,-2.35533 -2.2128,-2.35534 0.6323,-4.61265 0.6322,-4.61265 1.9859,-4.48952 1.986,-4.48953 4.2401,-5.06448 4.2403,-5.06449 4.377,-2.77582 4.3771,-2.77582 5.3998,-1.20844 5.3998,-1.20844 5.191,1.63994 5.1911,1.63993 5.692,3.56484 5.6919,3.56485 3.632,5.97913 3.6323,5.97914 0.5101,3.80356 0.5103,3.80357 -2.2012,6.97415 -2.2011,6.97418 -3.8306,4.87795 c -2.107,2.68288 -5.4778,7.34565 -7.491,10.36173 -2.0131,3.0161 -5.0036,6.67616 -6.6456,8.1335 l -2.9851,2.64967 0.8489,1.44817 c 0.4669,0.79648 4.9344,5.78533 9.9275,11.08633 l 9.0788,9.63819 1.1907,-1.43478 1.1908,-1.43476 0.1997,-2.82925 0.1996,-2.82923 -3.7339,-0.30915 -3.7339,-0.30914 -2.4976,-3.27467 -2.4978,-3.27464 0,-2.07804 0,-2.07806 1.4283,-1.4283 1.4284,-1.42833 8.2929,-2.57816 c 4.5612,-1.41798 10.5363,-3.0879 13.2783,-3.7109 l 4.9852,-1.13274 11.9646,-0.39342 c 6.5806,-0.21637 14.3203,-0.66011 17.1993,-0.98607 l 5.2345,-0.59264 -6e-4,1.31805 -5e-4,1.31807 -7.0906,6.48085 c -3.9001,3.56446 -8.4987,7.88177 -10.2194,9.594 l -3.1284,3.11315 -4.8636,0.70602 c -2.6749,0.3883 -5.4792,0.94225 -6.2315,1.23099 l -1.3682,0.525 0,4.8412 0,4.8412 -2.1273,5.68568 -2.1273,5.6857 2.8647,2.07888 c 1.5757,1.14339 4.6643,3.46365 6.8635,5.15615 l 3.9984,3.07728 -0.185,1.40946 c -0.1012,0.77521 -0.8057,3.08853 -1.564,5.14072 l -1.3786,3.73124 -2.3488,2.50035 -2.349,2.50034 -3.0667,-0.004 -3.0666,-0.004 -3.2646,-1.99039 c -1.7956,-1.09419 -3.8662,-1.98986 -4.6016,-1.98986 -0.7353,0 -2.4778,-0.89735 -3.8722,-1.99411 -1.3943,-1.09676 -3.1372,-1.98262 -3.8733,-1.96858 -0.7362,0.014 -3.8061,1.60094 -6.8222,3.52645 l -5.4838,3.50095 -9.4323,2.95439 -9.4325,2.95438 -5.0248,-0.0729 -5.0248,-0.0729 -4.9854,-1.77691 z m 24.1934,-24.12863 4.3834,-2.12196 0.488,-1.27222 0.4883,-1.27221 -10.2898,-10.06004 -10.2898,-10.06001 -1.2038,-0.005 -1.2038,-0.005 -2.7845,3.67014 c -1.5314,2.01859 -4.2425,5.01753 -6.0248,6.66432 l -3.2404,2.99415 0,1.34838 0,1.34839 4.2374,4.3235 c 2.3306,2.3779 5.1349,4.81566 6.2317,5.41721 l 1.9941,1.09372 6.4153,0.0303 6.4153,0.0303 4.3834,-2.12194 z m -5.3338,-61.27824 7.6978,-6.56811 1.9226,-3.15316 1.9228,-3.15319 0,-3.16393 0,-3.16393 -2.4725,-2.93833 -2.4724,-2.93834 -2.9946,-1.24046 -2.9949,-1.24046 -3.4462,0.64652 -3.4462,0.64649 -2.7038,3.20653 c -1.4872,1.76359 -3.3088,4.65031 -4.0483,6.41493 l -1.3451,3.2084 0,3.86179 0,3.86178 1.412,4.69152 c 1.4023,4.65975 3.1553,7.59004 4.5403,7.59004 0.3975,0 4.1869,-2.95565 8.4207,-6.56809 z m 176.8431,58.4191 c -3.1362,-0.40226 -8.8819,-1.75376 -12.7681,-3.00333 l -7.0656,-2.27197 -5.9206,-3.59604 c -3.2561,-1.97782 -8.2149,-5.39073 -11.0193,-7.58425 l -5.0986,-3.98822 -5.7652,-6.78458 -5.7652,-6.78457 -3.0165,-5.6786 c -1.6587,-3.12324 -3.9331,-8.59497 -5.054,-12.15945 -1.1209,-3.56447 -2.9901,-11.63099 -4.1539,-17.92559 l -2.116,-11.44472 0.4433,-4.50814 c 0.6402,-6.51281 3.4581,-20.97736 6.235,-32.00508 2.7648,-10.97899 8.6781,-28.40033 11.6375,-34.28512 4.4087,-8.76669 15.5005,-26.37269 22.3085,-35.4104 3.9495,-5.24305 10.258,-12.6798 14.0188,-16.5261 3.7606,-3.84631 9.9767,-9.36651 13.8135,-12.26714 l 6.9758,-5.27388 8.2676,-4.09675 8.2675,-4.09676 10.68,-0.0672 10.6799,-0.0672 9.472,3.82215 c 5.2097,2.10217 10.3694,3.89687 11.4663,3.98822 l 1.994,0.16606 0.4986,-5.5289 0.4985,-5.52892 1.8498,-2.82173 1.8496,-2.82174 5.4857,0.64473 5.4854,0.64472 5.3888,2.54928 5.3888,2.54929 3.478,3.28026 3.4781,3.28025 0,4.99218 c 0,2.74569 -0.2806,6.39498 -0.6234,8.10955 l -0.6234,3.11736 -3.9328,4.46789 -3.9329,4.46789 0.6269,1.01434 0.6268,1.01433 1.8249,0 1.8248,0 2.303,1.86479 2.3028,1.86481 -1.1841,13.83879 c -1.3628,15.92763 -2.3852,23.53669 -4.5156,33.59717 -0.8342,3.93916 -1.951,9.40546 -2.4822,12.14738 -0.5313,2.7419 -1.7044,8.28356 -2.6072,12.31483 l -1.6409,7.32955 -2.4751,4.88435 -2.4751,4.88436 -0.8639,0 -0.8641,0 -0.6011,-2.24339 c -0.3307,-1.23385 -0.6073,-4.6133 -0.6148,-7.5099 l -0.014,-5.26657 -1.3474,-3.22445 -1.3471,-3.22448 -0.7353,-12.9058 -0.7351,-12.90578 -4.2723,-12.50303 -4.2724,-12.50301 -4.2936,-8.37227 -4.2936,-8.37223 -3.5824,-3.76582 -3.5823,-3.76581 -2.7625,-0.69333 -2.7624,-0.69331 -4.3669,1.66774 c -2.4018,0.91727 -7.2055,3.5412 -10.675,5.83094 l -6.3082,4.16319 -9.2926,9.41933 -9.2927,9.4193 -7.3451,11.04136 -7.3455,11.04134 -6.9695,14.4573 c -7.4845,15.52599 -12.4978,28.36162 -16.5816,42.45333 l -2.5603,8.83527 -0.6174,7.50776 -0.6175,7.50775 -2.3338,2.80811 -2.3338,2.80815 1.4671,2.83719 c 0.8071,1.56046 2.7455,3.88621 4.3078,5.1683 l 2.8406,2.3311 2.6708,4.6775 2.6706,4.6775 4.7285,4.84173 4.7281,4.84176 4.831,2.33102 4.8308,2.33104 11.1221,-0.52249 11.1219,-0.52252 9.6552,-3.12771 c 5.3104,-1.72025 12.2349,-4.26866 15.3882,-5.66313 l 5.7328,-2.53536 1.7717,0.46328 1.7716,0.46326 2.8634,-2.73648 2.8637,-2.73651 7.0306,-2.68663 7.031,-2.68662 1.8581,-2.05322 c 1.022,-1.12926 3.0298,-2.65912 4.4618,-3.39967 l 2.6039,-1.34649 1.1828,-2.78893 1.1828,-2.78892 5.6434,-3.42812 c 3.1039,-1.88546 7.329,-4.95097 9.3893,-6.81225 l 3.7458,-3.38412 3.9572,-6.26575 3.9571,-6.26573 1.4912,-0.57225 1.4913,-0.57223 1.2201,1.47029 1.2203,1.47032 -1.1119,2.20937 c -0.6116,1.21518 -2.2141,6.78019 -3.5609,12.36671 l -2.449,10.15731 -4.8122,8.78672 -4.8123,8.78671 -6.6641,6.66891 -6.6639,6.66894 -2.8608,1.47923 -2.8606,1.47923 -1.922,-0.17173 -1.9223,-0.17171 -2.7739,5.48379 -2.7736,5.48382 -10.7088,6.67199 -10.7083,6.67201 -8.9735,2.97992 -8.9736,2.97993 -7.7994,1.06642 c -8.5413,1.16784 -13.1786,1.18347 -21.832,0.0737 z m -940.36526,-17.34315 -3.85137,-1.44737 -2.97006,-2.82075 -2.97008,-2.82076 -1.95784,-3.80714 -1.95784,-3.80712 -0.55977,-4.72632 -0.55978,-4.72628 2.3783,-2.76492 2.37828,-2.76492 6.24772,-0.73665 6.24773,-0.73668 1.69722,-1.69722 1.69721,-1.69721 0.5114,-9.19382 0.5114,-9.19384 2.99115,-0.50944 2.99117,-0.50944 0.30946,-2.67474 0.30947,-2.67473 -2.80209,-1.78425 c -1.54116,-0.98133 -3.13175,-2.24328 -3.53463,-2.80433 l -0.73252,-1.02009 -0.0154,-28.69659 -0.0152,-28.69659 1.24633,-0.38397 c 0.68546,-0.21117 2.43067,-0.6419 3.87824,-0.95716 l 2.63192,-0.57321 0.63321,-1.65011 0.63323,-1.65014 -1.27105,-1.70169 c -0.69906,-0.93592 -2.78136,-3.67448 -4.62733,-6.08564 l -3.35631,-4.38395 0.806,-15.95286 c 0.44332,-8.77408 0.83196,-20.29213 0.86367,-25.59568 l 0.0576,-9.6428 -2.40758,-2.56091 -2.40759,-2.56091 -5.56886,-2.07645 -5.56881,-2.07644 -2.1628,-2.02007 -2.1628,-2.02006 -2.12329,-4.93576 -2.12332,-4.93575 -0.16333,-5.89312 -0.16336,-5.89313 2.33518,-2.48567 2.33516,-2.48568 8.59513,-3.14182 8.59512,-3.14184 15.45434,-2.88359 15.45435,-2.88359 17.94697,0.0212 17.94698,0.0212 9.58765,0.93303 9.58762,0.93303 8.19328,2.99018 c 4.5063,1.64461 10.96741,4.54157 14.35801,6.43769 3.39061,1.89615 8.19651,5.23595 10.67979,7.42183 l 4.51504,3.9743 6.32514,8.81958 6.32512,8.8196 4.77831,9.97055 4.77833,9.97053 1.67465,6.48084 1.67467,6.48087 0.0894,7.47791 0.0895,7.4779 -1.29147,5.4838 -1.29146,5.48379 -3.89791,7.97643 -3.89792,7.97644 -5.72877,6.65639 c -3.15082,3.66101 -7.97215,8.64844 -10.71406,11.08315 -2.74188,2.43472 -8.49947,6.94735 -12.79461,10.02805 l -7.80937,5.60129 -12.13173,5.86969 c -15.29446,7.3999 -33.14188,14.54517 -41.54482,16.63258 -3.56447,0.88549 -8.14319,2.03662 -10.17494,2.55811 l -3.69409,0.94816 -1.54043,1.54044 -1.54046,1.54045 0,12.93582 0,12.93581 2.28699,2.28699 2.28701,2.287 4.06435,0.64992 4.06436,0.64992 1.24863,1.50451 1.24864,1.5045 5.11244,0.0145 5.11246,0.0146 4.30371,1.49898 4.3037,1.49897 0.92353,-0.57077 c 0.86967,-0.53748 21.85819,-1.65353 28.35712,-1.50786 1.64513,0.0368 4.56153,0.0736 6.48084,0.0813 1.91934,0.007 4.10107,0.23335 4.8483,0.50115 l 1.35863,0.48697 -1.23143,1.48377 -1.23144,1.48378 -1.55722,0 c -0.8565,0 -3.60577,0.9532 -6.10953,2.11823 -2.50373,1.16501 -7.24431,3.36938 -10.53459,4.8986 -3.29027,1.52923 -8.67438,3.5403 -11.96464,4.46906 -3.29029,0.92877 -7.45576,2.31376 -9.25659,3.07782 l -3.27427,1.38918 -3.73254,0 -3.73254,0 -2.18055,1.52732 c -3.25987,2.28331 -9.63401,4.34704 -20.19836,6.53956 l -9.47202,1.96583 -11.96463,0.49809 -11.96465,0.49808 -3.85137,-1.44736 z m 74.50736,-110.97154 8.83868,-3.49274 4.31492,0.64704 4.31495,0.64707 1.59844,-2.43954 1.59846,-2.43953 -0.6005,-2.39259 -0.60049,-2.39257 1.96763,-1.7807 1.96766,-1.78068 2.14079,1.14572 2.14077,1.1457 1.51779,-1.25964 1.5178,-1.25967 -0.55474,-2.77369 -0.55475,-2.77373 4.98047,-5.69146 c 6.22178,-7.10997 11.23937,-14.62547 14.71055,-22.03391 l 2.68195,-5.72401 6.4e-4,-8.97349 6.5e-4,-8.97349 -2.65258,-5.65843 -2.65256,-5.65842 -4.08006,-4.42634 -4.08008,-4.42635 -5.81364,-2.60902 -5.81366,-2.609 -7.65101,-1.13796 -7.65099,-1.13793 -9.71434,1.17883 c -5.34289,0.64833 -10.46275,1.39491 -11.37749,1.65906 l -1.66316,0.48027 -3.45374,-3.03243 -3.45374,-3.03243 -2.07666,0 -2.07667,0 -1.03215,1.92857 c -0.56766,1.06071 -1.03213,3.00457 -1.03213,4.31969 l 0,2.39113 -3.66078,2.41042 c -2.01344,1.32574 -4.53993,3.60568 -5.61443,5.06657 l -1.95367,2.65612 -0.82053,15.78936 -0.82054,15.78938 -0.0458,28.47472 -0.0458,28.47474 1.24631,1.57146 c 0.68548,0.8643 1.91934,1.77343 2.74191,2.02027 l 1.49557,0.44882 11.46613,-2.42123 11.46613,-2.42122 8.83864,-3.49274 z m 93.85795,108.67097 c -1.64514,-0.2182 -5.38103,-1.07084 -8.30195,-1.89475 l -5.31079,-1.49801 -4.20444,-4.20444 -4.20443,-4.20441 -4.37958,-11.44915 -4.37957,-11.44917 -0.41612,-13.42112 -0.41611,-13.42113 1.1842,-7.34085 1.18421,-7.34083 2.40108,-7.05948 c 1.3206,-3.88272 4.0106,-9.98761 5.97775,-13.56642 4.28362,-7.79307 11.10537,-16.85893 17.60179,-23.39209 l 4.75365,-4.78054 8.26394,-3.96532 8.26395,-3.96532 5.08358,-0.60206 5.08355,-0.60207 5.17256,2.81525 5.17256,2.81526 5.29439,5.08705 5.29439,5.08705 2.4864,4.93531 2.48642,4.93531 1.12107,5.28361 1.12107,5.28361 -0.005,12.66337 -0.005,12.66336 -1.04097,3.74839 -1.04095,3.74837 -2.19391,1.42359 -2.19391,1.42358 -6.97939,1.14122 c -6.99763,1.14417 -41.3729,9.68188 -48.85564,12.13417 l -3.98823,1.30702 -1.73787,3.55251 -1.73789,3.55249 1.6906,4.42394 c 0.92983,2.43318 2.73731,6.12274 4.01658,8.19904 l 2.32596,3.77506 3.2051,2.02139 3.20512,2.02142 6.07175,-0.43432 6.07175,-0.4343 6.39141,-2.81879 c 3.5153,-1.55032 11.77301,-6.03835 18.35047,-9.97338 l 11.95903,-7.15462 1.35845,0.52128 1.35847,0.52129 -0.53308,3.2849 c -0.29318,1.8067 -1.43758,5.32972 -2.54309,7.82891 l -2.01,4.54398 -2.4775,0 -2.47747,0 -1.63363,1.63361 -1.6336,1.63361 0.15926,4.09943 c 0.0877,2.25471 0.11765,4.5859 0.0668,5.18044 l -0.0924,1.08097 -8.75247,4.15938 -8.75247,4.1594 -6.95113,1.47245 c -6.88439,1.45829 -9.13061,1.58039 -14.92756,0.81155 z m 9.5303,-73.57289 16.39311,-3.6867 4.15221,-1.80788 4.15221,-1.80791 1.08233,-2.02235 1.08231,-2.02233 0,-10.51444 0,-10.51444 -1.60748,-4.01749 -1.60747,-4.01747 -2.35469,-0.59099 -2.35469,-0.591 -4.50082,2.1788 -4.50082,2.17882 -7.44973,6.95724 c -4.09738,3.82649 -8.97967,9.06099 -10.84952,11.63224 -1.86989,2.57125 -5.30118,8.34144 -7.62514,12.82263 l -4.22536,8.14763 0.70647,1.14309 0.70647,1.1431 1.20376,-0.46194 c 0.66208,-0.25406 8.58066,-2.12093 17.59685,-4.14861 z M 972.33489,429.071 c -1.98401,-0.70894 -5.24089,-2.29864 -7.23751,-3.53269 l -3.63043,-2.2437 -2.49481,-4.25707 c -1.37217,-2.34138 -4.17246,-8.92028 -6.22278,-14.61978 l -3.72797,-10.36271 0.0924,-15.95286 0.0924,-15.95289 2.16047,-7.97642 2.16023,-7.97643 4.04257,-8.47496 4.04257,-8.47496 5.4005,-7.06626 c 2.97026,-3.88645 7.88457,-9.41552 10.92065,-12.28684 l 5.51977,-5.22058 7.50939,-3.46954 7.5094,-3.46951 4.85356,-0.57483 4.8536,-0.57484 4.3203,2.10949 4.3204,2.1095 6.1901,5.54021 6.1901,5.5402 3.2819,6.66103 3.2819,6.66102 0.3231,17.47482 0.3231,17.47481 -1.0264,2.68974 -1.0264,2.68976 -2.2879,1.4844 -2.2879,1.48438 -9.0039,1.55165 c -4.9523,0.8534 -17.5152,3.81768 -27.91763,6.58729 l -18.91349,5.03565 -4.48668,2.20027 -4.48693,2.20026 0.16773,6.15244 0.16748,6.15245 2.03471,4.59956 2.03459,4.59956 3.49879,1.46191 3.49893,1.46191 7.26061,-0.0169 7.26074,-0.0169 8.40873,-3.40999 8.40892,-3.40999 1.8939,1.0136 1.8939,1.01359 1.8216,-1.64845 c 1.0018,-0.90662 2.0701,-2.6249 2.3741,-3.81841 l 0.5527,-2.16999 6.2725,-4.23749 6.2729,-4.23747 1.8346,0 1.8346,0 2.8519,-2.03078 c 1.5686,-1.11692 4.928,-2.94911 7.4654,-4.07152 l 4.6136,-2.04075 0.5213,0.52125 0.5212,0.52127 -1.6712,4.37601 -1.6713,4.37598 -3.8876,5.13653 c -2.1383,2.82506 -4.7831,6.89179 -5.8778,9.03716 l -1.9899,3.90069 -5.0453,4.41354 -5.0453,4.41353 -9.1974,4.62896 -9.1973,4.62895 -4.7449,1.24485 -4.7449,1.24485 -1.54327,-2.20329 -1.54314,-2.20329 -2.68539,0.005 -2.68527,0.005 -3.98836,2.45641 c -2.19358,1.35103 -4.66128,2.45072 -5.48368,2.44377 -0.82265,-0.006 -3.11888,-0.5927 -5.10276,-1.30163 z m 16.07012,-71.46881 c 7.40324,-1.63984 16.26919,-3.9056 19.70219,-5.03497 l 6.2417,-2.05343 1.1009,-2.05692 1.1008,-2.05692 0.1353,-11.56788 0.1351,-11.56787 -2.0747,-3.48969 -2.0749,-3.48968 -3.4915,0.0989 -3.4917,0.0989 -6.12925,4.16244 -6.12961,4.16243 -2.36879,-0.59455 -2.36892,-0.59454 -1.63968,1.63982 -1.63994,1.63982 0.61084,2.43339 0.61084,2.43339 -3.95352,5.22166 c -2.17447,2.87192 -5.81402,8.64196 -8.08777,12.82232 l -4.13424,7.60073 0,2.23691 0,2.23691 2.24328,-0.6498 c 1.23392,-0.35741 8.30045,-1.99151 15.70357,-3.63138 z m 619.43979,72.14429 -2.2234,-0.42949 -2.0141,-2.56037 -2.014,-2.56034 0,-1.73756 0,-1.73756 -1.408,-1.16861 -1.4081,-1.16861 -6.0425,2.5432 c -3.3232,1.39878 -9.5319,3.6953 -13.7968,5.1034 l -7.7547,2.56017 -9.0533,0.56627 -9.0535,0.56626 -5.2904,-1.75717 -5.2903,-1.75718 -3.8468,-3.47534 -3.8468,-3.47536 -1.5013,-5.05538 -1.5013,-5.05535 0,-4.75895 0,-4.75895 2.4157,-6.65508 2.4156,-6.65507 3.7318,-5.41823 3.7317,-5.4182 5.5679,-4.01985 5.5683,-4.01987 11.9645,-5.82874 11.9646,-5.82876 8.7832,-2.18998 8.7833,-2.18998 2.0939,-1.69548 2.0937,-1.69547 -1.1008,-9.69008 -1.1007,-9.69007 -1.7998,-3.68231 -1.7999,-3.6823 -7.9765,-0.28074 -7.9764,-0.28071 -7.9764,3.87731 -7.9765,3.87733 -7.4779,5.54831 c -4.1128,3.05156 -8.0508,6.14418 -8.7511,6.87247 -0.7003,0.72829 -2.3515,2.6702 -3.6696,4.31534 l -2.3964,2.99115 -1.1991,-1.17962 -1.199,-1.17964 2.6905,-6.79681 c 1.4797,-3.73822 4.1193,-9.199 5.8657,-12.13504 l 3.1753,-5.33827 5.8565,-4.91191 c 3.2212,-2.70155 7.7227,-6.00544 10.0032,-7.34199 2.2806,-1.33654 6.1511,-3.14336 8.6008,-4.0151 l 4.454,-1.58503 7.1755,-0.0402 7.1755,-0.0402 5.3331,2.44163 5.3332,2.44162 3.6532,3.20755 3.6533,3.20752 2.4185,5.16661 2.4187,5.16661 1.1337,5.38803 1.1337,5.38804 0.9599,14.0545 c 0.5279,7.73001 0.9665,17.98044 0.9747,22.77876 l 0.015,8.72423 0.9383,0 c 0.516,0 1.2154,-0.44867 1.5543,-0.99706 l 0.6162,-0.99707 2.0599,0 2.0599,0 -0.647,3.24044 c -0.3559,1.78225 -1.9822,6.09502 -3.6144,9.58396 l -2.9672,6.34354 0,1.88215 0,1.88218 1.0521,0 c 0.5785,0 3.6071,-1.31041 6.7302,-2.91202 8.3687,-4.29204 14.6254,-7.05853 15.9632,-7.05853 l 1.1809,0 0,0.92656 c 0,0.50959 -1.8258,3.67512 -4.057,7.03449 l -4.057,6.10795 -0.7685,4.86129 -0.7685,4.86129 -1.6155,2.46546 -1.6154,2.46549 -5.2745,2.994 -5.2744,2.99401 -5.4155,1.58875 c -2.9784,0.87382 -5.6705,1.52768 -5.9823,1.453 -0.3119,-0.0747 -1.5674,-0.32907 -2.7903,-0.56528 z m -35.6584,-22.69967 7.6597,-1.46554 5.6391,-2.57182 c 3.1014,-1.41452 7.3236,-3.73378 9.3824,-5.15393 l 3.7432,-2.58212 1.9898,-3.21949 1.9897,-3.21951 0,-4.1651 0,-4.16513 -2.4472,-2.44732 -2.4475,-2.44731 -1.9177,0 -1.9178,0 -1.4985,-2.24338 -1.4987,-2.24335 -1.9078,1.71402 -1.9081,1.71403 -6.7486,2.08445 -6.7487,2.08445 -3.6759,3.24915 c -2.0217,1.78703 -5.7905,4.74081 -8.3751,6.56394 l -4.6992,3.3148 -2.4298,3.59634 c -1.3362,1.97797 -2.7361,4.62781 -3.1106,5.88852 l -0.681,2.29219 1.6013,2.44381 1.6014,2.44382 5.3731,0 5.373,0 7.6595,-1.46552 z m -505.3441,18.0189 -3.6583,-3.65833 -2.4926,-4.9188 -2.4926,-4.91879 0,-2.46695 0,-2.46693 1.2415,-0.76722 1.2413,-0.7672 8.4799,-0.0393 8.4799,-0.0393 0.6004,-19.9411 0.6002,-19.94107 1.224,-5.22009 1.2241,-5.22008 -0.3287,-12.8989 -0.3289,-12.89889 -2.2082,-2.34745 -2.2081,-2.34745 0.5763,-2.20443 0.5765,-2.20445 -1.676,-0.64312 -1.6759,-0.64313 -2.1761,1.14513 -2.176,1.14512 -4.9853,-1.90661 -4.9851,-1.90663 -0.3397,-1.68761 -0.3395,-1.68759 2.2136,-2.35611 2.2133,-2.35612 8.5952,-3.15802 8.595,-3.15804 5.5464,-0.11777 5.5461,-0.11777 2.7627,1.81018 2.7627,1.8102 1.4124,3.38011 1.4123,3.38012 0,5.01729 0,5.0173 1.2462,-5.7e-4 1.2464,-5.3e-4 5.7021,-6.37637 5.702,-6.37636 4.3341,-2.09804 4.3339,-2.09805 4.589,0 c 2.5239,0 5.3329,0.28553 6.2424,0.63449 l 1.6535,0.63453 0.8958,2.35664 0.8962,2.35666 2.8293,0 2.8293,0 2.5557,2.74191 2.5558,2.74188 4.1117,8.51 4.1115,8.51 -0.057,1.95908 c -0.031,1.07747 -0.8575,5.02747 -1.8353,8.77776 l -1.7774,6.81868 -4.3967,1.96431 -4.3963,1.96433 -2.6491,2.53143 -2.6492,2.53144 -5.9519,-2.67109 -5.9519,-2.6711 -1.0827,-2.37614 -1.0825,-2.37617 0.8261,-0.51061 0.8262,-0.51064 1.7833,1.9706 1.7834,1.97061 2.6462,0 2.6458,0 1.6331,-1.24632 1.633,-1.24632 1.5342,-4.48675 c 0.8439,-2.4677 1.5408,-5.29231 1.5488,-6.2769 l 0.015,-1.79017 -2.4927,-2.49264 c -1.3709,-1.37095 -2.4926,-2.84269 -2.4926,-3.27056 0,-0.42788 -1.0384,-1.75349 -2.3075,-2.94585 l -2.3077,-2.16798 -5.447,0 -5.447,0 -2.2377,1.56748 -2.2381,1.5675 -2.8304,5.66114 c -1.5567,3.11364 -3.5538,7.90453 -4.438,10.64644 -0.8843,2.74189 -2.7543,11.70569 -4.1556,19.91953 l -2.5482,14.93426 -0.1,7.7273 -0.1,7.72729 1.7085,2.60732 1.7082,2.60732 4.285,1.89544 4.2849,1.89544 0.5425,2.0741 0.5424,2.07413 2.045,-1.09444 2.045,-1.09444 1.9554,1.22125 1.9556,1.22126 2.4774,-1.32584 2.4773,-1.32583 2.8188,0.70358 c 1.5501,0.38696 3.4916,1.28136 4.3143,1.98756 0.8225,0.70618 2.7386,1.57944 4.2579,1.94055 l 2.7624,0.65658 2.0807,-1.11356 2.0807,-1.11355 0.954,0.95411 0.954,0.95411 -1.7082,1.7083 -1.7083,1.70832 -2.0212,-0.52854 -2.0212,-0.52854 -2.5663,1.38107 c -3.8993,2.09858 -12.0458,4.50645 -15.2465,4.50645 l -2.8532,0 -4.198,2.17281 -4.1975,2.1728 -10.9679,0.73842 c -6.0319,0.40609 -15.2662,1.05958 -20.5201,1.45218 l -9.5527,0.71381 -3.6584,-3.65836 z m 578.5252,0.75461 c -1.4242,-1.56787 -3.331,-3.96006 -4.2376,-5.31593 l -1.6485,-2.46521 0,-2.76932 0,-2.76931 1.9548,-1.95484 1.9549,-1.95484 5.5217,-1.60521 5.5217,-1.60521 0.5684,-2.26476 0.5685,-2.26476 -0.3178,-35.8022 -0.3179,-35.8022 -2.0481,-3.4863 -2.0478,-3.48631 -3.4359,-2.31537 -3.4358,-2.31538 0,-1.1777 0,-1.1777 9.472,-3.21504 c 5.2097,-1.76827 10.3694,-3.22646 11.4663,-3.2404 l 1.9941,-0.0252 2.5836,3.2404 2.5835,3.24039 1.2759,3.98822 c 0.7016,2.19353 1.6554,4.39959 2.1194,4.90239 l 0.8436,0.91418 7.2616,-7.54257 7.2616,-7.54255 4.2377,-1.13721 4.2374,-1.13722 3.7608,1.01266 3.7607,1.01268 4.2306,3.11123 4.2307,3.11126 2.3799,4.1402 c 1.309,2.27713 2.6753,5.55873 3.036,7.2925 l 0.6563,3.15226 -1.1242,6.31974 c -0.6182,3.47585 -2.2561,10.06545 -3.6398,14.64353 l -2.5158,8.32381 -5.897,6.04536 -5.8971,6.04537 -0.6126,-0.61246 -0.6123,-0.61246 1.7057,-6.96085 1.7059,-6.96085 -0.5672,-10.21314 -0.5674,-10.21315 -1.0064,-1.00642 -1.0065,-1.00643 -5.5365,1.74529 -5.5367,1.74529 -3.0706,4.17402 c -1.6886,2.2957 -3.69,5.61834 -4.4475,7.38368 l -1.3771,3.20966 -2.4921,16.4194 -2.492,16.4194 0,6.09459 0,6.09459 1.4586,2.82082 c 0.8024,1.55146 2.0362,3.03652 2.7419,3.30016 0.7059,0.26362 6.6672,0.15866 13.2477,-0.23325 l 11.9648,-0.71257 0.9012,0.80659 0.9012,0.8066 -2.7335,3.58389 c -1.5035,1.97113 -4.1873,4.5368 -5.9641,5.70149 l -3.2305,2.11763 -2.1554,3.28822 -2.1556,3.28823 -2.6075,1.70858 -2.6077,1.70859 -9.6166,0.72151 c -5.2891,0.39685 -13.8792,1.03638 -19.0886,1.42115 l -9.4721,0.69962 -2.5889,-2.8507 z m 85.1649,1.00803 c -1.1954,-1.02555 -3.3268,-3.60976 -4.7359,-5.74271 l -2.5624,-3.87809 0,-1.93168 0,-1.93168 2.7934,-2.7934 2.7933,-2.79342 4.1286,-0.69752 4.1287,-0.6975 0.9624,-1.16839 0.9625,-1.16837 0.2124,-34.8969 0.2126,-34.8969 -0.9958,-4.77193 -0.9953,-4.77194 -1.7557,-1.94002 -1.7557,-1.93999 -5.0966,-1.89852 -5.0962,-1.89852 -0.272,-1.36009 -0.2719,-1.36006 12.6416,-2.25593 12.6419,-2.25591 2.5858,1.64468 c 1.4223,0.90457 3.5796,2.81708 4.7938,4.25003 l 2.2077,2.60533 0.6452,3.24044 0.6452,3.24043 1.1353,-0.007 1.1353,-0.007 4.6851,-5.87598 4.6854,-5.87596 5.4812,-2.68177 5.4813,-2.68174 3.2937,0.70953 c 1.8116,0.39025 4.6398,1.37973 6.2849,2.19886 3.8387,1.91132 8.2886,6.04838 9.9744,9.27328 l 1.3215,2.52784 -1.4231,12.92651 -1.4231,12.92652 -2.9528,4.48676 c -1.6241,2.4677 -3.7205,5.94493 -4.6589,7.72715 l -1.7056,3.24044 -1.6144,0 -1.6141,0 -0.096,-8.22571 -0.097,-8.2257 -1.6954,-4.21833 -1.6952,-4.21834 -3.2575,-2.01325 -3.2577,-2.01324 -2.5013,0 -2.5014,0 -1.9944,4.73599 c -1.0968,2.60481 -2.6965,6.97939 -3.5549,9.72129 -1.6929,5.40733 -5.1666,26.59812 -6.2316,38.01712 l -0.6633,7.10848 1.1649,3.53011 c 0.6409,1.94157 1.703,3.9696 2.3605,4.50678 l 1.1953,0.97661 5.4838,-0.98123 c 3.0161,-0.53969 8.1759,-1.10226 11.466,-1.2502 3.2904,-0.14791 6.7221,-0.58924 7.6265,-0.98067 l 1.6439,-0.71172 0.7057,1.14209 0.706,1.14208 -6.5543,6.30142 -6.5545,6.3014 -1.5576,3.89284 -1.5577,3.89284 -3.1913,1.88524 -3.1916,1.88523 -9.4919,0.70436 c -5.2204,0.38741 -13.5298,1.02797 -18.4652,1.42346 l -8.9735,0.71911 -2.1737,-1.86461 z m 113.3452,0.0845 -5.4838,-1.50594 -5.2983,-3.62732 -5.2981,-3.62734 -3.9091,-4.57069 -3.9088,-4.57072 -2.9053,-5.98231 -2.9054,-5.98233 -1.0984,-5.28361 -1.0986,-5.28362 0.02,-9.17367 0.02,-9.17367 0.9698,-6.70355 0.9694,-6.70357 2.1409,-6.25812 c 2.8182,-8.23703 7.389,-17.3175 11.0659,-21.98341 l 2.9633,-3.76059 6.2535,-4.46234 c 3.4395,-2.4543 8.7054,-5.58485 11.7021,-6.95679 l 5.4486,-2.49443 7.3904,-0.60241 7.3903,-0.60242 6.9572,1.63681 6.9571,1.63681 4.1656,2.44114 4.1653,2.44113 3.0828,3.8922 3.0825,3.89218 3.4611,7.33787 c 1.9035,4.03582 4.1752,10.02992 5.0486,13.32018 l 1.5876,5.98234 0.5572,9.47201 0.5573,9.47201 -1.6131,8.47497 c -0.8872,4.66123 -2.0733,10.1194 -2.6355,12.12928 l -1.0223,3.65435 -3.4663,2.04509 -3.4661,2.0451 0,1.54273 c 0,0.84852 0.5534,2.42894 1.2298,3.51207 l 1.2299,1.9693 -1.9776,3.68637 c -1.0877,2.02752 -4.0687,5.97752 -6.6245,8.77781 l -4.6469,5.09143 -5.3237,2.93903 -5.3237,2.93905 -12.4632,0.24175 -12.4632,0.24177 -5.4836,-1.50593 z m 23.8859,-20.64391 5.4989,-1.24631 3.815,-3.80097 3.8153,-3.80097 1.9379,-4.52123 1.9381,-4.52121 1.0988,-7.08197 1.0989,-7.08196 -0.6632,-14.00894 c -0.3647,-7.70492 -0.6446,-16.09321 -0.6218,-18.64067 l 0.04,-4.63173 -2.6932,-1.7646 c -1.4812,-0.97052 -5.0809,-3.70949 -7.9994,-6.0866 l -5.3062,-4.32203 -3.2698,0 -3.27,0 -5.119,1.52017 -5.119,1.52015 -3.2116,2.70248 -3.2117,2.70246 -3.7923,5.86723 -3.7921,5.86721 -0.6084,3.61963 c -0.3345,1.99081 -0.8175,4.38492 -1.0729,5.32025 -0.2555,0.93532 -2.2354,3.84349 -4.3997,6.46258 l -3.9351,4.76197 0,1.54155 0,1.54153 1.8401,1.57562 1.8403,1.57562 0.6849,5.82789 0.685,5.82787 4.3102,9.09909 4.3104,9.09906 2.9223,2.08085 c 3.4491,2.45592 8.4783,4.02734 13.2893,4.15235 1.9032,0.0495 5.9349,-0.47091 8.9592,-1.15639 z m 89.0005,19.61431 -5.1576,-2.57015 -2.5638,-3.04678 c -1.41,-1.67573 -3.3987,-4.68363 -4.4193,-6.68422 l -1.8558,-3.63745 -1.0879,-5.88454 -1.0876,-5.88458 -0.07,-26.48806 -0.07,-26.4881 -0.7797,-1.99409 -0.7797,-1.99411 -7.1955,0 -7.1955,0 -3.9194,-4.19887 -3.9194,-4.19887 0,-2.54479 0,-2.54476 -1.1544,-1.84851 -1.1542,-1.84852 0.5434,-1.41641 0.5434,-1.41646 5.8822,-3.08328 5.8821,-3.08331 5.753,-1.28746 5.7531,-1.28746 1.1897,-2.07205 1.1896,-2.07204 -0.2557,-20.26805 -0.2559,-20.26805 -1.0598,-1.98014 -1.0596,-1.98013 1.1884,-1.43184 1.1883,-1.43185 1.9907,0 1.991,0 5.8344,3.54423 5.8344,3.54422 2.0986,2.94734 2.0988,2.94735 0.5804,15.10252 0.5805,15.1025 1.852,1.85186 1.8517,1.85187 2.7267,-0.65518 c 1.4998,-0.36036 4.2971,-1.43235 6.2163,-2.38226 l 3.4898,-1.72707 7.8326,-0.71905 7.8326,-0.71903 3.6336,-1.5482 3.6333,-1.54823 5.2239,-0.10166 5.2238,-0.10166 0.4886,1.27383 0.4885,1.27384 -1.7241,1.40537 c -0.9484,0.77294 -3.8286,3.11611 -6.4007,5.20703 -2.5721,2.0909 -8.4823,7.20126 -13.134,11.35636 l -8.4572,7.55471 -8.8013,3.3284 c -4.8407,1.83063 -9.4743,3.94254 -10.297,4.69315 l -1.4954,1.36473 -0.3211,27.63431 -0.3214,27.63431 0.6462,5.26707 0.6465,5.26706 2.3135,2.68984 2.3136,2.68984 3.0648,-1.47607 3.0646,-1.47602 11.3489,-11.10314 c 6.2418,-6.1067 12.3215,-11.62373 13.5105,-12.26003 l 2.1616,-1.15689 0.8511,0.52607 0.8513,0.52606 -0.806,4.25605 c -0.4434,2.34083 -1.5225,5.95726 -2.3982,8.03651 l -1.592,3.78046 -3.0944,2.76487 -3.0945,2.76485 1.154,2.15613 1.1538,2.15614 -1.5655,3.76172 -1.5657,3.76173 -4.1902,4.36145 c -2.3047,2.39878 -6.1851,5.65167 -8.6232,7.22864 l -4.4327,2.86719 -5.5912,0 -5.5912,0 -5.1577,-2.57016 z"
       id="path4376"
       inkscape:connector-curvature="0" />
  </g>
</svg>
