<?xml version="1.0" encoding="UTF-8" standalone="no"?>
<!-- Created with Inkscape (http://www.inkscape.org/) -->

<svg
   xmlns:dc="http://purl.org/dc/elements/1.1/"
   xmlns:cc="http://creativecommons.org/ns#"
   xmlns:rdf="http://www.w3.org/1999/02/22-rdf-syntax-ns#"
   xmlns:svg="http://www.w3.org/2000/svg"
   xmlns="http://www.w3.org/2000/svg"
   xmlns:xlink="http://www.w3.org/1999/xlink"
   xmlns:sodipodi="http://sodipodi.sourceforge.net/DTD/sodipodi-0.dtd"
   xmlns:inkscape="http://www.inkscape.org/namespaces/inkscape"
   id="svg2"
   version="1.1"
   inkscape:version="0.91 r"
   width="2481"
   height="663"
   sodipodi:docname="Pepper-and-Carrot_by-David-Revoy_E02P00.svg">
  <metadata
     id="metadata8">
    <rdf:RDF>
      <cc:Work
         rdf:about="">
        <dc:format>image/svg+xml</dc:format>
        <dc:type
           rdf:resource="http://purl.org/dc/dcmitype/StillImage" />
        <dc:title />
      </cc:Work>
    </rdf:RDF>
  </metadata>
  <defs
     id="defs6" />
  <sodipodi:namedview
     pagecolor="#ffffff"
     bordercolor="#666666"
     borderopacity="1"
     objecttolerance="10"
     gridtolerance="10"
     guidetolerance="10"
     inkscape:pageopacity="0"
     inkscape:pageshadow="2"
     inkscape:window-width="1366"
     inkscape:window-height="705"
     id="namedview4"
     showgrid="false"
     inkscape:zoom="0.59975816"
     inkscape:cx="1240.5"
     inkscape:cy="331.5"
     inkscape:window-x="-8"
     inkscape:window-y="-8"
     inkscape:window-maximized="1"
     inkscape:current-layer="layer1" />
  <g
     inkscape:groupmode="layer"
     id="layer2"
     inkscape:label="artwork"
     sodipodi:insensitive="true">
    <image
       sodipodi:absref="/home/deevad/peppercarrot/webcomics/New/lang/si/../gfx_Pepper-and-Carrot_by-David-Revoy_E02P00.png"
       xlink:href="../gfx_Pepper-and-Carrot_by-David-Revoy_E02P00.png"
       y="0"
       x="-1.6728083e-06"
       id="image10"
       height="663"
       width="2481" />
  </g>
  <g
     inkscape:groupmode="layer"
     id="layer1"
     inkscape:label="text">
    <flowRoot
       xml:space="preserve"
       id="flowRoot3063"
       style="font-style:normal;font-variant:normal;font-weight:normal;font-stretch:normal;font-size:72px;line-height:125%;font-family:Arial;-inkscape-font-specification:Arial;letter-spacing:0px;word-spacing:0px;display:inline;fill:#562f13;fill-opacity:1;stroke:none"
       transform="matrix(0.91107678,0,0,0.90600012,-73.767784,132.18686)"><flowRegion
         id="flowRegion3065"><rect
           id="rect3067"
           width="2715.5891"
           height="110.01318"
           x="92.642677"
           y="425.30325"
           style="font-size:72px;fill:#562f13;fill-opacity:1" /></flowRegion><flowPara
         id="flowPara3069"
         style="font-style:normal;font-variant:normal;font-weight:bold;font-stretch:normal;font-size:88px;font-family:BhashitaComplex;-inkscape-font-specification:'BhashitaComplex Bold';text-align:center;text-anchor:middle;fill:#562f13;fill-opacity:1">2වන කතාංගය : දේදුනු මායා වඩි</flowPara></flowRoot>    <path
       style="display:inline;fill:#562f13;fill-opacity:1"
       d="m 1301.6023,469.38678 c -0.2093,-0.20936 0.4384,-0.72758 1.4394,-1.15161 1.7442,-0.73892 1.7748,-0.80406 0.7384,-1.56914 -0.5948,-0.43905 -1.8004,-0.79822 -2.679,-0.79822 -0.8789,0 -1.4617,-0.22018 -1.2955,-0.48928 0.1664,-0.26909 -0.5083,-0.66464 -1.499,-0.87897 l -1.8016,-0.38968 1.3929,-0.57512 c 0.7658,-0.31627 3.2545,-1.05204 5.5301,-1.63488 2.2755,-0.58295 6.8616,-2.31019 10.1909,-3.83844 3.3295,-1.52813 6.2652,-2.77845 6.5237,-2.77845 0.2585,0 2.8266,-2.23011 5.7067,-4.95595 5.9859,-5.66506 7.6304,-8.45778 9.3677,-15.90925 1.197,-5.13378 1.516,-17.02125 0.5909,-22.0311 -1.1956,-6.47601 -1.7803,-8.48748 -3.8092,-13.10319 l -2.1786,-4.95701 1.8658,-1.75974 c 1.4075,-1.32738 1.8659,-2.22625 1.8659,-3.65909 0,-4.75309 -5.6041,-7.12794 -8.9426,-3.78956 l -1.1147,1.11482 -2.4128,-1.41402 c -6.8082,-3.98985 -15.0503,-4.19528 -22.0976,-0.55092 -2.8139,1.45494 -5.4613,3.42303 -6.824,5.07252 -3.1595,3.82429 -12.6465,16.674 -12.6465,17.12905 0,0.14089 2.0683,1.38467 4.5961,2.76431 7.1777,3.91713 9.0186,5.46805 10.8024,9.10107 1.4899,3.03404 1.5913,3.67627 1.5684,9.92897 -0.022,5.84254 -0.2194,7.23691 -1.5684,11.06214 -3.2553,9.2305 -10.4095,16.58889 -20.6838,21.27452 -6.0634,2.76525 -12.9617,4.15113 -20.668,4.15229 -11.3009,10e-4 -20.52,-2.3259 -27.8931,-7.04252 -2.7879,-1.78336 -2.9141,-1.96926 -2.8268,-4.1609 0.075,-1.87888 -0.1881,-2.53456 -1.4533,-3.62284 -0.8494,-0.73074 -2.0014,-1.32866 -2.5595,-1.32866 -1.3901,0 -1.897,-0.80896 -3.1428,-5.01394 -0.8629,-2.9135 -1.0681,-5.30846 -1.0497,-12.25601 0.027,-10.07967 0.7063,-13.15838 4.584,-20.77504 1.984,-3.89667 3.5136,-5.91784 7.4842,-9.8884 2.7448,-2.7449 5.2121,-4.99067 5.4831,-4.99067 0.271,0 1.6677,-0.74524 3.1041,-1.65604 2.1857,-1.38619 2.4386,-1.71251 1.5514,-2.002 -5.078,-1.65721 -8.1469,-3.90345 -9.8443,-7.20523 -0.8075,-1.57045 -1.219,-3.66084 -1.3935,-7.08013 -0.2187,-4.28308 -0.104,-5.08432 0.9788,-6.83635 2.661,-4.30541 7.5202,-6.39873 14.8817,-6.41089 8.4894,-0.014 16.8795,3.86428 16.8795,7.80246 0,1.82825 1.2751,3.33288 2.8246,3.33288 0.5907,0 2.1369,1.03181 3.4365,2.29301 2.5111,2.43682 4.1252,3.27793 6.291,3.27793 2.4565,0 5.2097,1.73589 5.8553,3.69183 0.9221,2.79412 -0.7488,5.11378 -4.4801,6.21948 -2.4698,0.73192 -8.6793,2.46839 -13.3703,3.73883 -17.8174,4.82547 -25.5928,9.64065 -29.7519,18.42475 -1.9525,4.12349 -2.2856,6.09251 -2.2552,13.32826 0.022,5.61338 0.1559,6.37172 1.5784,9.02986 3.9949,7.46596 12.6197,11.30183 25.4152,11.30347 9.5646,8.2e-4 17.7994,-2.74209 23.6252,-7.87015 2.8511,-2.50977 5.3435,-7.09649 5.3435,-9.83426 0,-0.91314 0.4863,-2.06081 1.1141,-2.62892 1.4063,-1.27266 1.4842,-4.40725 0.1393,-5.59959 -0.5363,-0.47539 -2.3537,-1.79154 -4.039,-2.92483 l -3.0639,-2.06034 -6.3159,0 c -5.9653,0 -6.375,-0.0737 -7.3814,-1.31522 -0.5861,-0.72338 -1.0659,-1.64049 -1.0659,-2.03801 0,-0.74454 2.9001,-4.52078 8.3348,-10.85275 1.7094,-1.99159 4.5429,-5.75193 6.2966,-8.35641 10.8221,-16.07339 20.9828,-24.07356 33.654,-26.49786 9.8935,-1.89292 20.1284,-0.30376 27.758,4.31009 2.9672,1.79423 8.6247,7.00202 8.6505,7.96286 0.013,0.31685 0.7606,1.56086 1.6713,2.76443 0.9108,1.20367 1.6558,2.52252 1.6558,2.93091 0,0.40828 0.4638,1.80511 1.0305,3.10396 2.1646,4.96133 2.8691,9.46714 2.8691,18.35249 0,5.81671 -0.2682,9.5954 -0.8355,11.77395 -0.4596,1.76453 -0.8356,3.65605 -0.8356,4.20322 0,0.54718 -0.7522,1.66504 -1.6713,2.48406 -1.7394,1.54964 -2.0231,2.56777 -1.1634,4.174 0.3705,0.69251 -0.1239,2.22589 -1.8263,5.67359 -2.0316,4.11238 -4.0225,7.31362 -10.3806,16.69307 -2.7515,4.05871 -5.7244,7.25129 -6.7523,7.25129 -0.576,0 -1.0471,0.25068 -1.0471,0.55712 0,0.60728 1.607,0.76886 5.7286,0.57641 1.4656,-0.0678 4.1693,0.0503 6.0084,0.26365 2.9492,0.34222 3.3038,0.51269 3.0078,1.44523 -0.2971,0.93699 -0.03,1.05929 2.3482,1.07495 5.1283,0.0339 1.2281,1.37485 -7.7171,2.6535 -4.6971,0.67142 -11.6264,1.97457 -15.3984,2.89589 -5.8688,1.43351 -7.9248,1.67514 -14.2523,1.67514 -4.0669,0 -7.5656,-0.1713 -7.775,-0.38068 z m -53.0415,-81.45691 c 0.1704,-0.27593 2.1908,-1.08559 4.4896,-1.79914 2.2987,-0.71356 4.1794,-1.44173 4.1794,-1.61816 0,-0.71998 -6.2132,-7.78818 -8.134,-9.25306 -1.8736,-1.42921 -2.4876,-1.57653 -6.5991,-1.58331 -3.6212,-0.0117 -4.8649,0.21665 -6.1813,1.10663 l -1.6478,1.11424 3.8995,0.27862 c 4.0512,0.28925 5.5406,0.97685 7.4935,3.45962 0.9291,1.18123 1.0953,2.08209 0.943,5.11508 -0.1365,2.7228 0,3.6813 0.5311,3.6813 0.3937,0 0.8556,-0.22577 1.0261,-0.50182 z m -134.2256,78.83708 c -3.4483,-0.83858 -7.5883,-3.07728 -10.7992,-5.83948 l -2.4424,-2.1015 1.4678,-1.46756 c 2.3885,-2.38865 1.8109,-5.7932 -1.1942,-7.03804 -1.106,-0.45808 -2.0321,-0.49059 -3.0416,-0.10639 -1.3244,0.50357 -1.5088,0.39623 -2.1102,-1.22823 -0.3625,-0.97908 -0.7364,-4.83985 -0.831,-8.57973 -0.1549,-6.1318 -0.022,-7.28064 1.357,-11.69888 0.8409,-2.69475 2.0988,-6.15297 2.7956,-7.68495 0.6966,-1.53199 1.612,-3.58146 2.0337,-4.55422 l 0.767,-1.76886 -1.5219,0.45914 c -0.8374,0.25254 -2.3962,0.8376 -3.4642,1.30025 -1.2723,0.55104 -2.2653,0.66807 -2.8795,0.33941 -0.6515,-0.34876 -1.8431,-0.0807 -3.9074,0.88087 -1.6336,0.76056 -3.5039,1.38514 -4.1565,1.38818 -0.6525,0 -2.9018,0.86882 -4.9985,1.92413 -2.0967,1.05519 -3.893,1.83784 -3.9918,1.73904 -0.098,-0.0982 1.4632,-1.48673 3.4712,-3.08443 2.0077,-1.59769 3.9618,-3.32435 4.3425,-3.83703 2.8206,-3.80045 11.5542,-9.27154 23.2842,-14.58631 7.5594,-3.42502 8.7674,-3.98225 18.354,-8.46795 2.9108,-1.36187 5.6467,-2.59186 6.0795,-2.73321 1.0561,-0.34456 -6.4887,-7.81263 -9.186,-9.09265 -2.5383,-1.2045 -5.1201,-0.78137 -7.2442,1.18707 l -1.573,1.45775 2.422,0.94692 c 3.1642,1.23723 3.9307,2.39262 3.9307,5.92532 0,2.512 -0.2367,3.15155 -1.7141,4.62881 -1.5065,1.50662 -2.0924,1.71415 -4.838,1.71415 -6.5357,0 -10.1669,-3.59853 -10.1553,-10.06425 0.013,-5.11542 3.6777,-11.6624 6.535,-11.6624 1.9644,0 3.3137,-0.90308 3.7103,-2.4837 0.4575,-1.82242 2.1499,-2.26788 8.3097,-2.18744 l 4.9117,0.0643 7.0658,6.9839 c 5.6719,5.60602 7.5271,7.10726 9.4038,7.6093 2.7098,0.7249 4.6258,2.83856 4.6258,5.10269 0,2.79272 -5.1593,6.45964 -14.875,10.5726 -7.8939,3.34166 -11.6268,5.72656 -16.1418,10.31305 -5.5306,5.61818 -8.109,9.75768 -10.7548,17.26585 -0.8594,2.43892 -0.8971,3.10793 -0.2771,4.91152 1.3011,3.78431 4.0904,5.94403 10.8046,8.366 8.4823,3.05976 16.9151,1.46522 22.0703,-4.17318 1.2357,-1.35135 3.9508,-4.90322 6.0333,-7.89306 2.0826,-2.98973 4.2847,-5.70248 4.8938,-6.02833 1.5967,-0.85456 3.1561,0.37227 5.4583,4.29477 4.2706,7.27562 5.6776,9.06658 8.2838,10.54432 9.0261,5.11823 17.9873,4.72772 23.9651,-1.04432 3.4455,-3.32681 4.5527,-5.75988 4.5368,-9.96837 -0.013,-1.92717 -0.2659,-4.50675 -0.5749,-5.73241 -0.3089,-1.22566 -0.689,-2.82043 -0.8445,-3.54415 -1.0109,-4.7006 -7.5701,-12.77057 -12.6097,-15.51348 -1.7475,-0.95101 -2.6705,-1.82054 -2.6705,-2.51562 0,-2.06081 -1.0686,-3.21749 -2.9722,-3.21749 -1.0004,0 -2.0769,0.25804 -2.3922,0.57337 -0.3929,0.39297 -2.5739,-0.23033 -6.9358,-1.982 -6.1625,-2.47494 -9.4265,-4.64647 -9.4265,-6.2714 0,-1.19772 3.2017,-3.93104 6.6553,-5.68155 1.7018,-0.86251 3.7207,-2.25536 4.4866,-3.09519 0.7659,-0.83982 3.2267,-2.99581 5.4681,-4.79109 3.1015,-2.48417 4.5108,-3.26425 5.8967,-3.26425 1.3119,0 2.2283,-0.45681 3.276,-1.63266 1.7667,-1.98282 4.8429,-2.57303 10.7911,-2.07016 10.2303,0.86473 15.1273,7.26813 14.5487,19.0229 -0.2759,5.60497 -2.0558,10.54712 -4.3859,12.17919 -1.9346,1.35509 -4.5286,1.15913 -6.0468,-0.4568 -1.3821,-1.47119 -1.3802,-3.08245 0.013,-8.6583 1.6,-6.41813 1.1789,-9.55179 -1.575,-11.71794 -3.1537,-2.48066 -10.2755,-0.63218 -16.8409,4.37112 -2.2979,1.75121 -4.1457,3.43133 -4.1062,3.73345 0.04,0.30212 1.5559,1.06034 3.3694,1.6848 1.8138,0.62458 4.0763,1.68994 5.028,2.36772 0.9517,0.67766 1.9648,1.23209 2.2515,1.23209 1.1341,0 11.3321,10.74015 14.102,14.85206 10.2283,15.18376 12.0638,28.44527 5.7233,41.35297 -2.414,4.91421 -7.9433,11.02871 -12.0855,13.36428 -5.4786,3.08924 -16.1158,4.6227 -16.8915,2.43512 -0.996,-2.80915 -3.3911,-3.71737 -5.2844,-2.00393 -0.9474,0.85748 -1.1729,0.8507 -3.2785,-0.0994 -3.1568,-1.42348 -7.6091,-6.47729 -10.4578,-11.87075 -1.3257,-2.50966 -2.6436,-4.41883 -2.9288,-4.24263 -0.2853,0.17631 -0.9306,1.11938 -1.4341,2.09577 -1.5401,2.98575 -7.216,10.12457 -9.9946,12.57027 -3.2482,2.85925 -8.4475,5.45258 -12.4166,6.19337 -3.9469,0.73661 -10.7859,0.63495 -14.2692,-0.21209 z m 508.9055,-0.10944 c -12.4653,-3.28863 -22.342,-13.95138 -25.6312,-27.67097 -2.1178,-8.8339 -1.2622,-23.62669 2.0304,-35.10191 4.2673,-14.87276 12.916,-29.53693 24.6386,-41.77551 l 3.6019,-3.76046 -7.9129,0 c -8.9095,0 -11.5466,-0.77762 -13.1495,-3.87737 -2.7227,-5.2652 0.2474,-7.62345 10.3281,-8.20021 l 6.0359,-0.34526 1.9985,1.75471 c 1.195,1.04923 2.6068,1.7539 3.5112,1.75261 1.6626,0 5.1338,-1.87876 5.1338,-2.77518 0,-0.80124 8.2053,-0.6358 10.5541,0.21279 2.6003,0.93956 4.0328,3.042 4.3548,6.39242 0.4441,4.62413 0.04,5.29092 -5.852,9.64216 -11.0393,8.15309 -20.2998,19.27943 -26.1943,31.47159 -2.5386,5.25129 -2.5459,5.28332 -2.803,12.40332 -0.2971,8.22628 0.4513,12.55976 3.4476,19.96328 1.0969,2.71018 1.6415,4.7455 1.3226,4.94262 -0.2982,0.18427 -0.9048,1.20333 -1.3483,2.2646 -1.6116,3.85726 0.9442,7.40504 5.3347,7.40504 1.9534,0 2.546,0.34234 4.8441,2.79927 1.4401,1.53959 4.0848,3.69007 5.8768,4.7787 2.6991,1.63967 3.9506,2.02936 7.2923,2.27103 4.0241,0.29089 4.0399,0.28657 6.4407,-1.79166 1.3237,-1.14569 4.1301,-4.65161 6.2364,-7.79088 2.1061,-3.13926 4.5288,-6.25784 5.3837,-6.93024 1.9638,-1.54473 4.3803,-1.18731 6.2341,0.92179 1.1891,1.35263 1.2942,1.89139 1.0613,5.43228 -0.6778,10.2996 -10.7983,20.3836 -25.1535,25.06269 -5.1232,1.66982 -12.4969,1.89949 -17.6169,0.54875 z m -81.3356,-18.71944 c -1.3791,-0.28621 -3.5099,-0.59067 -4.7354,-0.67649 -3.7848,-0.26505 -6.4065,-0.98212 -6.4065,-1.75203 0,-0.40489 -0.5153,-0.89968 -1.1449,-1.0995 -1.5687,-0.49784 -1.1267,-1.38151 1.3972,-2.79459 3.207,-1.79517 8.7348,-6.37511 8.3826,-6.94485 -0.1704,-0.2757 0.1582,-0.75156 0.7299,-1.05765 0.5719,-0.30597 5.7686,-7.14069 11.5483,-15.18809 13.1435,-18.30058 13.3065,-18.6767 12.8916,-29.71453 -0.3641,-9.68531 -1.9132,-15.85219 -6.1337,-24.4194 l -2.9732,-6.03535 0.989,-2.04256 c 1.1992,-2.47751 0.8733,-4.57784 -1.0015,-6.45251 -1.571,-1.57104 -3.0953,-1.94647 -5.4192,-1.33475 -1.493,0.39308 -2.0012,0.0667 -6.2631,-4.02516 -7.7301,-7.42129 -16.3063,-12.2318 -26.3735,-14.79337 -3.4052,-0.86636 -6.0845,-1.05612 -14.4842,-1.02549 -9.7528,0.0351 -10.6512,0.13142 -16.7262,1.78441 -7.8791,2.14394 -15.4083,5.59643 -21.8824,10.03431 l -4.9042,3.36177 1.9624,1.49691 c 2.7469,2.09506 8.011,3.62483 14.469,4.20498 7.2065,0.64714 14.1647,2.42092 19.0035,4.84429 18.5952,9.31292 25.3765,20.93476 24.624,42.20121 -0.3104,8.7792 -1.3607,13.24561 -4.3568,18.52893 -5.507,9.71138 -14.566,16.05095 -26.5876,18.6062 -4.4174,0.93886 -6.623,1.08992 -12.3424,0.84497 -6.2744,-0.26867 -7.3772,-0.47773 -11.1418,-2.11237 -6.0476,-2.62564 -10.8025,-6.58918 -14.6255,-12.19122 -0.9409,-1.37871 -1.7802,-2.59583 -1.8646,-2.70468 -0.085,-0.10874 -0.9798,0.76862 -1.9889,1.94985 -4.5097,5.27864 -10.3915,10.98241 -12.3737,11.99913 -6.9596,3.56988 -17.483,3.64213 -25.7762,0.17701 -1.9144,-0.79984 -1.9771,-0.90471 -1.1117,-1.86076 1.7349,-1.91699 1.0667,-4.70948 -1.4361,-6.00389 -1.3514,-0.6987 -1.9586,-0.73565 -3.2566,-0.19806 -0.8776,0.3635 -1.7462,1.1354 -1.9301,1.7152 -0.184,0.57992 -0.6311,1.0532 -0.9936,1.05192 -0.3622,-9.4e-4 -3.7008,-2.8264 -7.4188,-6.27807 -8.681,-8.05897 -8.9653,-8.2133 -12.2125,-6.63572 -5.6377,2.73894 -9.5768,0.56215 -9.8111,-5.42175 -0.1299,-3.31722 1.7403,-5.76211 12.8265,-16.76521 10.7078,-10.62732 22.9272,-21.2896 44.1632,-38.53523 l 13.7214,-11.14316 -1.7891,-5.65864 c -3.813,-12.06168 -7.0365,-15.75327 -14.2852,-16.36101 -3.1469,-0.26377 -4.2397,-0.60342 -5.2757,-1.63955 -1.4612,-1.46102 -2.3388,-1.59746 -4.3578,-0.67755 -4.0778,1.85796 -2.4808,7.72704 2.1026,7.72704 1.1704,0 1.4665,0.33299 1.7795,2.00083 0.5859,3.12395 -0.1521,7.43241 -1.665,9.71863 -0.8129,1.22835 -2.4302,2.58531 -3.9696,3.33055 -2.2483,1.08828 -3.1892,1.21701 -6.9923,0.95639 -3.8577,-0.26447 -4.6667,-0.51689 -6.6229,-2.06607 -3.1623,-2.50463 -4.5303,-5.87972 -4.8831,-12.0487 -0.3553,-6.20791 0.6074,-9.60639 3.7235,-13.14669 4.2095,-4.78221 11.4127,-7.10737 22.0345,-7.11275 10.0121,0 15.3202,2.08139 21.7722,8.55798 4.2592,4.27525 6.0589,7.0094 8.8687,13.47278 l 1.805,4.15213 3.5539,-2.62552 c 13.5985,-10.04683 29.4756,-17.77048 43.8112,-21.31264 l 5.1033,-1.26097 1.4892,1.17129 c 2.1802,1.71508 4.2931,1.5148 6.0503,-0.57337 l 1.468,-1.74478 10.1413,0.31405 c 7.2698,0.22506 11.482,0.62972 14.8764,1.42921 21.7409,5.12045 34.5841,17.43433 40.8893,39.20424 2.7396,9.45872 3.2366,13.70579 3.5296,30.15871 0.2431,13.64604 0.1576,15.97588 -0.7062,19.21967 -1.9029,7.14841 -6.7084,15.57334 -15.9757,28.00916 -3.3602,4.50909 -6.0648,8.38038 -6.01,8.60299 0.054,0.22262 -0.299,0.62774 -0.786,0.90028 -0.4871,0.27254 -0.8856,0.85912 -0.8856,1.30353 0,0.85806 0.063,0.89056 2.2285,1.1479 4.6809,0.55619 6.4618,1.06326 7.279,2.07239 0.8395,1.0366 1.1431,1.07085 4.1484,0.46732 4.052,-0.81375 8.4449,-0.84088 8.9306,-0.0549 0.2025,0.32784 0.8812,0.78581 1.5082,1.01766 1.049,0.38817 0.984,0.51783 -0.8191,1.6323 -1.1935,0.73741 -2.8694,1.21058 -4.2885,1.21058 -1.2813,0 -3.0065,0.34292 -3.834,0.76207 -2.2449,1.13704 -10.0437,2.72526 -11.5391,2.34995 -0.7181,-0.18017 -4.7002,0.29943 -8.8494,1.06572 -8.082,1.4927 -8.7472,1.5314 -12.5915,0.73331 z m -61.7822,-34.11266 c 8.7237,-2.64774 14.942,-8.85507 17.1955,-17.1646 0.478,-1.76313 0.6256,-4.80314 0.4465,-9.19203 -0.4455,-10.89904 -3.2631,-16.84822 -9.4694,-19.99321 -1.5341,-0.77728 -8.5879,-3.371 -15.6755,-5.76374 -7.0876,-2.39263 -15.3175,-5.48641 -18.2889,-6.87494 l -5.4027,-2.52451 -28.6773,24.88404 c -15.7726,13.68639 -28.6963,25.04644 -28.7195,25.24473 -0.043,0.36912 8.0509,5.70832 13.0496,8.60826 2.7847,1.61558 2.7881,1.61593 12.5347,1.61593 8.2097,0 10.1999,-0.16731 12.6031,-1.0594 4.8617,-1.80487 7.6823,-4.31278 11.6641,-10.37104 2.7231,-4.14278 4.2093,-5.8554 5.7739,-6.65372 2.0062,-1.02339 2.1972,-1.0297 3.9883,-0.13037 2.5526,1.28202 4.0157,3.65769 6.094,9.89612 1.456,4.37065 2.1197,5.57854 3.8733,7.0509 1.1638,0.97709 2.9593,2.08173 3.9896,2.45459 2.5994,0.94073 11.8876,0.92401 15.0207,-0.0269 z m -940.36729,23.04268 c -10.17219,-1.82697 -23.01121,-8.27784 -32.29815,-16.22808 -1.56741,-1.34175 -1.68711,-1.65498 -1.16091,-3.03895 1.33119,-3.50124 -1.20441,-8.63783 -5.05024,-10.23085 -0.92573,-0.38337 -2.77119,-0.57442 -4.10109,-0.42453 -2.36356,0.26634 -2.45576,0.21466 -4.0927,-2.29628 -6.0058,-9.21203 -8.51373,-17.98327 -8.51013,-29.76353 0,-8.33408 1.00392,-15.48821 3.09374,-22.10382 2.26135,-7.15835 3.32038,-9.28662 4.80689,-9.65971 0.72605,-0.18227 2.06021,-1.10383 2.96476,-2.04806 1.37657,-1.43682 1.65692,-2.20754 1.7194,-4.72726 0.0663,-2.66002 0.34201,-3.32984 2.37138,-5.75368 10.14009,-12.11126 24.31186,-20.30784 41.30808,-23.89164 6.81695,-1.43728 26.68326,-1.42816 33.42568,0.0152 14.39555,3.08233 25.90134,9.18432 36.37449,19.29077 l 5.53101,5.33757 -0.70148,2.34141 c -1.40499,4.68949 1.93975,9.54454 7.26319,10.54291 2.33228,0.43728 2.61274,0.68363 4.02601,3.5341 2.14779,4.33207 3.6712,8.45708 5.14356,13.92736 l 1.27452,4.73532 1.48607,-3.34259 c 0.81732,-1.83843 1.77956,-4.01393 2.1383,-4.83435 0.35885,-0.82054 0.84254,-1.37438 1.07497,-1.23069 0.23241,0.14358 0.58243,-0.37589 0.77786,-1.15434 0.19532,-0.77856 0.61619,-1.41553 0.93518,-1.41553 0.82782,0 0.10581,16.61414 -0.92001,21.16953 -1.07034,4.75333 -5.41664,15.1315 -7.24857,17.30864 -0.79515,0.94494 -1.44567,1.96646 -1.44567,2.26998 0,0.31147 -0.52252,0.38606 -1.19935,0.17117 -0.94467,-0.29978 -1.57163,0.0631 -2.95279,1.70795 -1.54585,1.84135 -1.88355,2.00737 -2.85213,1.40244 -1.23147,-0.7691 -2.46634,-3.06573 -2.46634,-4.58719 0,-0.55162 -0.37603,-1.00305 -0.83563,-1.00305 -0.64693,0 -0.83371,-0.72349 -0.82709,-3.20334 0.009,-2.27371 0.16525,-2.96073 0.54857,-2.3676 0.3962,0.61312 0.5423,0.21478 0.54857,-1.49574 0.009,-1.28225 0.24465,-2.95255 0.53338,-3.71182 0.75181,-1.97756 -0.24898,-13.64148 -1.63263,-19.02606 -1.39985,-5.44806 -4.43241,-12.03561 -7.65148,-16.62139 -8.58594,-12.23133 -24.1791,-22.37216 -40.03449,-26.03592 -7.08727,-1.6378 -17.57449,-1.29043 -24.46414,0.81013 -14.36344,4.3793 -24.09307,15.30395 -28.29407,31.76891 -0.94145,3.68983 -1.15749,6.326 -1.19098,14.5351 -0.0368,8.91434 0.10534,10.55331 1.27656,14.76297 4.26853,15.34101 15.24047,27.00435 29.32265,31.1704 6.18786,1.8306 16.64502,2.25349 21.58173,0.87268 5.25828,-1.47072 8.49494,-3.33452 12.0354,-6.93035 3.31809,-3.36995 5.8709,-7.57189 7.81103,-12.85673 1.62767,-4.43379 2.86077,-9.59692 2.86077,-11.9782 0,-1.76349 -0.14362,-2.00446 -0.97484,-1.63511 -6.00127,2.66645 -10.74201,3.7594 -17.40926,4.01382 -7.99283,0.30504 -11.72827,-0.40396 -17.67434,-3.35428 -4.66401,-2.31429 -8.94864,-6.90978 -10.38658,-11.14025 -1.42947,-4.20545 -1.08939,-11.33562 0.71787,-15.05188 2.74678,-5.64799 10.49433,-10.91634 18.98669,-12.91098 4.66565,-1.09588 12.79061,-1.10219 16.97193,-0.0129 11.48913,2.99254 19.53617,13.3354 22.08282,28.38306 0.42149,2.49096 0.54047,6.79731 0.33069,11.97751 -0.2753,6.79917 -0.59623,8.97619 -2.01374,13.65925 -5.55263,18.34513 -19.57196,33.08145 -36.81458,38.6974 -4.80341,1.56437 -6.11612,1.74571 -14.20594,1.9619 -4.90238,0.13095 -10.26391,0 -11.9144,-0.30084 z m 40.39913,-65.99159 c 4.21158,-1.41378 9.67625,-3.94472 9.67625,-4.48149 0,-0.71122 -2.35149,-4.58497 -3.76532,-6.20301 -0.85442,-0.97779 -2.92641,-2.41682 -4.6043,-3.19784 -5.9272,-2.75893 -17.48185,-1.63312 -21.00741,2.04689 -1.31731,1.37485 -1.54172,2.07344 -1.54172,4.79811 0,5.87891 3.54057,8.32391 12.15787,8.39582 3.84997,0.0327 5.81938,-0.26237 9.08463,-1.35848 z m 428.33256,65.46148 c -6.0569,-0.61756 -13.39709,-2.68211 -19.49829,-5.48418 -14.814,-6.8035 -25.3764,-19.18203 -29.7805,-34.90128 -1.5192,-5.42222 -1.7575,-7.28673 -2.0687,-16.18868 -0.8656,-24.76385 4.7113,-45.45027 16.6622,-61.8045 2.2537,-3.08408 3.166,-4.79987 2.9621,-5.57095 -0.162,-0.61277 -0.3166,-25.55667 -0.3434,-55.43091 -0.046,-51.26685 -0.1014,-54.20338 -0.9826,-52.30018 -2.0224,4.36796 -5.7849,7.28941 -10.2506,7.95912 -1.5725,0.23571 -4.524,0.0421 -7.6736,-0.50486 -3.9231,-0.6807 -5.5479,-0.74617 -6.9587,-0.2806 -3.5768,1.18053 -3.8925,5.80338 -0.6815,9.98123 l 1.7174,2.23455 1.8792,-2.7905 c 2.912,-4.32412 6.5059,-5.0593 10.7717,-2.20345 7.2743,4.8699 6.8135,13.54831 -0.8755,16.48472 -3.4725,1.32621 -12.8649,0.9053 -16.5456,-0.74138 -6.4582,-2.88941 -9.4124,-8.45942 -9.8005,-18.47888 -0.2767,-7.14081 0.3556,-11.10166 2.451,-15.35282 1.7957,-3.64354 4.0524,-5.11333 10.658,-6.94182 5.3856,-1.49071 5.4137,-1.49235 6.31,-0.38559 1.8316,2.26202 6.1006,0.94107 6.8704,-2.12594 0.2755,-1.09775 1.0806,-1.49609 5.2032,-2.57408 5.0508,-1.32071 5.7665,-1.80265 9.9705,-6.71522 2.2694,-2.65195 3.8153,-3.43461 5.9816,-3.02832 1.9405,0.36409 3.1936,2.2169 4.2192,6.23855 0.8609,3.37474 0.9113,12.11722 0.383,66.49317 l -0.4787,49.28427 11.89909,-11.59763 c 6.5445,-6.37862 16.618,-16.5233 22.3855,-22.5438 11.4481,-11.95002 13.4541,-14.96021 15.8978,-23.85702 1.0146,-3.69346 1.0275,-4.02598 0.1702,-4.37323 -0.791,-0.32047 -0.7409,-0.44803 0.3393,-0.86438 1.045,-0.40278 1.2023,-0.7595 0.8967,-2.03333 -0.4569,-1.9039 -0.532,-1.99194 -1.7711,-2.08326 -0.5498,-0.0409 -1.6081,-0.49994 -2.3521,-1.02105 -1.1335,-0.79388 -2.7659,-0.94751 -10.0725,-0.94751 -8.445,0 -12.2106,-0.32258 -12.1936,-1.04455 0.012,-0.5045 5.9147,-2.70678 13.9191,-5.19283 3.83,-1.18953 8.9693,-2.80254 11.4204,-3.58437 7.1124,-2.26881 6.7974,-2.20719 5.9408,-1.16252 -0.813,0.9917 -0.4482,2.07086 0.7003,2.07086 0.3991,0 2.3843,-0.75214 4.4115,-1.67135 2.0273,-0.91922 4.0238,-1.67124 4.4366,-1.67124 1.3752,0 3.0273,2.47143 3.7242,5.57094 0.3789,1.68515 1.0366,3.61922 1.4618,4.29782 0.9388,1.49866 0.9741,3.42782 0.1389,7.58673 -0.5602,2.78992 -0.7902,3.15693 -1.9774,3.15693 -3.3472,0 -6.8549,3.56344 -6.8549,6.96367 0,0.91922 0.5098,2.50756 1.1329,3.52966 l 1.133,1.85842 -3.0759,4.26964 c -4.8931,6.79216 -8.8212,10.83392 -30.0533,30.92219 -19.692,18.6311 -19.9586,18.91253 -17.5485,18.52564 18.6487,-2.9944 30.2779,-2.65265 40.0512,1.17691 4.6036,1.80382 10.1383,5.10338 9.7136,5.79063 -0.6005,0.97159 0.3711,3.74736 1.8181,5.19435 1.1368,1.13691 1.9801,1.43342 4.0757,1.43342 2.4331,0 2.7962,0.18754 4.583,2.36819 6.1271,7.47741 11.1666,17.97145 13.6366,28.39674 1.3739,5.7994 1.4877,7.20172 1.4803,18.25931 -0.013,11.68555 -0.051,12.14539 -1.8036,18.86132 -4.3886,16.82249 -14.9341,32.98381 -26.5009,40.61358 -2.704,1.78371 -2.7641,1.7954 -3.8997,0.76394 -2.8364,-2.5763 -5.6371,-2.95968 -8.5684,-1.17257 -1.9069,1.16275 -3.4483,3.97535 -3.4483,6.29279 0,1.21163 -0.3415,1.38537 -3.8676,1.96774 -4.1525,0.68573 -15.1271,0.72548 -21.4801,0.0772 z m 19.6778,-33.90209 c 18.9068,-6.04481 30.1821,-25.29746 30.1821,-51.53612 0,-10.18198 -2.0717,-16.20645 -7.6568,-22.26564 -4.8866,-5.30121 -10.2053,-8.52992 -17.2324,-10.46048 -3.8669,-1.06233 -5.3005,-1.16311 -12.7147,-0.89361 -9.7916,0.3559 -16.2007,1.67287 -22.84079,4.69347 -4.9318,2.24343 -11.7017,7.23586 -13.6741,10.084 -0.7017,1.01322 -2.0911,2.18275 -3.0873,2.5991 -2.2185,0.92693 -3.2085,2.64213 -2.8595,4.95408 0.1625,1.07612 -0.1423,2.54906 -0.7938,3.83704 -3.6324,7.18067 -5.5864,27.2182 -3.5498,36.40088 2.8781,12.97727 10.7914,20.45305 25.0787,23.6924 3.65889,0.82954 6.20199,0.96972 14.20579,0.78289 8.9379,-0.20859 10.1814,-0.36573 14.9426,-1.88801 z m 683.0966,33.90326 c -10.3321,-1.14615 -22.151,-5.80583 -29.9295,-11.80001 -7.6858,-5.92287 -14.7143,-15.38288 -17.6854,-23.80371 -0.7386,-2.0939 -0.7193,-2.24309 0.3345,-2.57759 2.7513,-0.87315 4.0938,-5.95982 2.4247,-9.18724 -0.8346,-1.61406 -3.3614,-3.32435 -4.9117,-3.32435 -1.2121,0 -1.4694,-1.79762 -1.4777,-10.32731 -0.018,-18.41072 3.7957,-34.91659 11.2575,-48.72469 4.9842,-9.22313 7.8258,-12.46856 34.143,-38.99659 25.8559,-26.06281 30.5632,-31.13369 32.5922,-35.11068 2.5421,-4.98308 5.2756,-14.30103 4.8492,-16.53079 -0.1348,-0.70537 -0.029,-1.28248 0.2347,-1.28248 0.2639,0 0.4799,-0.32971 0.4799,-0.73273 0,-0.47352 -1.3308,-0.94704 -3.7604,-1.33836 -2.0682,-0.33299 -5.5151,-1.16019 -7.66,-1.83808 -3.3201,-1.04946 -5.2851,-1.24378 -13.221,-1.30785 -5.1267,-0.0409 -9.0124,-0.17667 -8.6351,-0.30049 0.9534,-0.31275 10.1221,-5.61431 14.5921,-8.43732 5.5846,-3.52708 12.5378,-5.56404 20.6341,-6.04493 6.053,-0.3594 7.0276,-0.2806 10.3064,0.83434 3.5848,1.21899 3.6311,1.26108 4.6213,4.20965 0.5501,1.63803 1.2156,4.82886 1.4789,7.09077 0.2632,2.26179 0.7346,4.27081 1.0481,4.46442 0.8261,0.5107 -0.5811,7.99373 -2.307,12.267 -3.2307,7.99817 -10.2396,17.72861 -19.1949,26.64834 -3.5539,3.53994 -5.5792,5.15319 -6.4694,5.15319 -2.2545,0 -5.0059,2.32013 -5.9175,4.9902 -0.6996,2.0483 -2.8513,4.35546 -13.209,14.1633 -6.8055,6.44397 -12.3015,11.78821 -12.2135,11.87613 0.089,0.0877 3.7756,-0.35906 8.195,-0.99334 10.4549,-1.50042 22.5611,-1.26412 28.9264,0.56483 18.7379,5.38353 32.8764,21.92822 38.3044,44.82277 1.35,5.69382 1.467,7.1511 1.4598,18.16788 -0.013,11.69935 -0.05,12.13838 -1.8138,18.90177 -5.5604,21.3179 -18.8656,38.45877 -35.0985,45.21655 -8.3714,3.485 -19.9749,4.66319 -32.3778,3.2874 z m 19.9158,-28.08796 c 1.418,-1.54741 1.8108,-2.46417 1.8108,-4.22637 0,-1.93033 0.2132,-2.33148 1.4989,-2.8202 0.8243,-0.31346 3.343,-1.71929 5.5969,-3.12407 7.108,-4.43028 13.1847,-12.49591 16.7982,-22.29651 3.5354,-9.5885 5.0827,-27.09298 3.0852,-34.90338 -2.7649,-10.81194 -12.4758,-19.90681 -24.4723,-22.9198 -5.5503,-1.39403 -19.0328,-0.8631 -26.1834,1.0311 -17.1266,4.5368 -27.5019,15.41409 -31.4525,32.97399 -1.7872,7.94393 -2.2184,21.79622 -0.8681,27.88266 3.5762,16.11759 16.1965,24.73894 36.2144,24.73894 5.3939,0 6.4124,0.13574 6.4124,0.85514 0,1.43985 1.8047,3.70843 3.5947,4.51879 2.7649,1.25173 5.8592,0.58728 7.9648,-1.71029 z M 702.36403,434.32991 c -1.07247,-0.12101 -4.36376,-0.48054 -7.31407,-0.79914 -30.41877,-3.28507 -49.01579,-15.10239 -53.17309,-33.78845 -1.37896,-6.19833 -0.8349,-17.48192 1.17654,-24.40222 3.78291,-13.01503 12.64348,-24.00866 25.04932,-31.07955 5.31838,-3.03136 13.86337,-6.51752 20.17656,-8.23166 2.93385,-0.79669 4.44861,-1.46359 4.21784,-1.85702 -1.97859,-3.37346 -7.26366,-10.74355 -8.82058,-12.30055 -3.52387,-3.52393 -7.84579,-4.43321 -14.15199,-2.97757 l -2.84127,0.6558 2.38095,1.19572 c 3.53447,1.77483 4.88794,4.11753 4.88794,8.46059 0,7.03628 -3.10792,10.01035 -9.9497,9.52081 -4.80403,-0.34374 -6.93233,-1.71953 -8.77197,-5.67033 -1.02115,-2.19304 -1.32341,-3.79377 -1.32515,-7.01909 0,-6.11321 0.73507,-8.16888 4.12161,-11.47276 3.71877,-3.62799 6.69687,-4.68435 14.32866,-5.08258 6.87896,-0.35905 12.90922,0.79189 15.47888,2.95407 0.85017,0.71531 3.34936,3.91245 5.55393,7.1048 4.26154,6.17085 7.17716,8.9838 13.95187,13.46014 2.71928,1.79669 4.59444,3.49283 5.28268,4.778 1.05113,1.96319 1.05113,2.02492 0,4.17821 l -1.06695,2.18568 -10.58477,0.33778 c -5.82167,0.18578 -11.33684,0.52391 -12.25604,0.75155 -6.33573,1.56846 -11.66148,4.41052 -17.53521,9.35759 -5.30366,4.46699 -9.02712,9.0723 -11.5437,14.27776 -2.53433,5.24204 -3.17638,12.13709 -1.55103,16.65682 1.36756,3.80324 4.12906,7.43731 7.90129,10.39793 3.09844,2.4319 3.17473,2.55747 3.0254,4.98529 -0.0837,1.3697 0.12286,3.00621 0.46022,3.63652 0.91708,1.71356 3.77731,2.99733 5.78387,2.59607 1.90083,-0.38022 4.26706,-2.33113 4.26706,-3.5182 0,-0.4243 0.25947,-0.61114 0.57654,-0.41518 0.8534,0.52742 7.49828,2.41028 11.95812,3.38818 11.01086,2.41473 16.49503,3.08958 27.61391,3.39836 13.57345,0.37695 17.78743,-0.20893 29.48818,-4.09952 8.77006,-2.91607 14.91081,-6.02786 19.69793,-9.9817 6.47384,-5.34704 9.237,-11.00392 9.25779,-18.95275 0.0138,-5.26157 -0.81392,-8.66625 -3.28374,-13.50738 -1.69024,-3.31313 -6.97494,-8.41441 -10.76943,-10.39571 -2.44123,-1.27453 -3.20124,-1.96657 -3.20224,-2.91595 -5.5e-4,-0.68456 -0.70738,-2.03485 -1.57034,-3.00072 -1.29128,-1.44511 -1.98549,-1.756 -3.92211,-1.756 -1.62381,0 -2.73915,0.36268 -3.59845,1.16989 -1.18178,1.11026 -1.41502,1.13177 -4.57353,0.42102 -1.83055,-0.41202 -7.28014,-0.90764 -12.11021,-1.10161 -10.06197,-0.40395 -12.7436,-1.13645 -14.1555,-3.86685 l -0.88948,-1.71999 3.09947,-2.88508 c 1.70477,-1.58671 4.93497,-4.27701 7.17828,-5.97841 2.2432,-1.7014 4.69573,-4.04784 5.45013,-5.21434 3.37605,-5.22065 9.18142,-12.54561 11.83131,-14.92806 5.01696,-4.51072 6.23857,-4.91234 15.76606,-5.18359 9.93884,-0.28294 13.28397,0.31814 12.7872,2.29745 -0.40419,1.61056 0.45565,3.85131 2.04669,5.3336 1.3911,1.29604 5.37532,1.62669 6.46536,0.53666 1.1415,-1.14148 2.40268,0 4.21352,3.82675 1.6561,3.49633 1.78483,4.18989 1.78401,9.61749 -9.4e-4,6.64134 -0.63579,8.4123 -3.91017,10.9098 -1.57283,1.19971 -2.75092,1.55315 -5.93504,1.78103 -6.49785,0.46486 -9.37372,-1.99651 -9.37372,-8.02285 0,-5.26754 2.3366,-8.15356 8.07785,-9.97737 0.99215,-0.3151 0.81503,-0.62657 -1.61671,-2.84253 -3.53246,-3.21912 -5.758,-4.10548 -10.2895,-4.09811 -6.03855,0.0117 -11.59844,2.17176 -15.98577,6.21586 -2.09951,1.93524 -10.82603,12.7598 -10.82603,13.4287 0,0.13024 2.31895,0.39939 5.15314,0.59815 9.90894,0.69485 19.54839,4.11133 26.83654,9.51145 7.97129,5.90639 12.86403,12.73362 15.76751,22.00165 1.36663,4.36235 1.50049,5.59198 1.52204,13.97529 0.0268,10.40132 -0.69716,14.3451 -4.03908,22.00526 -3.05004,6.99115 -9.54753,15.81922 -14.32498,19.46322 l -1.89292,1.44383 -1.83727,-1.1202 c -2.30494,-1.40524 -5.71723,-1.44277 -8.23858,-0.0912 -2.15711,1.15691 -4.46196,4.95676 -4.46196,7.35617 0,1.41015 -0.31496,1.62868 -4.03887,2.80219 -3.88329,1.22367 -4.8656,1.2771 -25.48712,1.38654 -11.79644,0.062 -22.32555,0.0152 -23.39793,-0.1064 z m 155.42931,-0.22227 c -6.04,-0.60189 -12.08507,-1.53011 -16.81901,-2.58238 -3.24952,-0.72232 -3.86875,-1.0684 -4.83164,-2.70024 -0.60735,-1.02946 -1.75399,-2.29745 -2.54803,-2.81774 -2.1316,-1.39671 -5.90715,-1.66936 -8.01575,-0.57898 -1.69208,0.87502 -1.86984,0.85374 -4.68829,-0.56156 -10.97756,-5.5126 -18.44106,-14.52621 -20.79716,-25.11659 -1.38504,-6.22533 -0.87088,-17.12075 1.14257,-24.21596 l 1.47862,-5.21013 2.45785,0.19549 c 2.12673,0.16906 2.68459,-0.0316 4.14129,-1.48814 2.14836,-2.14827 2.27725,-4.87785 0.33896,-7.18138 l -1.34453,-1.59793 3.23084,-3.87644 c 7.46314,-8.95445 20.11023,-16.31624 34.95505,-20.34677 2.93376,-0.79669 4.44863,-1.46359 4.21786,-1.85702 -1.9786,-3.37346 -7.26365,-10.74355 -8.82065,-12.30055 -3.52391,-3.52393 -7.84581,-4.43321 -14.15194,-2.97757 l -2.84135,0.6558 2.38105,1.19572 c 3.53448,1.77483 4.88784,4.11753 4.88784,8.46059 0,7.03628 -3.10791,10.01035 -9.94962,9.52081 -4.80413,-0.34374 -6.9324,-1.71953 -8.77205,-5.67033 -1.02115,-2.19304 -1.32329,-3.79377 -1.32515,-7.01909 0,-6.11321 0.73508,-8.16888 4.1217,-11.47276 3.71868,-3.62799 6.69679,-4.68435 14.32857,-5.08258 6.87904,-0.35905 12.90923,0.79189 15.47896,2.95407 0.85009,0.71531 3.34937,3.91245 5.55385,7.1048 4.26154,6.17085 7.17717,8.9838 13.95197,13.46014 2.71917,1.79669 4.59444,3.49283 5.28258,4.778 1.05112,1.96319 1.05112,2.02492 0,4.17821 l -1.06685,2.18568 -10.58486,0.33778 c -5.82159,0.18578 -11.33687,0.52391 -12.25604,0.75155 -6.33574,1.56846 -11.66148,4.41052 -17.53513,9.35759 -5.3008,4.46442 -9.01202,9.05383 -11.59928,14.3437 -1.95504,3.99733 -2.04392,4.43145 -2.0532,10.02776 -0.0117,7.19962 1.05112,9.77686 6.0895,14.76297 9.37677,9.27961 31.0681,15.57521 56.05469,16.26912 13.57333,0.37695 17.78733,-0.20893 29.48807,-4.09952 19.40188,-6.45134 28.91598,-15.64021 28.95578,-27.96636 0.01,-3.54732 0.2002,-4.32015 1.4059,-5.75299 1.5579,-1.8514 1.6763,-2.56613 0.7589,-4.5797 -0.5939,-1.30318 -3.3801,-2.81798 -4.0153,-2.18287 -0.1579,0.15784 -0.8163,-0.75039 -1.4631,-2.01849 -1.8942,-3.71275 -7.0465,-8.42317 -12.0032,-10.97375 -8.5423,-4.39544 -15.80507,-6.1014 -28.00765,-6.57878 -9.77703,-0.38244 -12.45967,-1.12453 -13.86118,-3.83482 l -0.88945,-1.71999 3.09954,-2.88508 c 1.70477,-1.58671 4.93487,-4.27701 7.17809,-5.97841 2.2433,-1.7014 4.69583,-4.04784 5.45014,-5.21434 3.37612,-5.22065 9.18151,-12.54561 11.83131,-14.92806 5.3483,-4.80851 6.0443,-5.01195 17.1589,-5.01616 l 9.7491,0 3.6212,1.72549 c 5.0915,2.42618 8.9335,6.07451 10.9139,10.3632 1.464,3.17072 1.6206,4.0752 1.6198,9.35946 0,6.64121 -0.6358,8.41218 -3.9101,10.9098 -1.5729,1.19958 -2.751,1.55315 -5.9351,1.7809 -6.4978,0.46499 -9.3737,-1.99638 -9.3737,-8.02284 0,-5.26754 2.3366,-8.15344 8.0779,-9.97726 0.9921,-0.31509 0.815,-0.62656 -1.6168,-2.84264 -3.4413,-3.13611 -5.7547,-4.10408 -9.808,-4.10408 -1.766,0 -3.9289,-0.37449 -4.8066,-0.83223 -0.8776,-0.45773 -2.0006,-0.83374 -2.4954,-0.83561 -1.3221,0 -3.8355,2.15095 -3.8355,3.29009 0,0.54145 -0.6263,1.26973 -1.3918,1.6185 -2.3202,1.05718 -6.14672,4.93105 -10.56773,10.69876 -2.30789,3.01089 -4.19623,5.58088 -4.19623,5.71113 0,0.13025 2.31885,0.39928 5.15314,0.59804 9.90882,0.69496 19.54842,4.11133 26.83652,9.51157 7.9713,5.90626 12.8642,12.7335 15.7675,22.00152 1.3667,4.36247 1.5005,5.59199 1.5221,13.97529 0.018,7.25528 -0.1996,10.07243 -1.0356,13.37036 -2.9627,11.68742 -10.0213,22.46019 -19.4085,29.62088 -4.7544,3.62682 -9.2714,5.87692 -16.8576,8.3978 l -5.01394,1.66609 -21.72657,0.16743 c -11.94974,0.0924 -23.85759,-0.0444 -26.46196,-0.30446 z m 989.95626,-1.1057 c -18.0281,-2.78219 -32.8746,-8.18676 -42.8115,-15.58502 -9.6685,-7.19857 -14.3782,-15.15243 -15.7877,-26.66296 -0.4768,-3.89444 -0.4189,-5.9929 0.2987,-10.84198 1.1767,-7.95059 5.1244,-24.93888 6.7064,-28.86056 5.6804,-14.08099 32.0235,-37.34675 50.6632,-44.74443 13.4362,-5.33267 26.0241,-2.84347 22.9227,4.5327 -1.0896,2.59127 -3.931,4.30039 -9.9193,5.96624 -21.4027,5.95409 -41.7856,21.74045 -49.6096,38.42206 -3.0831,6.57328 -3.9662,10.8041 -3.9662,18.99788 0,9.19308 0.9778,11.99258 6.0364,17.27918 3.3549,3.50592 3.4298,3.65125 3.2478,6.28707 -0.1559,2.25524 0.053,2.98271 1.2717,4.4311 1.6532,1.96482 4.7263,3.19153 6.7334,2.68772 0.744,-0.18672 2.2027,-1.0857 3.2414,-1.99767 1.8876,-1.65732 1.8897,-1.65767 4.606,-0.83714 9.1096,2.75157 14.0085,3.34271 27.5087,3.31932 12.1743,-0.021 13.525,-0.12557 19.2762,-1.49387 18.081,-4.30143 33.7455,-15.98103 40.3432,-30.08037 3.2248,-6.89107 3.9759,-10.48328 4.2842,-20.48637 0.239,-7.75943 0.1005,-10.20244 -0.885,-15.67482 -2.7478,-15.25052 -9.0419,-27.3246 -19.8448,-38.06744 -6.8482,-6.8104 -12.4749,-10.88794 -22.0601,-15.98664 -14.5477,-7.73838 -31.0829,-12.1869 -49.7364,-13.38041 -8.6863,-0.55583 -10.7526,-0.51783 -16.1557,0.29639 -14.671,2.21081 -19.8463,2.15949 -22.3812,-0.2218 -1.7798,-1.67228 -1.8559,-4.80407 -0.161,-6.62344 1.7308,-1.85772 6.1441,-3.65663 11.763,-4.7946 l 4.8871,-0.98972 -2.1346,-1.44242 c -11.6818,-7.89342 -15.1023,-16.1418 -14.4479,-34.84189 0.2679,-7.65607 0.5358,-9.65935 1.8663,-13.95342 4.9671,-16.03107 18.1456,-26.09333 39.0722,-29.83321 8.3273,-1.48814 26.2685,-2.09717 33.0672,-1.12253 14.3841,2.06233 22.0512,5.60251 39.7646,18.36044 8.3561,6.01839 8.3565,6.01874 8.6503,8.51951 0.1619,1.37544 0.7454,3.18955 1.2969,4.03124 1.071,1.63452 4.3269,3.29348 5.8452,2.97827 1.1281,-0.23419 2.8171,2.11307 5.6464,7.84618 4.7821,9.6894 6.7138,19.11994 7.1043,34.68194 0.2513,10.01584 -0.054,14.18258 -1.2696,17.35178 -0.2935,0.76488 -0.078,0.9737 1.002,0.9737 0.7567,0 2.3293,0.75775 3.4947,1.68386 1.1654,0.92612 2.704,1.80359 3.4192,1.94986 0.7152,0.14626 1.8988,0.38899 2.6302,0.53934 0.7317,0.15048 2.4979,0.0549 3.9253,-0.21139 2.5515,-0.47656 2.5786,-0.46638 1.61,0.60401 -0.9709,1.07261 -0.9321,1.0829 2.6207,0.69835 1.983,-0.21478 4.5986,-0.72384 5.8124,-1.1313 l 2.2065,-0.7408 -1.6495,1.38046 c -5.1818,4.3364 -21.0268,9.71161 -28.629,9.71197 -1.0507,1.1e-4 -2.7263,0.29522 -3.7236,0.65591 -2.0607,0.74512 -3.5581,-0.0129 -3.5581,-1.80067 0,-0.55466 -0.5014,-1.16755 -1.1142,-1.3621 -1.2466,-0.39565 -1.4698,-1.18134 -0.4337,-1.52672 0.431,-0.14358 0.1064,-0.80125 -0.8857,-1.79307 -0.9288,-0.9288 -1.3316,-1.71134 -0.9899,-1.92261 0.6439,-0.39787 1.2725,-4.00446 2.6304,-15.09151 3.4165,-27.8954 -6.8368,-48.8422 -29.3545,-59.96864 -2.9125,-1.43915 -7.9421,-3.2943 -11.3559,-4.18861 -5.4574,-1.42968 -7.3778,-1.64107 -17.5486,-1.93091 -12.218,-0.34831 -18.3747,0.26283 -26.2675,2.60728 -2.8247,0.83913 -4.058,0.96657 -5.1895,0.53642 -4.7312,-1.79891 -9.7679,1.73578 -9.7679,6.85506 0,0.72981 -0.7386,2.34644 -1.6412,3.59256 -2.5476,3.51691 -4.0855,9.32543 -3.8489,14.53697 0.1803,3.96927 0.389,4.64038 2.3709,7.62532 4.1639,6.2714 11.452,12.28324 21.782,17.96783 3.3703,1.85479 8.1335,4.06994 10.5847,4.92262 2.4512,0.85281 5.2459,2.08338 6.2107,2.73485 0.9647,0.65147 4.2236,2.09144 7.2423,3.19995 24.2234,8.89564 25.3243,9.3833 33.3768,14.78623 6.1233,4.10853 14.989,11.93109 20.108,17.7423 7.8703,8.93411 12.2494,17.12929 17.5525,32.84772 l 2.4164,7.16255 -0.015,16.43433 c -0.014,14.7936 -0.1409,17.05832 -1.2716,22.68479 -3.9573,19.698 -15.0822,36.61216 -30.3698,46.1747 l -3.0785,1.92553 -1.852,-1.1292 c -2.2001,-1.3414 -4.912,-1.45201 -7.1553,-0.29182 -1.9565,1.01169 -2.887,2.58062 -3.301,5.56521 -0.3064,2.20824 -0.3508,2.24484 -4.9343,4.04819 -9.0979,3.58005 -14.3463,4.59374 -23.4298,4.52534 -4.7091,-0.0351 -10.8638,-0.47925 -14.5628,-1.05017 z"
       id="path3550"
       inkscape:connector-curvature="0" />
  </g>
</svg>
