<?xml version="1.0" encoding="UTF-8" standalone="no"?>
<!-- Created with Inkscape (http://www.inkscape.org/) -->

<svg
   xmlns:dc="http://purl.org/dc/elements/1.1/"
   xmlns:cc="http://creativecommons.org/ns#"
   xmlns:rdf="http://www.w3.org/1999/02/22-rdf-syntax-ns#"
   xmlns:svg="http://www.w3.org/2000/svg"
   xmlns="http://www.w3.org/2000/svg"
   xmlns:xlink="http://www.w3.org/1999/xlink"
   xmlns:sodipodi="http://sodipodi.sourceforge.net/DTD/sodipodi-0.dtd"
   xmlns:inkscape="http://www.inkscape.org/namespaces/inkscape"
   id="svg2"
   version="1.1"
   inkscape:version="0.92.1 unknown"
   width="2481"
   height="3503"
   sodipodi:docname="Pepper-and-Carrot_by-David-Revoy_E02P03.svg">
  <sodipodi:namedview
     pagecolor="#ffffff"
     bordercolor="#666666"
     inkscape:pageopacity="0"
     inkscape:pageshadow="2"
     inkscape:window-width="1813"
     inkscape:window-height="955"
     id="namedview70"
     showgrid="false"
     inkscape:zoom="1.4071505"
     inkscape:cx="1006.4617"
     inkscape:cy="2765.7237"
     inkscape:current-layer="layer1"
     inkscape:snap-nodes="false"
     inkscape:window-x="0"
     inkscape:window-y="27"
     inkscape:window-maximized="0" />
  <sodipodi:namedview
     pagecolor="#ffffff"
     bordercolor="#666666"
     inkscape:pageopacity="0"
     inkscape:pageshadow="2"
     inkscape:window-width="1813"
     inkscape:window-height="955"
     id="namedview3"
     showgrid="false"
     inkscape:zoom="0.4"
     inkscape:cx="1284.4231"
     inkscape:cy="2618.6204"
     inkscape:current-layer="layer1" />
  <sodipodi:namedview
     pagecolor="#ffffff"
     bordercolor="#666666"
     inkscape:pageopacity="0"
     inkscape:pageshadow="2"
     inkscape:window-width="1813"
     inkscape:window-height="955"
     id="namedview5"
     showgrid="false"
     inkscape:zoom="0.4"
     inkscape:cx="1284.4231"
     inkscape:cy="2618.6204"
     inkscape:current-layer="layer1" />
  <sodipodi:namedview
     pagecolor="#ffffff"
     bordercolor="#666666"
     inkscape:pageopacity="0"
     inkscape:pageshadow="2"
     inkscape:window-width="1813"
     inkscape:window-height="955"
     id="namedview7"
     showgrid="false"
     inkscape:zoom="0.4"
     inkscape:cx="1284.4231"
     inkscape:cy="2618.6204"
     inkscape:current-layer="layer1" />
  <metadata
     id="metadata8">
    <rdf:RDF>
      <cc:Work
         rdf:about="">
        <dc:format>image/svg+xml</dc:format>
        <dc:type
           rdf:resource="http://purl.org/dc/dcmitype/StillImage" />
        <dc:title />
      </cc:Work>
    </rdf:RDF>
  </metadata>
  <defs
     id="defs6" />
  <sodipodi:namedview
     pagecolor="#ffffff"
     bordercolor="#666666"
     borderopacity="1"
     objecttolerance="10"
     gridtolerance="10"
     guidetolerance="10"
     inkscape:pageopacity="0"
     inkscape:pageshadow="2"
     inkscape:window-width="1366"
     inkscape:window-height="705"
     id="namedview4"
     showgrid="false"
     inkscape:zoom="0.25606623"
     inkscape:cx="1240.5"
     inkscape:cy="1751.5"
     inkscape:window-x="-8"
     inkscape:window-y="-8"
     inkscape:window-maximized="1"
     inkscape:current-layer="layer1" />
  <g
     inkscape:groupmode="layer"
     id="layer2"
     inkscape:label="artwork"
     sodipodi:insensitive="true">
    <image
       sodipodi:absref="/home/deevad/peppercarrot/webcomics/ep02_Rainbow-potions/lang/si/../gfx_Pepper-and-Carrot_by-David-Revoy_E02P03.png"
       xlink:href="../gfx_Pepper-and-Carrot_by-David-Revoy_E02P03.png"
       width="2481"
       height="3503"
       id="image10"
       x="-1.6728083e-06"
       y="0" />
  </g>
  <g
     inkscape:groupmode="layer"
     id="layer1"
     inkscape:label="text">
    <path
       id="path3664"
       style="font-style:normal;font-variant:normal;font-weight:bold;font-stretch:normal;font-size:medium;line-height:125%;font-family:BhashitaComplex;-inkscape-font-specification:'BhashitaComplex Bold';letter-spacing:-0.46558732px;word-spacing:0px;writing-mode:lr-tb;fill:#000000;fill-opacity:1;stroke:none;stroke-width:1px;stroke-linecap:butt;stroke-linejoin:miter;stroke-opacity:1"
       d="m 937.00578,742.04698 c -1.30078,0.36453 -2.63878,1.3839 -4.04925,0.78011 -1.94031,-0.64834 -3.97199,1.72914 -2.68584,3.19214 0.89204,0.7431 2.5348,0.7017 2.95652,1.88416 0.9595,1.75367 0.54875,3.76709 0.90972,5.63568 0.26177,2.83205 0.48951,5.66646 0.6949,8.5022 -1.12497,0.94172 -2.76776,-0.0409 -4.03282,0.59836 -3.72917,0.85786 -6.53428,4.38906 -5.82581,7.80365 0.54907,1.30316 2.37462,1.28074 3.68238,1.24761 3.88241,0.0102 8.09476,0.10964 11.36465,2.21549 2.76675,1.6463 4.12436,4.8461 3.35195,7.71233 -0.34984,1.66974 -1.38279,3.26941 -3.03361,4.17999 -3.0882,2.46991 -7.50624,2.90293 -11.48841,2.60191 -6.15614,-0.38033 -11.97852,-2.5879 -17.14876,-5.46541 -2.87836,-2.14382 -3.14567,-6.46562 -0.46673,-8.83587 2.04342,-2.14499 5.44381,-2.84111 8.48168,-2.49088 1.04513,-0.0105 2.10353,-0.0417 3.11793,-0.2841 1.65879,-1.7809 0.91556,-4.42886 -0.55694,-6.10369 -2.45525,-2.84139 -7.21808,-3.46187 -10.77459,-1.99367 -1.64128,0.61211 -3.25823,1.69542 -3.843,3.2325 -0.22549,2.0933 3.07224,3.52406 4.80288,2.06961 1.45054,-0.83585 2.63838,-2.43937 4.56171,-2.31324 1.35247,0.14646 2.66476,0.93907 3.10828,2.11059 -3.27454,0.34712 -6.91333,0.24033 -9.63649,2.15638 -4.99682,3.08309 -6.2608,9.87267 -2.71423,14.24167 2.27822,3.26104 6.41426,4.81607 9.81012,6.96684 2.83097,1.68544 5.69168,3.41504 8.89082,4.50029 3.84408,0.77111 8.22664,0.87515 11.64406,-1.11717 2.46012,-1.53441 4.67441,-3.4628 6.00428,-5.88581 1.70459,-2.95738 2.64823,-6.29494 2.57769,-9.61964 -0.21383,-3.65681 -2.57229,-7.3435 -6.47052,-8.80505 -3.53803,-1.59815 -7.56108,-2.0269 -11.47973,-2.16589 -0.005,-1.99656 2.4974,-3.28655 4.55497,-2.97936 2.28624,0.0898 4.38514,1.30144 5.65853,2.95056 0.84464,0.57818 2.2545,0.66271 2.97609,-0.12333 -0.002,-2.15562 -2.52048,-3.25694 -3.33878,-5.10108 -0.71332,-1.81618 -0.36072,-3.77597 -0.74129,-5.64321 0.10985,-0.90588 1.35028,-1.06224 2.18052,-1.0366 2.65624,-0.85339 3.81773,-3.61116 3.48166,-5.94792 -0.0868,-3.10205 -1.52402,-6.30947 -4.39598,-8.19295 -0.67039,-0.26449 -1.37866,-0.52268 -2.12856,-0.47682 z m 1.29958,4.18489 c 1.59238,1.50653 1.88193,3.89399 0.87122,5.72867 -0.80014,0.59374 -2.09034,-0.25467 -1.87574,-1.10374 -0.0436,-1.51946 -0.71923,-3.08278 -0.0936,-4.57241 0.28519,-0.33605 0.82374,-0.50648 1.09796,-0.0516 z m -56.67229,14.81483 c -5.99771,0.34601 -11.27911,4.29627 -13.2772,9.23992 -2.8213,5.69646 -3.54116,12.44514 -0.77195,18.26487 1.96145,4.3562 6.4976,7.64764 11.66361,8.60304 4.96649,1.08348 10.27802,1.88248 15.2966,0.58065 2.25657,-0.55972 4.41901,-1.58478 5.87787,-3.25023 3.04696,-3.21565 4.08299,-7.87727 2.53317,-11.85079 -0.31321,-0.66404 -0.69547,-1.61191 -1.70488,-1.49875 -1.12174,0.042 -2.05933,1.12294 -1.57693,2.07858 0.4079,2.12944 0.94208,4.39314 -0.0183,6.47475 -0.85378,2.28111 -3.07078,4.04871 -5.68035,4.65651 -3.35678,0.84839 -6.87967,0.11112 -10.16763,-0.6337 -3.98082,-1.01099 -8.1669,-2.55437 -10.55459,-5.71846 -2.82581,-3.81989 -3.25669,-8.64754 -2.51966,-13.06934 0.6945,-3.73609 2.70946,-7.54442 6.44466,-9.59792 3.20786,-1.67169 7.11495,-1.39408 10.6201,-0.79115 2.72062,0.49868 5.40003,1.29539 7.82749,2.49757 1.67016,1.02164 2.32671,3.28254 1.00673,4.75364 -2.03769,2.5529 -6.69535,3.35248 -9.42059,1.22232 -0.92587,-0.46046 -0.73346,-1.86892 0.36217,-1.97743 1.79533,0.0369 3.77815,0.82185 5.4422,-0.11125 1.13642,-0.8783 0.0781,-2.65161 -1.3305,-2.60476 -4.23794,-0.47796 -8.42507,-1.33322 -12.70155,-1.51727 -1.75826,0.5241 -1.23138,3.23009 0.5934,3.2727 0.95805,0.16782 1.93602,0.19822 2.90757,0.26118 0.8984,1.35814 0.39989,3.25947 1.87139,4.34474 2.4782,2.77466 7.06524,3.36811 10.68007,2.20834 3.43642,-0.9467 6.33149,-3.9943 5.87098,-7.29554 -0.32301,-3.08282 -3.17934,-5.59305 -6.4483,-6.42216 -4.04973,-1.48028 -8.44871,-2.17645 -12.82558,-2.11949 z m -30.28789,-14.35989 c -1.62563,0.0681 -1.90607,2.51531 -0.32116,2.85907 1.09391,0.43862 2.63167,1.01779 2.56992,2.29196 0.0605,3.31935 0.0178,6.639 7e-5,9.95848 -0.77025,0.88103 -2.08369,0.1342 -3.0993,0.30517 -4.27887,0.16744 -8.80129,2.00452 -10.77616,5.5297 -1.36473,2.63609 -1.61969,5.61725 -1.27304,8.47071 0.85964,1.25077 2.71188,0.90421 4.09525,0.92633 1.82468,0.0974 3.27856,1.8494 2.72792,3.42105 -0.33263,2.56232 -2.98124,4.38925 -5.67797,4.93058 -3.00893,0.94237 -6.60936,1.38963 -9.46607,-0.14883 -2.31216,-1.51225 -2.89962,-4.22098 -3.00562,-6.61698 -0.40163,-4.1112 0.32019,-8.24514 1.32381,-12.24754 1.01445,-2.31244 4.39329,-3.25563 6.85985,-2.26008 1.11106,0.25913 2.51468,0.60032 3.45769,-0.19301 0.56106,-1.32259 -0.84207,-2.66401 -2.27779,-2.84186 -2.78109,-1.05441 -6.22305,-1.64195 -8.95801,-0.16929 -2.30762,1.41066 -2.89526,4.05087 -3.1708,6.36127 -0.64909,6.27654 -1.46781,12.70137 0.12994,18.91927 0.82683,2.55006 3.27198,4.84479 6.37327,5.04625 4.53857,0.61172 9.10637,-0.74872 13.04808,-2.66488 2.83935,-1.51141 5.06501,-4.15799 5.18125,-7.16551 0.26306,-2.75437 -1.20238,-5.88209 -4.27377,-6.90922 -0.8042,-0.45516 -1.99521,-0.24789 -2.66281,-0.75229 -0.76531,-1.28923 0.23136,-2.70598 0.95035,-3.82207 2.5725,-3.27371 8.49962,-4.15516 11.88545,-1.3859 3.1682,2.75188 3.98076,6.93025 3.70306,10.71094 -0.2473,2.87681 -1.56125,5.98977 -4.50909,7.49655 -2.24958,1.01645 -4.81614,0.41175 -7.17949,0.19882 -1.2287,0.075 -2.33699,1.58137 -1.25585,2.42492 1.20642,0.95858 2.96035,0.87697 4.47312,1.03075 4.15128,0.12538 8.33364,-1.98676 10.10821,-5.35521 3.00749,-4.96992 3.04868,-11.16987 0.49358,-16.29054 -0.8676,-1.69696 -2.18023,-3.17488 -3.57696,-4.54339 -0.88411,-1.55046 -0.19702,-3.3276 -0.37384,-4.98081 0.0839,-0.62978 -0.38649,-1.59136 0.396,-1.96246 0.80749,-0.20071 1.70093,0.14547 2.466,-0.26742 2.29252,-0.74528 3.54486,-2.9957 3.40103,-5.08006 0.0176,-2.21426 -1.52601,-4.65524 -4.10915,-5.11721 -1.31916,-0.12358 -2.61105,0.31773 -3.73175,0.89931 -1.43199,0.0678 -2.49465,-1.20348 -3.94523,-1.00619 z m 7.12258,3.28621 c 1.51421,0.59858 1.51758,2.47017 0.82758,3.59685 -0.42782,0.6932 -2.05438,0.92057 -2.07953,-0.11644 -0.14995,-0.75434 0.12361,-1.54187 -0.16565,-2.28093 0.0357,-0.63035 0.63829,-1.32688 1.41763,-1.20062 z"
       inkscape:connector-curvature="0" />
    <path
       id="path3664-4"
       style="font-style:normal;font-variant:normal;font-weight:bold;font-stretch:normal;font-size:37.02337265px;line-height:125%;font-family:BhashitaComplex;-inkscape-font-specification:'BhashitaComplex Bold';letter-spacing:-0.46558732px;word-spacing:0px;writing-mode:lr-tb;fill:#000000;fill-opacity:1;stroke:none;stroke-width:1px;stroke-linecap:butt;stroke-linejoin:miter;stroke-opacity:1"
       d="m 991.31479,664.22913 c -3.02611,0.54154 -5.9406,1.57494 -8.7454,2.81277 -1.00262,0.78796 -0.0667,2.58498 1.13637,2.40551 2.2862,0.24851 3.69512,2.44434 4.30459,4.45702 0.72495,2.5958 0.89187,5.30194 1.34727,7.9495 0.286,2.12413 0.42025,4.26629 0.4583,6.40861 -1.91408,2.71993 -5.28723,3.62491 -8.12887,5.03378 -3.39834,1.67941 -6.33488,4.47526 -7.75576,8.01842 -0.41374,1.95176 1.55942,3.93364 3.52267,3.56195 4.7516,0.22741 9.76546,-0.0335 14.13818,2.14803 2.62729,1.24694 3.8493,4.74987 2.45578,7.32334 -0.63571,1.53083 -2.15136,2.56858 -3.78497,2.75876 -5.90879,1.54353 -12.0677,1.02937 -18.10689,1.19184 -3.73952,-0.0109 -7.47958,-0.0162 -11.21751,-0.13637 -2.96442,-0.64255 -4.52368,-4.21771 -3.47691,-6.9402 0.84224,-3.47991 4.47998,-5.90831 8.01854,-5.65737 1.77038,-0.0952 3.53921,-0.21384 5.3065,-0.35546 2.93621,-1.86705 3.09625,-6.45459 0.695,-8.81287 -2.50056,-2.71283 -6.63473,-3.21353 -10.07088,-2.31225 -2.28459,0.56346 -4.35763,1.82615 -6.03759,3.45252 -1.31629,2.02921 0.93003,5.05006 3.26387,4.39182 1.9306,-0.33652 3.59327,-1.47055 5.48321,-1.94046 0.77088,-1.24421 1.85018,1.12635 0.23556,0.63289 -4.89986,1.17122 -9.35004,4.397 -11.75732,8.82945 -1.36426,2.69302 -1.24099,5.98949 0.17837,8.6336 1.35729,2.71863 3.86505,4.6714 6.58114,5.9394 6.65543,3.61722 14.33053,4.86738 21.83412,5.07919 3.63358,0.0609 7.56384,-0.7644 10.16691,-3.47206 3.59607,-3.45385 5.62299,-8.18297 6.91769,-12.9068 0.7368,-2.94415 0.7656,-6.28164 -0.9276,-8.91907 -0.5347,-1.0616 0.2535,-2.22878 1.1809,-2.7578 1.3262,-1.00213 1.52604,-2.81725 1.1696,-4.32921 -0.5073,-2.18753 -1.6255,-4.1692 -2.3174,-6.29864 -0.9294,-2.43628 -1.81347,-4.89613 -2.45691,-7.42475 0.61547,-2.30054 3.58921,-2.99044 4.04161,-5.37558 0.9175,-5.36671 -2.2017,-11.00697 -7.06794,-13.37826 -0.19064,-0.0562 -0.38995,-0.022 -0.58428,-0.005 z m 1.01145,3.15164 c 1.89532,1.5438 2.8328,4.13941 2.40177,6.53489 -1.49458,0.25952 -2.94467,-1.19424 -2.76866,-2.67256 -0.15946,-1.22221 -0.3187,-2.44442 -0.47805,-3.66645 0.23459,-0.18472 0.55227,-0.26851 0.84494,-0.19588 z M 889.8067,675.2121 c -1.45179,0.47962 -1.33651,2.89114 0.10782,3.29918 2.2858,1.54201 3.21759,4.56843 2.65481,7.19582 -0.096,2.21402 -0.19184,4.42803 -0.28784,6.64223 -1.53197,1.23797 -3.6534,0.9625 -5.39391,1.72008 -3.16615,0.86932 -6.57055,1.94236 -8.67098,4.63046 -2.85957,3.15702 -3.72015,7.5637 -3.74619,11.69262 -0.0987,1.04073 -0.33742,2.46295 0.79797,3.04495 1.36151,0.92061 3.07641,0.43479 4.59545,0.49777 2.535,0.36828 3.87705,3.91589 2.0285,5.75729 -1.59039,2.01421 -4.33158,2.86523 -6.72553,2.93684 -3.3103,0.10182 -6.60927,0.52358 -9.92447,0.44122 -3.47203,-2.24692 -4.64142,-6.8767 -3.74815,-10.75502 0.51745,-3.47797 1.508,-7.07091 3.93619,-9.73643 2.62818,-1.71061 5.94816,-0.9923 8.79786,-1.98155 2.51684,-1.11592 2.88238,-5.18578 0.46601,-6.60877 -2.56647,-1.75628 -5.95478,-1.63981 -8.83302,-0.81288 -3.92379,1.32788 -6.73611,5.17396 -7.04816,9.25462 -0.91661,5.69597 -1.3068,11.51186 -0.75595,17.26192 0.37828,3.25327 1.98156,6.54306 4.88635,8.24473 2.69022,1.69206 5.97014,2.22063 9.10822,1.96741 3.76441,0.005 7.56847,-0.65486 10.99817,-2.23809 4.68684,-3.29364 5.80332,-10.56029 2.31128,-15.08548 -1.20067,-1.51698 -2.92894,-2.622 -4.82915,-3.03122 -1.30262,-0.58258 -1.32223,-2.4019 -0.57258,-3.43161 1.21034,-2.48824 3.30205,-4.73914 6.01747,-5.54683 3.05781,-0.70281 6.31407,0.99149 7.86393,3.62891 3.16882,4.23029 5.19191,9.69936 4.10109,15.0023 -0.61889,3.05894 -2.0087,6.10929 -4.4295,8.16212 -2.1641,1.4282 -4.96922,0.97107 -7.23141,0.0537 -0.97011,-0.37166 -2.47638,-0.1309 -2.70569,1.05505 -0.21904,1.37243 1.15297,2.33779 2.31001,2.67984 4.43662,1.95493 10.26339,0.521 12.91687,-3.62621 3.3051,-5.47248 4.09996,-11.96969 4.452,-18.22428 0.42205,-5.01197 -1.73804,-9.87166 -4.76919,-13.76029 -1.16366,-1.78978 -1.72583,-3.89934 -1.93675,-6.00459 0.94699,-2.22327 3.83156,-2.30963 5.22202,-4.12188 2.10859,-2.54837 1.45168,-6.57623 -0.89618,-8.74995 -0.85796,-1.06643 -2.2912,-1.01112 -3.52943,-1.07035 -2.44826,-0.0798 -4.92227,0.0739 -7.34183,-0.38919 l -0.19599,-0.002 z m 8.23691,3.68785 c 1.59748,1.23762 1.43853,4.02843 -0.28523,5.08507 -1.39844,-1.32613 -1.35755,-3.82329 0.0893,-5.10133 l 0.19584,0.0204 z m 25.17907,14.15188 c -6.68638,1.98817 -12.35004,7.0327 -15.20747,13.35104 -1.70437,4.60767 -1.14103,9.61373 -0.63123,14.38169 0.56188,4.17713 2.22689,8.5208 5.77258,11.06327 4.27715,3.15764 9.66749,4.18871 14.84329,4.81812 5.04049,0.46852 10.25392,-0.15438 14.88104,-2.27278 5.03721,-3.3962 7.61038,-9.66252 7.30249,-15.60195 -0.11752,-1.53362 -0.99256,-3.38237 -2.72297,-3.5243 -2.08053,-0.20861 -4.01383,2.06203 -3.25142,4.06367 0.40812,2.17562 1.57773,4.47038 0.5993,6.66437 -1.48334,4.49559 -6.64529,7.19684 -11.23642,6.28389 -5.34441,-0.5923 -9.94641,-3.66319 -14.1922,-6.72578 -3.91304,-2.88993 -7.0334,-7.31415 -7.18129,-12.29523 -0.28335,-6.88821 4.71084,-13.80643 11.58168,-15.23185 4.44262,-0.87744 8.8866,0.74111 12.8448,2.61741 1.59532,0.75378 3.20082,1.4935 4.7165,2.39988 1.46516,1.58976 0.62042,4.25713 -1.14537,5.25557 -1.92549,1.58013 -4.58708,2.26554 -7.03017,1.71762 -1.07899,-0.60681 0.0694,-2.55009 1.12588,-1.8611 1.73275,0.60768 3.88631,0.91506 5.42823,-0.31755 1.11397,-1.53852 -0.30626,-3.83716 -2.10302,-3.92609 -4.53153,-1.03743 -9.07883,-2.00449 -13.62418,-2.97964 -1.68172,-0.0567 -2.44353,2.20852 -1.63569,3.47303 0.99774,1.37966 2.98402,1.37492 4.10784,2.6278 1.15043,1.02749 1.39105,2.64483 2.43038,3.76001 3.43659,4.35022 10.30098,5.70005 14.99196,2.57777 2.56549,-1.67549 4.11719,-4.71607 3.93318,-7.76688 -0.0875,-3.19649 -1.97431,-6.26782 -4.83272,-7.74654 -3.1957,-1.85138 -6.89447,-2.47244 -10.36872,-3.60945 -2.8539,-0.76643 -5.80913,-1.38327 -8.77079,-1.33144 -0.2085,0.0455 -0.417,0.0909 -0.62548,0.13449 z m 63.45965,4.1493 c 2.21431,0.76926 4.18722,2.09091 5.95579,3.60355 -3.715,-0.0635 -7.42565,0.17745 -11.13176,0.40466 -1.16046,-0.34528 -1.181,-2.27506 -0.0321,-2.65078 1.52695,-1.00185 3.38014,-1.51597 5.20809,-1.35743 z"
       inkscape:connector-curvature="0" />
    <path
       id="path3664-5"
       style="font-style:normal;font-variant:normal;font-weight:bold;font-stretch:normal;font-size:37.02337265px;line-height:125%;font-family:BhashitaComplex;-inkscape-font-specification:'BhashitaComplex Bold';letter-spacing:-0.46558732px;word-spacing:0px;writing-mode:lr-tb;fill:#000000;fill-opacity:1;stroke:none;stroke-width:1px;stroke-linecap:butt;stroke-linejoin:miter;stroke-opacity:1"
       d="m 1040.5382,586.84848 c -5.4628,0.81221 -9.6869,4.2882 -14.3519,6.68657 -1.5719,0.78889 -3.3888,1.76072 -3.7732,3.48466 0.1224,1.09414 1.6482,1.24481 2.5659,0.90588 1.2696,-0.19553 2.7192,-0.34137 3.8305,0.37539 1.1484,2.74373 0.6542,5.74014 0.4723,8.59353 -0.375,3.61556 -0.5852,7.246 -0.6992,10.87004 -0.1265,1.05107 -1.4849,1.293 -2.3151,1.77153 -2.9953,1.28947 -6.442,2.17408 -8.5464,4.65935 -1.7539,1.79484 -2.7815,4.15618 -2.8366,6.549 1.2303,2.08943 4.1022,2.50789 6.4771,2.6084 4.1446,0.3434 8.6899,0.7339 11.9353,3.34787 5.251,4.51807 4.574,13.24043 -1.3326,17.05755 -4.6643,3.37411 -11.3474,3.62589 -16.766,1.70838 -5.1663,-1.77508 -9.6803,-4.72219 -14.4,-7.25893 -1.4754,-0.91134 -3.1921,-1.64422 -4.3041,-2.93828 -2.91495,-4.06449 -0.3939,-10.43771 4.9084,-11.61137 3.1146,-0.826 6.3819,-0.92591 9.6027,-1.05012 2.79,-1.30089 3.2122,-5.15488 0.9739,-7.06027 -3.6915,-4.67303 -11.9518,-5.54185 -16.7337,-1.74895 -1.79833,0.73564 -2.79647,3.22142 -1.1658,4.52903 1.538,1.43881 4.3809,1.32648 5.8755,-0.11534 1.4989,-0.86147 3.0549,-1.6895 4.7801,-2.12001 1.5361,0.39125 2.921,1.22383 3.9378,2.33149 -4.6792,0.71101 -9.7396,1.20338 -13.5527,4.01318 -5.92259,4.65327 -6.06296,14.006 -0.1478,18.70559 5.1138,4.05805 11.7555,5.89274 18.0759,7.8406 6.7579,1.77022 14.3912,1.89674 20.7532,-1.11518 5.9244,-2.76812 10.6476,-8.02934 11.4957,-14.09358 0.1692,-4.47853 -1.6151,-9.04667 -5.101,-12.26888 -0.9715,-0.33116 -1.724,-1.61425 -0.8718,-2.37758 1.0955,-1.70528 -0.02,-3.69579 -1.1538,-5.12234 -2.2001,-2.93624 -3.1817,-6.46703 -3.3926,-9.97454 -0.067,-1.24674 -0.2633,-2.53747 -0.1096,-3.76379 1.1295,-2.25253 4.1458,-3.05537 5.3131,-5.29592 3.3122,-4.59262 5.9296,-9.93185 5.62,-15.51771 -0.04,-1.67304 -2.024,-2.4987 -3.6352,-2.58937 -0.4747,-0.0452 -0.9526,-0.0415 -1.4286,-0.0104 z m -2.8299,5.74672 c 1.6987,1.02845 1.3967,3.27098 0.4381,4.66053 -0.4564,1.16793 -2.7397,0.35666 -2.1493,-0.76931 0.7009,-1.21443 0.3023,-2.86525 1.4435,-3.86847 l 0.1787,-0.0344 0.089,0.0196 z m -117.99819,9.13154 c -1.46725,0.92429 -0.9069,3.32371 0.83197,3.6589 2.37975,1.26099 3.10801,4.05924 2.58184,6.37066 -0.0103,2.88831 -0.022,5.77641 -0.0328,8.66434 -4.78887,0.42649 -9.7479,0.2223 -14.32302,1.77569 -0.5107,0.84803 -2.22233,0.48781 -2.22751,-0.48967 -1.37741,-3.83042 -6.12211,-6.02848 -10.41976,-5.55718 -4.77379,0.003 -9.69406,2.95694 -10.65089,7.32856 -1.37575,5.12351 -0.63328,10.42576 -0.82222,15.63505 0.0762,4.43807 0.24916,8.95645 1.76878,13.21546 2.70372,4.27485 8.85155,6.12144 13.99808,4.84344 6.1276,-0.99389 12.20742,-3.78433 15.6616,-8.60727 2.68653,-4.61003 -0.12709,-11.08431 -5.6581,-12.67401 -1.70005,-0.70278 -1.67673,-3.01237 -0.34498,-4.02067 2.53022,-3.70603 8.21843,-5.65503 12.68235,-3.72514 4.13962,1.95332 6.20883,6.20275 6.65564,10.23309 0.6316,4.61966 -0.97774,9.7332 -5.12294,12.70678 -2.78213,1.67527 -6.29223,1.44304 -9.46185,1.18562 -1.24757,-0.009 -2.54343,1.32924 -1.66243,2.36929 1.00257,1.47978 3.17583,1.37569 4.85397,1.55849 7.33093,0.37779 14.33354,-4.72695 15.77969,-11.17921 1.92591,-6.69139 0.10077,-14.00896 -4.18629,-19.65795 -1.07432,-1.44134 -2.0063,-3.01367 -2.15043,-4.78008 -0.20401,-1.41104 -0.20428,-2.83667 -0.24936,-4.25701 0.88702,-1.82511 3.38032,-1.89932 5.05105,-2.83613 3.86901,-2.32629 4.12743,-8.26197 0.2132,-10.6534 -2.06134,-1.18136 -4.73149,-1.29214 -6.99675,-0.54269 -1.89505,-0.0138 -3.73099,-0.51558 -5.6138,-0.65024 l -0.15507,0.0855 z m 9.73991,4.07299 c 1.76886,1.08726 1.64738,3.80166 -0.0652,4.90908 -2.38389,-0.59438 -2.41122,-4.13794 -0.19491,-4.91624 0.0847,-0.0257 0.17305,0.002 0.25984,0.002 z m 31.33743,12.01117 c -8.9164,1.14717 -16.43572,7.43727 -19.23409,15.05599 -2.98957,7.13583 -3.18169,15.43854 0.58007,22.37101 3.78072,5.91599 11.00405,9.53829 18.38414,10.40161 6.65417,1.06619 13.87035,0.81904 19.91986,-2.15089 6.2579,-3.6153 8.77092,-11.60363 5.56876,-17.64789 -0.72332,-1.05368 -2.73676,-1.03351 -3.25933,0.18384 -0.75267,1.44904 0.2637,2.9851 0.17348,4.48597 0.23989,3.18526 -0.80827,6.76172 -3.88809,8.63121 -4.02651,2.75024 -9.54441,3.11872 -14.26967,1.82587 -5.86496,-1.08837 -11.77656,-3.30118 -15.72986,-7.50944 -5.01404,-6.5408 -5.3003,-15.62703 -1.12526,-22.5757 2.30891,-3.53873 6.80812,-5.93841 11.40527,-5.63062 5.32763,0.0236 10.57354,1.04894 15.72827,2.16823 1.6809,0.4348 3.68313,1.35674 3.7993,3.14196 0.24141,2.3605 -1.98115,4.51783 -4.52277,4.79803 -2.6458,0.69384 -5.61105,0.0666 -7.74035,-1.48175 -9.5e-4,-0.9667 1.37125,-1.5312 2.26364,-1.11039 1.83723,0.0976 3.68432,-0.14974 5.43781,-0.64486 1.33122,-2.00025 -0.63817,-4.88245 -3.19027,-4.80569 -5.13145,-0.93383 -10.35102,-1.70174 -15.60433,-1.51812 -2.40977,1.49503 -1.12877,5.55877 1.8036,5.65014 1.94964,-0.0712 3.35747,1.51586 3.85757,3.0627 2.67221,4.33057 8.83369,6.48939 14.06887,5.03964 3.78274,-0.85611 7.40985,-3.35772 8.32281,-6.90982 0.81722,-4.71104 -2.55947,-9.46865 -7.30914,-11.32146 -4.6796,-2.37754 -10.06016,-3.65675 -15.44029,-3.50957 z m 66.72095,8.16452 c 2.198,0.23198 4.2187,1.24999 5.7865,2.63287 -3.9022,-0.2542 -7.8172,-0.26368 -11.7278,-0.28273 0.8732,-1.87272 3.3757,-2.30308 5.3858,-2.35097 0.1853,-0.0174 0.3703,-0.0159 0.5554,0.004 z m -130.14407,-0.007 c 1.58424,0.15019 3.1655,0.45906 4.76632,0.35004 1.06172,0.56388 0.21022,1.75713 0.3098,2.6104 -0.21548,3.071 0.0263,6.18956 0.97833,9.153 1.30049,1.61616 3.73412,1.40106 5.66467,1.76811 2.89734,0.59433 3.98572,4.11749 2.31868,6.20328 -1.40754,1.95271 -3.91136,2.89798 -6.16083,3.84828 -3.83388,1.33217 -8.41201,1.47856 -12.05057,-0.39839 -3.37323,-2.27291 -4.49896,-6.36933 -4.07497,-10.00297 0.13338,-4.30467 1.85849,-8.40951 3.92574,-12.23796 1.07063,-1.08766 2.79157,-1.33915 4.32283,-1.29379 z"
       inkscape:connector-curvature="0" />
  </g>
</svg>
