<?xml version="1.0" encoding="UTF-8" standalone="no"?>
<!-- Created with Inkscape (http://www.inkscape.org/) -->

<svg
   xmlns:dc="http://purl.org/dc/elements/1.1/"
   xmlns:cc="http://creativecommons.org/ns#"
   xmlns:rdf="http://www.w3.org/1999/02/22-rdf-syntax-ns#"
   xmlns:svg="http://www.w3.org/2000/svg"
   xmlns="http://www.w3.org/2000/svg"
   xmlns:xlink="http://www.w3.org/1999/xlink"
   xmlns:sodipodi="http://sodipodi.sourceforge.net/DTD/sodipodi-0.dtd"
   xmlns:inkscape="http://www.inkscape.org/namespaces/inkscape"
   id="svg2"
   version="1.1"
   inkscape:version="0.91 r"
   width="2481"
   height="3503"
   sodipodi:docname="Pepper-and-Carrot_by-David-Revoy_E02P04.svg">
  <metadata
     id="metadata8">
    <rdf:RDF>
      <cc:Work
         rdf:about="">
        <dc:format>image/svg+xml</dc:format>
        <dc:type
           rdf:resource="http://purl.org/dc/dcmitype/StillImage" />
        <dc:title />
      </cc:Work>
    </rdf:RDF>
  </metadata>
  <defs
     id="defs6" />
  <sodipodi:namedview
     pagecolor="#ffffff"
     bordercolor="#666666"
     borderopacity="1"
     objecttolerance="10"
     gridtolerance="10"
     guidetolerance="10"
     inkscape:pageopacity="0"
     inkscape:pageshadow="2"
     inkscape:window-width="1366"
     inkscape:window-height="705"
     id="namedview4"
     showgrid="false"
     inkscape:zoom="0.25606623"
     inkscape:cx="1240.5"
     inkscape:cy="1751.5"
     inkscape:window-x="-8"
     inkscape:window-y="-8"
     inkscape:window-maximized="1"
     inkscape:current-layer="layer1" />
  <g
     inkscape:groupmode="layer"
     id="layer2"
     inkscape:label="artwork"
     sodipodi:insensitive="true">
    <image
       sodipodi:absref="/home/deevad/peppercarrot/webcomics/New/lang/si/../gfx_Pepper-and-Carrot_by-David-Revoy_E02P04.png"
       xlink:href="../gfx_Pepper-and-Carrot_by-David-Revoy_E02P04.png"
       y="0"
       x="-1.6728083e-06"
       id="image10"
       height="3503"
       width="2481" />
  </g>
  <g
     inkscape:groupmode="layer"
     id="layer1"
     inkscape:label="text">
    <path
       id="path3664-6-9"
       style="font-style:normal;font-variant:normal;font-weight:bold;font-stretch:normal;font-size:37.02337265px;line-height:125%;font-family:BhashitaComplex;-inkscape-font-specification:'BhashitaComplex Bold';letter-spacing:-0.46558732px;word-spacing:0px;writing-mode:lr-tb;fill:#8fc9ff;fill-opacity:1;stroke:none;stroke-width:1px;stroke-linecap:butt;stroke-linejoin:miter;stroke-opacity:1"
       d="m 1729.2644,1531.995 c -1.2202,0.3193 -2.5933,1.4966 -3.7336,0.5281 -1.6023,-1.0925 -3.8388,1.7866 -2.9655,3.8707 0.6552,1.088 2.1195,1.2358 2.2773,2.8442 0.5306,2.4265 -0.2015,5.0261 -0.2236,7.5298 -0.2857,3.7601 -0.6019,7.519 -0.938,11.2768 -1.1701,1.101 -2.4473,-0.394 -3.6859,0.2911 -3.4638,0.6696 -6.5971,4.9721 -6.593,9.5539 0.2484,1.7827 1.8715,1.9781 3.0375,2.0955 3.4417,0.4871 7.1588,1.1402 9.6733,4.3162 2.1528,2.5075 2.7716,6.8863 1.5628,10.5641 -0.6155,2.1548 -1.8242,4.1332 -3.4545,5.1282 -3.1904,2.8708 -7.1873,2.8961 -10.664,2.0097 -5.3898,-1.2587 -10.1496,-4.8814 -14.2086,-9.3063 -2.1606,-3.1763 -1.6078,-8.8976 1.2015,-11.6873 2.2042,-2.5715 5.3469,-3.069 7.9768,-2.2342 0.9288,0.1148 1.8732,0.2049 2.8172,0 1.7967,-2.14 1.6215,-5.717 0.6219,-8.1025 -1.6578,-4.0427 -5.7684,-5.4461 -9.1907,-3.9514 -1.5673,0.6031 -3.1995,1.8304 -3.9989,3.7812 -0.5832,2.7279 2.0801,5.0172 3.8809,3.3158 1.4391,-0.9215 2.7856,-2.8856 4.4683,-2.4828 1.1725,0.3608 2.1916,1.5644 2.3706,3.1609 -2.9672,0.054 -6.175,-0.5352 -8.9401,1.6515 -4.9948,3.4424 -7.3571,12.2237 -5.0105,18.4112 1.4242,4.5728 4.8079,7.1292 7.4263,10.3785 2.2022,2.5672 4.4231,5.196 7.0618,7.0183 3.2681,1.4885 7.1358,2.1654 10.5304,-0.037 2.4623,-1.7166 4.7786,-3.9821 6.401,-7.0078 2.0523,-3.6829 3.4993,-7.9594 4.0443,-12.3441 0.4789,-4.8398 -0.9387,-9.9827 -4.1286,-12.3867 -2.8451,-2.5393 -6.3347,-3.5994 -9.7843,-4.2648 0.36,-2.6286 2.8155,-4.0183 4.584,-3.3608 2.0111,0.4005 3.6509,2.2534 4.4787,4.5807 0.6433,0.8653 1.8783,1.1502 2.6622,0.2021 0.3927,-2.8374 -1.6402,-4.5969 -2.0286,-7.1252 -0.3006,-2.4784 0.3705,-5.0147 0.3744,-7.5191 0.2643,-1.1787 1.3916,-1.2319 2.1232,-1.0959 2.5116,-0.7963 4.0456,-4.2827 4.1749,-7.4002 0.4889,-4.0942 -0.1981,-8.4926 -2.4007,-11.3252 -0.5461,-0.4307 -1.1271,-0.8581 -1.8003,-0.8902 z m 0.3874,5.6682 c 1.1366,2.1796 0.957,5.3579 -0.2745,7.6481 -0.8184,0.6829 -1.8073,-0.5928 -1.4618,-1.6844 0.2391,-2.005 -0.075,-4.1461 0.7519,-6.0299 0.3145,-0.4073 0.8232,-0.5653 0.9835,0.066 z m -52.9668,12.5197 c -5.3823,-0.2831 -10.7881,4.2659 -13.4638,10.5267 -3.5433,7.1508 -5.4155,15.9449 -4.0237,23.9462 0.9431,5.9754 4.3644,10.8666 8.771,12.7604 4.2064,2.0377 8.7706,3.7439 13.4594,2.6483 2.1034,-0.4586 4.2085,-1.5412 5.8068,-3.5542 3.2899,-3.8576 5.0609,-9.8657 4.4128,-15.2863 -0.1567,-0.9129 -0.3221,-2.2077 -1.2379,-2.183 -1.0028,-0.081 -2.0315,1.2248 -1.7784,2.5414 -0.025,2.8535 2.4043,9.8508 1.1723,12.4723 -1.1743,2.8979 -5.8346,0.9994 -8.2599,1.4779 -3.132,0.7033 -6.1215,-0.6999 -8.9011,-2.0866 -3.3453,-1.8211 -6.7756,-4.3679 -8.3147,-8.8265 -1.8075,-5.3765 -1.3072,-11.7837 0.1547,-17.513 1.299,-4.8322 3.7821,-9.5971 7.4699,-11.8396 3.1504,-1.8052 6.5648,-0.9588 9.563,0.2666 2.3214,0.9916 4.552,2.3703 6.485,4.2518 1.2942,1.5503 1.4632,4.6069 0.023,6.3808 -2.2737,3.1093 -6.5505,3.5883 -8.5777,0.4486 -0.7371,-0.7202 -0.3089,-2.5503 0.6824,-2.5582 1.5858,0.2674 3.2005,1.547 4.8469,0.522 1.1685,-1.016 0.5549,-3.4803 -0.7036,-3.5921 -3.6709,-1.151 -7.228,-2.7925 -10.9867,-3.5616 -1.6552,0.4735 -1.6828,4.1001 -0.073,4.3809 0.8192,0.338 1.6806,0.4989 2.5307,0.7015 0.5483,1.8985 -0.2414,4.3398 0.8654,5.9495 1.6903,3.9575 5.6497,5.3036 9.0676,4.2224 3.2202,-0.8229 6.3452,-4.478 6.5402,-8.8798 0.2771,-4.0976 -1.7972,-7.7537 -4.5446,-9.2474 -3.3207,-2.4472 -7.0945,-3.9053 -10.9864,-4.3696 z m -24.235,-22.6314 c -1.4542,-0.1096 -2.1502,3.0758 -0.8075,3.7231 0.8899,0.7126 2.1478,1.6642 1.8602,3.3335 -0.5534,4.3767 -1.1988,8.7408 -1.8197,13.1081 -0.8443,1.065 -1.8722,-0.081 -2.8045,0.019 -3.8253,-0.3064 -8.1716,1.5545 -10.5675,5.9513 -1.692,3.3016 -2.4633,7.1943 -2.6774,10.9926 0.5337,1.7525 2.2395,1.5245 3.4625,1.7236 1.6003,0.3534 2.5693,2.8384 1.7939,4.8393 -0.7637,3.3314 -3.4464,5.4103 -5.9369,5.7904 -2.8408,0.8698 -6.1154,1.0149 -8.3679,-1.3597 -1.774,-2.2749 -1.7999,-5.9127 -1.4558,-9.0793 0.3954,-5.4612 1.7912,-10.8133 3.4129,-15.9581 1.3224,-2.9187 4.4913,-3.7439 6.4967,-2.1295 0.9379,0.4781 2.1204,1.0999 3.1016,0.1717 0.7394,-1.6723 -0.2597,-3.6106 -1.5003,-4.0216 -2.2737,-1.7302 -5.2188,-2.9276 -7.9136,-1.3252 -2.3042,1.573 -3.3081,4.9753 -3.9746,7.9824 -1.7231,8.1816 -3.6238,16.5376 -3.3434,24.9187 0.2668,3.4584 2.0157,6.7799 4.7293,7.427 3.9133,1.3644 8.2128,0.137 12.0585,-1.9004 2.7942,-1.6397 5.2519,-4.8489 5.9047,-8.7933 0.737,-3.593 0.01,-7.8906 -2.5268,-9.6208 -0.6301,-0.6981 -1.7241,-0.572 -2.2239,-1.3186 -0.4432,-1.7908 0.7005,-3.5328 1.5415,-4.9135 2.8797,-3.992 8.2973,-4.4222 10.7935,-0.3603 2.3065,4.0128 2.2634,9.6124 1.3259,14.5543 -0.7449,3.7562 -2.4794,7.6919 -5.369,9.3125 -2.181,1.0605 -4.3463,-0.053 -6.4036,-0.6228 -1.1028,-0.056 -2.3615,1.7938 -1.5569,3.0371 0.8948,1.4103 2.4651,1.519 3.7784,1.9073 3.659,0.6752 7.7536,-1.5884 9.9434,-5.8034 3.5756,-6.1711 4.7457,-14.3267 3.4158,-21.3817 -0.4592,-2.3402 -1.3531,-4.4475 -2.3416,-6.421 -0.5006,-2.1498 0.4335,-4.4041 0.5787,-6.6018 0.1909,-0.8186 -0.051,-2.1425 0.7103,-2.5343 0.7528,-0.1655 1.482,0.3987 2.2358,-0.048 2.1691,-0.6984 3.6912,-3.5064 3.9447,-6.2676 0.4303,-2.9108 -0.5023,-6.3153 -2.7087,-7.2415 -1.147,-0.3267 -2.3736,0.096 -3.4736,0.724 -1.2827,-0.086 -1.9926,-1.8914 -3.315,-1.8103 z m 5.7158,5.2025 c 1.2335,0.9745 0.8945,3.4382 0.077,4.8362 -0.5061,0.8597 -1.99,0.9589 -1.8225,-0.4109 0.01,-1.0111 0.3917,-2.0139 0.269,-3.0223 0.1474,-0.8255 0.8087,-1.6678 1.4767,-1.406 z"
       inkscape:connector-curvature="0"
       sodipodi:nodetypes="ccccccccccccccccccccccccccccccccccccccccccccccccccccccccccccccccccccccccccccccccccccccccccccccccccccccccccccccccccccccccccccccc" />
    <path
       id="path3664-6-9-1"
       style="font-style:normal;font-variant:normal;font-weight:bold;font-stretch:normal;font-size:37.02337265px;line-height:125%;font-family:BhashitaComplex;-inkscape-font-specification:'BhashitaComplex Bold';letter-spacing:-0.46558732px;word-spacing:0px;writing-mode:lr-tb;fill:#ffd28f;fill-opacity:1;stroke:none;stroke-width:1px;stroke-linecap:butt;stroke-linejoin:miter;stroke-opacity:1"
       d="m 2165.3721,1519.1813 c -1.7385,0.4521 -3.5639,0.7998 -5.2372,1.3353 -2.2571,1.0786 -1.8294,3.6389 0.5417,4.5151 3.3495,2.1465 4.2966,5.2833 5.2985,8.1632 1.0967,3.4626 2.1934,6.9249 3.2905,10.3873 -0.8963,1.871 -4.0394,2.5013 -5.9126,3.8451 -3.6824,2.498 -5.03,6.2754 -3.7876,9.6247 1.7446,1.3591 4.6799,1.3453 7.1567,1.3874 4.1071,0.097 8.5261,0.1357 12.0723,1.688 5.5821,2.8971 7.5582,8.2241 5.1609,12.5726 -1.5615,3.2983 -5.4863,6.3309 -10.7767,7.0925 -5.3903,0.7693 -10.8419,-0.3328 -15.929,-1.4374 -4.5802,-1.0725 -9.4713,-2.1378 -12.8464,-4.5634 -4.4102,-3.3274 -4.1535,-8.9042 0.7536,-11.9636 2.7741,-1.6157 6.5736,-1.992 9.8185,-3.0368 2.1454,-1.0374 2.1662,-3.0566 1.3659,-4.5685 -1.3753,-3.1093 -5.8105,-5.7322 -10.8684,-5.7451 -4.9769,0.081 -9.3679,2.7735 -10.2527,5.947 0.4534,1.3837 2.1138,2.5756 4.2196,2.9194 2.5915,-1.2537 4.7515,-2.844 7.3223,-4.1141 1.5661,-0.2429 3.4689,0.3349 3.8646,1.4084 -2.3677,1.9825 -6.7764,2.1716 -9.1077,4.1897 -4.3385,2.9072 -5.99,7.1781 -5.4254,11.1579 0.1,3.2599 0.7757,6.672 3.4818,9.4775 4.1109,3.9867 10.3018,6.764 16.5222,9.174 7.9877,3.2397 18.8859,3.3679 26.7589,-0.1109 8.2337,-3.5941 12.9467,-10.279 12.0403,-16.7238 -0.5002,-5.5318 -3.975,-11.0162 -10.137,-14.8541 -1.1229,-0.8897 -2.879,-1.281 -4.0734,-2.1196 0.5619,-1.0429 2.7044,-1.5492 2.6033,-2.7731 0.3718,-1.4939 -1.0093,-2.8363 -2.4498,-3.8945 -2.7348,-2.3971 -5.6281,-4.7795 -7.3485,-7.583 -0.5421,-1.6503 1.2122,-3.0853 2.5628,-4.3487 2.468,-2.1026 2.373,-4.9615 1.5787,-7.435 -1.2019,-3.4896 -3.5702,-6.8767 -7.3934,-9.4626 -1.3082,-0.645 -3.167,-0.6834 -4.6091,-0.2101 l -0.2582,0.058 z m 4.4053,5.3717 c 1.9312,1.2222 2.4055,3.0289 3.5817,4.5469 0.6594,1.1048 -2.3036,1.9895 -3.0716,0.8819 -1.0085,-1.5607 -1.1007,-3.2773 -1.3798,-4.9398 0.023,-0.2667 0.3989,-0.6531 0.8697,-0.489 z m -108.9056,11.1601 c -1.878,0.4393 -3.9721,0.7813 -5.9273,0.3481 -2.1003,-0.1788 -3.5072,1.8849 -1.8523,2.7732 2.1636,1.5666 4.6217,3.2542 4.9699,5.4633 1.0138,3.2491 1.775,6.5288 2.5865,9.8017 -0.3143,1.3911 -2.4137,2.1944 -4.3037,2.5469 -7.6576,1.7722 -12.8841,7.1169 -12.322,12.4198 0.092,2.0677 0.3665,4.1294 0.6932,6.1863 1.0517,1.3451 3.5441,1.7451 5.6626,1.8483 3.8277,0.5838 5.9085,3.7637 4.1612,6.0366 -2.0872,3.8475 -8.8534,6.3117 -14.9147,5.3369 -2.639,-0.6479 -3.8368,-2.5401 -4.2861,-4.2375 -2.2829,-6.156 -3.7981,-12.4779 -3.6764,-18.8274 0.1491,-1.4463 1.2552,-3.0243 3.4677,-3.532 1.7684,-0.544 3.8915,-0.5976 5.4079,-1.4785 1.0674,-0.9904 0.184,-2.4025 -1.2657,-2.9991 -2.5511,-1.4056 -5.8761,-2.0574 -9.1338,-2.3003 -3.9428,-0.097 -7.8185,1.8296 -8.5314,4.4077 -1.3327,3.1362 -0.7263,6.4224 -0.951,9.6314 0.011,6.0472 0.156,12.2701 3.527,17.9845 2.1165,3.7103 5.4121,7.3531 10.6768,9.4651 4.5779,1.6179 10.3996,0.8881 14.4186,-1.1249 6.4553,-2.8723 11.1248,-7.7723 11.0223,-12.9818 -0.1171,-3.8963 -3.5963,-7.702 -8.8926,-9.4909 -2.3971,-0.8993 -2.8874,-2.9904 -2.1741,-4.6092 1.0578,-3.0569 5.4902,-5.6526 10.3885,-5.4598 3.736,0.2288 6.5706,2.2299 8.0733,4.3558 3.9226,5.0816 5.7854,11.0596 3.7057,16.6732 -0.5805,1.7124 -1.6328,3.5863 -4.17,4.4301 -2.0748,0.8433 -4.5751,0.8877 -6.8999,1.1853 -1.3192,0.2553 -2.6757,1.154 -2.1184,2.1165 0.6489,1.1451 2.7252,1.5003 4.4105,1.4059 6.1878,0.049 11.9153,-3.0373 13.4434,-6.9398 2.5887,-5.5471 1.8036,-11.5618 -0.9024,-17.0195 -1.7838,-3.7313 -4.6449,-7.1738 -7.2836,-10.6609 -1.9229,-2.3865 -2.7388,-5.0505 -3.5409,-7.6735 1.0313,-2.1119 4.8108,-3.0587 5.5672,-5.2643 1.3169,-3.2993 -0.2059,-6.932 -3.5488,-9.4976 -1.3392,-0.4417 -2.9451,-1.1326 -4.4444,-0.581 -0.3476,0.088 -0.6951,0.1735 -1.0428,0.2614 z m 3.0611,3.6604 c 1.1822,1.2115 1.9269,2.5735 2.6821,3.9164 -0.1751,1.1757 -3.3299,1.0861 -3.3777,-0.089 -0.024,-1.1359 -0.4536,-2.2608 -0.2908,-3.3992 0.1978,-0.2212 0.5216,-0.5437 0.9864,-0.4292 z m 104.8981,11.5835 c 3.1745,0.3784 5.4203,2.0287 8.0209,3.1378 -1.6178,0.1769 -3.2638,-0.066 -4.8949,0.04 -2.0589,0.01 -4.1163,0.079 -6.1737,0.13 -2.1094,-0.3476 -1.9987,-2.7147 0.1343,-2.9848 0.9378,-0.1936 1.9172,-0.3968 2.9126,-0.3232 z m -69.3131,-0.1028 c -8.1378,1.7239 -14.2006,6.7522 -15.3939,12.2696 -1.4638,5.9706 -2.7045,12.1374 -0.7268,18.1222 1.9501,5.0734 5.1307,10.0142 10.0042,14.1813 4.9574,4.0308 12.6757,6.7963 20.6886,6.5494 5.5459,-0.1641 11.0871,-1.4476 15.3791,-3.7838 1.6889,-0.9932 2.8358,-2.3665 3.0996,-3.8509 0.7866,-2.7764 1.7724,-5.5288 3.1189,-8.2125 0.529,-1.1921 0.6248,-2.4577 0.1876,-3.6678 -0.6076,-2.5558 -1.2153,-5.1119 -1.8227,-7.6677 -1.7749,-1.5758 -6.2531,-0.6617 -6.3716,1.2952 0.7334,2.9762 1.555,6.0911 0.1288,9.0399 -0.8725,1.9645 -2.0144,4.0383 -4.4467,5.4016 -2.5615,1.0692 -5.7357,0.6201 -8.5575,0.4108 -5.0406,-0.4216 -10.0919,-1.2675 -14.5227,-2.9374 -4.6058,-2.022 -7.2357,-5.5062 -8.1532,-9.0193 -1.8246,-4.7055 -3.9649,-9.5537 -2.9272,-14.4572 0.6539,-3.0777 2.703,-6.1395 6.399,-8.1575 4.4843,-2.0651 10.4586,-2.1582 15.5166,-1.0413 2.9835,0.5527 6.2199,1.0288 8.5024,2.5074 3.0323,2.4263 2.081,6.5942 -2.1762,8.1422 -2.7795,0.9206 -6.3926,0.5839 -8.6631,-0.8147 -0.7486,-1.0496 0.8778,-2.3809 2.5953,-2.1766 1.6864,-0.1956 3.4672,-0.3422 4.9217,-0.9866 0.9884,-1.3508 -1.039,-3.1113 -3.2847,-2.8664 -5.0368,-0.1852 -10.0737,-0.3719 -15.1104,-0.5579 -2.6295,0.4914 -2.7121,3.3717 -0.1045,3.9163 1.6324,0.3848 3.3637,0.6568 4.8241,1.2953 1.7829,2.2348 3.5064,4.7091 6.9005,6.0844 5.9546,1.8234 13.7815,-0.4064 15.9877,-4.4482 2.3547,-3.9617 0.1335,-8.7005 -4.6575,-11.4527 -3.1223,-1.902 -7.4048,-2.6314 -11.5333,-2.9403 -2.7774,-0.2274 -5.5793,-0.2672 -8.3713,-0.3716 -0.477,0.064 -0.9542,0.13 -1.4315,0.1948 z"
       inkscape:connector-curvature="0"
       sodipodi:nodetypes="ccccccccccccccccccccccccccccccccccccccccccccccccccccccccccccccccccccccccccccccccccccccccccccccccccccccccccccccccccccccccccccccc" />
    <path
       id="path3664-6-9-1-7"
       style="font-style:normal;font-variant:normal;font-weight:bold;font-stretch:normal;font-size:37.02337265px;line-height:125%;font-family:BhashitaComplex;-inkscape-font-specification:'BhashitaComplex Bold';letter-spacing:-0.46558732px;word-spacing:0px;writing-mode:lr-tb;fill:#ffd28f;fill-opacity:1;stroke:none;stroke-width:1px;stroke-linecap:butt;stroke-linejoin:miter;stroke-opacity:1"
       d="m 2155.0907,1418.3163 c -2.1038,0.4609 -4.3025,0.7996 -6.3352,1.3581 -2.7692,1.1612 -2.4582,4.1047 0.2953,5.1841 3.8192,2.5646 4.703,6.1849 5.6725,9.5126 1.0367,3.9976 2.0734,7.9951 3.1108,11.9926 -1.2113,2.1119 -4.9999,2.7312 -7.3331,4.2082 -4.5746,2.7387 -6.4701,7.0177 -5.2515,10.8904 1.9704,1.6115 5.4642,1.6909 8.4077,1.8195 4.8802,0.2443 10.135,0.4314 14.2343,2.3231 6.4176,3.4962 8.3566,9.6558 5.1671,14.5538 -2.113,3.7234 -7.0178,7.0662 -13.3718,7.7662 -6.4734,0.7052 -12.8743,-0.7323 -18.8419,-2.1614 -5.367,-1.3757 -11.1044,-2.7537 -14.9325,-5.6387 -4.9897,-3.9503 -4.2528,-10.3232 1.8231,-13.6648 3.4258,-1.7588 7.9758,-2.0663 11.9179,-3.1564 2.6332,-1.1176 2.8139,-3.4275 1.9788,-5.1835 -1.3954,-3.6025 -6.4698,-6.7475 -12.487,-6.926 -5.9284,-0.07 -11.3617,2.8698 -12.6596,6.4722 0.4322,1.5981 2.3153,3.0157 4.7942,3.4773 3.1806,-1.3506 5.8742,-3.1001 9.0316,-4.4701 1.8819,-0.227 4.1014,0.4957 4.489,1.7367 -2.9709,2.1917 -8.231,2.2654 -11.1613,4.4991 -5.3873,3.1859 -7.6829,8.0194 -7.3189,12.5915 -0.1314,3.7336 0.4062,7.6597 3.4087,10.9578 4.583,4.6952 11.7343,8.0738 18.949,11.0333 9.2536,3.9662 22.211,4.4661 31.848,0.7408 10.0752,-3.8454 16.2004,-11.3419 15.6213,-18.7459 -0.1675,-6.3461 -3.8769,-12.7342 -10.9118,-17.3257 -1.2673,-1.0548 -3.3266,-1.5593 -4.6829,-2.5574 0.7494,-1.1754 3.3376,-1.685 3.3125,-3.0887 0.5577,-1.6977 -0.9815,-3.2786 -2.6138,-4.5361 -3.0683,-2.8314 -6.3263,-5.6513 -8.1564,-8.9154 -0.5175,-1.9056 1.681,-3.4905 3.3862,-4.8926 3.0994,-2.326 3.2076,-5.6007 2.4536,-8.4566 -1.1599,-4.0319 -3.7156,-7.9846 -8.0645,-11.0674 -1.5065,-0.7806 -3.7153,-0.8849 -5.468,-0.3886 l -0.3118,0.058 z m 4.8255,6.2896 c 2.2037,1.4611 2.6281,3.5439 3.9099,5.3192 0.6989,1.2855 -2.8948,2.2015 -3.7228,0.9091 -1.0794,-1.8183 -1.0562,-3.7856 -1.2593,-5.6971 0.061,-0.304 0.5251,-0.7344 1.0722,-0.5312 z m -130.4464,9.2379 c -2.269,0.442 -4.7872,0.7656 -7.0797,0.2062 -2.4851,-0.2747 -4.3188,2.0432 -2.4192,3.1134 2.4535,1.8628 5.2473,3.8733 5.491,6.4123 0.9546,3.7511 1.6066,7.5286 2.3184,11.2999 -0.4814,1.5816 -3.0414,2.4327 -5.318,2.7746 -9.2487,1.7795 -15.881,7.7257 -15.6228,13.812 -0.04,2.3693 0.1154,4.7373 0.346,7.1013 1.1475,1.5734 4.0815,2.1115 6.5945,2.2985 4.5094,0.7922 6.7392,4.4982 4.4839,7.0426 -2.781,4.3351 -11.0224,6.9349 -18.1595,5.6231 -3.09,-0.827 -4.3686,-3.031 -4.7715,-4.9875 -2.2402,-7.1185 -3.5535,-14.4017 -2.9173,-21.6631 0.2893,-1.6502 1.7275,-3.4199 4.3996,-3.929 2.1462,-0.5653 4.6765,-0.5576 6.5491,-1.5164 1.3465,-1.0988 0.405,-2.7434 -1.2736,-3.473 -2.9267,-1.6909 -6.8328,-2.5445 -10.6899,-2.9282 -4.6844,-0.2401 -9.4445,1.8398 -10.4924,4.7668 -1.8286,3.5453 -1.3613,7.3252 -1.8772,10.9901 -0.4549,6.9199 -0.7644,14.0453 2.8042,20.6934 2.231,4.3142 5.8706,8.5895 11.9715,11.1768 5.3215,1.9999 12.3051,1.3538 17.2431,-0.8196 7.9032,-3.0772 13.8383,-8.5329 14.12,-14.4972 0.1605,-4.4622 -3.6831,-8.9297 -9.8464,-11.1486 -2.7826,-1.1067 -3.2041,-3.5152 -2.2298,-5.3447 1.495,-3.4634 6.97,-6.2897 12.7836,-5.9104 4.4273,0.3831 7.6452,2.7649 9.269,5.2461 4.2738,5.9421 6.0275,12.8428 3.118,19.1988 -0.8232,1.9406 -2.2201,4.0507 -5.3049,4.9337 -2.5335,0.8977 -5.512,0.8676 -8.3014,1.1327 -1.5895,0.2493 -3.2728,1.2337 -2.6844,2.3532 0.6834,1.3314 3.1266,1.8052 5.1392,1.7517 7.3603,0.2376 14.4124,-3.0889 16.5329,-7.5051 3.5099,-6.2634 3.0412,-13.1714 0.2268,-19.5043 -1.8334,-4.3271 -4.9711,-8.3591 -7.8409,-12.4347 -2.1034,-2.7932 -2.868,-5.8682 -3.6193,-8.8954 1.3906,-2.3832 5.9609,-3.344 7.0318,-5.8434 1.8221,-3.7325 0.29,-7.9391 -3.4873,-10.9827 -1.5594,-0.549 -3.4167,-1.3915 -5.243,-0.8092 -0.4204,0.089 -0.8408,0.1743 -1.2612,0.2654 z m 3.3584,4.288 c 1.3133,1.4246 2.0937,3.0072 2.8885,4.5682 -0.2993,1.3396 -4.0463,1.1347 -4.0123,-0.2109 0.059,-1.3006 -0.3648,-2.6014 -0.081,-3.8987 0.2538,-0.2472 0.6624,-0.6054 1.2066,-0.4595 z m 123.9178,16.6566 c 3.7479,0.5359 6.2924,2.4972 9.3012,3.8507 -1.9384,0.1504 -3.879,-0.1798 -5.8275,-0.1142 -2.4506,-0.057 -4.9037,-0.039 -7.356,-0.058 -2.4829,-0.4661 -2.168,-3.171 0.3912,-3.4111 1.1308,-0.1908 2.312,-0.3915 3.4906,-0.2751 z m -82.465,-2.3655 c -9.8164,1.7085 -17.4194,7.2657 -19.2664,13.5403 -2.2042,6.7847 -4.1575,13.8008 -2.2677,20.7127 1.9275,5.869 5.3293,11.6256 10.8055,16.552 5.5864,4.7729 14.5563,8.188 24.1101,8.1653 6.6112,-0.01 13.3037,-1.2972 18.5918,-3.831 2.0861,-1.0817 3.5573,-2.616 3.9859,-4.3061 1.1507,-3.1515 2.537,-6.2686 4.347,-9.2959 0.7217,-1.3469 0.9335,-2.7921 0.5061,-4.1908 -0.5252,-2.9446 -1.0503,-5.889 -1.5752,-8.8332 -1.9899,-1.8606 -7.3892,-0.9599 -7.6821,1.2755 0.6427,3.4294 1.3789,7.02 -0.546,10.3483 -1.1906,2.2196 -2.7097,4.5555 -5.7092,6.0366 -3.131,1.1405 -6.8727,0.5234 -10.2143,0.1924 -5.965,-0.6458 -11.9102,-1.7774 -17.0525,-3.8318 -5.3238,-2.4634 -8.1829,-6.5355 -9.0033,-10.5852 -1.8067,-5.4438 -3.9779,-11.0605 -2.3637,-16.6377 1.0164,-3.5005 3.6916,-6.9376 8.2457,-9.1269 5.4955,-2.2176 12.6115,-2.1302 18.5432,-0.6883 3.5074,0.7292 7.3213,1.3791 9.9226,3.1449 3.4203,2.8747 1.9656,7.6131 -3.2198,9.2464 -3.3785,0.9634 -7.6515,0.461 -10.2449,-1.2135 -0.8095,-1.2249 1.229,-2.6956 3.2565,-2.4065 2.0221,-0.1687 4.1523,-0.2787 5.9328,-0.9691 1.2803,-1.5134 -0.9955,-3.5937 -3.6866,-3.3865 -5.9785,-0.3768 -11.9572,-0.7521 -17.9362,-1.1286 -3.1666,0.4771 -3.4876,3.7706 -0.4269,4.478 1.9131,0.4936 3.9518,0.8609 5.6399,1.6386 1.9487,2.6152 3.8077,5.5023 7.7399,7.186 6.9437,2.2796 16.4296,-0.018 19.3674,-4.5714 3.1087,-4.457 0.8461,-9.9506 -4.655,-13.2559 -3.5677,-2.2775 -8.607,-3.2509 -13.4954,-3.7388 -3.2873,-0.3497 -6.6182,-0.4863 -9.9319,-0.6964 -0.5728,0.06 -1.1457,0.1209 -1.7186,0.1774 z"
       inkscape:connector-curvature="0"
       sodipodi:nodetypes="ccccccccccccccccccccccccccccccccccccccccccccccccccccccccccccccccccccccccccccccccccccccccccccccccccccccccccccccccccccccccccccccc" />
    <path
       id="path3664-6-9-9"
       style="font-style:normal;font-variant:normal;font-weight:bold;font-stretch:normal;font-size:37.02337265px;line-height:125%;font-family:BhashitaComplex;-inkscape-font-specification:'BhashitaComplex Bold';letter-spacing:-0.46558732px;word-spacing:0px;writing-mode:lr-tb;fill:#8fc9ff;fill-opacity:1;stroke:none;stroke-width:1px;stroke-linecap:butt;stroke-linejoin:miter;stroke-opacity:1"
       d="m 1750.1663,1433.2523 c -1.1227,0.526 -2.3339,2.1866 -3.4641,1.0224 -1.5709,-1.285 -3.4825,2.6768 -2.5313,5.3228 0.6833,1.3636 2.0645,1.4262 2.3152,3.5145 0.6518,3.1235 0.1326,6.5864 0.2713,9.8603 -0.023,4.9394 -0.087,9.88 -0.161,14.8212 -1.0258,1.543 -2.3179,-0.297 -3.4346,0.7085 -3.2026,1.1836 -5.8633,7.0857 -5.5671,13.073 0.3466,2.3077 1.8796,2.4184 2.9795,2.4683 3.2556,0.3299 6.78,0.8525 9.3386,4.7794 2.1769,3.0851 3.0362,8.7528 2.1383,13.6668 -0.439,2.8709 -1.4451,5.5642 -2.9091,7.0098 -2.8056,4.0357 -6.5488,4.4248 -9.8626,3.5761 -5.1301,-1.1653 -9.8208,-5.4759 -13.9058,-10.8973 -2.2271,-3.9586 -2.0746,-11.4851 0.3795,-15.3808 1.9008,-3.5572 4.8135,-4.4871 7.3306,-3.6305 0.8776,0.065 1.768,0.1027 2.6398,-0.2462 1.5466,-2.9566 1.1541,-7.6158 0.065,-10.6444 -1.8112,-5.1357 -5.7517,-6.6038 -8.8628,-4.3455 -1.4299,0.9278 -2.8808,2.6771 -3.5053,5.2976 -0.3723,3.6169 2.2691,6.3718 3.8477,3.9879 1.2894,-1.3323 2.4255,-4.0192 4.0279,-3.6427 1.1215,0.3672 2.1531,1.8493 2.4229,3.9198 -2.7768,0.3345 -5.8196,-0.15 -8.2707,2.9545 -4.4599,4.9437 -6.1126,16.6302 -3.5189,24.5076 1.6263,5.8494 4.9593,8.8889 7.62,12.9022 2.2271,3.1591 4.4758,6.397 7.0641,8.5435 3.157,1.6545 6.8238,2.1946 9.8635,-0.9859 2.1972,-2.4626 4.223,-5.6299 5.5496,-9.7285 1.6876,-4.9957 2.7704,-10.7137 3.0012,-16.4924 0.1394,-6.368 -1.5166,-12.963 -4.6588,-15.8206 -2.8274,-3.0652 -6.1646,-4.1399 -9.4391,-4.7023 0.1688,-3.4674 2.3814,-5.5023 4.0803,-4.8003 1.9098,0.3441 3.5644,2.6197 4.4884,5.5875 0.6578,1.0737 1.8333,1.336 2.5073,0.021 0.1882,-3.7429 -1.8302,-5.8616 -2.3556,-9.1311 -0.4397,-3.2123 0.024,-6.5869 -0.1293,-9.86 0.1709,-1.5641 1.2251,-1.734 1.9194,-1.6213 2.3023,-1.2642 3.5169,-5.9572 3.4391,-10.043 0.1953,-5.3942 -0.7279,-11.0814 -2.9724,-14.5872 -0.539,-0.5141 -1.1105,-1.0208 -1.7433,-1.003 z m 0.725,7.3731 c 1.2039,2.7472 1.2384,6.9169 0.2309,10.0195 -0.7231,0.9655 -1.7311,-0.6135 -1.477,-2.071 0.097,-2.6415 -0.335,-5.4118 0.3196,-7.9474 0.2685,-0.5603 0.735,-0.8121 0.9255,0.01 z m -48.825,21.0783 c -5.0607,0.1105 -9.8349,6.5359 -11.942,14.9561 -2.8633,9.6611 -4.056,21.3207 -2.2413,31.6536 1.265,7.7253 4.7827,13.8126 9.0322,15.8955 4.0708,2.2885 8.4562,4.112 12.7788,2.2626 1.9416,-0.7867 3.8447,-2.3891 5.2135,-5.1622 2.8362,-5.3343 4.1117,-13.3441 3.1585,-20.3704 -0.2051,-1.1794 -0.4425,-2.8564 -1.299,-2.7428 -0.9448,-0.01 -1.8252,1.7815 -1.5041,3.4797 0.1586,3.7316 2.8816,12.6599 1.8945,16.1957 -0.9151,3.8917 -5.4024,1.8256 -7.6442,2.6668 -2.8895,1.198 -5.7798,-0.3696 -8.4724,-1.9342 -3.2505,-2.082 -6.6269,-5.1051 -8.3534,-10.7951 -2.0368,-6.8652 -1.9771,-15.2836 -0.9733,-22.9011 0.9088,-6.4309 2.9311,-12.8794 6.2429,-16.1383 2.8365,-2.6399 6.0891,-1.8378 8.9764,-0.5035 2.2382,1.0893 4.4162,2.6925 6.3471,4.9796 1.3117,1.9108 1.6652,5.8901 0.4293,8.337 -1.9317,4.2657 -5.9081,5.2725 -8.0078,1.3499 -0.7364,-0.8757 -0.4523,-3.3054 0.476,-3.4043 1.5027,0.2091 3.0973,1.737 4.5744,0.2509 1.0299,-1.4319 0.2977,-4.5977 -0.8885,-4.6321 -3.5127,-1.1772 -6.95,-3.0057 -10.5208,-3.6762 -1.5203,0.7661 -1.3148,5.5083 0.2117,5.7317 0.7892,0.3691 1.6062,0.5026 2.4158,0.6915 0.6348,2.4325 0.05,5.6933 1.1905,7.6984 1.8362,5.0216 5.6317,6.4283 8.7648,4.7109 2.9646,-1.3623 5.6589,-6.4172 5.5608,-12.1874 -0,-5.3797 -2.1789,-9.9734 -4.8483,-11.6805 -3.2672,-2.9027 -6.896,-4.4722 -10.5719,-4.7325 z m -24.15,-27.4188 c -1.3695,-0.012 -1.8182,4.2112 -0.5192,4.9375 0.8794,0.8524 2.1184,1.984 1.9556,4.1911 -0.2383,5.769 -0.5652,11.53 -0.868,17.2929 -0.7228,1.467 -1.7591,0.063 -2.6263,0.2748 -3.6034,-0.064 -7.5566,2.7593 -9.5204,8.7187 -1.3745,4.4656 -1.8487,9.6215 -1.8068,14.6046 0.6117,2.243 2.1952,1.7929 3.3537,1.9442 1.5222,0.3195 2.5884,3.4806 1.9897,6.1648 -0.5027,4.4216 -2.8835,7.3776 -5.1926,8.0962 -2.6058,1.3894 -5.6647,1.8709 -7.9265,-1.0319 -1.8072,-2.8151 -2.0637,-7.5673 -1.9435,-11.7362 0.022,-7.1724 0.9878,-14.2914 2.1789,-21.1594 1.0525,-3.9322 3.9688,-5.2928 5.9507,-3.3614 0.9091,0.5412 2.0568,1.2484 2.9169,-0.05 0.5858,-2.2514 -0.474,-4.6957 -1.6624,-5.1222 -2.2409,-2.0587 -5.0763,-3.3615 -7.4988,-1.0273 -2.0584,2.2608 -2.7817,6.7967 -3.2141,10.7861 -1.0924,10.8458 -2.3395,21.9356 -1.5419,32.8639 0.4708,4.4957 2.3214,8.6808 4.9049,9.2849 3.7534,1.4349 7.7032,-0.5522 11.1761,-3.5571 2.5134,-2.392 4.611,-6.8048 4.971,-12.0178 0.4611,-4.7612 -0.4955,-10.313 -2.9815,-12.3484 -0.635,-0.8562 -1.6518,-0.594 -2.1678,-1.5252 -0.5294,-2.3008 0.4308,-4.6794 1.1307,-6.5588 2.443,-5.4735 7.4913,-6.5182 10.0891,-1.4319 2.4172,5.0389 2.7342,12.3607 2.1713,18.9027 -0.458,4.9755 -1.8318,10.2736 -4.4357,12.6486 -1.9757,1.5803 -4.0753,0.3172 -6.039,-0.2448 -1.037,0.026 -2.098,2.5545 -1.2649,4.1077 0.9281,1.7634 2.4064,1.7656 3.6618,2.1563 3.471,0.5565 7.1628,-2.7666 8.9453,-8.47 2.956,-8.3832 3.5319,-19.1461 1.8352,-28.2477 -0.5795,-3.0174 -1.5514,-5.6918 -2.6036,-8.183 -0.6062,-2.7649 0.1268,-5.7942 0.1219,-8.6795 0.127,-1.0866 -0.1847,-2.7954 0.5034,-3.3751 0.6947,-0.2832 1.4138,0.3891 2.0916,-0.2621 1.9877,-1.1058 3.2345,-4.9112 3.2956,-8.5423 0.2176,-3.8426 -0.8736,-8.209 -2.9998,-9.223 -1.0956,-0.3246 -2.2177,0.3369 -3.2083,1.2559 -1.2072,0.011 -1.9875,-2.2946 -3.2212,-2.0709 z m 5.6871,6.2902 c 1.2178,1.1638 1.0574,4.4137 0.3804,6.3136 -0.4191,1.1686 -1.8033,1.4305 -1.7337,-0.3747 -0.055,-1.322 0.2385,-2.6671 0.06,-3.9737 0.085,-1.0921 0.6511,-2.2515 1.2938,-1.9691 z"
       inkscape:connector-curvature="0"
       sodipodi:nodetypes="ccccccccccccccccccccccccccccccccccccccccccccccccccccccccccccccccccccccccccccccccccccccccccccccccccccccccccccccccccccccccccccccc" />
    <g
       transform="matrix(1.8357866,0,1.3392026e-8,1.9439063,-463.03726,-7559.2391)"
       style="font-style:normal;font-weight:normal;font-size:28.87806702px;line-height:125%;font-family:sans-serif;letter-spacing:0px;word-spacing:0px;fill:#ff4346;fill-opacity:1;stroke:none;stroke-width:1px;stroke-linecap:butt;stroke-linejoin:miter;stroke-opacity:1"
       id="text3818-0">
      <path
         id="path3847"
         style="font-style:normal;font-variant:normal;font-weight:bold;font-stretch:normal;font-size:50.53661346px;font-family:BhashitaComplex;-inkscape-font-specification:'BhashitaComplex Bold';letter-spacing:-0.11551225px;fill:#ff4346;fill-opacity:1"
         d="m 739.19531,4700.7617 c -2.23387,0.705 -4.57303,0.9194 -6.88281,1.2012 -1.5016,0.3474 -0.84553,2.922 0.62305,2.6484 1.40122,0.1866 2.29954,1.6499 2.11408,2.9952 0.26666,2.7045 -0.14169,5.4206 0.05,8.1279 -0.99223,1.168 -2.80297,0.7624 -3.88653,1.8127 -3.37312,1.8653 -5.92433,5.4948 -5.88496,9.4314 1.00663,1.5725 3.31483,1.5319 4.73633,0.5781 3.65896,-1.1455 8.29938,0.5238 9.69757,4.2617 1.50282,3.759 -1.03306,8.4556 -4.96254,9.3495 -5.81275,2.4322 -12.55154,2.9467 -18.54153,0.851 -2.47307,-1.0313 -4.79521,-3.3998 -4.54553,-6.2588 0.21136,-3.4795 3.47506,-6.4136 6.95463,-6.2878 1.84138,-0.1866 4.07995,-0.1586 5.28412,-1.8218 1.26382,-2.495 -0.61164,-5.6156 -3.15137,-6.3483 -3.5559,-1.5129 -8.2617,-0.4687 -10.38378,2.8932 -0.72563,1.7393 1.35316,3.5968 3.04317,2.9379 1.77297,-0.475 2.53836,-2.7087 4.49198,-2.7973 1.11413,-0.16 2.41491,0.2888 2.92578,1.3516 -0.21794,0.7544 -1.19797,0.3928 -1.7579,0.6787 -2.86222,0.5385 -6.05596,1.1251 -7.99183,3.5263 -4.00399,4.3584 -3.07634,12.162 1.90208,15.4024 3.83062,2.645 8.69973,2.9318 13.20594,2.7434 4.88995,-0.3324 9.94591,-1.657 13.75109,-4.8801 2.92305,-2.7087 4.35452,-7.0161 3.28012,-10.9019 -0.93622,-4.1679 -4.36866,-8.038 -8.78912,-8.4152 -1.71561,-0.1411 -3.43471,0.186 -5.06913,0.6901 -0.82382,-1.013 0.20486,-2.2312 0.95939,-2.9325 1.53761,-1.6016 4.38686,-2.2361 6.18434,-0.7317 0.57512,0.8833 1.65892,1.9783 2.79768,1.3908 1.5272,-1.1574 1.10697,-3.6085 -0.24414,-4.7324 -1.36936,-1.909 -0.67916,-4.3445 -0.76758,-6.5117 0.56806,-1.3398 2.38403,-0.7581 3.27846,-1.7198 2.5442,-1.8267 2.469,-6.2674 -0.31362,-7.8427 -0.61669,-0.422 -1.34509,-0.7419 -2.10742,-0.6895 z m -78.87109,2.8496 c -1.71558,0.4056 -1.5897,3.348 0.125,3.6563 1.98497,1.3094 2.10733,3.9669 1.84929,6.1025 -0.0127,2.5277 -0.0112,5.0554 0.002,7.583 -5.40774,-0.9232 -11.50058,1.9333 -13.58557,7.1472 -0.90504,2.1759 -1.36823,4.599 -0.87146,6.9349 2.03054,1.152 4.65327,0.1531 6.57813,1.58 1.61098,2.9926 -0.89916,6.9603 -4.17421,7.2375 -5.25097,1.6909 -11.74451,-0.3793 -14.45842,-5.3259 -2.23379,-5.1376 -0.16941,-11.9775 4.94088,-14.5424 2.61888,-1.3782 5.69564,-1.4218 8.5687,-1.0703 1.44984,-0.4892 0.71871,-2.9576 -0.70703,-2.8731 -3.99917,-1.126 -8.53645,-0.2093 -11.79094,2.3649 -5.35329,4.5026 -6.854,12.9254 -3.38327,19.0037 2.56877,4.6488 7.75165,7.8228 13.10979,7.6119 4.4635,0.012 9.20373,-2.1135 11.33225,-6.1925 1.55491,-3.2784 0.51199,-7.8819 -2.8882,-9.5498 -0.9775,-0.4953 -2.06039,-0.7437 -3.14331,-0.871 -0.57021,-2.2628 1.06227,-4.3702 2.75977,-5.6641 2.91606,-1.902 7.37756,-1.7607 9.64606,1.0928 2.73727,3.3579 3.10177,8.0904 2.09808,12.1709 -0.7641,2.6307 -2.89414,5.2125 -5.81135,5.3325 -1.41494,0.099 -2.85908,-0.2565 -4.25115,0.1226 -1.01685,1.123 0.30674,2.9918 1.70016,2.6981 5.11796,1.1157 10.51517,-2.7537 11.54491,-7.8001 1.86688,-5.9424 0.25956,-12.7261 -3.77827,-17.4136 -1.12876,-2.1415 -0.42233,-4.6116 -0.67969,-6.9043 1.22883,-0.8757 3.24538,-0.3637 4.01181,-1.9205 2.68975,-3.1624 1.50175,-8.8799 -2.4747,-10.3784 -1.60117,-0.3764 -3.17174,1.3515 -4.70703,0.3653 -0.49065,-0.2395 -0.99282,-0.5519 -1.5625,-0.4981 z m 79.14844,0.035 c 1.47082,0.6715 1.26435,3.3243 -0.38672,3.6152 -1.20508,-0.8146 -1.4103,-3.4176 0.38672,-3.6152 z m -73.27539,3.7617 c 1.65485,1.0147 1.66763,3.8411 -0.0527,4.7969 -1.2909,-1.2445 -1.36155,-3.5774 -0.0234,-4.8145 l 0.0762,0.018 z m 24.13085,13.1016 c -9.04611,0.2783 -16.91495,8.604 -16.8496,17.623 -0.3208,7.8254 5.07541,15.7218 12.76907,17.673 6.5593,1.808 14.30248,-0.4644 18.28757,-6.1203 1.95937,-3.0045 2.35962,-7.1015 0.59961,-10.289 -1.12047,-1.0045 -3.05663,0.7654 -2.17188,1.9746 1.49739,4.4004 -1.88742,9.4951 -6.38867,10.2207 -7.54506,2.3951 -16.57326,-2.4747 -18.53983,-10.1827 -1.62754,-5.5191 0.24171,-12.1909 5.16041,-15.4292 4.85843,-3.1945 11.62557,-3.398 16.52004,-0.1694 1.89066,2.091 0.27374,5.8134 -2.42303,6.2001 -1.82967,0.6722 -4.03582,0.3533 -5.50861,-0.9559 -0.19479,-1.2262 1.44487,-1.9891 2.4043,-1.375 1.13541,0.1397 2.60366,-0.1657 3.03906,-1.3692 -0.13733,-1.5906 -2.12943,-2.2373 -3.44922,-1.6835 -3.01436,0.086 -6.03977,0.044 -9.03906,0.4023 -1.07025,1.136 0.44397,3.2515 1.86719,2.6523 0.59853,0.062 1.22295,-0.143 1.80078,0.09 0.17112,3.7663 4.27096,6.4585 7.84072,5.7215 3.90441,-0.128 7.73067,-3.5167 7.55896,-7.5675 -0.4492,-4.0168 -4.36161,-6.9823 -8.27636,-7.0765 -1.71706,-0.288 -3.46197,-0.3874 -5.20145,-0.3392 z m 37.60938,37.9765 c -0.89157,0.073 -1.72024,0.4808 -2.47266,0.9434 -0.97207,-0.6544 -2.29105,-1.0768 -3.40429,-0.5195 -0.38497,0.9587 0.45037,2.1489 1.48242,2.1152 1.65585,2.4088 0.82241,5.435 1.00586,8.1465 0.17691,0.5301 -0.076,1.303 -0.73339,0.9179 -3.35758,-0.5518 -6.78239,2.7131 -6.23146,6.1094 1.00533,1.6484 3.16112,1.6408 4.86085,1.5957 3.78242,0.5816 6.35524,5.3984 4.30712,8.7578 -1.75239,2.478 -5.08852,3.0285 -7.91869,2.6995 -4.26259,-0.2444 -8.74105,-1.739 -11.49342,-5.1643 -1.56164,-2.8224 0.60966,-6.8198 3.83667,-7.0307 1.54331,-0.2777 3.19164,0.3281 4.67653,-0.2476 1.50938,-1.1626 1.06408,-3.5443 -0.19987,-4.7213 -2.39038,-2.9831 -7.79575,-2.8485 -9.77036,0.5328 -0.67384,1.3801 1.0161,2.8937 2.36622,2.336 1.44752,-0.3308 2.11494,-2.2541 3.76269,-2.0548 0.74021,0.024 1.49424,0.3432 1.93555,0.9551 -0.24475,1.0976 -1.5977,0.7829 -2.41688,0.7788 -4.54791,0.1339 -8.42705,5.0565 -7.05818,9.4994 1.13376,4.0897 5.03212,6.7932 8.99933,7.7448 4.12895,1.2299 8.87385,1.7268 12.79117,-0.4295 3.81258,-2.2897 4.83655,-7.7213 2.75487,-11.5114 -1.51981,-2.984 -4.80341,-4.8407 -8.11524,-4.877 -0.9,-0.4795 -0.29549,-1.8478 0.4961,-2.1309 1.73425,-0.6878 3.88955,0.044 4.79455,1.6974 0.1531,0.583 0.74662,0.9536 1.31988,0.6696 0.90418,-0.3232 1.39614,-1.6557 0.58577,-2.3324 -1.1737,-1.8035 -1.63592,-4.1234 -0.99122,-6.2025 1.43657,-0.5446 3.27594,-0.9379 3.83203,-2.586 1.0366,-2.2249 -0.31049,-5.6234 -3.00195,-5.6914 z m -58.52734,0.084 c -0.73547,0.1475 -1.38676,0.5377 -2.03711,0.8926 -0.95616,-0.6539 -2.25879,-1.0801 -3.36133,-0.5313 -0.37123,0.9704 0.47566,2.1576 1.51367,2.125 1.65668,2.5508 0.68821,5.6844 0.99023,8.5079 0.17887,0.8129 -0.56662,0.7759 -1.11914,0.6503 -4.47271,-0.1775 -8.73089,3.5728 -9.05859,8.0489 -0.9251,2.0308 0.82155,4.8236 3.12109,4.5801 2.35108,0.5822 2.7807,4.0392 1.00782,5.496 -1.97295,2.0562 -5.36187,1.8603 -7.60352,0.3555 -4.29765,-2.5522 -6.21209,-8.7797 -3.4484,-13.0977 1.50902,-2.3126 4.44156,-3.4041 7.12809,-3.0976 1.23605,-0.3974 0.58371,-2.5155 -0.64844,-2.2754 -4.67427,-0.8944 -9.38835,2.8448 -10.17589,7.4197 -1.43477,6.5713 2.75786,14.0524 9.3673,15.7619 3.17541,0.7521 6.62142,-0.9244 8.15789,-3.7653 1.48999,-2.5004 1.14137,-5.9651 -0.99897,-7.9893 -0.77688,-0.8165 -1.86077,-1.262 -2.90116,-1.5572 -1.09382,-1.0965 -0.3015,-2.7739 0.44818,-3.8301 1.83006,-2.7617 6.5646,-3.0974 8.45247,-0.2232 3.20816,3.962 3.1448,10.377 -0.56466,14.0019 -1.43139,0.9987 -3.2566,0.8264 -4.89649,1.1269 -0.97275,0.9248 0.33689,2.6458 1.51272,2.1276 3.81636,0.061 7.01745,-3.0539 8.11536,-6.5363 1.77839,-5.1049 0.36886,-11.041 -3.18276,-15.0503 -0.73202,-1.4899 -0.35621,-3.1858 -0.49805,-4.7754 1.3514,-0.7776 3.30191,-0.8434 4,-2.4687 1.3121,-2.3678 -0.41423,-6.0611 -3.32031,-5.8965 z m 58.49023,2.4082 c 1.25524,0.6653 0.95352,2.8651 -0.43359,3.1699 -0.84801,-0.889 -0.69243,-2.5185 0.33593,-3.205 l 0.0977,0.035 z m -58.0625,0.021 c 1.21489,0.6669 0.96639,2.7849 -0.36719,3.1562 -0.89416,-0.8499 -0.76543,-2.5105 0.26953,-3.1933 l 0.0977,0.037 z m 19.39649,8.8691 c -7.41906,0.045 -13.90093,6.9976 -13.59766,14.3789 0.0812,5.5901 4.01587,10.7873 9.27642,12.5842 5.25671,1.8529 11.67621,0.3782 15.33295,-3.9025 1.51545,-1.7636 2.41893,-4.1743 1.83771,-6.4932 -0.19872,-0.7571 -0.43258,-1.6221 -0.97507,-2.1771 -1.10947,-0.4093 -2.19629,1.194 -1.42709,2.0863 0.85548,3.8366 -2.61006,7.6926 -6.42383,7.7832 -6.06599,1.1431 -12.8446,-2.8793 -14.19892,-9.016 -1.31503,-5.2862 2.28344,-11.3338 7.68317,-12.4235 3.46382,-0.9643 7.41838,-0.5736 10.38685,1.5528 1.29414,1.9198 -0.54268,4.5854 -2.68436,4.7101 -1.34878,0.2157 -2.77699,-0.094 -3.90549,-0.8664 -0.0929,-1.2229 1.55477,-1.5746 2.46094,-1.1718 0.74054,0.2748 1.69636,-0.1562 1.6582,-1.0293 0.0559,-0.9001 -0.88921,-1.3897 -1.6786,-1.2806 -2.3356,-0.2048 -4.66718,0.2445 -7.00499,0.177 -0.71117,-0.052 -1.78367,0.4323 -1.38073,1.3035 0.3153,0.897 1.44096,1.1697 2.22986,0.8442 1.52341,0.4291 1.35888,2.5043 2.69993,3.1967 3.29047,2.5066 8.90275,1.2569 10.41774,-2.7154 0.81231,-2.3093 -0.50356,-4.9122 -2.60743,-6.0118 -2.41095,-1.4949 -5.35384,-1.5475 -8.0996,-1.5293 z"
         inkscape:connector-curvature="0" />
    </g>
    <path
       inkscape:connector-curvature="0"
       id="path3521"
       style="font-style:normal;font-weight:normal;font-size:100px;line-height:125%;font-family:sans-serif;letter-spacing:0px;word-spacing:0px;fill:#ff4346;fill-opacity:1;stroke:none;stroke-width:1px;stroke-linecap:butt;stroke-linejoin:miter;stroke-opacity:1"
       d="m 703.11245,2978.6076 c -1.75789,0.5954 -2.72416,2.3393 -3.44515,3.931 -2.0971,-2.2667 -6.47164,-0.1314 -6.12841,2.8893 -0.80302,4.4563 1.27046,9.25 5.01439,11.7756 6.87203,8.161 9.86759,18.673 12.26408,28.8609 0.88262,3.9196 1.76526,7.8392 2.64789,11.7588 -8.53546,-0.923 -16.66958,7.3774 -15.52763,15.8975 1.32097,4.9745 7.08419,7.865 11.95526,6.6975 6.61542,-0.3484 13.86014,2.0442 17.6766,7.7372 5.57028,8.215 4.25161,20.5683 -3.44138,27.0186 -4.83326,3.147 -12.15945,2.6738 -15.85222,-2.0253 -1.59363,-2.4755 -2.48615,-5.3011 -3.59684,-8.0068 -1.899,-1.7367 -5.39539,0.2754 -4.96663,2.7745 -0.72146,5.2709 0.72617,10.9936 -1.99639,15.8643 -3.12924,5.901 -9.41172,10.1722 -16.15553,10.3631 -4.83751,-1.0074 -7.89556,-5.9451 -8.13129,-10.6509 -1.76194,-10.0786 -0.12035,-20.2943 -0.007,-30.428 0.41409,-4.5973 2.21833,-9.6843 6.54789,-11.9428 4.0315,-1.9733 8.6781,-0.9347 12.916,-1.8548 3.55823,-1.8311 4.15395,-7.0479 1.68611,-10.008 -4.97295,-9.8716 -13.63968,-17.8979 -23.94473,-21.9296 -2.38093,-0.9557 -5.23279,-1.1599 -7.43066,0.3698 -4.70562,2.705 -6.93393,8.4078 -6.56605,13.6616 -0.0934,2.3422 0.24487,4.6838 0.79968,6.9554 -1.37739,2.8833 -3.62111,5.9808 -2.58427,9.3349 0.93853,2.7353 3.52728,4.4083 5.95782,5.7087 2.09248,-0.7962 4.51276,1.4356 3.95316,3.5845 2.75048,12.6403 0.95937,25.6053 0.98527,38.3951 0.0713,6.1105 0.64236,12.5994 4.04777,17.8567 2.28094,3.4957 6.19179,6.2352 10.51253,5.9425 6.69781,-0.1309 12.58618,-4.2347 16.98307,-8.9937 2.9319,-3.195 5.32791,-6.8246 7.75858,-10.4025 2.22309,-1.7767 5.10901,-0.4075 7.54409,0.046 5.40407,1.2333 11.56381,1.7538 16.4676,-1.3275 4.94621,-3.4907 6.96775,-9.5702 8.25293,-15.2194 2.3754,-10.3883 0.77353,-22.0726 -5.91633,-30.5972 -5.36083,-6.6423 -14.26071,-9.5818 -22.6048,-9.0702 -1.62409,0.093 -3.39024,-1.2341 -3.01881,-2.9949 0.31835,-2.7237 3.26529,-4.0312 5.65829,-4.4414 4.61599,-0.7777 9.57928,2.1117 11.01953,6.5925 1.51302,2.0176 5.45474,0.4409 4.85651,-2.1282 -0.18787,-4.023 -3.50954,-6.796 -5.23084,-10.1911 -2.54824,-4.2311 -4.1782,-9.0459 -4.49706,-13.9866 0.54618,-1.7955 2.74769,-1.9979 3.92128,-3.2446 2.05235,-1.5043 3.22511,-4.0542 2.94892,-6.5921 0.2965,-7.4683 -3.24827,-14.3443 -6.87836,-20.6326 -3.39999,-6.3452 -7.28797,-12.748 -13.2313,-17.0277 -0.39659,-0.1471 -0.79036,-0.332 -1.22358,-0.3197 z m 5.88395,16.0279 c 4.20164,5.1953 7.61205,11.2736 8.58491,17.9632 -1.05174,1.8958 -4.36572,0.7605 -4.26357,-1.3251 -2.01379,-5.3793 -3.61218,-10.9297 -4.48433,-16.6143 l 0.0572,-0.049 0.10623,0.02 z m -32.19038,44.8733 c 4.79569,1.9448 8.79956,5.7006 11.13797,10.3081 -6.0855,0.893 -11.86125,-1.8447 -17.84237,-2.3682 -1.57574,-0.7482 -0.74646,-2.7966 -0.11462,-3.9321 1.14145,-2.2371 3.36152,-3.8569 5.80881,-4.3708 0.33717,0.116 0.6735,0.2416 1.01021,0.363 z" />
    <path
       inkscape:connector-curvature="0"
       id="path3531"
       style="font-style:normal;font-weight:normal;font-size:50px;line-height:125%;font-family:sans-serif;letter-spacing:0px;word-spacing:0px;fill:#ff4346;fill-opacity:1;stroke:none;stroke-width:1px;stroke-linecap:butt;stroke-linejoin:miter;stroke-opacity:1"
       d="m 909.86777,3042.2598 q 1.19938,5.0117 -2.59758,7.7587 -1.28773,0.8823 -2.72213,1.1513 -5.41851,1.0138 -6.71285,-4.3963 -1.19137,-4.9763 2.65993,-7.8454 1.21651,-0.8322 2.73057,-1.1159 5.33884,-0.9991 6.64206,4.4476 z m -5.62566,-10.2892 q -0.86341,0.9148 -1.84931,1.6661 -0.95522,0.7052 -2.0413,1.2104 l -2.25465,-0.896 -12.76766,-43.6174 q 1.5825,-1.389 3.3419,-2.7377 1.75873,-1.3466 3.83147,-2.6009 l 3.13411,0.9181 8.60544,46.0574 z" />
    <text
       sodipodi:linespacing="125%"
       id="text3533"
       y="2689.4417"
       x="2081.2898"
       style="font-style:normal;font-weight:normal;font-size:43.20000076px;line-height:125%;font-family:sans-serif;letter-spacing:0px;word-spacing:0px;fill:#f7c587;fill-opacity:1;stroke:none;stroke-width:1px;stroke-linecap:butt;stroke-linejoin:miter;stroke-opacity:1"
       xml:space="preserve"><tspan
         style="font-style:normal;font-variant:normal;font-weight:bold;font-stretch:normal;font-family:BhashitaComplex;-inkscape-font-specification:'BhashitaComplex Bold';fill:#f7c587;fill-opacity:1"
         y="2689.4417"
         x="2081.2898"
         id="tspan3535"
         sodipodi:role="line"><tspan
   id="tspan3537"
   style="font-size:75.59999847px;fill:#f7c587;fill-opacity:1">ම්</tspan><tspan
   id="tspan3539"
   style="font-size:56.70000076px;fill:#f7c587;fill-opacity:1">ම්ම්</tspan><tspan
   id="tspan3545"
   style="letter-spacing:-5.6699996px;fill:#f7c587;fill-opacity:1">...</tspan> !</tspan></text>
    <path
       d="m 769.21639,3016.7914 c -9.74315,3.2239 -18.79149,9.4997 -23.96051,18.5178 -4.32517,7.9041 -4.71173,17.4299 -2.67491,26.067 1.95841,8.1723 5.26106,16.4008 11.47772,22.2793 2.00403,1.9718 4.45015,3.4818 7.09818,4.4201 0.8385,0.8859 0.0466,2.4951 -1.09973,2.6053 -7.25732,3.8772 -11.78947,11.6873 -12.93304,19.6873 -0.74774,5.1824 0.2305,10.9907 4.01311,14.8442 3.70651,3.5061 9.69886,3.527 13.957,1.0281 4.78118,-2.5656 7.63915,-7.3682 10.90068,-11.5052 4.34203,-5.6979 8.57707,-11.8634 14.9199,-15.5128 6.86776,-3.914 14.96688,-5.0202 22.7649,-4.6013 1.51544,0.078 3.10941,-0.6405 3.66837,-2.1284 0.8149,-1.6832 0.17724,-3.5297 -0.34381,-5.1877 -2.12364,-8.0828 -3.72887,-16.2881 -5.48927,-24.4544 -1.33934,-1.8732 -4.63175,-1.3496 -5.46663,0.747 -7.19174,11.1329 -20.82091,17.7837 -34.02251,16.5007 -7.17721,-1.0919 -13.16222,-6.3007 -16.51009,-12.5714 -4.69737,-8.6042 -5.92783,-19.4131 -1.95154,-28.5254 3.36628,-7.6715 10.55187,-13.115 18.34643,-15.7666 7.71543,-2.6167 16.45373,-3.0969 24.06903,0.1227 4.02899,2.4873 5.36427,8.7702 2.09856,12.3897 -3.72268,4.4198 -10.32137,6.47 -15.76963,4.2969 -1.24848,-0.6352 -2.56744,-2.2081 -1.84697,-3.6461 1.30166,-1.7094 3.68432,-1.431 5.54042,-2.0074 2.10879,-0.4206 4.4819,-0.984 5.78126,-2.8612 1.1159,-2.4321 -1.70793,-5.4519 -4.20685,-4.4668 -8.50533,1.5165 -17.01385,3.0929 -25.35323,5.3752 -2.40151,1.1038 -1.83174,5.2318 0.73184,5.7324 2.19254,0.6742 4.41131,-0.2711 6.60047,-0.4637 0.90577,-0.4954 2.51016,-0.4548 2.77436,0.7664 1.43914,2.6259 2.50089,5.8532 5.40177,7.2349 5.02723,3.2417 11.60026,2.9758 16.96197,0.719 5.76427,-2.0973 10.80325,-7.0458 11.80311,-13.2555 1.08944,-7.7396 -4.53492,-15.9142 -12.31113,-17.2745 -8.18661,-2.1969 -16.89092,-1.3463 -24.96923,0.8944 z m 37.60036,57.0182 c 1.10375,4.0808 2.10846,8.1871 3.13346,12.2882 -3.10932,0.2668 -6.20561,-0.9162 -9.30318,-0.2241 -10.31423,0.7769 -19.95639,6.9001 -25.33065,15.6956 -4.86892,7.0471 -8.85684,14.7494 -14.64817,21.1251 -3.2309,2.6291 -9.00041,0.062 -9.01595,-4.1602 -0.60808,-6.8997 3.49372,-13.5729 9.2218,-17.1799 3.19386,-1.8399 6.83737,-3.5414 8.64644,-6.9518 0.9386,-1.3303 0.22406,-3.4147 1.72609,-4.4173 7.39173,-1.4036 14.91165,-2.9896 21.52099,-6.7478 4.97025,-2.5218 9.61046,-5.6857 13.79881,-9.3611 l 0.1723,-0.067 0.0786,0 z"
       style="font-style:normal;font-variant:normal;font-weight:bold;font-stretch:normal;font-size:100px;line-height:125%;font-family:BhashitaComplex;-inkscape-font-specification:'BhashitaComplex Bold';letter-spacing:0px;word-spacing:0px;fill:#ff4346;fill-opacity:1;stroke:none;stroke-width:1px;stroke-linecap:butt;stroke-linejoin:miter;stroke-opacity:1"
       id="path3427"
       inkscape:connector-curvature="0" />
    <path
       d="m 862.01273,2995.7891 c -2.28921,-0.2889 -3.26897,3.5566 -1.11063,4.3964 1.48907,0.8465 3.32697,1.6155 3.92801,3.3692 -0.24826,5.5705 -1.22653,11.0748 -1.6293,16.632 -0.72288,1.1261 -2.01633,-0.159 -3.01723,0.038 -7.18684,-0.9287 -14.92875,2.8384 -18.12411,9.4451 0.30975,1.3234 -2.08626,1.2536 -1.51122,-0.1084 -0.47594,-4.0654 -3.11991,-7.9704 -7.05929,-9.3634 -5.29925,-2.4547 -12.30476,-1.6639 -16.30881,2.8044 -2.13533,2.3568 -1.73936,6.7616 1.28442,8.195 2.40073,1.2652 5.57933,0.047 6.72286,-2.3666 0.89141,-1.429 2.36386,-2.627 4.1277,-2.5756 1.88968,-0.1196 3.84619,0.7616 4.91074,2.3471 1.14124,0.5472 0.44826,2.7481 -0.82915,2.357 -6.21811,-0.4146 -12.93076,1.6938 -16.88409,6.7121 -4.25515,5.5069 -5.05628,12.9698 -3.75961,19.6394 1.26633,7.4829 7.00548,14.3545 14.57245,15.9599 10.70678,2.3331 22.30531,-5.0288 25.14687,-15.5288 1.2974,-4.6796 0.98234,-10.2112 -2.2859,-14.0386 -1.37844,-1.3719 -3.33344,-2.1426 -5.27971,-2.0328 -1.16664,-0.5416 -0.77135,-2.0813 -0.42329,-3.03 1.16827,-5.4243 6.10865,-10.1458 11.81101,-10.1283 5.16303,-0.1854 10.02783,3.3791 11.7833,8.1738 3.4633,7.5772 2.40996,17.3472 -3.46977,23.4486 -2.78576,2.8483 -6.80156,4.4642 -10.78887,4.2147 -1.66437,0.024 -3.72796,1.0558 -3.61086,2.9761 0.0173,1.4617 1.47028,2.6683 2.91018,2.3421 6.5834,0.4326 12.84363,-3.3788 16.621,-8.5908 6.41536,-8.7372 8.20234,-21.0071 3.54091,-30.9343 -1.01798,-2.3933 -2.66242,-4.4395 -4.3948,-6.3517 -0.80484,-2.2844 0.22409,-4.6603 0.19936,-6.9839 0.23332,-1.0129 -0.31967,-2.3338 0.60227,-3.0985 1.48214,-0.6512 3.14926,0.4304 4.61839,-0.3291 3.87652,-1.0376 6.04475,-5.4405 5.3814,-9.2444 -0.34215,-3.6183 -3.34076,-7.2198 -7.17729,-7.1291 -1.60855,0 -3.16902,0.53 -4.59112,1.2477 -1.98622,-0.7666 -3.64331,-2.5733 -5.90573,-2.4657 z m 10.45146,6.4535 c 1.94246,0.4132 2.30265,2.8369 1.8245,4.461 -0.34599,1.4537 -2.03806,2.5888 -3.49025,1.9835 -1.20095,-1.23 -0.20863,-3.0097 -0.40573,-4.4878 0.0625,-1.0178 0.93738,-2.2011 2.07148,-1.9567 z m -33.14658,34.3971 c -0.28544,3.4334 -1.35226,6.9677 -0.2846,10.368 1.20564,1.3876 3.21866,0.8671 4.76184,0.497 2.90555,-0.046 4.76888,3.311 4.06927,5.9241 -0.35114,5.0944 -4.48394,9.3943 -9.34151,10.6069 -4.40462,1.6536 -9.74512,1.9809 -13.79136,-0.7693 -6.19769,-4.4669 -8.47185,-13.7736 -4.63943,-20.4611 2.71153,-4.1629 7.93017,-5.9331 12.72251,-5.7523 2.17313,-0.1016 4.36657,-0.1365 6.49964,-0.6086 l 0.004,0.1953 z"
       style="font-style:normal;font-variant:normal;font-weight:bold;font-stretch:normal;font-size:81.25px;line-height:125%;font-family:BhashitaComplex;-inkscape-font-specification:'BhashitaComplex Bold';letter-spacing:0px;word-spacing:0px;fill:#ff4346;fill-opacity:1;stroke:none;stroke-width:1px;stroke-linecap:butt;stroke-linejoin:miter;stroke-opacity:1"
       id="path3434"
       inkscape:connector-curvature="0" />
    <text
       xml:space="preserve"
       style="font-style:normal;font-weight:normal;font-size:36.30258179px;line-height:125%;font-family:sans-serif;letter-spacing:0px;word-spacing:0px;fill:#3481aa;fill-opacity:1;stroke:none;stroke-width:1px;stroke-linecap:butt;stroke-linejoin:miter;stroke-opacity:1"
       x="1606.0125"
       y="3173.9141"
       id="text3655"
       sodipodi:linespacing="125%"
       transform="matrix(0.93090871,-0.04851372,0,1.0742192,0,0)"><tspan
         sodipodi:role="line"
         id="tspan3657"
         x="1606.0125"
         y="3173.9141"
         style="font-style:normal;font-variant:normal;font-weight:bold;font-stretch:normal;font-size:63.52951431px;font-family:BhashitaComplex;-inkscape-font-specification:'BhashitaComplex Bold';fill:#3481aa;fill-opacity:1">ස්</tspan></text>
    <text
       xml:space="preserve"
       style="font-style:normal;font-weight:normal;font-size:31.46702957px;line-height:125%;font-family:sans-serif;letter-spacing:0px;word-spacing:0px;fill:#3481aa;fill-opacity:1;stroke:none;stroke-width:1px;stroke-linecap:butt;stroke-linejoin:miter;stroke-opacity:1"
       x="1352.9022"
       y="2987.8445"
       id="text3655-7"
       sodipodi:linespacing="125%"
       transform="matrix(0.82825301,-0.14702671,0.14009544,1.1824916,0,0)"><tspan
         sodipodi:role="line"
         id="tspan3657-2"
         x="1352.9022"
         y="2987.8445"
         style="font-style:normal;font-variant:normal;font-weight:bold;font-stretch:normal;font-size:55.06729889px;font-family:BhashitaComplex;-inkscape-font-specification:'BhashitaComplex Bold';fill:#3481aa;fill-opacity:1">ස්</tspan></text>
    <text
       xml:space="preserve"
       style="font-style:normal;font-weight:normal;font-size:36.30258179px;line-height:125%;font-family:sans-serif;letter-spacing:0px;word-spacing:0px;fill:#3481aa;fill-opacity:1;stroke:none;stroke-width:1px;stroke-linecap:butt;stroke-linejoin:miter;stroke-opacity:1"
       x="989.58972"
       y="2978.4934"
       id="text3655-4"
       sodipodi:linespacing="125%"
       transform="matrix(0.97150781,0.16557718,0.2053045,1.0643185,0,0)"><tspan
         sodipodi:role="line"
         id="tspan3657-7"
         x="989.58972"
         y="2978.4934"
         style="font-style:normal;font-variant:normal;font-weight:bold;font-stretch:normal;font-size:63.52951431px;font-family:BhashitaComplex;-inkscape-font-specification:'BhashitaComplex Bold';fill:#3481aa;fill-opacity:1">ස්</tspan></text>
    <text
       xml:space="preserve"
       style="font-style:normal;font-weight:normal;font-size:34.77378845px;line-height:125%;font-family:sans-serif;letter-spacing:0px;word-spacing:0px;fill:#3481aa;fill-opacity:1;stroke:none;stroke-width:1px;stroke-linecap:butt;stroke-linejoin:miter;stroke-opacity:1"
       x="1942.8314"
       y="2567.5049"
       id="text3695"
       sodipodi:linespacing="125%"
       transform="matrix(0.88974886,0.25220444,-0.0452206,1.1110946,0,0)"><tspan
         sodipodi:role="line"
         id="tspan3697"
         x="1942.8314"
         y="2567.5049"
         style="font-style:normal;font-variant:normal;font-weight:bold;font-stretch:normal;font-size:60.85412979px;font-family:BhashitaComplex;-inkscape-font-specification:'BhashitaComplex Bold';fill:#3481aa;fill-opacity:1">ප්</tspan></text>
    <text
       xml:space="preserve"
       style="font-style:normal;font-weight:normal;font-size:36.1953392px;line-height:125%;font-family:sans-serif;letter-spacing:0px;word-spacing:0px;fill:#3481aa;fill-opacity:1;stroke:none;stroke-width:1px;stroke-linecap:butt;stroke-linejoin:miter;stroke-opacity:1"
       x="941.66467"
       y="3271.4724"
       id="text3699"
       sodipodi:linespacing="125%"
       transform="matrix(0.87646446,-0.2008875,0.2536629,1.0828075,0,0)"><tspan
         sodipodi:role="line"
         id="tspan3701"
         x="941.66467"
         y="3271.4724"
         style="font-style:normal;font-variant:normal;font-weight:bold;font-stretch:normal;font-size:63.34184265px;font-family:BhashitaComplex;-inkscape-font-specification:'BhashitaComplex Bold'">ලැ</tspan></text>
    <text
       xml:space="preserve"
       style="font-style:normal;font-weight:normal;font-size:36.1953392px;line-height:125%;font-family:sans-serif;letter-spacing:0px;word-spacing:0px;fill:#3481aa;fill-opacity:1;stroke:none;stroke-width:1px;stroke-linecap:butt;stroke-linejoin:miter;stroke-opacity:1"
       x="669.69611"
       y="3735.8706"
       id="text3703"
       sodipodi:linespacing="125%"
       transform="matrix(0.85037522,-0.51524258,0.3062901,0.99037022,0,0)"><tspan
         sodipodi:role="line"
         id="tspan3705"
         x="669.69611"
         y="3735.8706"
         style="font-style:normal;font-variant:normal;font-weight:bold;font-stretch:normal;font-size:63.34184265px;font-family:BhashitaComplex;-inkscape-font-specification:'BhashitaComplex Bold';fill:#3481aa;fill-opacity:1">ට්</tspan></text>
  </g>
</svg>
