<?xml version="1.0" encoding="UTF-8" standalone="no"?>
<!-- Created with Inkscape (http://www.inkscape.org/) -->

<svg
   xmlns:dc="http://purl.org/dc/elements/1.1/"
   xmlns:cc="http://creativecommons.org/ns#"
   xmlns:rdf="http://www.w3.org/1999/02/22-rdf-syntax-ns#"
   xmlns:svg="http://www.w3.org/2000/svg"
   xmlns="http://www.w3.org/2000/svg"
   xmlns:xlink="http://www.w3.org/1999/xlink"
   xmlns:sodipodi="http://sodipodi.sourceforge.net/DTD/sodipodi-0.dtd"
   xmlns:inkscape="http://www.inkscape.org/namespaces/inkscape"
   id="svg2"
   version="1.1"
   inkscape:version="0.91 r"
   width="2481"
   height="663"
   sodipodi:docname="Pepper-and-Carrot_by-David-Revoy_E02P00.svg">
  <metadata
     id="metadata8">
    <rdf:RDF>
      <cc:Work
         rdf:about="">
        <dc:format>image/svg+xml</dc:format>
        <dc:type
           rdf:resource="http://purl.org/dc/dcmitype/StillImage" />
        <dc:title />
      </cc:Work>
    </rdf:RDF>
  </metadata>
  <defs
     id="defs6" />
  <sodipodi:namedview
     pagecolor="#ffffff"
     bordercolor="#666666"
     borderopacity="1"
     objecttolerance="10"
     gridtolerance="10"
     guidetolerance="10"
     inkscape:pageopacity="0"
     inkscape:pageshadow="2"
     inkscape:window-width="1536"
     inkscape:window-height="803"
     id="namedview4"
     showgrid="false"
     inkscape:zoom="0.59209996"
     inkscape:cx="1240.5"
     inkscape:cy="331.5"
     inkscape:window-x="-8"
     inkscape:window-y="-8"
     inkscape:window-maximized="1"
     inkscape:current-layer="layer1" />
  <g
     inkscape:groupmode="layer"
     id="layer2"
     inkscape:label="artwork"
     sodipodi:insensitive="true">
    <image
       sodipodi:absref="/home/deevad/peppercarrot/webcomics/New/lang/ca/../gfx_Pepper-and-Carrot_by-David-Revoy_E02P00.png"
       xlink:href="../gfx_Pepper-and-Carrot_by-David-Revoy_E02P00.png"
       y="0"
       x="-1.6728083e-06"
       id="image10"
       height="663"
       width="2481" />
  </g>
  <g
     inkscape:groupmode="layer"
     id="layer1"
     inkscape:label="text">
    <flowRoot
       xml:space="preserve"
       id="flowRoot3063"
       style="font-style:normal;font-variant:normal;font-weight:normal;font-stretch:normal;font-size:72px;line-height:125%;font-family:Arial;-inkscape-font-specification:Arial;letter-spacing:0px;word-spacing:0px;display:inline;fill:#562f13;fill-opacity:1;stroke:none"
       transform="matrix(0.77923967,0,0,0.77489763,103.86987,205.60916)"><flowRegion
         id="flowRegion3065"><rect
           id="rect3067"
           width="2715.5891"
           height="110.01318"
           x="92.642677"
           y="425.30325"
           style="font-size:72px;fill:#562f13;fill-opacity:1" /></flowRegion><flowPara
         id="flowPara3069"
         style="font-style:normal;font-variant:normal;font-weight:normal;font-stretch:normal;font-size:88px;font-family:Lavi;-inkscape-font-specification:Lavi;text-align:center;text-anchor:middle;fill:#562f13;fill-opacity:1">Episodi 2 : Les pocions de l'Arc de Sant Martí</flowPara></flowRoot>    <path
       style="display:inline;fill:#562f13;fill-opacity:1;stroke:none"
       d="m 724.13069,502.29275 c -1.96428,-1.72466 -4.22081,-4.39151 -5.01449,-5.92634 l -1.44309,-2.79062 0,-4.0786 0,-4.0786 2.44466,-2.44463 2.44465,-2.44467 1.78822,-0.0317 c 0.98352,-0.0175 2.65233,-0.68539 3.70848,-1.48441 l 1.92029,-1.45276 0.74592,-5.23837 0.74592,-5.23835 0.0727,-22.72376 0.0727,-22.72374 -1.031,-1.92647 -1.03101,-1.92645 -1.77611,0 c -0.97688,0 -4.15209,-0.7056 -7.05603,-1.56796 l -5.27988,-1.56796 -2.37064,-2.37064 -2.37066,-2.37065 0,-1.53922 0,-1.53923 5.72682,-0.0411 5.72682,-0.0411 4.48187,-2.19987 4.48185,-2.19987 0.28457,-34.8589 0.28457,-34.85888 -1.18219,-4.30861 -1.18219,-4.30862 -2.09028,-1.35579 -2.0903,-1.35576 -8.71472,-0.69738 -8.71472,-0.69736 0,-1.1929 0,-1.19289 4.40497,-4.4681 4.40497,-4.46809 12.60553,-5.69772 12.6055,-5.69772 1.91828,0.60884 c 1.05508,0.33486 3.26043,1.73817 4.90083,3.11846 l 2.98252,2.50964 0,1.33428 c 0,0.73386 0.7043,2.03857 1.56511,2.89937 l 1.56509,1.56508 10.27512,0 10.2751,0 8.63438,2.50215 c 4.74892,1.37619 10.79593,3.5975 13.43782,4.93624 2.6419,1.33874 8.36343,5.11662 12.71457,8.3953 l 7.91112,5.96122 2.73404,3.9452 2.73404,3.9452 1.42561,4.73702 1.42563,4.73702 0,6.72476 0,6.72475 -1.86399,5.98906 -1.864,5.98907 -3.68435,6.58824 -3.68436,6.58823 -5.9901,6.40343 -5.99012,6.40347 -6.63796,4.89185 c -3.65087,2.69052 -8.87888,6.00099 -11.61779,7.35658 -2.73892,1.35561 -10.13399,4.17124 -16.43349,6.25694 -6.2995,2.08572 -12.46205,4.15802 -13.69455,4.60508 l -2.24094,0.81286 0,21.47993 0,21.47995 2.40415,2.40415 2.40415,2.40414 2.82469,0.59866 c 1.55357,0.32925 3.57773,1.00402 4.49814,1.49949 l 1.67346,0.90085 4.3429,-0.0872 c 2.38859,-0.0478 6.63097,0.22753 9.42748,0.61216 l 5.08461,0.69929 3.16429,-1.63633 3.16429,-1.63631 2.93279,0.64415 c 1.61305,0.3543 4.94172,0.64415 7.39708,0.64415 2.45536,0 4.46427,0.20963 4.46427,0.46582 0,0.25618 -1.61844,1.14204 -3.59654,1.96853 -3.62895,1.51626 -11.43325,6.41449 -16.67709,10.46702 l -2.84418,2.19803 -6.48038,1.79696 -6.48038,1.79695 -4.61901,2.93674 -4.61899,2.93675 -7.46975,2.11021 c -4.10837,1.16062 -9.75009,2.7667 -12.53715,3.56911 l -5.06738,1.45881 -4.11068,0 -4.11067,0 -3.57142,-3.13574 z m 43.9866,-106.86673 8.81595,-4.42986 8.02847,-6.44528 8.02848,-6.44529 4.80939,-5.80734 4.8094,-5.80732 2.84785,-5.97581 2.84783,-5.97582 8e-4,-4.28233 7.9e-4,-4.28231 -1.45818,-2.81982 c -0.802,-1.5509 -2.84863,-3.98979 -4.54809,-5.4198 l -3.08991,-2.6 -5.66059,-1.69997 -5.66058,-1.69999 -8.46574,-0.0263 -8.46574,-0.0263 -5.50303,1.24389 -5.50304,1.24392 -3.21168,1.95314 -3.21168,1.95314 0,29.8442 0,29.8442 1.74293,1.01517 c 0.95863,0.55835 2.25762,1.02879 2.88667,1.04546 0.62905,0.0167 5.1109,-1.96315 9.9597,-4.39957 z m 73.05592,108.42926 c -1.36946,-0.88541 -3.71352,-3.19532 -5.20902,-5.1331 l -2.71911,-3.52329 -0.61274,-3.26621 -0.61275,-3.2662 1.33992,-2.82363 1.3399,-2.82363 4.40086,-2.11189 4.40086,-2.11188 1.32597,-1.81336 1.32594,-1.81335 0,-27.57343 0,-27.57341 -5.22883,-0.58415 c -2.87584,-0.32131 -6.98475,-0.93864 -9.1309,-1.37192 l -3.90207,-0.78772 -0.31461,-0.99236 c -0.17304,-0.54581 0.0345,-1.5426 0.4612,-2.21506 l 0.7758,-1.2227 7.69903,-1.47307 c 4.23448,-0.81019 8.13585,-1.74302 8.66971,-2.07298 l 0.97067,-0.5999 0,-40.32742 0,-40.3274 -1.45329,-2.81035 -1.45329,-2.81037 -8.2574,-1.17284 c -4.54156,-0.64503 -9.714,-1.39527 -11.4943,-1.66716 l -3.23689,-0.49434 0,-0.77721 c 0,-0.42748 1.0084,-1.69559 2.24091,-2.81801 2.43881,-2.22098 15.00736,-10.25807 16.04178,-10.25807 0.3509,0 4.63026,-1.79761 9.5097,-3.99471 l 8.87172,-3.99472 2.83045,1.07613 c 1.55672,0.59188 3.61562,1.7867 4.57525,2.65513 l 1.7447,1.57901 0,2.71736 0,2.71739 2.24094,0.60055 c 1.23259,0.3303 6.73183,0.60666 12.22072,0.61414 l 9.97966,0.0136 7.14588,1.98021 c 3.93021,1.08911 9.69496,3.10755 12.81043,4.48539 l 5.66477,2.50522 6.59081,4.90418 c 3.62503,2.69732 8.24939,6.61735 10.27661,8.71117 l 3.68566,3.80698 2.21008,4.97985 2.20984,4.97984 0.44579,7.522 0.44569,7.52199 -2.91527,8.45749 -2.91514,8.4575 -3.8344,5.77669 c -2.10887,3.1772 -6.08097,8.23488 -8.82685,11.23929 l -4.99247,5.46254 -3.17622,-0.59586 -3.17609,-0.59584 -1.03841,1.26421 c -0.57113,0.69531 -1.19347,2.38045 -1.38305,3.74475 l -0.34438,2.48053 -4.9007,3.20202 -4.90082,3.20204 -12.36038,4.5261 -12.36045,4.52611 -2.16022,0.0152 c -1.18806,0.007 -2.83243,0.44001 -3.6541,0.95917 l -1.49396,0.94388 0,21.36889 0,21.36889 2.37425,2.52822 2.37417,2.52823 5.17203,1.07372 5.17204,1.07371 9.88325,-0.0285 c 5.43574,-0.0156 12.4864,-0.0797 15.66829,-0.14249 l 5.78509,-0.11414 0.68041,0.68034 0.6804,0.68039 -1.98369,1.16353 c -1.09095,0.63994 -4.83522,2.40166 -8.32053,3.91492 l -6.33683,2.75141 -2.9523,2.48417 c -1.62366,1.36625 -3.52702,2.48411 -4.2295,2.48411 l -1.27728,0 -4.37315,3.84191 c -2.40514,2.11304 -6.29241,4.81869 -8.63825,6.01253 l -4.26521,2.17065 -9.67831,2.63091 -9.67839,2.63092 -4.97982,0.33857 -4.9799,0.33855 -2.48991,-1.60984 z m 40.61501,-107.44698 7.19391,-3.44758 7.21963,-5.35953 7.21948,-5.3595 6.9717,-7.39064 6.97184,-7.39063 2.79102,-5.75728 2.79103,-5.7573 0.50443,-4.68715 0.50445,-4.68712 -1.80139,-3.46052 -1.80167,-3.4605 -3.98384,-2.7709 -3.98382,-2.77093 -7.46982,-1.58032 -7.46982,-1.58037 -6.4737,0.57764 c -3.56064,0.3177 -9.16292,1.26367 -12.44963,2.10217 l -5.97574,1.52455 -2.28418,2.57848 -2.28416,2.57848 0.29215,28.12807 0.29229,28.12808 1.36689,1.64519 1.36686,1.64518 1.64918,0 c 0.90694,0 4.88627,-1.55141 8.84291,-3.44757 z m 343.33088,77.22064 c -2.7391,-0.97624 -7.2613,-2.93153 -10.0495,-4.34514 l -5.0694,-2.57013 -3.1412,-3.57754 c -1.7277,-1.96765 -4.1375,-5.46987 -5.3555,-7.78272 l -2.2144,-4.20518 -0.033,-7.46976 -0.033,-7.46977 3.1443,-6.63681 3.1443,-6.63683 7.7284,-8.08928 7.7284,-8.08928 -2.7978,-5.85376 -2.7978,-5.85376 0.5976,-2.98751 0.5974,-2.98752 -1.4254,-1.18302 -1.4255,-1.18302 1.546,-2.98934 1.5457,-2.98938 -2.2103,-2.35275 -2.2102,-2.35278 0.6316,-4.60763 0.6315,-4.60762 1.9836,-4.48464 1.9838,-4.48464 4.2356,-5.05896 4.2357,-5.05898 4.3722,-2.77279 4.3723,-2.77281 5.394,-1.20712 5.394,-1.20712 5.1854,1.63815 5.1854,1.63815 5.6858,3.56095 5.6854,3.56098 3.6283,5.97261 3.6282,5.97264 0.5096,3.79941 0.5097,3.79943 -2.1987,6.96655 -2.1987,6.96658 -3.8265,4.87264 c -2.1047,2.67995 -5.4719,7.33765 -7.4829,10.35045 -2.011,3.01281 -4.9981,6.66888 -6.6381,8.12464 l -2.9821,2.64679 0.8481,1.44658 c 0.4665,0.79562 4.9289,5.77904 9.9167,11.07427 l 9.0687,9.62768 1.1896,-1.4332 1.1893,-1.4332 0.1996,-2.82617 0.1995,-2.82616 -3.7299,-0.30881 -3.7298,-0.3088 -2.495,-3.2711 -2.4949,-3.27108 0,-2.07577 0,-2.0758 1.4266,-1.42675 1.4268,-1.42677 8.284,-2.57536 c 4.5561,-1.41643 10.5247,-3.08453 13.2637,-3.70685 l 4.9799,-1.13152 11.9515,-0.39298 c 6.5734,-0.21614 14.3047,-0.65939 17.1807,-0.985 l 5.2287,-0.59199 -5e-4,1.31662 -5e-4,1.31662 -7.0831,6.4738 c -3.8957,3.56058 -8.4894,7.87319 -10.2081,9.58355 l -3.1251,3.10976 -4.8582,0.70525 c -2.6721,0.38788 -5.4732,0.94123 -6.2248,1.22964 l -1.3667,0.52444 0,4.83594 0,4.83591 -2.125,5.6795 -2.1249,5.6795 2.8616,2.07661 c 1.5739,1.14215 4.6591,3.45988 6.856,5.15054 l 3.994,3.07393 -0.1849,1.40793 c -0.1006,0.77436 -0.8048,3.08517 -1.5621,5.13511 l -1.3772,3.72719 -2.3462,2.49762 -2.3464,2.49762 -3.0634,-0.004 -3.0633,-0.004 -3.2609,-1.98822 c -1.7937,-1.093 -3.8621,-1.9877 -4.5968,-1.9877 -0.7345,0 -2.475,-0.89637 -3.8679,-1.99193 -1.3927,-1.09557 -3.1339,-1.98046 -3.8692,-1.96644 -0.7352,0.014 -3.8019,1.5992 -6.8147,3.52261 l -5.4777,3.49715 -9.4221,2.95117 -9.4221,2.95116 -5.0195,-0.0729 -5.0194,-0.0729 -4.9799,-1.77498 z m 24.1668,-24.10235 4.3787,-2.11966 0.4877,-1.27083 0.4875,-1.27081 -10.2786,-10.04909 -10.2786,-10.04906 -1.2025,-0.005 -1.2025,-0.005 -2.7813,3.66616 c -1.5298,2.01638 -4.238,5.01205 -6.0183,6.65706 l -3.2369,2.99089 0,1.34691 0,1.34691 4.2329,4.3188 c 2.3281,2.37531 5.1292,4.81042 6.2249,5.4113 l 1.9918,1.09254 6.4084,0.0303 6.4082,0.0303 4.3786,-2.11962 z m -5.3279,-61.2115 7.6894,-6.56097 1.9206,-3.14973 1.9206,-3.14975 0,-3.16048 0,-3.16049 -2.4697,-2.93513 -2.4699,-2.93514 -2.9913,-1.23911 -2.9915,-1.2391 -3.4424,0.64581 -3.4425,0.64579 -2.701,3.20304 c -1.4855,1.76167 -3.305,4.64525 -4.0438,6.40794 l -1.3437,3.2049 0,3.85759 0,3.85758 1.4107,4.6864 c 1.4006,4.65469 3.1516,7.58178 4.5353,7.58178 0.3969,0 4.1823,-2.95243 8.4114,-6.56093 z m 176.6505,58.35547 c -3.1326,-0.40182 -8.8721,-1.75185 -12.7541,-3.00006 l -7.0581,-2.26949 -5.9139,-3.59212 c -3.2527,-1.97567 -8.2061,-5.38486 -11.0073,-7.57599 l -5.0931,-3.98388 -5.7591,-6.7772 -5.7589,-6.77718 -3.013,-5.6724 c -1.6571,-3.11984 -3.929,-8.58563 -5.0487,-12.14622 -1.1196,-3.56058 -2.9867,-11.61832 -4.1494,-17.90606 l -2.1136,-11.43226 0.4427,-4.50323 c 0.6395,-6.50572 3.4543,-20.95452 6.2283,-31.97022 2.7617,-10.96705 8.6687,-28.36941 11.6249,-34.24779 4.404,-8.75714 15.4835,-26.34399 22.2841,-35.37185 3.9453,-5.23734 10.2468,-12.66598 14.0035,-16.5081 3.7565,-3.84211 9.9659,-9.35631 13.7985,-12.25378 l 6.9682,-5.26814 8.2587,-4.09228 8.2585,-4.09231 10.6683,-0.0671 10.6682,-0.0671 9.4617,3.81799 c 5.204,2.09989 10.3582,3.89263 11.4538,3.98387 l 1.9919,0.16589 0.4981,-5.52288 0.4979,-5.52291 1.8477,-2.81865 1.8476,-2.81866 5.4797,0.64401 5.4796,0.64403 5.383,2.5465 5.3828,2.54653 3.4743,3.27667 3.4742,3.27669 0,4.98674 c 0,2.7427 -0.2803,6.38801 -0.6228,8.10071 l -0.6226,3.11397 -3.9285,4.46302 -3.9287,4.46302 0.6264,1.01324 0.6261,1.01323 1.8228,0 1.8228,0 2.3005,1.86275 2.3003,1.86279 -1.1827,13.82371 c -1.3614,15.9103 -2.3828,23.51107 -4.5108,33.5606 -0.8331,3.93487 -1.949,9.39522 -2.4796,12.13415 -0.5306,2.73891 -1.7025,8.27455 -2.6041,12.30142 l -1.6393,7.32157 -2.4723,4.87902 -2.4724,4.87905 -0.863,0 -0.863,0 -0.6007,-2.24094 c -0.3303,-1.23251 -0.6066,-4.60829 -0.6141,-7.50173 l -0.014,-5.26084 -1.3459,-3.22094 -1.3458,-3.22097 -0.7344,-12.89174 -0.7343,-12.89172 -4.2677,-12.48942 -4.2677,-12.4894 -4.2888,-8.36315 -4.289,-8.36312 -3.5785,-3.76171 -3.5783,-3.76171 -2.7595,-0.69258 -2.7593,-0.69255 -4.3623,1.66592 c -2.3992,0.91627 -7.1978,3.53735 -10.6635,5.82459 l -6.3011,4.15865 -9.2826,9.40907 -9.2826,9.40905 -7.3371,11.02936 -7.3375,11.0293 -6.9617,14.44157 c -7.4766,15.50906 -12.4844,28.33072 -16.5636,42.40708 l -2.5576,8.82565 -0.6168,7.49959 -0.6167,7.49956 -2.3312,2.80507 -2.3315,2.80508 1.4656,2.83411 c 0.8062,1.55876 2.7426,3.88197 4.3032,5.16267 l 2.8374,2.32856 2.6679,4.67241 2.6677,4.6724 4.7233,4.83646 4.723,4.83648 4.8258,2.32848 4.8255,2.3285 11.1098,-0.52192 11.1099,-0.52195 9.6447,-3.1243 c 5.3046,-1.71837 12.2216,-4.26401 15.3715,-5.65696 l 5.7267,-2.5326 1.7697,0.46278 1.7695,0.46275 2.8605,-2.73351 2.8603,-2.73352 7.0231,-2.6837 7.0233,-2.6837 1.8561,-2.05099 c 1.021,-1.12802 3.0265,-2.65622 4.4571,-3.39596 l 2.6008,-1.34503 1.1817,-2.78588 1.1814,-2.78589 5.6373,-3.42439 c 3.1005,-1.8834 7.321,-4.94558 9.379,-6.80482 l 3.7418,-3.38044 3.9528,-6.25893 3.9528,-6.25891 1.4897,-0.57161 1.4896,-0.57162 1.2188,1.4687 1.2189,1.46872 -1.1107,2.20696 c -0.6109,1.21386 -2.2116,6.7728 -3.557,12.35324 l -2.4463,10.14625 -4.807,8.77714 -4.8071,8.77715 -6.6569,6.66164 -6.6566,6.66167 -2.8575,1.47763 -2.8575,1.47761 -1.92,-0.17153 -1.9203,-0.17153 -2.7708,5.47783 -2.7706,5.47784 -10.6969,6.66472 -10.6969,6.66474 -8.9637,2.97668 -8.9636,2.97668 -7.791,1.06526 c -8.532,1.16657 -13.1643,1.18219 -21.8084,0.0736 z m -939.34118,-17.32425 -3.84717,-1.44581 -2.96682,-2.81767 -2.96683,-2.81769 -1.95572,-3.80299 -1.95572,-3.80298 -0.55915,-4.72117 -0.55917,-4.72114 2.37572,-2.7619 2.37569,-2.76191 6.24091,-0.73584 6.24091,-0.73589 1.69537,-1.69536 1.69538,-1.69537 0.51082,-9.18381 0.51085,-9.18383 2.9879,-0.50888 2.98791,-0.50889 0.30913,-2.67181 0.30912,-2.67183 -2.79903,-1.7823 c -1.53948,-0.98027 -3.12833,-2.24085 -3.53079,-2.80128 l -0.73172,-1.01898 -0.0154,-28.66533 -0.0152,-28.66534 1.24496,-0.38355 c 0.68473,-0.21094 2.42805,-0.64121 3.87402,-0.95612 l 2.62907,-0.57258 0.6325,-1.64832 0.63255,-1.64835 -1.26966,-1.69983 c -0.6983,-0.9349 -2.77833,-3.67048 -4.6223,-6.07902 l -3.35265,-4.37917 0.80513,-15.9355 c 0.44282,-8.76453 0.83104,-20.27002 0.86272,-25.5678 l 0.0575,-9.6323 -2.40498,-2.55813 -2.40497,-2.55812 -5.56277,-2.07418 -5.56276,-2.07418 -2.16045,-2.01787 -2.16043,-2.01786 -2.121,-4.93039 -2.121,-4.93037 -0.16314,-5.8867 -0.16318,-5.88672 2.33263,-2.48296 2.33261,-2.48297 8.58577,-3.1384 8.58577,-3.13843 15.43752,-2.88044 15.43752,-2.88045 17.92742,0.0213 17.92743,0.0212 9.5772,0.93202 9.57719,0.93201 8.18435,2.98693 c 4.5014,1.64281 10.95546,4.53663 14.34238,6.43068 3.38692,1.89408 8.18757,5.23024 10.66815,7.41374 l 4.51012,3.96997 6.31824,8.80998 6.31826,8.80999 4.77309,9.9597 4.77312,9.95968 1.67284,6.47378 1.67285,6.4738 0.0894,7.46976 0.0895,7.46977 -1.29006,5.47783 -1.29004,5.47782 -3.89368,7.96775 -3.89367,7.96775 -5.72254,6.64915 c -3.14738,3.65701 -7.96347,8.63901 -10.70237,11.07107 -2.73891,2.43206 -8.49023,6.93978 -12.78069,10.01713 l -7.80085,5.59519 -12.11852,5.86329 c -15.27782,7.39184 -33.10578,14.52934 -41.49958,16.61448 -3.5606,0.88451 -8.13433,2.0344 -10.16386,2.55532 l -3.69007,0.94713 -1.53876,1.53876 -1.53878,1.53876 0,12.92174 0,12.92173 2.28451,2.2845 2.28451,2.28451 4.05994,0.6492 4.05993,0.64921 1.24727,1.50288 1.24728,1.50287 5.10686,0.0144 5.1069,0.0146 4.29903,1.49735 4.29902,1.49734 0.9225,-0.57016 c 0.86873,-0.53689 21.83438,-1.65173 28.32624,-1.50621 1.64335,0.0368 4.55656,0.0735 6.4738,0.0812 1.91724,0.007 4.0966,0.23309 4.84302,0.5006 l 1.35713,0.48644 -1.23008,1.48216 -1.23011,1.48217 -1.55552,0 c -0.85556,0 -3.60184,0.95216 -6.10286,2.11591 -2.50101,1.16375 -7.23642,3.36572 -10.52312,4.89327 -3.28669,1.52756 -8.66494,3.53645 -11.95162,4.46419 -3.28669,0.92776 -7.44763,2.31124 -9.2465,3.07447 l -3.27071,1.38766 -3.72848,0 -3.72848,0 -2.17818,1.52566 c -3.25632,2.28083 -9.62351,4.3423 -20.17634,6.53244 l -9.46171,1.96369 -11.95161,0.49755 -11.95163,0.49754 -3.84716,-1.44579 z m 74.42624,-110.8507 8.82903,-3.48894 4.31022,0.64634 4.31026,0.64636 1.59672,-2.43688 1.5967,-2.43687 -0.59983,-2.38998 -0.59986,-2.38997 1.9655,-1.77875 1.96552,-1.77875 2.13845,1.14447 2.13843,1.14446 1.51616,-1.25827 1.51614,-1.2583 -0.55413,-2.77067 -0.55415,-2.7707 4.97504,-5.68527 c 6.215,-7.10222 11.22712,-14.60954 14.69452,-22.00992 l 2.67903,-5.71778 6.5e-4,-8.96371 6.5e-4,-8.96373 -2.64969,-5.65226 -2.64967,-5.65226 -4.07563,-4.42153 -4.07562,-4.42152 -5.80732,-2.60618 -5.80732,-2.60616 -7.64269,-1.13673 -7.64266,-1.13667 -9.70375,1.17753 c -5.33706,0.64762 -10.45136,1.3934 -11.36509,1.65726 l -1.66137,0.47974 -3.44996,-3.02913 -3.44999,-3.02911 -2.0744,0 -2.07441,0 -1.03102,1.92646 c -0.56704,1.05955 -1.031,3.0013 -1.031,4.31499 l 0,2.38853 -3.6568,2.40779 c -2.01125,1.32429 -4.53498,3.60175 -5.60833,5.06105 l -1.95152,2.65322 -0.81964,15.77217 -0.81966,15.77218 -0.0457,28.44373 -0.0457,28.44374 1.24496,1.56974 c 0.68474,0.86336 1.91725,1.77149 2.73893,2.01807 l 1.49394,0.44833 11.45363,-2.4186 11.45366,-2.41858 8.82901,-3.48894 z m 93.75572,108.55263 c -1.64336,-0.21797 -5.37517,-1.06968 -8.29291,-1.89269 l -5.30502,-1.49638 -4.19984,-4.19986 -4.19985,-4.19983 -4.37482,-11.43668 -4.3748,-11.4367 -0.41567,-13.40651 -0.41565,-13.40651 1.18291,-7.33285 1.18292,-7.33284 2.39848,-7.05179 c 1.31915,-3.8785 4.00622,-9.97674 5.97122,-13.55165 4.27896,-7.78458 11.09329,-16.84058 17.58262,-23.36661 l 4.74848,-4.77534 8.25493,-3.961 8.25496,-3.96101 5.07803,-0.60139 5.07802,-0.60142 5.16695,2.81218 5.16691,2.8122 5.28863,5.08151 5.28862,5.08151 2.48369,4.92994 2.48371,4.92993 1.11985,5.27785 1.11984,5.27786 -0.005,12.64958 -0.005,12.64956 -1.03985,3.74432 -1.03981,3.74428 -2.1915,1.42204 -2.19153,1.42203 -6.97179,1.13998 c -6.99001,1.14292 -41.32785,9.67134 -48.80244,12.12095 l -3.98389,1.30561 -1.73597,3.54864 -1.736,3.54862 1.68876,4.41911 c 0.92881,2.43054 2.73433,6.11608 4.0122,8.19012 l 2.32344,3.77095 3.20161,2.01919 3.20163,2.01922 6.06513,-0.43385 6.06512,-0.43383 6.38447,-2.81572 c 3.51146,-1.54863 11.76019,-6.03177 18.33048,-9.96251 l 11.94601,-7.14684 1.35698,0.52072 1.35698,0.52072 -0.5325,3.28132 c -0.29286,1.80474 -1.43602,5.32391 -2.54032,7.82038 l -2.00782,4.53903 -2.47479,0 -2.47477,0 -1.63186,1.63183 -1.63183,1.63184 0.15911,4.09497 c 0.0875,2.25225 0.11752,4.58089 0.0668,5.17478 l -0.0923,1.0798 -8.74294,4.15486 -8.74295,4.15486 -6.94355,1.47085 c -6.87691,1.4567 -9.12067,1.57867 -14.91131,0.81067 z m 9.51993,-73.49277 16.37525,-3.68268 4.1477,-1.80591 4.14768,-1.80595 1.08114,-2.02014 1.08115,-2.02013 0,-10.50299 0,-10.50299 -1.60573,-4.01312 -1.60573,-4.01309 -2.35214,-0.59034 -2.35212,-0.59036 -4.49591,2.17642 -4.49591,2.17646 -7.44164,6.94966 c -4.0929,3.82232 -8.96987,9.05112 -10.8377,11.61957 -1.86783,2.56844 -5.2954,8.33235 -7.61683,12.80867 l -4.22075,8.13874 0.70569,1.14186 0.70571,1.14184 1.20245,-0.46142 c 0.66135,-0.25379 8.57131,-2.11863 17.57769,-4.1441 z m 315.54661,71.81651 c -1.98181,-0.70816 -5.23511,-2.29613 -7.22963,-3.52884 l -3.6265,-2.24126 -2.49206,-4.25243 c -1.37061,-2.33883 -4.16786,-8.91057 -6.21595,-14.60386 l -3.7239,-10.35143 0.0925,-15.93548 0.0925,-15.93552 2.15799,-7.96773 2.15799,-7.96775 4.03814,-8.46572 4.03824,-8.46574 5.39462,-7.05856 c 2.96702,-3.88221 7.8759,-9.40527 10.90859,-12.27346 l 5.51387,-5.21489 7.50128,-3.46576 7.50117,-3.46573 4.8482,-0.5742 4.8482,-0.57422 4.3157,2.1072 4.3157,2.10719 6.1833,5.53418 6.1834,5.53417 3.2783,6.65378 3.2783,6.65376 0.3228,17.45578 0.3227,17.45579 -1.0252,2.68681 -1.0253,2.68683 -2.2854,1.48278 -2.2854,1.48276 -8.9942,1.54996 c -4.9469,0.85247 -17.4959,3.81353 -27.88708,6.58012 l -18.89287,5.03017 -4.48189,2.19787 -4.4819,2.19787 0.16744,6.14573 0.16734,6.14576 2.03254,4.59455 2.03233,4.59455 3.49496,1.46031 3.49516,1.46033 7.2526,-0.0169 7.25291,-0.0169 8.39966,-3.40627 8.3995,-3.40628 1.892,1.0125 1.8918,1.01249 1.8196,-1.64665 c 1.0006,-0.90564 2.0678,-2.62205 2.3715,-3.81427 l 0.5521,-2.16762 6.2657,-4.23287 6.2659,-4.23286 1.8327,0 1.8327,0 2.8488,-2.02856 c 1.5668,-1.11571 4.9227,-2.9459 7.4572,-4.06709 l 4.6086,-2.03853 0.5207,0.52068 0.5206,0.5207 -1.6694,4.37125 -1.6693,4.37121 -3.8835,5.13094 c -2.1359,2.82199 -4.7779,6.88428 -5.8713,9.02733 l -1.9877,3.89643 -5.0399,4.40874 -5.0398,4.40872 -9.1874,4.62391 -9.1872,4.62391 -4.7398,1.24351 -4.73975,1.24348 -1.54151,-2.20089 -1.54151,-2.20088 -2.68237,0.005 -2.68247,0.005 -3.98395,2.45373 c -2.19113,1.34956 -4.65614,2.44804 -5.47778,2.44111 -0.82174,-0.006 -3.11545,-0.59206 -5.09716,-1.30021 z M 990.56844,353.981 c 7.39514,-1.63805 16.25136,-3.90134 19.68066,-5.02948 l 6.2349,-2.0512 1.0998,-2.05467 1.0995,-2.05468 0.1352,-11.55529 0.135,-11.55526 -2.0725,-3.4859 -2.0727,-3.48588 -3.4877,0.0988 -3.4878,0.0988 -6.1227,4.15791 -6.12278,4.15789 -2.3662,-0.59391 -2.3664,-0.59389 -1.63788,1.63804 -1.63819,1.63804 0.61028,2.43074 0.61008,2.43073 -3.94919,5.21598 c -2.17212,2.8688 -5.80767,8.63254 -8.07902,12.80835 l -4.12974,7.59246 0,2.23447 0,2.23447 2.24095,-0.64908 c 1.23256,-0.35702 8.2914,-1.98935 15.68643,-3.62743 z m 618.76516,72.06573 -2.2208,-0.42903 -2.0121,-2.55757 -2.0118,-2.55756 0,-1.73566 0,-1.73568 -1.4064,-1.16733 -1.4066,-1.16734 -6.0359,2.54044 c -3.3196,1.39725 -9.5215,3.69127 -13.7818,5.09783 l -7.7462,2.55739 -9.0434,0.56565 -9.0437,0.56565 -5.2846,-1.75526 -5.2845,-1.75526 -3.8427,-3.47156 -3.8426,-3.47158 -1.4997,-5.04987 -1.4996,-5.04984 0,-4.75378 0,-4.75377 2.4131,-6.64782 2.4129,-6.64783 3.7278,-5.41233 3.7275,-5.4123 5.5619,-4.01548 5.5621,-4.01547 11.9515,-5.8224 11.9518,-5.82241 8.7735,-2.1876 8.7738,-2.18759 2.0917,-1.69364 2.0912,-1.69362 -1.0996,-9.67953 -1.0992,-9.67951 -1.798,-3.67831 -1.7978,-3.67828 -7.9678,-0.28044 -7.9678,-0.28041 -7.9678,3.8731 -7.9678,3.8731 -7.4697,5.54226 c -4.1084,3.04825 -8.0421,6.1375 -8.7417,6.86499 -0.6994,0.72751 -2.349,2.66729 -3.6655,4.31064 l -2.3939,2.9879 -1.1977,-1.17834 -1.1978,-1.17835 2.6877,-6.78941 c 1.478,-3.73415 4.1147,-9.18898 5.8593,-12.12183 l 3.1718,-5.33244 5.8502,-4.90657 c 3.2175,-2.69862 7.7141,-5.9989 9.9923,-7.33399 2.278,-1.33509 6.1443,-3.13994 8.5913,-4.01074 l 4.4493,-1.5833 7.1677,-0.0402 7.1675,-0.0402 5.3275,2.43898 5.3273,2.43896 3.6492,3.20405 3.6493,3.20404 2.4159,5.16098 2.416,5.16098 1.1325,5.38217 1.1324,5.38217 0.959,14.0392 c 0.5273,7.72157 0.9655,17.96085 0.9735,22.75394 l 0.015,8.71472 0.9372,0 c 0.5155,0 1.2142,-0.44818 1.5527,-0.99596 l 0.6155,-0.99598 2.0576,0 2.0578,0 -0.6464,3.2369 c -0.3556,1.78031 -1.9801,6.08838 -3.6105,9.57352 l -2.9639,6.33663 0,1.88011 0,1.88013 1.0509,0 c 0.5779,0 3.6033,-1.30898 6.7228,-2.90886 8.3597,-4.28736 14.6096,-7.05083 15.9459,-7.05083 l 1.1797,0 0,0.92554 c 0,0.50904 -1.8238,3.67112 -4.0527,7.02684 l -4.0526,6.1013 -0.7676,4.85599 -0.7678,4.85599 -1.6137,2.46279 -1.6137,2.46279 -5.2685,2.99075 -5.2688,2.99074 -5.4096,1.58702 c -2.9751,0.87287 -5.6644,1.52602 -5.9759,1.45142 -0.3115,-0.0746 -1.5655,-0.3287 -2.7871,-0.56466 z m -35.6194,-22.67495 7.6513,-1.46394 5.6329,-2.56902 c 3.098,-1.41299 7.3156,-3.72972 9.3722,-5.14833 l 3.7391,-2.5793 1.9877,-3.21599 1.9876,-3.21599 0,-4.16057 0,-4.16058 -2.4447,-2.44466 -2.4446,-2.44465 -1.9158,0 -1.9156,0 -1.4971,-2.24094 -1.497,-2.24091 -1.9057,1.71215 -1.9059,1.71217 -6.7413,2.08218 -6.7414,2.08218 -3.6718,3.24561 c -2.0196,1.78509 -5.7841,4.73565 -8.366,6.55679 l -4.6941,3.31119 -2.4272,3.59242 c -1.3347,1.97582 -2.733,4.62278 -3.1072,5.88211 l -0.6803,2.2897 1.5995,2.44114 1.5997,2.44116 5.3672,0 5.3673,0 7.6512,-1.46392 z m -504.794,17.99927 -3.6543,-3.65434 -2.4898,-4.91344 -2.4899,-4.91343 0,-2.46427 0,-2.46424 1.2401,-0.76639 1.2399,-0.76636 8.4708,-0.0393 8.4706,-0.0393 0.5997,-19.91939 0.5996,-19.91936 1.2227,-5.2144 1.2227,-5.2144 -0.3284,-12.88484 -0.3285,-12.88485 -2.2056,-2.34489 -2.2059,-2.34489 0.5759,-2.20204 0.5758,-2.20204 -1.6742,-0.64243 -1.674,-0.64242 -2.1738,1.14388 -2.1736,1.14388 -4.9799,-1.90454 -4.9798,-1.90456 -0.3394,-1.68576 -0.339,-1.68576 2.2111,-2.35355 2.211,-2.35355 8.5859,-3.15458 8.5855,-3.1546 5.5404,-0.11764 5.54,-0.11765 2.7598,1.80822 2.7598,1.80823 1.4107,3.37642 1.4107,3.37644 0,5.01182 0,5.01184 1.2449,-5.6e-4 1.245,-5.3e-4 5.696,-6.36943 5.6957,-6.36941 4.3294,-2.09576 4.3292,-2.09577 4.584,0 c 2.5211,0 5.3271,0.28523 6.2357,0.6338 l 1.6516,0.63384 0.895,2.35407 0.8951,2.3541 2.8262,0 2.8262,0 2.553,2.73892 2.5529,2.7389 4.1073,8.50073 4.1071,8.50073 -0.059,1.95694 c -0.032,1.07631 -0.8564,5.02201 -1.8331,8.76821 l -1.7756,6.81126 -4.3918,1.96217 -4.3917,1.96218 -2.6462,2.52868 -2.6461,2.52868 -5.9457,-2.66818 -5.9454,-2.6682 -1.0815,-2.37354 -1.0814,-2.37359 0.8253,-0.51005 0.8252,-0.51008 1.7816,1.96845 1.7814,1.96846 2.6432,0 2.643,0 1.6313,-1.24496 1.6313,-1.24496 1.5326,-4.48186 c 0.8428,-2.46503 1.5389,-5.28655 1.547,-6.27007 l 0.015,-1.78822 -2.4899,-2.48993 c -1.3695,-1.36945 -2.4898,-2.83959 -2.4898,-3.267 0,-0.42741 -1.0374,-1.75158 -2.3051,-2.94263 l -2.3051,-2.16563 -5.4412,0 -5.441,0 -2.2353,1.56578 -2.2355,1.56579 -2.8274,5.65498 c -1.555,3.11025 -3.5501,7.89592 -4.4332,10.63484 -0.8834,2.73891 -2.7513,11.69295 -4.1512,19.89784 l -2.5452,14.91799 -0.1,7.71889 -0.1,7.71888 1.7067,2.60448 1.7064,2.60448 4.2802,1.89336 4.2803,1.89339 0.5419,2.07184 0.5417,2.07186 2.0427,-1.09324 2.0429,-1.09324 1.9534,1.21992 1.9534,1.21992 2.4746,-1.32439 2.4747,-1.32439 2.8156,0.70281 c 1.5486,0.38654 3.488,1.27996 4.3097,1.9854 0.8216,0.70542 2.7356,1.57772 4.2533,1.93843 l 2.7594,0.65588 2.0784,-1.11235 2.0784,-1.11234 0.9529,0.95306 0.9532,0.95308 -1.7064,1.70643 -1.7065,1.70646 -2.0189,-0.52795 -2.019,-0.52798 -2.5634,1.37957 c -3.8952,2.0963 -12.033,4.50154 -15.23,4.50154 l -2.8503,0 -4.1933,2.17045 -4.1931,2.17044 -10.9557,0.7376 c -6.0256,0.40566 -15.2497,1.05843 -20.4979,1.45061 l -9.5423,0.71303 -3.6545,-3.65437 z m 577.8952,0.7538 c -1.4225,-1.56616 -3.3272,-3.95576 -4.2329,-5.31015 l -1.6467,-2.46252 0,-2.7663 0,-2.7663 1.9527,-1.95271 1.9527,-1.95271 5.5157,-1.60346 5.5156,-1.60347 0.5678,-2.26229 0.568,-2.26229 -0.3175,-35.76321 -0.3176,-35.76322 -2.0457,-3.4825 -2.0457,-3.48251 -3.4321,-2.31285 -3.4322,-2.31286 0,-1.17642 0,-1.17642 9.4618,-3.21153 c 5.204,-1.76634 10.3582,-3.22295 11.4538,-3.23687 l 1.992,-0.0252 2.5807,3.23687 2.5808,3.23686 1.2744,3.98388 c 0.701,2.19114 1.6536,4.3948 2.117,4.89704 l 0.8429,0.9132 7.2536,-7.53436 7.2538,-7.53434 4.2329,-1.13598 4.2328,-1.13597 3.7568,1.01156 3.7566,1.01157 4.2261,3.10784 4.2259,3.10787 2.3775,4.1357 c 1.3074,2.27464 2.6722,5.55267 3.0325,7.28456 l 0.6557,3.14881 -1.123,6.31286 c -0.6176,3.47207 -2.2536,10.05449 -3.6359,14.6276 l -2.5129,8.31473 -5.8908,6.03878 -5.8905,6.03878 -0.6121,-0.61179 -0.6116,-0.6118 1.704,-6.95326 1.704,-6.95327 -0.5667,-10.20202 -0.5667,-10.20202 -1.0052,-1.00533 -1.0055,-1.00533 -5.5305,1.74339 -5.5308,1.74339 -3.067,4.16947 c -1.687,2.29321 -3.6861,5.61223 -4.4428,7.37564 l -1.3757,3.20617 -2.4893,16.40151 -2.4893,16.40153 0,6.08795 0,6.08795 1.4569,2.81775 c 0.8016,1.54977 2.0342,3.03321 2.739,3.29657 0.7051,0.26332 6.66,0.15848 13.2334,-0.233 l 11.9516,-0.71179 0.9004,0.8057 0.9001,0.80573 -2.7305,3.57998 c -1.5019,1.96898 -4.1827,4.53186 -5.9576,5.69528 l -3.2269,2.11534 -2.1531,3.28463 -2.1533,3.28464 -2.6046,1.70673 -2.6049,1.70672 -9.606,0.72073 c -5.2834,0.39642 -13.8642,1.03525 -19.068,1.4196 l -9.4617,0.69886 -2.5862,-2.8476 z m 85.0722,1.00693 c -1.1941,-1.02444 -3.323,-3.60584 -4.7307,-5.73646 l -2.5597,-3.87387 0,-1.92957 0,-1.92958 2.7905,-2.79036 2.7903,-2.79037 4.1241,-0.69677 4.1241,-0.69674 0.9613,-1.16711 0.9615,-1.1671 0.2122,-34.85889 0.2123,-34.8589 -0.9946,-4.76673 -0.9944,-4.76675 -1.7536,-1.9379 -1.7539,-1.93788 -5.0909,-1.89645 -5.0908,-1.89645 -0.2716,-1.35862 -0.2717,-1.35857 12.6278,-2.25348 12.6281,-2.25345 2.583,1.64289 c 1.4209,0.90359 3.5758,2.81401 4.7887,4.2454 l 2.2053,2.6025 0.6445,3.2369 0.6444,3.2369 1.1341,-0.007 1.1342,-0.007 4.68,-5.86958 4.6803,-5.86956 5.4752,-2.67885 5.4753,-2.67882 3.2901,0.70875 c 1.8096,0.38984 4.6346,1.37824 6.278,2.19648 3.8346,1.90923 8.2796,6.04179 9.9637,9.26318 l 1.3201,2.52509 -1.4218,12.91243 -1.4215,12.91244 -2.9496,4.48187 c -1.6222,2.46502 -3.7165,5.93846 -4.6537,7.71873 l -1.704,3.23691 -1.6124,0 -1.6124,0 -0.096,-8.21674 -0.098,-8.21675 -1.6936,-4.21373 -1.6933,-4.21375 -3.254,-2.01105 -3.2541,-2.01106 -2.4986,0 -2.4986,0 -1.9923,4.73084 c -1.0957,2.60198 -2.6936,6.97179 -3.551,9.7107 -1.6911,5.40144 -5.1609,26.56916 -6.2249,37.97572 l -0.6625,7.10074 1.1638,3.52627 c 0.64,1.93944 1.7011,3.96526 2.3578,4.50186 l 1.194,0.97555 5.4777,-0.98017 c 3.0128,-0.53909 8.1671,-1.10105 11.4537,-1.24883 3.2867,-0.14775 6.7147,-0.58859 7.618,-0.9796 l 1.6422,-0.71095 0.705,1.14085 0.7052,1.14083 -6.5472,6.29456 -6.5474,6.29455 -1.5559,3.8886 -1.5559,3.88859 -3.1879,1.8832 -3.1882,1.88317 -9.4815,0.70359 c -5.2147,0.38699 -13.5152,1.02685 -18.4452,1.42191 l -8.9637,0.71832 -2.1712,-1.86258 z m 113.2219,0.0845 -5.478,-1.5043 -5.2924,-3.62338 -5.2925,-3.62338 -3.9046,-4.56572 -3.9047,-4.56573 -2.9021,-5.9758 -2.9022,-5.97582 -1.0973,-5.27786 -1.0973,-5.27786 0.02,-9.16368 0.02,-9.16368 0.9686,-6.69626 0.9684,-6.69626 2.1387,-6.25131 c 2.815,-8.22805 7.3808,-17.29863 11.0537,-21.95946 l 2.9602,-3.75649 6.2467,-4.45749 c 3.4358,-2.45162 8.6957,-5.57876 11.6892,-6.94921 l 5.4426,-2.49172 7.3824,-0.60175 7.3824,-0.60176 6.9494,1.63502 6.9496,1.63503 4.161,2.43848 4.161,2.43848 3.0792,3.88796 3.0793,3.88793 3.4572,7.32988 c 1.9014,4.03144 4.1708,10.019 5.0433,13.30569 l 1.5857,5.97582 0.5568,9.46169 0.5566,9.46169 -1.6114,8.46574 c -0.8863,4.65616 -2.0709,10.10838 -2.6327,12.11608 l -1.021,3.65037 -3.4627,2.04286 -3.4623,2.04288 0,1.54104 c 0,0.8476 0.5528,2.4263 1.2286,3.50824 l 1.2285,1.96716 -1.9755,3.68236 c -1.0865,2.0253 -4.0643,5.97101 -6.6173,8.76824 l -4.6418,5.0859 -5.318,2.93582 -5.3178,2.93585 -12.4496,0.24149 -12.4496,0.2415 -5.4778,-1.50428 z m 23.8599,-20.62144 5.4927,-1.24496 3.8111,-3.79682 3.8111,-3.79683 1.9357,-4.5163 1.936,-4.51628 1.0975,-7.07426 1.0977,-7.07425 -0.6623,-13.99369 c -0.3644,-7.69653 -0.6439,-16.07569 -0.6213,-18.62037 l 0.04,-4.62668 -2.6902,-1.76268 c -1.4798,-0.96946 -5.0755,-3.70545 -7.9908,-6.07997 l -5.3003,-4.31733 -3.2665,0 -3.2664,0 -5.1133,1.51852 -5.1135,1.51849 -3.208,2.69954 -3.2083,2.69952 -3.788,5.86083 -3.7882,5.86083 -0.6075,3.61569 c -0.3344,1.98864 -0.8167,4.38014 -1.072,5.31445 -0.255,0.93431 -2.2329,3.83931 -4.3947,6.45554 l -3.9308,4.75679 0,1.53986 0,1.53986 1.8379,1.5739 1.8385,1.5739 0.684,5.82155 0.6843,5.82153 4.3056,9.08917 4.3055,9.08915 2.9192,2.07859 c 3.4453,2.45324 8.4691,4.02295 13.2749,4.14783 1.901,0.0494 5.9285,-0.4704 8.9494,-1.15514 z m 88.9034,19.59296 -5.1519,-2.56736 -2.561,-3.04346 c -1.4085,-1.6739 -3.3949,-4.67853 -4.4145,-6.67694 l -1.8536,-3.63349 -1.0869,-5.87813 -1.0865,-5.87817 -0.07,-26.45921 -0.07,-26.45925 -0.7787,-1.99193 -0.7789,-1.99194 -7.1877,0 -7.1875,0 -3.9153,-4.19429 -3.9152,-4.1943 0,-2.54201 0,-2.54199 -1.1529,-1.84651 -1.1531,-1.84649 0.5428,-1.41487 0.543,-1.41492 5.8756,-3.07993 5.8756,-3.07994 5.7468,-1.28607 5.747,-1.28605 1.1882,-2.0698 1.1885,-2.06978 -0.2555,-20.24598 -0.2556,-20.24599 -1.0586,-1.97797 -1.0585,-1.97798 1.187,-1.43028 1.187,-1.4303 1.9887,0 1.9889,0 5.8279,3.54038 5.828,3.54035 2.0964,2.94414 2.0964,2.94414 0.5798,15.08608 0.58,15.08606 1.8499,1.84984 1.8496,1.84985 2.724,-0.65447 c 1.498,-0.35997 4.2923,-1.43079 6.2094,-2.37965 l 3.4859,-1.7252 7.8242,-0.71826 7.8241,-0.71825 3.6296,-1.54652 3.6293,-1.54654 5.2182,-0.10156 5.2181,-0.10156 0.488,1.27244 0.4881,1.27245 -1.7223,1.40384 c -0.9473,0.77211 -3.8243,3.11272 -6.3938,5.20136 -2.5693,2.08863 -8.473,7.19342 -13.1196,11.344 l -8.448,7.54648 -8.7916,3.32477 c -4.8354,1.82864 -9.4642,3.93826 -10.286,4.68804 l -1.4936,1.36325 -0.3208,27.60421 -0.3211,27.60422 0.6457,5.26133 0.6455,5.26132 2.3111,2.68692 2.3112,2.6869 3.0614,-1.47445 3.0611,-1.47442 11.3366,-11.09105 c 6.235,-6.10005 12.3081,-11.61106 13.4957,-12.24668 l 2.1595,-1.15563 0.8501,0.5255 0.8503,0.52549 -0.8051,4.25141 c -0.443,2.33828 -1.5209,5.95077 -2.3956,8.02776 l -1.5902,3.77634 -3.0911,2.76186 -3.0911,2.76184 1.1527,2.15378 1.1527,2.15379 -1.564,3.75762 -1.564,3.75764 -4.1856,4.3567 c -2.3022,2.39617 -6.1782,5.64552 -8.6136,7.22078 l -4.428,2.86407 -5.5852,0 -5.5851,0 -5.1521,-2.56737 z"
       id="path4376"
       inkscape:connector-curvature="0" />
  </g>
</svg>
