<?xml version="1.0" encoding="UTF-8" standalone="no"?>
<!-- Created with Inkscape (http://www.inkscape.org/) -->

<svg
   xmlns:dc="http://purl.org/dc/elements/1.1/"
   xmlns:cc="http://creativecommons.org/ns#"
   xmlns:rdf="http://www.w3.org/1999/02/22-rdf-syntax-ns#"
   xmlns:svg="http://www.w3.org/2000/svg"
   xmlns="http://www.w3.org/2000/svg"
   xmlns:xlink="http://www.w3.org/1999/xlink"
   xmlns:sodipodi="http://sodipodi.sourceforge.net/DTD/sodipodi-0.dtd"
   xmlns:inkscape="http://www.inkscape.org/namespaces/inkscape"
   id="svg2"
   version="1.1"
   inkscape:version="0.92.1 renderfarm"
   width="2481"
   height="663"
   sodipodi:docname="Pepper-and-Carrot_by-David-Revoy_E02P00_092.svg">
  <sodipodi:namedview pagecolor="#ffffff" bordercolor="#666666" inkscape:pageopacity="0" inkscape:pageshadow="2" inkscape:window-width="1813" inkscape:window-height="955" id="namedview70" showgrid="false" inkscape:zoom="0.4" inkscape:cx="1284.4231" inkscape:cy="2618.6204" inkscape:current-layer="layer1" /><metadata
     id="metadata8">
    <rdf:RDF>
      <cc:Work
         rdf:about="">
        <dc:format>image/svg+xml</dc:format>
        <dc:type
           rdf:resource="http://purl.org/dc/dcmitype/StillImage" />
        <dc:title />
      </cc:Work>
    </rdf:RDF>
  </metadata>
  <defs
     id="defs6" />
  <sodipodi:namedview
     pagecolor="#ffffff"
     bordercolor="#666666"
     borderopacity="1"
     objecttolerance="10"
     gridtolerance="10"
     guidetolerance="10"
     inkscape:pageopacity="0"
     inkscape:pageshadow="2"
     inkscape:window-width="1920"
     inkscape:window-height="1026"
     id="namedview4"
     showgrid="false"
     inkscape:zoom="0.59209996"
     inkscape:cx="1243.8778"
     inkscape:cy="314.61096"
     inkscape:window-x="0"
     inkscape:window-y="27"
     inkscape:window-maximized="1"
     inkscape:current-layer="layer1" />
  <g
     inkscape:groupmode="layer"
     id="layer2"
     inkscape:label="artwork"
     sodipodi:insensitive="true">
    <image
       sodipodi:absref="/home/deevad/peppercarrot/webcomics/ep02_Rainbow-potions/lang/cn/../gfx_Pepper-and-Carrot_by-David-Revoy_E02P00.png"
       xlink:href="../gfx_Pepper-and-Carrot_by-David-Revoy_E02P00.png"
       y="0"
       x="-1.6728083e-06"
       id="image10"
       height="663"
       width="2481" />
  </g>
  <g
     inkscape:groupmode="layer"
     id="layer1"
     inkscape:label="text">
    <flowRoot
       xml:space="preserve"
       id="flowRoot3063"
       style="font-style:normal;font-variant:normal;font-weight:normal;font-stretch:normal;line-height:0.01%;font-family:Arial;-inkscape-font-specification:Arial;letter-spacing:0px;word-spacing:0px;display:inline;fill:#562f13;fill-opacity:1;stroke:none"
       transform="matrix(0.77923967,0,0,0.77489763,118.20635,200.50012)"><flowRegion
         id="flowRegion3065"><rect
           id="rect3067"
           width="2715.5891"
           height="110.01318"
           x="92.642677"
           y="425.30325"
           style="font-size:72px;fill:#562f13;fill-opacity:1" /></flowRegion><flowPara
         id="flowPara3069"
         style="font-style:normal;font-variant:normal;font-weight:normal;font-stretch:normal;font-size:88px;line-height:1.25;font-family:'WenQuanYi Micro Hei';-inkscape-font-specification:'WenQuanYi Micro Hei';text-align:center;text-anchor:middle;fill:#562f13;fill-opacity:1">第2集：彩虹魔药</flowPara></flowRoot>    <path
       style="display:inline;fill:#562f13;fill-opacity:1;stroke:none"
       d="m 717.4802,501.73802 c -1.9716,-1.73112 -4.23653,-4.40791 -5.03319,-5.94845 l -1.44846,-2.80102 0,-4.0938 0,-4.09381 2.45378,-2.45376 2.45376,-2.45377 1.79488,-0.0318 c 0.98719,-0.0175 2.66222,-0.68797 3.72231,-1.48996 l 1.92744,-1.45818 0.74871,-5.25786 0.7487,-5.25796 0.0731,-22.80844 0.0729,-22.80844 -1.03484,-1.93363 -1.03485,-1.93364 -1.78274,0 c -0.98053,0 -4.16756,-0.70824 -7.08233,-1.57388 l -5.29957,-1.57376 -2.37948,-2.37941 -2.37949,-2.37955 0,-1.54495 0,-1.54495 5.74817,-0.0414 5.74817,-0.0413 4.49857,-2.20811 4.49856,-2.20799 0.28563,-34.98889 0.28564,-34.9889 -1.1866,-4.32457 -1.18661,-4.3247 -2.09806,-1.36087 -2.09809,-1.36076 -8.74721,-0.69998 -8.74721,-0.69997 0,-1.19735 0,-1.19735 4.42139,-4.48472 4.42139,-4.48485 12.65252,-5.71889 12.6525,-5.71902 1.92543,0.6112 c 1.05901,0.33609 3.27259,1.74455 4.91911,3.12998 l 2.99364,2.51904 0,1.33921 c 0,0.73667 0.70692,2.04621 1.57094,2.91023 l 1.57092,1.57087 10.31343,0 10.31341,0 8.66657,2.51152 c 4.76662,1.3813 10.83617,3.61095 13.48792,4.95468 2.65174,1.34372 8.3946,5.13561 12.76196,8.4265 l 7.94064,5.98347 2.74421,3.95994 2.74423,3.95993 1.43094,4.7547 1.43093,4.75457 0,6.74995 0,6.74983 -1.87094,6.01127 -1.87095,6.0114 -3.69808,6.61282 -3.6981,6.61284 -6.01243,6.42725 -6.01245,6.42737 -6.66271,4.9101 c -3.66448,2.70061 -8.91197,6.0233 -11.66111,7.38406 -2.74912,1.36063 -10.17175,4.1867 -16.49474,6.28025 -6.32298,2.09342 -12.50851,4.17343 -13.74562,4.62222 l -2.24928,0.81592 0,21.56001 0,21.56 2.41311,2.4131 2.41311,2.41309 2.83521,0.60094 c 1.55938,0.33044 3.59108,1.00776 4.51493,1.505 l 1.67969,0.90426 4.35909,-0.0875 c 2.3975,-0.0481 6.65569,0.22837 9.46263,0.61443 l 5.10356,0.70191 3.17609,-1.64237 3.17608,-1.6425 2.94373,0.6465 c 1.61906,0.35563 4.96015,0.64664 7.42466,0.64664 2.46451,0 4.48091,0.21037 4.48091,0.46757 0,0.25712 -1.62448,1.14625 -3.60996,1.97585 -3.64246,1.52189 -11.47586,6.43839 -16.73925,10.50603 l -2.85479,2.20622 -6.50454,1.80364 -6.50453,1.80367 -4.63622,2.94769 -4.63623,2.9477 -7.4976,2.11806 c -4.12368,1.16496 -9.78643,2.77704 -12.58388,3.58242 l -5.08627,1.46427 -4.126,0 -4.12599,0 -3.58475,-3.14745 z m 44.15058,-107.26516 8.84882,-4.44641 8.05841,-6.46933 8.0584,-6.4692 4.82733,-5.82909 4.82732,-5.82895 2.85847,-5.99813 2.85845,-5.998 8e-4,-4.29827 8e-4,-4.29828 -1.46361,-2.83033 c -0.805,-1.55672 -2.85926,-4.00476 -4.56506,-5.44002 l -3.10143,-2.6097 -5.68168,-1.70637 -5.68169,-1.70623 -8.49729,-0.0263 -8.49731,-0.0263 -5.52356,1.24855 -5.52354,1.24857 -3.22366,1.96043 -3.22365,1.96043 0,29.95545 0,29.95545 1.74943,1.01892 c 0.9622,0.56047 2.26603,1.03267 2.89742,1.04933 0.6314,0.0162 5.12998,-1.97045 9.99683,-4.41586 z m 73.32829,108.83349 c -1.37456,-0.88871 -3.72737,-3.20722 -5.22845,-5.15224 l -2.72923,-3.53642 -0.61502,-3.27837 -0.61505,-3.2784 1.34492,-2.83414 1.3449,-2.83417 4.41727,-2.11975 4.41726,-2.11977 1.33091,-1.82011 1.33089,-1.82012 0,-27.67619 0,-27.67621 -5.24833,-0.5864 c -2.88657,-0.32244 -7.0108,-0.94215 -9.16495,-1.37704 l -3.91662,-0.79063 -0.31578,-0.996 c -0.17368,-0.54783 0.0346,-1.54833 0.46293,-2.22339 l 0.7787,-1.22727 7.72772,-1.47847 c 4.25026,-0.8133 8.16619,-1.74956 8.70204,-2.08076 l 0.97429,-0.60219 0,-40.47774 0,-40.47775 -1.45871,-2.82082 -1.45872,-2.82081 -8.28818,-1.17719 c -4.55849,-0.64751 -9.75021,-1.40045 -11.53715,-1.67343 l -3.24896,-0.49611 0,-0.78013 c 0,-0.42912 1.01216,-1.70197 2.24928,-2.82857 2.44789,-2.22916 15.0633,-10.29628 16.10157,-10.29628 0.35221,0 4.64753,-1.80428 9.54515,-4.00965 l 8.9048,-4.00952 2.84101,1.08015 c 1.56253,0.59404 3.62909,1.79326 4.5923,2.66504 l 1.75121,1.5849 0,2.7274 0,2.72752 2.2493,0.60281 c 1.23717,0.33158 6.75692,0.60894 12.26627,0.61645 l 10.01686,0.0138 7.17254,1.9876 c 3.94486,1.09317 9.73109,3.11909 12.85817,4.50213 l 5.68591,2.51453 6.61533,4.9225 c 3.63857,2.70736 8.28016,6.642 10.31494,8.74356 l 3.69941,3.82119 2.21827,4.9985 2.21817,4.99838 0.44741,7.54997 0.44732,7.55009 -2.92616,8.48899 -2.92596,8.48899 -3.84865,5.79828 c -2.11677,3.18908 -6.10363,8.26559 -8.85978,11.28125 l -5.01104,5.48285 -3.18811,-0.59805 -3.18791,-0.59805 -1.0423,1.26885 c -0.57327,0.69798 -1.19793,2.38931 -1.38821,3.75871 l -0.34566,2.48986 -4.91898,3.21387 -4.91909,3.21401 -12.40646,4.54295 -12.40651,4.54296 -2.1683,0.0151 c -1.19249,0.0125 -2.84298,0.44164 -3.66772,0.96268 l -1.49953,0.94741 0,21.44855 0,21.44856 2.38311,2.53769 2.38301,2.53757 5.19133,1.07776 5.19132,1.07776 9.92009,-0.0288 c 5.456,-0.0162 12.53294,-0.0801 15.72669,-0.143 l 5.80667,-0.11394 0.68299,0.68282 0.68288,0.68297 -1.99107,1.16785 c -1.09505,0.64234 -4.85323,2.41063 -8.35155,3.92953 l -6.36045,2.76166 -2.96331,2.49344 c -1.62972,1.37135 -3.54017,2.49337 -4.24528,2.49337 l -1.28204,0 -4.38945,3.85624 c -2.41411,2.12091 -6.31587,4.83663 -8.67045,6.03494 l -4.28111,2.17873 -9.7144,2.64073 -9.71447,2.64073 -4.99838,0.33982 -4.99846,0.33981 -2.4992,-1.61582 z m 40.76643,-107.84751 7.22073,-3.46044 7.24655,-5.37954 7.24638,-5.37942 6.9977,-7.41825 6.9978,-7.41823 2.80144,-5.77874 2.80143,-5.77874 0.50638,-4.70462 0.50628,-4.70461 -1.80806,-3.47333 -1.80846,-3.47346 -3.99867,-2.78124 -3.99868,-2.78125 -7.49765,-1.58628 -7.49765,-1.58615 -6.49786,0.57976 c -3.57391,0.31881 -9.19708,1.26836 -12.49604,2.10995 l -5.99803,1.5303 -2.29269,2.58803 -2.29267,2.58817 0.29324,28.23293 0.29339,28.23293 1.37197,1.65127 1.37196,1.65139 1.65532,0 c 0.91033,0 4.90449,-1.55723 8.87589,-3.46043 z m 344.6108,77.50846 c -2.7493,-0.97984 -7.2882,-2.94241 -10.087,-4.36127 l -5.0883,-2.57976 -3.1529,-3.59091 c -1.7341,-1.97496 -4.1528,-5.49024 -5.3755,-7.81168 l -2.2224,-4.22089 -0.032,-7.49763 -0.033,-7.49763 3.156,-6.66154 3.156,-6.66154 7.7574,-8.11946 7.7572,-8.11934 -2.8082,-5.87567 -2.8084,-5.87554 0.5998,-2.99862 0.5998,-2.99876 -1.4308,-1.18732 -1.4308,-1.18746 1.5517,-3.0005 1.5515,-3.0005 -2.2185,-2.36151 -2.2186,-2.36164 0.6341,-4.62472 0.6338,-4.62485 1.9911,-4.50138 1.9913,-4.50138 4.2512,-5.07776 4.2515,-5.07789 4.3886,-2.78313 4.3885,-2.78312 5.4141,-1.21162 5.414,-1.21162 5.2048,1.64425 5.2046,1.64426 5.7071,3.57425 5.7068,3.57425 3.6416,5.99488 3.6419,5.99487 0.5114,3.81356 0.5116,3.81367 -2.2069,6.9925 -2.2069,6.99249 -3.8407,4.89081 c -2.1126,2.68997 -5.4923,7.36503 -7.5108,10.38907 -2.0184,3.02404 -5.0167,6.69372 -6.6631,8.1549 l -2.993,2.65665 0.8512,1.45204 c 0.4682,0.79853 4.9474,5.80054 9.9537,11.1156 l 9.1027,9.66354 1.1938,-1.43852 1.1938,-1.43864 0.2004,-2.83672 0.2001,-2.83659 -3.7437,-0.31004 -3.7438,-0.30992 -2.5042,-3.28325 -2.5043,-3.28338 0,-2.08339 0,-2.08365 1.432,-1.432 1.4322,-1.43214 8.3148,-2.58491 c 4.573,-1.42173 10.564,-3.09604 13.3132,-3.72063 l 4.9985,-1.13574 11.9961,-0.39444 c 6.5979,-0.21701 14.3579,-0.66192 17.2446,-0.98873 l 5.2482,-0.59417 -5e-4,1.32144 -6e-4,1.32156 -7.1094,6.498 c -3.9102,3.57377 -8.521,7.90247 -10.2463,9.61922 l -3.1365,3.12135 -4.8765,0.70786 c -2.6819,0.38943 -5.4936,0.94478 -6.2479,1.23429 l -1.3718,0.52641 0,4.85388 0,4.854 -2.1328,5.70061 -2.133,5.70072 2.8723,2.08441 c 1.5799,1.14638 4.6765,3.47271 6.8815,5.16968 l 4.009,3.0854 -0.1856,1.41322 c -0.1014,0.77724 -0.8078,3.09667 -1.568,5.15428 l -1.3822,3.74105 -2.3551,2.50689 -2.3551,2.50688 -3.0748,0 -3.0748,0 -3.2731,-1.99561 c -1.8003,-1.09717 -3.8764,-1.99512 -4.6137,-1.99512 -0.7373,0 -2.4844,-0.89971 -3.8825,-1.99938 -1.3979,-1.09967 -3.1455,-1.98785 -3.8835,-1.97383 -0.7381,0.0138 -3.8161,1.60519 -6.8401,3.53582 l -5.4982,3.51014 -9.4572,2.96219 -9.4573,2.96215 -5.0381,-0.0731 -5.0381,-0.0731 -4.9985,-1.78163 z m 24.257,-24.19223 4.395,-2.12748 0.4893,-1.27561 0.4897,-1.27549 -10.317,-10.08665 -10.3169,-10.08641 -1.207,0 -1.207,0 -2.7918,3.67981 c -1.5354,2.02393 -4.2537,5.03082 -6.0407,6.68196 l -3.249,3.002 0,1.35186 0,1.352 4.2486,4.33484 c 2.3367,2.38417 5.1484,4.82845 6.2481,5.43151 l 1.9994,1.09667 6.4323,0.03 6.4321,0.03 4.3949,-2.12759 z m -5.3478,-61.43971 7.7181,-6.58541 1.9276,-3.16141 1.9279,-3.16153 0,-3.17231 0,-3.17217 -2.4789,-2.94616 -2.479,-2.94604 -3.0025,-1.24367 -3.0028,-1.24381 -3.4553,0.64826 -3.4553,0.64827 -2.7109,3.21487 c -1.4911,1.76823 -3.3176,4.66267 -4.0591,6.43189 l -1.3485,3.21688 0,3.8719 0,3.87191 1.4158,4.70398 c 1.4059,4.67193 3.1635,7.60995 4.5522,7.60995 0.3986,0 4.1978,-2.96343 8.4429,-6.5854 z m 177.309,58.57306 c -3.1443,-0.40333 -8.9052,-1.75833 -12.8016,-3.01127 l -7.0842,-2.27787 -5.9362,-3.60556 c -3.2647,-1.98297 -8.2366,-5.40497 -11.0484,-7.60419 l -5.1121,-3.99875 -5.7804,-6.80241 -5.7804,-6.80253 -3.0243,-5.69348 c -1.6633,-3.13148 -3.9437,-8.61771 -5.0674,-12.1916 -1.1239,-3.57375 -2.998,-11.66154 -4.1648,-17.97271 l -2.1216,-11.47497 0.4445,-4.52004 c 0.6418,-6.52993 3.4671,-21.03258 6.2514,-32.08931 2.7721,-11.00802 8.701,-28.47523 11.6682,-34.37557 4.4204,-8.78976 15.5413,-26.44217 22.3672,-35.50366 3.96,-5.25683 10.285,-12.71326 14.0556,-16.56964 3.7706,-3.8565 10.0032,-9.3912 13.8499,-12.29941 l 6.9944,-5.28788 8.2894,-4.10744 8.2893,-4.10757 10.7081,-0.0676 10.708,-0.0676 9.497,3.83221 c 5.2234,2.10769 10.3967,3.90709 11.4965,3.99875 l 1.9991,0.16654 0.5,-5.54357 0.4999,-5.54346 1.8546,-2.8292 1.8545,-2.82909 5.5002,0.64638 5.4999,0.64639 5.4029,2.5561 5.4029,2.55598 3.4873,3.28888 3.4872,3.28888 0,5.00539 c 0,2.75282 -0.2813,6.41186 -0.6251,8.13086 l -0.6249,3.1256 -3.9432,4.4796 -3.9434,4.47971 0.6287,1.01703 0.6285,1.01704 1.8296,0 1.8297,0 2.309,1.86964 2.3088,1.86978 -1.1871,13.87516 c -1.3664,15.96972 -2.3917,23.59883 -4.5275,33.68574 -0.8364,3.94954 -1.9562,9.43026 -2.4888,12.17945 -0.5327,2.74906 -1.7088,8.30529 -2.614,12.34724 l -1.6453,7.34887 -2.4816,4.8972 -2.4816,4.8972 -0.8661,0 -0.8664,0 -0.6027,-2.24931 c -0.3317,-1.23704 -0.6091,-4.62535 -0.6165,-7.52968 l -0.014,-5.28038 -1.3509,-3.23304 -1.3507,-3.23291 -0.7372,-12.93978 -0.7371,-12.93978 -4.2836,-12.53594 -4.2836,-12.53608 -4.3049,-8.39433 -4.3049,-8.3942 -3.5918,-3.77573 -3.5918,-3.77573 -2.7697,-0.69522 -2.7697,-0.69509 -4.3785,1.67205 c -2.408,0.91973 -7.2247,3.55058 -10.7031,5.84636 l -6.3248,4.17418 -9.317,9.44416 -9.3173,9.44404 -7.3646,11.07051 -7.3646,11.07038 -6.988,14.49538 c -7.5042,15.56701 -12.5309,28.43642 -16.6253,42.56529 l -2.567,8.8585 -0.6191,7.52756 -0.619,7.52755 -2.34,2.81543 -2.34,2.81555 1.4709,2.84474 c 0.8094,1.56461 2.7527,3.89644 4.3192,5.18194 l 2.8482,2.33723 2.6778,4.68984 2.6777,4.68983 4.7408,4.8545 4.7406,4.8545 4.8437,2.33709 4.8435,2.33722 11.1514,-0.52392 11.1513,-0.5238 9.6806,-3.13598 c 5.3245,-1.72478 12.2672,-4.27987 15.4288,-5.67807 l 5.7479,-2.54208 1.7764,0.46457 1.7763,0.46444 2.8709,-2.74368 2.8712,-2.74369 7.0492,-2.6937 7.0494,-2.69372 1.8631,-2.05861 c 1.0247,-1.13223 3.0378,-2.66617 4.4736,-3.40872 l 2.6106,-1.34999 1.1861,-2.79627 1.1859,-2.79627 5.6583,-3.43714 c 3.1121,-1.89043 7.3482,-4.96407 9.414,-6.83021 l 3.7556,-3.39307 3.9677,-6.28225 3.9675,-6.28225 1.4951,-0.57375 1.4953,-0.57376 1.2232,1.47421 1.2235,1.47421 -1.1149,2.21513 c -0.6131,1.21838 -2.2198,6.79814 -3.5703,12.39933 l -2.4553,10.18408 -4.8249,8.80993 -4.825,8.80979 -6.6817,6.68647 -6.6815,6.68657 -2.8682,1.48311 -2.8681,1.48309 -1.9272,-0.17218 -1.9273,-0.17217 -2.7812,5.49825 -2.781,5.49826 -10.7369,6.68958 -10.7365,6.68959 -8.9972,2.98773 -8.9972,2.98785 -7.82,1.06926 c -8.5638,1.17092 -13.2133,1.18657 -21.8897,0.0738 z m -942.84309,-17.38882 -3.86151,-1.45117 -2.97787,-2.8282 -2.97791,-2.8282 -1.96301,-3.81719 -1.963,-3.81718 -0.56124,-4.73868 -0.56124,-4.73879 2.38455,-2.77223 2.38456,-2.7721 6.26418,-0.73867 6.26417,-0.73855 1.70171,-1.70172 1.70168,-1.70173 0.51273,-9.21802 0.51275,-9.21801 2.99905,-0.5109 2.99904,-0.51077 0.31029,-2.68169 0.31027,-2.68183 -2.80946,-1.789 c -1.54522,-0.98385 -3.14001,-2.24919 -3.54396,-2.81168 l -0.73444,-1.02279 -0.0154,-28.77213 -0.0153,-28.77225 1.2496,-0.38505 c 0.68727,-0.21162 2.43709,-0.6435 3.88846,-0.95968 l 2.63886,-0.57463 0.63487,-1.65452 0.63489,-1.6544 -1.27439,-1.70623 c -0.7009,-0.93839 -2.78868,-3.68421 -4.63953,-6.10169 l -3.36514,-4.39544 0.80813,-15.99501 c 0.44447,-8.79715 0.83414,-20.3455 0.86594,-25.66307 l 0.0577,-9.66817 -2.41394,-2.56774 -2.41394,-2.56763 -5.58351,-2.08189 -5.5835,-2.0819 -2.16849,-2.02542 -2.1685,-2.02542 -2.1289,-4.94866 -2.12892,-4.9488 -0.16374,-5.90872 -0.16379,-5.90859 2.34132,-2.49224 2.34132,-2.49224 8.61777,-3.15014 8.61778,-3.15002 15.49507,-2.89118 15.49506,-2.89119 17.99427,0.0213 17.99427,0.0213 9.6129,0.93551 9.6129,0.93539 8.21486,2.99812 c 4.51818,1.64889 10.9963,4.55347 14.39585,6.45468 3.39954,1.90107 8.21809,5.24969 10.70792,7.44127 l 4.52693,3.98486 6.3418,8.84286 6.34181,8.84273 4.79088,9.99688 4.79092,9.99675 1.67908,6.498 1.67908,6.49788 0.0897,7.49763 0.0898,7.49763 -1.29488,5.49826 -1.29484,5.49825 -3.90819,7.99737 -3.9082,7.99751 -5.74387,6.67393 c -3.15912,3.67068 -7.99316,8.67118 -10.74227,11.11233 -2.74913,2.44115 -8.52189,6.9657 -12.82834,10.05449 l -7.82993,5.61608 -12.1637,5.88518 c -15.33477,7.41936 -33.22921,14.58341 -41.6543,16.67633 -3.57387,0.88779 -8.16465,2.04206 -10.20175,2.56485 l -3.70382,0.95067 -1.5445,1.54458 -1.54452,1.54446 0,12.96995 0,12.96984 2.29302,2.29301 2.29304,2.29302 4.07507,0.65165 4.07507,0.65164 1.25192,1.5085 1.25193,1.5084 5.1259,0.0151 5.12593,0.0151 4.31506,1.50301 4.31504,1.50287 0.92595,-0.57224 c 0.87196,-0.53895 21.91578,-1.65791 28.43184,-1.5119 1.64948,0.0363 4.57355,0.0738 6.49793,0.0814 1.92439,0.0125 4.11188,0.23391 4.86107,0.50239 l 1.3622,0.48834 -1.23468,1.48761 -1.23468,1.48773 -1.56132,0 c -0.85875,0 -3.61527,0.95568 -6.12561,2.12385 -2.51034,1.16804 -7.26341,3.37816 -10.56236,4.91147 -3.29894,1.53331 -8.69723,3.54959 -11.99617,4.48085 -3.29895,0.93112 -7.4754,2.31981 -9.28098,3.0859 l -3.28289,1.39282 -3.74239,0 -3.74238,0 -2.18629,1.5313 c -3.26846,2.28938 -9.6594,4.35851 -20.25157,6.55685 l -9.49698,1.97096 -11.99616,0.4995 -11.99619,0.49937 -3.86151,-1.45117 z m 74.70371,-111.26395 8.86195,-3.50201 4.32631,0.64877 4.3263,0.64876 1.60268,-2.44591 1.60265,-2.4459 -0.60207,-2.39895 -0.60209,-2.39883 1.97281,-1.78538 1.97286,-1.78537 2.14642,1.14863 2.14641,1.14877 1.5218,-1.26296 1.52181,-1.26297 -0.5562,-2.781 -0.55623,-2.78111 4.99359,-5.70637 c 6.23818,-7.12873 11.26898,-14.66405 14.74934,-22.09206 l 2.68899,-5.73904 6.5e-4,-8.99714 6.5e-4,-8.99713 -2.65957,-5.6733 -2.65954,-5.67344 -4.09083,-4.43789 -4.09082,-4.43802 -5.82896,-2.61596 -5.82897,-2.61583 -7.67118,-1.14099 -7.67116,-1.14087 -9.73993,1.18194 c -5.35695,0.65001 -10.49032,1.39857 -11.40746,1.66341 l -1.66756,0.48147 -3.46282,-3.04045 -3.46285,-3.04033 -2.08214,0 -2.08214,0 -1.03486,1.93364 c -0.56915,1.06349 -1.03484,3.01253 -1.03484,4.33109 l 0,2.39745 -3.67045,2.41672 c -2.01873,1.3292 -4.55189,3.61521 -5.62922,5.0799 l -1.9588,2.66317 -0.82269,15.83096 -0.82272,15.83097 -0.046,28.54974 -0.046,28.54974 1.24961,1.57563 c 0.68729,0.86665 1.92439,1.77811 2.74913,2.02555 l 1.49951,0.45004 11.49635,-2.42763 11.49635,-2.42762 8.86192,-3.50189 z m 94.10524,108.95729 c -1.64946,-0.21877 -5.3952,-1.07364 -8.32382,-1.89971 l -5.32478,-1.502 -4.21551,-4.21551 -4.21551,-4.21551 -4.39113,-11.47922 -4.39111,-11.47935 -0.41722,-13.45656 -0.4172,-13.45644 1.18733,-7.36014 1.18731,-7.36025 2.40744,-7.07803 c 1.32407,-3.89293 4.02114,-10.01403 5.99348,-13.60219 4.29491,-7.81368 11.13464,-16.90335 17.64817,-23.45369 l 4.76619,-4.79314 8.2857,-3.97584 8.28573,-3.97571 5.09697,-0.60368 5.09696,-0.60369 5.18619,2.8227 5.18618,2.82269 5.30835,5.10043 5.30833,5.10043 2.49296,4.94829 2.49297,4.94842 1.12402,5.29752 1.12402,5.29752 -0.005,12.69674 -0.005,12.69673 -1.04371,3.7582 -1.04369,3.75833 -2.19967,1.42726 -2.19971,1.42737 -6.99776,1.14425 c -7.01608,1.14713 -41.48194,9.70737 -48.9844,12.16606 l -3.99874,1.31054 -1.74243,3.56186 -1.74248,3.56186 1.69506,4.43552 c 0.93227,2.43965 2.74452,6.13887 4.02716,8.22064 l 2.33209,3.78513 3.21355,2.02667 3.21357,2.02667 6.08774,-0.43538 6.08774,-0.43551 6.40827,-2.8262 c 3.52456,-1.55435 11.80402,-6.05422 18.39882,-9.99964 l 11.99054,-7.17343 1.36203,0.52267 1.36204,0.52266 -0.53448,3.29351 c -0.29396,1.81143 -1.44137,5.34374 -2.54978,7.8495 l -2.01532,4.55598 -2.48401,0 -2.484,0 -1.63795,1.63787 -1.6379,1.63799 0.15969,4.1102 c 0.0879,2.26071 0.11797,4.59805 0.067,5.19409 l -0.0926,1.08378 -8.77552,4.17042 -8.77554,4.17031 -6.96945,1.47632 c -6.90255,1.4622 -9.15466,1.58453 -14.9669,0.81369 z m 9.55544,-73.76667 16.43629,-3.69647 4.16316,-1.81268 4.16314,-1.81267 1.08519,-2.02768 1.08516,-2.02767 0,-10.54208 0,-10.54221 -1.61171,-4.02806 -1.61171,-4.02805 -2.36089,-0.59253 -2.3609,-0.59255 -4.51267,2.18459 -4.51269,2.18457 -7.46937,6.97558 c -4.10817,3.83648 -9.00332,9.08479 -10.87811,11.6628 -1.87479,2.57802 -5.31515,8.3634 -7.64522,12.85639 l -4.2365,8.16917 0.70833,1.14614 0.70834,1.146 1.20693,-0.46305 c 0.66383,-0.25483 8.60326,-2.1266 17.64323,-4.15954 z m 316.72298,72.08421 c -1.9892,-0.71086 -5.25468,-2.30466 -7.25658,-3.54207 l -3.64005,-2.24956 -2.50128,-4.26823 c -1.37582,-2.34761 -4.18345,-8.94378 -6.23919,-14.65829 l -3.73781,-10.39006 0.0935,-15.99489 0.0935,-15.99488 2.1661,-7.9975 2.16599,-7.9975 4.05321,-8.49726 4.05331,-8.49725 5.41474,-7.0849 c 2.97804,-3.89671 7.90521,-9.44028 10.9493,-12.3192 l 5.53445,-5.23441 7.52906,-3.4786 7.52927,-3.47872 4.86623,-0.57625 4.86643,-0.57638 4.3317,2.11507 4.3318,2.11495 6.2064,5.55485 6.2065,5.55486 3.2905,6.67857 3.2905,6.67857 0.324,17.5208 0.3239,17.52093 -1.0291,2.69685 -1.0292,2.69684 -2.2939,1.48823 -2.2938,1.48836 -9.0277,1.55572 c -4.9653,0.85563 -17.56123,3.8277 -27.99116,6.60456 l -18.96337,5.04897 -4.49846,2.20611 -4.49865,2.206 0.16803,6.16867 0.16804,6.16868 2.04,4.61169 2.03989,4.6117 3.50804,1.46569 3.50824,1.46582 7.27961,-0.0175 7.27991,-0.0175 8.43099,-3.41899 8.43099,-3.41898 1.8989,1.01627 1.8989,1.01629 1.8263,-1.65277 c 1.0044,-0.90909 2.0755,-2.63186 2.3803,-3.82858 l 0.5542,-2.17569 6.289,-4.24868 6.2894,-4.24857 1.8396,0 1.8395,0 2.8593,-2.03619 c 1.5728,-1.11983 4.941,-2.9568 7.4851,-4.08215 l 4.6258,-2.0462 0.5226,0.52266 0.5225,0.52266 -1.6755,4.38757 -1.6756,4.38742 -3.898,5.15015 c -2.1439,2.83246 -4.7957,6.90985 -5.8931,9.06086 l -1.9952,3.91097 -5.0587,4.42526 -5.0586,4.42512 -9.2217,4.64112 -9.2214,4.64113 -4.75748,1.24818 -4.75735,1.24819 -1.54731,-2.20912 -1.54729,-2.20911 -2.69246,0 -2.69226,0 -3.99887,2.46293 c -2.19937,1.35462 -4.67349,2.45718 -5.49823,2.45017 -0.82483,-0.0125 -3.12707,-0.59429 -5.11607,-1.30504 z M 984.9113,352.8734 c 7.42276,-1.64426 16.312,-3.91598 19.754,-5.04834 l 6.2583,-2.05885 1.1037,-2.06224 1.1037,-2.06236 0.1357,-11.59844 0.1355,-11.59831 -2.0803,-3.49887 -2.0802,-3.49888 -3.5008,0.0989 -3.5009,0.0989 -6.1455,4.17342 -6.14568,4.17344 -2.37498,-0.59617 -2.37519,-0.59604 -1.64416,1.64413 -1.64416,1.64412 0.6125,2.43977 0.6123,2.43977 -3.96382,5.23543 c -2.18017,2.87954 -5.82928,8.66479 -8.10908,12.85614 l -4.14515,7.62072 0,2.2428 0,2.2428 2.24928,-0.6514 c 1.23711,-0.35837 8.3223,-1.99686 15.74494,-3.64099 z m 621.0721,72.33427 -2.2293,-0.43062 -2.0196,-2.567 -2.0191,-2.56712 0,-1.74217 0,-1.74218 -1.4118,-1.17167 -1.4118,-1.17169 -6.0584,2.54997 c -3.3319,1.40246 -9.557,3.70499 -13.8332,5.11683 l -7.7751,2.56687 -9.0771,0.56775 -9.0774,0.56775 -5.3043,-1.76171 -5.3043,-1.76184 -3.8568,-3.48448 -3.8571,-3.4846 -1.5052,-5.06863 -1.5053,-5.06874 0,-4.77149 0,-4.77147 2.4222,-6.67256 2.4219,-6.67269 3.7415,-5.4325 3.7415,-5.4324 5.5828,-4.03043 5.5828,-4.03056 11.9961,-5.8441 11.9961,-5.84411 8.8064,-2.19571 8.8065,-2.19573 2.0994,-1.69998 2.0992,-1.69997 -1.1038,-9.71551 -1.1035,-9.71564 -1.8045,-3.69196 -1.8047,-3.6921 -7.9975,-0.28149 -7.9975,-0.28136 -7.9974,3.88743 -7.9975,3.88755 -7.4977,5.56299 c -4.1235,3.05961 -8.0719,6.16029 -8.774,6.89057 -0.7023,0.73015 -2.3578,2.67718 -3.6793,4.3267 l -2.4028,2.99901 -1.2021,-1.1827 -1.2024,-1.1827 2.6977,-6.81481 c 1.4836,-3.74806 4.1301,-9.22315 5.8811,-12.16693 l 3.1837,-5.35237 5.8719,-4.92487 c 3.2297,-2.70862 7.7431,-6.02129 10.0296,-7.36139 2.2867,-1.33997 6.1672,-3.15152 8.6234,-4.02568 l 4.4658,-1.58915 7.1945,-0.0401 7.1943,-0.0401 5.3472,2.44803 5.3472,2.44817 3.6628,3.21601 3.663,3.21588 2.4248,5.18031 2.4252,5.18019 1.1366,5.40222 1.1367,5.4022 0.9625,14.09155 c 0.5293,7.75032 0.969,18.02782 0.9772,22.83874 l 0.015,8.74732 0.9406,0 c 0.5173,0 1.2186,-0.44991 1.5585,-0.99975 l 0.6178,-0.99963 2.0654,0 2.0652,0 -0.6486,3.24894 c -0.3571,1.78688 -1.9876,6.11108 -3.6241,9.60921 l -2.9748,6.36026 0,1.88704 0,1.88719 1.0548,0 c 0.58,0 3.6166,-1.31381 6.7479,-2.91974 8.3907,-4.30328 14.664,-7.07714 16.0053,-7.07714 l 1.184,0 0,0.92901 c 0,0.51101 -1.8307,3.68482 -4.0677,7.0531 l -4.0677,6.12396 -0.7705,4.87417 -0.7706,4.87403 -1.6197,2.47207 -1.6197,2.47196 -5.2884,3.00188 -5.2883,3.00188 -5.4297,1.59292 c -2.9864,0.87615 -5.6855,1.53168 -5.9982,1.45679 -0.3127,-0.0751 -1.5715,-0.32982 -2.7976,-0.56674 z m -35.7524,-22.75948 7.6798,-1.46932 5.654,-2.57864 c 3.1095,-1.41823 7.3429,-3.74355 9.4072,-5.16754 l 3.753,-2.58891 1.995,-3.22791 1.995,-3.22802 0,-4.17607 0,-4.17605 -2.4537,-2.4538 -2.4538,-2.4538 -1.9228,0 -1.9229,0 -1.5026,-2.24932 -1.5025,-2.24917 -1.9129,1.7185 -1.9131,1.71851 -6.7663,2.0899 -6.7665,2.09004 -3.6856,3.25771 c -2.0271,1.79176 -5.8058,4.75332 -8.3972,6.58114 l -4.7117,3.32358 -2.4361,3.6058 c -1.3398,1.98323 -2.7432,4.64001 -3.1188,5.9041 l -0.6828,2.29814 1.6055,2.4503 1.6056,2.45028 5.3872,0 5.3873,0 7.6797,-1.46945 z m -506.6758,18.06639 -3.6679,-3.66792 -2.4991,-4.93176 -2.4993,-4.93177 0,-2.47344 0,-2.47346 1.2447,-0.76923 1.2446,-0.76922 8.5023,-0.0401 8.5023,-0.0401 0.6019,-19.99363 0.6019,-19.99363 1.2272,-5.2338 1.2273,-5.23378 -0.3296,-12.9329 -0.3297,-12.93289 -2.214,-2.35362 -2.2141,-2.35363 0.578,-2.21024 0.578,-2.21024 -1.6804,-0.64489 -1.6804,-0.64475 -2.1817,1.14814 -2.1818,1.14814 -4.9984,-1.91173 -4.9985,-1.91159 -0.3404,-1.69209 -0.3405,-1.69197 2.2194,-2.36238 2.2192,-2.36226 8.6179,-3.16643 8.6177,-3.16629 5.5609,-0.11771 5.5608,-0.1177 2.77,1.81492 2.77,1.81494 1.416,3.38906 1.4159,3.38906 0,5.03043 0,5.03056 1.2497,-5e-4 1.2497,-6.3e-4 5.7171,-6.39307 5.7171,-6.3932 4.3453,-2.10355 4.3455,-2.10356 4.601,0 c 2.5306,0 5.3471,0.28625 6.2589,0.63612 l 1.6579,0.63623 0.8981,2.36276 0.8986,2.36289 2.8368,0 2.8367,0 2.5625,2.74919 2.5625,2.74906 4.1224,8.53244 4.1225,8.53245 -0.057,1.96418 c -0.032,1.0804 -0.8598,5.04071 -1.8401,8.80092 l -1.7821,6.83671 -4.4082,1.96945 -4.408,1.96945 -2.6561,2.53819 -2.6561,2.53808 -5.9676,-2.6782 -5.9676,-2.67806 -1.0855,-2.38242 -1.0855,-2.38242 0.8283,-0.51202 0.8284,-0.5119 1.788,1.9757 1.7881,1.97584 2.6532,0 2.6528,0 1.6373,-1.24956 1.6374,-1.24969 1.5383,-4.4985 c 0.8461,-2.47421 1.5448,-5.30629 1.5528,-6.29352 l 0.015,-1.79477 -2.4992,-2.49925 c -1.3746,-1.37453 -2.4991,-2.85024 -2.4991,-3.27924 0,-0.429 -1.0412,-1.75808 -2.3137,-2.95355 l -2.3138,-2.17367 -5.4613,0 -5.4613,0 -2.2436,1.57162 -2.244,1.57163 -2.838,5.67606 c -1.5607,3.12184 -3.5631,7.92525 -4.4497,10.67444 -0.8866,2.74906 -2.7615,11.73655 -4.1666,19.97197 l -2.5547,14.97372 -0.1003,7.74756 -0.1001,7.74769 1.713,2.61421 1.7128,2.6142 4.2962,1.90045 4.2962,1.90045 0.5439,2.07952 0.5439,2.07964 2.0502,-1.09742 2.0504,-1.0973 1.9607,1.22453 1.9607,1.22439 2.4839,-1.32933 2.4839,-1.32933 2.8262,0.70549 c 1.5543,0.38793 3.5009,1.28474 4.3257,1.99274 0.8246,0.70812 2.7458,1.58364 4.2691,1.94566 l 2.7696,0.6584 2.0862,-1.11659 2.0862,-1.11644 0.9565,0.95666 0.9566,0.95656 -1.7127,1.71287 -1.7127,1.71275 -2.0266,-0.52992 -2.0265,-0.52993 -2.5731,1.3848 c -3.9097,2.10405 -12.0776,4.51828 -15.2867,4.51828 l -2.8608,0 -4.209,2.17857 -4.2088,2.17844 -10.9965,0.74041 c -6.0479,0.40709 -15.3065,1.06237 -20.5742,1.45605 l -9.5779,0.71563 -3.668,-3.66804 z m 580.0497,0.7567 c -1.4279,-1.572 -3.3397,-3.97058 -4.2487,-5.32996 l -1.653,-2.4717 0,-2.77661 0,-2.77662 1.96,-1.96005 1.9601,-1.95994 5.5363,-1.60944 5.5362,-1.60944 0.5699,-2.27073 0.57,-2.27072 -0.3186,-35.8966 -0.3188,-35.89648 -2.0535,-3.4955 -2.0532,-3.49549 -3.445,-2.32144 -3.4448,-2.32157 0,-1.18082 0,-1.18081 9.497,-3.2234 c 5.2234,-1.77298 10.3966,-3.23503 11.4965,-3.24893 l 1.9993,-0.025 2.5904,3.24894 2.5903,3.24894 1.2793,3.99863 c 0.7035,2.19935 1.6598,4.41122 2.125,4.91535 l 0.8458,0.91661 7.2808,-7.56249 7.2807,-7.56237 4.2488,-1.14025 4.2486,-1.14024 3.7706,1.0154 3.7707,1.01528 4.2418,3.11946 4.2418,3.11946 2.3862,4.15114 c 1.3123,2.28312 2.6824,5.57338 3.0439,7.31168 l 0.6581,3.16054 -1.1271,6.33647 c -0.6198,3.48498 -2.2621,10.09191 -3.6495,14.68208 l -2.5223,8.34573 -5.9127,6.06124 -5.9125,6.06137 -0.6142,-0.61408 -0.614,-0.61407 1.7102,-6.97922 1.7105,-6.97922 -0.5688,-10.24006 -0.5689,-10.24006 -1.009,-1.00902 -1.0092,-1.00913 -5.5511,1.74993 -5.5514,1.74995 -3.0785,4.18495 c -1.6931,2.30178 -3.6998,5.63311 -4.4593,7.40309 l -1.3807,3.21813 -2.4986,16.4627 -2.4987,16.46271 0,6.11056 0,6.11071 1.4625,2.8282 c 0.8046,1.5556 2.0416,3.04458 2.7492,3.30891 0.7077,0.26435 6.6847,0.15903 13.2826,-0.2339 l 11.9963,-0.71438 0.9035,0.80866 0.9036,0.80879 -2.7406,3.5933 c -1.5075,1.97634 -4.1984,4.54872 -5.9799,5.71651 l -3.239,2.12322 -2.1611,3.29689 -2.1612,3.2969 -2.6143,1.713 -2.6146,1.71313 -9.642,0.72338 c -5.3031,0.39795 -13.9158,1.03921 -19.139,1.42488 l -9.4971,0.70148 -2.5956,-2.85814 z m 85.3893,1.01064 c -1.1987,-1.02829 -3.3355,-3.61934 -4.7485,-5.75783 l -2.5691,-3.88831 0,-1.93676 0,-1.93676 2.8009,-2.80079 2.8006,-2.80077 4.1395,-0.69935 4.1395,-0.69936 0.9649,-1.17142 0.965,-1.17155 0.213,-34.98876 0.2132,-34.9889 -0.9984,-4.78449 -0.998,-4.78451 -1.7603,-1.94515 -1.7603,-1.94516 -5.11,-1.90345 -5.1098,-1.9036 -0.2725,-1.36363 -0.2726,-1.36363 12.6748,-2.26184 12.6753,-2.26184 2.5926,1.64901 c 1.4261,0.90697 3.5891,2.82445 4.8064,4.26122 l 2.2136,2.6122 0.6468,3.24893 0.6469,3.24894 1.1383,-0.0125 1.1383,-0.0125 4.6975,-5.89157 4.6977,-5.89144 5.4957,-2.68883 5.4957,-2.68871 3.3023,0.71137 c 1.8164,0.39131 4.6521,1.3833 6.3016,2.20461 3.8488,1.91636 8.3103,6.06437 10.0007,9.29778 l 1.3249,2.53444 -1.4268,12.96057 -1.4269,12.96056 -2.9606,4.49863 c -1.6283,2.47421 -3.7303,5.96056 -4.6712,7.74757 l -1.7101,3.24893 -1.6185,0 -1.6184,0 -0.097,-8.24743 -0.097,-8.24732 -1.6997,-4.2294 -1.6998,-4.22954 -3.2661,-2.01853 -3.2661,-2.01853 -2.5079,0 -2.5081,0 -1.9996,4.74843 c -1.0997,2.6117 -2.7036,6.99776 -3.5643,9.74695 -1.6973,5.42162 -5.1802,26.66819 -6.248,38.11724 l -0.665,7.12723 1.168,3.53944 c 0.6425,1.94666 1.7075,3.9801 2.3666,4.51867 l 1.1985,0.97921 5.4983,-0.98385 c 3.024,-0.5412 8.1974,-1.10518 11.4962,-1.25356 3.299,-0.14827 6.7398,-0.59079 7.6465,-0.98322 l 1.6483,-0.71363 0.7076,1.14512 0.7079,1.14514 -6.5717,6.31794 -6.5717,6.31806 -1.5617,3.90309 -1.5618,3.90307 -3.1998,1.89019 -3.2001,1.89031 -9.5167,0.70611 c -5.2343,0.38844 -13.5655,1.03068 -18.5139,1.42725 l -8.9972,0.72101 -2.1794,-1.86952 z m 113.6439,0.0852 -5.4983,-1.5099 -5.3122,-3.63686 -5.3121,-3.63688 -3.9193,-4.58277 -3.9192,-4.58277 -2.9129,-5.99813 -2.9132,-5.99801 -1.1012,-5.29752 -1.1015,-5.29752 0.02,-9.19786 0.02,-9.19785 0.9722,-6.72127 0.972,-6.72127 2.1467,-6.27461 c 2.8255,-8.25872 7.4085,-17.36303 11.0951,-22.04135 l 2.971,-3.77048 6.27,-4.47408 c 3.4486,-2.46081 8.7282,-5.59955 11.7329,-6.97508 l 5.4629,-2.501 7.4099,-0.60407 7.4099,-0.60393 6.9754,1.64113 6.9755,1.64111 4.1766,2.44754 4.1763,2.44754 3.0909,3.90246 3.0907,3.90245 3.4702,7.35727 c 1.9084,4.04645 4.1862,10.05635 5.0618,13.35525 l 1.5918,5.99813 0.5588,9.49688 0.5586,9.497 -1.6173,8.49725 c -0.8896,4.67357 -2.0787,10.14615 -2.6425,12.1613 l -1.025,3.66404 -3.4753,2.05046 -3.4753,2.05047 0,1.54683 c 0,0.85075 0.5549,2.43527 1.2331,3.52129 l 1.2331,1.97446 -1.9829,3.6961 c -1.0905,2.0328 -4.0794,5.99324 -6.642,8.8009 l -4.6592,5.10482 -5.3376,2.94678 -5.3377,2.94679 -12.496,0.24242 -12.496,0.24243 -5.4981,-1.50989 z m 23.9488,-20.69824 5.5134,-1.24969 3.8251,-3.81093 3.8253,-3.81104 1.943,-4.53307 1.9432,-4.53319 1.1017,-7.10068 1.1018,-7.10056 -0.6649,-14.04584 c -0.3657,-7.72528 -0.6463,-16.13563 -0.6236,-18.68985 l 0.04,-4.64388 -2.7002,-1.76923 c -1.4852,-0.97307 -5.0944,-3.71925 -8.0206,-6.10268 l -5.32,-4.33347 -3.2785,0 -3.2788,0 -5.1323,1.5243 -5.1325,1.52405 -3.22,2.70961 -3.2202,2.70962 -3.8022,5.88268 -3.8022,5.88267 -0.6099,3.62924 c -0.3355,1.99599 -0.8197,4.39644 -1.0758,5.33421 -0.2561,0.93776 -2.2413,3.85363 -4.4113,6.4796 l -3.9454,4.77448 0,1.5457 0,1.54559 1.8449,1.57977 1.8451,1.57976 0.6866,5.84323 0.687,5.84323 4.3215,9.1231 4.3218,9.12297 2.93,2.08641 c 3.4581,2.46231 8.5006,4.03794 13.3243,4.16329 1.9082,0.0501 5.9505,-0.47221 8.9828,-1.15953 z m 89.2349,19.66592 -5.1712,-2.57688 -2.5703,-3.05485 c -1.4138,-1.6802 -3.4078,-4.69597 -4.4311,-6.70186 l -1.8606,-3.64701 -1.0908,-5.90008 -1.0906,-5.90008 -0.07,-26.55788 -0.07,-26.55788 -0.7817,-1.99937 -0.7817,-1.99925 -7.2144,0 -7.2145,0 -3.9298,-4.20999 -3.9297,-4.20988 0,-2.55159 0,-2.55146 -1.1574,-1.85338 -1.1573,-1.85337 0.5449,-1.42011 0.5448,-1.42024 5.8977,-3.09141 5.8976,-3.09141 5.7683,-1.29088 5.7682,-1.29077 1.1928,-2.07751 1.1927,-2.07751 -0.2563,-20.32146 -0.2566,-20.32146 -1.0626,-1.98535 -1.0624,-1.98535 1.1915,-1.43564 1.1914,-1.43563 1.996,0 1.9963,0 5.8498,3.55359 5.8496,3.55347 2.1042,2.95518 2.1044,2.95505 0.5819,15.14239 0.582,15.14226 1.8568,1.85675 1.8567,1.85675 2.734,-0.6569 c 1.5036,-0.36126 4.3083,-1.43614 6.2325,-2.38856 l 3.499,-1.73153 7.8532,-0.72101 7.8534,-0.72088 3.6431,-1.55235 3.6429,-1.55222 5.2376,-0.10268 5.2376,-0.10142 0.4898,1.27723 0.4898,1.27711 -1.7285,1.4091 c -0.951,0.77497 -3.8387,3.12434 -6.4178,5.22075 -2.5788,2.09643 -8.5046,7.22028 -13.1685,11.38632 l -8.4795,7.57464 -8.8245,3.33709 c -4.8533,1.83547 -9.4993,3.95292 -10.324,4.70549 l -1.4995,1.36839 -0.3219,27.70714 -0.3222,27.70715 0.648,5.28087 0.6481,5.28099 2.3197,2.69685 2.3196,2.69698 3.073,-1.47997 3.0724,-1.47985 11.379,-11.13249 c 6.2582,-6.12272 12.354,-11.65428 13.5461,-12.29227 l 2.1673,-1.15991 0.8533,0.52743 0.8535,0.52742 -0.808,4.26723 c -0.4446,2.34698 -1.5266,5.97295 -2.4046,8.05772 l -1.5962,3.7904 -3.1026,2.77222 -3.1026,2.77211 1.157,2.16178 1.1569,2.16179 -1.5696,3.77172 -1.5699,3.77161 -4.2012,4.37291 c -2.3108,2.40508 -6.2014,5.66654 -8.6459,7.24768 l -4.4444,2.87479 -5.6059,0 -5.606,0 -5.1715,-2.57688 z"
       id="path4376"
       inkscape:connector-curvature="0" />
  </g>
</svg>
