<?xml version="1.0" encoding="UTF-8" standalone="no"?>
<!-- Created with Inkscape (http://www.inkscape.org/) -->

<svg
   xmlns:dc="http://purl.org/dc/elements/1.1/"
   xmlns:cc="http://creativecommons.org/ns#"
   xmlns:rdf="http://www.w3.org/1999/02/22-rdf-syntax-ns#"
   xmlns:svg="http://www.w3.org/2000/svg"
   xmlns="http://www.w3.org/2000/svg"
   xmlns:xlink="http://www.w3.org/1999/xlink"
   xmlns:sodipodi="http://sodipodi.sourceforge.net/DTD/sodipodi-0.dtd"
   xmlns:inkscape="http://www.inkscape.org/namespaces/inkscape"
   id="svg2"
   version="1.1"
   inkscape:version="0.91 r"
   width="2481"
   height="663"
   sodipodi:docname="Pepper-and-Carrot_by-David-Revoy_E02P00.svg">
  <metadata
     id="metadata8">
    <rdf:RDF>
      <cc:Work
         rdf:about="">
        <dc:format>image/svg+xml</dc:format>
        <dc:type
           rdf:resource="http://purl.org/dc/dcmitype/StillImage" />
        <dc:title />
      </cc:Work>
    </rdf:RDF>
  </metadata>
  <defs
     id="defs6" />
  <sodipodi:namedview
     pagecolor="#ffffff"
     bordercolor="#666666"
     borderopacity="1"
     objecttolerance="10"
     gridtolerance="10"
     guidetolerance="10"
     inkscape:pageopacity="0"
     inkscape:pageshadow="2"
     inkscape:window-width="1920"
     inkscape:window-height="1027"
     id="namedview4"
     showgrid="false"
     inkscape:zoom="0.59975816"
     inkscape:cx="1240.5"
     inkscape:cy="331.5"
     inkscape:window-x="-8"
     inkscape:window-y="-8"
     inkscape:window-maximized="1"
     inkscape:current-layer="layer1" />
  <g
     inkscape:groupmode="layer"
     id="layer2"
     inkscape:label="artwork"
     sodipodi:insensitive="true">
    <image
       sodipodi:absref="/home/deevad/peppercarrot/webcomics/New/lang/ro/../gfx_Pepper-and-Carrot_by-David-Revoy_E02P00.png"
       xlink:href="../gfx_Pepper-and-Carrot_by-David-Revoy_E02P00.png"
       width="2481"
       height="663"
       id="image10"
       x="-1.6728083e-06"
       y="0" />
  </g>
  <g
     inkscape:groupmode="layer"
     id="layer1"
     inkscape:label="text"
     style="opacity:1">
    <flowRoot
       xml:space="preserve"
       id="flowRoot3063"
       style="font-style:normal;font-variant:normal;font-weight:normal;font-stretch:normal;font-size:72px;line-height:125%;font-family:Arial;-inkscape-font-specification:Arial;letter-spacing:0px;word-spacing:0px;display:inline;fill:#562f13;fill-opacity:1;stroke:none"
       transform="matrix(0.77923967,0,0,0.77489763,116.55168,204.03718)"><flowRegion
         id="flowRegion3065"><rect
           id="rect3067"
           width="2715.5891"
           height="110.01318"
           x="92.642677"
           y="425.30325"
           style="font-size:72px;fill:#562f13;fill-opacity:1" /></flowRegion><flowPara
         id="flowPara3069"
         style="font-style:normal;font-variant:normal;font-weight:normal;font-stretch:normal;font-size:88px;font-family:Fondamento;-inkscape-font-specification:Fondamento;text-align:center;text-anchor:middle;fill:#562f13;fill-opacity:1">Episodul 2 : Poţiuni Curcubeu</flowPara></flowRoot>    <path
       style="display:inline;fill:#562f13;fill-opacity:1;stroke:none"
       d="m 715.91348,507.54878 c -1.96988,-1.72958 -4.23282,-4.40402 -5.02878,-5.94323 l -1.44717,-2.79855 0,-4.09022 0,-4.09021 2.4516,-2.45161 2.45161,-2.45162 1.79332,-0.0318 c 0.98632,-0.0175 2.65988,-0.68736 3.71905,-1.48865 l 1.92574,-1.4569 0.74805,-5.25329 0.74804,-5.25323 0.0729,-22.78856 0.0729,-22.78843 -1.03393,-1.93194 -1.03395,-1.93194 -1.78117,0 c -0.97966,0 -4.16391,-0.70762 -7.07613,-1.57238 l -5.29492,-1.5725 -2.37739,-2.37733 -2.37741,-2.37745 0,-1.5436 0,-1.5436 5.74314,-0.0413 5.74313,-0.0413 4.49462,-2.20605 4.49462,-2.20618 0.28538,-34.95821 0.28539,-34.95808 -1.18555,-4.32091 -1.18558,-4.3209 -2.09622,-1.35969 -2.09625,-1.35957 -8.73954,-0.69936 -8.73955,-0.69936 0,-1.1963 0,-1.19629 4.41752,-4.4808 4.41751,-4.48079 12.64142,-5.714 12.64141,-5.714 1.92375,0.61066 c 1.05807,0.33579 3.26972,1.74315 4.9148,3.12736 l 2.99101,2.5167 0,1.33817 c 0,0.7359 0.70631,2.04429 1.56956,2.90755 l 1.56955,1.56962 10.30437,0 10.30439,0 8.65895,2.50919 c 4.76244,1.38009 10.82667,3.60778 13.4761,4.95033 2.6494,1.34255 8.38724,5.13124 12.75078,8.41924 l 7.93365,5.97811 2.74181,3.95646 2.74183,3.95646 1.42969,4.75053 1.42968,4.75053 0,6.7439 0,6.7439 -1.86931,6.00613 -1.86931,6.00613 -3.69484,6.60703 -3.69485,6.60691 -6.00716,6.42174 -6.00719,6.42162 -6.65686,4.90579 c -3.66126,2.69824 -8.90416,6.01814 -11.65086,7.37758 -2.74673,1.35944 -10.16286,4.18303 -16.4803,6.27474 -6.31744,2.0917 -12.49754,4.1699 -13.73356,4.61816 l -2.24732,0.81522 0,21.54109 0,21.5411 2.411,2.41098 2.411,2.41099 2.83272,0.6004 c 1.55802,0.33016 3.58793,1.00688 4.51096,1.50381 l 1.67823,0.90337 4.35526,-0.0874 c 2.39541,-0.0479 6.64986,0.22817 9.45435,0.61389 l 5.09907,0.70129 3.1733,-1.64098 3.17332,-1.64104 2.94113,0.64607 c 1.61764,0.35531 4.9558,0.64594 7.41814,0.64594 2.46236,0 4.477,0.21023 4.477,0.46716 0,0.25691 -1.62305,1.14529 -3.60679,1.97415 -3.63928,1.52057 -11.46581,6.43274 -16.72458,10.49682 l -2.85229,2.20429 -6.49884,1.80206 -6.49883,1.80208 -4.63216,2.9451 -4.63213,2.94512 -7.49105,2.11621 c -4.12006,1.16393 -9.77785,2.7746 -12.57283,3.57928 l -5.08182,1.46298 -4.12238,0 -4.12239,0 -3.58158,-3.14469 z m 44.11186,-107.17113 8.84108,-4.44238 8.05134,-6.46366 8.05132,-6.46365 4.8231,-5.82385 4.82309,-5.82397 2.85596,-5.99274 2.85596,-5.99287 7.7e-4,-4.29451 8.1e-4,-4.2945 -1.46233,-2.82785 c -0.8043,-1.55536 -2.85675,-4.00113 -4.56106,-5.43526 l -3.0987,-2.6074 -5.67671,-1.70487 -5.67671,-1.70474 -8.48983,-0.0263 -8.48984,-0.0263 -5.51872,1.24734 -5.51872,1.24747 -3.22083,1.95871 -3.22081,1.95872 0,29.92918 0,29.92918 1.74789,1.01815 c 0.96135,0.55986 2.26404,1.03165 2.89488,1.04841 0.63084,0.0163 5.12547,-1.96872 9.98806,-4.41211 z m 73.26399,108.73809 c -1.37336,-0.88792 -3.72409,-3.2044 -5.22386,-5.14771 l -2.72685,-3.53332 -0.61448,-3.2755 -0.6145,-3.27552 1.34373,-2.83166 1.34373,-2.83168 4.41339,-2.11789 4.41339,-2.11792 1.32974,-1.81851 1.32972,-1.81852 0,-27.65196 0,-27.65194 -5.24371,-0.58577 c -2.88405,-0.32228 -7.00466,-0.94132 -9.15692,-1.37583 l -3.91319,-0.78994 -0.3155,-0.99524 c -0.17351,-0.54736 0.0345,-1.54698 0.46252,-2.22145 l 0.77802,-1.22607 7.72095,-1.47729 c 4.24653,-0.81246 8.15901,-1.74803 8.6944,-2.07894 l 0.97343,-0.60153 0,-40.44226 0,-40.44225 -1.45742,-2.81834 -1.45744,-2.81847 -8.28092,-1.17615 c -4.55449,-0.64682 -9.74166,-1.39923 -11.52703,-1.67184 l -3.2461,-0.49581 0,-0.77943 c 0,-0.42862 1.01128,-1.70036 2.2473,-2.82597 2.44574,-2.22733 15.0501,-10.28738 16.08745,-10.28738 0.35189,0 4.64345,-1.8027 9.53678,-4.006 l 8.89699,-4.00613 2.83851,1.07919 c 1.56116,0.59352 3.62591,1.79182 4.58828,2.66271 l 1.74968,1.58351 0,2.72513 0,2.72501 2.24732,0.60228 c 1.23609,0.33129 6.75099,0.60841 12.25552,0.61591 l 10.00808,0.0138 7.16624,1.98587 c 3.9414,1.0922 9.72257,3.11647 12.8469,4.49818 l 5.68091,2.51232 6.60958,4.91818 c 3.63536,2.70499 8.27288,6.63618 10.30587,8.73602 l 3.69616,3.81784 2.21635,4.99399 2.2162,4.994 0.44698,7.54347 0.44697,7.54335 -2.92356,8.48155 -2.92341,8.48167 -3.84534,5.79306 c -2.11486,3.18629 -6.09828,8.25835 -8.85199,11.27136 l -5.00667,5.47805 -3.18527,-0.59753 -3.18515,-0.59752 -1.04135,1.26786 c -0.57278,0.69724 -1.19689,2.38721 -1.38699,3.75529 l -0.34536,2.48767 -4.91467,3.21119 -4.91478,3.21106 -12.39559,4.53909 -12.39563,4.53897 -2.16639,0.015 c -1.19144,0.0125 -2.84049,0.44126 -3.6645,0.96184 l -1.49822,0.94658 0,21.42974 0,21.42975 2.38103,2.53547 2.38091,2.53547 5.18678,1.07669 5.18676,1.07682 9.9114,-0.0288 c 5.45121,-0.0163 12.52195,-0.0801 15.7129,-0.14287 l 5.80158,-0.11385 0.68235,0.68231 0.68234,0.68232 -1.98935,1.16683 c -1.09404,0.64177 -4.84898,2.40851 -8.34422,3.92607 l -6.35488,2.75925 -2.96071,2.49125 c -1.62828,1.37013 -3.53707,2.49119 -4.24155,2.49119 l -1.28092,0 -4.3856,3.85286 c -2.412,2.11904 -6.31033,4.83239 -8.66284,6.02965 l -4.27735,2.17681 -9.70588,2.63841 -9.70597,2.63842 -4.99399,0.33952 -4.99409,0.33951 -2.497,-1.6144 z m 40.73068,-107.75298 7.21441,-3.4574 7.24018,-5.37482 7.24004,-5.3747 6.99155,-7.41174 6.99169,-7.41161 2.79898,-5.77367 2.79897,-5.7738 0.50589,-4.70049 0.50588,-4.70049 -1.80653,-3.47029 -1.8068,-3.47041 -3.99517,-2.7788 -3.99519,-2.77881 -7.49107,-1.58476 -7.4911,-1.58489 -6.49214,0.57926 c -3.57078,0.31865 -9.18901,1.26723 -12.48508,2.10822 l -5.99278,1.52884 -2.29068,2.58588 -2.29067,2.58577 0.29301,28.20817 0.2931,28.20818 1.37078,1.64995 1.37076,1.64981 1.65387,0 c 0.90952,0 4.90019,-1.55586 8.8681,-3.4574 z m 344.30869,77.44063 c -2.7468,-0.97911 -7.2818,-2.93995 -10.0781,-4.35756 l -5.0838,-2.57751 -3.1501,-3.58764 c -1.7327,-1.97335 -4.1494,-5.48555 -5.3709,-7.80495 l -2.2205,-4.21719 -0.033,-7.49093 -0.033,-7.49105 3.1533,-6.65583 3.1532,-6.65569 7.7506,-8.11223 7.7503,-8.11234 -2.8058,-5.87051 -2.8058,-5.87039 0.5993,-2.99599 0.5993,-2.996 -1.4297,-1.18641 -1.4295,-1.18642 1.5504,-2.99787 1.5501,-2.99787 -2.2166,-2.35944 -2.2165,-2.35944 0.6334,-4.62079 0.6333,-4.62079 1.9894,-4.49744 1.9893,-4.49731 4.2476,-5.07344 4.2477,-5.07331 4.3848,-2.78068 4.3847,-2.78081 5.4093,-1.21056 5.4094,-1.21056 5.2002,1.64281 5.2001,1.64282 5.702,3.57112 5.7019,3.57112 3.6384,5.98962 3.6386,5.98961 0.511,3.81034 0.5111,3.81021 -2.2049,6.98636 -2.2051,6.98648 -3.8373,4.88653 c -2.1106,2.68748 -5.4874,7.35856 -7.5042,10.37983 -2.0167,3.02139 -5.0123,6.68798 -6.6571,8.14788 l -2.9905,2.65432 0.8505,1.45064 c 0.4678,0.79795 4.943,5.79557 9.945,11.10585 l 9.0947,9.65507 1.1928,-1.43726 1.1928,-1.43726 0.2001,-2.83423 0.2,-2.83423 -3.7406,-0.30964 -3.7404,-0.30977 -2.502,-3.28037 -2.5021,-3.28037 0,-2.0817 0,-2.0817 1.4308,-1.43087 1.4308,-1.43075 8.3076,-2.58276 c 4.5691,-1.4205 10.5547,-3.09333 13.3015,-3.71738 l 4.994,-1.13474 11.9857,-0.3941 c 6.5921,-0.21681 14.3453,-0.66133 17.2294,-0.98786 l 5.2436,-0.59365 -5e-4,1.32041 -5e-4,1.3204 -7.1032,6.49218 c -3.9068,3.57075 -8.5136,7.89566 -10.2372,9.61079 l -3.134,3.11872 -4.872,0.70725 c -2.6797,0.38896 -5.4888,0.94382 -6.2425,1.23308 l -1.3706,0.52596 0,4.84974 0,4.84962 -2.131,5.69573 -2.131,5.69561 2.8697,2.08257 c 1.5784,1.14538 4.6724,3.46979 6.8755,5.16514 l 4.0054,3.0827 -0.1854,1.41199 c -0.1013,0.77655 -0.8069,3.09395 -1.5666,5.14975 l -1.3811,3.73777 -2.3529,2.50469 -2.3531,2.50482 -3.072,0 -3.0721,0 -3.2702,-1.99387 c -1.7987,-1.09609 -3.8731,-1.99337 -4.6097,-1.99337 -0.7368,0 -2.4822,-0.89891 -3.879,-1.99762 -1.3967,-1.09871 -3.1429,-1.98612 -3.8802,-1.97198 -0.7374,0.0138 -3.8128,1.60366 -6.8342,3.53259 l -5.4933,3.50707 -9.449,2.95959 -9.4489,2.95959 -5.0338,-0.0731 -5.0336,-0.0731 -4.9942,-1.77998 z m 24.2357,-24.17102 4.3911,-2.12574 0.489,-1.27449 0.4891,-1.27436 -10.3079,-10.07769 -10.3079,-10.0777 -1.2059,0 -1.206,0 -2.7891,3.6766 c -1.5343,2.02214 -4.2501,5.02639 -6.0356,6.67609 l -3.2461,2.99937 0,1.35081 0,1.35068 4.245,4.33116 c 2.3347,2.38209 5.1438,4.8241 6.2426,5.42662 l 1.9975,1.09571 6.4266,0.03 6.4265,0.03 4.3911,-2.12561 z m -5.3431,-61.38583 7.7113,-6.57963 1.9261,-3.15877 1.926,-3.15876 0,-3.1694 0,-3.16952 -2.4767,-2.94345 -2.4769,-2.94357 -2.9998,-1.24259 -3,-1.24259 -3.4523,0.64757 -3.4523,0.64769 -2.7086,3.21218 c -1.4898,1.76667 -3.3145,4.65845 -4.0554,6.42613 l -1.3475,3.21406 0,3.86851 0,3.86863 1.4147,4.69974 c 1.4047,4.66796 3.1606,7.6034 4.5482,7.6034 0.3981,0 4.1942,-2.96084 8.4354,-6.57963 z m 177.1537,58.5217 c -3.1417,-0.40298 -8.8975,-1.75692 -12.7905,-3.00864 l -7.0782,-2.27599 -5.9308,-3.6024 c -3.262,-1.98123 -8.2294,-5.4001 -11.0387,-7.59752 l -5.1075,-3.99525 -5.7755,-6.79644 -5.7753,-6.79645 -3.0216,-5.6886 c -1.6618,-3.12874 -3.9402,-8.61003 -5.0631,-12.18078 -1.1228,-3.57075 -2.9952,-11.65144 -4.161,-17.95708 l -2.1197,-11.46478 0.4439,-4.51608 c 0.6413,-6.52433 3.4641,-21.01426 6.2461,-32.0613 2.7695,-10.99825 8.6933,-28.45026 11.6579,-34.3453 4.4165,-8.78205 15.5276,-26.41898 22.3476,-35.47265 3.9565,-5.25222 10.2761,-12.70199 14.0434,-16.55511 3.7673,-3.853 9.9942,-9.38296 13.8377,-12.28863 l 6.9882,-5.28312 8.282,-4.10396 8.2822,-4.10397 10.6986,-0.0676 10.6987,-0.0676 9.4887,3.82885 c 5.2187,2.10597 10.3876,3.90379 11.4863,3.99525 l 1.9975,0.16639 0.4995,-5.53859 0.4993,-5.53872 1.8532,-2.8266 1.8528,-2.82672 5.4952,0.64581 5.4952,0.64594 5.3982,2.55374 5.3982,2.55373 3.4842,3.286 3.4842,3.286 0,5.001 c 0,2.75053 -0.2811,6.40623 -0.6246,8.12373 l -0.6245,3.12286 -3.9396,4.47579 -3.9399,4.47566 0.6282,1.01614 0.6279,1.01614 1.828,0 1.8279,0 2.307,1.86801 2.3069,1.86814 -1.186,13.86312 c -1.3652,15.95559 -2.3896,23.57801 -4.5236,33.65607 -0.8356,3.94608 -1.9546,9.42199 -2.4867,12.16877 -0.5322,2.74666 -1.7073,8.29814 -2.6116,12.33642 l -1.6438,7.34242 -2.4794,4.89291 -2.4795,4.89303 -0.8655,0 -0.8655,0 -0.6023,-2.24734 c -0.3312,-1.23608 -0.6084,-4.62142 -0.6157,-7.52308 l -0.014,-5.27587 -1.3498,-3.23007 -1.3496,-3.23021 -0.7365,-12.92843 -0.7364,-12.92844 -4.2799,-12.52495 -4.2798,-12.52496 -4.301,-8.38696 -4.3013,-8.38696 -3.5886,-3.77243 -3.5885,-3.77243 -2.7675,-0.6946 -2.7671,-0.69449 -4.3746,1.67072 c -2.4061,0.9188 -7.2183,3.54735 -10.6939,5.84111 l -6.3191,4.17052 -9.309,9.43588 -9.3089,9.43588 -7.3582,11.06068 -7.3583,11.0608 -6.9816,14.48267 c -7.4977,15.55323 -12.52,28.41135 -16.6108,42.52783 l -2.5649,8.85074 -0.6185,7.52095 -0.6185,7.52096 -2.3379,2.81309 -2.338,2.81308 1.4698,2.84211 c 0.8084,1.56325 2.7502,3.89303 4.3154,5.17741 l 2.8455,2.33517 2.6755,4.68572 2.6754,4.68572 4.7366,4.85025 4.7364,4.85024 4.8396,2.33517 4.8393,2.33504 11.1416,-0.52333 11.1414,-0.52346 9.6722,-3.13324 c 5.3196,-1.72326 12.2563,-4.27612 15.4152,-5.67309 l 5.7429,-2.53972 1.7748,0.46403 1.7746,0.46403 2.8686,-2.74127 2.8685,-2.74128 7.043,-2.69135 7.0433,-2.69135 1.8615,-2.0568 c 1.0238,-1.13124 3.0352,-2.66383 4.4697,-3.40561 l 2.6083,-1.34893 1.185,-2.79382 1.1848,-2.79382 5.6534,-3.43413 c 3.1094,-1.88877 7.3417,-4.95958 9.4056,-6.82422 l 3.7525,-3.39009 3.964,-6.27674 3.9641,-6.27674 1.494,-0.57325 1.4938,-0.57313 1.2223,1.47279 1.2224,1.47291 -1.1139,2.21332 c -0.6127,1.21731 -2.2178,6.79206 -3.5672,12.38833 l -2.4531,10.17516 -4.8208,8.8022 -4.8208,8.80207 -6.6757,6.68072 -6.6757,6.6806 -2.8657,1.48179 -2.8656,1.4818 -1.9254,-0.17203 -1.9257,-0.1719 -2.7788,5.49331 -2.7785,5.49355 -10.7274,6.6836 -10.7272,6.68372 -8.9893,2.98524 -8.9893,2.98511 -7.813,1.06831 c -8.5564,1.1699 -13.202,1.18554 -21.8705,0.0738 z m -942.01654,-17.3737 -3.85813,-1.4499 -2.97528,-2.82572 -2.97529,-2.82572 -1.96128,-3.81371 -1.96129,-3.81384 -0.56075,-4.73464 -0.56075,-4.73464 2.38247,-2.76968 2.38246,-2.76979 6.25869,-0.73802 6.25868,-0.7379 1.70022,-1.70024 1.70018,-1.70024 0.51229,-9.20993 0.51231,-9.20993 2.9964,-0.51032 2.99643,-0.51032 0.31,-2.67947 0.31001,-2.67947 -2.80701,-1.78731 c -1.54386,-0.98311 -3.13724,-2.24722 -3.54085,-2.80934 l -0.73379,-1.02189 -0.0154,-28.7469 -0.0153,-28.74702 1.2485,-0.38459 c 0.68668,-0.21156 2.43496,-0.64306 3.88506,-0.95884 l 2.63655,-0.57425 0.63432,-1.65295 0.63433,-1.65307 -1.27327,-1.70474 c -0.7003,-0.93757 -2.78625,-3.68085 -4.63547,-6.09633 l -3.36219,-4.3916 0.80742,-15.98085 c 0.44408,-8.78957 0.83342,-20.32778 0.86518,-25.64068 l 0.0577,-9.6597 -2.41182,-2.56537 -2.41181,-2.5655 -5.57863,-2.08007 -5.5786,-2.08007 -2.16659,-2.02364 -2.1666,-2.02352 -2.12703,-4.94445 -2.12704,-4.94445 -0.16362,-5.90342 -0.16364,-5.90354 2.33927,-2.49005 2.33927,-2.49005 8.61021,-3.14726 8.61022,-3.14738 15.48148,-2.88865 15.48148,-2.88865 17.97848,0.0213 17.97849,0.0213 9.60449,0.93469 9.60445,0.93469 8.20767,2.99537 c 4.51421,1.64757 10.98666,4.54961 14.38322,6.44902 3.39656,1.89941 8.21089,5.24509 10.69854,7.43488 l 4.52295,3.98123 6.33626,8.83511 6.33623,8.8351 4.7867,9.98799 4.78671,9.98811 1.6776,6.49218 1.67761,6.49218 0.0896,7.49105 0.0897,7.49106 -1.29375,5.49343 -1.29372,5.49343 -3.90475,7.99049 -3.90477,7.99037 -5.73883,6.66808 c -3.15635,3.66746 -7.98615,8.6637 -10.73287,11.10259 -2.7467,2.43901 -8.51441,6.95959 -12.81708,10.04566 l -7.82307,5.61116 -12.15303,5.88002 c -15.32133,7.41286 -33.20007,14.57074 -41.61778,16.66182 -3.57072,0.88703 -8.15748,2.04016 -10.1928,2.56262 l -3.70057,0.94971 -1.54315,1.54322 -1.54315,1.5431 0,12.95859 0,12.95846 2.291,2.291 2.29103,2.29101 4.07149,0.65107 4.07149,0.65107 1.25082,1.50719 1.25084,1.5072 5.1214,0.0138 5.12144,0.015 4.31128,1.50156 4.31126,1.50157 0.92513,-0.57175 c 0.87121,-0.53835 21.89657,-1.65645 28.40691,-1.51045 1.64803,0.0363 4.56954,0.0738 6.49223,0.0813 1.92271,0.0125 4.10827,0.23371 4.85681,0.50207 l 1.36101,0.4878 -1.23358,1.4863 -1.23361,1.48642 -1.55995,0 c -0.858,0 -3.61211,0.95484 -6.12025,2.12199 -2.50813,1.16702 -7.25704,3.37532 -10.5531,4.90716 -3.29604,1.53197 -8.6896,3.54648 -11.98564,4.47692 -3.29606,0.93044 -7.46885,2.31778 -9.27284,3.0832 l -3.28002,1.39159 -3.7391,0 -3.73911,0 -2.18437,1.53009 c -3.26558,2.28725 -9.65092,4.35468 -20.23381,6.55098 l -9.48865,1.96935 -11.98565,0.49893 -11.98566,0.49894 -3.85813,-1.44989 z m 74.63818,-111.16638 8.85418,-3.49881 4.32251,0.64819 4.32252,0.64819 1.60126,-2.44389 1.60127,-2.44376 -0.60156,-2.39685 -0.60156,-2.39672 1.9711,-1.78381 1.97111,-1.78381 2.14454,1.14776 2.14454,1.14762 1.52045,-1.26185 1.52047,-1.26185 -0.55571,-2.77856 -0.55572,-2.77855 4.9892,-5.70149 c 6.23272,-7.12248 11.25911,-14.6512 14.73639,-22.07256 l 2.68665,-5.73414 6.5e-4,-8.98924 6.4e-4,-8.98924 -2.65722,-5.66834 -2.65723,-5.66833 -4.08724,-4.43413 -4.08722,-4.43413 -5.82385,-2.61366 -5.82387,-2.61354 -7.66444,-1.13999 -7.66443,-1.13988 -9.73139,1.18091 c -5.35227,0.64945 -10.48112,1.39735 -11.39747,1.66196 l -1.66608,0.48117 -3.4598,-3.03779 -3.45982,-3.03778 -2.08031,0 -2.08032,0 -1.03394,1.93194 c -0.56866,1.06256 -1.03394,3.00989 -1.03394,4.32729 l 0,2.39534 -3.66722,2.41462 c -2.01698,1.32803 -4.5479,3.61203 -5.6243,5.07544 l -1.95708,2.66082 -0.82197,15.81709 -0.822,15.81709 -0.0459,28.5247 -0.0459,28.52483 1.24852,1.57413 c 0.68668,0.86588 1.9227,1.77655 2.74672,2.0239 l 1.49819,0.44951 11.48627,-2.42537 11.48626,-2.4255 8.85416,-3.49893 z m 94.02273,108.86186 c -1.64802,-0.21869 -5.39047,-1.07281 -8.31653,-1.89816 l -5.32011,-1.50056 -4.21181,-4.21181 -4.21181,-4.21181 -4.38728,-11.46929 -4.38726,-11.46928 -0.41685,-13.44464 -0.41684,-13.44476 1.18629,-7.35368 1.18628,-7.35381 2.40531,-7.07181 c 1.32292,-3.88953 4.01763,-10.00513 5.98824,-13.59027 4.29113,-7.8067 11.12487,-16.88852 17.63268,-23.43312 l 4.76201,-4.78894 8.27845,-3.97235 8.27846,-3.97223 5.0925,-0.60315 5.09248,-0.60315 5.18165,2.82022 5.18163,2.82021 5.30369,5.09596 5.30369,5.09608 2.49077,4.94395 2.49078,4.94395 1.12303,5.29289 1.12304,5.29288 -0.005,12.68559 -0.005,12.6856 -1.04282,3.75504 -1.04277,3.75491 -2.19775,1.42612 -2.19776,1.426 -6.99164,1.14325 c -7.00992,1.14612 -41.44555,9.69886 -48.94144,12.15551 l -3.99522,1.30927 -1.74092,3.55873 -1.74095,3.55874 1.69358,4.43175 c 0.93146,2.43739 2.74211,6.1335 4.02363,8.21344 l 2.33004,3.78168 3.21073,2.0249 3.21075,2.02502 6.0824,-0.43513 6.08242,-0.435 6.40264,-2.82372 c 3.52146,-1.55311 11.79366,-6.04905 18.38268,-9.991 l 11.98003,-7.16714 1.36084,0.52221 1.36084,0.5222 -0.53401,3.29063 c -0.29369,1.80996 -1.4401,5.33905 -2.54755,7.84274 l -2.01354,4.55186 -2.48184,0 -2.48182,0 -1.6365,1.63655 -1.63647,1.63643 0.15954,4.1066 c 0.0878,2.25872 0.11786,4.59402 0.0669,5.18954 l -0.0926,1.08294 -8.76784,4.16665 -8.76784,4.16677 -6.96333,1.47491 c -6.89648,1.46091 -9.14664,1.58326 -14.95378,0.81309 z m 9.54705,-73.7021 16.42189,-3.69323 4.15951,-1.81096 4.15948,-1.81109 1.08424,-2.02589 1.08421,-2.0259 0,-10.53297 0,-10.53284 -1.6103,-4.02464 -1.61029,-4.02452 -2.35883,-0.59202 -2.35882,-0.59202 -4.50872,2.18266 -4.50872,2.18266 -7.46283,6.96947 c -4.10457,3.83323 -8.99542,9.07682 -10.86857,11.65257 -1.87315,2.57588 -5.31049,8.35619 -7.63851,12.84524 l -4.23278,8.16189 0.70771,1.14513 0.70771,1.14512 1.20588,-0.46278 c 0.66323,-0.25447 8.59572,-2.1246 17.62774,-4.15588 z m 316.44529,72.021 c -1.98749,-0.71012 -5.25009,-2.30263 -7.25022,-3.53884 l -3.6368,-2.24772 -2.49919,-4.26448 c -1.37458,-2.34555 -4.17978,-8.93594 -6.2337,-14.64544 l -3.73452,-10.38095 0.0938,-15.98086 0.0926,-15.98085 2.16415,-7.99049 2.16414,-7.99037 4.04954,-8.48993 4.04979,-8.4898 5.40999,-7.07869 c 2.97548,-3.89328 7.89841,-9.432 10.93969,-12.30839 l 5.52959,-5.2297 7.52258,-3.47567 7.52258,-3.47554 4.86201,-0.57588 4.86196,-0.57588 4.3281,2.11323 4.3279,2.11322 6.2011,5.54985 6.2009,5.54998 3.2877,6.67272 3.2875,6.67271 0.3238,17.50556 0.3237,17.50544 -1.0282,2.69449 -1.0282,2.69448 -2.2919,1.48692 -2.2919,1.48706 -9.0198,1.55435 c -4.9611,0.85488 -17.54597,3.82435 -27.96671,6.5989 l -18.94658,5.04442 -4.49455,2.20417 -4.49481,2.20418 0.16802,6.16314 0.16777,6.16327 2.03829,4.60766 2.03815,4.60765 3.50495,1.46441 3.50506,1.46453 7.27324,-0.0175 7.27361,-0.0175 8.4235,-3.41599 8.42366,-3.41599 1.8973,1.01539 1.8971,1.01539 1.8249,-1.65132 c 1.0035,-0.90829 2.0735,-2.62955 2.3782,-3.8251 l 0.5536,-2.1739 6.2836,-4.24484 6.2838,-4.24496 1.8378,0 1.838,0 2.8569,-2.03428 c 1.5712,-1.11898 4.9367,-2.95433 7.4785,-4.07869 l 4.6216,-2.04442 0.5222,0.52221 0.5222,0.52221 -1.6742,4.38371 -1.6741,4.38358 -3.8946,5.14563 c -2.142,2.82997 -4.7915,6.90391 -5.888,9.05304 l -1.9934,3.90755 -5.0543,4.42124 -5.054,4.42124 -9.2136,4.63718 -9.21342,4.63706 -4.75329,1.24697 -4.75328,1.24709 -1.54585,-2.20718 -1.54585,-2.20718 -2.69011,0 -2.6901,0 -3.99525,2.46065 c -2.19742,1.35343 -4.66946,2.45502 -5.4933,2.44814 -0.8241,-0.0125 -3.12436,-0.59377 -5.11172,-1.30402 z m 16.09833,-71.59425 c 7.41624,-1.64269 16.29776,-3.91243 19.73676,-5.04379 l 6.2528,-2.05705 1.1028,-2.06055 1.1027,-2.06056 0.1355,-11.58813 0.1354,-11.58827 -2.0784,-3.4958 -2.0785,-3.49581 -3.4977,0.0988 -3.4978,0.0988 -6.14003,4.16965 -6.14037,4.16977 -2.37283,-0.59565 -2.3732,-0.59552 -1.64256,1.64269 -1.64281,1.64269 0.61203,2.43763 0.61179,2.43776 -3.96047,5.23082 c -2.17828,2.8769 -5.82422,8.65708 -8.10196,12.84474 l -4.14162,7.61416 0,2.24084 0,2.24083 2.24734,-0.65094 c 1.23608,-0.35806 8.31502,-1.995 15.73113,-3.63781 z m 620.52746,72.27097 -2.2272,-0.43025 -2.0177,-2.56487 -2.0174,-2.56487 0,-1.74065 0,-1.74052 -1.4106,-1.17065 -1.4106,-1.17077 -6.0531,2.54773 c -3.329,1.40122 -9.5486,3.70174 -13.8211,5.11235 l -7.7682,2.56461 -9.0693,0.56738 -9.0694,0.56724 -5.2995,-1.76029 -5.2996,-1.76029 -3.8537,-3.48142 -3.8535,-3.48142 -1.504,-5.06431 -1.5038,-5.06418 0,-4.76729 0,-4.76742 2.4199,-6.66671 2.4198,-6.66671 3.7384,-5.42774 3.7381,-5.42775 5.5778,-4.0269 5.578,-4.0269 11.9855,-5.83898 11.9857,-5.83899 8.7986,-2.19391 8.7988,-2.1938 2.0976,-1.69848 2.0972,-1.69837 -1.1026,-9.70711 -1.1026,-9.70712 -1.8031,-3.68873 -1.8029,-3.68885 -7.9905,-0.28112 -7.9905,-0.28125 -7.9904,3.88415 -7.9904,3.88415 -7.4911,5.55799 c -4.1201,3.05692 -8.0649,6.15501 -8.7665,6.88452 -0.7015,0.72964 -2.3556,2.67497 -3.676,4.32291 l -2.4007,2.99649 -1.2012,-1.18178 -1.2012,-1.18166 2.6954,-6.80871 c 1.4821,-3.7449 4.1265,-9.21518 5.876,-12.15638 l 3.1808,-5.34768 5.8669,-4.92055 c 3.2267,-2.70625 7.7361,-6.01589 10.0207,-7.35481 2.2845,-1.33892 6.1618,-3.14888 8.6158,-4.02215 l 4.4619,-1.58789 7.1882,-0.04 7.188,-0.04 5.3426,2.44589 5.3425,2.44589 3.6596,3.21319 3.6596,3.21319 2.4228,5.17565 2.4229,5.17565 1.1357,5.39747 1.1357,5.39748 0.9617,14.07919 c 0.5288,7.74365 0.9682,18.012 0.9763,22.81884 l 0.015,8.73952 0.9399,0 c 0.5168,0 1.2175,-0.44952 1.5571,-0.99888 l 0.6171,-0.99875 2.0636,0 2.0636,0 -0.6482,3.24609 c -0.3566,1.78544 -1.9858,6.10572 -3.6208,9.60078 l -2.9723,6.35468 0,1.88553 0,1.8854 1.054,0 c 0.5795,0 3.6134,-1.31265 6.7419,-2.91706 8.3834,-4.29963 14.6512,-7.07093 15.9912,-7.07093 l 1.183,0 0,0.92818 c 0,0.51045 -1.8289,3.6816 -4.0641,7.04679 l -4.0642,6.11873 -0.7698,4.86976 -0.7698,4.86989 -1.6184,2.46978 -1.6183,2.46979 -5.2836,2.99925 -5.2837,2.99925 -5.425,1.59151 c -2.9837,0.87539 -5.6806,1.53047 -5.993,1.45565 -0.3124,-0.0751 -1.57,-0.32966 -2.7951,-0.56637 z m -35.7208,-22.73952 7.673,-1.46816 5.6491,-2.57637 c 3.1067,-1.41699 7.3363,-3.74028 9.3987,-5.1629 l 3.7499,-2.58663 1.9933,-3.2252 1.9932,-3.2252 0,-4.1724 0,-4.1724 -2.4516,-2.45164 -2.4517,-2.45165 -1.9211,0 -1.9211,0 -1.5013,-2.24721 -1.5013,-2.24734 -1.9111,1.717 -1.9114,1.717 -6.7605,2.0882 -6.7606,2.08808 -3.6823,3.25485 c -2.0253,1.79019 -5.8006,4.74915 -8.3897,6.5755 l -4.7075,3.32053 -2.434,3.60265 c -1.3387,1.98148 -2.7409,4.63606 -3.1161,5.89891 l -0.6823,2.29626 1.6041,2.44802 1.6041,2.44814 5.3826,0 5.3826,0 7.673,-1.46804 z m -506.2316,18.05054 -3.6646,-3.66483 -2.4971,-4.92743 -2.4969,-4.92744 0,-2.47128 0,-2.47129 1.2436,-0.76855 1.2434,-0.76855 8.495,-0.04 8.4946,-0.04 0.6014,-19.9761 0.6013,-19.9761 1.2262,-5.22932 1.2262,-5.2292 -0.3291,-12.92156 -0.3296,-12.92155 -2.2119,-2.35156 -2.2122,-2.35156 0.5775,-2.2083 0.5775,-2.20831 -1.679,-0.64431 -1.6788,-0.64419 -2.1799,1.14713 -2.1798,1.14713 -4.9941,-1.90993 -4.994,-1.91004 -0.3403,-1.69061 -0.3401,-1.69047 2.2175,-2.36032 2.2173,-2.36019 8.6103,-3.16364 8.61,-3.16352 5.5561,-0.1176 5.556,-0.11761 2.7674,1.81334 2.7677,1.81346 1.4147,3.38596 1.4148,3.38609 0,5.02615 0,5.02602 1.2484,-5e-4 1.2488,-5e-4 5.7121,-6.38759 5.7119,-6.38759 4.3416,-2.10171 4.3417,-2.10171 4.5969,0 c 2.5283,0 5.3423,0.286 6.2535,0.63555 l 1.6564,0.63568 0.8974,2.36082 0.8977,2.36081 2.8343,0 2.8343,0 2.5601,2.74666 2.5602,2.74665 4.119,8.52496 4.1188,8.52496 -0.059,1.96259 c -0.031,1.07932 -0.8588,5.03628 -1.8383,8.79307 l -1.7806,6.83072 -4.4043,1.96772 -4.4042,1.96772 -2.6537,2.53597 -2.6537,2.53585 -5.9625,-2.67572 -5.9625,-2.67584 -1.0845,-2.38033 -1.0845,-2.38034 0.8276,-0.51144 0.8276,-0.51158 1.7866,1.97411 1.7865,1.97397 2.6507,0 2.6507,0 1.6358,-1.24846 1.636,-1.24847 1.5369,-4.49468 c 0.8453,-2.47204 1.5434,-5.30164 1.5514,-6.28788 l 0.015,-1.79332 -2.4969,-2.49706 c -1.3735,-1.37332 -2.4971,-2.84761 -2.4971,-3.27624 0,-0.42862 -1.0403,-1.75666 -2.3115,-2.95108 l -2.3118,-2.17177 -5.4566,0 -5.4566,0 -2.2417,1.57024 -2.2418,1.57025 -2.8355,5.67109 c -1.5593,3.1191 -3.5601,7.91843 -4.4457,10.66508 -0.8859,2.74678 -2.7592,11.72626 -4.1631,19.95458 l -2.5524,14.96046 -0.1001,7.7409 -0.1001,7.74077 1.7116,2.61191 1.7112,2.61191 4.2924,1.89879 4.2925,1.89879 0.5435,2.07769 0.5432,2.07782 2.0486,-1.09634 2.0486,-1.09646 1.959,1.22345 1.959,1.22344 2.4816,-1.32816 2.4817,-1.32816 2.8237,0.70474 c 1.553,0.38771 3.4978,1.28362 4.3219,1.99112 0.824,0.70737 2.7434,1.58213 4.2655,1.94395 l 2.7672,0.6577 2.0843,-1.11548 2.0843,-1.1156 0.9557,0.95584 0.9559,0.95583 -1.7113,1.71125 -1.7112,1.71137 -2.0248,-0.52946 -2.0248,-0.52946 -2.5707,1.38346 c -3.9063,2.10221 -12.0672,4.51432 -15.2734,4.51432 l -2.8582,0 -4.2053,2.17666 -4.2051,2.17665 -10.987,0.73965 c -6.0426,0.40685 -15.2931,1.06143 -20.5562,1.45477 l -9.5695,0.715 -3.6648,-3.66471 z m 579.5411,0.75592 c -1.4267,-1.57063 -3.3368,-3.9671 -4.2451,-5.32529 l -1.6515,-2.46953 0,-2.77418 0,-2.77418 1.9584,-1.95834 1.9582,-1.95821 5.5314,-1.60803 5.5314,-1.60803 0.5694,-2.26874 0.5696,-2.26873 -0.3184,-35.865 -0.3184,-35.86513 -2.0517,-3.49243 -2.0515,-3.49243 -3.4419,-2.3194 -3.4418,-2.31941 0,-1.17978 0,-1.17978 9.4887,-3.22069 c 5.2187,-1.77143 10.3876,-3.23221 11.4863,-3.24609 l 1.9976,-0.025 2.5881,3.24609 2.5882,3.24609 1.2781,3.99525 c 0.7029,2.1973 1.6582,4.40723 2.1231,4.91092 l 0.8451,0.9158 7.2744,-7.55586 7.2744,-7.55573 4.2449,-1.13925 4.245,-1.13912 3.7673,1.01439 3.7674,1.01451 4.2381,3.1166 4.2379,3.11673 2.3842,4.1475 c 1.3112,2.28112 2.6799,5.5685 3.0412,7.30527 l 0.6576,3.15788 -1.1261,6.33079 c -0.6194,3.48192 -2.2601,10.08307 -3.6463,14.66921 l -2.5201,8.33842 -5.9076,6.05605 -5.9073,6.05592 -0.6137,-0.61354 -0.6135,-0.61353 1.7089,-6.9731 1.7089,-6.97298 -0.5684,-10.23107 -0.5682,-10.23108 -1.0082,-1.00826 -1.0082,-1.00813 -5.5464,1.74828 -5.5465,1.74841 -3.0758,4.18128 c -1.6917,2.29976 -3.6966,5.6283 -4.4554,7.39672 l -1.3796,3.21531 -2.4964,16.44814 -2.4964,16.44827 0,6.10534 0,6.10521 1.4611,2.82585 c 0.8039,1.55411 2.0399,3.04179 2.7469,3.30589 0.707,0.26411 6.6789,0.15902 13.271,-0.23358 l 11.9856,-0.71387 0.9029,0.80796 0.9027,0.80808 -2.7383,3.59014 c -1.5062,1.9746 -4.1945,4.54472 -5.9744,5.71149 l -3.2362,2.12136 -2.1593,3.29401 -2.1593,3.294 -2.6121,1.71163 -2.6122,1.71149 -9.6335,0.72289 c -5.2984,0.39747 -13.9036,1.03815 -19.1223,1.42362 l -9.4886,0.70086 -2.5934,-2.85575 z m 85.3143,1.00975 c -1.1975,-1.02727 -3.3325,-3.61603 -4.7442,-5.75278 l -2.5669,-3.8849 0,-1.93506 0,-1.93507 2.7983,-2.79833 2.7983,-2.79832 4.1359,-0.69874 4.1358,-0.69873 0.9641,-1.1704 0.9642,-1.1704 0.2128,-34.95821 0.2129,-34.9582 -0.9974,-4.78031 -0.9972,-4.78031 -1.7587,-1.94345 -1.7588,-1.94332 -5.1054,-1.90192 -5.1054,-1.90179 -0.2723,-1.36256 -0.2725,-1.36245 12.6638,-2.25985 12.6641,-2.25985 2.5904,1.64757 c 1.4249,0.90616 3.5859,2.82197 4.8022,4.25747 l 2.2117,2.60991 0.6462,3.24609 0.6463,3.24621 1.1375,-0.0125 1.1372,-0.0125 4.6934,-5.88627 4.6936,-5.88628 5.4908,-2.68647 5.4909,-2.68648 3.2994,0.71075 c 1.8148,0.39097 4.6479,1.38221 6.296,2.2028 3.8455,1.91468 8.3031,6.05893 9.992,9.2895 l 1.3238,2.53234 -1.4256,12.94921 -1.4258,12.9492 -2.958,4.49456 c -1.6268,2.47204 -3.727,5.95546 -4.6669,7.74077 l -1.7088,3.24609 -1.617,0 -1.617,0 -0.096,-8.24008 -0.098,-8.24021 -1.6982,-4.2257 -1.6982,-4.22582 -3.2633,-2.01677 -3.2633,-2.01676 -2.5058,0 -2.5057,0 -1.9979,4.74428 c -1.0988,2.6094 -2.7014,6.99174 -3.5612,9.73839 -1.6959,5.41686 -5.1756,26.64481 -6.2426,38.08394 l -0.6644,7.12086 1.1671,3.53634 c 0.6419,1.94495 1.706,3.9766 2.3645,4.5147 l 1.1975,0.97836 5.4933,-0.98299 c 3.0214,-0.5406 8.1904,-1.10422 11.4863,-1.25234 3.296,-0.14826 6.7339,-0.59027 7.6396,-0.98249 l 1.6469,-0.71287 0.7071,1.144 0.7072,1.14412 -6.566,6.31253 -6.5658,6.31239 -1.5604,3.89967 -1.5604,3.89978 -3.197,1.88853 -3.1972,1.88853 -9.5086,0.70561 c -5.2295,0.38809 -13.5534,1.02978 -18.4976,1.42588 l -8.9893,0.72038 -2.1774,-1.86789 z m 113.5444,0.0851 -5.4936,-1.50857 -5.3075,-3.63368 -5.3075,-3.63368 -3.9158,-4.57875 -3.9158,-4.57876 -2.9104,-5.99274 -2.9105,-5.99287 -1.1004,-5.29288 -1.1004,-5.29288 0.02,-9.18979 0.02,-9.18979 0.9713,-6.71538 0.9711,-6.71525 2.1449,-6.2691 c 2.823,-8.2516 7.4019,-17.34793 11.0852,-22.02202 l 2.9686,-3.76717 6.2645,-4.47029 c 3.4455,-2.45852 8.7205,-5.59464 11.7225,-6.96897 l 5.4581,-2.49881 7.4034,-0.6034 7.4035,-0.60353 6.9692,1.63968 6.9695,1.63969 4.1727,2.44539 4.1728,2.44551 3.0881,3.89904 3.0879,3.89891 3.4672,7.35081 c 1.9068,4.04291 4.1827,10.04753 5.0575,13.34354 l 1.5903,5.99287 0.5584,9.48868 0.5581,9.48855 -1.6158,8.48993 c -0.8889,4.66933 -2.0769,10.13711 -2.6403,12.1505 l -1.024,3.66083 -3.4724,2.04867 -3.4722,2.04866 0,1.54548 c 0,0.84999 0.5545,2.43313 1.2321,3.5182 l 1.2319,1.97273 -1.9811,3.69285 c -1.0896,2.03116 -4.0758,5.98799 -6.6362,8.7932 l -4.655,5.10046 -5.3331,2.9442 -5.3329,2.9442 -12.485,0.24209 -12.4851,0.24221 -5.4934,-1.50857 z m 23.9278,-20.68009 5.5084,-1.2486 3.8219,-3.80758 3.8219,-3.8077 1.9412,-4.52909 1.9416,-4.52921 1.1006,-7.09433 1.1008,-7.09446 -0.6642,-14.03353 c -0.3653,-7.71837 -0.6457,-16.12148 -0.623,-18.67333 l 0.04,-4.63994 -2.6978,-1.76767 c -1.484,-0.97222 -5.09,-3.716 -8.0135,-6.09733 l -5.3154,-4.32954 -3.2757,0 -3.2758,0 -5.1279,1.52283 -5.128,1.52283 -3.2172,2.70712 -3.2174,2.70725 -3.7988,5.87751 -3.7989,5.87752 -0.6094,3.62605 c -0.3353,1.99424 -0.8189,4.39259 -1.0749,5.32953 -0.2558,0.93695 -2.2392,3.85025 -4.4074,6.47392 l -3.9419,4.77042 0,1.54423 0,1.54422 1.8432,1.57838 1.8436,1.57838 0.686,5.83811 0.6862,5.83811 4.3179,9.1151 4.3178,9.11497 2.9276,2.08458 c 3.455,2.46015 8.493,4.0344 13.3126,4.15964 1.9065,0.05 5.9454,-0.47179 8.9749,-1.15839 z m 89.1566,19.64869 -5.1666,-2.57463 -2.5683,-3.05217 c -1.4125,-1.67859 -3.4046,-4.69186 -4.4271,-6.69598 l -1.8589,-3.64382 -1.0899,-5.8949 -1.0896,-5.89479 -0.07,-26.53458 -0.07,-26.53459 -0.781,-1.99763 -0.7812,-1.99762 -7.2081,0 -7.208,0 -3.9264,-4.2063 -3.9263,-4.20618 0,-2.54923 0,-2.54923 -1.1563,-1.85175 -1.1564,-1.85187 0.5444,-1.41886 0.5445,-1.41887 5.8925,-3.0887 5.8923,-3.08883 5.7631,-1.28963 5.7633,-1.28975 1.1917,-2.07569 1.1918,-2.07569 -0.2562,-20.30364 -0.2564,-20.30364 -1.0615,-1.98361 -1.0616,-1.98361 1.1904,-1.43438 1.1905,-1.43438 1.9943,0 1.9945,0 5.8445,3.55048 5.8447,3.55048 2.1023,2.95246 2.1024,2.95258 0.5814,15.12899 0.5816,15.12911 1.8552,1.855 1.855,1.85512 2.7316,-0.65632 c 1.5023,-0.36094 4.3045,-1.43488 6.2272,-2.38634 l 3.4958,-1.73014 7.8464,-0.72038 7.8465,-0.72025 3.6399,-1.55086 3.6397,-1.55098 5.2329,-0.10134 5.233,-0.10259 0.4894,1.27612 0.4894,1.27599 -1.7271,1.40785 c -0.95,0.77431 -3.8352,3.12161 -6.412,5.21619 -2.5765,2.09458 -8.4972,7.21394 -13.157,11.37633 l -8.472,7.56799 -8.8167,3.33417 c -4.8492,1.83386 -9.491,3.94958 -10.3151,4.70149 l -1.498,1.36707 -0.3218,27.68284 -0.3218,27.68285 0.6473,5.27624 0.6475,5.27636 2.3176,2.69461 2.3178,2.69448 3.0701,-1.47867 3.0699,-1.47854 11.3688,-11.1226 c 6.2527,-6.11748 12.3432,-11.64419 13.5344,-12.28162 l 2.1654,-1.15889 0.8524,0.52696 0.8528,0.52696 -0.8073,4.2636 c -0.4443,2.34493 -1.5252,5.96772 -2.4024,8.05055 l -1.5948,3.78719 -3.0999,2.76967 -3.0999,2.76967 1.1559,2.15989 1.156,2.16002 -1.5683,3.76829 -1.5684,3.7683 -4.1977,4.36907 c -2.3087,2.4031 -6.1958,5.6617 -8.6382,7.24146 l -4.4405,2.87214 -5.6011,0 -5.601,0 -5.1668,-2.57463 z"
       id="path4376"
       inkscape:connector-curvature="0" />
  </g>
</svg>
