<?xml version="1.0" encoding="UTF-8" standalone="no"?>
<!-- Created with Inkscape (http://www.inkscape.org/) -->

<svg
   xmlns:dc="http://purl.org/dc/elements/1.1/"
   xmlns:cc="http://creativecommons.org/ns#"
   xmlns:rdf="http://www.w3.org/1999/02/22-rdf-syntax-ns#"
   xmlns:svg="http://www.w3.org/2000/svg"
   xmlns="http://www.w3.org/2000/svg"
   xmlns:xlink="http://www.w3.org/1999/xlink"
   xmlns:sodipodi="http://sodipodi.sourceforge.net/DTD/sodipodi-0.dtd"
   xmlns:inkscape="http://www.inkscape.org/namespaces/inkscape"
   id="svg2"
   version="1.1"
   inkscape:version="0.92.1 renderfarm"
   width="2481"
   height="663"
   sodipodi:docname="Pepper-and-Carrot_by-David-Revoy_E02P00_092.svg">
  <sodipodi:namedview pagecolor="#ffffff" bordercolor="#666666" inkscape:pageopacity="0" inkscape:pageshadow="2" inkscape:window-width="1813" inkscape:window-height="955" id="namedview70" showgrid="false" inkscape:zoom="0.4" inkscape:cx="1284.4231" inkscape:cy="2618.6204" inkscape:current-layer="layer1" /><metadata
     id="metadata8">
    <rdf:RDF>
      <cc:Work
         rdf:about="">
        <dc:format>image/svg+xml</dc:format>
        <dc:type
           rdf:resource="http://purl.org/dc/dcmitype/StillImage" />
        <dc:title />
      </cc:Work>
    </rdf:RDF>
  </metadata>
  <defs
     id="defs6" />
  <sodipodi:namedview
     pagecolor="#ffffff"
     bordercolor="#666666"
     borderopacity="1"
     objecttolerance="10"
     gridtolerance="10"
     guidetolerance="10"
     inkscape:pageopacity="0"
     inkscape:pageshadow="2"
     inkscape:window-width="1354"
     inkscape:window-height="672"
     id="namedview4"
     showgrid="false"
     inkscape:zoom="0.59209996"
     inkscape:cx="1240.5"
     inkscape:cy="317.98877"
     inkscape:window-x="0"
     inkscape:window-y="63"
     inkscape:window-maximized="0"
     inkscape:current-layer="layer1" />
  <g
     inkscape:groupmode="layer"
     id="layer2"
     inkscape:label="artwork"
     sodipodi:insensitive="true">
    <image
       sodipodi:absref="/home/deevad/peppercarrot/webcomics/ep02_Rainbow-potions/lang/es/../gfx_Pepper-and-Carrot_by-David-Revoy_E02P00.png"
       xlink:href="../gfx_Pepper-and-Carrot_by-David-Revoy_E02P00.png"
       width="2481"
       height="663"
       id="image10"
       x="-1.6728083e-06"
       y="0" />
  </g>
  <g
     inkscape:groupmode="layer"
     id="layer1"
     inkscape:label="text">
    <flowRoot
       xml:space="preserve"
       id="flowRoot3063"
       style="font-style:normal;font-variant:normal;font-weight:normal;font-stretch:normal;line-height:0.01%;font-family:Arial;-inkscape-font-specification:Arial;letter-spacing:0px;word-spacing:0px;display:inline;fill:#562f13;fill-opacity:1;stroke:none"
       transform="matrix(0.77923967,0,0,0.77489763,86.270267,206.5157)"><flowRegion
         id="flowRegion3065"><rect
           id="rect3067"
           width="2715.5891"
           height="110.01318"
           x="92.642677"
           y="425.30325"
           style="font-size:72px;fill:#562f13;fill-opacity:1" /></flowRegion><flowPara
         id="flowPara3069"
         style="font-style:normal;font-variant:normal;font-weight:normal;font-stretch:normal;font-size:88px;line-height:1.25;font-family:Lavi;-inkscape-font-specification:Lavi;text-align:center;text-anchor:middle;fill:#562f13;fill-opacity:1">Episodio 2 : Las pociones arco iris</flowPara></flowRoot>    <path
       style="display:inline;fill:#562f13;fill-opacity:1;stroke:none"
       d="m 717.51444,507.6092 c -1.97072,-1.73031 -4.23461,-4.40588 -5.03091,-5.94574 l -1.44779,-2.79973 0,-4.09194 0,-4.09194 2.45264,-2.45264 2.45266,-2.45265 1.79407,-0.0318 c 0.98673,-0.0175 2.661,-0.68766 3.72061,-1.48928 l 1.92656,-1.45752 0.74837,-5.25551 0.74836,-5.25543 0.073,-22.79817 0.073,-22.79804 -1.03438,-1.93276 -1.03439,-1.93275 -1.78191,0 c -0.98008,0 -4.16567,-0.70792 -7.07911,-1.57304 l -5.29715,-1.57316 -2.3784,-2.37833 -2.37841,-2.37846 0,-1.54425 0,-1.54425 5.74556,-0.0413 5.74555,-0.0413 4.49652,-2.20699 4.49651,-2.20711 0.2855,-34.97294 0.2855,-34.97282 -1.18605,-4.32273 -1.18606,-4.32272 -2.09712,-1.36027 -2.09713,-1.36013 -8.74322,-0.69966 -8.74323,-0.69966 0,-1.1968 0,-1.1968 4.41938,-4.48268 4.41938,-4.48269 12.64673,-5.7164 12.64676,-5.71641 1.92455,0.61092 c 1.05852,0.33593 3.27109,1.74388 4.91686,3.12867 l 2.99228,2.51777 0,1.33873 c 0,0.73621 0.7066,2.04515 1.57022,2.90877 l 1.57021,1.57029 10.30872,0 10.30872,0 8.66261,2.51025 c 4.76445,1.38066 10.83124,3.6093 13.48178,4.95242 2.65053,1.34311 8.39078,5.1334 12.75615,8.42279 l 7.937,5.98062 2.74298,3.95813 2.74298,3.95813 1.43028,4.75253 1.43029,4.75254 0,6.74674 0,6.74674 -1.8701,6.00866 -1.87009,6.00866 -3.6964,6.60982 -3.69642,6.60969 -6.0097,6.42445 -6.00971,6.42433 -6.65965,4.90786 c -3.66281,2.69937 -8.90792,6.02067 -11.65579,7.38068 -2.74789,1.36002 -10.16713,4.1848 -16.48723,6.27739 -6.3201,2.09259 -12.50282,4.17165 -13.73936,4.62011 l -2.24826,0.81556 0,21.55017 0,21.55018 2.41201,2.412 2.41202,2.412 2.83392,0.60065 c 1.55866,0.33031 3.58944,1.00731 4.51286,1.50445 l 1.67892,0.90375 4.35711,-0.0875 c 2.39641,-0.0479 6.65266,0.22827 9.45832,0.61416 l 5.10124,0.70158 3.17464,-1.64167 3.17464,-1.64173 2.94238,0.64634 c 1.61833,0.35546 4.95789,0.64621 7.42127,0.64621 2.46339,0 4.47888,0.21032 4.47888,0.46735 0,0.25702 -1.62374,1.14578 -3.60831,1.97499 -3.64081,1.52121 -11.47064,6.43545 -16.73164,10.50124 l -2.85349,2.20522 -6.50157,1.80283 -6.50157,1.80283 -4.63411,2.94635 -4.6341,2.94635 -7.49419,2.11711 c -4.1218,1.16442 -9.78199,2.77577 -12.57815,3.58079 l -5.08395,1.4636 -4.12413,0 -4.12411,0 -3.5831,-3.14602 z m 44.13046,-107.21631 8.84479,-4.44426 8.05473,-6.46638 8.05473,-6.46637 4.82513,-5.8263 4.82512,-5.82643 2.85717,-5.99527 2.85715,-5.99539 7.9e-4,-4.29632 8e-4,-4.29632 -1.46294,-2.82904 c -0.80463,-1.55602 -2.85796,-4.00281 -4.56298,-5.43755 l -3.10002,-2.6085 -5.67909,-1.70559 -5.6791,-1.70546 -8.49343,-0.0263 -8.49342,-0.0263 -5.52104,1.24786 -5.52104,1.248 -3.22218,1.95953 -3.22219,1.95954 0,29.9418 0,29.9418 1.74864,1.01857 c 0.96176,0.5601 2.265,1.03209 2.89611,1.04886 0.6311,0.0163 5.12762,-1.96955 9.99227,-4.41397 z m 73.29487,108.78393 c -1.37395,-0.8883 -3.72567,-3.20575 -5.22606,-5.14988 l -2.728,-3.53481 -0.61475,-3.27688 -0.61476,-3.2769 1.34431,-2.83286 1.34429,-2.83287 4.41525,-2.11878 4.41526,-2.11881 1.33029,-1.81928 1.33029,-1.81928 0,-27.66363 0,-27.6636 -5.24593,-0.586 c -2.88526,-0.32242 -7.00762,-0.94173 -9.16079,-1.37641 l -3.91482,-0.79028 -0.31564,-0.99566 c -0.1736,-0.54759 0.0345,-1.54763 0.46272,-2.22238 l 0.77833,-1.22659 7.72421,-1.47792 c 4.24833,-0.8128 8.16246,-1.74876 8.69806,-2.07982 l 0.97386,-0.60178 0,-40.4593 0,-40.45931 -1.45804,-2.81952 -1.45805,-2.81966 -8.28441,-1.17665 c -4.55642,-0.64709 -9.74577,-1.39981 -11.53189,-1.67254 l -3.24748,-0.49602 0,-0.77976 c 0,-0.4288 1.0117,-1.70108 2.24824,-2.82716 2.44679,-2.22826 15.05645,-10.29171 16.09425,-10.29171 0.35203,0 4.6454,-1.80346 9.5408,-4.0077 l 8.90074,-4.00781 2.83971,1.07964 c 1.56181,0.59377 3.62744,1.79258 4.59021,2.66383 l 1.7504,1.58418 0,2.72628 0,2.72616 2.24828,0.60253 c 1.2366,0.33143 6.75384,0.60866 12.26069,0.61617 l 10.0123,0.0138 7.16925,1.9867 c 3.94306,1.09267 9.72667,3.11779 12.85233,4.50008 l 5.6833,2.51338 6.61236,4.92026 c 3.63689,2.70613 8.27637,6.63897 10.31022,8.7397 l 3.69772,3.81945 2.21727,4.99609 2.21715,4.9961 0.44715,7.54666 0.44717,7.54653 -2.92479,8.48512 -2.92465,8.48524 -3.84695,5.79551 c -2.11577,3.18763 -6.10085,8.26183 -8.85572,11.27612 l -5.0088,5.48035 -3.18661,-0.59778 -3.18648,-0.59777 -1.0418,1.26839 c -0.57301,0.69753 -1.19738,2.38822 -1.38757,3.75687 l -0.34551,2.48872 -4.91673,3.21254 -4.91685,3.21242 -12.40081,4.541 -12.40087,4.54089 -2.1673,0.015 c -1.19194,0.0125 -2.84168,0.44145 -3.66605,0.96225 l -1.49884,0.94697 0,21.43878 0,21.43879 2.38202,2.53653 2.38193,2.53654 5.18895,1.07714 5.18896,1.07728 9.91557,-0.0288 c 5.45352,-0.0163 12.52724,-0.0801 15.71954,-0.14294 l 5.804,-0.11389 0.68264,0.68259 0.68263,0.68261 -1.99018,1.16733 c -1.09451,0.64204 -4.85103,2.40952 -8.34774,3.92772 l -6.35756,2.76042 -2.96195,2.49229 c -1.62898,1.37072 -3.53856,2.49224 -4.24334,2.49224 l -1.28146,0 -4.38745,3.85449 c -2.41301,2.11993 -6.31299,4.83442 -8.6665,6.03219 l -4.27916,2.17773 -9.70997,2.63952 -9.71005,2.63954 -4.99611,0.33966 -4.99617,0.33965 -2.49806,-1.61508 z m 40.74784,-107.7984 7.21745,-3.45886 7.24324,-5.37709 7.24309,-5.37697 6.99451,-7.41486 6.99463,-7.41473 2.80016,-5.77611 2.80015,-5.77623 0.50609,-4.70247 0.5061,-4.70247 -1.80729,-3.47175 -1.80756,-3.47187 -3.99687,-2.77998 -3.99685,-2.77998 -7.49425,-1.58543 -7.49425,-1.58555 -6.49488,0.5795 c -3.57229,0.31879 -9.19288,1.26776 -12.49034,2.10911 l -5.99531,1.52948 -2.29163,2.58697 -2.29165,2.58686 0.29313,28.22007 0.29324,28.22006 1.37136,1.65064 1.37134,1.65052 1.65457,0 c 0.9099,0 4.90225,-1.55652 8.87182,-3.45886 z m 344.45389,77.47327 c -2.7481,-0.97952 -7.285,-2.94119 -10.0824,-4.3594 l -5.0859,-2.57859 -3.1515,-3.58915 c -1.7334,-1.97419 -4.1511,-5.48786 -5.3731,-7.80825 l -2.2215,-4.21896 -0.033,-7.49409 -0.033,-7.49421 3.1546,-6.65863 3.1546,-6.6585 7.7537,-8.11564 7.7537,-8.11577 -2.8069,-5.87299 -2.807,-5.87286 0.5995,-2.99726 0.5994,-2.99726 -1.4301,-1.18691 -1.4301,-1.18691 1.551,-2.99914 1.5508,-2.99913 -2.2175,-2.36044 -2.2175,-2.36043 0.6336,-4.62274 0.6336,-4.62274 1.9901,-4.49933 1.9903,-4.49921 4.2494,-5.07558 4.2495,-5.07545 4.3866,-2.78185 4.3865,-2.78198 5.4117,-1.21107 5.4116,-1.21107 5.2024,1.6435 5.2023,1.64351 5.7044,3.57263 5.7042,3.57263 3.6401,5.99214 3.6401,5.99214 0.5112,3.81194 0.5113,3.81181 -2.2058,6.98931 -2.206,6.98943 -3.839,4.88859 c -2.1116,2.6886 -5.4897,7.36166 -7.5073,10.3842 -2.0175,3.02267 -5.0145,6.6908 -6.6599,8.15132 l -2.9918,2.65544 0.8509,1.45125 c 0.468,0.79829 4.945,5.79802 9.9491,11.11052 l 9.0984,9.65915 1.1935,-1.43787 1.1933,-1.43786 0.2001,-2.83542 0.2001,-2.83543 -3.7421,-0.30978 -3.7419,-0.3099 -2.5032,-3.28175 -2.5031,-3.28175 0,-2.08258 0,-2.08257 1.4314,-1.43148 1.4315,-1.43135 8.311,-2.58385 c 4.571,-1.42109 10.5592,-3.09464 13.3071,-3.71895 l 4.9961,-1.13522 11.9907,-0.39426 c 6.5949,-0.21691 14.3514,-0.66161 17.2368,-0.98828 l 5.2458,-0.59389 -5e-4,1.32096 -5e-4,1.32096 -7.1062,6.49492 c -3.9085,3.57225 -8.5172,7.89898 -10.2415,9.61483 l -3.1354,3.12004 -4.874,0.70755 c -2.6809,0.38912 -5.4911,0.94422 -6.2451,1.23359 l -1.3713,0.52619 0,4.85178 0,4.85166 -2.1319,5.69814 -2.1319,5.69801 2.871,2.08345 c 1.5791,1.14586 4.6743,3.47125 6.8784,5.16732 l 4.0071,3.08399 -0.1855,1.41259 c -0.1014,0.77688 -0.8074,3.09526 -1.5673,5.15192 l -1.3816,3.73935 -2.354,2.50574 -2.354,2.50588 -3.0734,0 -3.0733,0 -3.2717,-1.99471 c -1.7994,-1.09655 -3.8746,-1.99421 -4.6117,-1.99421 -0.7369,0 -2.4831,-0.89929 -3.8805,-1.99847 -1.3973,-1.09917 -3.1442,-1.98695 -3.8819,-1.9728 -0.7376,0.0138 -3.8143,1.60432 -6.837,3.53408 l -5.4956,3.50854 -9.453,2.96084 -9.4529,2.96084 -5.0359,-0.0731 -5.0358,-0.0731 -4.9962,-1.78074 z m 24.2459,-24.18121 4.3929,-2.12663 0.4893,-1.27503 0.4892,-1.2749 -10.3122,-10.08194 -10.3122,-10.08194 -1.2065,0 -1.2064,0 -2.7904,3.67814 c -1.5348,2.023 -4.2519,5.02852 -6.0381,6.67891 l -3.2474,3.00063 0,1.35138 0,1.35125 4.2467,4.33299 c 2.3357,2.38309 5.146,4.82613 6.2453,5.42891 l 1.9983,1.09617 6.4293,0.03 6.4292,0.03 4.393,-2.12651 z m -5.3453,-61.41171 7.7145,-6.5824 1.9268,-3.1601 1.9269,-3.16009 0,-3.17074 0,-3.17085 -2.4777,-2.9447 -2.478,-2.94481 -3.0011,-1.24311 -3.0013,-1.24311 -3.4537,0.64784 -3.4537,0.64796 -2.7098,3.21354 c -1.4904,1.76742 -3.3159,4.66041 -4.0571,6.42883 l -1.348,3.21542 0,3.87014 0,3.87026 1.4152,4.70172 c 1.4052,4.66993 3.162,7.60661 4.5501,7.60661 0.3983,0 4.196,-2.96209 8.439,-6.58241 z m 177.2283,58.54637 c -3.143,-0.40315 -8.9012,-1.75765 -12.7959,-3.0099 l -7.0812,-2.27695 -5.9333,-3.60392 c -3.2633,-1.98207 -8.2329,-5.40238 -11.0433,-7.60073 l -5.1097,-3.99692 -5.7779,-6.79932 -5.7777,-6.79931 -3.0229,-5.691 c -1.6626,-3.13005 -3.9419,-8.61366 -5.0652,-12.18591 -1.1234,-3.57226 -2.9965,-11.65636 -4.1629,-17.96466 l -2.1206,-11.46961 0.4442,-4.51798 c 0.6415,-6.52708 3.4656,-21.02312 6.2486,-32.07481 2.7708,-11.00289 8.6971,-28.46226 11.6629,-34.35978 4.4184,-8.78576 15.5342,-26.43012 22.357,-35.48761 3.9583,-5.25443 10.2803,-12.70734 14.0493,-16.56209 3.7688,-3.85462 9.9985,-9.38691 13.8436,-12.2938 l 6.9911,-5.28535 8.2856,-4.10571 8.2856,-4.10569 10.7031,-0.0676 10.7031,-0.0676 9.4927,3.83046 c 5.221,2.10687 10.3921,3.90545 11.4913,3.99695 l 1.9983,0.16646 0.4998,-5.54094 0.4995,-5.54106 1.8538,-2.82779 1.8536,-2.82791 5.4977,0.64609 5.4975,0.64621 5.4005,2.55481 5.4005,2.55481 3.4856,3.28739 3.4856,3.28738 0,5.00312 c 0,2.75169 -0.2812,6.40893 -0.6248,8.12716 l -0.6248,3.12417 -3.9412,4.47768 -3.9416,4.47755 0.6284,1.01657 0.6282,1.01657 1.8288,0 1.8287,0 2.308,1.86879 2.3079,1.86892 -1.1866,13.86898 c -1.3659,15.96231 -2.3906,23.58794 -4.5256,33.67025 -0.8358,3.94774 -1.9553,9.42597 -2.4876,12.1739 -0.5324,2.74781 -1.7081,8.30164 -2.6128,12.34162 l -1.6445,7.34552 -2.4804,4.89497 -2.4805,4.89509 -0.8659,0 -0.8658,0 -0.6026,-2.24829 c -0.3314,-1.2366 -0.6086,-4.62336 -0.6161,-7.52625 l -0.014,-5.27809 -1.3503,-3.23144 -1.3501,-3.23156 -0.7368,-12.93389 -0.7367,-12.93388 -4.2817,-12.53024 -4.2817,-12.53024 -4.3028,-8.39049 -4.3031,-8.3905 -3.5901,-3.77402 -3.59,-3.77401 -2.7686,-0.6949 -2.7684,-0.69478 -4.3764,1.67142 c -2.4071,0.91919 -7.2213,3.54885 -10.6984,5.84357 l -6.3218,4.17228 -9.3129,9.43986 -9.313,9.43986 -7.3611,11.06534 -7.3614,11.06546 -6.9846,14.48878 c -7.501,15.55978 -12.5252,28.42333 -16.6178,42.54575 l -2.5659,8.85448 -0.6188,7.52412 -0.6187,7.52413 -2.3389,2.81427 -2.339,2.81427 1.4704,2.84331 c 0.8088,1.5639 2.7514,3.89467 4.3172,5.17959 l 2.8467,2.33615 2.6766,4.6877 2.6764,4.6877 4.7388,4.85229 4.7384,4.85229 4.8416,2.33615 4.8413,2.33602 11.1462,-0.52355 11.1462,-0.52368 9.6763,-3.13456 c 5.3219,-1.72398 12.2615,-4.27792 15.4217,-5.67548 l 5.7453,-2.54079 1.7756,0.46423 1.7753,0.46422 2.8698,-2.74243 2.8698,-2.74243 7.046,-2.69248 7.0462,-2.69249 1.8622,-2.05767 c 1.0243,-1.13172 3.0364,-2.66495 4.4717,-3.40704 l 2.6093,-1.3495 1.1856,-2.795 1.1853,-2.79499 5.6557,-3.43558 c 3.1106,-1.88957 7.3449,-4.96168 9.4097,-6.8271 l 3.7539,-3.39152 3.9658,-6.27938 3.9658,-6.27939 1.4945,-0.57349 1.4945,-0.57337 1.2228,1.47341 1.2228,1.47353 -1.1143,2.21425 c -0.6129,1.21782 -2.2187,6.79493 -3.5686,12.39356 l -2.4543,10.17944 -4.8228,8.80591 -4.8227,8.80578 -6.6787,6.68354 -6.6784,6.68341 -2.8669,1.48242 -2.8667,1.48242 -1.9263,-0.1721 -1.9266,-0.17197 -2.7799,5.49562 -2.7797,5.49588 -10.7319,6.68641 -10.7318,6.68654 -8.993,2.98649 -8.993,2.98637 -7.8164,1.06876 c -8.56,1.1704 -13.2075,1.18604 -21.8797,0.0738 z m -942.41367,-17.38102 -3.85975,-1.45051 -2.97653,-2.82691 -2.97655,-2.82691 -1.9621,-3.81532 -1.96211,-3.81545 -0.56098,-4.73664 -0.56099,-4.73663 2.38347,-2.77084 2.38347,-2.77097 6.26132,-0.73833 6.26133,-0.73821 1.70091,-1.70095 1.70092,-1.70096 0.5125,-9.21381 0.51252,-9.21382 2.99767,-0.51053 2.99768,-0.51054 0.31014,-2.6806 0.31014,-2.6806 -2.8082,-1.78806 c -1.5445,-0.98353 -3.13855,-2.24817 -3.54233,-2.81052 l -0.73411,-1.02232 -0.0154,-28.75902 -0.0153,-28.75914 1.24904,-0.38475 c 0.68695,-0.21165 2.43598,-0.64334 3.88668,-0.95925 l 2.63767,-0.57449 0.63457,-1.65364 0.63461,-1.65377 -1.27381,-1.70546 c -0.70058,-0.93797 -2.78741,-3.6824 -4.63741,-6.0989 l -3.36362,-4.39345 0.80777,-15.98759 c 0.44426,-8.79327 0.83376,-20.33635 0.86553,-25.65149 l 0.0577,-9.66377 -2.41283,-2.56645 -2.41284,-2.56658 -5.58097,-2.08095 -5.58096,-2.08094 -2.16751,-2.0245 -2.1675,-2.02438 -2.12793,-4.94654 -2.12794,-4.94654 -0.16368,-5.9059 -0.16371,-5.90603 2.34026,-2.4911 2.34024,-2.49111 8.61385,-3.14858 8.61385,-3.1487 15.48801,-2.88987 15.48801,-2.88987 17.98604,0.0213 17.98607,0.0213 9.60854,0.93508 9.60851,0.93509 8.21112,2.99663 c 4.51613,1.64826 10.99129,4.55152 14.38928,6.45174 3.39801,1.90021 8.21436,5.2473 10.70306,7.43801 l 4.52486,3.98291 6.33892,8.83883 6.3389,8.83884 4.78872,9.9922 4.78873,9.99232 1.67831,6.49492 1.67833,6.49492 0.0896,7.49421 0.0897,7.49421 -1.29429,5.49575 -1.29426,5.49574 -3.9064,7.99386 -3.90641,7.99374 -5.74126,6.67089 c -3.15768,3.669 -7.98951,8.66736 -10.73737,11.10727 -2.74788,2.44003 -8.518,6.96252 -12.82249,10.0499 l -7.82637,5.61352 -12.15816,5.8825 c -15.32778,7.41598 -33.21406,14.57689 -41.63531,16.66885 -3.57224,0.8874 -8.16094,2.04102 -10.1971,2.5637 l -3.70215,0.9501 -1.54379,1.54388 -1.54381,1.54375 0,12.96405 0,12.96392 2.29198,2.29197 2.29198,2.29197 4.07322,0.65135 4.07322,0.65134 1.25134,1.50783 1.25135,1.50783 5.12358,0.0138 5.1236,0.015 4.31309,1.5022 4.31306,1.5022 0.92554,-0.57199 c 0.87157,-0.53858 21.9058,-1.65715 28.41889,-1.51109 1.64872,0.0363 4.57146,0.0738 6.49496,0.0814 1.92352,0.0125 4.11,0.2338 4.85886,0.50227 l 1.36158,0.48801 -1.23411,1.48693 -1.23413,1.48705 -1.56061,0 c -0.85836,0 -3.61362,0.95524 -6.12282,2.12288 -2.50919,1.16751 -7.26009,3.37675 -10.55754,4.90923 -3.29744,1.53261 -8.69327,3.54798 -11.9907,4.47881 -3.29745,0.93083 -7.472,2.31875 -9.27675,3.08449 l -3.28141,1.39218 -3.74068,0 -3.74067,0 -2.18529,1.53074 c -3.26697,2.28821 -9.655,4.35652 -20.24235,6.55374 l -9.49265,1.97018 -11.9907,0.49914 -11.99071,0.49915 -3.85975,-1.4505 z m 74.66966,-111.21324 8.85792,-3.50029 4.32432,0.64847 4.32435,0.64846 1.60194,-2.44492 1.60192,-2.44479 -0.60179,-2.39786 -0.60182,-2.39773 1.97192,-1.78456 1.97196,-1.78456 2.14544,1.14823 2.14543,1.14812 1.5211,-1.26239 1.52112,-1.26238 -0.55595,-2.77973 -0.55597,-2.77973 4.99132,-5.70389 c 6.23533,-7.12548 11.26385,-14.65737 14.74259,-22.08187 l 2.68778,-5.73655 6.5e-4,-8.99303 6.6e-4,-8.99303 -2.65836,-5.67072 -2.65835,-5.67073 -4.08895,-4.436 -4.08894,-4.43599 -5.82632,-2.61477 -5.82632,-2.61465 -7.66767,-1.14048 -7.66767,-1.14035 -9.73549,1.18141 c -5.35451,0.64971 -10.48553,1.39793 -11.40226,1.66265 l -1.6668,0.48138 -3.46124,-3.03907 -3.46128,-3.03906 -2.08118,0 -2.0812,0 -1.03439,1.93275 c -0.5689,1.06301 -1.03436,3.01116 -1.03436,4.32911 l 0,2.39637 -3.66877,2.41563 c -2.01783,1.3286 -4.54982,3.61356 -5.62667,5.07758 l -1.95792,2.66195 -0.82231,15.82376 -0.82234,15.82375 -0.0459,28.53673 -0.0459,28.53685 1.24904,1.5748 c 0.68697,0.86624 1.92351,1.7773 2.74788,2.02474 l 1.49882,0.44971 11.4911,-2.42639 11.49112,-2.42652 8.85789,-3.50041 z m 94.06237,108.90775 c -1.64872,-0.21878 -5.39275,-1.07327 -8.32003,-1.89896 l -5.32236,-1.5012 -4.21359,-4.21358 -4.21358,-4.21359 -4.38913,-11.47412 -4.38911,-11.47411 -0.41703,-13.45031 -0.41701,-13.45043 1.18678,-7.35678 1.18678,-7.35691 2.40633,-7.07479 c 1.32347,-3.89117 4.01932,-10.00935 5.99075,-13.596 4.29295,-7.80999 11.12957,-16.89564 17.64014,-23.443 l 4.76401,-4.79096 8.28193,-3.97402 8.28196,-3.9739 5.09463,-0.60341 5.09463,-0.60341 5.18384,2.82141 5.18382,2.82141 5.30591,5.0981 5.30593,5.09823 2.49182,4.94604 2.49184,4.94603 1.1235,5.29511 1.12351,5.29512 -0.005,12.69094 -0.005,12.69095 -1.04324,3.75661 -1.04322,3.7565 -2.19867,1.42672 -2.1987,1.4266 -6.99458,1.14373 c -7.01287,1.14661 -41.46303,9.70295 -48.96207,12.16064 l -3.99692,1.30982 -1.74164,3.56024 -1.74168,3.56023 1.69428,4.43363 c 0.93186,2.4384 2.74328,6.13607 4.02533,8.21689 l 2.33103,3.78328 3.21209,2.02575 3.2121,2.02588 6.08496,-0.43532 6.08497,-0.43519 6.40535,-2.82491 c 3.52294,-1.55376 11.79864,-6.05159 18.39043,-9.9952 l 11.98507,-7.17017 1.36143,0.52243 1.36141,0.52243 -0.53424,3.29201 c -0.29382,1.81072 -1.4407,5.3413 -2.54861,7.84605 l -2.0144,4.55377 -2.48288,0 -2.48287,0 -1.6372,1.63725 -1.63715,1.63712 0.15962,4.10832 c 0.0879,2.25968 0.1179,4.59596 0.067,5.19173 l -0.0926,1.08341 -8.77153,4.1684 -8.77154,4.16852 -6.96628,1.47554 c -6.89939,1.46152 -9.15048,1.58393 -14.96007,0.81343 z m 9.55108,-73.73317 16.4288,-3.69479 4.16126,-1.81172 4.16125,-1.81185 1.08468,-2.02675 1.08468,-2.02675 0,-10.53741 0,-10.53728 -1.61098,-4.02634 -1.61098,-4.02622 -2.35982,-0.59227 -2.35983,-0.59226 -4.51062,2.18358 -4.51062,2.18358 -7.46596,6.97241 c -4.10629,3.83484 -8.99922,9.08064 -10.87315,11.65748 -1.87394,2.57696 -5.31272,8.35971 -7.64174,12.85065 l -4.23456,8.16533 0.708,1.14561 0.70801,1.14561 1.20639,-0.46297 c 0.66352,-0.25458 8.59934,-2.12551 17.63519,-4.15764 z m 316.57862,72.05137 c -1.98829,-0.71043 -5.25223,-2.30361 -7.25322,-3.54034 l -3.63838,-2.24867 -2.5002,-4.26627 c -1.37514,-2.34655 -4.18151,-8.93971 -6.23631,-14.65162 l -3.7361,-10.38533 0.0932,-15.98759 0.0933,-15.98759 2.16509,-7.99386 2.16497,-7.99374 4.05134,-8.4935 4.05147,-8.49338 5.41228,-7.08168 c 2.97669,-3.89492 7.90166,-9.43598 10.94432,-12.31358 l 5.5319,-5.23191 7.52576,-3.47713 7.52575,-3.477 4.86388,-0.57612 4.86429,-0.57613 4.3298,2.11412 4.3298,2.11411 6.2036,5.5522 6.2036,5.55232 3.2891,6.67552 3.2889,6.67553 0.3239,17.51294 0.3237,17.51282 -1.0285,2.69562 -1.0287,2.69562 -2.2928,1.48755 -2.2929,1.48768 -9.0236,1.55501 c -4.9631,0.85524 -17.55339,3.82596 -27.97849,6.60168 l -18.95463,5.04654 -4.49647,2.20511 -4.4966,2.20511 0.16802,6.16574 0.16789,6.16586 2.03912,4.6096 2.03898,4.6096 3.50644,1.46502 3.50658,1.46515 7.27635,-0.0175 7.27665,-0.0175 8.42704,-3.41743 8.42712,-3.41743 1.8982,1.01582 1.8979,1.01581 1.8255,-1.65201 c 1.0041,-0.90868 2.0746,-2.63066 2.3792,-3.82671 l 0.554,-2.17482 6.2863,-4.24663 6.2864,-4.24675 1.8386,0 1.8386,0 2.8582,-2.03514 c 1.5719,-1.11945 4.9388,-2.95558 7.4817,-4.08041 l 4.6235,-2.04528 0.5224,0.52243 0.5223,0.52243 -1.6748,4.38555 -1.6747,4.38544 -3.8962,5.14779 c -2.1429,2.83117 -4.7936,6.90683 -5.8905,9.05686 l -1.9942,3.90919 -5.0565,4.42311 -5.0561,4.42311 -9.2175,4.63913 -9.2173,4.63902 -4.75544,1.24749 -4.75517,1.24761 -1.5465,-2.20811 -1.5465,-2.20811 -2.69124,0 -2.69124,0 -3.99697,2.46169 c -2.19835,1.35401 -4.67138,2.45606 -5.49568,2.44918 -0.82443,-0.0125 -3.12565,-0.59402 -5.11382,-1.30457 z m 16.10513,-71.62444 c 7.41937,-1.64338 16.30461,-3.91408 19.74511,-5.04592 l 6.2553,-2.05791 1.1033,-2.06143 1.1032,-2.06142 0.1356,-11.59302 0.1354,-11.59315 -2.0792,-3.49728 -2.0795,-3.49728 -3.4991,0.0989 -3.4993,0.0989 -6.14257,4.17141 -6.14296,4.17153 -2.37395,-0.5959 -2.37408,-0.59577 -1.64325,1.64338 -1.64351,1.64338 0.61217,2.43866 0.61217,2.43879 -3.96216,5.23303 c -2.17916,2.8781 -5.82659,8.66072 -8.10537,12.85015 l -4.14325,7.61737 0,2.24178 0,2.24178 2.24822,-0.65122 c 1.23659,-0.35821 8.31856,-1.99584 15.73773,-3.63934 z m 620.78911,72.30144 -2.2281,-0.43044 -2.0186,-2.56595 -2.0184,-2.56595 0,-1.74138 0,-1.74125 -1.4111,-1.17115 -1.4112,-1.17126 -6.0556,2.5488 c -3.3304,1.40182 -9.5526,3.7033 -13.8269,5.1145 l -7.7714,2.5657 -9.0732,0.56761 -9.0732,0.56749 -5.3018,-1.76103 -5.3019,-1.76104 -3.8552,-3.48288 -3.8551,-3.48289 -1.5047,-5.06644 -1.5045,-5.06632 0,-4.7693 0,-4.76943 2.421,-6.66952 2.4208,-6.66952 3.74,-5.43004 3.7397,-5.43003 5.5801,-4.0286 5.5804,-4.02859 11.9905,-5.84145 11.9908,-5.84144 8.8023,-2.19485 8.8025,-2.19472 2.0985,-1.6992 2.0981,-1.69907 -1.1032,-9.71121 -1.1029,-9.71121 -1.8039,-3.69029 -1.8037,-3.6904 -7.9939,-0.28124 -7.9938,-0.28137 -7.9937,3.88579 -7.9939,3.88578 -7.4942,5.56033 c -4.1219,3.05822 -8.0685,6.15761 -8.7703,6.88743 -0.7017,0.72995 -2.3566,2.67609 -3.6775,4.32473 l -2.4017,2.99776 -1.2017,-1.18228 -1.2017,-1.18216 2.6965,-6.81158 c 1.4828,-3.74648 4.1282,-9.21907 5.8785,-12.16151 l 3.1821,-5.34993 5.8694,-4.92263 c 3.2281,-2.70738 7.7394,-6.01842 10.025,-7.35791 2.2854,-1.33948 6.1643,-3.15021 8.6194,-4.02384 l 4.4638,-1.58856 7.1912,-0.0401 7.1909,-0.0401 5.345,2.44692 5.3448,2.44692 3.6611,3.21454 3.6611,3.21454 2.4239,5.17784 2.4239,5.17783 1.1362,5.39975 1.1361,5.39975 0.9621,14.08512 c 0.5291,7.74692 0.9686,18.0196 0.9768,22.82846 l 0.015,8.74321 0.9403,0 c 0.5171,0 1.2181,-0.44971 1.5578,-0.9993 l 0.6174,-0.99917 2.0645,0 2.0644,0 -0.6485,3.24746 c -0.3567,1.78619 -1.9866,6.10829 -3.6223,9.60482 l -2.9736,6.35736 0,1.88632 0,1.8862 1.0544,0 c 0.5798,0 3.615,-1.3132 6.7448,-2.91828 8.387,-4.30145 14.6574,-7.07392 15.998,-7.07392 l 1.1835,0 0,0.92858 c 0,0.51066 -1.8297,3.68315 -4.0658,7.04976 l -4.0659,6.12131 -0.7702,4.87181 -0.7702,4.87194 -1.619,2.47082 -1.619,2.47083 -5.2858,3.00051 -5.286,3.00052 -5.4273,1.59219 c -2.9848,0.87575 -5.6828,1.5311 -5.9954,1.45626 -0.3125,-0.0751 -1.5706,-0.32981 -2.7963,-0.56661 z m -35.7359,-22.74911 7.6763,-1.46878 5.6513,-2.57746 c 3.1082,-1.41759 7.3395,-3.74185 9.4028,-5.16507 l 3.7514,-2.58773 1.9942,-3.22655 1.9941,-3.22656 0,-4.17416 0,-4.17416 -2.4527,-2.45268 -2.4527,-2.45267 -1.922,0 -1.9218,0 -1.502,-2.24817 -1.5019,-2.24829 -1.912,1.71773 -1.9121,1.71773 -6.7634,2.08908 -6.7634,2.08896 -3.6839,3.25622 c -2.0261,1.79094 -5.803,4.75115 -8.3932,6.57827 l -4.7095,3.32193 -2.4352,3.60417 c -1.3391,1.98232 -2.7419,4.63801 -3.1174,5.9014 l -0.6824,2.29722 1.6047,2.44905 1.6049,2.44918 5.3848,0 5.3849,0 7.6762,-1.46866 z m -506.4451,18.05815 -3.6663,-3.66637 -2.4979,-4.92952 -2.498,-4.92951 0,-2.47233 0,-2.47233 1.2441,-0.76887 1.244,-0.76887 8.4985,-0.0401 8.4982,-0.0401 0.6017,-19.98452 0.6015,-19.98453 1.2267,-5.23153 1.2268,-5.2314 -0.3295,-12.927 -0.3295,-12.927 -2.2129,-2.35255 -2.2131,-2.35255 0.5777,-2.20924 0.5778,-2.20923 -1.6797,-0.64459 -1.6795,-0.64446 -2.1809,1.14761 -2.1808,1.14761 -4.9961,-1.91072 -4.9961,-1.91085 -0.3404,-1.69132 -0.3402,-1.69119 2.2184,-2.36131 2.2182,-2.36119 8.6139,-3.16497 8.6137,-3.16485 5.5584,-0.11766 5.5582,-0.11765 2.7687,1.8141 2.7689,1.81423 1.4153,3.38739 1.4154,3.38751 0,5.02827 0,5.02814 1.2489,-5e-4 1.2492,-5e-4 5.7145,-6.39028 5.7144,-6.39028 4.3435,-2.1026 4.3434,-2.1026 4.5989,0 c 2.5294,0 5.3446,0.28612 6.2561,0.63582 l 1.6571,0.63595 0.8979,2.36181 0.898,2.36181 2.8355,0 2.8354,0 2.5614,2.74781 2.5613,2.74781 4.1207,8.52855 4.1206,8.52856 -0.058,1.96342 c -0.031,1.07977 -0.8592,5.0384 -1.8391,8.79677 l -1.7815,6.8336 -4.406,1.96856 -4.4061,1.96855 -2.6548,2.53703 -2.6549,2.53692 -5.9651,-2.67685 -5.9649,-2.67697 -1.085,-2.38133 -1.0849,-2.38134 0.8279,-0.51166 0.828,-0.51179 1.7873,1.97494 1.7873,1.9748 2.6518,0 2.6517,0 1.6366,-1.24899 1.6367,-1.24899 1.5376,-4.49658 c 0.8456,-2.47308 1.544,-5.30387 1.552,-6.29053 l 0.015,-1.79407 -2.4982,-2.49811 c -1.3739,-1.37391 -2.498,-2.84882 -2.498,-3.27763 0,-0.4288 -1.0407,-1.7574 -2.3126,-2.95232 l -2.3127,-2.17269 -5.4589,0 -5.4588,0 -2.2427,1.57091 -2.2428,1.57091 -2.8366,5.67348 c -1.5601,3.12042 -3.5617,7.92176 -4.4477,10.66957 -0.8862,2.74794 -2.7603,11.7312 -4.1647,19.963 l -2.5536,14.96677 -0.1001,7.74416 -0.1002,7.74403 1.7124,2.61301 1.7119,2.61301 4.2942,1.89959 4.2944,1.89959 0.5435,2.07857 0.5436,2.07869 2.0494,-1.0968 2.0495,-1.09692 1.9598,1.22396 1.9598,1.22396 2.4827,-1.32872 2.4828,-1.32872 2.8249,0.70504 c 1.5536,0.38788 3.4993,1.28416 4.3237,1.99195 0.8243,0.70767 2.7446,1.58281 4.2672,1.94478 l 2.7685,0.65797 2.0852,-1.11594 2.0852,-1.11607 0.9561,0.95623 0.9562,0.95624 -1.7119,1.71197 -1.7121,1.7121 -2.0255,-0.52969 -2.0257,-0.52969 -2.5718,1.38405 c -3.908,2.1031 -12.0723,4.51622 -15.2798,4.51622 l -2.8596,0 -4.207,2.17758 -4.2068,2.17757 -10.9916,0.73996 c -6.0452,0.40702 -15.2996,1.06187 -20.5649,1.45538 l -9.5736,0.7153 -3.6663,-3.66625 z m 579.7854,0.75623 c -1.4271,-1.57128 -3.3381,-3.96876 -4.2468,-5.32752 l -1.6521,-2.47058 0,-2.77535 0,-2.77534 1.9591,-1.95917 1.9591,-1.95904 5.5338,-1.60871 5.5336,-1.60871 0.5697,-2.26969 0.5698,-2.26969 -0.3185,-35.88012 -0.3187,-35.88024 -2.0524,-3.49391 -2.0524,-3.4939 -3.4433,-2.32038 -3.4434,-2.32038 0,-1.18028 0,-1.18028 9.4927,-3.22205 c 5.221,-1.77217 10.3921,-3.23357 11.4913,-3.24746 l 1.9984,-0.025 2.5893,3.24746 2.5892,3.24745 1.2785,3.99693 c 0.7033,2.19823 1.6591,4.40909 2.124,4.913 l 0.8456,0.91618 7.2775,-7.55904 7.2774,-7.55892 4.2467,-1.13973 4.2467,-1.1396 3.769,1.01481 3.769,1.01494 4.2399,3.11792 4.2397,3.11804 2.3852,4.14925 c 1.3117,2.28208 2.681,5.57084 3.0425,7.30835 l 0.6578,3.15922 -1.1266,6.33345 c -0.6197,3.48339 -2.261,10.08732 -3.6478,14.67539 l -2.5212,8.34194 -5.91,6.0586 -5.9098,6.05848 -0.614,-0.6138 -0.6137,-0.61379 1.7096,-6.97604 1.7096,-6.97592 -0.5686,-10.23539 -0.5685,-10.23539 -1.0086,-1.00868 -1.0087,-1.00856 -5.5487,1.74902 -5.5488,1.74914 -3.0771,4.18305 c -1.6924,2.30073 -3.6981,5.63067 -4.4573,7.39984 l -1.3801,3.21667 -2.4975,16.45507 -2.4975,16.4552 0,6.10791 0,6.10779 1.4618,2.82704 c 0.8041,1.55477 2.0407,3.04307 2.7479,3.30729 0.7074,0.26421 6.6818,0.15908 13.2767,-0.23368 l 11.9907,-0.71418 0.9033,0.8083 0.903,0.80842 -2.7394,3.59166 c -1.5068,1.97543 -4.1964,4.54664 -5.977,5.7139 l -3.2376,2.12225 -2.1601,3.2954 -2.1602,3.29539 -2.6133,1.71235 -2.6134,1.71222 -9.6375,0.72318 c -5.3006,0.39764 -13.9094,1.0386 -19.1302,1.42422 l -9.4927,0.70116 -2.5946,-2.85695 z m 85.3504,1.01019 c -1.198,-1.02771 -3.3339,-3.61757 -4.7462,-5.75521 l -2.568,-3.88654 0,-1.93588 0,-1.93588 2.7995,-2.79951 2.7995,-2.7995 4.1376,-0.69903 4.1375,-0.69903 0.9645,-1.17089 0.9646,-1.1709 0.2129,-34.97294 0.2131,-34.97294 -0.9979,-4.78233 -0.9976,-4.78232 -1.7594,-1.94427 -1.7596,-1.94414 -5.1075,-1.90272 -5.1075,-1.90259 -0.2725,-1.36314 -0.2726,-1.36302 12.6692,-2.2608 12.6694,-2.26081 2.5915,1.64827 c 1.4254,0.90655 3.5873,2.82315 4.8042,4.25926 l 2.2126,2.61101 0.6465,3.24746 0.6465,3.24758 1.1379,-0.0125 1.1378,-0.0125 4.6954,-5.88875 4.6956,-5.88876 5.4931,-2.68761 5.4932,-2.68761 3.3008,0.71105 c 1.8156,0.39113 4.6499,1.38279 6.2987,2.20373 3.8471,1.91548 8.3066,6.06148 9.9962,9.29342 l 1.3243,2.53341 -1.4263,12.95466 -1.4263,12.95466 -2.9592,4.49645 c -1.6275,2.47308 -3.7286,5.95797 -4.6689,7.74404 l -1.7095,3.24746 -1.6177,0 -1.6177,0 -0.096,-8.24356 -0.098,-8.24368 -1.6991,-4.22748 -1.6988,-4.2276 -3.2646,-2.01762 -3.2647,-2.01761 -2.5069,0 -2.5068,0 -1.9987,4.74627 c -1.0993,2.61051 -2.7025,6.99469 -3.5627,9.7425 -1.6966,5.41915 -5.1777,26.65604 -6.2452,38.1 l -0.6647,7.12386 1.1676,3.53783 c 0.6422,1.94577 1.7067,3.97828 2.3655,4.5166 l 1.198,0.97877 5.4956,-0.9834 c 3.0226,-0.54082 8.1937,-1.10468 11.4911,-1.25287 3.2974,-0.14832 6.7367,-0.59052 7.6429,-0.9829 l 1.6475,-0.71317 0.7074,1.14448 0.7076,1.14461 -6.5688,6.31518 -6.5687,6.31506 -1.5609,3.9013 -1.5611,3.90143 -3.1984,1.88933 -3.1985,1.88932 -9.5125,0.70592 c -5.2318,0.38825 -13.5594,1.03021 -18.5055,1.42647 l -8.9931,0.72068 -2.1783,-1.86867 z m 113.5922,0.0851 -5.4958,-1.50921 -5.3098,-3.63521 -5.3097,-3.63521 -3.9175,-4.58068 -3.9174,-4.58069 -2.9117,-5.99527 -2.9116,-5.99539 -1.101,-5.29512 -1.1008,-5.29511 0.02,-9.19366 0.02,-9.19366 0.9717,-6.71821 0.9716,-6.71808 2.1457,-6.27175 c 2.8242,-8.25508 7.405,-17.35524 11.0899,-22.0313 l 2.9699,-3.76876 6.2671,-4.47217 c 3.4469,-2.45956 8.7242,-5.597 11.7274,-6.97191 l 5.4605,-2.49986 7.4064,-0.60366 7.4066,-0.60378 6.9722,1.64037 6.9723,1.64038 4.1746,2.44642 4.1746,2.44654 3.0894,3.90068 3.0892,3.90056 3.4686,7.3539 c 1.9076,4.04462 4.1845,10.05178 5.0597,13.34917 l 1.591,5.9954 0.5585,9.49267 0.5584,9.49256 -1.6166,8.4935 c -0.8891,4.67131 -2.0777,10.14139 -2.6413,12.15563 l -1.0244,3.66237 -3.4739,2.04953 -3.4736,2.04953 0,1.54613 c 0,0.85035 0.5545,2.43415 1.2325,3.51969 l 1.2325,1.97355 -1.9819,3.69442 c -1.0901,2.032 -4.0776,5.99051 -6.639,8.7969 l -4.657,5.10261 -5.3353,2.94544 -5.3352,2.94544 -12.4903,0.24219 -12.4903,0.24231 -5.4958,-1.5092 z m 23.9379,-20.68881 5.5108,-1.24912 3.8235,-3.80919 3.8235,-3.80931 1.9421,-4.53099 1.9423,-4.53113 1.1011,-7.09732 1.1013,-7.09744 -0.6645,-14.03945 c -0.3656,-7.72163 -0.6461,-16.12827 -0.6233,-18.68121 l 0.04,-4.64189 -2.699,-1.76841 c -1.4846,-0.97264 -5.0921,-3.71757 -8.0169,-6.09991 l -5.3177,-4.33136 -3.2771,0 -3.2771,0 -5.13,1.52347 -5.1302,1.52348 -3.2185,2.70826 -3.2188,2.70838 -3.8004,5.88 -3.8006,5.87999 -0.6095,3.62758 c -0.3355,1.99508 -0.8193,4.39444 -1.0754,5.33178 -0.256,0.93734 -2.2403,3.85187 -4.4092,6.47664 l -3.9437,4.77244 0,1.54488 0,1.54487 1.8441,1.57905 1.8443,1.57905 0.6863,5.84056 0.6865,5.84057 4.3198,9.11894 4.3195,9.11882 2.9287,2.08545 c 3.4566,2.46119 8.4968,4.03611 13.3184,4.1614 1.9072,0.0501 5.9478,-0.47199 8.9786,-1.15888 z m 89.1942,19.65697 -5.1688,-2.57571 -2.5693,-3.05346 c -1.4131,-1.6793 -3.406,-4.69383 -4.429,-6.6988 l -1.8597,-3.64535 -1.0904,-5.8974 -1.09,-5.89726 -0.07,-26.54578 -0.07,-26.54577 -0.7813,-1.99847 -0.7815,-1.99846 -7.2112,0 -7.211,0 -3.928,-4.20808 -3.928,-4.20795 0,-2.55031 0,-2.5503 -1.1568,-1.85253 -1.1568,-1.85265 0.5445,-1.41946 0.5448,-1.41947 5.8948,-3.09 5.8949,-3.09013 5.7656,-1.29017 5.7658,-1.2903 1.1921,-2.07656 1.1923,-2.07657 -0.2563,-20.3122 -0.2565,-20.31219 -1.062,-1.98445 -1.062,-1.98445 1.1909,-1.43498 1.191,-1.43498 1.9952,0 1.9953,0 5.847,3.55197 5.847,3.55198 2.1033,2.9537 2.1033,2.95383 0.5816,15.13536 0.5819,15.13549 1.8559,1.85578 1.8558,1.85591 2.7328,-0.6566 c 1.5029,-0.3611 4.3063,-1.43549 6.2298,-2.38735 l 3.4973,-1.73087 7.8497,-0.72068 7.8498,-0.72056 3.6414,-1.55151 3.6413,-1.55163 5.2351,-0.10139 5.2352,-0.10263 0.4896,1.27666 0.4896,1.27653 -1.7278,1.40845 c -0.9504,0.77462 -3.8369,3.12292 -6.4147,5.21838 -2.5777,2.09547 -8.5008,7.21698 -13.1626,11.38113 l -8.4756,7.57118 -8.8204,3.33557 c -4.8512,1.83463 -9.4951,3.95125 -10.3195,4.70347 l -1.4986,1.36765 -0.3219,27.69451 -0.322,27.69452 0.6477,5.27846 0.6477,5.27859 2.3186,2.69575 2.3188,2.69561 3.0713,-1.47929 3.0713,-1.47917 11.3736,-11.12729 c 6.2553,-6.12005 12.3484,-11.64909 13.5399,-12.2868 l 2.1664,-1.15937 0.8529,0.52718 0.8531,0.52718 -0.8077,4.26541 c -0.4444,2.34591 -1.5258,5.97023 -2.4033,8.05393 l -1.5955,3.78879 -3.1012,2.77084 -3.1012,2.77084 1.1564,2.1608 1.1565,2.16092 -1.5691,3.76989 -1.5691,3.76988 -4.1993,4.37092 c -2.3098,2.40411 -6.1984,5.66409 -8.6419,7.24451 l -4.4423,2.87335 -5.6035,0 -5.6034,0 -5.169,-2.57571 z"
       id="path4376"
       inkscape:connector-curvature="0" />
  </g>
</svg>
