<?xml version="1.0" encoding="UTF-8" standalone="no"?>
<!-- Created with Inkscape (http://www.inkscape.org/) -->

<svg
   xmlns:dc="http://purl.org/dc/elements/1.1/"
   xmlns:cc="http://creativecommons.org/ns#"
   xmlns:rdf="http://www.w3.org/1999/02/22-rdf-syntax-ns#"
   xmlns:svg="http://www.w3.org/2000/svg"
   xmlns="http://www.w3.org/2000/svg"
   xmlns:xlink="http://www.w3.org/1999/xlink"
   xmlns:sodipodi="http://sodipodi.sourceforge.net/DTD/sodipodi-0.dtd"
   xmlns:inkscape="http://www.inkscape.org/namespaces/inkscape"
   id="svg2"
   version="1.1"
   inkscape:version="0.92.1 renderfarm"
   width="2481"
   height="663"
   sodipodi:docname="Pepper-and-Carrot_by-David-Revoy_E02P00_092.svg">
  <sodipodi:namedview pagecolor="#ffffff" bordercolor="#666666" inkscape:pageopacity="0" inkscape:pageshadow="2" inkscape:window-width="1813" inkscape:window-height="955" id="namedview70" showgrid="false" inkscape:zoom="0.4" inkscape:cx="1284.4231" inkscape:cy="2618.6204" inkscape:current-layer="layer1" /><metadata
     id="metadata8">
    <rdf:RDF>
      <cc:Work
         rdf:about="">
        <dc:format>image/svg+xml</dc:format>
        <dc:type
           rdf:resource="http://purl.org/dc/dcmitype/StillImage" />
        <dc:title />
      </cc:Work>
    </rdf:RDF>
  </metadata>
  <defs
     id="defs6" />
  <sodipodi:namedview
     pagecolor="#ffffff"
     bordercolor="#666666"
     borderopacity="1"
     objecttolerance="10"
     gridtolerance="10"
     guidetolerance="10"
     inkscape:pageopacity="0"
     inkscape:pageshadow="2"
     inkscape:window-width="1920"
     inkscape:window-height="1026"
     id="namedview4"
     showgrid="false"
     inkscape:zoom="0.59975816"
     inkscape:cx="1243.8347"
     inkscape:cy="314.82661"
     inkscape:window-x="0"
     inkscape:window-y="27"
     inkscape:window-maximized="1"
     inkscape:current-layer="layer1" />
  <g
     inkscape:groupmode="layer"
     id="layer2"
     inkscape:label="artwork"
     sodipodi:insensitive="true">
    <image
       sodipodi:absref="/home/deevad/peppercarrot/webcomics/ep02_Rainbow-potions/lang/nl/../gfx_Pepper-and-Carrot_by-David-Revoy_E02P00.png"
       xlink:href="../gfx_Pepper-and-Carrot_by-David-Revoy_E02P00.png"
       y="0"
       x="-1.6728083e-06"
       id="image10"
       height="663"
       width="2481" />
  </g>
  <g
     inkscape:groupmode="layer"
     id="layer1"
     inkscape:label="text">
    <flowRoot
       xml:space="preserve"
       id="flowRoot3063"
       style="font-style:normal;font-variant:normal;font-weight:normal;font-stretch:normal;line-height:0.01%;font-family:Arial;-inkscape-font-specification:Arial;letter-spacing:0px;word-spacing:0px;display:inline;fill:#562f13;fill-opacity:1;stroke:none"
       transform="matrix(0.77923967,0,0,0.77489763,78.56263,203.95614)"><flowRegion
         id="flowRegion3065"><rect
           id="rect3067"
           width="2715.5891"
           height="110.01318"
           x="92.642677"
           y="425.30325"
           style="font-size:72px;fill:#562f13;fill-opacity:1" /></flowRegion><flowPara
         id="flowPara3069"
         style="font-style:normal;font-variant:normal;font-weight:normal;font-stretch:normal;font-size:88px;line-height:1.25;font-family:Lavi;-inkscape-font-specification:Lavi;text-align:center;text-anchor:middle;fill:#562f13;fill-opacity:1">Aflevering 2: Regenboogdrankjes</flowPara></flowRoot>    <path
       style="display:inline;fill:#562f13;fill-opacity:1;stroke:none"
       d="m 720.99555,505.46083 c -1.96776,-1.72773 -4.22827,-4.3993 -5.02338,-5.93685 l -1.44563,-2.79555 0,-4.08583 0,-4.08582 2.44898,-2.44898 2.44898,-2.44899 1.79139,-0.0317 c 0.98527,-0.0175 2.65703,-0.68663 3.71505,-1.48705 l 1.92368,-1.45534 0.74726,-5.24761 0.74724,-5.24771 0.0729,-22.76397 0.0729,-22.76398 -1.03282,-1.92987 -1.03285,-1.92987 -1.77926,0 c -0.9786,0 -4.15943,-0.70686 -7.06853,-1.57081 l -5.28924,-1.57069 -2.37484,-2.3749 -2.37485,-2.37478 0,-1.54194 0,-1.54195 5.73697,-0.0412 5.73697,-0.0412 4.4898,-2.20381 4.4898,-2.20369 0.28506,-34.92069 0.28508,-34.92069 -1.18427,-4.31614 -1.18431,-4.31627 -2.09397,-1.35823 -2.09399,-1.35823 -8.73017,-0.69861 -8.73017,-0.69848 0,-1.19502 0,-1.19501 4.41278,-4.47611 4.41277,-4.47599 12.62786,-5.70774 12.62784,-5.70786 1.92168,0.60987 c 1.05694,0.33556 3.26621,1.74128 4.90952,3.12401 l 2.98781,2.51412 0,1.33661 c 0,0.73523 0.70555,2.04222 1.56788,2.90455 l 1.56786,1.56782 10.29331,0 10.29333,0 8.64965,2.50662 c 4.75733,1.3786 10.81505,3.60391 13.46164,4.94502 2.64656,1.34111 8.37824,5.12561 12.7371,8.41008 l 7.92513,5.97181 2.73887,3.95222 2.73888,3.95221 1.42816,4.74544 1.42815,4.7453 0,6.73667 0,6.73666 -1.8673,5.99968 -1.86731,5.99968 -3.69088,6.59994 -3.69088,6.59994 -6.00072,6.41473 -6.00073,6.41485 -6.64972,4.90053 c -3.65733,2.69521 -8.8946,6.01155 -11.63836,7.36953 -2.74378,1.35811 -10.15194,4.17867 -16.4626,6.26813 -6.31066,2.08934 -12.48414,4.1653 -13.71883,4.61321 l -2.2449,0.81434 0,21.51797 0,21.51798 2.40841,2.4084 2.40841,2.40839 2.82968,0.59976 c 1.55634,0.32981 3.58408,1.0058 4.50612,1.50208 l 1.67643,0.90244 4.35059,-0.0875 c 2.39282,-0.0475 6.64271,0.22799 9.44419,0.6133 l 5.09361,0.70054 3.16989,-1.63928 3.16991,-1.63917 2.93798,0.64525 c 1.6159,0.35493 4.95048,0.64537 7.41018,0.64537 2.45971,0 4.47218,0.20996 4.47218,0.46666 0,0.25657 -1.6213,1.14401 -3.60292,1.97198 -3.63536,1.51893 -11.4535,6.42583 -16.70662,10.48555 l -2.84923,2.20193 -6.49186,1.80013 -6.49186,1.80014 -4.62718,2.94194 -4.62717,2.94197 -7.483,2.11393 c -4.11565,1.16268 -9.76736,2.77162 -12.55936,3.57544 l -5.07635,1.46141 -4.11796,0 -4.11796,0 -3.57774,-3.14132 z m 44.06452,-107.05606 8.83159,-4.43774 8.0427,-6.45672 8.04268,-6.45672 4.81793,-5.81759 4.8179,-5.81759 2.8529,-5.98644 2.85289,-5.98631 7.8e-4,-4.29002 8e-4,-4.2899 -1.46076,-2.82482 c -0.80343,-1.55356 -2.85368,-3.99683 -4.55616,-5.42929 l -3.09537,-2.60461 -5.67062,-1.70304 -5.67062,-1.70303 -8.48072,-0.0263 -8.48073,-0.0262 -5.51279,1.24612 -5.5128,1.24613 -3.21737,1.95661 -3.21737,1.95661 0,29.89707 0,29.89706 1.74602,1.01692 c 0.96033,0.55939 2.26162,1.03067 2.89178,1.04729 0.63016,0.0163 5.11997,-1.96661 9.97734,-4.40737 z m 73.18535,108.62134 c -1.37187,-0.88697 -3.72008,-3.20096 -5.21825,-5.14219 l -2.72392,-3.52953 -0.61381,-3.27198 -0.61386,-3.272 1.3423,-2.82863 1.34228,-2.82864 4.40866,-2.11561 4.40865,-2.11565 1.32831,-1.81656 1.3283,-1.81656 0,-27.62224 0,-27.62227 -5.23808,-0.58526 c -2.88095,-0.32181 -6.99715,-0.94031 -9.1471,-1.37435 l -3.90898,-0.78909 -0.31517,-0.99405 c -0.17332,-0.54677 0.0345,-1.54532 0.46203,-2.21906 l 0.77718,-1.22488 7.71267,-1.47559 c 4.24197,-0.81171 8.15025,-1.74615 8.68506,-2.07671 l 0.97239,-0.601 0,-40.39885 0,-40.39885 -1.45586,-2.81532 -1.45587,-2.81532 -8.27203,-1.17489 c -4.54961,-0.64624 -9.73121,-1.39772 -11.51467,-1.67017 l -3.24261,-0.49515 0,-0.77859 c 0,-0.42829 1.0102,-1.69867 2.24489,-2.82307 2.44311,-2.22493 15.03395,-10.27621 16.07018,-10.27621 0.35152,0 4.63847,-1.80076 9.52655,-4.00183 l 8.88744,-4.0017 2.83546,1.07803 c 1.55948,0.59289 3.62202,1.78977 4.58336,2.65973 l 1.74779,1.58181 0,2.72221 0,2.72221 2.24491,0.60163 c 1.23477,0.33093 6.74375,0.60775 12.24237,0.61525 l 9.99734,0.0137 7.15855,1.98373 c 3.93717,1.09103 9.71214,3.113 12.83312,4.49335 l 5.67481,2.50963 6.60249,4.9129 c 3.63145,2.70209 8.26399,6.62906 10.2948,8.72652 l 3.69219,3.81374 2.21398,4.98863 2.21382,4.98876 0.4465,7.53526 0.44648,7.53537 -2.92042,8.47245 -2.92027,8.47244 -3.84121,5.78697 c -2.11259,3.18287 -6.09174,8.24949 -8.84249,11.25914 l -5.0013,5.47229 -3.18185,-0.59688 -3.18173,-0.59701 -1.04023,1.2665 c -0.57216,0.69661 -1.1956,2.38465 -1.3855,3.75138 l -0.345,2.48488 -4.90938,3.20774 -4.90952,3.20774 -12.38227,4.5341 -12.38233,4.5341 -2.16407,0.015 c -1.19017,0.0125 -2.83744,0.44079 -3.66056,0.96094 l -1.49662,0.94556 0,21.40675 0,21.40675 2.37847,2.53262 2.37836,2.53274 5.18121,1.07567 5.1812,1.07553 9.90075,-0.0287 c 5.44537,-0.0162 12.50852,-0.08 15.69605,-0.14285 l 5.79535,-0.11373 0.68161,0.68149 0.68162,0.68163 -1.98722,1.16558 c -1.09287,0.64109 -4.84378,2.40592 -8.33527,3.92186 l -6.34805,2.75629 -2.95754,2.48857 c -1.62653,1.36868 -3.53327,2.48852 -4.23699,2.48852 l -1.27955,0 -4.38089,3.84872 c -2.40941,2.11677 -6.30356,4.8272 -8.65355,6.02318 l -4.27277,2.17448 -9.69546,2.63558 -9.69554,2.63558 -4.98863,0.33916 -4.98873,0.33915 -2.49433,-1.61267 z m 40.68697,-107.63728 7.20667,-3.45369 7.23241,-5.36906 7.23227,-5.36906 6.98405,-7.40365 6.98419,-7.40378 2.79597,-5.76748 2.79596,-5.76748 0.50535,-4.69544 0.50534,-4.69545 -1.80459,-3.46668 -1.80487,-3.46656 -3.99088,-2.77583 -3.99089,-2.77582 -7.48304,-1.58319 -7.48305,-1.58306 -6.48519,0.57864 c -3.56694,0.31818 -9.17914,1.26587 -12.47167,2.10583 l -5.98635,1.52732 -2.28822,2.58299 -2.28821,2.58311 0.29269,28.1779 0.29279,28.17791 1.36931,1.64804 1.36929,1.64818 1.65209,0 c 0.90855,0 4.89493,-1.55419 8.85858,-3.45369 z m 343.93911,77.35738 c -2.744,-0.97793 -7.2741,-2.93666 -10.0673,-4.35276 l -5.0783,-2.57474 -3.1469,-3.58391 c -1.7307,-1.97111 -4.1448,-5.47954 -5.365,-7.79645 l -2.2181,-4.21266 -0.032,-7.48302 -0.033,-7.48301 3.1499,-6.64856 3.1498,-6.64855 7.7422,-8.10364 7.7421,-8.10364 -2.8027,-5.86409 -2.8028,-5.86408 0.5985,-2.99291 0.5987,-2.99278 -1.428,-1.18514 -1.4281,-1.18501 1.5487,-2.99466 1.5486,-2.99465 -2.2142,-2.35703 -2.2143,-2.35691 0.6327,-4.61583 0.6326,-4.61571 1.9873,-4.49261 1.9873,-4.49261 4.2431,-5.06787 4.2431,-5.06799 4.38,-2.7777 4.38,-2.7777 5.4036,-1.20926 5.4034,-1.20926 5.1946,1.64105 5.1946,1.64105 5.6959,3.56729 5.6957,3.5673 3.6345,5.98318 3.6348,5.98319 0.5104,3.80612 0.5106,3.80624 -2.2026,6.97886 -2.2026,6.97887 -3.8332,4.88128 c -2.1085,2.68472 -5.4816,7.35066 -7.4962,10.36881 -2.0145,3.01816 -5.007,6.68068 -6.65,8.13901 l -2.9872,2.65148 0.8495,1.44921 c 0.4673,0.79697 4.9377,5.78922 9.9342,11.09379 l 9.085,9.64484 1.1915,-1.43584 1.1916,-1.43572 0.1999,-2.83118 0.1998,-2.83107 -3.7365,-0.30943 -3.7365,-0.30932 -2.4993,-3.27685 -2.4995,-3.27697 0,-2.07946 0,-2.07947 1.4294,-1.42921 1.4293,-1.42934 8.2985,-2.57986 c 4.5643,-1.41897 10.5435,-3.09002 13.2874,-3.71352 l 4.9886,-1.1334 11.9727,-0.39379 c 6.5851,-0.21646 14.3301,-0.6605 17.211,-0.98668 l 5.2381,-0.59301 -5e-4,1.31886 -6e-4,1.31899 -7.0955,6.48534 c -3.9026,3.56679 -8.5044,7.88706 -10.2264,9.60047 l -3.1305,3.11525 -4.8669,0.70649 c -2.6767,0.38854 -5.4827,0.94293 -6.2357,1.23188 l -1.3691,0.52539 0,4.84442 0,4.84453 -2.1287,5.6895 -2.1289,5.68962 2.8667,2.08033 c 1.5768,1.14415 4.6675,3.46594 6.8682,5.1596 l 4.0012,3.07939 -0.1852,1.41047 c -0.1013,0.77572 -0.8063,3.09064 -1.5651,5.14411 l -1.3795,3.73388 -2.3504,2.502 -2.3507,2.50201 -3.0686,0 -3.0688,0 -3.2668,-1.99186 c -1.7968,-1.09491 -3.8689,-1.9911 -4.6047,-1.9911 -0.7359,0 -2.4794,-0.89807 -3.8749,-1.99548 -1.3951,-1.09753 -3.1394,-1.98398 -3.876,-1.96999 -0.7364,0.0138 -3.8086,1.60206 -6.8267,3.52893 l -5.4876,3.5033 -9.4387,2.95642 -9.4389,2.95636 -5.0282,-0.073 -5.0283,-0.073 -4.9887,-1.77815 z m 24.2097,-24.14508 4.3863,-2.12333 0.4884,-1.27312 0.4887,-1.27312 -10.2968,-10.06688 -10.2969,-10.06687 -1.2046,0 -1.2046,0 -2.7864,3.67265 c -1.5324,2.01997 -4.2454,5.021 -6.0289,6.6688 l -3.2426,2.99628 0,1.34923 0,1.34935 4.2403,4.32639 c 2.3323,2.37953 5.1384,4.81892 6.2359,5.42093 l 1.9955,1.09453 6.4197,0.03 6.4196,0.03 4.3864,-2.12345 z m -5.3375,-61.31994 7.7031,-6.57257 1.9239,-3.15525 1.9241,-3.15537 0,-3.16612 0,-3.166 -2.4741,-2.94042 -2.4742,-2.94029 -2.9966,-1.24125 -2.9969,-1.24138 -3.4486,0.647 -3.4485,0.64687 -2.7056,3.20874 c -1.4882,1.76477 -3.3111,4.65345 -4.0511,6.41935 l -1.346,3.21048 0,3.86449 0,3.86435 1.413,4.69482 c 1.4032,4.66282 3.1574,7.59512 4.5433,7.59512 0.3978,0 4.1898,-2.95767 8.4265,-6.57257 z m 176.9635,58.45889 c -3.1382,-0.40255 -8.8877,-1.75491 -12.7766,-3.00541 l -7.0706,-2.27342 -5.9246,-3.59854 c -3.2583,-1.9791 -8.2204,-5.39442 -11.0266,-7.58936 l -5.1023,-3.99096 -5.7691,-6.78928 -5.7691,-6.78915 -3.0184,-5.68249 c -1.66,-3.12526 -3.936,-8.6008 -5.0576,-12.16771 -1.1217,-3.56692 -2.9922,-11.63882 -4.1567,-17.93781 l -2.1174,-11.45248 0.4435,-4.51123 c 0.6406,-6.5172 3.4604,-20.99158 6.2393,-32.02676 2.7667,-10.98657 8.684,-28.41973 11.6455,-34.30856 4.4117,-8.77264 15.5109,-26.39064 22.3236,-35.43446 3.9523,-5.24659 10.265,-12.68848 14.0283,-16.53734 3.7632,-3.84899 9.9835,-9.37289 13.8229,-12.27557 l 6.9806,-5.27745 8.2733,-4.09956 8.2731,-4.09943 10.6872,-0.0675 10.6871,-0.0675 9.4785,3.82474 c 5.2132,2.10358 10.3765,3.89948 11.4741,3.99096 l 1.9954,0.16609 0.4989,-5.53265 0.4989,-5.53265 1.851,-2.82369 1.8509,-2.82356 5.4894,0.64512 5.4891,0.64512 5.3925,2.55099 5.3925,2.55112 3.4805,3.28247 3.4803,3.28248 0,4.99563 c 0,2.74745 -0.2807,6.39923 -0.6238,8.11501 l -0.6239,3.11951 -3.9354,4.47086 -3.9356,4.47099 0.6275,1.01505 0.6271,1.01504 1.8261,0 1.8261,0 2.3045,1.86601 2.3044,1.86613 -1.1849,13.84812 c -1.3637,15.93846 -2.3869,23.5527 -4.5187,33.62007 -0.8347,3.94185 -1.9524,9.41189 -2.4839,12.15572 -0.5316,2.7437 -1.7055,8.2891 -2.6088,12.32317 l -1.6422,7.33455 -2.4768,4.88765 -2.4767,4.88765 -0.8645,0 -0.8647,0 -0.6015,-2.24493 c -0.3309,-1.23462 -0.6077,-4.61645 -0.6152,-7.515 l -0.014,-5.27008 -1.3482,-3.22673 -1.3481,-3.22661 -0.7358,-12.91456 -0.7356,-12.91456 -4.2752,-12.51164 -4.2753,-12.51152 -4.2965,-8.37796 -4.2966,-8.37796 -3.5847,-3.76838 -3.5848,-3.76837 -2.7644,-0.69374 -2.7643,-0.69374 -4.3699,1.6688 c -2.4034,0.91794 -7.2104,3.54367 -10.6822,5.83496 l -6.3125,4.16605 -9.2989,9.42563 -9.299,9.42575 -7.3502,11.04893 -7.3504,11.04881 -6.9743,14.46712 c -7.4896,15.53654 -12.5064,28.38099 -16.5928,42.48231 l -2.5621,8.84125 -0.6179,7.51288 -0.6177,7.51288 -2.3356,2.80995 -2.3354,2.81006 1.4681,2.83919 c 0.8077,1.56144 2.7474,3.88885 4.3108,5.17185 l 2.8425,2.33266 2.6726,4.68069 2.6725,4.6807 4.7317,4.84491 4.7313,4.84516 4.8343,2.33254 4.8341,2.33266 11.1296,-0.52289 11.1295,-0.5229 9.6617,-3.12975 c 5.3141,-1.72141 12.2433,-4.27166 15.3987,-5.667 l 5.7369,-2.53712 1.7727,0.46365 1.7728,0.46354 2.8654,-2.73833 2.8656,-2.73834 7.0355,-2.68846 7.0357,-2.68847 1.8594,-2.05459 c 1.0227,-1.13002 3.0319,-2.66097 4.465,-3.40207 l 2.6055,-1.34736 1.1836,-2.79082 1.1836,-2.79082 5.6473,-3.43045 c 3.106,-1.88675 7.3339,-4.95439 9.3956,-6.81689 l 3.7484,-3.38645 3.9598,-6.27001 3.9599,-6.27 1.4922,-0.57264 1.4923,-0.57264 1.2209,1.47134 1.2211,1.47133 -1.1126,2.21081 c -0.612,1.21601 -2.2155,6.78478 -3.5633,12.37517 l -2.4507,10.16423 -4.8155,8.79263 -4.8155,8.79275 -6.6687,6.67343 -6.6684,6.67354 -2.8627,1.48021 -2.8626,1.48021 -1.9233,-0.17184 -1.9237,-0.17185 -2.7757,5.48754 -2.7755,5.48753 -10.716,6.67655 -10.7157,6.67655 -8.9795,2.98191 -8.9798,2.98203 -7.8045,1.06717 c -8.5472,1.16864 -13.1878,1.18426 -21.8471,0.0737 z m -941.00527,-17.35493 -3.85399,-1.44834 -2.97208,-2.82269 -2.9721,-2.82269 -1.95917,-3.80974 -1.95919,-3.80974 -0.56015,-4.72944 -0.56015,-4.72956 2.37991,-2.76683 2.37991,-2.76682 6.25197,-0.7371 6.25197,-0.73723 1.69838,-1.69829 1.69837,-1.69841 0.51173,-9.20005 0.51175,-9.20017 2.99319,-0.50978 2.99321,-0.50977 0.30968,-2.67647 0.30967,-2.67659 -2.80399,-1.78552 c -1.54221,-0.98193 -3.13388,-2.24481 -3.53705,-2.8062 l -0.733,-1.02079 -0.0154,-28.71617 -0.0152,-28.71605 1.24716,-0.3843 c 0.68594,-0.21121 2.43234,-0.64225 3.88089,-0.95781 l 2.63372,-0.57351 0.63364,-1.6513 0.63364,-1.65129 -1.27189,-1.70279 c -0.69955,-0.93656 -2.78326,-3.67702 -4.6305,-6.08979 l -3.35858,-4.38688 0.80655,-15.96383 c 0.4436,-8.78 0.83253,-20.30584 0.86426,-25.61304 l 0.0576,-9.64933 -2.40923,-2.56274 -2.40923,-2.56262 -5.57264,-2.07783 -5.5726,-2.07784 -2.16427,-2.02147 -2.16427,-2.02148 -2.12476,-4.93914 -2.12475,-4.93902 -0.16344,-5.8972 -0.16347,-5.89708 2.33676,-2.48738 2.33675,-2.48739 8.60098,-3.144 8.60098,-3.144 15.46486,-2.88555 15.46487,-2.88555 17.95918,0.0213 17.9592,0.0212 9.59418,0.93369 9.59414,0.93357 8.19885,2.99228 c 4.50938,1.64567 10.97488,4.54459 14.3678,6.44209 3.39291,1.89737 8.20207,5.23946 10.68705,7.42678 l 4.5181,3.97708 6.32946,8.8255 6.32943,8.82562 4.78156,9.97739 4.78157,9.97727 1.6758,6.48534 1.67581,6.48521 0.0895,7.48301 0.0896,7.48302 -1.29235,5.48753 -1.29233,5.48754 -3.90057,7.98179 -3.90057,7.98191 -5.73268,6.66093 c -3.15296,3.66352 -7.97757,8.65428 -10.72134,11.09067 -2.74377,2.43639 -8.50527,6.95212 -12.80333,10.03488 l -7.81468,5.60514 -12.13998,5.87371 c -15.30489,7.4049 -33.16444,14.55498 -41.57311,16.64382 -3.56689,0.88607 -8.14873,2.03809 -10.18186,2.55986 l -3.69661,0.94881 -1.54149,1.54145 -1.5415,1.54157 0,12.94455 0,12.94468 2.28855,2.28855 2.28857,2.28854 4.06712,0.65037 4.06713,0.65037 1.24947,1.50558 1.24949,1.50545 5.11591,0.015 5.11595,0.015 4.30664,1.50008 4.30664,1.49995 0.92414,-0.57113 c 0.87027,-0.5379 21.87306,-1.65468 28.37642,-1.50895 1.64626,0.0375 4.56463,0.0737 6.48526,0.0812 1.92065,0.0125 4.10386,0.23345 4.8516,0.5014 l 1.35955,0.48728 -1.23226,1.48483 -1.23228,1.48483 -1.55828,0 c -0.85708,0 -3.60823,0.95381 -6.11368,2.11958 -2.50544,1.16589 -7.24925,3.3717 -10.54177,4.90202 -3.29251,1.5302 -8.68028,3.54268 -11.97279,4.47212 -3.29252,0.92931 -7.46083,2.31529 -9.26288,3.07988 l -3.2765,1.3901 -3.73508,0 -3.7351,0 -2.18203,1.52832 c -3.26208,2.28493 -9.64056,4.35002 -20.2121,6.54408 l -9.47846,1.96711 -11.97279,0.49852 -11.97279,0.49841 -3.85399,-1.44834 z M 552.26,321.33808 l 8.84468,-3.49518 4.31787,0.6475 4.31788,0.64749 1.59955,-2.44114 1.59954,-2.44126 -0.6009,-2.39415 -0.60092,-2.39415 1.96898,-1.78202 1.969,-1.7819 2.14224,1.14652 2.14223,1.14653 1.51883,-1.2605 1.51883,-1.2605 -0.55511,-2.77558 -0.55513,-2.7757 4.98385,-5.69524 c 6.22602,-7.11484 11.24703,-14.63547 14.72057,-22.04899 l 2.68377,-5.72787 6.5e-4,-8.97959 6.4e-4,-8.97959 -2.65438,-5.66225 -2.65437,-5.66238 -4.08285,-4.42937 -4.08284,-4.42924 -5.81761,-2.61086 -5.8176,-2.61073 -7.65622,-1.13877 -7.6562,-1.13865 -9.72095,1.17951 c -5.34652,0.64888 -10.46987,1.39598 -11.38524,1.6603 l -1.66429,0.48053 -3.45609,-3.03452 -3.4561,-3.0344 -2.07808,0 -2.07808,0 -1.03283,1.92987 c -0.56805,1.06141 -1.03284,3.00652 -1.03284,4.32264 l 0,2.39277 -3.66328,2.41202 c -2.01481,1.32661 -4.54302,3.60816 -5.61826,5.07 l -1.95499,2.65797 -0.82108,15.80011 -0.82112,15.80011 -0.0459,28.49409 -0.0459,28.49409 1.24718,1.57256 c 0.68594,0.86483 1.92063,1.77465 2.74377,2.0216 l 1.49659,0.44916 11.47393,-2.42289 11.47393,-2.42289 8.84466,-3.49506 z m 93.92182,108.7449 c -1.64624,-0.21833 -5.38468,-1.07154 -8.3076,-1.896 l -5.3144,-1.49908 -4.20729,-4.20728 -4.20729,-4.20729 -4.38257,-11.45685 -4.38255,-11.45698 -0.41641,-13.43033 -0.41639,-13.43021 1.18501,-7.34591 1.18502,-7.34579 2.40272,-7.06423 c 1.3215,-3.88547 4.01332,-9.99451 5.98181,-13.57567 4.28653,-7.79846 11.11293,-16.8704 17.61377,-23.4081 l 4.75689,-4.7838 8.26956,-3.96797 8.26958,-3.96796 5.08703,-0.6025 5.08702,-0.60251 5.17609,2.81719 5.17607,2.81719 5.298,5.09049 5.298,5.09049 2.48809,4.93864 2.4881,4.93877 1.12183,5.2872 1.12183,5.2872 -0.005,12.67199 -0.005,12.67198 -1.04168,3.75088 -1.04166,3.75088 -2.19538,1.42459 -2.19541,1.42459 -6.98413,1.14203 c -7.0024,1.14489 -41.40107,9.68845 -48.88892,12.14233 l -3.99093,1.30799 -1.73905,3.55492 -1.73908,3.55492 1.69176,4.42687 c 0.93047,2.43489 2.73917,6.12691 4.0193,8.20462 l 2.32755,3.77763 3.20729,2.02285 3.2073,2.02272 6.07587,-0.43454 6.07589,-0.43466 6.39577,-2.82069 c 3.51769,-1.55132 11.78101,-6.04243 18.36295,-9.98015 l 11.96717,-7.15945 1.35938,0.52165 1.35938,0.52164 -0.53343,3.2871 c -0.29338,1.80789 -1.43856,5.33332 -2.54482,7.8342 l -2.01139,4.54709 -2.47917,0 -2.47915,0 -1.63474,1.63468 -1.63471,1.6348 0.15937,4.10218 c 0.0877,2.2563 0.11772,4.58897 0.0669,5.18397 l -0.0925,1.08166 -8.75843,4.1623 -8.75843,4.16217 -6.95586,1.47346 c -6.88908,1.45934 -9.13682,1.58144 -14.93773,0.81209 z m 9.53681,-73.623 16.40427,-3.68914 4.15503,-1.80914 4.15503,-1.80914 1.08307,-2.02373 1.08305,-2.02372 0,-10.52154 0,-10.52166 -1.60857,-4.0202 -1.60857,-4.0202 -2.35629,-0.59138 -2.3563,-0.59138 -4.50388,2.18031 -4.50388,2.1802 -7.45482,6.96199 c -4.10016,3.82911 -8.98576,9.0672 -10.8569,11.64019 -1.87114,2.57298 -5.30479,8.34709 -7.63031,12.83132 l -4.22824,8.15326 0.70695,1.14377 0.70695,1.1439 1.20458,-0.46216 c 0.66252,-0.25432 8.5865,-2.12245 17.60883,-4.15155 z m 316.1056,71.94383 c -1.98532,-0.70948 -5.24438,-2.30029 -7.24239,-3.53517 l -3.63294,-2.24518 -2.49647,-4.26003 c -1.37307,-2.34291 -4.17525,-8.92635 -6.22698,-14.62972 l -3.73052,-10.36969 0.0931,-15.9637 0.0931,-15.96383 2.16187,-7.98179 2.16173,-7.98191 4.04527,-8.48069 4.04542,-8.48069 5.40419,-7.0711 c 2.97225,-3.8891 7.8899,-9.422 10.92805,-12.29518 l 5.52365,-5.22421 7.51451,-3.47182 7.5145,-3.47193 4.85667,-0.57526 4.8569,-0.57514 4.3233,2.11083 4.3234,2.11096 6.1942,5.54402 6.1944,5.54403 3.2841,6.66555 3.2841,6.66555 0.3235,17.48665 0.3231,17.48678 -1.027,2.69146 -1.027,2.69159 -2.2895,1.48546 -2.2894,1.48545 -9.0102,1.55269 c -4.9556,0.85396 -17.527,3.82025 -27.93658,6.5917 l -18.9264,5.03912 -4.48975,2.20181 -4.48988,2.20169 0.16777,6.15665 0.16764,6.15665 2.03607,4.60271 2.03593,4.60272 3.50121,1.46283 3.50144,1.46296 7.26543,-0.0175 7.26568,-0.0175 8.41458,-3.41233 8.41446,-3.41232 1.8952,1.0143 1.8953,1.0143 1.8228,-1.64967 c 1.0024,-0.9072 2.0714,-2.62661 2.3756,-3.82099 l 0.5531,-2.17145 6.2768,-4.24041 6.2771,-4.24028 1.8359,0 1.8359,0 2.8539,-2.03222 c 1.5696,-1.11765 4.9314,-2.95104 7.4706,-4.07432 l 4.6165,-2.04209 0.5217,0.52165 0.5215,0.52164 -1.6723,4.37888 -1.6723,4.37901 -3.8903,5.13998 c -2.1397,2.82706 -4.7865,6.8965 -5.8817,9.04333 l -1.9913,3.90335 -5.0488,4.41662 -5.0487,4.4165 -9.2036,4.63208 -9.2036,4.63208 -4.74829,1.24575 -4.74806,1.24563 -1.54419,-2.20469 -1.54432,-2.20481 -2.68709,0 -2.68722,0 -3.99108,2.45813 c -2.19506,1.35198 -4.66432,2.45239 -5.48741,2.44539 -0.82321,-0.0125 -3.12104,-0.59313 -5.10622,-1.30249 z m 16.0811,-71.51754 c 7.40828,-1.64092 16.28027,-3.90822 19.71557,-5.03837 l 6.246,-2.05485 1.1017,-2.05821 1.1015,-2.05834 0.1354,-11.57583 0.1352,-11.5757 -2.0762,-3.49206 -2.0762,-3.49205 -3.494,0.0987 -3.494,0.0987 -6.13343,4.1653 -6.13378,4.16529 -2.37041,-0.595 -2.37053,-0.59489 -1.6408,1.64093 -1.64105,1.64092 0.61126,2.43502 0.61113,2.43502 -3.95609,5.22521 c -2.17595,2.87393 -5.81797,8.6479 -8.09332,12.83107 l -4.13707,7.60587 0,2.23843 0,2.23843 2.24488,-0.65025 c 1.23473,-0.35755 8.30609,-1.99285 15.71424,-3.63378 z m 619.86147,72.19341 -2.225,-0.42979 -2.0154,-2.56212 -2.0154,-2.56199 0,-1.73878 0,-1.73878 -1.409,-1.16939 -1.409,-1.16939 -6.0466,2.54499 c -3.3255,1.39972 -9.5385,3.69777 -13.8063,5.10686 l -7.7599,2.56187 -9.0595,0.56664 -9.0597,0.56663 -5.2939,-1.75827 -5.2938,-1.7584 -3.8495,-3.47769 -3.8495,-3.47781 -1.5023,-5.05874 -1.5024,-5.05887 0,-4.76218 0,-4.76218 2.4174,-6.65955 2.4173,-6.65968 3.7343,-5.42192 3.7342,-5.4218 5.5718,-4.0227 5.572,-4.02258 11.9726,-5.83271 11.9728,-5.83272 8.7892,-2.19144 8.7893,-2.19144 2.0953,-1.69666 2.0951,-1.69666 -1.1015,-9.6967 -1.1014,-9.69658 -1.8011,-3.68489 -1.8011,-3.68477 -7.9819,-0.28094 -7.9819,-0.28095 -7.9818,3.87998 -7.9818,3.87998 -7.4831,5.55215 c -4.1156,3.05364 -8.0563,6.14828 -8.7571,6.87713 -0.7008,0.72873 -2.3531,2.67197 -3.6721,4.31827 l -2.398,2.99316 -1.1999,-1.1804 -1.1999,-1.18051 2.6923,-6.8014 c 1.4808,-3.74076 4.1222,-9.2053 5.8698,-12.14334 l 3.1774,-5.34181 5.8605,-4.91528 c 3.2234,-2.70346 7.728,-6.00955 10.01,-7.34704 2.2822,-1.33736 6.1553,-3.1455 8.6067,-4.01782 l 4.457,-1.58606 7.1804,-0.04 7.1803,-0.04 5.3369,2.44327 5.3369,2.44339 3.6555,3.20961 3.6558,3.20974 2.4203,5.1701 2.4202,5.17022 1.1344,5.39168 1.1346,5.39168 0.9605,14.06408 c 0.5283,7.73521 0.9673,17.99267 0.9753,22.79422 l 0.015,8.73014 0.939,0 c 0.5162,0 1.2161,-0.44891 1.5554,-0.99768 l 0.6165,-0.9978 2.0613,0 2.0613,0 -0.6474,3.24273 c -0.3562,1.7834 -1.9836,6.09917 -3.6169,9.59047 l -2.9692,6.34787 0,1.88337 0,1.8835 1.0528,0 c 0.5789,0 3.6097,-1.31136 6.7348,-2.91404 8.3743,-4.2949 14.6353,-7.06335 15.9741,-7.06335 l 1.1816,0 0,0.92719 c 0,0.51003 -1.827,3.67765 -4.0597,7.03935 l -4.0598,6.11204 -0.769,4.86466 -0.7691,4.86453 -1.6165,2.46714 -1.6166,2.46726 -5.278,2.99603 -5.278,2.99603 -5.4192,1.58981 c -2.9804,0.87445 -5.6743,1.52869 -5.9864,1.45396 -0.3121,-0.075 -1.5684,-0.32931 -2.7922,-0.56564 z m -35.6826,-22.71511 7.6649,-1.46646 5.6429,-2.57362 c 3.1035,-1.41546 7.3285,-3.73638 9.3887,-5.15747 l 3.7458,-2.58386 1.9911,-3.22161 1.9911,-3.22174 0,-4.16792 0,-4.16805 -2.4489,-2.44889 -2.4491,-2.44901 -1.919,0 -1.9191,0 -1.4996,-2.24493 -1.4997,-2.2448 -1.9091,1.71516 -1.9093,1.71516 -6.7533,2.08583 -6.7533,2.08596 -3.6784,3.25136 c -2.0231,1.78814 -5.7944,4.74393 -8.3808,6.56832 l -4.7024,3.31709 -2.4314,3.59878 c -1.3371,1.97936 -2.738,4.63096 -3.1128,5.89258 l -0.6815,2.29367 1.6025,2.44552 1.6024,2.44551 5.3768,0 5.3768,0 7.6647,-1.46658 z m -505.6882,18.03117 -3.6608,-3.66078 -2.4942,-4.92214 -2.4944,-4.92215 0,-2.46864 0,-2.46863 1.2424,-0.76772 1.2421,-0.76773 8.4857,-0.04 8.4857,-0.04 0.6007,-19.95466 0.6007,-19.95466 1.2248,-5.22359 1.2249,-5.22359 -0.3289,-12.90768 -0.3291,-12.90769 -2.2097,-2.34903 -2.2096,-2.34904 0.5768,-2.20593 0.5768,-2.20607 -1.6772,-0.64349 -1.677,-0.64363 -2.1774,1.14603 -2.1776,1.14589 -4.9888,-1.90799 -4.9886,-1.90787 -0.3398,-1.68879 -0.3397,-1.68879 2.2151,-2.35766 2.2148,-2.35778 8.601,-3.16012 8.6009,-3.16012 5.5502,-0.11748 5.5499,-0.11748 2.7645,1.81139 2.7646,1.81139 1.4134,3.38246 1.4132,3.38245 0,5.02063 0,5.02075 1.2471,-5e-4 1.2473,-6.3e-4 5.706,-6.38073 5.7058,-6.38061 4.337,-2.09945 4.3369,-2.09959 4.5921,0 c 2.5256,0 5.3366,0.28582 6.2467,0.635 l 1.6546,0.635 0.8965,2.35816 0.8967,2.35828 2.8312,0 2.8312,0 2.5575,2.74383 2.5575,2.7437 4.1145,8.51581 4.1144,8.51581 -0.058,1.96036 c -0.031,1.07829 -0.8581,5.03088 -1.8365,8.78376 l -1.7787,6.82327 -4.3996,1.96573 -4.3994,1.96561 -2.6508,2.53312 -2.651,2.53325 -5.956,-2.67297 -5.956,-2.67284 -1.0834,-2.37778 -1.0833,-2.37778 0.8268,-0.51102 0.8267,-0.5109 1.7846,1.97186 1.7845,1.97198 2.648,0 2.6477,0 1.6341,-1.24713 1.6341,-1.24725 1.5353,-4.48973 c 0.8445,-2.46939 1.5418,-5.29595 1.5498,-6.28125 l 0.015,-1.7914 -2.4944,-2.49425 c -1.3718,-1.37186 -2.4942,-2.84469 -2.4942,-3.27285 0,-0.42817 -1.0391,-1.75465 -2.3091,-2.94779 l -2.3093,-2.16945 -5.4507,0 -5.4506,0 -2.2393,1.56857 -2.2396,1.56856 -2.8323,5.665 c -1.5578,3.11576 -3.5563,7.9098 -4.4411,10.65363 -0.8849,2.74371 -2.7561,11.71368 -4.1585,19.93304 l -2.5498,14.94441 -0.1,7.73259 -0.1,7.73259 1.7097,2.60911 1.7094,2.6091 4.2879,1.89675 4.2878,1.89662 0.5429,2.07559 0.5427,2.07546 2.0464,-1.09515 2.0464,-1.09516 1.9568,1.22213 1.9568,1.22201 2.4792,-1.32674 2.479,-1.32673 2.8207,0.70411 c 1.5512,0.38717 3.494,1.28224 4.3172,1.98885 0.8231,0.70674 2.7404,1.58056 4.2607,1.94187 l 2.7644,0.65712 2.0821,-1.11441 2.082,-1.11428 0.9547,0.95481 0.9548,0.95469 -1.7095,1.70953 -1.7094,1.70941 -2.0226,-0.52889 -2.0225,-0.5289 -2.5681,1.38198 c -3.9019,2.10008 -12.054,4.5096 -15.2569,4.5096 l -2.8552,0 -4.2008,2.17432 -4.2004,2.1742 -10.9752,0.73897 c -6.0362,0.4063 -15.2767,1.06029 -20.5342,1.45309 l -9.5592,0.71436 -3.6609,-3.6609 z m 578.9189,0.7551 c -1.4249,-1.56894 -3.333,-3.96272 -4.2404,-5.31945 l -1.6496,-2.46688 0,-2.7712 0,-2.7712 1.9561,-1.95624 1.9562,-1.95611 5.5255,-1.60631 5.5254,-1.6063 0.5688,-2.2663 0.5689,-2.2663 -0.3179,-35.82664 -0.3182,-35.8265 -2.0495,-3.48869 -2.0492,-3.48868 -3.4382,-2.31704 -3.4382,-2.31691 0,-1.17852 0,-1.17851 9.4785,-3.21724 c 5.2132,-1.7694 10.3764,-3.22861 11.4741,-3.24261 l 1.9955,-0.025 2.5853,3.2426 2.5853,3.24249 1.2767,3.99095 c 0.7021,2.19507 1.6566,4.40263 2.1208,4.90578 l 0.8444,0.91482 7.2665,-7.54775 7.2665,-7.54763 4.2405,-1.13802 4.2403,-1.13803 3.7633,1.01343 3.7633,1.01329 4.2337,3.11339 4.2334,3.11338 2.3815,4.14305 c 1.3099,2.27867 2.6771,5.56252 3.038,7.29743 l 0.6568,3.15437 -1.1248,6.32412 c -0.6188,3.47818 -2.2578,10.07225 -3.6424,14.65346 l -2.5174,8.32947 -5.9012,6.04943 -5.9011,6.04954 -0.613,-0.61287 -0.6127,-0.61288 1.7069,-6.96562 1.707,-6.96562 -0.5676,-10.22009 -0.5678,-10.2201 -1.007,-1.00705 -1.0072,-1.00717 -5.5403,1.74653 -5.5405,1.7464 -3.0725,4.17692 c -1.6899,2.29729 -3.6927,5.62213 -4.4506,7.38866 l -1.3781,3.21186 -2.4938,16.43061 -2.4937,16.43061 0,6.09867 0,6.09879 1.4595,2.82269 c 0.803,1.55256 2.0378,3.03864 2.7439,3.30246 0.7063,0.26383 6.6718,0.15872 13.2568,-0.23345 l 11.9728,-0.71298 0.9019,0.80709 0.9017,0.80709 -2.7353,3.58641 c -1.5046,1.97248 -4.1902,4.53985 -5.9682,5.70537 l -3.2327,2.11907 -2.1569,3.29048 -2.157,3.29047 -2.6093,1.70966 -2.6094,1.70978 -9.6233,0.72199 c -5.2926,0.39717 -13.8884,1.03704 -19.1015,1.42209 l -9.4785,0.70011 -2.5908,-2.85256 z m 85.223,1.00879 c -1.1963,-1.02629 -3.329,-3.61228 -4.7392,-5.7466 l -2.5641,-3.88073 0,-1.93299 0,-1.93299 2.7953,-2.79532 2.7953,-2.79532 4.1313,-0.69799 4.1315,-0.69799 0.963,-1.16926 0.9632,-1.16915 0.2126,-34.92056 0.2127,-34.92069 -0.9964,-4.77518 -0.9961,-4.77517 -1.7569,-1.94137 -1.7569,-1.94136 -5.1,-1.89975 -5.0997,-1.89987 -0.2722,-1.36098 -0.2721,-1.36098 12.6503,-2.25743 12.6504,-2.25742 2.5877,1.64579 c 1.4232,0.90507 3.582,2.81894 4.797,4.25291 l 2.2092,2.60711 0.6456,3.2426 0.6456,3.24261 1.1362,-0.0125 1.1361,-0.0125 4.6882,-5.88008 4.6886,-5.87996 5.4849,-2.68359 5.485,-2.68347 3.296,0.70999 c 1.8128,0.39055 4.643,1.3806 6.2891,2.20031 3.8414,1.91262 8.2944,6.05255 9.9813,9.27966 l 1.3224,2.5295 -1.4241,12.9353 -1.4241,12.93531 -2.9548,4.48986 c -1.6251,2.46938 -3.723,5.94894 -4.662,7.73233 l -1.7069,3.24274 -1.6154,0 -1.6152,0 -0.096,-8.23137 -0.098,-8.23124 -1.6965,-4.22129 -1.6963,-4.22116 -3.2597,-2.0146 -3.26,-2.0146 -2.503,0 -2.5031,0 -1.9958,4.73919 c -1.0975,2.6066 -2.6983,6.98411 -3.5573,9.72794 -1.694,5.41092 -5.1699,26.61621 -6.2359,38.04294 l -0.6637,7.11334 1.1658,3.53255 c 0.6412,1.94286 1.7041,3.97221 2.362,4.50985 l 1.1961,0.97718 5.4876,-0.9818 c 3.0181,-0.54014 8.1815,-1.10303 11.4739,-1.25113 3.2925,-0.14797 6.7267,-0.58963 7.6315,-0.9813 l 1.6451,-0.71224 0.7063,1.1429 0.7064,1.1429 -6.5588,6.30562 -6.559,6.30575 -1.5587,3.89548 -1.5585,3.89547 -3.1936,1.8865 -3.1938,1.8865 -9.4983,0.70486 c -5.224,0.38767 -13.5391,1.02867 -18.4779,1.42447 l -8.9796,0.71961 -2.1752,-1.86588 z m 113.4223,0.085 -5.4875,-1.50695 -5.3019,-3.62978 -5.3017,-3.62991 -3.9118,-4.57371 -3.9114,-4.57384 -2.9073,-5.98644 -2.9073,-5.98631 -1.0993,-5.28733 -1.0992,-5.2872 0.02,-9.17992 0.02,-9.1798 0.9703,-6.70817 0.9701,-6.70817 2.1426,-6.26238 c 2.8199,-8.24261 7.3939,-17.32931 11.0733,-21.99838 l 2.9652,-3.76313 6.2578,-4.46536 c 3.4418,-2.45601 8.7113,-5.58864 11.71,-6.96149 l 5.4523,-2.49613 7.3954,-0.60288 7.3955,-0.60276 6.9618,1.63793 6.9619,1.63792 4.1684,2.44277 4.1682,2.44276 3.0849,3.89485 3.0846,3.89485 3.4634,7.34292 c 1.9048,4.03857 4.1781,10.03663 5.052,13.32923 l 1.5887,5.98643 0.5577,9.47837 0.5576,9.47849 -1.6142,8.48069 c -0.8878,4.66445 -2.0747,10.12637 -2.6373,12.13759 l -1.0229,3.65678 -3.4687,2.04659 -3.4685,2.04647 0,1.54369 c 0,0.84921 0.5538,2.43064 1.2307,3.51455 l 1.2307,1.97061 -1.979,3.68889 c -1.0884,2.02885 -4.0714,5.98157 -6.629,8.78376 l -4.6501,5.09486 -5.3273,2.94104 -5.3272,2.94104 -12.4718,0.24196 -12.4716,0.24195 -5.4874,-1.50695 z m 23.9022,-20.65802 5.5026,-1.24713 3.8178,-3.8035 3.8177,-3.80361 1.9392,-4.52436 1.9394,-4.52422 1.0995,-7.08684 1.0997,-7.08672 -0.6636,-14.01847 c -0.365,-7.71022 -0.645,-16.10417 -0.6223,-18.65342 l 0.04,-4.63483 -2.6951,-1.76577 c -1.4822,-0.97118 -5.0843,-3.71201 -8.0048,-6.09079 l -5.3097,-4.32502 -3.2722,0 -3.2722,0 -5.1224,1.5212 -5.1226,1.5212 -3.2136,2.70434 -3.214,2.70433 -3.7948,5.87121 -3.7948,5.87121 -0.6087,3.62203 c -0.3348,1.99223 -0.818,4.38801 -1.0737,5.32394 -0.2557,0.93594 -2.2369,3.84612 -4.4028,6.46697 l -3.9375,4.76518 0,1.54257 0,1.54269 1.8412,1.57669 1.8415,1.57668 0.6854,5.83185 0.6855,5.83184 4.3131,9.10519 4.3133,9.10532 2.9243,2.08221 c 3.4514,2.45763 8.484,4.03007 13.2983,4.15517 1.9045,0.05 5.939,-0.47115 8.9654,-1.15714 z m 89.061,19.62772 -5.1611,-2.57186 -2.5655,-3.0489 c -1.4109,-1.67691 -3.401,-4.68681 -4.4223,-6.68879 l -1.857,-3.6399 -1.0887,-5.88858 -1.0884,-5.88858 -0.07,-26.50612 -0.07,-26.50611 -0.7802,-1.99547 -0.7802,-1.99548 -7.2005,0 -7.2003,0 -3.9221,-4.20167 -3.9221,-4.20179 0,-2.54649 0,-2.5465 -1.1551,-1.84975 -1.155,-1.84976 0.5437,-1.41735 0.5438,-1.41746 5.8862,-3.08539 5.8861,-3.08539 5.757,-1.28837 5.7569,-1.28824 1.1905,-2.07346 1.1906,-2.07347 -0.256,-20.28184 -0.2561,-20.28185 -1.0604,-1.98148 -1.0604,-1.98148 1.1891,-1.43284 1.1892,-1.43284 1.9921,0 1.9923,0 5.8384,3.54667 5.8383,3.54654 2.1001,2.94942 2.1002,2.94929 0.5808,15.11287 0.5809,15.11275 1.8532,1.85313 1.853,1.85313 2.7286,-0.65562 c 1.5008,-0.36055 4.3,-1.43334 6.2205,-2.3839 l 3.4922,-1.72828 7.8379,-0.71948 7.838,-0.71949 3.636,-1.54931 3.6358,-1.54932 5.2275,-0.10123 5.2273,-0.10123 0.4889,1.27462 0.4889,1.27475 -1.7253,1.40634 c -0.9489,0.77347 -3.8312,3.11826 -6.4051,5.21059 -2.5738,2.09234 -8.488,7.2062 -13.1429,11.36412 l -8.4629,7.55975 -8.8074,3.33071 c -4.8439,1.83189 -9.4807,3.94522 -10.3039,4.69632 l -1.4965,1.36573 -0.3213,27.65313 -0.3216,27.65313 0.6466,5.27058 0.6469,5.2707 2.3152,2.69159 2.3152,2.69172 3.0668,-1.47708 3.0667,-1.47708 11.3566,-11.11067 c 6.246,-6.11079 12.3299,-11.63157 13.5197,-12.26831 l 2.1631,-1.15777 0.8517,0.52652 0.8518,0.52639 -0.8065,4.25891 c -0.4438,2.34241 -1.5235,5.96131 -2.3997,8.04202 l -1.5932,3.783 -3.0965,2.76683 -3.0965,2.7667 1.1546,2.15757 1.1546,2.15757 -1.5665,3.76438 -1.5668,3.76425 -4.1931,4.36438 c -2.3063,2.4004 -6.1892,5.6555 -8.629,7.23357 l -4.4358,2.86918 -5.595,0 -5.595,0 -5.1612,-2.57199 z"
       id="path4376"
       inkscape:connector-curvature="0" />
  </g>
</svg>
