<?xml version="1.0" encoding="UTF-8" standalone="no"?>
<!-- Created with Inkscape (http://www.inkscape.org/) -->

<svg
   xmlns:dc="http://purl.org/dc/elements/1.1/"
   xmlns:cc="http://creativecommons.org/ns#"
   xmlns:rdf="http://www.w3.org/1999/02/22-rdf-syntax-ns#"
   xmlns:svg="http://www.w3.org/2000/svg"
   xmlns="http://www.w3.org/2000/svg"
   xmlns:xlink="http://www.w3.org/1999/xlink"
   xmlns:sodipodi="http://sodipodi.sourceforge.net/DTD/sodipodi-0.dtd"
   xmlns:inkscape="http://www.inkscape.org/namespaces/inkscape"
   id="svg2"
   version="1.1"
   inkscape:version="0.92.1 renderfarm"
   width="2481"
   height="663"
   sodipodi:docname="Pepper-and-Carrot_by-David-Revoy_E02P00_092.svg">
  <sodipodi:namedview pagecolor="#ffffff" bordercolor="#666666" inkscape:pageopacity="0" inkscape:pageshadow="2" inkscape:window-width="1813" inkscape:window-height="955" id="namedview70" showgrid="false" inkscape:zoom="0.4" inkscape:cx="1284.4231" inkscape:cy="2618.6204" inkscape:current-layer="layer1" /><metadata
     id="metadata8">
    <rdf:RDF>
      <cc:Work
         rdf:about="">
        <dc:format>image/svg+xml</dc:format>
        <dc:type
           rdf:resource="http://purl.org/dc/dcmitype/StillImage" />
        <dc:title />
      </cc:Work>
    </rdf:RDF>
  </metadata>
  <defs
     id="defs6" />
  <sodipodi:namedview
     pagecolor="#ffffff"
     bordercolor="#666666"
     borderopacity="1"
     objecttolerance="10"
     gridtolerance="10"
     guidetolerance="10"
     inkscape:pageopacity="0"
     inkscape:pageshadow="2"
     inkscape:window-width="1920"
     inkscape:window-height="1026"
     id="namedview4"
     showgrid="false"
     inkscape:zoom="0.59975816"
     inkscape:cx="1243.8347"
     inkscape:cy="314.82661"
     inkscape:window-x="0"
     inkscape:window-y="27"
     inkscape:window-maximized="1"
     inkscape:current-layer="layer1" />
  <g
     inkscape:groupmode="layer"
     id="layer2"
     inkscape:label="artwork"
     sodipodi:insensitive="true">
    <image
       sodipodi:absref="/home/deevad/peppercarrot/webcomics/ep02_Rainbow-potions/lang/id/../gfx_Pepper-and-Carrot_by-David-Revoy_E02P00.png"
       xlink:href="../gfx_Pepper-and-Carrot_by-David-Revoy_E02P00.png"
       y="0"
       x="-1.6728083e-06"
       id="image10"
       height="663"
       width="2481" />
  </g>
  <g
     inkscape:groupmode="layer"
     id="layer1"
     inkscape:label="text">
    <flowRoot
       xml:space="preserve"
       id="flowRoot3063"
       style="font-style:normal;font-variant:normal;font-weight:normal;font-stretch:normal;line-height:0.01%;font-family:Arial;-inkscape-font-specification:Arial;letter-spacing:0px;word-spacing:0px;display:inline;fill:#562f13;fill-opacity:1;stroke:none"
       transform="matrix(0.77923967,0,0,0.77489763,109.6526,205.64648)"><flowRegion
         id="flowRegion3065"><rect
           id="rect3067"
           width="2715.5891"
           height="110.01318"
           x="92.642677"
           y="425.30325"
           style="font-size:72px;fill:#562f13;fill-opacity:1" /></flowRegion><flowPara
         id="flowPara3069"
         style="font-style:normal;font-variant:normal;font-weight:normal;font-stretch:normal;font-size:88px;line-height:1.25;font-family:Lavi;-inkscape-font-specification:Lavi;text-align:center;text-anchor:middle;fill:#562f13;fill-opacity:1">Episode 2 : Ramuan pelangi</flowPara></flowRoot>    <path
       style="display:inline;fill:#562f13;fill-opacity:1;stroke:none"
       d="m 718.45905,506.81151 c -1.96564,-1.72586 -4.22373,-4.39457 -5.01798,-5.93047 l -1.44407,-2.79254 0,-4.08145 0,-4.08143 2.44635,-2.44633 2.44635,-2.44636 1.78946,-0.0317 c 0.98421,-0.0175 2.65418,-0.68589 3.71107,-1.48546 l 1.92161,-1.45377 0.74645,-5.24197 0.74644,-5.24207 0.0728,-22.73952 0.0728,-22.73952 -1.03172,-1.92779 -1.03173,-1.9278 -1.77734,0 c -0.97757,0 -4.15498,-0.7061 -7.06094,-1.56912 l -5.28355,-1.569 -2.37229,-2.37235 -2.3723,-2.37223 0,-1.54029 0,-1.54028 5.73079,-0.0412 5.73081,-0.0412 4.48499,-2.20144 4.48496,-2.20132 0.28477,-34.88317 0.28476,-34.88317 -1.183,-4.31151 -1.18302,-4.31163 -2.09173,-1.35677 -2.09175,-1.35677 -8.72079,-0.69786 -8.72077,-0.69786 0,-1.19373 0,-1.1936 4.40803,-4.4713 4.40804,-4.47118 12.61427,-5.70161 12.61429,-5.70173 1.91961,0.60922 c 1.05581,0.3352 3.26269,1.73941 4.90424,3.12065 l 2.9846,2.51142 0,1.33518 c 0,0.73443 0.70479,2.04002 1.56619,2.90142 l 1.56618,1.56613 10.28225,0 10.28226,0 8.64038,2.50394 c 4.75222,1.37712 10.80343,3.60003 13.44716,4.93958 2.64373,1.33979 8.36925,5.12022 12.72341,8.40116 l 7.91663,5.9654 2.73593,3.94797 2.73593,3.94797 1.42662,4.74021 1.42662,4.74033 0,6.72943 0,6.72942 -1.8653,5.99324 -1.86528,5.99323 -3.68693,6.59285 -3.68691,6.59285 -5.99428,6.40783 -5.99428,6.40796 -6.64256,4.89526 c -3.65342,2.69232 -8.88506,6.0051 -11.62587,7.36162 -2.74084,1.35665 -10.14104,4.17418 -16.44491,6.2614 -6.30388,2.08709 -12.47072,4.16082 -13.70408,4.60825 l -2.2425,0.81334 0,21.49498 0,21.49486 2.40582,2.4058 2.40583,2.40581 2.82663,0.59912 c 1.55467,0.32945 3.58024,1.00471 4.50129,1.50046 l 1.67462,0.90147 4.34591,-0.0874 c 2.39026,-0.0474 6.63559,0.22774 9.43405,0.61263 l 5.08813,0.69978 3.1665,-1.6375 3.16649,-1.63741 2.93483,0.64455 c 1.61416,0.35455 4.94516,0.64468 7.40222,0.64468 2.45707,0 4.46738,0.20973 4.46738,0.46615 0,0.2563 -1.61957,1.14279 -3.59905,1.96986 -3.63146,1.5173 -11.44119,6.41894 -16.68868,10.47429 l -2.84617,2.19955 -6.48489,1.79821 -6.48487,1.79821 -4.62221,2.93878 -4.62221,2.93879 -7.47495,2.11167 c -4.11122,1.16144 -9.75688,2.76864 -12.54586,3.5716 l -5.0709,1.45984 -4.11355,0 -4.11352,0 -3.5739,-3.13794 z m 44.01718,-106.94102 8.8221,-4.43298 8.03406,-6.44978 8.03405,-6.44978 4.81274,-5.81134 4.81273,-5.81135 2.84984,-5.98 2.84982,-5.97988 7.9e-4,-4.28541 7.9e-4,-4.28529 -1.45919,-2.82178 c -0.80256,-1.5519 -2.85063,-3.99254 -4.55126,-5.42347 l -3.09206,-2.6018 -5.66452,-1.70121 -5.66453,-1.70121 -8.47161,-0.0262 -8.47162,-0.0262 -5.50687,1.24479 -5.50687,1.24479 -3.2139,1.9545 -3.21392,1.95451 0,29.86494 0,29.86494 1.74415,1.01583 c 0.95929,0.55879 2.25919,1.02957 2.88867,1.04617 0.62949,0.0162 5.11446,-1.9645 9.96661,-4.40264 z m 73.10673,108.50463 c -1.37041,-0.88602 -3.7161,-3.19753 -5.21265,-5.13667 l -2.721,-3.52573 -0.61315,-3.26848 -0.61319,-3.26848 1.34086,-2.8256 1.34084,-2.82558 4.40391,-2.11336 4.40393,-2.11335 1.32688,-1.81462 1.32687,-1.81461 0,-27.59256 0,-27.59259 -5.23247,-0.58463 c -2.87785,-0.32146 -6.98963,-0.9393 -9.13726,-1.37287 l -3.90479,-0.78825 -0.31482,-0.99298 c -0.17315,-0.54618 0.0345,-1.54366 0.46153,-2.21668 l 0.77634,-1.22356 7.70438,-1.474 c 4.23742,-0.81084 8.14151,-1.74428 8.67573,-2.07448 l 0.97136,-0.60036 0,-40.35544 0,-40.35545 -1.45429,-2.81229 -1.45431,-2.81229 -8.26315,-1.17363 c -4.54472,-0.64555 -9.72075,-1.39622 -11.50229,-1.66838 l -3.23913,-0.49462 0,-0.77775 c 0,-0.42783 1.0091,-1.69684 2.24246,-2.82003 2.44051,-2.22255 15.0178,-10.26517 16.05293,-10.26517 0.35113,0 4.63349,-1.79884 9.51631,-3.99753 l 8.8779,-3.99741 2.83242,1.07688 c 1.5578,0.59224 3.61812,1.78785 4.57842,2.65686 l 1.74592,1.58011 0,2.71929 0,2.71928 2.2425,0.60099 c 1.23343,0.33058 6.7365,0.6071 12.22922,0.61459 l 9.98659,0.0137 7.15085,1.9816 c 3.93294,1.08986 9.7017,3.10966 12.81934,4.48853 l 5.66872,2.50693 6.59538,4.90762 c 3.62755,2.69919 8.25513,6.62194 10.28375,8.71714 l 3.68823,3.80965 2.21158,4.98327 2.21146,4.9834 0.446,7.52716 0.44602,7.52728 -2.91728,8.46334 -2.91714,8.46334 -3.83708,5.78076 c -2.11033,3.17944 -6.08519,8.24062 -8.83299,11.24704 l -4.99593,5.46641 -3.17844,-0.59624 -3.1783,-0.59637 -1.03913,1.26514 c -0.57153,0.69586 -1.1943,2.38209 -1.38401,3.74735 l -0.34462,2.48221 -4.9041,3.20429 -4.90424,3.20429 -12.36897,4.52923 -12.36904,4.52923 -2.16173,0.015 c -1.1889,0.0125 -2.83439,0.44031 -3.65664,0.9599 l -1.495,0.94455 0,21.38375 0,21.38374 2.37591,2.5299 2.37581,2.53003 5.17563,1.07451 5.17564,1.07438 9.89013,-0.0287 c 5.43951,-0.0162 12.49507,-0.0799 15.67918,-0.14269 l 5.78911,-0.11361 0.68088,0.68076 0.68088,0.68088 -1.98507,1.16435 c -1.09171,0.64039 -4.83858,2.40333 -8.32631,3.91764 l -6.34125,2.75333 -2.95434,2.48589 c -1.6248,1.3672 -3.52948,2.48585 -4.23245,2.48585 l -1.27817,0 -4.37618,3.84457 c -2.40682,2.11451 -6.29679,4.82203 -8.64426,6.01671 l -4.26818,2.17216 -9.68504,2.63274 -9.68512,2.63275 -4.98329,0.3388 -4.98335,0.33878 -2.49165,-1.61094 z m 40.64324,-107.52164 7.19893,-3.44997 7.22464,-5.36329 7.22451,-5.36329 6.97655,-7.3957 6.97668,-7.39583 2.79296,-5.76128 2.79297,-5.76128 0.50479,-4.6904 0.5048,-4.6904 -1.80265,-3.46296 -1.80292,-3.46284 -3.98661,-2.77284 -3.98659,-2.77284 -7.47501,-1.58149 -7.47501,-1.58135 -6.47821,0.57801 c -3.56312,0.31784 -9.16929,1.26451 -12.45828,2.10357 l -5.97992,1.52568 -2.28575,2.58021 -2.28576,2.58034 0.29237,28.14762 0.29249,28.14763 1.36784,1.64628 1.36782,1.64628 1.65032,0 c 0.90757,0 4.88965,-1.5524 8.84904,-3.44986 z m 343.5696,77.27427 c -2.7409,-0.97688 -7.2661,-2.93351 -10.0565,-4.34808 l -5.0729,-2.57197 -3.1433,-3.58006 c -1.729,-1.969 -4.1405,-5.47365 -5.3593,-7.78808 l -2.2158,-4.20814 -0.033,-7.47497 -0.033,-7.47497 3.1465,-6.64142 3.1465,-6.64141 7.7339,-8.09493 7.7338,-8.09493 -2.7998,-5.85779 -2.7998,-5.85778 0.598,-2.98969 0.5979,-2.98957 -1.4265,-1.18386 -1.4264,-1.18375 1.547,-2.99143 1.5469,-2.99144 -2.2119,-2.3545 -2.2118,-2.35437 0.632,-4.61088 0.632,-4.61075 1.9851,-4.48778 1.9852,-4.48778 4.2383,-5.06242 4.2386,-5.06255 4.3755,-2.77471 4.3752,-2.77472 5.3977,-1.20796 5.3977,-1.20796 5.189,1.63929 5.189,1.63928 5.6898,3.56346 5.6896,3.56346 3.6306,5.97676 3.6308,5.97676 0.51,3.80203 0.5099,3.80203 -2.2002,6.97149 -2.2003,6.97136 -3.8291,4.87604 c -2.1061,2.68183 -5.4756,7.34276 -7.4881,10.35767 -2.0123,3.01491 -5.0015,6.6735 -6.6428,8.13027 l -2.984,2.64862 0.8486,1.44766 c 0.4668,0.79611 4.9324,5.783 9.9236,11.08187 l 9.0752,9.63447 1.1902,-1.43429 1.1903,-1.43418 0.1997,-2.82814 0.1995,-2.82815 -3.7325,-0.30898 -3.7323,-0.30898 -2.4967,-3.27333 -2.4967,-3.27345 0,-2.07723 0,-2.07723 1.4277,-1.42768 1.4278,-1.4278 8.2896,-2.57709 c 4.5594,-1.41745 10.5321,-3.08669 13.273,-3.70953 l 4.9833,-1.1323 11.96,-0.39325 c 6.578,-0.21623 14.3145,-0.65979 17.1925,-0.98562 l 5.2323,-0.59237 -5e-4,1.31745 -5e-4,1.31757 -7.088,6.47824 c -3.8984,3.56308 -8.4952,7.87871 -10.2152,9.59028 l -3.1273,3.11191 -4.8615,0.70572 c -2.674,0.38813 -5.4771,0.94193 -6.2291,1.23056 l -1.3677,0.52483 0,4.83921 0,4.83933 -2.1263,5.68338 -2.1266,5.68351 2.8636,2.0781 c 1.5751,1.14292 4.6623,3.46221 6.8608,5.15406 l 3.9968,3.07608 -0.1849,1.40895 c -0.1012,0.77489 -0.8054,3.08719 -1.5634,5.13858 l -1.3781,3.72987 -2.3479,2.49932 -2.348,2.49931 -3.0655,0 -3.0655,0 -3.2632,-1.98959 c -1.7948,-1.09373 -3.8647,-1.98896 -4.5997,-1.98896 -0.7351,0 -2.4769,-0.89711 -3.8707,-1.99334 -1.3938,-1.09635 -3.1362,-1.98185 -3.8718,-1.96787 -0.7359,0.0137 -3.8047,1.60034 -6.8196,3.52514 l -5.4815,3.49954 -9.4288,2.95323 -9.4286,2.95319 -5.0228,-0.0729 -5.023,-0.0729 -4.9834,-1.77624 z m 24.1836,-24.11913 4.3817,-2.12105 0.488,-1.27175 0.488,-1.27176 -10.2857,-10.05606 -10.2858,-10.05606 -1.2034,0 -1.2033,0 -2.7832,3.6687 c -1.5308,2.01781 -4.2408,5.01549 -6.0226,6.66164 l -3.239,2.99306 0,1.34778 0,1.34791 4.2358,4.32174 c 2.3296,2.37697 5.1327,4.81374 6.2291,5.4151 l 1.9934,1.09336 6.4128,0.03 6.4127,0.03 4.3815,-2.12117 z m -5.3315,-61.25407 7.6948,-6.5655 1.9218,-3.15186 1.9219,-3.15198 0,-3.16272 0,-3.1626 -2.4713,-2.93725 -2.4716,-2.93714 -2.9935,-1.24004 -2.9935,-1.23992 -3.4449,0.6463 -3.4449,0.64618 -2.7028,3.20529 c -1.4866,1.76288 -3.3074,4.64845 -4.0467,6.41245 l -1.3445,3.20704 0,3.86033 0,3.8602 1.4116,4.68965 c 1.4017,4.65794 3.1538,7.58708 4.5384,7.58708 0.3974,0 4.1852,-2.95448 8.4173,-6.56551 z m 176.7733,58.39608 c -3.1349,-0.40211 -8.8783,-1.75301 -12.763,-3.00217 l -7.063,-2.27098 -5.9181,-3.59467 c -3.2548,-1.97698 -8.2117,-5.38863 -11.0149,-7.58121 l -5.0967,-3.98667 -5.7629,-6.78198 -5.763,-6.78186 -3.0151,-5.67639 c -1.6583,-3.1219 -3.9318,-8.59155 -5.0522,-12.15464 -1.1204,-3.56308 -2.9888,-11.62631 -4.1521,-17.91854 l -2.1152,-11.44017 0.4431,-4.50638 c 0.6398,-6.5102 3.4567,-20.96903 6.2325,-31.99235 2.7638,-10.97477 8.6747,-28.3892 11.6329,-34.2717 4.4071,-8.76321 15.4944,-26.36228 22.2998,-35.39639 3.9479,-5.24095 10.2539,-12.67485 14.0131,-16.51957 3.7592,-3.84485 9.9729,-9.36282 13.808,-12.26238 l 6.9733,-5.27178 8.2642,-4.09515 8.2643,-4.09503 10.6757,-0.0674 10.6757,-0.0674 9.4683,3.82063 c 5.2077,2.10132 10.3653,3.89528 11.4618,3.98667 l 1.9931,0.16591 0.4985,-5.52671 0.4984,-5.5267 1.849,-2.82066 1.8489,-2.82053 5.4834,0.64443 5.4833,0.64443 5.3867,2.54825 5.3866,2.54838 3.4767,3.27895 3.4767,3.27894 0,4.99027 c 0,2.7445 -0.2804,6.39235 -0.6232,8.10629 l -0.6232,3.11615 -3.9311,4.46606 -3.9315,4.46619 0.6268,1.01395 0.6266,1.01396 1.824,0 1.8241,0 2.3021,1.864 2.3019,1.864 -1.1835,13.83337 c -1.3623,15.92134 -2.3845,23.52739 -4.5139,33.58395 -0.8338,3.93761 -1.9504,9.40177 -2.4813,12.14265 -0.5311,2.74076 -1.7036,8.2802 -2.6061,12.30994 l -1.6402,7.32666 -2.4741,4.8824 -2.4741,4.88241 -0.8637,0 -0.8636,0 -0.601,-2.24252 c -0.3306,-1.2333 -0.6071,-4.6115 -0.6145,-7.50693 l -0.014,-5.26442 -1.3468,-3.22327 -1.3467,-3.22314 -0.7349,-12.90068 -0.7348,-12.90069 -4.2707,-12.49819 -4.2707,-12.49808 -4.2919,-8.36896 -4.292,-8.36896 -3.5808,-3.76432 -3.581,-3.76433 -2.7614,-0.69299 -2.7613,-0.69312 -4.3652,1.66713 c -2.4009,0.91695 -7.2028,3.53986 -10.6709,5.82869 l -6.3056,4.16145 -9.289,9.41563 -9.2889,9.41562 -7.3424,11.03706 -7.3424,11.03693 -6.9667,14.45159 c -7.4816,15.51984 -12.4931,28.35049 -16.5752,42.43666 l -2.5592,8.83175 -0.6173,7.50481 -0.6171,7.50481 -2.3329,2.80692 -2.3329,2.80705 1.4665,2.83614 c 0.8068,1.55976 2.7444,3.88467 4.3061,5.16616 l 2.8395,2.33028 2.6697,4.67567 2.6696,4.67554 4.7265,4.83983 4.7264,4.83984 4.8291,2.33015 4.8288,2.33016 11.1177,-0.52234 11.1175,-0.52233 9.6514,-3.12639 c 5.3084,-1.71956 12.2302,-4.26707 15.3822,-5.66091 l 5.7305,-2.5344 1.771,0.46316 1.7709,0.46304 2.8624,-2.73539 2.8623,-2.73539 7.0279,-2.68558 7.0283,-2.68558 1.8574,-2.05251 c 1.0216,-1.12868 3.0286,-2.65798 4.4601,-3.39829 l 2.6027,-1.34591 1.1824,-2.78782 1.1824,-2.78782 5.6412,-3.42676 c 3.1027,-1.88473 7.326,-4.94907 9.3855,-6.80957 l 3.7443,-3.38282 3.9555,-6.26327 3.9556,-6.26326 1.4908,-0.57203 1.4906,-0.57202 1.2197,1.46976 1.2198,1.46975 -1.1116,2.20843 c -0.6112,1.21471 -2.2131,6.77749 -3.5595,12.36187 l -2.4479,10.15331 -4.8103,8.78319 -4.8105,8.7833 -6.6614,6.66626 -6.6614,6.66638 -2.8595,1.47861 -2.8595,1.47862 -1.9213,-0.17166 -1.9215,-0.17166 -2.7727,5.48164 -2.7727,5.48164 -10.7044,6.66938 -10.7041,6.66937 -8.9701,2.97871 -8.9699,2.97883 -7.7963,1.06601 c -8.538,1.16739 -13.1735,1.183 -21.8236,0.0737 z m -939.99437,-17.33628 -3.84985,-1.44678 -2.96889,-2.81966 -2.9689,-2.81965 -1.95707,-3.80565 -1.95707,-3.80565 -0.55955,-4.72436 -0.55955,-4.72448 2.37736,-2.76385 2.37735,-2.76385 6.24525,-0.73631 6.24525,-0.73644 1.69655,-1.69646 1.69655,-1.69659 0.51119,-9.19016 0.5112,-9.19029 2.98998,-0.50923 2.98998,-0.50922 0.30934,-2.67359 0.30935,-2.67372 -2.80099,-1.7836 c -1.54054,-0.98088 -3.1305,-2.2424 -3.53324,-2.80318 l -0.73223,-1.0197 -0.0154,-28.68532 -0.0152,-28.68519 1.24582,-0.38389 c 0.68519,-0.21111 2.42973,-0.64156 3.87671,-0.95678 l 2.6309,-0.57289 0.63294,-1.64953 0.63298,-1.64952 -1.27054,-1.70096 c -0.69878,-0.93556 -2.78026,-3.67307 -4.6255,-6.08325 l -3.35499,-4.38229 0.8057,-15.94655 c 0.44312,-8.77057 0.83161,-20.28402 0.86331,-25.58552 l 0.0576,-9.63896 -2.40664,-2.55999 -2.40665,-2.55986 -5.56664,-2.07561 -5.56663,-2.0756 -2.16195,-2.0193 -2.16194,-2.0193 -2.12246,-4.93384 -2.12248,-4.93371 -0.16327,-5.89087 -0.16328,-5.89074 2.33425,-2.48471 2.33424,-2.48471 8.59174,-3.14062 8.59173,-3.14063 15.44825,-2.88245 15.44824,-2.88245 17.93989,0.0212 17.9399,0.0212 9.58387,0.93256 9.58385,0.93268 8.19004,2.98907 c 4.50453,1.6439 10.96308,4.53971 14.35234,6.43517 3.38929,1.89534 8.19328,5.23383 10.67559,7.4188 l 4.51325,3.97281 6.32264,8.81602 6.32263,8.81614 4.77642,9.96667 4.77644,9.96655 1.674,6.47837 1.67401,6.47824 0.0894,7.47497 0.0895,7.47498 -1.29097,5.48164 -1.29094,5.48164 -3.89638,7.97321 -3.89638,7.97334 -5.72651,6.65377 c -3.14958,3.65958 -7.96901,8.64498 -10.70982,11.07875 -2.74082,2.43378 -8.49613,6.94465 -12.78957,10.0241 l -7.80628,5.59912 -12.12695,5.8674 c -15.28844,7.39694 -33.1288,14.53934 -41.52845,16.62593 -3.56306,0.88512 -8.13997,2.03578 -10.17091,2.55712 l -3.69264,0.94779 -1.53983,1.53979 -1.53985,1.53991 0,12.93065 0,12.93077 2.2861,2.28608 2.2861,2.28609 4.06275,0.64967 4.06277,0.64968 1.24813,1.50383 1.24814,1.50396 5.11042,0.015 5.11045,0.015 4.30202,1.49846 4.30199,1.49834 0.92316,-0.57052 c 0.86933,-0.53731 21.84957,-1.65289 28.34594,-1.50733 1.64448,0.0375 4.55973,0.0737 6.4783,0.0812 1.91858,0.0125 4.09945,0.2332 4.84638,0.50086 l 1.35808,0.48676 -1.23094,1.48323 -1.23096,1.48324 -1.5566,0 c -0.85616,0 -3.60434,0.95278 -6.10711,2.1173 -2.50274,1.16464 -7.24145,3.36808 -10.53044,4.89676 -3.28897,1.52855 -8.67095,3.53886 -11.95992,4.4673 -3.28898,0.92832 -7.45281,2.31281 -9.25293,3.07658 l -3.27299,1.38861 -3.73107,0 -3.73107,0 -2.17969,1.52668 c -3.25858,2.28246 -9.63021,4.34533 -20.19038,6.53704 l -9.46828,1.965 -11.95992,0.49799 -11.95994,0.49786 -3.84984,-1.44678 z m 74.47798,-110.92775 8.83518,-3.49143 4.31322,0.6468 4.31325,0.6468 1.59781,-2.43852 1.59783,-2.43864 -0.60025,-2.39157 -0.60027,-2.39158 1.96685,-1.78011 1.9669,-1.77998 2.13993,1.14529 2.13993,1.14529 1.51719,-1.25914 1.51721,-1.25915 -0.55453,-2.77259 -0.55453,-2.77272 4.97851,-5.68912 c 6.21932,-7.10719 11.23493,-14.61975 14.70474,-22.02531 l 2.68089,-5.72171 6.5e-4,-8.96994 6.5e-4,-8.96994 -2.65154,-5.65617 -2.65152,-5.65629 -4.07845,-4.42461 -4.07845,-4.42461 -5.81136,-2.60793 -5.81137,-2.60793 -7.64799,-1.13755 -7.64798,-1.13742 -9.7105,1.17825 c -5.34077,0.64817 -10.45862,1.39447 -11.37299,1.65851 l -1.66252,0.48001 -3.45236,-3.03126 -3.45239,-3.03114 -2.07584,0 -2.07586,0 -1.03173,1.92779 c -0.56744,1.06028 -1.03172,3.0033 -1.03172,4.318 l 0,2.39008 -3.65934,2.40956 c -2.01265,1.32518 -4.53814,3.60428 -5.61222,5.06454 l -1.9529,2.65512 -0.82019,15.78313 -0.82023,15.78314 -0.0458,28.46347 -0.0458,28.46348 1.24583,1.57087 c 0.68521,0.8639 1.91858,1.77274 2.74083,2.01943 l 1.49497,0.44868 11.46161,-2.42029 11.4616,-2.42029 8.83517,-3.4913 z m 93.82091,108.62806 c -1.64449,-0.2181 -5.37891,-1.07039 -8.29867,-1.89396 l -5.3087,-1.49747 -4.20277,-4.20277 -4.20277,-4.20277 -4.37786,-11.44466 -4.37784,-11.44454 -0.41596,-13.4159 -0.41595,-13.41578 1.18375,-7.33803 1.18372,-7.33789 2.40015,-7.05664 c 1.32008,-3.8813 4.00901,-9.98377 5.97538,-13.56109 4.28193,-7.79007 11.101,-16.85227 17.59485,-23.38295 l 4.75177,-4.77866 8.26069,-3.9637 8.26069,-3.9637 5.08157,-0.60185 5.08154,-0.60186 5.17053,2.81416 5.17052,2.81417 5.29229,5.08501 5.29231,5.08502 2.48542,4.93334 2.48544,4.93346 1.12063,5.2814 1.12062,5.28164 -0.005,12.65837 -0.005,12.65837 -1.04056,3.74685 -1.04054,3.74685 -2.19303,1.42306 -2.19305,1.42306 -6.97664,1.1408 c -6.99486,1.14367 -41.35658,9.67804 -48.83637,12.12929 l -3.98666,1.30659 -1.73717,3.55109 -1.73721,3.5511 1.68993,4.42212 c 0.92947,2.43227 2.73623,6.12032 4.015,8.1958 l 2.32505,3.77357 3.20384,2.02067 3.20385,2.02055 6.06934,-0.43407 6.06936,-0.43419 6.3889,-2.81766 c 3.5139,-1.54965 11.76836,-6.03594 18.34323,-9.96942 l 11.9543,-7.15176 1.35793,0.52108 1.35792,0.52109 -0.53287,3.28356 c -0.29306,1.80595 -1.43701,5.32759 -2.54207,7.82578 l -2.00923,4.54221 -2.47651,0 -2.4765,0 -1.63298,1.63292 -1.63296,1.63304 0.15921,4.09778 c 0.0876,2.25388 0.1176,4.58403 0.0668,5.1784 l -0.0924,1.0805 -8.74902,4.15783 -8.74903,4.1577 -6.94839,1.47187 c -6.88168,1.45777 -9.127,1.57974 -14.92167,0.81122 z m 9.52655,-73.5439 16.38664,-3.68518 4.15058,-1.8072 4.15056,-1.80719 1.0819,-2.02155 1.0819,-2.02155 0,-10.51023 0,-10.51036 -1.60686,-4.01588 -1.60684,-4.01588 -2.35376,-0.59075 -2.35376,-0.59075 -4.49904,2.17798 -4.49904,2.17785 -7.4468,6.95451 c -4.09576,3.825 -8.97612,9.05746 -10.84524,11.62768 -1.86915,2.57023 -5.29909,8.33813 -7.62213,12.81754 l -4.22369,8.1445 0.70619,1.14254 0.70619,1.14267 1.20329,-0.46166 c 0.66182,-0.25405 8.57727,-2.12017 17.58991,-4.14709 z m 315.766,71.86654 c -1.98322,-0.70873 -5.23882,-2.29783 -7.23465,-3.53138 l -3.629,-2.24277 -2.49382,-4.25545 c -1.37163,-2.34039 -4.17075,-8.91676 -6.22028,-14.614 l -3.72651,-10.35855 0.093,-15.94655 0.093,-15.94668 2.15954,-7.97321 2.15941,-7.97334 4.04099,-8.47158 4.04097,-8.47158 5.39837,-7.06349 c 2.96909,-3.88493 7.88146,-9.41188 10.91634,-12.28198 l 5.51759,-5.2186 7.50644,-3.46808 7.50643,-3.4682 4.85157,-0.57464 4.85183,-0.57452 4.3186,2.10856 4.3186,2.10869 6.1878,5.53807 6.1876,5.53806 3.2807,6.65839 3.2804,6.65839 0.3231,17.46787 0.323,17.46798 -1.026,2.68858 -1.026,2.6887 -2.287,1.48385 -2.287,1.48386 -9.0004,1.55103 c -4.9503,0.85304 -17.50828,3.81613 -27.90665,6.58461 l -18.90603,5.03371 -4.48491,2.19944 -4.48503,2.19932 0.16753,6.15004 0.16741,6.15004 2.03391,4.59776 2.03379,4.59765 3.49741,1.46138 3.49755,1.46139 7.25775,-0.0175 7.25787,-0.0175 8.40542,-3.40866 8.40568,-3.40866 1.8932,1.01321 1.8931,1.01321 1.8209,-1.6479 c 1.0014,-0.90622 2.0691,-2.62378 2.3731,-3.81688 l 0.5526,-2.16912 6.27,-4.23585 6.2702,-4.23572 1.8341,0 1.8339,0 2.8507,-2.03004 c 1.568,-1.11645 4.9261,-2.94787 7.4625,-4.06994 l 4.6116,-2.0399 0.5212,0.52109 0.521,0.52108 -1.6705,4.37418 -1.6706,4.3743 -3.8861,5.13445 c -2.1375,2.82403 -4.7812,6.8891 -5.8755,9.03362 l -1.9891,3.89915 -5.0433,4.41188 -5.0433,4.41175 -9.1938,4.62711 -9.1938,4.6271 -4.74306,1.24441 -4.74296,1.24429 -1.54266,-2.20232 -1.54253,-2.20244 -2.68433,0 -2.6842,0 -3.9868,2.4555 c -2.1927,1.3504 -4.65931,2.44975 -5.48151,2.44276 -0.82233,-0.0125 -3.11765,-0.5925 -5.10075,-1.30109 z m 16.06378,-71.44071 c 7.40032,-1.63916 16.26275,-3.90402 19.69445,-5.03296 l 6.2393,-2.05263 1.1004,-2.05613 1.1004,-2.05601 0.1352,-11.56339 0.1352,-11.56326 -2.074,-3.4883 -2.0741,-3.48831 -3.4902,0.0986 -3.4903,0.0986 -6.12681,4.16082 -6.12719,4.16082 -2.36786,-0.59436 -2.36798,-0.59425 -1.63903,1.63917 -1.63929,1.63916 0.6106,2.4324 0.61059,2.4324 -3.95196,5.21959 c -2.1736,2.87085 -5.81172,8.63862 -8.08457,12.81729 l -4.13261,7.5977 0,2.23602 0,2.23603 2.24239,-0.64955 c 1.23343,-0.35717 8.29718,-1.99071 15.69737,-3.62987 z m 619.19565,72.11585 -2.2226,-0.42933 -2.0134,-2.55937 -2.0131,-2.55923 0,-1.73692 0,-1.73691 -1.4074,-1.16813 -1.4077,-1.16814 -6.04,2.54214 c -3.322,1.39834 -9.5282,3.69391 -13.7915,5.10149 l -7.7515,2.55912 -9.0499,0.56603 -9.0498,0.56603 -5.2883,-1.75652 -5.2882,-1.75638 -3.8454,-3.47395 -3.8452,-3.47407 -1.5008,-5.05331 -1.5006,-5.05344 0,-4.75706 0,-4.75706 2.4148,-6.6524 2.4146,-6.65252 3.7303,-5.4161 3.7301,-5.41597 5.5659,-4.01838 5.5659,-4.01826 11.9599,-5.82645 11.9599,-5.82644 8.7797,-2.18909 8.7799,-2.18909 2.0931,-1.69484 2.0928,-1.69484 -1.1003,-9.68628 -1.1002,-9.68615 -1.7992,-3.68094 -1.7991,-3.6808 -7.9734,-0.28065 -7.9733,-0.28064 -7.9732,3.87581 -7.9734,3.87581 -7.4749,5.54618 c -4.1113,3.05037 -8.0477,6.14168 -8.7478,6.86975 -0.6999,0.72795 -2.3505,2.6691 -3.668,4.31363 l -2.3955,2.98994 -1.1987,-1.17913 -1.1986,-1.17924 2.6896,-6.7941 c 1.4791,-3.73673 4.1176,-9.1954 5.8634,-12.13029 l 3.1739,-5.33607 5.8543,-4.90999 c 3.2198,-2.70056 7.7196,-6.0031 9.9993,-7.33915 2.2797,-1.33605 6.1485,-3.14212 8.5973,-4.01351 l 4.4523,-1.58436 7.1727,-0.04 7.1726,-0.0399 5.3311,2.44064 5.3311,2.44076 3.6517,3.20616 3.6519,3.20629 2.4175,5.16455 2.4178,5.16466 1.1332,5.38589 1.1332,5.38589 0.9596,14.04897 c 0.5277,7.7269 0.9662,17.97334 0.9743,22.76973 l 0.015,8.72076 0.9378,0 c 0.5157,0 1.2149,-0.44843 1.5537,-0.99661 l 0.616,-0.99672 2.059,0 2.0591,0 -0.6468,3.23924 c -0.3558,1.78148 -1.9813,6.09261 -3.6129,9.58017 l -2.9659,6.34104 0,1.88135 0,1.88148 1.0516,0 c 0.5783,0 3.6057,-1.30995 6.7274,-2.91091 8.3655,-4.29029 14.6198,-7.05576 15.957,-7.05576 l 1.1805,0 0,0.92619 c 0,0.50948 -1.8251,3.6737 -4.0554,7.03179 l -4.0556,6.10547 -0.768,4.85943 -0.7683,4.85931 -1.6148,2.46448 -1.6149,2.46461 -5.2723,2.99281 -5.2723,2.99281 -5.4133,1.58811 c -2.9774,0.87351 -5.6684,1.52705 -5.9802,1.45239 -0.3116,-0.0749 -1.5666,-0.32895 -2.789,-0.56502 z m -35.6444,-22.69071 7.6566,-1.46489 5.637,-2.57084 c 3.1,-1.41395 7.3205,-3.73237 9.3787,-5.15194 l 3.7417,-2.58108 1.989,-3.21828 1.9889,-3.21815 0,-4.16344 0,-4.16357 -2.4462,-2.44626 -2.4465,-2.44638 -1.9171,0 -1.9169,0 -1.4981,-2.24252 -1.4981,-2.24251 -1.907,1.71344 -1.9073,1.71332 -6.746,2.08359 -6.7459,2.08372 -3.6746,3.24786 c -2.0209,1.78622 -5.7881,4.73884 -8.3717,6.56126 l -4.6974,3.31353 -2.4288,3.59492 c -1.3357,1.97723 -2.735,4.62598 -3.1094,5.88625 l -0.6807,2.2912 1.6007,2.44289 1.6006,2.44289 5.371,0 5.371,0 7.6565,-1.46501 z m -505.1449,18.01179 -3.6567,-3.65684 -2.4917,-4.91686 -2.4916,-4.91685 0,-2.46599 0,-2.46598 1.2409,-0.7669 1.2408,-0.76689 8.4767,-0.0399 8.4766,-0.04 0.6001,-19.93322 0.6,-19.93323 1.2235,-5.21797 1.2236,-5.2181 -0.3286,-12.89369 -0.3287,-12.89382 -2.2073,-2.34651 -2.2074,-2.34664 0.5762,-2.20356 0.5763,-2.20357 -1.6754,-0.6428 -1.6752,-0.64294 -2.1752,1.1448 -2.1751,1.14454 -4.9834,-1.90582 -4.9833,-1.90583 -0.3395,-1.68697 -0.3394,-1.68698 2.2127,-2.35512 2.2125,-2.35525 8.5918,-3.15672 8.5917,-3.15686 5.5441,-0.11735 5.544,-0.11735 2.7615,1.80945 2.7617,1.80944 1.4119,3.37882 1.4115,3.37882 0,5.01523 0,5.01536 1.2458,-5e-4 1.2461,-6.2e-4 5.6998,-6.37388 5.6998,-6.37375 4.3322,-2.0972 4.3323,-2.09733 4.5872,0 c 2.5228,0 5.3308,0.28551 6.2399,0.63431 l 1.6529,0.6342 0.8955,2.35574 0.8959,2.35575 2.8281,0 2.8281,0 2.5548,2.74088 2.5546,2.74076 4.1101,8.50666 4.11,8.50666 -0.057,1.95825 c -0.031,1.07713 -0.857,5.02547 -1.8344,8.77432 l -1.7767,6.81594 -4.3949,1.96362 -4.3948,1.9635 -2.648,2.5304 -2.648,2.53053 -5.9497,-2.6701 -5.9495,-2.66997 -1.0824,-2.37523 -1.0821,-2.37522 0.8258,-0.51047 0.8259,-0.51035 1.7827,1.96974 1.7827,1.96986 2.645,0 2.645,0 1.6323,-1.24579 1.6324,-1.24591 1.5337,-4.48491 c 0.8434,-2.46673 1.5401,-5.29026 1.548,-6.2745 l 0.015,-1.78947 -2.4916,-2.49158 c -1.3703,-1.37037 -2.4917,-2.84162 -2.4917,-3.26933 0,-0.4277 -1.038,-1.75277 -2.3065,-2.94462 l -2.3068,-2.16712 -5.445,0 -5.4447,0 -2.237,1.56688 -2.237,1.56688 -2.8294,5.65891 c -1.556,3.11229 -3.5525,7.90131 -4.4362,10.64219 -0.884,2.74076 -2.7533,11.70109 -4.1541,19.91163 l -2.547,14.92835 -0.1,7.72428 -0.1,7.72428 1.7079,2.6063 1.7076,2.6063 4.2831,1.89472 4.2833,1.89458 0.5423,2.07336 0.5421,2.07323 2.0441,-1.09398 2.0443,-1.09398 1.9548,1.22082 1.9547,1.22069 2.4764,-1.32531 2.4764,-1.32531 2.8176,0.70335 c 1.5496,0.38676 3.4903,1.28087 4.3126,1.98672 0.8222,0.70598 2.7376,1.57887 4.2563,1.93978 l 2.7612,0.65641 2.0799,-1.1132 2.0798,-1.11308 0.9537,0.95378 0.9538,0.95366 -1.7076,1.7077 -1.7076,1.70757 -2.0204,-0.52832 -2.0204,-0.52833 -2.5653,1.38049 c -3.8978,2.09783 -12.0412,4.50476 -15.2405,4.50476 l -2.8521,0 -4.1963,2.17198 -4.196,2.17186 -10.9634,0.73818 c -6.0297,0.40586 -15.2603,1.05915 -20.5121,1.45153 l -9.549,0.71359 -3.6568,-3.65697 z m 578.2971,0.75429 c -1.4236,-1.56725 -3.3297,-3.95845 -4.236,-5.31373 l -1.6478,-2.46423 0,-2.76835 0,-2.76822 1.954,-1.95401 1.954,-1.95401 5.5198,-1.60458 5.5193,-1.60458 0.5683,-2.26386 0.5683,-2.26387 -0.3178,-35.78814 -0.3177,-35.78802 -2.0473,-3.48493 -2.0471,-3.48493 -3.4344,-2.31455 -3.4345,-2.31443 0,-1.17725 0,-1.17725 9.4683,-3.21378 c 5.2077,-1.7675 10.3653,-3.22514 11.4618,-3.23912 l 1.9932,-0.025 2.5827,3.23912 2.5825,3.23913 1.2754,3.98667 c 0.7013,2.1927 1.6547,4.39789 2.1185,4.9005 l 0.8433,0.91384 7.2588,-7.53965 7.2587,-7.53951 4.2359,-1.1368 4.2358,-1.13681 3.7592,1.01234 3.7594,1.01221 4.2289,3.11004 4.2289,3.11003 2.3791,4.1386 c 1.3083,2.27623 2.6742,5.55655 3.0348,7.28959 l 0.656,3.15098 -1.1237,6.31733 c -0.6181,3.47444 -2.2553,10.06142 -3.6385,14.63772 l -2.5147,8.32052 -5.8948,6.04292 -5.8946,6.04305 -0.6125,-0.61222 -0.6121,-0.61222 1.7052,-6.95813 1.7052,-6.95813 -0.5671,-10.20912 -0.5671,-10.20911 -1.0059,-1.00597 -1.0061,-1.00609 -5.5345,1.74465 -5.5346,1.74453 -3.0692,4.17243 c -1.6879,2.29482 -3.6886,5.61609 -4.4458,7.38072 l -1.3766,3.20841 -2.4911,16.41296 -2.4911,16.41295 0,6.09212 0,6.09223 1.458,2.81966 c 0.8021,1.5509 2.0356,3.03538 2.7411,3.29892 0.7054,0.26341 6.6645,0.15855 13.2425,-0.2332 l 11.96,-0.71222 0.9008,0.80622 0.9009,0.80622 -2.7326,3.58256 c -1.5028,1.97037 -4.1855,4.53497 -5.9616,5.69924 l -3.2293,2.1168 -2.1546,3.28694 -2.1546,3.28693 -2.6066,1.70783 -2.6065,1.70795 -9.6129,0.7212 c -5.287,0.39675 -13.8737,1.03593 -19.0812,1.42057 l -9.4683,0.69936 -2.5878,-2.84962 z m 85.1312,1.00772 c -1.1949,-1.0252 -3.3254,-3.6084 -4.7341,-5.74044 l -2.5613,-3.87656 0,-1.93091 0,-1.93091 2.7923,-2.79232 2.7923,-2.79232 4.127,-0.69723 4.127,-0.69724 0.9619,-1.16801 0.9621,-1.16789 0.2124,-34.88304 0.2125,-34.88317 -0.9953,-4.77005 -0.9951,-4.77004 -1.7549,-1.93928 -1.755,-1.93928 -5.0945,-1.89771 -5.0944,-1.89783 -0.2717,-1.35952 -0.2718,-1.35951 12.6366,-2.255 12.6369,-2.25501 2.5847,1.64403 c 1.4218,0.9041 3.5782,2.81592 4.7921,4.24834 l 2.2068,2.60431 0.6449,3.23912 0.6448,3.23912 1.1351,-0.0125 1.1348,-0.0125 4.6832,-5.87376 4.6836,-5.87364 5.479,-2.68071 5.4791,-2.68058 3.2923,0.70922 c 1.811,0.39012 4.638,1.37911 6.2825,2.19795 3.8373,1.91056 8.2853,6.04604 9.9706,9.26968 l 1.3209,2.52678 -1.4226,12.92141 -1.4225,12.92141 -2.9518,4.48503 c -1.6233,2.46673 -3.7188,5.94255 -4.6569,7.72403 l -1.7051,3.23925 -1.6135,0 -1.6135,0 -0.096,-8.22252 -0.097,-8.2224 -1.6946,-4.21675 -1.6946,-4.21663 -3.2562,-2.01243 -3.2563,-2.01244 -2.5005,0 -2.5003,0 -1.9936,4.7341 c -1.0965,2.6038 -2.6954,6.9766 -3.5536,9.71749 -1.6922,5.40511 -5.1644,26.58761 -6.2292,38.00207 l -0.6629,7.10569 1.1646,3.52875 c 0.6405,1.94078 1.7023,3.96795 2.3594,4.50501 l 1.1949,0.97613 5.4815,-0.98075 c 3.0149,-0.53956 8.1728,-1.10184 11.4617,-1.24978 3.289,-0.14781 6.7194,-0.589 7.6232,-0.98025 l 1.6433,-0.71147 0.7056,1.14167 0.7057,1.14167 -6.5519,6.29885 -6.5517,6.29897 -1.557,3.89129 -1.5571,3.89129 -3.1901,1.88448 -3.1904,1.88447 -9.4881,0.7041 c -5.2184,0.38726 -13.5244,1.02757 -18.458,1.42294 l -8.9699,0.71883 -2.1728,-1.86387 z m 113.3006,0.0849 -5.4817,-1.50533 -5.2961,-3.62588 -5.2962,-3.626 -3.9074,-4.56881 -3.9072,-4.56892 -2.9043,-5.98001 -2.9042,-5.97988 -1.098,-5.28164 -1.0981,-5.28152 0.02,-9.17006 0.02,-9.17007 0.9692,-6.70083 0.969,-6.70096 2.1403,-6.25566 c 2.817,-8.23375 7.3861,-17.31069 11.0614,-21.97474 l 2.9622,-3.75909 6.2511,-4.46056 c 3.4381,-2.45337 8.7018,-5.58264 11.6974,-6.95401 l 5.4464,-2.49345 7.3875,-0.60223 7.3875,-0.60211 6.9543,1.63616 6.9545,1.63617 4.1638,2.44014 4.1638,2.44014 3.0815,3.89067 3.0814,3.89066 3.4596,7.33503 c 1.9027,4.03423 4.1737,10.02585 5.0467,13.31491 l 1.5868,5.98 0.5572,9.46818 0.5569,9.46831 -1.6123,8.47158 c -0.887,4.65944 -2.0725,10.11548 -2.6345,12.12455 l -1.022,3.65284 -3.4649,2.0444 -3.4646,2.04427 0,1.54203 c 0,0.84817 0.5532,2.42803 1.2293,3.51078 l 1.2293,1.96849 -1.9768,3.68493 c -1.0873,2.02667 -4.0671,5.97513 -6.622,8.77432 l -4.6451,5.08939 -5.3214,2.93788 -5.3216,2.93788 -12.4583,0.24169 -12.4582,0.24169 -5.4817,-1.50533 z m 23.8765,-20.63583 5.4966,-1.24578 3.8136,-3.79941 3.8138,-3.79953 1.937,-4.51949 1.9374,-4.51937 1.0984,-7.07923 1.0983,-7.0791 -0.6627,-14.00341 c -0.3646,-7.70193 -0.6443,-16.08687 -0.6217,-18.63337 l 0.04,-4.62985 -2.6921,-1.76388 c -1.4807,-0.97014 -5.079,-3.70803 -7.9963,-6.08425 l -5.304,-4.32037 -3.2685,0 -3.2689,0 -5.1168,1.51957 -5.117,1.51956 -3.2103,2.70143 -3.2105,2.70144 -3.7907,5.8649 -3.7907,5.8649 -0.6081,3.61814 c -0.3345,1.99008 -0.8172,4.38328 -1.0725,5.31822 -0.2554,0.93493 -2.2345,3.84198 -4.398,6.46002 l -3.9335,4.76005 0,1.54092 0,1.54103 1.8393,1.57499 1.8397,1.575 0.6845,5.82557 0.6847,5.82558 4.3086,9.09541 4.3086,9.09553 2.9212,2.07998 c 3.4476,2.45499 8.4749,4.02574 13.2841,4.15071 1.9025,0.0499 5.9326,-0.47065 8.9557,-1.15591 z m 88.9652,19.60664 -5.1555,-2.56922 -2.5626,-3.0455 c -1.4096,-1.67511 -3.3975,-4.68178 -4.4178,-6.68161 l -1.8549,-3.63599 -1.0875,-5.88225 -1.0873,-5.88226 -0.07,-26.47763 -0.07,-26.47763 -0.7793,-1.99333 -0.7795,-1.99334 -7.1926,0 -7.1926,0 -3.918,-4.19715 -3.9177,-4.19728 0,-2.54375 0,-2.54376 -1.1539,-1.84777 -1.1539,-1.84777 0.5433,-1.41582 0.5432,-1.41595 5.8798,-3.08207 5.8797,-3.08207 5.7509,-1.28699 5.7508,-1.28686 1.1891,-2.07123 1.1892,-2.07124 -0.2556,-20.26005 -0.2557,-20.26006 -1.0594,-1.97948 -1.0592,-1.97922 1.1878,-1.4313 1.1878,-1.43131 1.9901,0 1.9902,0 5.832,3.54286 5.8322,3.54274 2.0977,2.94624 2.0979,2.94613 0.5803,15.09663 0.5802,15.09651 1.8512,1.85114 1.8511,1.85114 2.7257,-0.65491 c 1.4991,-0.36029 4.2952,-1.4318 6.2138,-2.38134 l 3.4884,-1.72643 7.8294,-0.71871 7.8297,-0.71871 3.6321,-1.54765 3.6319,-1.54765 5.2217,-0.10112 5.2218,-0.10112 0.4883,1.27325 0.4884,1.27338 -1.7233,1.40483 c -0.9481,0.77264 -3.8272,3.11491 -6.3984,5.20499 -2.571,2.09009 -8.4789,7.19845 -13.1288,11.35191 l -8.4538,7.55163 -8.7978,3.32713 c -4.8387,1.82992 -9.4706,3.94098 -10.2929,4.69127 l -1.4948,1.36426 -0.3211,27.62343 -0.3211,27.62342 0.6459,5.26491 0.6461,5.26504 2.3128,2.6887 2.3127,2.68882 3.0635,-1.47549 3.0633,-1.47549 11.3444,-11.09874 c 6.2394,-6.10422 12.3168,-11.61906 13.5053,-12.25513 l 2.1607,-1.15652 0.8508,0.52595 0.8508,0.52583 -0.8056,4.25433 c -0.4433,2.33989 -1.5219,5.95491 -2.3972,8.03339 l -1.5913,3.77893 -3.0933,2.76385 -3.0932,2.76373 1.1535,2.15525 1.1534,2.15526 -1.565,3.76021 -1.565,3.76033 -4.1887,4.35969 c -2.3038,2.39782 -6.1825,5.64943 -8.6196,7.22579 l -4.431,2.8661 -5.589,0 -5.5891,0 -5.1557,-2.56922 z"
       id="path4376"
       inkscape:connector-curvature="0" />
  </g>
</svg>
