<?xml version="1.0" encoding="UTF-8" standalone="no"?>
<!-- Created with Inkscape (http://www.inkscape.org/) -->

<svg
   xmlns:dc="http://purl.org/dc/elements/1.1/"
   xmlns:cc="http://creativecommons.org/ns#"
   xmlns:rdf="http://www.w3.org/1999/02/22-rdf-syntax-ns#"
   xmlns:svg="http://www.w3.org/2000/svg"
   xmlns="http://www.w3.org/2000/svg"
   xmlns:xlink="http://www.w3.org/1999/xlink"
   xmlns:sodipodi="http://sodipodi.sourceforge.net/DTD/sodipodi-0.dtd"
   xmlns:inkscape="http://www.inkscape.org/namespaces/inkscape"
   id="svg2"
   version="1.1"
   inkscape:version="0.92.1 renderfarm"
   width="2481"
   height="663"
   sodipodi:docname="Pepper-and-Carrot_by-David-Revoy_E02P00_092.svg">
  <sodipodi:namedview pagecolor="#ffffff" bordercolor="#666666" inkscape:pageopacity="0" inkscape:pageshadow="2" inkscape:window-width="1813" inkscape:window-height="955" id="namedview70" showgrid="false" inkscape:zoom="0.4" inkscape:cx="1284.4231" inkscape:cy="2618.6204" inkscape:current-layer="layer1" /><metadata
     id="metadata8">
    <rdf:RDF>
      <cc:Work
         rdf:about="">
        <dc:format>image/svg+xml</dc:format>
        <dc:type
           rdf:resource="http://purl.org/dc/dcmitype/StillImage" />
        <dc:title />
      </cc:Work>
    </rdf:RDF>
  </metadata>
  <defs
     id="defs6" />
  <sodipodi:namedview
     pagecolor="#ffffff"
     bordercolor="#666666"
     borderopacity="1"
     objecttolerance="10"
     gridtolerance="10"
     guidetolerance="10"
     inkscape:pageopacity="0"
     inkscape:pageshadow="2"
     inkscape:window-width="1920"
     inkscape:window-height="1026"
     id="namedview4"
     showgrid="false"
     inkscape:zoom="0.52152884"
     inkscape:cx="1211.9885"
     inkscape:cy="352.12993"
     inkscape:window-x="0"
     inkscape:window-y="27"
     inkscape:window-maximized="1"
     inkscape:current-layer="layer1" />
  <g
     inkscape:groupmode="layer"
     id="layer2"
     inkscape:label="artwork"
     sodipodi:insensitive="true">
    <image
       sodipodi:absref="/home/deevad/peppercarrot/webcomics/ep02_Rainbow-potions/lang/sk/../gfx_Pepper-and-Carrot_by-David-Revoy_E02P00.png"
       xlink:href="../gfx_Pepper-and-Carrot_by-David-Revoy_E02P00.png"
       width="2481"
       height="663"
       id="image10"
       x="-1.6728083e-06"
       y="0" />
  </g>
  <g
     inkscape:groupmode="layer"
     id="layer1"
     inkscape:label="text"
     style="opacity:1">
    <flowRoot
       xml:space="preserve"
       id="flowRoot3063"
       style="font-style:normal;font-variant:normal;font-weight:normal;font-stretch:normal;line-height:0.01%;font-family:Arial;-inkscape-font-specification:Arial;letter-spacing:0px;word-spacing:0px;display:inline;fill:#562f13;fill-opacity:1;stroke:none"
       transform="matrix(0.77923967,0,0,0.77489763,115.48258,202.48528)"><flowRegion
         id="flowRegion3065"><rect
           id="rect3067"
           width="2715.5891"
           height="110.01318"
           x="92.642677"
           y="425.30325"
           style="font-size:72px;fill:#562f13;fill-opacity:1" /></flowRegion><flowPara
         id="flowPara3069"
         style="font-style:normal;font-variant:normal;font-weight:normal;font-stretch:normal;font-size:88px;line-height:1.25;font-family:Lavi;-inkscape-font-specification:Lavi;text-align:center;text-anchor:middle;fill:#562f13;fill-opacity:1">Epizóda 2 : Dúhové elixíry</flowPara></flowRoot>    <path
       style="display:inline;fill:#562f13;fill-opacity:1;stroke:none"
       d="m 717.07109,505.00886 c -1.9741,-1.7333 -4.24192,-4.41348 -5.03957,-5.95598 l -1.4503,-2.80457 0,-4.09899 0,-4.099 2.45688,-2.45685 2.45687,-2.4569 1.79717,-0.0318 c 0.98844,-0.0176 2.66559,-0.68884 3.72703,-1.49185 l 1.92988,-1.46003 0.74966,-5.26458 0.74964,-5.2645 0.0731,-22.83735 0.0731,-22.83748 -1.03615,-1.93609 -1.03618,-1.93608 -1.78499,0 c -0.98176,0 -4.17286,-0.70914 -7.09132,-1.57575 l -5.30628,-1.57588 -2.3825,-2.38243 -2.38251,-2.38256 0,-1.54692 0,-1.54691 5.75547,-0.0414 5.75545,-0.0414 4.50428,-2.21079 4.50425,-2.21091 0.286,-35.03325 0.286,-35.03312 -1.1881,-4.33018 -1.18811,-4.33018 -2.10072,-1.36261 -2.10076,-1.36248 -8.75829,-0.70087 -8.75831,-0.70086 0,-1.19886 0,-1.19887 4.427,-4.49041 4.427,-4.49041 12.66855,-5.72627 12.66855,-5.72614 1.92787,0.61185 c 1.06035,0.33651 3.27673,1.74689 4.92535,3.13407 l 2.99744,2.52211 0,1.34104 c 0,0.73747 0.70781,2.04867 1.57293,2.91378 l 1.5729,1.573 10.3265,0 10.32651,0 8.67753,2.51458 c 4.77267,1.38317 10.84991,3.61552 13.50502,4.96095 2.6551,1.34543 8.40525,5.14226 12.77816,8.43732 l 7.95068,5.99106 2.7477,3.96483 2.74771,3.96495 1.43276,4.76073 1.43274,4.76073 0,6.75837 0,6.75838 -1.87331,6.01902 -1.87332,6.01902 -3.70278,6.62121 -3.70277,6.62109 -6.02007,6.43553 -6.02007,6.4354 -6.67115,4.91632 c -3.66913,2.70403 -8.92328,6.03106 -11.67589,7.39342 -2.75261,1.36236 -10.18466,4.19214 -16.51565,6.28821 -6.331,2.09619 -12.52438,4.17884 -13.76305,4.62807 l -2.25214,0.81697 0,21.58733 0,21.58733 2.41617,2.41616 2.41618,2.41616 2.8388,0.60169 c 1.56135,0.33087 3.59563,1.00904 4.52065,1.50705 l 1.68182,0.90535 4.36462,-0.0878 c 2.40053,-0.0477 6.66413,0.22869 9.47464,0.61521 l 5.11002,0.7028 3.18011,-1.6445 3.18011,-1.64446 2.94746,0.64733 c 1.62112,0.35607 4.96644,0.64733 7.43407,0.64733 2.46764,0 4.4866,0.21076 4.4866,0.46816 0,0.25752 -1.62653,1.14776 -3.61454,1.9784 -3.64708,1.52383 -11.49042,6.44656 -16.76048,10.51935 l -2.8584,2.20902 -6.51279,1.80595 -6.51278,1.80593 -4.6421,2.95143 -4.6421,2.95144 -7.5071,2.12075 c -4.12891,1.16643 -9.79885,2.78056 -12.59984,3.58696 l -5.09272,1.46612 -4.13123,0 -4.13123,0 -3.58928,-3.15144 z m 44.20655,-107.40119 8.86004,-4.45192 8.06862,-6.47753 8.06862,-6.47753 4.83346,-5.83634 4.83343,-5.83635 2.86209,-6.00573 2.8621,-6.00573 7.7e-4,-4.30373 8e-4,-4.30372 -1.46546,-2.83392 c -0.80602,-1.5587 -2.86288,-4.00971 -4.57085,-5.44692 l -3.10536,-2.61301 -5.68889,-1.7084 -5.68889,-1.70852 -8.50806,-0.0263 -8.50808,-0.0263 -5.53054,1.25002 -5.53057,1.25014 -3.22774,1.96292 -3.22774,1.96292 0,29.99342 0,29.99343 1.75165,1.02033 c 0.96342,0.56106 2.26891,1.03386 2.9011,1.05067 0.63219,0.0163 5.13647,-1.97295 10.0095,-4.42159 z m 73.42125,108.97152 c -1.3763,-0.88984 -3.73208,-3.21129 -5.23507,-5.15877 l -2.73271,-3.5409 -0.61579,-3.28253 -0.61583,-3.28255 1.34662,-2.83774 1.34661,-2.83776 4.42287,-2.12244 4.42286,-2.12246 1.33259,-1.82242 1.33258,-1.82242 0,-27.71133 0,-27.7113 -5.25496,-0.58702 c -2.89024,-0.32297 -7.0197,-0.94334 -9.17658,-1.37878 l -3.92159,-0.79163 -0.31618,-0.99739 c -0.1739,-0.54853 0.0346,-1.5503 0.46351,-2.22608 l 0.77969,-1.22883 7.73752,-1.48047 c 4.25565,-0.8142 8.17654,-1.75178 8.71307,-2.08328 l 0.97552,-0.60294 0,-40.52907 0,-40.52906 -1.46055,-2.82439 -1.46056,-2.82452 -8.2987,-1.17868 c -4.56427,-0.6482 -9.76257,-1.40222 -11.55178,-1.67542 l -3.25307,-0.49687 0,-0.78111 c 0,-0.42954 1.01345,-1.70401 2.25213,-2.83204 2.45099,-2.2321 15.0824,-10.30933 16.12198,-10.30933 0.35265,0 4.65342,-1.8067 9.55725,-4.01473 l 8.9161,-4.01473 2.8446,1.08151 c 1.5645,0.5948 3.63369,1.79567 4.59812,2.66842 l 1.75343,1.58691 0,2.73099 0,2.73098 2.25215,0.60344 c 1.23875,0.332 6.76548,0.60972 12.28183,0.61724 l 10.02956,0.0138 7.18163,1.99013 c 3.94991,1.09455 9.74337,3.12316 12.87444,4.50784 l 5.69316,2.51771 6.62372,4.92874 c 3.64324,2.71079 8.29062,6.65042 10.32801,8.75477 l 3.70405,3.82603 2.22119,5.00472 2.22095,5.00471 0.44785,7.55967 0.44798,7.55954 -2.92984,8.49987 -2.92971,8.49975 -3.85349,5.80551 c -2.11951,3.19312 -6.11142,8.27607 -8.87099,11.29555 l -5.01751,5.4898 -3.19212,-0.5988 -3.192,-0.59881 -1.04352,1.27058 c -0.57398,0.69873 -1.19949,2.39234 -1.38994,3.76347 l -0.34617,2.4929 -4.92522,3.21807 -4.92535,3.21795 -12.42214,4.54884 -12.42224,4.54872 -2.17105,0.015 c -1.194,0.0125 -2.84658,0.44221 -3.67237,0.96391 l -1.50142,0.94861 0,21.47575 0,21.47574 2.38613,2.54091 2.38603,2.54091 5.19791,1.07901 5.19789,1.07913 9.93264,-0.0288 c 5.46297,-0.015 12.54883,-0.0802 15.74672,-0.14318 l 5.81403,-0.1141 0.68381,0.68381 0.68381,0.68382 -1.99363,1.16928 c -1.09643,0.64316 -4.8594,2.41368 -8.36221,3.93452 l -6.36845,2.76516 -2.96707,2.49659 c -1.6318,1.37309 -3.54469,2.49654 -4.25068,2.49654 l -1.28367,0 -4.39502,3.86112 c -2.41717,2.12359 -6.32387,4.84277 -8.68144,6.0426 l -4.28654,2.18149 -9.72671,2.64408 -9.72679,2.64407 -5.00471,0.34025 -5.0048,0.34024 -2.50237,-1.61786 z M 875.517,398.5949 l 7.22988,-3.46482 7.25569,-5.38637 7.25563,-5.38623 7.00662,-7.42765 7.00662,-7.42752 2.80496,-5.78607 2.80508,-5.78606 0.50691,-4.71058 0.50702,-4.71058 -1.81045,-3.47786 -1.81071,-3.47786 -4.0037,-2.78477 -4.00382,-2.78477 -7.50713,-1.58816 -7.50714,-1.58829 -6.50611,0.5805 c -3.57844,0.31934 -9.20873,1.27008 -12.51189,2.11274 l -6.00563,1.53212 -2.29559,2.59144 -2.29559,2.59131 0.29364,28.26873 0.29373,28.26873 1.37372,1.65348 1.3737,1.65336 1.65743,0 c 0.91147,0 4.9107,-1.5592 8.88713,-3.46482 z m 345.0477,77.60685 c -2.7527,-0.98121 -7.2974,-2.94626 -10.0997,-4.36691 l -5.0947,-2.58304 -3.1569,-3.59534 c -1.7364,-1.97746 -4.1583,-5.4972 -5.3824,-7.82171 l -2.2253,-4.22611 -0.033,-7.50714 -0.033,-7.50713 3.16,-6.66999 3.1601,-6.6701 7.7671,-8.12964 7.7669,-8.12976 -2.8117,-5.88299 -2.8118,-5.88311 0.6005,-3.00243 0.6006,-3.00242 -1.4327,-1.18896 -1.4326,-1.18896 1.5537,-3.00431 1.5534,-3.00431 -2.2213,-2.3645 -2.2213,-2.3645 0.6348,-4.63072 0.6346,-4.63071 1.9937,-4.50696 1.9936,-4.50709 4.2567,-5.08433 4.2569,-5.0842 4.3941,-2.78665 4.3941,-2.78665 5.421,-1.21316 5.4209,-1.21316 5.2114,1.64634 5.2113,1.64634 5.7142,3.57866 5.7141,3.57879 3.6463,6.00247 3.6464,6.0026 0.5121,3.81839 0.5122,3.81839 -2.2097,7.00135 -2.2098,7.00149 -3.8455,4.89701 c -2.1152,2.69337 -5.4993,7.37436 -7.5203,10.40224 -2.021,3.02788 -5.0231,6.70221 -6.6714,8.16524 l -2.9969,2.66002 0.8523,1.45376 c 0.4688,0.79966 4.9536,5.80801 9.9663,11.12968 l 9.1142,9.67579 1.1954,-1.44034 1.1953,-1.44034 0.2006,-2.84031 0.2004,-2.84032 -3.7486,-0.31031 -3.7484,-0.31043 -2.5074,-3.28741 -2.5075,-3.28742 0,-2.08616 0,-2.08616 1.4339,-1.43395 1.4339,-1.43383 8.3254,-2.5883 c 4.5789,-1.42354 10.5774,-3.09997 13.33,-3.72536 l 5.0047,-1.13717 12.0115,-0.39494 c 6.6063,-0.21728 14.3761,-0.66275 17.2664,-0.98999 l 5.2549,-0.59492 -5e-4,1.32324 -5e-4,1.32324 -7.1185,6.50612 c -3.9152,3.57841 -8.5318,7.9126 -10.2592,9.63153 l -3.1407,3.1253 -4.8825,0.70876 c -2.6854,0.3898 -5.5005,0.94585 -6.2558,1.23573 l -1.3737,0.52709 0,4.86015 0,4.86003 -2.1355,5.70796 -2.1356,5.70783 2.8759,2.08704 c 1.5818,1.14784 4.6824,3.47724 6.8903,5.17636 l 4.014,3.08919 -0.1858,1.41501 c -0.1016,0.77822 -0.8087,3.1006 -1.57,5.16081 l -1.3841,3.7458 -2.3579,2.51019 -2.3581,2.51007 -3.0787,0 -3.0787,0 -3.2772,-1.99815 c -1.8026,-1.09844 -3.8813,-1.99765 -4.6196,-1.99765 -0.7383,0 -2.4875,-0.90084 -3.8873,-2.00191 -1.3997,-1.10107 -3.1496,-1.99038 -3.8885,-1.97621 -0.739,0.0138 -3.821,1.6071 -6.8489,3.54017 l -5.5051,3.5146 -9.4693,2.96594 -9.4692,2.96596 -5.0445,-0.0732 -5.0445,-0.0732 -5.0048,-1.78382 z m 24.2877,-24.2229 4.4006,-2.1303 0.4901,-1.2771 0.4901,-1.27723 -10.3301,-10.09932 -10.33,-10.09932 -1.2085,0 -1.2085,0 -2.7952,3.68448 c -1.5375,2.02636 -4.2592,5.03706 -6.0485,6.6903 l -3.253,3.00581 0,1.3537 0,1.35358 4.254,4.34047 c 2.3397,2.38719 5.1548,4.83445 6.256,5.43839 l 2.0018,1.09794 6.4404,0.0301 6.4403,0.0301 4.4005,-2.13017 z m -5.3545,-61.5176 7.7278,-6.59375 1.9302,-3.16554 1.9302,-3.16542 0,-3.17633 0,-3.17633 -2.482,-2.94976 -2.4822,-2.9499 -3.0063,-1.24525 -3.0065,-1.24526 -3.4596,0.64896 -3.4597,0.64908 -2.7145,3.21908 c -1.493,1.77047 -3.3216,4.66845 -4.0641,6.43992 l -1.3503,3.22096 0,3.87681 0,3.87694 1.4176,4.70983 c 1.4078,4.67797 3.1675,7.61972 4.558,7.61972 0.399,0 4.2032,-2.9672 8.4535,-6.59376 z m 177.5339,58.64732 c -3.1484,-0.40384 -8.9165,-1.76068 -12.8179,-3.01509 l -7.0934,-2.28088 -5.9435,-3.61001 c -3.269,-1.98561 -8.2471,-5.41181 -11.0624,-7.61395 l -5.1185,-4.00382 -5.7879,-6.81104 -5.7877,-6.81103 -3.0281,-5.70081 c -1.6654,-3.13546 -3.9486,-8.62852 -5.0739,-12.20693 -1.1253,-3.57842 -3.0017,-11.67646 -4.17,-17.99563 l -2.1242,-11.48939 0.4448,-4.52577 c 0.6427,-6.53821 3.4716,-21.05937 6.2595,-32.13012 2.7755,-11.02185 8.712,-28.51121 11.683,-34.41902 4.4259,-8.80091 15.5609,-26.4757 22.3955,-35.5488 3.9651,-5.26349 10.2982,-12.72925 14.0735,-16.59064 3.7754,-3.86127 10.0157,-9.4031 13.8675,-12.31501 l 7.0032,-5.29446 8.2998,-4.11277 8.2999,-4.11278 10.7216,-0.0677 10.7217,-0.0677 9.509,3.83707 c 5.2299,2.11049 10.4099,3.91217 11.511,4.00382 l 2.0017,0.16676 0.5007,-5.55049 0.5004,-5.55048 1.8571,-2.83279 1.8568,-2.83279 5.507,0.6472 5.507,0.64732 5.4098,2.55922 5.4098,2.55922 3.4916,3.29305 3.4917,3.29305 0,5.01174 c 0,2.75643 -0.2817,6.41998 -0.6259,8.14117 l -0.6259,3.12956 -3.948,4.48539 -3.9484,4.48528 0.6295,1.01832 0.6293,1.01832 1.8319,0 1.8319,0 2.3119,1.87202 2.3119,1.87214 -1.1886,13.89289 c -1.3681,15.98983 -2.3947,23.62861 -4.5333,33.72843 -0.8374,3.95455 -1.9588,9.44222 -2.492,12.19477 -0.5334,2.75267 -1.711,8.31595 -2.6173,12.3629 l -1.6473,7.35818 -2.4847,4.90341 -2.4848,4.90353 -0.8674,0 -0.8673,0 -0.6036,-2.25216 c -0.332,-1.23874 -0.6097,-4.63134 -0.6171,-7.53923 l -0.014,-5.28719 -1.3527,-3.23701 -1.3524,-3.23714 -0.7381,-12.95618 -0.738,-12.95619 -4.2891,-12.55184 -4.289,-12.55184 -4.3103,-8.40497 -4.3105,-8.40496 -3.5963,-3.78053 -3.5962,-3.78052 -2.7734,-0.6961 -2.7731,-0.69597 -4.384,1.6743 c -2.4112,0.92077 -7.2338,3.55496 -10.7168,5.85364 l -6.3327,4.17948 -9.329,9.45613 -9.3289,9.45614 -7.374,11.08442 -7.3741,11.08454 -6.9966,14.51376 c -7.5137,15.58661 -12.5468,28.47234 -16.6464,42.61911 l -2.5704,8.86975 -0.6198,7.53709 -0.6198,7.5371 -2.3429,2.81913 -2.3431,2.81912 1.473,2.84821 c 0.8101,1.5666 2.7561,3.90139 4.3246,5.18852 l 2.8516,2.34018 2.6813,4.69578 2.6811,4.69579 4.7468,4.86065 4.7466,4.86066 4.85,2.34018 4.8496,2.34005 11.1656,-0.52446 11.1652,-0.52458 9.693,-3.13996 c 5.3311,-1.72696 12.2827,-4.2853 15.4483,-5.68527 l 5.7553,-2.54517 1.7786,0.46502 1.7783,0.46503 2.8748,-2.74716 2.8747,-2.74715 7.0582,-2.69713 7.0584,-2.69714 1.8655,-2.06121 c 1.0259,-1.13367 3.0416,-2.66955 4.4792,-3.41292 l 2.6139,-1.35182 1.1876,-2.79982 1.1873,-2.79981 5.6656,-3.4415 c 3.116,-1.89284 7.3574,-4.97024 9.4258,-6.83887 l 3.7604,-3.39724 3.9726,-6.29034 3.9726,-6.29009 1.4972,-0.57449 1.497,-0.57448 1.2249,1.47595 1.2251,1.47608 -1.1164,2.21806 c -0.6139,1.21993 -2.2225,6.80665 -3.5747,12.41493 l -2.4584,10.19699 -4.8312,8.8211 -4.8311,8.82097 -6.69,6.69506 -6.6901,6.69493 -2.8719,1.48498 -2.8717,1.4851 -1.9295,-0.17239 -1.9298,-0.1724 -2.7848,5.50522 -2.7845,5.50523 -10.7504,6.69806 -10.7502,6.69807 -9.0087,2.99152 -9.0085,2.99152 -7.8299,1.0706 c -8.5747,1.17241 -13.2302,1.18809 -21.9174,0.074 z m -944.03854,-17.41099 -3.86641,-1.45301 -2.98165,-2.83179 -2.98168,-2.83166 -1.9655,-3.82202 -1.96549,-3.82203 -0.56195,-4.7448 -0.56196,-4.74468 2.38759,-2.77574 2.38757,-2.77575 6.27212,-0.73948 6.27212,-0.7396 1.70387,-1.70389 1.70383,-1.70376 0.51339,-9.22983 0.5134,-9.2297 3.00284,-0.51142 3.00285,-0.51141 0.31067,-2.68522 0.31068,-2.68522 -2.81303,-1.79115 c -1.54718,-0.98522 -3.14398,-2.25204 -3.54845,-2.81537 l -0.73537,-1.02396 -0.0154,-28.80873 -0.0153,-28.80873 1.25119,-0.38541 c 0.68815,-0.21202 2.44018,-0.64444 3.8934,-0.9609 l 2.6422,-0.57548 0.63567,-1.6565 0.6357,-1.65662 -1.27599,-1.7084 c -0.70181,-0.93958 -2.79223,-3.68874 -4.64542,-6.10929 l -3.36942,-4.40115 0.80916,-16.01515 c 0.44503,-8.80844 0.8352,-20.37142 0.86703,-25.69572 l 0.0578,-9.68044 -2.417,-2.57088 -2.41699,-2.571 -5.5906,-2.08453 -5.59057,-2.08454 -2.17125,-2.02798 -2.17124,-2.02787 -2.1316,-4.95506 -2.13161,-4.95507 -0.16397,-5.91608 -0.16399,-5.91621 2.34429,-2.4954 2.34428,-2.4954 8.62871,-3.15401 8.6287,-3.15413 15.51471,-2.89486 15.51471,-2.89485 18.01707,0.0213 18.01708,0.0213 9.6251,0.9367 9.62508,0.9367 8.22527,3.0018 c 4.52392,1.6511 11.01026,4.55937 14.41411,6.46286 3.40385,1.90361 8.22851,5.25634 10.7215,7.45083 l 4.53266,3.98978 6.34986,8.85407 6.34983,8.85407 4.79698,10.00943 4.79697,10.00955 1.68121,6.50612 1.68122,6.50624 0.0898,7.50701 0.0899,7.50713 -1.29652,5.50522 -1.29648,5.50522 -3.91314,8.00765 -3.91315,8.00751 -5.75116,6.6824 c -3.16312,3.67533 -8.00329,8.6823 -10.75589,11.12654 -2.75261,2.44412 -8.53269,6.97441 -12.8446,10.06723 l -7.83986,5.62308 -12.17912,5.89264 c -15.35422,7.42877 -33.27133,14.60202 -41.7071,16.69759 -3.57841,0.88893 -8.17501,2.04454 -10.21469,2.56812 l -3.70852,0.95187 -1.54646,1.54641 -1.54646,1.54641 0,12.98641 0,12.98627 2.29592,2.29593 2.29595,2.29604 4.08022,0.65234 4.08024,0.65247 1.25351,1.51043 1.25351,1.51043 5.1324,0.015 5.13244,0.015 4.32052,1.50479 4.32052,1.50491 0.92712,-0.5731 c 0.87307,-0.53951 21.94357,-1.66001 28.46789,-1.51369 1.65157,0.0364 4.57934,0.074 6.50616,0.0815 1.92684,0.0125 4.11709,0.23421 4.86724,0.50314 l 1.36393,0.48885 -1.23624,1.48962 -1.23624,1.48949 -1.56332,0 c -0.85984,0 -3.61985,0.95701 -6.13338,2.12654 -2.51351,1.16952 -7.27261,3.38257 -10.57574,4.9177 -3.30312,1.53525 -8.70826,3.55421 -12.01138,4.48652 -3.30313,0.93244 -7.48488,2.32288 -9.29274,3.08982 l -3.28706,1.3947 -3.74712,0 -3.74714,0 -2.18906,1.53325 c -3.2726,2.29216 -9.67163,4.36403 -20.27725,6.56504 l -9.50901,1.97358 -12.01138,0.50001 -12.01139,0.5 -3.86641,-1.453 z m 74.79841,-111.405 8.87319,-3.50632 4.33178,0.64958 4.3318,0.64958 1.6047,-2.44913 1.60469,-2.44901 -0.60283,-2.40199 -0.60286,-2.40187 1.97533,-1.78764 1.97535,-1.78764 2.14914,1.15022 2.14913,1.15009 1.52373,-1.26456 1.52373,-1.26456 -0.5569,-2.78452 -0.55693,-2.78452 4.99992,-5.71373 c 6.24609,-7.13777 11.28328,-14.68264 14.76802,-22.11994 l 2.69242,-5.74645 6.4e-4,-9.00853 6.5e-4,-9.00854 -2.66294,-5.6805 -2.66291,-5.6805 -4.09602,-4.44365 -4.09599,-4.44364 -5.83636,-2.61915 -5.83636,-2.61927 -7.6809,-1.14232 -7.68089,-1.14244 -9.75228,1.18344 c -5.36374,0.65084 -10.50361,1.40035 -11.42192,1.66552 l -1.66967,0.4822 -3.46722,-3.0443 -3.46724,-3.0443 -2.08477,0 -2.08479,0 -1.03616,1.93608 c -0.56988,1.06484 -1.03616,3.01635 -1.03616,4.33658 l 0,2.40049 -3.67509,2.41979 c -2.02131,1.33101 -4.55767,3.61979 -5.63637,5.08646 l -1.96129,2.66642 -0.82373,15.85103 -0.82376,15.85104 -0.046,28.58594 -0.046,28.58606 1.25119,1.5775 c 0.68816,0.86774 1.92683,1.78037 2.75262,2.02824 l 1.5014,0.45061 11.51093,-2.4307 11.51092,-2.43071 8.87316,-3.50644 z m 94.22455,109.09553 c -1.65156,-0.21903 -5.40204,-1.07511 -8.33438,-1.90223 l -5.33154,-1.50379 -4.22085,-4.22085 -4.22085,-4.22085 -4.39669,-11.4939 -4.39668,-11.4939 -0.41775,-13.4735 -0.41773,-13.47362 1.18883,-7.36947 1.18884,-7.36947 2.41046,-7.08711 c 1.32575,-3.89788 4.02626,-10.02661 6.0011,-13.61944 4.30034,-7.82346 11.14875,-16.92478 17.67053,-23.48342 l 4.77223,-4.79922 8.29621,-3.98075 8.29624,-3.98088 5.10342,-0.60445 5.10343,-0.60432 5.19277,2.82615 5.19275,2.82627 5.31508,5.10689 5.31506,5.10702 2.49612,4.95457 2.49613,4.95456 1.12544,5.30424 1.12544,5.30424 -0.005,12.71283 -0.005,12.71283 -1.04503,3.76309 -1.04502,3.76297 -2.20246,1.42919 -2.20249,1.42906 -7.00664,1.1457 c -7.02497,1.14871 -41.53452,9.71968 -49.04649,12.1816 l -4.00381,1.31208 -1.74465,3.56638 -1.74469,3.56638 1.69721,4.44126 c 0.93346,2.44262 2.74801,6.14666 4.03227,8.23107 l 2.33505,3.7898 3.21763,2.02924 3.21763,2.02937 6.09546,-0.43607 6.09547,-0.43593 6.41639,-2.82979 c 3.52902,-1.55644 11.81898,-6.06202 18.42214,-10.01243 l 12.00574,-7.18253 1.36376,0.52333 1.36377,0.52332 -0.53517,3.2977 c -0.29431,1.81384 -1.44319,5.35063 -2.55301,7.85957 l -2.01787,4.56162 -2.48716,0 -2.48715,0 -1.64,1.64007 -1.64,1.63995 0.1599,4.11553 c 0.088,2.26345 0.1181,4.60376 0.0671,5.20056 l -0.0928,1.08527 -8.78665,4.17559 -8.78667,4.17571 -6.97827,1.47821 c -6.9113,1.46391 -9.16627,1.58653 -14.98588,0.8147 z m 9.56754,-73.8603 16.45715,-3.70116 4.16843,-1.81485 4.16841,-1.81497 1.08657,-2.03025 1.08653,-2.03024 0,-10.55558 0,-10.55544 -1.61375,-4.03316 -1.61375,-4.03316 -2.36389,-0.59342 -2.36389,-0.59329 -4.5184,2.18735 -4.5184,2.18734 -7.47884,6.98444 c -4.11338,3.84145 -9.01473,9.0963 -10.8919,11.6777 -1.87718,2.58129 -5.32189,8.374 -7.65491,12.87269 l -4.24187,8.17941 0.70923,1.14758 0.70923,1.14759 1.20846,-0.46378 c 0.66466,-0.25501 8.61417,-2.12917 17.66559,-4.1648 z m 317.12447,72.1756 c -1.99175,-0.71165 -5.26123,-2.30758 -7.26565,-3.54644 l -3.64474,-2.25254 -2.50443,-4.27364 c -1.37752,-2.35059 -4.18875,-8.95512 -6.24708,-14.67687 l -3.74253,-10.40324 0.094,-16.01516 0.0928,-16.01516 2.16879,-8.00764 2.16866,-8.00752 4.05836,-8.50815 4.05849,-8.50803 5.42159,-7.09388 c 2.98187,-3.90164 7.91524,-9.45225 10.96318,-12.33482 l 5.54146,-5.24092 7.53873,-3.48313 7.53873,-3.483 4.87244,-0.57711 4.87246,-0.57712 4.3373,2.11776 4.3372,2.11776 6.2144,5.56177 6.2142,5.56189 3.2948,6.68704 3.2946,6.68703 0.3245,17.54314 0.3243,17.54302 -1.0303,2.70027 -1.0305,2.70026 -2.2968,1.49024 -2.2968,1.49012 -9.0392,1.5577 c -4.9717,0.85671 -17.58361,3.83255 -28.02672,6.61306 l -18.98737,5.05524 -4.5042,2.20891 -4.50433,2.20891 0.16826,6.1765 0.16825,6.17637 2.04266,4.61754 2.04241,4.61755 3.51247,1.46768 3.51271,1.46755 7.28885,-0.0176 7.28923,-0.0175 8.44157,-3.42332 8.44171,-3.42332 1.9014,1.01757 1.9012,1.01756 1.8287,-1.65486 c 1.0057,-0.91012 2.0781,-2.6352 2.3834,-3.83331 l 0.5548,-2.17844 6.2971,-4.25408 6.2972,-4.25407 1.8418,0 1.842,0 2.863,-2.03865 c 1.5746,-1.12125 4.9473,-2.96067 7.4946,-4.08745 l 4.6314,-2.04867 0.5233,0.5232 0.5234,0.52333 -1.6778,4.39312 -1.6777,4.39312 -3.9029,5.15654 c -2.1466,2.83605 -4.8019,6.91874 -5.9007,9.07248 l -1.9976,3.91593 -5.0652,4.43074 -5.0649,4.43085 -9.2333,4.64701 -9.2332,4.64701 -4.76352,1.24965 -4.76349,1.24976 -1.54917,-2.21191 -1.54917,-2.21192 -2.69588,0 -2.69587,0 -4.00383,2.46593 c -2.20213,1.35634 -4.67948,2.46029 -5.50522,2.4534 -0.82586,-0.0125 -3.13106,-0.59505 -5.12257,-1.30682 z m 16.13289,-71.74794 c 7.43216,-1.64621 16.33278,-3.92082 19.77918,-5.05461 l 6.2661,-2.06147 1.1052,-2.06497 1.1051,-2.06498 0.1358,-11.61301 0.1356,-11.61314 -2.0828,-3.50331 -2.083,-3.50331 -3.5052,0.099 -3.5053,0.0991 -6.15317,4.17859 -6.15355,4.17873 -2.37792,-0.5968 -2.37829,-0.59693 -1.64609,1.64622 -1.64634,1.64621 0.61335,2.44299 0.6131,2.44286 -3.96897,5.24206 c -2.18296,2.88307 -5.8366,8.67565 -8.11935,12.87243 l -4.15039,7.63038 0,2.24565 0,2.24564 2.25216,-0.65234 c 1.23861,-0.35883 8.33288,-1.99928 15.76478,-3.64561 z m 621.85948,72.42611 -2.232,-0.43118 -2.0221,-2.57037 -2.0217,-2.57037 0,-1.74439 0,-1.74426 -1.4136,-1.17316 -1.4136,-1.17316 -6.0661,2.55307 c -3.3362,1.40423 -9.5691,3.70968 -13.8507,5.12332 l -7.7849,2.57025 -9.0888,0.56846 -9.0889,0.56847 -5.3109,-1.76407 -5.311,-1.76407 -3.8619,-3.48889 -3.8617,-3.4889 -1.5073,-5.07517 -1.5071,-5.07505 0,-4.77753 0,-4.77753 2.4252,-6.68114 2.425,-6.68102 3.7464,-5.4394 3.7461,-5.4394 5.5898,-4.03554 5.59,-4.03554 12.0112,-5.85152 12.0114,-5.85152 8.8175,-2.19862 8.8177,-2.19851 2.1021,-1.70213 2.1017,-1.70201 -1.105,-9.72795 -1.1049,-9.72795 -1.807,-3.69665 -1.8068,-3.69664 -8.0076,-0.28185 -8.0077,-0.28185 -8.0075,3.89248 -8.0076,3.89249 -7.5072,5.56992 c -4.1289,3.06348 -8.0822,6.16822 -8.7853,6.8993 -0.703,0.7312 -2.3606,2.6807 -3.6839,4.33218 l -2.4059,3.00293 -1.2037,-1.18432 -1.2038,-1.18419 2.7012,-6.82333 c 1.4853,-3.75281 4.1353,-9.23496 5.8886,-12.18247 l 3.1876,-5.35916 5.8795,-4.93112 c 3.2336,-2.71205 7.7527,-6.0288 10.0423,-7.3706 2.2894,-1.34179 6.175,-3.15563 8.6342,-4.03077 l 4.4715,-1.5913 7.2036,-0.0401 7.2035,-0.0401 5.354,2.45114 5.354,2.45114 3.6675,3.22008 3.6674,3.22008 2.4281,5.18677 2.428,5.18676 1.1382,5.40906 1.1381,5.40918 0.9637,14.10929 c 0.53,7.76027 0.9703,18.05067 0.9785,22.86782 l 0.015,8.75828 0.9419,0 c 0.5179,0 1.2202,-0.45049 1.5604,-1.00102 l 0.6185,-1.00089 2.068,0 2.068,0 -0.6496,3.25305 c -0.3573,1.78927 -1.99,6.11883 -3.6286,9.62139 l -2.9786,6.36832 0,1.88957 0,1.88945 1.0562,0 c 0.5808,0 3.6212,-1.31547 6.7564,-2.92331 8.4014,-4.30887 14.6826,-7.08612 16.0256,-7.08612 l 1.1855,0 0,0.93018 c 0,0.51154 -1.8329,3.6895 -4.0729,7.06192 l -4.0729,6.13186 -0.7714,4.88021 -0.7715,4.88034 -1.6219,2.47509 -1.6217,2.47509 -5.295,3.00568 -5.295,3.00569 -5.4366,1.59506 c -2.9901,0.87714 -5.6928,1.53362 -6.0059,1.45865 -0.313,-0.0752 -1.5733,-0.33038 -2.8012,-0.56747 z m -35.7975,-22.78833 7.6895,-1.47131 5.6612,-2.58191 c 3.1134,-1.42003 7.3521,-3.7483 9.4189,-5.17397 l 3.758,-2.59219 1.9975,-3.23212 1.9975,-3.23212 0,-4.18136 0,-4.18136 -2.4569,-2.4569 -2.4569,-2.45691 -1.9253,0 -1.9252,0 -1.5045,-2.25204 -1.5046,-2.25217 -1.9151,1.72069 -1.9155,1.72082 -6.7751,2.09255 -6.775,2.09256 -3.6903,3.26184 c -2.0296,1.79403 -5.813,4.75935 -8.4077,6.58961 l -4.7176,3.32779 -2.4392,3.61038 c -1.3416,1.98561 -2.7468,4.64588 -3.1228,5.91145 l -0.6837,2.30119 1.6075,2.45327 1.6076,2.45339 5.3941,0 5.3941,0 7.6895,-1.47118 z m -507.3183,18.08929 -3.6724,-3.6727 -2.5025,-4.93801 -2.5023,-4.93802 0,-2.47659 0,-2.47646 1.2463,-0.7702 1.2461,-0.7702 8.5132,-0.0401 8.5129,-0.0401 0.6027,-20.01898 0.6026,-20.01898 1.2288,-5.24055 1.2288,-5.24042 -0.3298,-12.94929 -0.3303,-12.9493 -2.2167,-2.3566 -2.2169,-2.35661 0.5787,-2.21304 0.5788,-2.21305 -1.6826,-0.64557 -1.6824,-0.6457 -2.1846,1.14959 -2.1845,1.14959 -5.0048,-1.91402 -5.0047,-1.91414 -0.3411,-1.69411 -0.3407,-1.69423 2.2222,-2.36538 2.222,-2.36526 8.6288,-3.17031 8.6285,-3.17043 5.5681,-0.11786 5.5679,-0.11785 2.7733,1.81735 2.7736,1.81723 1.4178,3.39336 1.4178,3.39323 0,5.03693 0,5.03694 1.2511,-6.3e-4 1.2514,-5e-4 5.7244,-6.4013 5.7241,-6.4013 4.351,-2.10622 4.351,-2.10623 4.6068,0 c 2.5338,0 5.3538,0.28662 6.2669,0.63692 l 1.66,0.63705 0.8993,2.36588 0.8996,2.36588 2.8405,0 2.8403,0 2.5656,2.75255 2.5657,2.75268 4.1278,8.54313 4.1277,8.54325 -0.058,1.96681 c -0.031,1.08163 -0.8608,5.04709 -1.8423,8.81207 l -1.7844,6.84526 -4.4138,1.97194 -4.4137,1.97207 -2.6594,2.54129 -2.6594,2.54129 -5.9753,-2.68146 -5.9752,-2.68159 -1.0869,-2.38544 -1.0868,-2.38544 0.8294,-0.51255 0.8293,-0.51267 1.7904,1.97834 1.7904,1.97822 2.6564,0 2.6564,0 1.6393,-1.25115 1.6395,-1.25115 1.5402,-4.50433 c 0.8471,-2.47734 1.5467,-5.31289 1.5547,-6.30137 l 0.015,-1.79717 -2.5023,-2.50242 c -1.3764,-1.37627 -2.5024,-2.85373 -2.5024,-3.28327 0,-0.42955 -1.0426,-1.76031 -2.3165,-2.95742 l -2.3168,-2.17643 -5.4683,0 -5.4683,0 -2.2465,1.57362 -2.2466,1.57361 -2.8416,5.68326 c -1.5627,3.1258 -3.5678,7.93543 -4.4553,10.68798 -0.8878,2.75267 -2.7651,11.75143 -4.172,19.99741 l -2.5579,14.99258 -0.1003,7.75751 -0.1003,7.75739 1.7153,2.61752 1.7149,2.61751 4.3016,1.90286 4.3017,1.90287 0.5446,2.08215 0.5444,2.08228 2.053,-1.09869 2.053,-1.09869 1.9632,1.22595 1.9632,1.22607 2.487,-1.33101 2.487,-1.33102 2.8298,0.70626 c 1.5563,0.38854 3.5053,1.28638 4.3311,1.99539 0.8258,0.70889 2.7493,1.58553 4.2747,1.94812 l 2.7731,0.65911 2.0888,-1.11787 2.0888,-1.11787 0.9578,0.95777 0.9578,0.95788 -1.7149,1.71492 -1.7149,1.71505 -2.0291,-0.5306 -2.0291,-0.5306 -2.5763,1.38643 c -3.9147,2.10673 -12.0931,4.52401 -15.3062,4.52401 l -2.8643,0 -4.2144,2.18133 -4.2141,2.18133 -11.0105,0.74123 c -6.0557,0.40773 -15.326,1.06371 -20.6004,1.4579 l -9.59,0.71653 -3.6727,-3.67257 z m 580.7851,0.75753 c -1.4296,-1.57399 -3.3439,-3.97549 -4.2542,-5.33671 l -1.6549,-2.47484 0,-2.78013 0,-2.78013 1.9625,-1.96242 1.9624,-1.96254 5.5433,-1.61149 5.5433,-1.61148 0.5706,-2.2736 0.5708,-2.27361 -0.3191,-35.94198 -0.3191,-35.94212 -2.056,-3.49992 -2.056,-3.49993 -3.4493,-2.32438 -3.4491,-2.32439 0,-1.18231 0,-1.18231 9.509,-3.22761 c 5.2299,-1.77523 10.4099,-3.23902 11.511,-3.25306 l 2.0019,-0.0251 2.5937,3.25305 2.5937,3.25306 1.2808,4.00382 c 0.7044,2.20202 1.6618,4.41669 2.1277,4.92147 l 0.8469,0.91776 7.29,-7.57195 7.29,-7.57208 4.2541,-1.14169 4.254,-1.14157 3.7754,1.01657 3.7755,1.01669 4.2472,3.12341 4.2471,3.12329 2.3893,4.15641 c 1.314,2.28602 2.6856,5.58045 3.0477,7.32095 l 0.659,3.16466 -1.1286,6.34438 c -0.6207,3.4894 -2.2649,10.10472 -3.6541,14.7007 l -2.5255,8.35632 -5.9202,6.06904 -5.92,6.06892 -0.6151,-0.61485 -0.6147,-0.61485 1.7125,-6.98795 1.7126,-6.98806 -0.5696,-10.25304 -0.5695,-10.25304 -1.0103,-1.01042 -1.0104,-1.01029 -5.5583,1.75203 -5.5584,1.75216 -3.0824,4.19025 c -1.6953,2.3047 -3.7045,5.64038 -4.4649,7.4126 l -1.3826,3.22222 -2.5018,16.48344 -2.5018,16.48357 0,6.11845 0,6.11832 1.4643,2.83191 c 0.8056,1.55745 2.0443,3.04832 2.7528,3.31299 0.7085,0.26467 6.6932,0.15936 13.2995,-0.23408 l 12.0113,-0.71541 0.9049,0.8097 0.9046,0.80981 -2.7442,3.59785 c -1.5094,1.97884 -4.2035,4.55461 -5.9873,5.72376 l -3.2431,2.1259 -2.1639,3.30108 -2.1639,3.30108 -2.6178,1.7153 -2.6177,1.71517 -9.6543,0.72443 c -5.3097,0.39833 -13.9334,1.04039 -19.1633,1.42668 l -9.509,0.70236 -2.599,-2.86187 z m 85.4976,1.01193 c -1.2002,-1.02948 -3.3397,-3.6238 -4.7545,-5.76513 l -2.5724,-3.89324 0,-1.93922 0,-1.93923 2.8043,-2.80433 2.8044,-2.80433 4.1447,-0.70023 4.1446,-0.70024 0.9662,-1.17291 0.9663,-1.17291 0.2133,-35.03325 0.2134,-35.03324 -0.9996,-4.79057 -0.9993,-4.79057 -1.7625,-1.94762 -1.7625,-1.9475 -5.1165,-1.90599 -5.1163,-1.90587 -0.2729,-1.36537 -0.2731,-1.36549 12.691,-2.26471 12.6913,-2.2647 2.5959,1.6511 c 1.428,0.90812 3.5936,2.82803 4.8125,4.26662 l 2.2165,2.61551 0.6476,3.25306 0.6477,3.25318 1.1399,-0.0125 1.1397,-0.0125 4.7034,-5.89891 4.7037,-5.89891 5.5026,-2.69224 5.5027,-2.69224 3.3065,0.71227 c 1.8187,0.39181 4.6579,1.38518 6.3095,2.20753 3.8537,1.91879 8.3209,6.07193 10.0134,9.30945 l 1.3266,2.53777 -1.4286,12.977 -1.4288,12.977 -2.9644,4.5042 c -1.6302,2.47735 -3.735,5.96825 -4.6769,7.75739 l -1.7124,3.25306 -1.6206,0 -1.6205,0 -0.097,-8.25777 -0.098,-8.2579 -1.7019,-4.23477 -1.7019,-4.23476 -3.2702,-2.02122 -3.2704,-2.02109 -2.5112,0 -2.511,0 -2.0022,4.75458 c -1.1012,2.61488 -2.7071,7.00662 -3.5689,9.75917 -1.6995,5.42849 -5.1866,26.70201 -6.256,38.16569 l -0.6657,7.13627 1.1695,3.54381 c 0.6433,1.94912 1.7097,3.98514 2.3697,4.52439 l 1.2,0.98045 5.505,-0.98509 c 3.0279,-0.54176 8.208,-1.10659 11.511,-1.25503 3.3031,-0.14858 6.7483,-0.59154 7.6561,-0.98447 l 1.6503,-0.71453 0.7087,1.14658 0.7087,1.14646 -6.5801,6.32607 -6.5799,6.32595 -1.5637,3.90815 -1.5637,3.90804 -3.204,1.89258 -3.204,1.89258 -9.529,0.70713 c -5.2408,0.38892 -13.5825,1.03199 -18.5374,1.42893 l -9.0085,0.72193 -2.1821,-1.87189 z m 113.788,0.0852 -5.5053,-1.5118 -5.3189,-3.64148 -5.319,-3.64148 -3.9242,-4.58859 -3.9242,-4.58858 -2.9166,-6.00561 -2.9167,-6.00573 -1.1028,-5.30424 -1.1027,-5.30424 0.02,-9.20952 0.02,-9.20951 0.9734,-6.72979 0.9732,-6.72967 2.1495,-6.28256 c 2.829,-8.26918 7.4177,-17.38517 11.109,-22.06929 l 2.975,-3.77526 6.2779,-4.47975 c 3.4529,-2.46393 8.7392,-5.60678 11.7476,-6.98406 l 5.4699,-2.50417 7.4193,-0.6047 7.4193,-0.60482 6.9842,1.6432 6.9844,1.6432 4.1818,2.45064 4.1817,2.45077 3.0947,3.9074 3.0946,3.90728 3.4746,7.36659 c 1.9109,4.05159 4.1916,10.0691 5.0684,13.37219 l 1.5937,6.00573 0.5595,9.50904 0.5594,9.50905 -1.6193,8.50802 c -0.8908,4.67936 -2.0814,10.15888 -2.646,12.17659 l -1.0262,3.66868 -3.4799,2.05307 -3.4796,2.05306 0,1.5488 c 0,0.85182 0.5557,2.43847 1.2347,3.52575 l 1.2346,1.97696 -1.9853,3.70078 c -1.0919,2.03552 -4.0846,6.00097 -6.6505,8.8122 l -4.665,5.11128 -5.3445,2.95052 -5.3444,2.95052 -12.5118,0.24273 -12.5119,0.24261 -5.5052,-1.51181 z m 23.9792,-20.72448 5.5203,-1.25115 3.83,-3.81588 3.8302,-3.81575 1.9453,-4.53893 1.9458,-4.53894 1.1029,-7.10956 1.1032,-7.10968 -0.6656,-14.06365 c -0.3661,-7.73495 -0.6471,-16.15609 -0.6244,-18.71342 l 0.04,-4.6499 -2.7036,-1.77146 c -1.4871,-0.97431 -5.1009,-3.72398 -8.0307,-6.1103 l -5.3268,-4.33895 -3.2827,0 -3.2829,0 -5.1388,1.5261 -5.139,1.5261 -3.2241,2.71305 -3.2244,2.71293 -3.807,5.89013 -3.8069,5.89014 -0.6108,3.63383 c -0.336,1.99852 -0.8207,4.40202 -1.0772,5.34098 -0.2564,0.93908 -2.244,3.8585 -4.4168,6.48781 l -3.9504,4.78066 0,1.54754 0,1.54754 1.8472,1.58177 1.8475,1.58177 0.6875,5.85064 0.6877,5.85064 4.3272,9.13466 4.327,9.13454 2.9338,2.08905 c 3.4625,2.46556 8.5113,4.04306 13.3413,4.16857 1.9105,0.0501 5.9581,-0.4728 8.9941,-1.16088 z m 89.348,19.69087 -5.1778,-2.58016 -2.5737,-3.05872 c -1.4155,-1.68219 -3.4119,-4.70192 -4.4366,-6.71023 l -1.8629,-3.65176 -1.0923,-5.90743 -1.0919,-5.90756 -0.07,-26.59155 -0.07,-26.59155 -0.7826,-2.00191 -0.7829,-2.00191 -7.2237,0 -7.2234,0 -3.9348,-4.21533 -3.9348,-4.21521 0,-2.5547 0,-2.5547 -1.1587,-1.85572 -1.1589,-1.85572 0.5455,-1.42204 0.5457,-1.42191 5.9052,-3.09533 5.9049,-3.09534 5.7755,-1.29252 5.7757,-1.29252 1.1942,-2.08015 1.1944,-2.08014 -0.2568,-20.34722 -0.2569,-20.34722 -1.0638,-1.98787 -1.0639,-1.98787 1.193,-1.43746 1.193,-1.43746 1.9986,0 1.9988,0 5.857,3.55811 5.8573,3.5581 2.1067,2.95879 2.107,2.95893 0.5827,15.16146 0.5828,15.16158 1.8591,1.85911 1.859,1.8591 2.7375,-0.65786 c 1.5056,-0.36171 4.3138,-1.43783 6.2406,-2.39146 l 3.5033,-1.73385 7.8632,-0.72193 7.8633,-0.7218 3.6478,-1.55418 3.6475,-1.55431 5.2442,-0.10156 5.2442,-0.10281 0.4904,1.27885 0.4905,1.27886 -1.7308,1.41075 c -0.952,0.77609 -3.8435,3.12831 -6.4258,5.22739 -2.582,2.09908 -8.5154,7.22942 -13.1852,11.40075 l -8.4902,7.58424 -8.8357,3.34145 c -4.8595,1.83766 -9.5113,3.95793 -10.3372,4.71145 l -1.5012,1.37001 -0.3225,27.74226 -0.3225,27.74227 0.6487,5.28769 0.6489,5.28756 2.3226,2.70039 2.3227,2.70027 3.0767,-1.48172 3.0765,-1.48184 11.3932,-11.14648 c 6.2662,-6.13061 12.3697,-11.66918 13.5634,-12.30798 l 2.1701,-1.16138 0.8543,0.52809 0.8546,0.5281 -0.8091,4.27275 c -0.4452,2.34996 -1.5285,5.98053 -2.4075,8.06783 l -1.5982,3.79531 -3.1066,2.77562 -3.1065,2.77562 1.1584,2.16465 1.1585,2.16453 -1.5718,3.77638 -1.5717,3.77639 -4.2067,4.37857 c -2.3137,2.40814 -6.2091,5.67373 -8.6567,7.25688 l -4.4501,2.87831 -5.6131,0 -5.6131,0 -5.1778,-2.58016 z"
       id="path4376"
       inkscape:connector-curvature="0" />
  </g>
</svg>
