<?xml version="1.0" encoding="UTF-8" standalone="no"?>
<!-- Created with Inkscape (http://www.inkscape.org/) -->

<svg
   xmlns:dc="http://purl.org/dc/elements/1.1/"
   xmlns:cc="http://creativecommons.org/ns#"
   xmlns:rdf="http://www.w3.org/1999/02/22-rdf-syntax-ns#"
   xmlns:svg="http://www.w3.org/2000/svg"
   xmlns="http://www.w3.org/2000/svg"
   xmlns:xlink="http://www.w3.org/1999/xlink"
   xmlns:sodipodi="http://sodipodi.sourceforge.net/DTD/sodipodi-0.dtd"
   xmlns:inkscape="http://www.inkscape.org/namespaces/inkscape"
   id="svg2"
   version="1.1"
   inkscape:version="0.91 r"
   width="2481"
   height="663"
   sodipodi:docname="Pepper-and-Carrot_by-David-Revoy_E02P00.svg">
  <metadata
     id="metadata8">
    <rdf:RDF>
      <cc:Work
         rdf:about="">
        <dc:format>image/svg+xml</dc:format>
        <dc:type
           rdf:resource="http://purl.org/dc/dcmitype/StillImage" />
        <dc:title />
      </cc:Work>
    </rdf:RDF>
  </metadata>
  <defs
     id="defs6" />
  <sodipodi:namedview
     pagecolor="#ffffff"
     bordercolor="#666666"
     borderopacity="1"
     objecttolerance="10"
     gridtolerance="10"
     guidetolerance="10"
     inkscape:pageopacity="0"
     inkscape:pageshadow="2"
     inkscape:window-width="1920"
     inkscape:window-height="1017"
     id="namedview4"
     showgrid="false"
     inkscape:zoom="0.59209996"
     inkscape:cx="1240.5"
     inkscape:cy="331.5"
     inkscape:window-x="-8"
     inkscape:window-y="-8"
     inkscape:window-maximized="1"
     inkscape:current-layer="layer1" />
  <g
     inkscape:groupmode="layer"
     id="layer2"
     inkscape:label="artwork"
     sodipodi:insensitive="true">
    <image
       sodipodi:absref="/home/deevad/peppercarrot/webcomics/New/lang/en/../gfx_Pepper-and-Carrot_by-David-Revoy_E02P00.png"
       xlink:href="../gfx_Pepper-and-Carrot_by-David-Revoy_E02P00.png"
       y="0"
       x="-1.6728083e-06"
       id="image10"
       height="663"
       width="2481" />
  </g>
  <g
     inkscape:groupmode="layer"
     id="layer1"
     inkscape:label="text"
     style="opacity:1">
    <flowRoot
       xml:space="preserve"
       id="flowRoot3063"
       style="font-style:normal;font-variant:normal;font-weight:normal;font-stretch:normal;font-size:72px;line-height:125%;font-family:Arial;-inkscape-font-specification:Arial;letter-spacing:0px;word-spacing:0px;display:inline;fill:#562f13;fill-opacity:1;stroke:none"
       transform="matrix(0.77923967,0,0,0.83688944,119.68081,178.64427)"><flowRegion
         id="flowRegion3065"><rect
           id="rect3067"
           width="2715.5891"
           height="110.01318"
           x="92.642677"
           y="425.30325"
           style="font-size:72px;fill:#562f13;fill-opacity:1" /></flowRegion><flowPara
         id="flowPara3069"
         style="font-style:normal;font-variant:normal;font-weight:normal;font-stretch:normal;font-size:88px;font-family:Lavi;-inkscape-font-specification:Lavi;text-align:center;text-anchor:middle;fill:#562f13;fill-opacity:1">Episode 2 : Rainbow potions</flowPara></flowRoot>    <path
       style="display:inline;fill:#562f13;fill-opacity:1;stroke:none"
       d="m 721.2126,519.34825 c -1.95037,-1.84952 -4.19091,-4.70932 -4.97899,-6.35519 l -1.43285,-2.99248 0,-4.37375 0,-4.37363 2.42734,-2.62148 2.42733,-2.6216 1.77557,-0.0334 c 0.97656,-0.0186 2.63354,-0.73505 3.68223,-1.59187 l 1.90667,-1.55792 0.74065,-5.61729 0.74063,-5.6173 0.0722,-24.36799 0.0722,-24.36786 -1.0237,-2.06592 -1.02371,-2.06579 -1.76354,0 c -0.96996,0 -4.12268,-0.7566 -7.00607,-1.6813 l -5.2425,-1.68154 -2.35385,-2.54208 -2.35387,-2.5422 0,-1.65058 0,-1.65058 5.68628,-0.0446 5.68627,-0.0446 4.45012,-2.35899 4.45012,-2.359 0.28255,-37.38111 0.28257,-37.38099 -1.17382,-4.62038 -1.17383,-4.62038 -2.07547,-1.45387 -2.07549,-1.45375 -8.65302,-0.74793 -8.65302,-0.74781 0,-1.27921 0,-1.27921 4.37378,-4.79133 4.37377,-4.79132 12.51627,-6.11005 12.51625,-6.11005 1.9047,0.65304 c 1.0476,0.35898 3.23735,1.86389 4.86614,3.34414 l 2.96141,2.6911 0,1.43083 c 0,0.78695 0.69931,2.18607 1.55402,3.10916 l 1.55401,1.67832 10.20234,0 10.20237,0 8.57323,2.68317 c 4.71529,1.47567 10.71948,3.85783 13.34268,5.29337 2.62317,1.43566 8.3042,5.48686 12.62454,9.0028 l 7.8551,6.39248 2.71467,4.23056 2.71468,4.23068 1.41553,5.07982 1.41554,5.07982 0,7.21126 0,7.21127 -1.85081,6.42245 -1.8508,6.42233 -3.65827,7.06497 -3.65826,7.06485 -5.94769,6.86677 -5.94771,6.86678 -6.59095,5.24581 c -3.62502,2.8852 -8.81601,6.43521 -11.53552,7.88883 -2.71954,1.45363 -10.06224,4.47298 -16.31713,6.70959 -6.25489,2.23673 -12.37382,4.45898 -13.5976,4.93823 l -2.22506,0.8718 0,23.03403 0,23.03402 2.38712,2.57812 2.38713,2.57813 2.80468,0.6419 c 1.54259,0.35315 3.55241,1.07668 4.4663,1.60809 l 1.66162,0.96594 4.31214,-0.0929 c 2.37169,-0.0508 6.58402,0.24402 9.36074,0.65651 l 5.04859,0.74992 3.14188,-1.75476 3.1419,-1.75475 2.91202,0.69083 c 1.60162,0.37991 4.90673,0.6907 7.34469,0.6907 2.43798,0 4.43267,0.22483 4.43267,0.49957 0,0.27462 -1.60698,1.22459 -3.57107,2.11088 -3.60325,1.62606 -11.3523,6.87867 -16.559,11.22443 l -2.82406,2.35702 -6.43449,1.92693 -6.43449,1.92706 -4.5863,3.14917 -4.58627,3.14916 -7.41688,2.263 c -4.07928,1.24453 -9.68105,2.96683 -12.44836,3.82736 l -5.03151,1.56436 -4.08157,0 -4.08156,0 -3.54613,-3.36272 z m 43.67514,-114.59895 8.75354,-4.7502 7.97163,-6.91162 7.97161,-6.91162 4.77535,-6.22748 4.77533,-6.22773 2.82769,-6.40808 2.82768,-6.40821 7.7e-4,-4.59214 7.9e-4,-4.59214 -1.44785,-3.02381 c -0.79633,-1.66321 -2.82846,-4.27837 -4.51589,-5.81201 l -3.06802,-2.78809 -5.62052,-1.823 -5.6205,-1.82289 -8.40578,-0.0285 -8.40579,-0.0285 -5.46408,1.33384 -5.46408,1.33397 -3.18894,2.0944 -3.18893,2.09454 0,32.0035 0,32.00339 1.73059,1.0887 c 0.95183,0.59867 2.24163,1.10319 2.86622,1.12115 0.62459,0.0173 5.07473,-2.10518 9.88918,-4.71786 z m 72.53863,116.27455 c -1.35976,-0.94947 -3.68722,-3.42652 -5.17214,-5.50457 l -2.69985,-3.77819 -0.60839,-3.50244 -0.60842,-3.50257 1.33042,-3.0279 1.33042,-3.02802 4.36971,-2.26461 4.36969,-2.26473 1.31657,-1.94452 1.31656,-1.94453 0,-29.56845 0,-29.56846 -5.19179,-0.62641 c -2.8555,-0.34461 -6.93532,-1.00658 -9.06627,-1.47109 l -3.87444,-0.8448 -0.31238,-1.06418 c -0.1718,-0.58529 0.0342,-1.65417 0.45794,-2.37534 l 0.77031,-1.31105 7.64452,-1.57973 c 4.20448,-0.86883 8.07823,-1.86921 8.60831,-2.22298 l 0.9638,-0.64326 0,-43.24528 0,-43.24516 -1.44299,-3.01365 -1.44301,-3.01378 -8.19894,-1.25766 c -4.5094,-0.69169 -9.64521,-1.49623 -11.41291,-1.7877 l -3.21396,-0.53017 0,-0.83352 c 0,-0.45833 1.00127,-1.81818 2.22505,-3.02183 2.42153,-2.38167 14.9011,-11.00035 15.92818,-11.00035 0.34841,0 4.59748,-1.92768 9.44236,-4.2837 l 8.80891,-4.2837 2.81041,1.15398 c 1.54569,0.63459 3.59001,1.91591 4.54285,2.84717 l 1.73236,1.69332 0,2.91393 0,2.91394 2.22506,0.644 c 1.22386,0.35427 6.68416,0.65057 12.13419,0.65862 l 9.90899,0.0149 7.0953,2.12352 c 3.90237,1.16785 9.62631,3.33237 12.71971,4.8099 l 5.62466,2.68639 6.54415,5.25905 c 3.59936,2.89251 8.19096,7.09619 10.20383,9.34147 l 3.65956,4.08254 2.19441,5.34007 2.19426,5.34007 0.44255,8.06634 0.44254,8.06622 -2.89461,9.06932 -2.89446,9.06945 -3.80727,6.19466 c -2.09393,3.40706 -6.03791,8.83075 -8.76436,12.0525 l -4.95709,5.85773 -3.15374,-0.63893 -3.15362,-0.63892 -1.03104,1.35576 c -0.5671,0.74546 -1.18503,2.55261 -1.37325,4.01552 l -0.34195,2.66013 -4.866,3.4337 -4.86613,3.43357 -12.27286,4.85376 -12.27291,4.8535 -2.14494,0.0161 c -1.17965,0.0136 -2.81237,0.47182 -3.62822,1.02849 l -1.48339,1.01215 0,22.91499 0,22.91498 2.35746,2.71116 2.35734,2.71128 5.13542,1.15126 5.13541,1.1515 9.81327,-0.031 c 5.39725,-0.0174 12.39798,-0.0855 15.55734,-0.15274 l 5.74414,-0.12139 0.67559,0.7296 0.67559,0.7296 -1.96965,1.24775 c -1.08322,0.68624 -4.80098,2.5754 -8.26162,4.1981 l -6.29195,2.95061 -2.93141,2.66384 c -1.61215,1.46514 -3.50205,2.66384 -4.19955,2.66384 l -1.26824,0 -4.34218,4.11994 c -2.38812,2.26585 -6.24786,5.16727 -8.57707,6.44748 l -4.23501,2.32778 -9.60978,2.82115 -9.60988,2.82129 -4.94455,0.36306 -4.94464,0.36307 -2.47228,-1.72627 z m 40.32743,-115.22115 7.14298,-3.69693 7.1685,-5.74736 7.16836,-5.74723 6.92233,-7.92538 6.92247,-7.92538 2.77126,-6.17384 2.77127,-6.17397 0.50088,-5.02618 0.50087,-5.02631 -1.78864,-3.71079 -1.78892,-3.71092 -3.95562,-2.97142 -3.95563,-2.97141 -7.41691,-1.69455 -7.41692,-1.6948 -6.42787,0.61947 c -3.53543,0.34065 -9.09804,1.35503 -12.36148,2.25433 l -5.93345,1.63472 -2.268,2.76517 -2.26798,2.76492 0.2901,30.16328 0.29021,30.16316 1.3572,1.7643 1.35719,1.76416 1.6375,0 c 0.90051,0 4.85167,-1.66371 8.7803,-3.69704 z m 340.8998,82.80787 c -2.7196,-1.04695 -7.2097,-3.14371 -9.9783,-4.65952 l -5.0335,-2.75625 -3.119,-3.83628 c -1.7154,-2.11001 -4.1083,-5.86565 -5.3176,-8.34579 l -2.1986,-4.50952 -0.032,-8.0101 -0.032,-8.01023 3.122,-7.11712 3.1221,-7.117 7.6738,-8.67443 7.6735,-8.67467 -2.7779,-6.2774 -2.7781,-6.27715 0.5934,-3.20367 0.5933,-3.20367 -1.4154,-1.26856 -1.4154,-1.26869 1.535,-3.20565 1.5348,-3.20565 -2.1946,-2.523 -2.1947,-2.52288 0.6272,-4.94108 0.627,-4.94109 1.9697,-4.80916 1.9697,-4.80903 4.2055,-5.42505 4.2057,-5.42492 4.3413,-2.97339 4.3413,-2.97352 5.3558,-1.29445 5.3558,-1.29445 5.1487,1.75661 5.1487,1.75673 5.6455,3.81857 5.6454,3.81869 3.6024,6.40474 3.6025,6.40474 0.5061,4.07436 0.506,4.07436 -2.1831,7.47052 -2.1833,7.47077 -3.7993,5.22512 c -2.0897,2.8738 -5.4331,7.86865 -7.4299,11.0992 -1.9967,3.23079 -4.9626,7.15155 -6.5912,8.7127 l -2.9609,2.83825 0.8421,1.55111 c 0.4632,0.85334 4.894,6.19725 9.8465,11.87562 l 9.0047,10.32426 1.1809,-1.53687 1.181,-1.53686 0.1982,-3.03075 0.198,-3.03062 -3.7035,-0.33111 -3.7034,-0.33123 -2.4773,-3.50778 -2.4773,-3.50764 0,-2.22596 0,-2.22596 1.4166,-1.53005 1.4167,-1.52993 8.2253,-2.76183 c 4.5239,-1.5189 10.4502,-3.30772 13.1698,-3.97501 l 4.9446,-1.21331 11.867,-0.42141 c 6.5269,-0.23189 14.2033,-0.70718 17.0589,-1.05637 l 5.1917,-0.63484 -5e-4,1.412 -5e-4,1.41188 -7.0329,6.94209 c -3.8681,3.81832 -8.4293,8.44291 -10.1359,10.27695 l -3.1029,3.33484 -4.8238,0.75624 c -2.6532,0.41595 -5.4345,1.0093 -6.1806,1.3186 l -1.3572,0.56237 0,5.18586 0,5.18572 -2.1099,6.09048 -2.1099,6.09036 2.8414,2.22695 c 1.5627,1.22471 4.6261,3.7103 6.8074,5.52315 l 3.9658,3.29632 -0.1836,1.50987 c -0.1004,0.8303 -0.799,3.30834 -1.5511,5.50667 l -1.3674,3.99682 -2.3297,2.67821 -2.3297,2.67846 -3.0417,0 -3.0416,0 -3.2379,-2.13207 c -1.7809,-1.17206 -3.8347,-2.13144 -4.564,-2.13144 -0.7295,0 -2.4576,-0.96124 -3.8406,-2.13615 -1.3829,-1.1748 -3.1118,-2.12377 -3.8418,-2.10866 -0.7301,0.0149 -3.775,1.71487 -6.7665,3.77744 l -5.4389,3.75019 -9.3555,3.16465 -9.3554,3.16478 -4.9839,-0.078 -4.9838,-0.078 -4.9447,-1.90327 z m 23.9957,-25.84626 4.3476,-2.27303 0.4843,-1.36282 0.4842,-1.36271 -10.2059,-10.77614 -10.2058,-10.77614 -1.194,0 -1.194,0 -2.7616,3.93141 c -1.519,2.16229 -4.208,5.37476 -5.9757,7.1388 l -3.214,3.20727 0,1.44433 0,1.44433 4.2029,4.63141 c 2.3116,2.54715 5.0929,5.15835 6.1808,5.80273 l 1.9777,1.17157 6.363,0.0322 6.3629,0.0322 4.3476,-2.27303 z m -5.2901,-65.64025 7.6349,-7.03574 1.907,-3.37771 1.907,-3.37758 0,-3.38911 0,-3.38923 -2.4522,-3.14743 -2.4524,-3.14756 -2.9702,-1.32876 -2.9703,-1.32864 -3.418,0.69244 -3.4181,0.69256 -2.6818,3.43482 c -1.4751,1.88915 -3.2818,4.98134 -4.0153,6.87148 l -1.3341,3.4368 0,4.13666 0,4.13679 1.4006,5.02544 c 1.3908,4.9915 3.1294,8.13038 4.5032,8.13038 0.3942,0 4.1526,-3.16601 8.3519,-7.03561 z m 175.3997,62.57767 c -3.1106,-0.43095 -8.8094,-1.87875 -12.6638,-3.21717 l -7.0082,-2.43382 -5.8721,-3.85201 c -3.2296,-2.11856 -8.1479,-5.77436 -10.9293,-8.12406 l -5.057,-4.27218 -5.7183,-7.2675 -5.7181,-7.2675 -2.9917,-6.0828 c -1.6454,-3.34563 -3.9012,-9.20682 -5.013,-13.02502 -1.1117,-3.81819 -2.9656,-12.45905 -4.1198,-19.20171 l -2.0987,-12.25936 0.4395,-4.82898 c 0.6349,-6.97653 3.4298,-22.47079 6.1842,-34.28348 2.7421,-11.76042 8.6073,-30.42205 11.5425,-36.72571 4.3728,-9.39064 15.3739,-28.24997 22.1263,-37.9311 3.9175,-5.6163 10.1744,-13.58231 13.9044,-17.7025 3.73,-4.12006 9.8953,-10.0333 13.7007,-13.14035 l 6.9191,-5.64925 8.2,-4.38837 8.2001,-4.3885 10.5927,-0.0718 10.5928,-0.0719 9.3947,4.09418 c 5.1671,2.25197 10.2848,4.17432 11.3726,4.27218 l 1.9777,0.17788 0.4947,-5.92239 0.4943,-5.92263 1.8348,-3.02245 1.8345,-3.02269 5.4408,0.69058 5.4408,0.6907 5.3448,2.73073 5.3447,2.73073 3.4497,3.51372 3.4497,3.51372 0,5.34763 c 0,2.94119 -0.2783,6.8503 -0.6184,8.68681 l -0.6183,3.33932 -3.9006,4.786 -3.9009,4.78587 0.6219,1.08647 0.6217,1.08659 1.8099,0 1.8099,0 2.2842,1.99755 2.284,1.99754 -1.1743,14.82399 c -1.3517,17.06147 -2.3659,25.21216 -4.4788,35.98868 -0.8273,4.21953 -1.9352,10.07503 -2.462,13.01213 -0.527,2.93698 -1.6905,8.87324 -2.5858,13.1915 l -1.6276,7.8513 -2.4549,5.23193 -2.4548,5.23218 -0.857,0 -0.8569,0 -0.5963,-2.40309 c -0.328,-1.32171 -0.6024,-4.94171 -0.6097,-8.04455 l -0.014,-5.64144 -1.3365,-3.45402 -1.3362,-3.45401 -0.7292,-13.82448 -0.7291,-13.82448 -4.2375,-13.39303 -4.2375,-13.39304 -4.2584,-8.96824 -4.2587,-8.96825 -3.5531,-4.03385 -3.553,-4.03385 -2.74,-0.74273 -2.7398,-0.74273 -4.3313,1.78659 c -2.3822,0.98242 -7.1468,3.79317 -10.5879,6.24593 l -6.2566,4.4596 -9.2169,10.08977 -9.2167,10.0899 -7.2854,11.82731 -7.2854,11.82731 -6.9125,15.48645 c -7.4235,16.63114 -12.396,30.38043 -16.4463,45.47532 l -2.5395,9.46423 -0.6124,8.04219 -0.6123,8.04218 -2.3148,3.00808 -2.3149,3.00808 1.4553,3.03905 c 0.8004,1.67163 2.723,4.1628 4.2726,5.53628 l 2.8173,2.49699 2.6491,5.01045 2.6489,5.01045 4.6897,5.18647 4.6895,5.18634 4.7917,2.49699 4.7914,2.49699 11.0313,-0.55965 11.031,-0.55977 9.5765,-3.35034 c 5.267,-1.8427 12.135,-4.57256 15.2626,-6.06632 l 5.6861,-2.71574 1.7572,0.49622 1.757,0.49611 2.8402,-2.93116 2.8401,-2.93128 6.9733,-2.87789 6.9736,-2.87789 1.843,-2.19933 c 1.0137,-1.20972 3.0052,-2.84853 4.4255,-3.64167 l 2.5824,-1.44248 1.1733,-2.98739 1.1731,-2.98752 5.5975,-3.67215 c 3.0785,-2.01959 7.2689,-5.30328 9.3124,-7.2971 l 3.7153,-3.62508 3.9248,-6.71182 3.9249,-6.71169 1.4791,-0.61303 1.479,-0.61279 1.2103,1.57489 1.2103,1.57489 -1.1029,2.3668 c -0.6066,1.30164 -2.1959,7.2628 -3.5318,13.24687 l -2.4289,10.88044 -4.7731,9.4122 -4.773,9.4122 -6.6096,7.14363 -6.6097,7.14363 -2.8373,1.58455 -2.8372,1.58443 -1.9063,-0.18394 -1.9067,-0.18383 -2.7513,5.87408 -2.751,5.87432 -10.6212,7.14685 -10.6209,7.14685 -8.9004,3.19215 -8.9002,3.19203 -7.7358,1.14234 c -8.4716,1.25097 -13.0712,1.26769 -21.6539,0.0793 z m -932.69,-18.57789 -3.81993,-1.55037 -2.94582,-3.02158 -2.94583,-3.02158 -1.94186,-4.07795 -1.94188,-4.0782 -0.5552,-5.06285 -0.5552,-5.06272 2.35889,-2.96163 2.35887,-2.96175 6.19672,-0.78918 6.19672,-0.78906 1.68338,-1.81805 1.68336,-1.81805 0.50721,-9.84835 0.50724,-9.84822 2.96673,-0.54566 2.96677,-0.54565 0.30693,-2.86525 0.30694,-2.86513 -2.77922,-1.91121 c -1.52858,-1.05129 -3.10618,-2.40297 -3.50579,-3.00399 l -0.72653,-1.09278 -0.0152,-30.73929 -0.0151,-30.7394 1.23615,-0.41126 c 0.67987,-0.22618 2.41085,-0.6876 3.84659,-1.02527 l 2.61045,-0.61403 0.62803,-1.76751 0.62805,-1.76764 -1.26066,-1.82288 c -0.69336,-1.00261 -2.75866,-3.936 -4.58957,-6.51883 l -3.3289,-4.69606 0.79942,-17.08835 c 0.43968,-9.39882 0.82517,-21.73673 0.85662,-27.41781 l 0.0571,-10.32922 -2.38794,-2.74312 -2.38793,-2.74338 -5.5234,-2.22422 -5.52336,-2.22422 -2.14515,-2.1639 -2.14514,-2.16378 -2.10598,-5.28705 -2.10598,-5.28718 -0.162,-6.31258 -0.16202,-6.3127 2.31611,-2.66261 2.31611,-2.6626 8.52497,-3.36545 8.52497,-3.36544 15.32821,-3.08897 15.3282,-3.08884 17.80048,0.0223 17.8005,0.0223 9.5094,0.99952 9.50936,0.99951 8.12641,3.20293 c 4.46952,1.76181 10.87789,4.8649 14.24082,6.89601 3.36293,2.03111 8.12959,5.60862 10.59261,7.95015 l 4.47818,4.25719 6.27352,9.44738 6.2735,9.4475 4.73931,10.68028 4.73932,10.68026 1.66099,6.94222 1.66101,6.94209 0.0887,8.01023 0.0888,8.01023 -1.28093,5.8742 -1.28091,5.8742 -3.8661,8.54424 -3.8661,8.54424 -5.68202,7.13012 c -3.1251,3.92175 -7.90708,9.26418 -10.6266,11.87215 -2.71951,2.60798 -8.43012,7.44191 -12.6902,10.74183 l -7.74561,6.00005 -12.03271,6.28756 c -15.16964,7.92662 -32.87138,15.5806 -41.20574,17.81671 -3.53537,0.94848 -8.07672,2.18149 -10.09189,2.74015 l -3.66394,1.01561 -1.52787,1.65009 -1.52787,1.65008 0,13.85668 0,13.85656 2.26832,2.4498 2.26835,2.44979 4.03118,0.69628 4.03119,0.69615 1.23843,1.61168 1.23845,1.61169 5.0707,0.0149 5.07074,0.0161 4.26859,1.60562 4.26857,1.60561 0.91598,-0.6113 c 0.86258,-0.57575 21.67978,-1.77135 28.12567,-1.61515 1.63171,0.0384 4.52429,0.0793 6.42795,0.0867 1.90367,0.0136 4.0676,0.24984 4.80873,0.53685 l 1.34753,0.52162 -1.22137,1.58926 -1.22139,1.58951 -1.54451,0 c -0.8495,0 -3.57635,1.02095 -6.05966,2.26907 -2.4833,1.24787 -7.18519,3.60922 -10.44861,5.24717 -3.26342,1.63819 -8.60357,3.7923 -11.86699,4.78723 -3.26342,0.99493 -7.3949,2.47841 -9.18103,3.29695 l -3.24754,1.48793 -3.70208,0 -3.70209,0 -2.16275,1.63621 c -3.23325,2.44571 -9.55537,4.65643 -20.03349,7.00502 l -9.3947,2.1058 -11.86699,0.53352 -11.867,0.53351 -3.81992,-1.55037 z m 73.89923,-118.87101 8.76652,-3.74127 4.27971,0.69306 4.27973,0.69318 1.58541,-2.6133 1.58541,-2.61318 -0.5956,-2.56289 -0.59561,-2.56289 1.95159,-1.90748 1.95159,-1.90737 2.12331,1.22732 2.12331,1.22718 1.5054,-1.34932 1.50541,-1.34932 -0.55021,-2.97117 -0.55022,-2.97116 4.93981,-6.09655 c 6.17101,-7.6162 11.14764,-15.66669 14.59049,-23.60235 l 2.66005,-6.1316 6.5e-4,-9.61225 6.3e-4,-9.61225 -2.63092,-6.06125 -2.63091,-6.06113 -4.04678,-4.74153 -4.04676,-4.7414 -5.76618,-2.79478 -5.76621,-2.79477 -7.58856,-1.21901 -7.58855,-1.21877 -9.63505,1.26274 c -5.29927,0.69442 -10.37735,1.49413 -11.28463,1.77705 l -1.64958,0.51456 -3.42555,-3.24826 -3.42556,-3.24839 -2.05971,0 -2.05973,0 -1.0237,2.06579 c -0.56303,1.13627 -1.02371,3.21854 -1.02371,4.62732 l 0,2.56128 -3.63091,2.58196 c -1.99701,1.42006 -4.50288,3.86242 -5.56861,5.42728 l -1.93771,2.84519 -0.81383,16.91333 -0.81386,16.91332 -0.0455,30.5017 -0.0455,30.50182 1.23615,1.68328 c 0.67988,0.92581 1.90366,1.89968 2.71953,2.16415 l 1.48336,0.48061 11.37254,-2.59348 11.37254,-2.59361 8.7665,-3.74139 z m 93.09185,116.40684 c -1.6317,-0.23386 -5.33709,-1.14716 -8.23418,-2.02974 l -5.26745,-1.60463 -4.17011,-4.50369 -4.17011,-4.50369 -4.34384,-12.26421 -4.34383,-12.2642 -0.41272,-14.37644 -0.41271,-14.37657 1.17454,-7.86332 1.17454,-7.86357 2.38149,-7.56194 c 1.30982,-4.15908 3.97785,-10.69847 5.92895,-14.53215 4.24865,-8.34777 11.01473,-18.059 17.45812,-25.0572 l 4.71486,-5.12082 8.19649,-4.24765 8.19649,-4.24753 5.04209,-0.645 5.04206,-0.645 5.13035,3.01576 5.13033,3.01564 5.25118,5.4492 5.25118,5.4492 2.46611,5.28668 2.46612,5.28656 1.11191,5.65978 1.11193,5.65966 -0.005,13.56484 -0.005,13.56472 -1.03249,4.0154 -1.03245,4.01514 -2.17599,1.52485 -2.176,1.52485 -6.92242,1.22248 c -6.94052,1.22558 -41.03522,10.37109 -48.4569,12.99802 l -3.95566,1.39998 -1.72369,3.80544 -1.72371,3.80531 1.67681,4.73893 c 0.92225,2.60636 2.71497,6.55858 3.9838,8.78268 l 2.30697,4.04376 3.17895,2.16527 3.17895,2.16538 6.02218,-0.46526 6.0222,-0.46513 6.33925,-3.01948 c 3.48661,-1.66073 11.67691,-6.46828 18.20069,-10.68336 l 11.86142,-7.66388 1.34737,0.55828 1.34736,0.55841 -0.52871,3.5188 c -0.29079,1.93536 -1.42586,5.70908 -2.52234,8.3863 l -1.9936,4.86726 -2.45727,0 -2.45725,0 -1.62029,1.75004 -1.62027,1.7498 0.15796,4.39122 c 0.087,2.41523 0.11668,4.91247 0.0663,5.54917 l -0.0917,1.15806 -8.68102,4.45539 -8.68104,4.45563 -6.89439,1.57712 c -6.8282,1.56214 -9.05608,1.69295 -14.80573,0.86945 z m 9.45254,-78.81019 16.2593,-3.94925 4.11832,-1.93647 4.11831,-1.9366 1.0735,-2.16638 1.07348,-2.16625 0,-11.26295 0,-11.26283 -1.59436,-4.30364 -1.59435,-4.3034 -2.33547,-0.6331 -2.33547,-0.63298 -4.46409,2.33385 -4.46408,2.33397 -7.38894,7.45244 c -4.06393,4.09901 -8.90636,9.70602 -10.76097,12.46029 -1.8546,2.75439 -5.2579,8.93529 -7.56288,13.73541 l -4.19087,8.72757 0.7007,1.22458 0.7007,1.22447 1.19394,-0.49487 c 0.65667,-0.27214 8.51062,-2.27191 17.45323,-4.44386 z m 313.31227,77.01258 c -1.96781,-0.75933 -5.19811,-2.4623 -7.17843,-3.78413 l -3.6008,-2.40359 -2.47445,-4.55993 c -1.36096,-2.50814 -4.1384,-9.55527 -6.17198,-15.66049 l -3.69755,-11.10043 0.0929,-17.08848 0.0917,-17.08847 2.14284,-8.54424 2.1426,-8.54423 4.00957,-9.07825 4.00957,-9.07824 5.35655,-7.56937 c 2.94589,-4.16305 7.82009,-10.08569 10.83139,-13.1614 l 5.47484,-5.59215 7.44798,-3.71662 7.44807,-3.71637 4.81391,-0.61576 4.8139,-0.61588 4.2852,2.25977 4.2851,2.25965 6.1396,5.93453 6.1396,5.93465 3.2552,7.1352 3.2549,7.13509 0.3206,18.71886 0.3204,18.71873 -1.0179,2.88124 -1.0181,2.88123 -2.2692,1.58988 -2.2692,1.59013 -8.9305,1.6621 c -4.9119,0.91417 -17.3723,4.08947 -27.68986,7.0563 l -18.759,5.39396 -4.45005,2.35701 -4.45019,2.35689 0.16624,6.5903 0.16611,6.59042 2.0181,4.92709 2.01798,4.92696 3.47024,1.56585 3.47037,1.5661 7.20135,-0.0186 7.20148,-0.0186 8.34012,-3.6527 8.34021,-3.6527 1.8785,1.08573 1.8784,1.08573 1.8068,-1.76578 c 0.9936,-0.97115 2.053,-2.81175 2.3547,-4.09009 l 0.5481,-2.32469 6.2214,-4.53899 6.2215,-4.53913 1.8197,0 1.8198,0 2.8286,-2.17529 c 1.5557,-1.19659 4.8878,-3.15908 7.4045,-4.36137 l 4.5758,-2.18607 0.517,0.55841 0.517,0.55829 -1.6576,4.68764 -1.6575,4.68739 -3.856,5.50222 c -2.1208,3.02616 -4.7441,7.38245 -5.8297,9.6805 l -1.9737,4.17829 -5.0042,4.72778 -5.004,4.72765 -9.1224,4.95855 -9.1222,4.95842 -4.70631,1.33335 -4.70618,1.33359 -1.53055,-2.36023 -1.53054,-2.36011 -2.66347,0 -2.66347,0 -3.95569,2.63126 c -2.17567,1.44718 -4.62311,2.62507 -5.43892,2.61776 -0.81594,-0.0136 -3.09343,-0.63496 -5.06112,-1.39441 z m 15.93896,-76.55637 c 7.34281,-1.75648 16.13645,-4.18349 19.54135,-5.39333 l 6.1908,-2.19958 1.0919,-2.20341 1.0918,-2.20329 0.1342,-12.39129 0.134,-12.39142 -2.0577,-3.73817 -2.058,-3.73805 -3.4631,0.10529 -3.4631,0.10529 -6.07921,4.45873 -6.07962,4.45873 -2.34933,-0.63694 -2.34971,-0.63682 -1.6263,1.75661 -1.62655,1.75649 0.60598,2.60661 0.60573,2.60674 -3.92126,5.59326 c -2.15671,3.07633 -5.76655,9.25711 -8.02175,13.73504 l -4.10049,8.14191 0,2.39615 0,2.39604 2.22497,-0.69603 c 1.22384,-0.38289 8.2327,-2.13331 15.57539,-3.88992 z m 614.38385,77.2799 -2.2051,-0.46006 -1.9978,-2.74262 -1.9974,-2.74262 0,-1.86129 0,-1.86115 -1.3967,-1.25172 -1.3966,-1.25196 -5.9931,2.72429 c -3.2961,1.49834 -9.4541,3.95829 -13.6843,5.46667 l -7.6912,2.74237 -8.9795,0.60672 -8.9797,0.60647 -5.247,-1.88221 -5.2472,-1.88235 -3.8155,-3.72268 -3.8153,-3.72269 -1.4892,-5.41526 -1.4889,-5.41526 0,-5.09766 0,-5.09778 2.396,-7.12876 2.3958,-7.12877 3.7014,-5.80396 3.7011,-5.80397 5.5226,-4.306 5.5227,-4.30599 11.8669,-6.24359 11.867,-6.24371 8.7115,-2.34598 8.7117,-2.34587 2.0768,-1.81619 2.0765,-1.81607 -1.0917,-10.37988 -1.0917,-10.37988 -1.7852,-3.94442 -1.7851,-3.94454 -7.9114,-0.30051 -7.9114,-0.30076 -7.9112,4.15327 -7.9114,4.15338 -7.4169,5.9432 c -4.0793,3.26883 -7.9851,6.58163 -8.6798,7.36164 -0.6945,0.78027 -2.3322,2.86043 -3.6395,4.62261 l -2.377,3.20417 -1.1893,-1.26373 -1.1892,-1.26361 2.6686,-7.2805 c 1.4675,-4.0045 4.0857,-9.85392 5.8179,-12.999 l 3.1493,-5.71825 5.8088,-5.26166 c 3.1947,-2.89375 7.6595,-6.43274 9.9215,-7.86456 2.2619,-1.4317 6.1008,-3.36706 8.5305,-4.30079 l 4.4177,-1.69802 7.117,-0.0434 7.1169,-0.0433 5.2897,2.6154 5.2896,2.61541 3.6234,3.43593 3.6233,3.4358 2.3989,5.53443 2.3989,5.5343 1.1245,5.77163 1.1243,5.77152 0.9522,15.05501 c 0.5236,8.28026 0.9587,19.2603 0.9667,24.40031 l 0.015,9.34531 0.9305,0 c 0.5117,0 1.2055,-0.48074 1.5417,-1.06813 l 0.611,-1.06802 2.0432,0 2.0431,0 -0.6418,3.47111 c -0.353,1.90922 -1.9661,6.52886 -3.5849,10.26616 l -2.9428,6.79506 0,2.01625 0,2.01612 1.0435,0 c 0.5737,0 3.5776,-1.40371 6.6751,-3.11932 8.3005,-4.59759 14.5062,-7.56095 15.8329,-7.56095 l 1.1714,0 0,0.99245 c 0,0.5459 -1.8109,3.93687 -4.024,7.53519 l -4.0239,6.54286 -0.7622,5.20728 -0.7622,5.2074 -1.6024,2.64093 -1.6022,2.64105 -5.2314,3.20701 -5.2313,3.20714 -5.3713,1.70186 c -2.9541,0.93609 -5.6243,1.63658 -5.9336,1.55656 -0.3093,-0.0805 -1.5545,-0.35254 -2.7675,-0.6056 z m -35.3672,-24.31547 7.5971,-1.56994 5.5932,-2.75488 c 3.0759,-1.51531 7.2636,-3.99954 9.3057,-5.5208 l 3.7127,-2.76591 1.9735,-3.44869 1.9736,-3.44869 0,-4.46157 0,-4.46158 -2.4274,-2.6216 -2.4274,-2.62161 -1.9022,0 -1.902,0 -1.4864,-2.40297 -1.4865,-2.40309 -1.8921,1.83601 -1.8925,1.83602 -6.6936,2.23289 -6.6936,2.2329 -3.6459,3.4804 c -2.0052,1.91429 -5.7432,5.07833 -8.3067,7.03115 l -4.6609,3.55076 -2.4099,3.85225 c -1.3254,2.11881 -2.7137,4.95744 -3.0852,6.30775 l -0.6755,2.45549 1.5882,2.61764 1.5882,2.61789 5.3293,0 5.3293,0 7.597,-1.56982 z m -501.2196,19.30155 -3.6283,-3.91878 -2.4723,-5.26896 -2.4723,-5.26897 0,-2.64254 0,-2.64253 1.2313,-0.82189 1.2312,-0.82176 8.4108,-0.0434 8.4106,-0.0434 0.5954,-21.36052 0.5953,-21.36066 1.2141,-5.59165 1.2141,-5.59165 -0.3259,-13.81717 -0.3263,-13.81704 -2.1901,-2.51458 -2.1902,-2.51458 0.5718,-2.36135 0.5717,-2.36135 -1.6623,-0.68897 -1.6622,-0.68884 -2.1584,1.22669 -2.1582,1.22657 -4.9446,-2.04226 -4.9446,-2.04238 -0.3369,-1.80777 -0.3367,-1.80765 2.1955,-2.52399 2.1954,-2.52374 8.525,-3.38291 8.5248,-3.38279 5.5011,-0.12573 5.501,-0.12573 2.74,1.93895 2.7403,1.9392 1.4007,3.62062 1.4007,3.62074 0,5.37451 0,5.37438 1.2361,-5e-4 1.2364,-6.2e-4 5.6555,-6.83023 5.6554,-6.83024 4.2987,-2.24739 4.2986,-2.24738 4.5514,0 c 2.5033,0 5.2894,0.30583 6.1916,0.67955 l 1.64,0.6798 0.8886,2.52437 0.8887,2.52448 2.8063,0 2.8062,0 2.5347,2.93698 2.5349,2.93698 4.0782,9.1159 4.0781,9.11577 -0.058,2.09862 c -0.031,1.15411 -0.8504,5.38529 -1.8202,9.40242 l -1.7629,7.30416 -4.3608,2.10407 -4.3606,2.1042 -2.6274,2.71165 -2.6274,2.71166 -5.9034,-2.86117 -5.9035,-2.86129 -1.0738,-2.5453 -1.0737,-2.5453 0.8194,-0.54689 0.8194,-0.54701 1.7689,2.11088 1.7689,2.11076 2.6244,0 2.6245,0 1.6195,-1.33495 1.6198,-1.33508 1.5217,-4.80619 c 0.8369,-2.64328 1.5281,-5.66907 1.536,-6.72358 l 0.015,-1.91765 -2.4722,-2.67016 c -1.3599,-1.46849 -2.4723,-3.04499 -2.4723,-3.50331 0,-0.45832 -1.03,-1.87838 -2.2887,-3.15561 l -2.2889,-2.32233 -5.4026,0 -5.4025,0 -2.2195,1.67919 -2.2196,1.67907 -2.8074,6.0641 c -1.544,3.33522 -3.5249,8.46719 -4.4018,11.40429 -0.8771,2.9371 -2.7318,12.53894 -4.1218,21.33748 l -2.5272,15.99742 -0.099,8.27742 -0.099,8.27717 1.6947,2.79292 1.6943,2.79304 4.2499,2.03036 4.25,2.03037 0.5381,2.22175 0.5378,2.22174 2.0283,-1.17231 2.0284,-1.17244 1.9395,1.3082 1.9396,1.30833 2.4571,-1.42031 2.4571,-1.42018 2.7958,0.75363 c 1.5376,0.4146 3.4631,1.37262 4.2791,2.1291 0.8158,0.75635 2.7162,1.69182 4.2232,2.07867 l 2.7398,0.70334 2.0637,-1.19288 2.0636,-1.19287 0.9463,1.02206 0.9464,1.02205 -1.6943,1.82995 -1.6943,1.82994 -2.0048,-0.56621 -2.0047,-0.56609 -2.5453,1.47926 c -3.8676,2.24801 -11.9477,4.82725 -15.1221,4.82725 l -2.83,0 -4.1636,2.32753 -4.1635,2.32753 -10.8782,0.79092 c -5.9828,0.43503 -15.1417,1.1349 -20.3527,1.55557 l -9.4747,0.76453 -3.6286,-3.91865 z m 573.8033,0.80826 c -1.4125,-1.67944 -3.3037,-4.24196 -4.203,-5.69434 l -1.6351,-2.64068 0,-2.96646 0,-2.96646 1.9389,-2.09403 1.9389,-2.09391 5.4767,-1.71945 5.4765,-1.71958 0.5638,-2.42588 0.5639,-2.42601 -0.3152,-38.35078 -0.3153,-38.35077 -2.0313,-3.73446 -2.0312,-3.73458 -3.4079,-2.48014 -3.4076,-2.48014 0,-1.2615 0,-1.26162 9.3947,-3.44386 c 5.167,-1.89423 10.2847,-3.45624 11.3726,-3.47111 l 1.9778,-0.0272 2.5625,3.47111 2.5625,3.47111 1.2655,4.27205 c 0.6959,2.34958 1.6418,4.71267 2.1021,5.25138 l 0.8367,0.9792 7.2024,-8.07947 7.2023,-8.07948 4.203,-1.21814 4.2029,-1.21815 3.73,1.08474 3.7301,1.08486 4.1961,3.33262 4.196,3.33274 2.3607,4.43495 c 1.2981,2.43914 2.6533,5.95435 3.011,7.81154 l 0.6511,3.37672 -1.115,6.76954 c -0.6133,3.72331 -2.2377,10.78196 -3.6102,15.68588 l -2.4951,8.91635 -5.8491,6.47584 -5.8488,6.47559 -0.6077,-0.65602 -0.6073,-0.65602 1.6919,-7.4564 1.692,-7.45628 -0.5628,-10.94014 -0.5626,-10.94015 -0.9982,-1.07817 -0.9982,-1.07805 -5.4915,1.86946 -5.4915,1.86958 -3.0454,4.47112 c -1.675,2.45908 -3.66,6.01838 -4.4113,7.9094 l -1.3659,3.43815 -2.4717,17.58805 -2.4718,17.58829 0,6.52849 0,6.52836 1.4467,3.0217 c 0.7959,1.66173 2.0197,3.2526 2.7197,3.53503 0.7,0.28242 6.6128,0.16995 13.1396,-0.24985 l 11.867,-0.76329 0.894,0.86387 0.8937,0.86413 -2.7112,3.839 c -1.4913,2.11138 -4.153,4.8597 -5.9153,6.10733 l -3.2042,2.26832 -2.1379,3.52239 -2.1378,3.52226 -2.5863,1.83032 -2.5863,1.83007 -9.5382,0.77295 c -5.2459,0.425 -13.7659,1.11013 -18.9329,1.52237 l -9.3948,0.74942 -2.5677,-3.05366 z m 84.4698,1.07978 c -1.1857,-1.09849 -3.2996,-3.86663 -4.6973,-6.15142 l -2.5415,-4.15426 0,-2.06914 0,-2.06913 2.7706,-2.99235 2.7706,-2.99222 4.095,-0.74719 4.0948,-0.74719 0.9545,-1.25147 0.9547,-1.25147 0.2107,-37.38111 0.2108,-37.38111 -0.9875,-5.11165 -0.9874,-5.11153 -1.7412,-2.07818 -1.7414,-2.07806 -5.0549,-2.03371 -5.0548,-2.03358 -0.2697,-1.45697 -0.2698,-1.45685 12.5385,-2.41647 12.5387,-2.41647 2.5647,1.76169 c 1.4108,0.96904 3.5504,3.01762 4.7547,4.5525 l 2.1898,2.79081 0.6398,3.47111 0.6399,3.47123 1.1262,-0.0136 1.126,-0.0136 4.6469,-6.29425 4.6471,-6.29425 5.4365,-2.87269 5.4365,-2.87268 3.2668,0.76007 c 1.7968,0.41806 4.6019,1.47802 6.2336,2.3554 3.8074,2.04746 8.221,6.47894 9.8931,9.93332 l 1.3107,2.70794 -1.4115,13.84665 -1.4117,13.84665 -2.9286,4.80607 c -1.6107,2.6434 -3.6902,6.3682 -4.6208,8.27729 l -1.6918,3.47111 -1.6011,0 -1.601,0 -0.095,-8.81118 -0.097,-8.81142 -1.6814,-4.51856 -1.6814,-4.51869 -3.231,-2.15646 -3.231,-2.15659 -2.481,0 -2.4809,0 -1.9781,5.07313 c -1.0879,2.79019 -2.6746,7.47622 -3.526,10.41332 -1.679,5.79232 -5.1243,28.49152 -6.1807,40.72339 l -0.6578,7.61446 1.1555,3.78141 c 0.6355,2.07979 1.6891,4.25223 2.3411,4.82761 l 1.1856,1.04609 5.4389,-1.05104 c 2.9915,-0.57811 8.1093,-1.18074 11.3726,-1.33917 3.2634,-0.15855 6.6672,-0.63112 7.564,-1.05055 l 1.6305,-0.7623 0.7002,1.22323 0.7002,1.22347 -6.501,6.74997 -6.5008,6.74996 -1.545,4.16987 -1.5449,4.17011 -3.1654,2.01946 -3.1655,2.01935 -9.4144,0.75462 c -5.1778,0.41496 -13.4193,1.10108 -18.3146,1.5246 l -8.9002,0.77035 -2.1559,-1.99729 z m 112.4201,0.0904 -5.4391,-1.61305 -5.255,-3.88558 -5.255,-3.88545 -3.877,-4.89612 -3.877,-4.89612 -2.8816,-6.40808 -2.8816,-6.40821 -1.0896,-5.65966 -1.0895,-5.65978 0.02,-9.82667 0.02,-9.82679 0.9617,-7.1808 0.9615,-7.18066 2.1236,-6.70352 c 2.7951,-8.82356 7.3286,-18.55027 10.9755,-23.54833 l 2.9392,-4.02828 6.2025,-4.78005 c 3.4114,-2.62904 8.6341,-5.98247 11.6064,-7.45207 l 5.4041,-2.67202 7.3301,-0.64512 7.3302,-0.64536 6.9002,1.75326 6.9004,1.7534 4.1315,2.61478 4.1315,2.61504 3.0575,4.16924 3.0574,4.16912 3.4328,7.86035 c 1.8879,4.32309 4.1412,10.74393 5.0075,14.26831 l 1.5745,6.4082 0.5528,10.14639 0.5526,10.14613 -1.5998,9.07837 c -0.8801,4.99298 -2.0564,10.83968 -2.6142,12.99256 l -1.0138,3.91456 -3.4381,2.19066 -3.4378,2.19065 0,1.65269 c 0,0.90884 0.549,2.60166 1.2199,3.76195 l 1.2198,2.10952 -1.9615,3.94876 c -1.0788,2.17195 -4.0355,6.403 -6.5705,9.40266 l -4.609,5.4539 -5.2802,3.14831 -5.2801,3.14817 -12.3615,0.25889 -12.3614,0.25902 -5.4391,-1.61317 z m 23.691,-22.1133 5.4539,-1.3352 3.784,-4.07138 3.7841,-4.07164 1.922,-4.84297 1.9223,-4.84311 1.0897,-7.58609 1.09,-7.5861 -0.6577,-15.0062 c -0.3617,-8.25327 -0.6393,-17.23885 -0.6168,-19.96748 l 0.04,-4.96152 -2.6712,-1.89027 c -1.4692,-1.03952 -5.0395,-3.97353 -7.9341,-6.51981 l -5.2628,-4.62968 -3.2432,0 -3.2434,0 -5.0771,1.62841 -5.0772,1.62841 -3.1854,2.89473 -3.1856,2.89486 -3.7612,6.28484 -3.7612,6.28483 -0.6034,3.8774 c -0.3319,2.13244 -0.8108,4.69706 -1.0643,5.69893 -0.2533,1.00186 -2.217,4.11709 -4.3637,6.92264 l -3.9029,5.101 0,1.6512 0,1.65132 1.825,1.68774 1.8254,1.68774 0.6791,6.24284 0.6795,6.24272 4.2751,9.74677 4.275,9.74677 2.8986,2.22906 c 3.4208,2.63064 8.409,4.31392 13.1809,4.44795 1.8875,0.0533 5.8864,-0.50452 8.886,-1.23871 z m 88.2739,21.01047 -5.1155,-2.75302 -2.5428,-3.26375 c -1.3985,-1.79489 -3.3709,-5.01702 -4.3833,-7.16011 l -1.8405,-3.89635 -1.0792,-6.30342 -1.0787,-6.30341 -0.069,-28.3736 -0.069,-28.3736 -0.7732,-2.13602 -0.7734,-2.13616 -7.1369,0 -7.1365,0 -3.8876,-4.49774 -3.8874,-4.49775 0,-2.7259 0,-2.72591 -1.1448,-1.98007 -1.145,-1.9802 0.539,-1.51729 0.5391,-1.51717 5.8342,-3.30277 5.8339,-3.30289 5.7061,-1.37905 5.7063,-1.37918 1.1798,-2.21952 1.18,-2.21952 -0.2537,-21.71083 -0.2538,-21.71084 -1.051,-2.12104 -1.0511,-2.12116 1.1787,-1.53377 1.1786,-1.53377 1.9746,0 1.9748,0 5.7866,3.79652 5.7869,3.79652 2.0814,3.15709 2.0816,3.15722 0.5756,16.17753 0.5759,16.17777 1.8368,1.98354 1.8366,1.98367 2.7046,-0.70185 c 1.4874,-0.38598 4.2619,-1.53426 6.1655,-2.55174 l 3.4612,-1.85001 7.7687,-0.77035 7.7688,-0.77011 3.6039,-1.65838 3.6037,-1.65851 5.1811,-0.10776 5.1812,-0.11025 0.4845,1.36456 0.4846,1.36444 -1.71,1.5054 c -0.9406,0.82795 -3.7973,3.33795 -6.3485,5.57778 -2.551,2.23971 -8.4131,7.71381 -13.0268,12.16473 l -8.3881,8.09248 -8.7294,3.56525 c -4.8012,1.961 -9.397,4.22338 -10.2129,5.02742 l -1.4833,1.4618 -0.3186,29.60141 -0.3186,29.60153 0.6409,5.64194 0.6411,5.64207 2.2947,2.88136 2.2948,2.88123 3.0397,-1.58121 3.0395,-1.58096 11.2563,-11.89358 c 6.1908,-6.54137 12.221,-12.45112 13.4003,-13.13278 l 2.144,-1.23921 0.844,0.56349 0.8443,0.56349 -0.7993,4.55906 c -0.4399,2.50752 -1.5101,6.38133 -2.3786,8.60853 l -1.5789,4.04971 -3.0693,2.96162 -3.0692,2.96163 1.1445,2.30957 1.1445,2.3097 -1.5528,4.02951 -1.5528,4.0294 -4.1562,4.67191 c -2.2859,2.5697 -6.1344,6.05406 -8.5526,7.74341 l -4.3966,3.07113 -5.5457,0 -5.5455,0 -5.1156,-2.75303 z"
       id="path4376"
       inkscape:connector-curvature="0" />
  </g>
</svg>
