<?xml version="1.0" encoding="UTF-8" standalone="no"?>
<!-- Created with Inkscape (http://www.inkscape.org/) -->

<svg
   xmlns:dc="http://purl.org/dc/elements/1.1/"
   xmlns:cc="http://creativecommons.org/ns#"
   xmlns:rdf="http://www.w3.org/1999/02/22-rdf-syntax-ns#"
   xmlns:svg="http://www.w3.org/2000/svg"
   xmlns="http://www.w3.org/2000/svg"
   xmlns:xlink="http://www.w3.org/1999/xlink"
   xmlns:sodipodi="http://sodipodi.sourceforge.net/DTD/sodipodi-0.dtd"
   xmlns:inkscape="http://www.inkscape.org/namespaces/inkscape"
   id="svg2"
   version="1.1"
   inkscape:version="0.92.1 r15371"
   width="2646.3999"
   height="707.20001"
   sodipodi:docname="Pepper-and-Carrot_by-David-Revoy_E02P00.svg">
  <metadata
     id="metadata8">
    <rdf:RDF>
      <cc:Work
         rdf:about="">
        <dc:format>image/svg+xml</dc:format>
        <dc:type
           rdf:resource="http://purl.org/dc/dcmitype/StillImage" />
        <dc:title />
      </cc:Work>
    </rdf:RDF>
  </metadata>
  <defs
     id="defs6" />
  <sodipodi:namedview
     pagecolor="#ffffff"
     bordercolor="#666666"
     borderopacity="1"
     objecttolerance="10"
     gridtolerance="10"
     guidetolerance="10"
     inkscape:pageopacity="0"
     inkscape:pageshadow="2"
     inkscape:window-width="1278"
     inkscape:window-height="1368"
     id="namedview4"
     showgrid="false"
     inkscape:zoom="0.4186779"
     inkscape:cx="1137.1417"
     inkscape:cy="437.33128"
     inkscape:window-x="1273"
     inkscape:window-y="0"
     inkscape:window-maximized="0"
     inkscape:current-layer="layer1" />
  <g
     inkscape:groupmode="layer"
     id="layer2"
     inkscape:label="artwork"
     sodipodi:insensitive="true">
    <image
       sodipodi:absref="D:\Mes Documents\GitHub\peppercarrot\peppercarrot_ep02_translation\da\../gfx_Pepper-and-Carrot_by-David-Revoy_E02P00.png"
       xlink:href="../gfx_Pepper-and-Carrot_by-David-Revoy_E02P00.png"
       width="2646.3999"
       height="707.20001"
       id="image10"
       x="-1.7843288e-006"
       y="0" />
  </g>
  <g
     inkscape:groupmode="layer"
     id="layer1"
     inkscape:label="text">
    <flowRoot
       xml:space="preserve"
       id="flowRoot3063"
       style="font-style:normal;font-variant:normal;font-weight:normal;font-stretch:normal;line-height:0.01%;font-family:Arial;-inkscape-font-specification:Arial;letter-spacing:0px;word-spacing:0px;display:inline;fill:#562f13;fill-opacity:1;stroke:none"
       transform="matrix(0.83118898,0,0,0.82655747,104.84353,213.27495)"><flowRegion
         id="flowRegion3065"><rect
           id="rect3067"
           width="2715.5891"
           height="110.01318"
           x="92.642677"
           y="425.30325"
           style="font-size:72px;fill:#562f13;fill-opacity:1" /></flowRegion><flowPara
         id="flowPara3069"
         style="font-style:normal;font-variant:normal;font-weight:normal;font-stretch:normal;font-size:88px;line-height:1.25;font-family:Lavi;-inkscape-font-specification:Lavi;text-align:center;text-anchor:middle;fill:#562f13;fill-opacity:1">Episode 2: Regnbueeliksirerne</flowPara></flowRoot>    <path
       style="display:inline;fill:#562f13;fill-opacity:1;stroke:none;stroke-width:1.06666672"
       d="m 768.75726,540.91339 c -2.09752,-1.84167 -4.50708,-4.6894 -5.35463,-6.32834 l -1.54094,-2.97989 v -4.35525 -4.35525 l 2.61046,-2.61047 2.61046,-2.61047 1.90953,-0.0338 c 1.05023,-0.0187 2.83222,-0.7319 3.96003,-1.58511 l 2.05052,-1.5513 0.79652,-5.5937 0.79651,-5.59361 0.0777,-24.26519 0.0777,-24.26507 -1.10093,-2.05712 -1.10095,-2.05712 h -1.89658 c -1.04314,0 -4.43372,-0.75347 -7.53465,-1.67426 l -5.63802,-1.6744 -2.53143,-2.53137 -2.53146,-2.53151 v -1.64362 -1.64362 l 6.11528,-0.0439 6.11527,-0.0439 4.78586,-2.34899 4.78585,-2.34914 0.30388,-37.22339 0.30388,-37.22327 -1.26238,-4.60089 -1.26239,-4.60089 -2.23205,-1.44778 -2.23208,-1.44767 -9.30584,-0.74468 -9.30585,-0.74468 v -1.27381 -1.27382 l 4.70377,-4.77113 4.70375,-4.77114 13.46055,-6.08424 13.46053,-6.08426 2.04841,0.65023 c 1.12663,0.35756 3.48158,1.85611 5.23325,3.33001 l 3.18484,2.67977 v 1.42489 c 0,0.78357 0.75206,2.17674 1.67126,3.09593 l 1.67124,1.67134 h 10.97207 10.97208 l 9.22002,2.67178 c 5.07103,1.46951 11.52822,3.84156 14.34932,5.2711 2.82107,1.42954 8.9307,5.46372 13.57699,8.96478 l 8.44773,6.36547 2.91948,4.21283 2.91948,4.21283 1.52233,5.05835 1.52233,5.05835 v 7.18089 7.18088 l -1.99044,6.39531 -1.99044,6.39531 -3.93426,7.03514 -3.93426,7.03502 -6.39642,6.83786 -6.39642,6.83771 -7.08821,5.22367 c -3.8985,2.87308 -9.48113,6.4081 -12.40581,7.85563 -2.9247,1.44753 -10.82138,4.45408 -17.54816,6.68132 -6.72679,2.22724 -13.30736,4.4401 -14.62347,4.91741 l -2.39292,0.86804 v 22.9369 22.93689 l 2.56722,2.5672 2.56722,2.56721 3.01628,0.63931 c 1.65896,0.35156 3.82041,1.07213 4.80325,1.60126 l 1.78698,0.9619 4.63747,-0.0931 c 2.55062,-0.051 7.08074,0.24296 10.06695,0.65368 l 5.42948,0.74673 3.37893,-1.74731 3.37893,-1.74737 3.13171,0.68792 c 1.72247,0.37834 5.27692,0.6878 7.89882,0.6878 2.62191,0 4.76708,0.22386 4.76708,0.49743 0,0.27356 -1.72821,1.2195 -3.84049,2.10207 -3.87509,1.61909 -12.20877,6.84957 -17.80828,11.17698 l -3.03712,2.34712 -6.91993,1.91884 -6.91995,1.91884 -4.9323,3.13594 -4.93229,3.13595 -7.97643,2.25334 c -4.38704,1.23935 -10.41144,2.95439 -13.38752,3.81121 l -5.41112,1.55777 h -4.38949 -4.38951 l -3.81366,-3.34845 z m 46.97019,-114.11551 9.41395,-4.73024 8.57304,-6.88249 8.57303,-6.88247 5.13562,-6.20122 5.13561,-6.20134 3.04101,-6.38106 3.04103,-6.38118 8.2e-4,-4.57278 8.5e-4,-4.57278 -1.55708,-3.01109 c -0.85641,-1.65614 -3.04186,-4.26039 -4.85659,-5.78745 l -3.29949,-2.77635 -6.04456,-1.81534 -6.04453,-1.8152 -9.03996,-0.028 -9.03995,-0.0279 -5.87631,1.32817 -5.87631,1.3283 -3.42954,2.08563 -3.42951,2.08563 v 31.8685 31.86851 l 1.86115,1.08412 c 1.02365,0.59614 2.41074,1.0985 3.08246,1.11635 0.67171,0.0173 5.45758,-2.0963 10.63526,-4.698 z m 78.01127,115.784 c -1.46234,-0.94546 -3.96539,-3.41205 -5.56235,-5.48127 l -2.90354,-3.76226 -0.65429,-3.48776 -0.65432,-3.48775 1.4308,-3.01515 1.43079,-3.01517 4.69937,-2.25512 4.69936,-2.25515 1.41591,-1.93635 1.41589,-1.93635 v -29.44374 -29.4437 l -5.58349,-0.62372 c -3.07093,-0.34316 -7.45855,-1.00232 -9.75027,-1.46497 l -4.16675,-0.84113 -0.33594,-1.05974 c -0.18475,-0.58281 0.0368,-1.64722 0.49248,-2.36538 l 0.82844,-1.30552 8.22125,-1.57302 c 4.52168,-0.8651 8.68769,-1.86129 9.25776,-2.21365 l 1.03652,-0.64051 v -43.06279 -43.06279 l -1.55186,-3.00096 -1.55188,-3.0011 -8.8175,-1.25237 c -4.84962,-0.68872 -10.37289,-1.48988 -12.27395,-1.78017 l -3.45644,-0.52793 v -0.82993 c 0,-0.45641 1.07682,-1.81055 2.39292,-3.00909 2.60422,-2.37165 16.02531,-10.95397 17.12987,-10.95397 0.3747,0 4.94433,-1.91951 10.15474,-4.26558 l 9.47349,-4.26572 3.02244,1.14913 c 1.66231,0.63197 3.86086,1.90791 4.88558,2.83523 l 1.86306,1.68612 v 2.90172 2.90158 l 2.39293,0.6413 c 1.3162,0.35276 7.18844,0.64783 13.04965,0.65582 l 10.65657,0.0146 7.63059,2.11454 c 4.19679,1.16298 10.35257,3.31842 13.67935,4.78966 l 6.04902,2.67511 7.03785,5.23686 c 3.87093,2.88027 8.80894,7.06619 10.97367,9.3021 l 3.93566,4.06522 2.35995,5.31759 2.35985,5.31759 0.4759,8.03227 0.4759,8.03214 -3.11297,9.03112 -3.11283,9.03125 -4.09451,6.16844 c -2.25189,3.39276 -6.49343,8.79347 -9.42558,12.00172 l -5.33108,5.833 -3.39167,-0.63623 -3.39154,-0.63625 -1.10882,1.35002 c -0.60989,0.74241 -1.27444,2.5419 -1.47687,3.99861 l -0.36774,2.64888 -5.23311,3.41925 -5.23326,3.41912 -13.19877,4.83322 -13.19884,4.83309 -2.30677,0.016 c -1.26864,0.0133 -3.02453,0.46984 -3.90194,1.02416 l -1.5953,1.00791 v 22.81834 22.81832 l 2.53532,2.69977 2.53518,2.69975 5.52286,1.14647 5.52285,1.14659 10.55363,-0.0306 c 5.80443,-0.0173 13.33334,-0.0852 16.73106,-0.15213 l 6.17749,-0.12123 0.72657,0.72652 0.72656,0.72654 -2.11826,1.24244 c -1.16494,0.68335 -5.16318,2.56457 -8.88491,4.18047 l -6.76664,2.93804 -3.15257,2.65267 c -1.73378,1.45891 -3.76626,2.65261 -4.51638,2.65261 h -1.36393 l -4.66977,4.10252 c -2.56829,2.25634 -6.71922,5.14551 -9.22417,6.42035 l -4.55452,2.31786 -10.33478,2.80937 -10.33489,2.80939 -5.31759,0.36152 -5.31768,0.36151 -2.65881,-1.71901 z m 43.36991,-114.73506 7.68189,-3.68143 7.70933,-5.7231 7.70916,-5.72296 7.44459,-7.892 7.44474,-7.89186 2.98033,-6.14779 2.98034,-6.14793 0.53868,-5.00506 0.53865,-5.00507 -1.92358,-3.69515 -1.92389,-3.69528 -4.25404,-2.95887 -4.25406,-2.95886 -7.97648,-1.68745 -7.97649,-1.68759 -6.91281,0.6168 c -3.80217,0.3393 -9.78444,1.34935 -13.29408,2.24482 l -6.3811,1.62791 -2.43912,2.75344 -2.43909,2.75331 0.312,30.03599 0.3121,30.03599 1.45959,1.75685 1.45958,1.75672 h 1.76104 c 0.96846,0 5.21771,-1.65668 9.44272,-3.68143 z m 366.61887,82.45856 c -2.9247,-1.04256 -7.7535,-3.13046 -10.7311,-4.63993 l -5.4133,-2.74452 -3.3542,-3.82011 c -1.8449,-2.10121 -4.4182,-5.84099 -5.7188,-8.31069 l -2.3645,-4.49045 -0.034,-7.97632 -0.035,-7.97645 3.3575,-7.0871 3.3577,-7.08697 8.2527,-8.63786 8.2524,-8.63801 -2.9875,-6.2509 -2.9876,-6.25077 0.6381,-3.19013 0.6381,-3.19013 -1.5223,-1.26329 -1.5221,-1.26329 1.6509,-3.19212 1.6505,-3.19213 -2.3602,-2.51233 -2.3602,-2.51232 0.6744,-4.9202 0.6744,-4.92021 2.1183,-4.78886 2.1183,-4.78871 4.5228,-5.40219 4.5229,-5.40205 4.6688,-2.96086 4.6688,-2.96099 5.7599,-1.289 5.7599,-1.28901 5.5372,1.74926 5.5371,1.74927 6.0714,3.80252 6.0714,3.80253 3.8741,6.37771 3.8744,6.37773 0.5442,4.05723 0.5442,4.0571 -2.3478,7.43906 -2.348,7.43919 -4.086,5.20315 c -2.2473,2.86163 -5.8429,7.83539 -7.9905,11.05242 -2.1473,3.21717 -5.3369,7.12133 -7.0884,8.67584 l -3.1842,2.82632 0.9056,1.54464 c 0.4981,0.84965 5.2632,6.1711 10.5893,11.82546 l 9.6841,10.28069 1.2701,-1.53038 1.27,-1.53039 0.2132,-3.01788 0.2129,-3.01788 -3.983,-0.32971 -3.9827,-0.32985 -2.6642,-3.49292 -2.6642,-3.49293 v -2.21659 -2.21657 l 1.5235,-1.5236 1.5235,-1.52347 8.8459,-2.75011 c 4.8652,-1.51253 11.2386,-3.29377 14.1634,-3.95825 l 5.3176,-1.20826 12.7624,-0.41964 c 7.0192,-0.23086 15.2748,-0.70418 18.3458,-1.05187 l 5.5834,-0.63211 -6e-4,1.40596 -5e-4,1.40596 -7.5635,6.91286 c -4.1599,3.80212 -9.0652,8.40727 -10.9005,10.23353 l -3.3371,3.32081 -5.1877,0.75307 c -2.8533,0.41418 -5.8445,1.00498 -6.6469,1.31298 l -1.4595,0.56005 v 5.16398 5.16387 l -2.2692,6.0648 -2.269,6.06466 3.0557,2.21751 c 1.6806,1.2196 4.9752,3.69463 7.3211,5.49983 l 4.2648,3.28245 -0.1974,1.50348 c -0.1079,0.82687 -0.8592,3.29443 -1.6681,5.48345 l -1.4706,3.97997 -2.5054,2.66698 -2.5055,2.66712 h -3.2711 -3.2712 l -3.4821,-2.12306 c -1.9152,-1.16711 -4.1239,-2.12254 -4.9084,-2.12254 -0.7845,0 -2.6429,-0.95716 -4.1303,-2.12706 -1.4873,-1.1699 -3.3466,-2.11481 -4.1315,-2.09976 -0.7852,0.0146 -4.06,1.70757 -7.2771,3.76149 l -5.8493,3.73432 -10.0613,3.15137 -10.0612,3.15136 -5.3599,-0.0778 -5.3598,-0.0778 -5.3177,-1.89533 z m 25.8062,-25.73724 4.6756,-2.26348 0.5207,-1.35708 0.5208,-1.35693 -10.9759,-10.73069 -10.9758,-10.7307 h -1.2841 -1.284 l -2.9699,3.91481 c -1.6337,2.15318 -4.5256,5.3521 -6.4267,7.10869 l -3.4564,3.19373 v 1.43833 1.4382 l 4.52,4.61182 c 2.4859,2.53643 5.4771,5.13668 6.6471,5.77825 l 2.127,1.16671 6.8429,0.032 6.843,0.032 4.6757,-2.26334 z m -5.6893,-65.36346 8.2109,-7.00596 2.0508,-3.36345 2.0509,-3.36344 v -3.37476 -3.3749 l -2.6371,-3.13418 -2.6374,-3.13432 -3.1943,-1.32309 -3.1944,-1.3231 -3.676,0.68952 -3.6759,0.68966 -2.8842,3.42033 c -1.5863,1.88114 -3.5293,4.9603 -4.3182,6.84251 l -1.4348,3.42233 v 4.11918 4.1193 l 1.5064,5.00427 c 1.4957,4.97043 3.3654,8.09608 4.8429,8.09608 0.4239,0 4.4659,-3.1527 8.9819,-7.00598 z m 188.6326,62.31374 c -3.3452,-0.42909 -9.4739,-1.87075 -13.6192,-3.20358 l -7.5368,-2.42347 -6.3151,-3.83583 c -3.4734,-2.10961 -8.7628,-5.75 -11.754,-8.08981 l -5.4386,-4.25414 -6.1496,-7.23683 -6.1496,-7.23683 -3.2174,-6.0572 c -1.7694,-3.33148 -4.1955,-9.16795 -5.3911,-12.97007 -1.1956,-3.80213 -3.1893,-12.40643 -4.4306,-19.12065 l -2.2571,-12.20766 0.4727,-4.80871 c 0.6828,-6.94709 3.6886,-22.37592 6.6507,-34.13878 2.949,-11.7109 9.2567,-30.29376 12.4134,-36.57077 4.7027,-9.35111 16.5337,-28.13086 23.7956,-37.77118 4.213,-5.59255 10.942,-13.52504 14.9534,-17.62783 4.0114,-4.10266 10.6418,-9.99095 14.7344,-13.0849 l 7.441,-5.62545 8.8187,-4.36989 8.8188,-4.36989 11.3918,-0.0719 11.392,-0.072 10.1034,4.07695 c 5.5569,2.24243 11.0607,4.15675 12.2307,4.25413 l 2.1269,0.17718 0.5319,-5.89749 0.5317,-5.89761 1.9732,-3.00975 1.9729,-3.00988 5.8513,0.68766 5.8512,0.68779 5.7481,2.71921 5.7479,2.7192 3.71,3.49893 3.7099,3.49893 v 5.32504 c 0,2.92876 -0.2993,6.82134 -0.665,8.65013 l -0.665,3.32521 -4.1949,4.76581 -4.1952,4.76567 0.6688,1.08198 0.6687,1.08199 h 1.9464 1.9464 l 2.4566,1.98904 2.4563,1.98919 -1.2628,14.76142 c -1.4537,16.98946 -2.5445,25.10579 -4.8168,35.83688 -0.8897,4.20177 -2.0812,10.03251 -2.6478,12.95727 -0.5667,2.92463 -1.818,8.83584 -2.7809,13.13579 l -1.7503,7.81818 -2.6401,5.20996 -2.6401,5.21009 h -0.9215 -0.9216 l -0.6414,-2.39296 c -0.3527,-1.31618 -0.6478,-4.92088 -0.6556,-8.01056 l -0.015,-5.61773 -1.4372,-3.43937 -1.437,-3.43951 -0.7843,-13.76617 -0.7841,-13.76615 -4.5572,-13.33654 -4.5572,-13.33654 -4.5797,-8.93041 -4.58,-8.93042 -3.8212,-4.01686 -3.821,-4.01687 -2.9467,-0.73961 -2.9465,-0.73949 -4.6581,1.77897 c -2.562,0.97834 -7.6859,3.77721 -11.3867,6.2196 l -6.7287,4.44076 -9.9122,10.04729 -9.912,10.0473 -7.835,11.77737 -7.8352,11.77752 -7.4339,15.42111 c -7.9836,16.56103 -13.3312,30.25232 -17.6871,45.28351 l -2.7311,9.42424 -0.6586,8.00829 -0.6586,8.00829 -2.4893,2.99537 -2.4895,2.99536 1.565,3.02627 c 0.8608,1.66453 2.9284,4.14529 4.595,5.51289 l 3.0298,2.48648 2.849,4.98935 2.8487,4.98934 5.0436,5.16452 5.0433,5.16453 5.1531,2.48648 5.1529,2.48635 11.8636,-0.55725 11.8632,-0.55738 10.299,-3.33626 c 5.6643,-1.83492 13.0505,-4.5532 16.4141,-6.04069 l 6.115,-2.70428 1.8898,0.4941 1.8896,0.49409 3.0545,-2.9189 3.0544,-2.91889 7.4993,-2.86575 7.4997,-2.86575 1.9821,-2.19007 c 1.0901,-1.20455 3.2319,-2.83644 4.7594,-3.62628 l 2.7772,-1.43634 1.2618,-2.97485 1.2616,-2.97485 6.0198,-3.65665 c 3.3108,-2.01117 7.8174,-5.28096 10.015,-7.26641 l 3.9956,-3.60976 4.221,-6.68346 4.2209,-6.68346 1.5907,-0.61038 1.5906,-0.61028 1.3016,1.56823 1.3016,1.56835 -1.1861,2.35674 c -0.6524,1.29619 -2.3616,7.23217 -3.7983,13.19106 l -2.6121,10.83447 -5.1332,9.37256 -5.1331,9.37242 -7.1083,7.11361 -7.1083,7.11348 -3.0515,1.57781 -3.0512,1.57781 -2.0501,-0.18317 -2.0505,-0.18304 -2.9589,5.84926 -2.9585,5.84952 -11.4225,7.11668 -11.4223,7.1168 -9.5718,3.17868 -9.5717,3.17854 -8.3193,1.13752 c -9.1109,1.24571 -14.0574,1.26236 -23.2877,0.0786 z m -1003.05641,-18.49947 -4.10813,-1.54384 -3.16807,-3.00882 -3.16808,-3.00882 -2.08836,-4.06083 -2.08838,-4.06096 -0.59708,-5.04143 -0.59709,-5.04144 2.53685,-2.94913 2.53683,-2.94928 6.66424,-0.78583 6.66423,-0.78572 1.81038,-1.8104 1.81036,-1.81041 0.54547,-9.80671 0.54551,-9.80671 3.19055,-0.54339 3.1906,-0.54338 0.33009,-2.8531 0.33009,-2.85309 -2.98889,-1.90313 c -1.6439,-1.04681 -3.34053,-2.39283 -3.77029,-2.99137 l -0.78133,-1.0881 -0.0164,-30.60963 -0.0162,-30.60973 1.3294,-0.40952 c 0.73117,-0.22527 2.59273,-0.68472 4.1368,-1.02097 l 2.80738,-0.61146 0.67543,-1.76005 0.67542,-1.76018 -1.35576,-1.81521 c -0.74568,-0.99832 -2.96679,-3.91935 -4.93583,-6.49136 l -3.58006,-4.67615 0.85974,-17.01637 c 0.47285,-9.3591 0.88742,-21.64496 0.92125,-27.30213 l 0.0614,-10.28562 -2.5681,-2.73159 -2.56809,-2.73174 -5.94011,-2.21484 -5.94007,-2.21485 -2.30698,-2.15477 -2.30699,-2.15465 -2.26485,-5.26483 -2.26487,-5.26483 -0.17422,-6.28595 -0.17425,-6.28606 2.49085,-2.65141 2.49085,-2.6514 9.16813,-3.35119 9.16814,-3.35132 16.48463,-3.07583 16.48464,-3.07583 19.14343,0.0226 19.14345,0.0226 10.22682,0.99527 10.2268,0.99525 8.7395,3.18946 c 4.80672,1.75433 11.69857,4.84441 15.31521,6.8669 3.61665,2.02249 8.74293,5.58495 11.39177,7.91663 l 4.81603,4.23921 6.74683,9.4076 6.7468,9.40759 5.09686,10.63518 5.09687,10.63531 1.78631,6.91285 1.78631,6.91286 0.0954,7.97645 0.0956,7.97645 -1.37758,5.8494 -1.37755,5.84938 -4.15777,8.50825 -4.15778,8.50812 -6.11069,7.10016 c -3.36087,3.90509 -8.50363,9.22508 -11.42833,11.822 -2.92467,2.59705 -9.06611,7.41055 -13.64759,10.69659 l -8.32999,5.97475 -12.94051,6.26102 c -16.3141,7.8932 -35.35134,15.51489 -44.31448,17.74147 -3.8021,0.9445 -8.68606,2.17236 -10.85326,2.72867 l -3.94037,1.01124 -1.64314,1.64322 -1.64314,1.64309 v 13.79827 13.79813 l 2.43946,2.43946 2.43947,2.43945 4.33531,0.69325 4.33532,0.69326 1.33187,1.60485 1.33188,1.60487 5.45326,0.0146 5.4533,0.016 4.59063,1.59886 4.59061,1.59886 0.98509,-0.60879 c 0.92766,-0.57324 23.3154,-1.76379 30.24759,-1.60832 1.75482,0.0386 4.86563,0.0786 6.91291,0.0866 2.04729,0.0133 4.37447,0.24884 5.17152,0.53459 l 1.44919,0.51942 -1.31351,1.5826 -1.31354,1.58274 h -1.66103 c -0.9136,0 -3.84617,1.0167 -6.51683,2.25948 -2.67065,1.24264 -7.72727,3.59404 -11.2369,5.22514 -3.50962,1.63123 -9.25267,3.77628 -12.76229,4.76701 -3.50964,0.99073 -7.9528,2.46796 -9.87369,3.28297 l -3.49255,1.48177 h -3.98138 -3.9814 l -2.32591,1.62923 c -3.47718,2.43547 -10.27627,4.63686 -21.5449,6.97547 l -10.10349,2.09696 -12.76228,0.53126 -12.76231,0.53126 -4.10811,-1.54384 z m 79.47451,-118.36963 9.42791,-3.72552 4.60259,0.69019 4.60261,0.69019 1.70502,-2.60224 1.70502,-2.60211 -0.64053,-2.55216 -0.64055,-2.55202 2.09883,-1.89939 2.09884,-1.89941 2.2835,1.22213 2.28349,1.22199 1.61898,-1.34362 1.61899,-1.34361 -0.59173,-2.9586 -0.59173,-2.9586 5.31249,-6.07093 c 6.63658,-7.584 11.98867,-15.60054 15.69127,-23.50279 l 2.86073,-6.1057 7e-4,-9.57172 6.8e-4,-9.57171 -2.82941,-6.03563 -2.8294,-6.03563 -4.35208,-4.72144 -4.35207,-4.72145 -6.20121,-2.78302 -6.20124,-2.78289 -8.16108,-1.21386 -8.16106,-1.21373 -10.36196,1.25743 c -5.69908,0.69152 -11.16026,1.48789 -12.13599,1.76964 l -1.77403,0.51235 -3.68399,-3.23462 -3.684,-3.23463 h -2.21511 -2.21512 l -1.10094,2.05712 c -0.6055,1.13142 -1.10094,3.20492 -1.10094,4.60768 v 2.55056 l -3.90484,2.57108 c -2.14767,1.41409 -4.84259,3.84609 -5.98874,5.40432 l -2.08389,2.83323 -0.87523,16.84199 -0.87527,16.84199 -0.0488,30.37303 -0.0489,30.37315 1.3294,1.67613 c 0.73118,0.92198 2.04729,1.89166 2.92471,2.15504 l 1.59527,0.47864 12.23054,-2.58253 12.23054,-2.58266 9.42787,-3.72566 z m 100.11513,115.91579 c -1.7548,-0.23285 -5.73974,-1.14233 -8.85541,-2.02115 l -5.66485,-1.59779 -4.48472,-4.48473 -4.48472,-4.48473 -4.67156,-12.21245 -4.67154,-12.21246 -0.44386,-14.31581 -0.44385,-14.31595 1.26315,-7.83017 1.26315,-7.83032 2.56116,-7.53005 c 1.40864,-4.14155 4.27797,-10.65343 6.37627,-14.47087 4.56917,-8.31255 11.84573,-17.98285 18.77523,-24.95153 l 5.07057,-5.09924 8.81487,-4.22975 8.81488,-4.22961 5.42248,-0.64224 5.42246,-0.64223 5.5174,3.00296 5.51739,3.00295 5.64736,5.42617 5.64734,5.42629 2.65216,5.26431 2.65219,5.2643 1.19579,5.63585 1.19582,5.63584 -0.005,13.50758 -0.005,13.5076 -1.11039,3.99834 -1.11035,3.99822 -2.34015,1.51853 -2.34017,1.5184 -7.44468,1.21733 c -7.46414,1.22039 -44.1311,10.32732 -52.11271,12.94315 l -4.25409,1.3941 -1.85374,3.78935 -1.85375,3.78933 1.80332,4.71891 c 0.99182,2.59532 2.9198,6.53092 4.28435,8.74564 l 2.48103,4.02673 3.41877,2.1561 3.4188,2.15624 6.47652,-0.46332 6.47654,-0.4632 6.81751,-3.00669 c 3.74965,-1.65374 12.55786,-6.441 19.57382,-10.63838 l 12.75631,-7.63155 1.44901,0.55604 1.44903,0.55604 -0.56861,3.50386 c -0.31273,1.92724 -1.53343,5.685 -2.71263,8.35092 l -2.14401,4.8468 h -2.64266 -2.64263 l -1.74254,1.74261 -1.74251,1.74247 0.16988,4.37268 c 0.0936,2.40509 0.12549,4.8917 0.0712,5.52581 l -0.0986,1.15312 -9.33596,4.43664 -9.33598,4.43675 -7.41453,1.57049 c -7.34336,1.55557 -9.73932,1.68585 -15.92274,0.86577 z m 10.16567,-78.47778 17.48599,-3.93255 4.42902,-1.92829 4.42902,-1.92844 1.15449,-2.15718 1.15447,-2.15716 V 358.76823 347.5529 l -1.71465,-4.28543 -1.71463,-4.28529 -2.51167,-0.63038 -2.51167,-0.63039 -4.80088,2.32409 -4.80087,2.32409 -7.9464,7.42108 c -4.37053,4.08161 -9.5783,9.66497 -11.57282,12.40761 -1.99453,2.7428 -5.65459,8.89765 -8.13347,13.67758 l -4.50705,8.69075 0.75357,1.21933 0.75357,1.21933 1.28401,-0.49277 c 0.70621,-0.27095 9.1527,-2.26227 18.76997,-4.42517 z m 336.95,76.68776 c -2.1163,-0.75614 -5.5902,-2.45185 -7.72,-3.76816 l -3.8725,-2.39335 -2.6611,-4.54081 c -1.4636,-2.49754 -4.4506,-9.51497 -6.6376,-15.59442 l -3.9765,-11.05361 0.099,-17.01638 0.099,-17.01636 2.3044,-8.50826 2.3043,-8.50811 4.312,-9.04005 4.3122,-9.03992 5.7605,-7.53737 c 3.1683,-4.14555 8.4102,-10.04316 11.6487,-13.10594 l 5.8879,-5.56857 8.0098,-3.70088 8.0101,-3.70075 5.177,-0.61319 5.1771,-0.61319 4.6086,2.25015 4.6083,2.25015 6.6029,5.90948 6.6027,5.9096 3.5007,7.10508 3.5006,7.10509 0.3448,18.63987 0.3446,18.63975 -1.0948,2.86908 -1.0948,2.86907 -2.4405,1.58328 -2.4404,1.5834 -9.6042,1.65508 c -5.2825,0.91026 -18.683,4.07215 -29.779,7.02649 l -20.1742,5.37127 -4.7858,2.347 -4.786,2.34701 0.1788,6.56249 0.1787,6.56263 2.1704,4.90622 2.1702,4.90622 3.732,1.55929 3.7322,1.55944 7.7447,-0.0187 7.7447,-0.0187 8.9694,-3.63733 8.9695,-3.63734 2.0202,1.08118 2.0202,1.08118 1.943,-1.75831 c 1.0686,-0.96716 2.208,-2.79994 2.5324,-4.07296 l 0.5894,-2.31476 6.6908,-4.5199 6.6909,-4.52002 h 1.957 1.957 l 3.042,-2.16609 c 1.6731,-1.19149 5.2566,-3.14577 7.9631,-4.34299 l 4.9211,-2.17688 0.556,0.55604 0.5561,0.55606 -1.7827,4.66775 -1.7826,4.66763 -4.1469,5.47905 c -2.2808,3.01335 -5.102,7.35127 -6.2696,9.63966 l -2.1225,4.16073 -5.3818,4.70774 -5.3815,4.70772 -9.8106,4.93766 -9.8106,4.93752 -5.0612,1.32776 -5.0613,1.32791 -1.646,-2.3502 -1.646,-2.3502 h -2.8645 -2.8644 l -4.2541,2.62009 c -2.3398,1.44114 -4.9719,2.6141 -5.8493,2.60678 -0.8775,-0.0133 -3.3268,-0.63224 -5.4429,-1.38851 z m 17.1414,-76.23336 c 7.8968,-1.74913 17.3538,-4.16593 21.0157,-5.37062 l 6.6579,-2.19033 1.1743,-2.19407 1.1742,-2.19407 0.1442,-12.33902 0.1441,-12.33915 -2.2129,-3.72232 -2.2133,-3.72233 -3.7243,0.10528 -3.7245,0.10528 -6.5378,4.43983 -6.5383,4.43997 -2.5265,-0.63424 -2.527,-0.63411 -1.749,1.74913 -1.7493,1.74912 0.6517,2.59558 0.6514,2.59573 -4.217,5.56977 c -2.3195,3.0633 -6.2017,9.21802 -8.627,13.67703 l -4.4098,8.10754 v 2.38603 2.38604 l 2.3928,-0.69312 c 1.3162,-0.38127 8.8538,-2.12427 16.7504,-3.87353 z m 660.7359,76.95393 -2.3715,-0.45813 -2.1485,-2.73107 -2.1481,-2.73107 v -1.85343 -1.85331 l -1.502,-1.2465 -1.502,-1.24664 -6.4453,2.71282 c -3.5448,1.49202 -10.1673,3.9416 -14.7166,5.44361 l -8.2716,2.7308 -9.657,0.60413 -9.657,0.60401 -5.6429,-1.87436 -5.6431,-1.87434 -4.1034,-3.70701 -4.1031,-3.70701 -1.6015,-5.39246 -1.6013,-5.39232 v -5.0762 -5.07634 l 2.5768,-7.09869 2.5765,-7.09869 3.9807,-5.77945 3.9804,-5.77945 5.9392,-4.28783 5.9394,-4.28783 12.7621,-6.21733 12.7624,-6.21734 9.3686,-2.33607 9.369,-2.33595 2.2335,-1.80854 2.2331,-1.80842 -1.1741,-10.3361 -1.1739,-10.33611 -1.92,-3.92774 -1.9197,-3.92789 -8.5083,-0.29934 -8.5082,-0.29946 -8.5082,4.13583 -8.5083,4.13583 -7.9764,5.91812 c -4.3871,3.25501 -8.5875,6.55383 -9.3346,7.33062 -0.7469,0.77692 -2.5082,2.8483 -3.9141,4.60302 l -2.5563,3.19066 -1.279,-1.25836 -1.279,-1.25823 2.87,-7.24989 c 1.5782,-3.98756 4.3938,-9.8123 6.2567,-12.94408 l 3.3869,-5.69419 6.2471,-5.23939 c 3.4358,-2.8816 8.2374,-6.40571 10.67,-7.83138 2.4326,-1.42569 6.5611,-3.35292 9.1741,-4.28278 l 4.7511,-1.69077 7.6539,-0.0427 7.6538,-0.0427 5.6887,2.60437 5.6888,2.60437 3.8966,3.4214 3.8968,3.42139 2.5798,5.51102 2.5799,5.51103 1.2093,5.74721 1.2092,5.74721 1.024,14.99148 c 0.5632,8.24541 1.0311,19.17913 1.0397,24.29744 l 0.016,9.30581 h 1.0006 c 0.5504,0 1.2966,-0.47865 1.6581,-1.0636 l 0.6571,-1.06346 h 2.1974 2.1972 l -0.6902,3.45642 c -0.3797,1.90113 -2.1144,6.50135 -3.8554,10.22287 l -3.1648,6.76646 v 2.0077 2.00757 h 1.1221 c 0.6171,0 3.8476,-1.39771 7.1788,-3.10607 8.9267,-4.57824 15.6005,-7.52912 17.0274,-7.52912 h 1.2597 v 0.98833 c 0,0.54353 -1.9475,3.92016 -4.3275,7.50341 l -4.3275,6.51521 -0.8197,5.1853 -0.8197,5.18544 -1.7233,2.62982 -1.7231,2.62981 -5.626,3.1936 -5.626,3.19359 -5.7765,1.69465 c -3.1771,0.93211 -6.0487,1.62963 -6.3813,1.54996 -0.3327,-0.0799 -1.6718,-0.35102 -2.9763,-0.60306 z m -38.0354,-24.21298 8.1702,-1.56329 6.0152,-2.74333 c 3.3079,-1.5088 7.8116,-3.98262 10.0077,-5.49743 l 3.9929,-2.75424 2.1224,-3.43418 2.1224,-3.43418 v -4.44276 -4.44275 l -2.6105,-2.61051 -2.6105,-2.61051 h -2.0458 -2.0454 l -1.5986,-2.39283 -1.5986,-2.39296 -2.0349,1.82826 -2.0353,1.82826 -7.1986,2.22351 -7.1986,2.22339 -3.9209,3.46574 c -2.1566,1.90619 -6.1765,5.05689 -8.9334,7.00158 l -5.0125,3.53569 -2.5917,3.83609 c -1.4255,2.10988 -2.9185,4.93646 -3.3181,6.28114 l -0.7264,2.44506 1.708,2.60663 1.7081,2.60679 h 5.7313 5.7315 z m -539.034,19.22017 -3.902,-3.90231 -2.6589,-5.24672 -2.6588,-5.24672 v -2.63141 -2.63142 l 1.3242,-0.81835 1.324,-0.81835 9.0454,-0.0427 9.0451,-0.0427 0.6404,-21.2705 0.6402,-21.27049 1.3057,-5.56817 1.3056,-5.56803 -0.3505,-13.75884 -0.3508,-13.75883 -2.3553,-2.50393 -2.3555,-2.50393 0.6149,-2.3514 0.615,-2.35141 -1.7879,-0.68605 -1.7876,-0.68593 -2.3211,1.22146 -2.321,1.22146 -5.3178,-2.03369 -5.3176,-2.03381 -0.3623,-1.80015 -0.3621,-1.80001 2.3611,-2.51326 2.361,-2.51312 9.1682,-3.36864 9.168,-3.3685 5.9161,-0.12523 5.916,-0.12522 2.9467,1.93083 2.9471,1.93097 1.5063,3.60536 1.5065,3.6055 v 5.35183 5.35169 l 1.3294,-5.4e-4 1.3296,-5.3e-4 6.0822,-6.80148 6.082,-6.80148 4.623,-2.2379 4.623,-2.2379 h 4.8947 c 2.6922,0 5.6886,0.30453 6.6587,0.67673 l 1.7638,0.67688 0.9556,2.51379 0.9558,2.51378 h 3.018 3.0179 l 2.726,2.92463 2.7262,2.92463 4.3858,9.07736 4.3858,9.07734 -0.063,2.08977 c -0.033,1.14925 -0.9146,5.36261 -1.9576,9.36283 l -1.8958,7.27333 -4.6899,2.09523 -4.6896,2.09522 -2.8256,2.70029 -2.8256,2.70016 -6.3489,-2.84909 -6.3488,-2.84922 -1.1548,-2.53458 -1.1547,-2.53458 0.8812,-0.54458 0.8812,-0.54472 1.9023,2.10202 1.9023,2.10189 h 2.8225 2.8224 l 1.7419,-1.32937 1.742,-1.32936 1.6365,-4.78593 c 0.9,-2.63222 1.6434,-5.64517 1.6519,-6.69531 l 0.016,-1.90953 -2.6588,-2.65885 c -1.4624,-1.46232 -2.6589,-3.03213 -2.6589,-3.48854 0,-0.45639 -1.1077,-1.87048 -2.4613,-3.1423 l -2.4615,-2.3125 h -5.8103 -5.81 l -2.387,1.672 -2.3871,1.672 -3.0192,6.03855 c -1.6605,3.32121 -3.7908,8.43152 -4.7338,11.35615 -0.9434,2.92475 -2.938,12.48609 -4.4328,21.24758 l -2.7179,15.92986 -0.1066,8.24248 -0.1067,8.24235 1.8226,2.78116 1.8221,2.78115 4.5706,2.02183 4.5705,2.02181 0.5788,2.21232 0.5783,2.21246 2.1814,-1.16737 2.1814,-1.16751 2.0859,1.30272 2.0858,1.30272 2.6425,-1.41422 2.6426,-1.41423 3.0066,0.75041 c 1.6536,0.41284 3.7245,1.3668 4.602,2.12014 0.8773,0.7532 2.9212,1.68465 4.5419,2.06991 l 2.9464,0.70032 2.2194,-1.18776 2.2194,-1.18789 1.0176,1.01777 1.0179,1.01777 -1.8222,1.82214 -1.8221,1.82226 -2.1561,-0.56377 -2.1559,-0.56377 -2.7373,1.4731 c -4.1595,2.23844 -12.8492,4.80684 -16.263,4.80684 h -3.0435 l -4.4778,2.3177 -4.4776,2.31769 -11.6988,0.78758 c -6.4343,0.43321 -16.2842,1.13021 -21.8882,1.54903 l -10.1897,0.76134 -3.9023,-3.90217 z m 617.0937,0.80488 c -1.519,-1.67239 -3.553,-4.22415 -4.5202,-5.67034 l -1.7584,-2.62955 v -2.95394 -2.95393 l 2.0852,-2.08524 2.0852,-2.0851 5.8898,-1.71222 5.8898,-1.71224 0.6063,-2.41573 0.6065,-2.41574 -0.3391,-38.18895 -0.339,-38.18909 -2.1846,-3.71873 -2.1845,-3.71872 -3.6649,-2.4697 -3.6648,-2.46969 v -1.25624 -1.25622 l 10.1035,-3.42939 c 5.5569,-1.88621 11.0607,-3.44164 12.2306,-3.45643 l 2.127,-0.0267 2.7559,3.45642 2.7558,3.45643 1.361,4.25413 c 0.7484,2.33967 1.7656,4.6928 2.2607,5.22913 l 0.8998,0.97515 7.7457,-8.04546 7.7458,-8.04532 4.52,-1.21307 4.52,-1.21294 4.0115,1.08012 4.0115,1.08026 4.5127,3.31854 4.5126,3.31868 2.5386,4.41625 c 1.3962,2.42894 2.8536,5.92932 3.2383,7.77863 l 0.7002,3.36251 -1.1992,6.741 c -0.6595,3.70754 -2.4065,10.73643 -3.8825,15.61973 l -2.6833,8.87872 -6.2904,6.44847 -6.2901,6.44832 -0.6536,-0.65329 -0.6531,-0.65329 1.8196,-7.42494 1.8196,-7.4248 -0.6052,-10.89401 -0.6051,-10.89403 -1.0735,-1.07359 -1.0736,-1.07345 -5.9057,1.86156 -5.9058,1.86169 -3.2752,4.45223 c -1.8013,2.44878 -3.9361,5.99299 -4.7441,7.876 l -1.4689,3.42366 -2.6582,17.51393 -2.6582,17.51407 v 6.50095 6.50081 l 1.5559,3.00896 c 0.8559,1.6548 2.172,3.23888 2.9248,3.52009 0.7528,0.28123 7.1116,0.16933 14.1309,-0.24871 l 12.7623,-0.76013 0.9614,0.86031 0.9611,0.86045 -2.9157,3.82277 c -1.6037,2.10255 -4.4663,4.83921 -6.3616,6.08158 l -3.4459,2.25882 -2.2992,3.50744 -2.2992,3.50746 -2.7814,1.82253 -2.7813,1.8224 -10.2578,0.76971 c -5.6417,0.42323 -14.8045,1.10543 -20.3613,1.51587 l -10.1036,0.74628 -2.7614,-3.04079 z m 90.8425,1.07519 c -1.2751,-1.09383 -3.5485,-3.85034 -5.0517,-6.12554 l -2.7332,-4.13663 v -2.06045 -2.06046 l 2.9796,-2.97965 2.9797,-2.97965 4.4039,-0.74401 4.4038,-0.74401 1.0265,-1.24624 1.0267,-1.24623 0.2265,-37.2234 0.2268,-37.2234 -1.062,-5.09005 -1.0618,-5.09006 -1.8727,-2.06939 -1.8727,-2.06924 -5.4363,-2.02516 -5.4361,-2.02501 -0.2901,-1.45086 -0.2901,-1.45072 13.4844,-2.40628 13.4847,-2.40629 2.7582,1.75432 c 1.5172,0.96489 3.8182,3.00483 5.1133,4.53336 l 2.355,2.77902 0.6881,3.45642 0.6882,3.45656 1.2112,-0.0133 1.2109,-0.0133 4.9976,-6.26769 4.9976,-6.26769 5.8466,-2.86056 5.8468,-2.86054 3.5131,0.7568 c 1.9325,0.4163 4.9492,1.47178 6.704,2.34554 4.0946,2.03874 8.8412,6.45153 10.6395,9.89143 l 1.4095,2.69643 -1.518,13.78827 -1.5181,13.78828 -3.1496,4.78579 c -1.7323,2.63222 -3.9685,6.34136 -4.9694,8.24235 l -1.8194,3.45643 h -1.7218 -1.7219 l -0.1024,-8.77402 -0.1035,-8.77415 -1.8083,-4.49951 -1.8084,-4.49964 -3.4746,-2.14745 -3.4748,-2.14744 h -2.6682 -2.668 l -2.1274,5.05169 c -1.17,2.77849 -2.8763,7.44479 -3.792,10.36941 -1.8057,5.76786 -5.5108,28.37132 -6.647,40.55168 l -0.7074,7.58226 1.2426,3.76549 c 0.6836,2.07098 1.8166,4.23427 2.5178,4.80723 l 1.275,1.04175 5.8493,-1.04667 c 3.2171,-0.57563 8.7211,-1.17577 12.2306,-1.3335 3.5095,-0.15785 7.1702,-0.62851 8.1347,-1.04614 l 1.7535,-0.75907 0.753,1.21813 0.753,1.21826 -6.9914,6.72156 -6.9914,6.72142 -1.6614,4.15235 -1.6615,4.15248 -3.4042,2.0109 -3.4043,2.01089 -10.1248,0.75134 c -5.5684,0.41324 -14.4317,1.09651 -19.6962,1.51827 l -9.5718,0.76706 -2.3185,-1.98892 z m 120.9017,0.0906 -5.8496,-1.60632 -5.6514,-3.86913 -5.6514,-3.86913 -4.1695,-4.87545 -4.1696,-4.87544 -3.099,-6.38106 -3.099,-6.38118 -1.1717,-5.63586 -1.1717,-5.63584 0.021,-9.78525 0.021,-9.78526 1.0344,-7.15052 1.034,-7.15038 2.2839,-6.67533 c 3.0058,-8.78627 7.8813,-18.47202 11.8034,-23.44898 l 3.1609,-4.01126 6.6704,-4.75995 c 3.6688,-2.61783 9.2857,-5.95716 12.4822,-7.42054 l 5.8118,-2.66073 7.8831,-0.6425 7.8832,-0.64264 7.4208,1.74593 7.421,1.74593 4.4432,2.60385 4.4431,2.60397 3.2882,4.15169 3.288,4.15154 3.6919,7.82712 c 2.0304,4.30488 4.4537,10.69859 5.3852,14.20818 l 1.6934,6.38118 0.5945,10.10351 0.5943,10.10338 -1.7205,9.04006 c -0.9465,4.97189 -2.2116,10.79397 -2.8114,12.93782 l -1.0904,3.89804 -3.6974,2.18142 -3.6972,2.1814 v 1.64563 c 0,0.90507 0.5905,2.59079 1.312,3.74617 l 1.3118,2.10056 -2.1095,3.93214 c -1.1603,2.16276 -4.34,6.37598 -7.0662,9.36296 l -4.9567,5.43096 -5.6786,3.13497 -5.6785,3.13498 -13.2941,0.25778 -13.2939,0.2579 z m 25.4782,-22.0201 5.8654,-1.3295 4.0696,-4.0543 4.0695,-4.05443 2.067,-4.82256 2.0674,-4.82269 1.1719,-7.55403 1.1722,-7.55415 -0.7073,-14.94286 c -0.389,-8.21851 -0.6875,-17.1661 -0.6634,-19.88332 l 0.043,-4.94059 -2.8726,-1.8822 c -1.5801,-1.03524 -5.4198,-3.95679 -8.5328,-6.49243 l -5.6598,-4.61008 h -3.4879 -3.4881 l -5.4601,1.6215 -5.4603,1.62152 -3.4257,2.88253 -3.4259,2.88266 -4.0449,6.25836 -4.045,6.25837 -0.6489,3.861 c -0.357,2.12347 -0.8721,4.67722 -1.1446,5.67488 -0.2725,0.99765 -2.3844,4.09972 -4.6929,6.8934 l -4.1975,5.07953 v 1.64429 1.64429 l 1.9627,1.68066 1.9631,1.68065 0.7304,6.2164 0.7307,6.2164 4.5978,9.70573 4.5975,9.7056 3.1172,2.21964 c 3.679,2.61957 9.0434,4.29583 14.1753,4.42918 2.03,0.0533 6.3305,-0.50236 9.5564,-1.23345 z m 94.9338,20.92186 -5.5015,-2.74145 -2.7347,-3.24994 c -1.504,-1.78736 -3.6252,-4.99587 -4.7139,-7.12987 l -1.9793,-3.87991 -1.1606,-6.27689 -1.1602,-6.27674 -0.075,-28.25395 -0.075,-28.25396 -0.8316,-2.12706 -0.8317,-2.12706 h -7.6752 -7.675 l -4.1809,-4.47887 -4.1807,-4.47872 v -2.71442 -2.71441 l -1.2313,-1.97173 -1.2312,-1.97187 0.5796,-1.5108 0.5797,-1.51081 6.2744,-3.28884 6.2741,-3.28897 6.1365,-1.37319 6.1368,-1.37333 1.2689,-2.21019 1.269,-2.21019 -0.2729,-21.61925 -0.2729,-21.61926 -1.1304,-2.11214 -1.1303,-2.11215 1.2676,-1.52731 1.2675,-1.52733 h 2.1237 2.1237 l 6.2231,3.78054 6.2235,3.78055 2.2384,3.14376 2.2387,3.14391 0.6191,16.1093 0.6193,16.10943 1.9754,1.9752 1.9751,1.97533 2.9087,-0.69886 c 1.5996,-0.38432 4.5834,-1.52785 6.6306,-2.54096 l 3.7224,-1.84225 8.3548,-0.76705 8.355,-0.76694 3.8757,-1.65135 3.8755,-1.65147 5.5721,-0.10791 5.572,-0.10924 0.5212,1.35881 0.5211,1.35868 -1.8391,1.49907 c -1.0115,0.82448 -4.0837,3.32388 -6.8274,5.55419 -2.7435,2.2303 -9.0478,7.68137 -14.0096,12.11348 l -9.021,8.05838 -9.388,3.5502 c -5.1633,1.95269 -10.1059,4.20551 -10.9834,5.00614 l -1.5951,1.45565 -0.3426,29.47661 -0.3426,29.47661 0.6892,5.61813 0.6894,5.61826 2.4678,2.8692 2.468,2.86908 3.2689,-1.57448 3.2689,-1.57434 12.1055,-11.84333 c 6.6579,-6.51387 13.1429,-12.39869 14.4113,-13.07743 l 2.3057,-1.23398 0.9078,0.56111 0.908,0.56111 -0.8597,4.53987 c -0.473,2.49687 -1.624,6.35441 -2.558,8.57219 l -1.6981,4.03259 -3.3008,2.94914 -3.3007,2.94914 1.2308,2.29984 1.2308,2.29998 -1.6699,4.01248 -1.67,4.01247 -4.4697,4.65217 c -2.4583,2.55881 -6.5973,6.02856 -9.1979,7.71069 l -4.7283,3.05824 h -5.964 -5.964 l -5.5015,-2.74146 z"
       id="path4376"
       inkscape:connector-curvature="0" />
  </g>
</svg>
