<?xml version="1.0" encoding="UTF-8" standalone="no"?>
<!-- Created with Inkscape (http://www.inkscape.org/) -->

<svg
   xmlns:dc="http://purl.org/dc/elements/1.1/"
   xmlns:cc="http://creativecommons.org/ns#"
   xmlns:rdf="http://www.w3.org/1999/02/22-rdf-syntax-ns#"
   xmlns:svg="http://www.w3.org/2000/svg"
   xmlns="http://www.w3.org/2000/svg"
   xmlns:xlink="http://www.w3.org/1999/xlink"
   xmlns:sodipodi="http://sodipodi.sourceforge.net/DTD/sodipodi-0.dtd"
   xmlns:inkscape="http://www.inkscape.org/namespaces/inkscape"
   id="svg2"
   version="1.1"
   inkscape:version="0.92.1 renderfarm"
   width="2481"
   height="663"
   sodipodi:docname="Pepper-and-Carrot_by-David-Revoy_E02P00_092.svg">
  <sodipodi:namedview pagecolor="#ffffff" bordercolor="#666666" inkscape:pageopacity="0" inkscape:pageshadow="2" inkscape:window-width="1813" inkscape:window-height="955" id="namedview70" showgrid="false" inkscape:zoom="0.4" inkscape:cx="1284.4231" inkscape:cy="2618.6204" inkscape:current-layer="layer1" /><metadata
     id="metadata8">
    <rdf:RDF>
      <cc:Work
         rdf:about="">
        <dc:format>image/svg+xml</dc:format>
        <dc:type
           rdf:resource="http://purl.org/dc/dcmitype/StillImage" />
        <dc:title />
      </cc:Work>
    </rdf:RDF>
  </metadata>
  <defs
     id="defs6" />
  <sodipodi:namedview
     pagecolor="#ffffff"
     bordercolor="#666666"
     borderopacity="1"
     objecttolerance="10"
     gridtolerance="10"
     guidetolerance="10"
     inkscape:pageopacity="0"
     inkscape:pageshadow="2"
     inkscape:window-width="1920"
     inkscape:window-height="1026"
     id="namedview4"
     showgrid="false"
     inkscape:zoom="0.60368066"
     inkscape:cx="1353.0534"
     inkscape:cy="647.94191"
     inkscape:window-x="0"
     inkscape:window-y="27"
     inkscape:window-maximized="1"
     inkscape:current-layer="layer1" />
  <g
     inkscape:groupmode="layer"
     id="layer2"
     inkscape:label="artwork"
     sodipodi:insensitive="true">
    <image
       sodipodi:absref="/home/deevad/peppercarrot/webcomics/ep02_Rainbow-potions/lang/pt/../gfx_Pepper-and-Carrot_by-David-Revoy_E02P00.png"
       xlink:href="../gfx_Pepper-and-Carrot_by-David-Revoy_E02P00.png"
       y="0"
       x="-1.6728083e-06"
       id="image10"
       height="663"
       width="2481" />
  </g>
  <g
     inkscape:groupmode="layer"
     id="layer1"
     inkscape:label="text">
    <flowRoot
       xml:space="preserve"
       id="flowRoot3063"
       style="font-style:normal;font-variant:normal;font-weight:normal;font-stretch:normal;line-height:0.01%;font-family:Arial;-inkscape-font-specification:Arial;letter-spacing:0px;word-spacing:0px;display:inline;fill:#562f13;fill-opacity:1;stroke:none"
       transform="matrix(0.77923967,0,0,0.77489763,98.738031,206.47565)"><flowRegion
         id="flowRegion3065"><rect
           id="rect3067"
           width="2715.5891"
           height="110.01318"
           x="92.642677"
           y="425.30325"
           style="font-size:72px;fill:#562f13;fill-opacity:1" /></flowRegion><flowPara
         id="flowPara3069"
         style="font-style:normal;font-variant:normal;font-weight:normal;font-stretch:normal;font-size:88px;line-height:1.25;font-family:Lavi;-inkscape-font-specification:Lavi;text-align:center;text-anchor:middle;fill:#562f13;fill-opacity:1">Episódio 2 : Poções arco-íris</flowPara></flowRoot>    <path
       style="display:inline;fill:#562f13;fill-opacity:1;stroke:none"
       d="m 720.84712,502.03218 c -1.9589,-1.71995 -4.20925,-4.3795 -5.00077,-5.91013 l -1.43913,-2.78297 0,-4.06743 0,-4.06744 2.43797,-2.43795 2.43795,-2.43797 1.78333,-0.0316 c 0.98084,-0.0174 2.64507,-0.68353 3.69833,-1.48036 l 1.91503,-1.44879 0.74388,-5.22399 0.74388,-5.22408 0.0725,-22.66153 0.0725,-22.66152 -1.02818,-1.92118 -1.02819,-1.92118 -1.77125,0 c -0.9742,0 -4.14073,-0.70368 -7.03672,-1.56374 l -5.26543,-1.56362 -2.36416,-2.36422 -2.36416,-2.36409 0,-1.535 0,-1.535 5.71115,-0.0411 5.71114,-0.041 4.4696,-2.1939 4.46958,-2.19377 0.2838,-34.76351 0.28379,-34.76352 -1.17896,-4.29672 -1.17896,-4.29684 -2.08454,-1.35212 -2.08459,-1.35211 -8.69086,-0.69547 -8.69087,-0.69534 0,-1.18964 0,-1.18963 4.39291,-4.45597 4.39291,-4.45584 12.57102,-5.68205 12.57101,-5.68217 1.91303,0.60713 c 1.05218,0.33405 3.2515,1.73344 4.88743,3.10994 l 2.97436,2.50281 0,1.3306 c 0,0.73192 0.70236,2.03303 1.56082,2.89147 l 1.56079,1.56076 10.24699,0 10.247,0 8.61073,2.49535 c 4.73592,1.37239 10.76637,3.58768 13.40104,4.92276 2.63466,1.33507 8.34054,5.10253 12.67978,8.37222 l 7.88947,5.94494 2.72654,3.93443 2.72655,3.93442 1.42173,4.72408 1.42171,4.72395 0,6.70634 0,6.70634 -1.85889,5.97268 -1.8589,5.97268 -3.67426,6.57023 -3.67427,6.57024 -5.97371,6.38585 -5.97373,6.38598 -6.61979,4.87847 c -3.64087,2.68308 -8.85457,5.9845 -11.58599,7.33637 -2.73142,1.35199 -10.10624,4.15986 -16.3885,6.23992 -6.28225,2.07993 -12.42794,4.14655 -13.65708,4.59244 l -2.2348,0.81067 0,21.42113 0,21.42113 2.39757,2.39756 2.39757,2.39755 2.81695,0.59706 c 1.54933,0.32833 3.56795,1.00127 4.48584,1.49532 l 1.66887,0.89838 4.33102,-0.0871 c 2.38205,-0.0473 6.61282,0.22697 9.40169,0.61054 l 5.07068,0.69739 3.15563,-1.6319 3.15562,-1.6318 2.92477,0.64235 c 1.60863,0.35333 4.9282,0.64246 7.37683,0.64246 2.44864,0 4.45206,0.20902 4.45206,0.46456 0,0.25542 -1.61401,1.13886 -3.58671,1.96311 -3.619,1.5121 -11.40195,6.39691 -16.63144,10.43836 l -2.8364,2.19201 -6.46264,1.79203 -6.46264,1.79204 -4.60635,2.9287 -4.60636,2.92873 -7.44931,2.10441 c -4.09712,1.15745 -9.7234,2.75915 -12.50283,3.55935 l -5.0535,1.45483 -4.09943,0 -4.09942,0 -3.56165,-3.12717 z m 43.8662,-106.57422 8.79182,-4.41777 8.0065,-6.42765 8.0065,-6.42766 4.79624,-5.79141 4.79622,-5.79141 2.84006,-5.95949 2.84005,-5.95937 7.8e-4,-4.27072 7.9e-4,-4.27059 -1.45418,-2.8121 c -0.79982,-1.54657 -2.84084,-3.97884 -4.53565,-5.40486 l -3.08146,-2.59288 -5.64509,-1.69537 -5.64509,-1.69537 -8.44255,-0.0261 -8.44257,-0.0261 -5.48797,1.24052 -5.48798,1.24052 -3.2029,1.94781 -3.20289,1.9478 0,29.7625 0,29.7625 1.73817,1.01235 c 0.956,0.55687 2.25144,1.02603 2.87876,1.04258 0.62733,0.0162 5.09693,-1.95776 9.93244,-4.38754 z m 72.85596,108.13246 c -1.36571,-0.88299 -3.70335,-3.18656 -5.19477,-5.11905 l -2.71166,-3.51364 -0.61105,-3.25726 -0.61109,-3.25727 1.33625,-2.8159 1.33624,-2.8159 4.38882,-2.1061 4.38881,-2.10612 1.32233,-1.80839 1.32232,-1.80839 0,-27.49791 0,-27.49794 -5.21451,-0.58263 c -2.86798,-0.32036 -6.96565,-0.93608 -9.10592,-1.36816 l -3.8914,-0.78555 -0.31374,-0.98957 c -0.17256,-0.54431 0.0343,-1.53837 0.45994,-2.20908 l 0.77369,-1.21936 7.67794,-1.46895 c 4.22289,-0.80806 8.11359,-1.73829 8.64598,-2.06736 l 0.96802,-0.5983 0,-40.21702 0,-40.21703 -1.44931,-2.80264 -1.44932,-2.80265 -8.2348,-1.1696 c -4.52913,-0.64334 -9.6874,-1.39143 -11.46284,-1.66265 l -3.22802,-0.49292 0,-0.7751 c 0,-0.42636 1.00564,-1.69101 2.23479,-2.81035 2.43212,-2.21492 14.96627,-10.22996 15.99785,-10.22996 0.34994,0 4.61759,-1.79266 9.48367,-3.98382 l 8.84745,-3.98369 2.8227,1.07318 c 1.55246,0.59021 3.60571,1.78171 4.56272,2.64775 l 1.73992,1.57469 0,2.70996 0,2.70996 2.23482,0.59892 c 1.22921,0.32944 6.71339,0.60502 12.18726,0.61248 l 9.95235,0.0137 7.12633,1.9748 c 3.91945,1.08612 9.66841,3.099 12.77536,4.47313 l 5.64926,2.49834 6.57278,4.89078 c 3.61511,2.68993 8.2268,6.59922 10.24847,8.68724 l 3.67557,3.79658 2.204,4.96618 2.20387,4.96631 0.44447,7.50134 0.44449,7.50146 -2.90727,8.43431 -2.90714,8.43431 -3.82391,5.76093 c -2.10309,3.16854 -6.06432,8.21235 -8.8027,11.20846 l -4.97878,5.44766 -3.16755,-0.5942 -3.1674,-0.59432 -1.03556,1.2608 c -0.56957,0.69348 -1.1902,2.37392 -1.37926,3.7345 l -0.34343,2.47369 -4.88729,3.19331 -4.88742,3.1933 -12.32654,4.51369 -12.3266,4.51369 -2.15433,0.0149 c -1.18481,0.0124 -2.82467,0.4388 -3.6441,0.95661 l -1.48987,0.94131 0,21.3104 0,21.3104 2.36776,2.52122 2.36766,2.52135 5.15789,1.07082 5.15788,1.07069 9.8562,-0.0286 c 5.42086,-0.0162 12.45221,-0.0796 15.6254,-0.14221 l 5.76926,-0.11321 0.67855,0.67842 0.67854,0.67856 -1.97827,1.16033 c -1.08795,0.6382 -4.82197,2.3951 -8.29775,3.90421 l -6.31948,2.74389 -2.94423,2.47736 c -1.61922,1.36252 -3.51737,2.47732 -4.21793,2.47732 l -1.27378,0 -4.36118,3.8314 c -2.39856,2.10724 -6.27519,4.80548 -8.6146,5.99607 l -4.25354,2.1647 -9.65182,2.62371 -9.6519,2.62373 -4.96618,0.33763 -4.96627,0.33762 -2.4831,-1.60541 z m 40.50384,-107.15283 7.17422,-3.43815 7.19987,-5.34489 7.19972,-5.34489 6.95261,-7.37033 6.95276,-7.37046 2.78338,-5.74152 2.78339,-5.74152 0.50306,-4.67431 0.50308,-4.67431 -1.79647,-3.45108 -1.79675,-3.45096 -3.97292,-2.76333 -3.97293,-2.76333 -7.44937,-1.57606 -7.44936,-1.57594 -6.456,0.57603 c -3.55089,0.31676 -9.13782,1.26018 -12.41555,2.09636 l -5.95939,1.52044 -2.27792,2.57136 -2.27791,2.57149 0.29137,28.05108 0.29147,28.05108 1.36314,1.64063 1.36313,1.64075 1.64466,0 c 0.90446,0 4.8729,-1.54719 8.81871,-3.43814 z m 342.39118,77.00921 c -2.7316,-0.97353 -7.2413,-2.92345 -10.0219,-4.33317 l -5.0555,-2.56315 -3.1327,-3.56778 c -1.7229,-1.96224 -4.1262,-5.45487 -5.3408,-7.76136 l -2.2082,-4.1937 -0.032,-7.44934 -0.032,-7.44933 3.1357,-6.61863 3.1357,-6.61863 7.7073,-8.06717 7.7073,-8.06717 -2.7901,-5.83769 -2.7902,-5.83769 0.5958,-2.97944 0.5959,-2.97931 -1.4215,-1.1798 -1.4217,-1.17968 1.5418,-2.98118 1.5416,-2.98118 -2.2043,-2.34642 -2.2043,-2.3463 0.6299,-4.59506 0.6298,-4.59493 1.9783,-4.47239 1.9784,-4.47239 4.2239,-5.04505 4.2241,-5.04519 4.3603,-2.76519 4.3602,-2.7652 5.3793,-1.20382 5.3791,-1.20381 5.1712,1.63366 5.1712,1.63366 5.6702,3.55124 5.6701,3.55123 3.6182,5.95626 3.6184,5.95626 0.5081,3.78899 0.5084,3.78911 -2.1928,6.94745 -2.1926,6.94745 -3.816,4.85932 c -2.099,2.67263 -5.4569,7.31758 -7.4624,10.32214 -2.0054,3.00457 -4.9845,6.65061 -6.6201,8.10238 l -2.9738,2.63954 0.8457,1.44269 c 0.4652,0.79338 4.9155,5.76317 9.8895,11.04386 l 9.0441,9.60143 1.1861,-1.42938 1.1863,-1.42925 0.199,-2.81845 0.1989,-2.81832 -3.7197,-0.30804 -3.7197,-0.30792 -2.488,-3.26211 -2.4882,-3.26222 0,-2.0701 0,-2.07011 1.4229,-1.42278 1.4229,-1.42291 8.2611,-2.56825 c 4.5438,-1.41258 10.4961,-3.0761 13.2276,-3.6968 l 4.9661,-1.1283 11.9189,-0.39202 c 6.5554,-0.21548 14.2655,-0.65752 17.1335,-0.98224 l 5.2145,-0.59034 -5e-4,1.31293 -6e-4,1.31305 -7.0636,6.45615 c -3.885,3.55074 -8.4661,7.85156 -10.1803,9.55726 l -3.1164,3.10123 -4.845,0.70331 c -2.6647,0.3868 -5.4581,0.93869 -6.2077,1.22633 l -1.3629,0.52303 0,4.82261 0,4.82274 -2.1191,5.66388 -2.1193,5.66402 2.8538,2.07097 c 1.5697,1.139 4.6464,3.45034 6.8372,5.13638 l 3.9832,3.06553 -0.1844,1.40412 c -0.1007,0.77223 -0.8026,3.07672 -1.558,5.12095 l -1.3733,3.71708 -2.3398,2.49074 -2.3401,2.49074 -3.0548,0 -3.0549,0 -3.2522,-1.98289 c -1.7887,-1.08998 -3.8514,-1.98214 -4.584,-1.98214 -0.7325,0 -2.4682,-0.89403 -3.8574,-1.9865 -1.3888,-1.09259 -3.1252,-1.97505 -3.8585,-1.96112 -0.7332,0.0137 -3.7915,1.59485 -6.7961,3.51304 l -5.4628,3.48754 -9.3963,2.94311 -9.3964,2.94305 -5.0056,-0.0726 -5.0056,-0.0727 -4.9663,-1.77014 z m 24.1007,-24.0364 4.3667,-2.11378 0.4862,-1.26739 0.4864,-1.26739 -10.2505,-10.02157 -10.2504,-10.02156 -1.1993,0 -1.1992,0 -2.7737,3.65611 c -1.5256,2.01089 -4.2263,4.99841 -6.0018,6.63879 l -3.2281,2.98279 0,1.34316 0,1.34329 4.2212,4.30691 c 2.3218,2.36882 5.1153,4.79723 6.2079,5.39653 l 1.9865,1.08961 6.3908,0.0298 6.3907,0.0299 4.3666,-2.11389 z m -5.3134,-61.04396 7.6684,-6.54299 1.9153,-3.14104 1.9154,-3.14118 0,-3.15187 0,-3.15174 -2.463,-2.92718 -2.463,-2.92706 -2.9832,-1.23567 -2.9834,-1.23579 -3.433,0.64408 -3.4331,0.64396 -2.6934,3.1943 c -1.4815,1.75683 -3.2962,4.63251 -4.0328,6.39046 l -1.3399,3.19604 0,3.84708 0,3.84697 1.4066,4.67369 c 1.3969,4.64183 3.1431,7.56093 4.5229,7.56093 0.396,0 4.1709,-2.94435 8.3885,-6.54299 z m 176.167,58.19578 c -3.1241,-0.40074 -8.8477,-1.74701 -12.7191,-2.99188 l -7.0387,-2.26319 -5.8979,-3.58234 c -3.2437,-1.9702 -8.1835,-5.37015 -10.9771,-7.55521 l -5.0793,-3.97299 -5.7431,-6.75872 -5.7431,-6.7586 -3.0049,-5.65692 c -1.6525,-3.11119 -3.9182,-8.56208 -5.0348,-12.11294 -1.1166,-3.55086 -2.9787,-11.58643 -4.138,-17.85708 l -2.1079,-11.40093 0.4415,-4.49092 c 0.6378,-6.48788 3.4449,-20.8971 6.2112,-31.88262 2.7543,-10.93712 8.6449,-28.29182 11.5932,-34.15414 4.3917,-8.73315 15.4411,-26.27186 22.223,-35.27497 3.9346,-5.22297 10.2188,-12.63137 13.9652,-16.46291 3.7462,-3.83166 9.9386,-9.3307 13.7607,-12.22031 l 6.9492,-5.2537 8.236,-4.08111 8.2359,-4.08098 10.6391,-0.0672 10.6391,-0.0672 9.4358,3.80753 c 5.1897,2.09411 10.3297,3.88192 11.4224,3.97299 l 1.9864,0.16535 0.4967,-5.50775 0.4966,-5.50775 1.8427,-2.81098 1.8425,-2.81086 5.4647,0.64222 5.4645,0.64222 5.3682,2.53951 5.3682,2.53963 3.4648,3.2677 3.4647,3.2677 0,4.97315 c 0,2.73509 -0.2795,6.37043 -0.621,8.07849 l -0.6211,3.10547 -3.9177,4.45073 -3.9179,4.45087 0.6247,1.01048 0.6243,1.01048 1.8179,0 1.8178,0 2.2942,1.8576 2.294,1.85773 -1.1795,13.7858 c -1.3576,15.86671 -2.3762,23.44668 -4.4984,33.46874 -0.831,3.9241 -1.9436,9.36952 -2.4727,12.101 -0.5293,2.73136 -1.6979,8.2518 -2.5971,12.26772 l -1.6348,7.30153 -2.4656,4.86565 -2.4656,4.86566 -0.8606,0 -0.8608,0 -0.5988,-2.23483 c -0.3295,-1.22907 -0.605,-4.59568 -0.6125,-7.48118 l -0.014,-5.24636 -1.3422,-3.21221 -1.342,-3.21209 -0.7324,-12.85643 -0.7323,-12.85643 -4.256,-12.45533 -4.2561,-12.4552 -4.2772,-8.34024 -4.2771,-8.34026 -3.5687,-3.75141 -3.5686,-3.75142 -2.7519,-0.69061 -2.7519,-0.69062 -4.3502,1.66128 c -2.3926,0.91381 -7.178,3.52773 -10.6342,5.80871 l -6.2841,4.14729 -9.257,9.38321 -9.2572,9.38332 -7.3171,10.9992 -7.3173,10.99907 -6.9429,14.40202 c -7.4559,15.46661 -12.4501,28.25325 -16.5181,42.2911 l -2.5506,8.80145 -0.6151,7.47907 -0.615,7.47907 -2.325,2.7973 -2.3249,2.79742 1.4615,2.8264 c 0.8041,1.55442 2.7351,3.87135 4.2913,5.14857 l 2.8298,2.32217 2.6606,4.65962 2.6604,4.65963 4.7104,4.82311 4.71,4.82336 4.8125,2.32203 4.8125,2.32217 11.0794,-0.52055 11.0794,-0.52054 9.6183,-3.11567 c 5.2901,-1.71366 12.1882,-4.25242 15.3294,-5.64149 l 5.711,-2.5257 1.7648,0.46157 1.7648,0.46145 2.8525,-2.72601 2.8527,-2.72601 7.0038,-2.67636 7.004,-2.67637 1.8511,-2.04534 c 1.018,-1.12494 3.0182,-2.649 4.4449,-3.38676 l 2.5937,-1.3413 1.1783,-2.77826 1.1783,-2.77826 5.6219,-3.415 c 3.092,-1.87826 7.3009,-4.93209 9.3533,-6.78622 l 3.7315,-3.37121 3.942,-6.24178 3.9421,-6.24178 1.4854,-0.57006 1.4857,-0.57006 1.2153,1.46471 1.2157,1.46471 -1.1077,2.20086 c -0.6092,1.21053 -2.2054,6.75424 -3.5472,12.31947 l -2.4396,10.11848 -4.7939,8.75306 -4.7939,8.75318 -6.6386,6.64338 -6.6384,6.64352 -2.8498,1.47354 -2.8497,1.47354 -1.9147,-0.17106 -1.915,-0.17107 -2.7632,5.46284 -2.7631,5.46283 -10.6677,6.6465 -10.6674,6.6465 -8.9392,2.96849 -8.9393,2.96861 -7.7695,1.06236 c -8.5087,1.16338 -13.1284,1.17893 -21.7487,0.0734 z m -936.7701,-17.27682 -3.83663,-1.44182 -2.9587,-2.80998 -2.95872,-2.80999 -1.95037,-3.79259 -1.95035,-3.7926 -0.55763,-4.70815 -0.55763,-4.70827 2.3692,-2.75438 2.36919,-2.75437 6.22383,-0.73379 6.22383,-0.73391 1.69075,-1.69064 1.69072,-1.69077 0.50943,-9.15864 0.50944,-9.15876 2.97973,-0.50748 2.97973,-0.50748 0.30828,-2.66442 0.30828,-2.66455 -2.79137,-1.77748 c -1.53526,-0.97751 -3.11977,-2.2347 -3.52113,-2.79357 l -0.7297,-1.0162 -0.0153,-28.58692 -0.0152,-28.5868 1.24155,-0.38257 c 0.68285,-0.21026 2.42139,-0.63936 3.86342,-0.9535 l 2.62186,-0.57093 0.63078,-1.64387 0.6308,-1.64386 -1.26617,-1.69512 c -0.6964,-0.93235 -2.77073,-3.66047 -4.60965,-6.06239 l -3.34348,-4.36713 0.80294,-15.89198 c 0.4416,-8.74048 0.82876,-20.21444 0.86035,-25.49774 l 0.0573,-9.60591 -2.39839,-2.5512 -2.39838,-2.55109 -5.54756,-2.06848 -5.54752,-2.06849 -2.15453,-2.01237 -2.15453,-2.01238 -2.11519,-4.91691 -2.11519,-4.91679 -0.16271,-5.87066 -0.16273,-5.87054 2.32624,-2.47619 2.32623,-2.47618 8.56227,-3.12985 8.56227,-3.12985 15.39526,-2.87257 15.39526,-2.87256 17.87835,0.0212 17.87837,0.0212 9.55099,0.92949 9.55097,0.92936 8.16195,2.97881 c 4.48908,1.63827 10.92548,4.52415 14.30313,6.4131 3.37764,1.88884 8.16515,5.21588 10.63895,7.39335 l 4.49777,3.95919 6.30096,8.78577 6.30095,8.7859 4.76004,9.93249 4.76004,9.93236 1.66826,6.45615 1.66828,6.45602 0.0891,7.44934 0.0892,7.44932 -1.28654,5.46283 -1.2865,5.46284 -3.88301,7.94587 -3.88302,7.94599 -5.70688,6.63094 c -3.13877,3.64704 -7.94167,8.61533 -10.67308,11.04076 -2.73142,2.42542 -8.46699,6.92083 -12.74571,9.98971 l -7.7795,5.57991 -12.08535,5.84727 c -15.236,7.37158 -33.01517,14.48948 -41.38599,16.56891 -3.55085,0.88209 -8.11207,2.02893 -10.13604,2.54835 l -3.67996,0.94454 -1.53456,1.53451 -1.53455,1.53463 0,12.88629 0,12.88642 2.27824,2.27824 2.27827,2.27825 4.04881,0.64744 4.04883,0.64744 1.24385,1.4988 1.24387,1.49868 5.09288,0.0149 5.09292,0.0149 4.28726,1.49332 4.28725,1.4932 0.91998,-0.56856 c 0.86635,-0.53547 21.77462,-1.64723 28.24871,-1.50216 1.63885,0.0373 4.54409,0.0734 6.45607,0.0809 1.912,0.0124 4.08539,0.2324 4.82977,0.49914 l 1.35342,0.48509 -1.22672,1.47814 -1.22672,1.47815 -1.55128,0 c -0.85322,0 -3.59198,0.94952 -6.08616,2.11004 -2.49416,1.16065 -7.21662,3.35653 -10.49432,4.87996 -3.27769,1.52331 -8.64121,3.52673 -11.9189,4.45199 -3.2777,0.92513 -7.42725,2.30487 -9.22119,3.06602 l -3.26175,1.38385 -3.71828,0 -3.71828,0 -2.17221,1.52144 c -3.24741,2.27463 -9.59717,4.33043 -20.12113,6.51462 l -9.4358,1.95825 -11.9189,0.49629 -11.91891,0.49615 -3.83664,-1.44181 z m 74.22252,-110.54727 8.80488,-3.47945 4.29843,0.64459 4.29845,0.64458 1.59234,-2.43015 1.59233,-2.43028 -0.59819,-2.38338 -0.59821,-2.38337 1.96012,-1.774 1.96014,-1.77388 2.13259,1.14137 2.13259,1.14136 1.512,-1.25483 1.512,-1.25482 -0.55262,-2.76309 -0.55264,-2.7632 4.96143,-5.66961 c 6.198,-7.08282 11.1964,-14.5696 14.65432,-21.94976 l 2.67169,-5.70207 6.3e-4,-8.93918 6.5e-4,-8.93917 -2.64244,-5.63677 -2.64241,-5.63689 -4.06448,-4.40943 -4.06446,-4.40931 -5.79143,-2.59911 -5.79142,-2.59898 -7.62176,-1.13365 -7.62175,-1.13352 -9.6772,1.17421 c -5.32245,0.64595 -10.42274,1.38969 -11.33398,1.65282 l -1.65682,0.47837 -3.44052,-3.02087 -3.44054,-3.02074 -2.06872,0 -2.06874,0 -1.02818,1.92118 c -0.56549,1.05664 -1.02819,2.993 -1.02819,4.30319 l 0,2.382 -3.64679,2.40117 c -2.00575,1.32064 -4.52258,3.59192 -5.59297,5.04717 l -1.94619,2.64601 -0.81739,15.729 -0.81742,15.729 -0.0457,28.36583 -0.0457,28.36584 1.24155,1.56549 c 0.68287,0.86093 1.912,1.76666 2.73143,2.0125 l 1.48985,0.44714 11.4223,-2.41199 11.42229,-2.41199 8.80485,-3.47933 z m 93.4991,108.25546 c -1.63884,-0.21735 -5.36045,-1.06671 -8.27021,-1.88746 l -5.29049,-1.49233 -4.18835,-4.18835 -4.18835,-4.18836 -4.36285,-11.40528 -4.36283,-11.40541 -0.41453,-13.36989 -0.41451,-13.36976 1.17968,-7.31285 1.17968,-7.31273 2.39191,-7.03243 c 1.31554,-3.86799 3.99525,-9.94953 5.95488,-13.51457 4.26724,-7.76335 11.06292,-16.79447 17.53449,-23.30275 l 4.73549,-4.76227 8.23233,-3.9501 8.23237,-3.9501 5.06413,-0.59979 5.06413,-0.5998 5.15279,2.80451 5.15277,2.80451 5.27415,5.06758 5.27414,5.06758 2.47691,4.91641 2.47691,4.91654 1.11678,5.26341 1.11677,5.2634 -0.005,12.61495 -0.005,12.61495 -1.03699,3.734 -1.03697,3.73399 -2.18551,1.41818 -2.18553,1.41818 -6.95269,1.13689 c -6.97088,1.13974 -41.21474,9.64484 -48.66887,12.08769 l -3.97299,1.3021 -1.73121,3.53892 -1.73125,3.53892 1.68413,4.40694 c 0.92628,2.42394 2.72686,6.09933 4.00123,8.1677 l 2.31707,3.76062 3.19285,2.01374 3.19287,2.01362 6.04852,-0.43258 6.04855,-0.43271 6.36698,-2.80799 c 3.50185,-1.54434 11.72798,-6.01523 18.2803,-9.93523 l 11.91331,-7.12723 1.35327,0.5193 1.35326,0.5193 -0.53105,3.2723 c -0.29204,1.79976 -1.43207,5.30931 -2.53335,7.79894 l -2.00233,4.52663 -2.46802,0 -2.468,0 -1.62738,1.62732 -1.62736,1.62744 0.15866,4.08372 c 0.0873,2.24615 0.1172,4.56831 0.0666,5.16064 l -0.0921,1.07679 -8.71901,4.14356 -8.71901,4.14344 -6.92455,1.46683 c -6.85809,1.45277 -9.0957,1.57432 -14.8705,0.80843 z m 9.49388,-73.29163 16.33043,-3.67254 4.13634,-1.801 4.13632,-1.801 1.0782,-2.01461 1.07817,-2.01462 0,-10.47418 0,-10.4743 -1.60132,-4.00211 -1.60133,-4.00211 -2.34569,-0.58872 -2.34569,-0.58872 -4.48361,2.17051 -4.48361,2.17038 -7.42126,6.93065 c -4.08171,3.81188 -8.94533,9.02639 -10.80805,11.5878 -1.86272,2.56141 -5.2809,8.30952 -7.59596,12.77358 l -4.20922,8.11655 0.70378,1.13863 0.70376,1.13875 1.19915,-0.46008 c 0.65955,-0.25318 8.54785,-2.1129 17.52959,-4.13286 z m 314.68281,71.62002 c -1.9763,-0.70629 -5.22073,-2.28994 -7.20972,-3.51926 l -3.61655,-2.23507 -2.48527,-4.24086 c -1.36692,-2.33236 -4.1565,-8.88617 -6.19897,-14.56387 l -3.71373,-10.32302 0.0927,-15.89185 0.0927,-15.89198 2.15214,-7.94587 2.15199,-7.94599 4.02704,-8.44252 4.02724,-8.44252 5.37985,-7.03927 c 2.95891,-3.87159 7.85443,-9.37959 10.87877,-12.23984 l 5.4988,-5.2007 7.48068,-3.45618 7.48069,-3.45631 4.83476,-0.57267 4.8351,-0.57255 4.3038,2.10133 4.3039,2.10145 6.1664,5.51907 6.1665,5.51908 3.2694,6.63555 3.2693,6.63555 0.3219,17.40794 0.3218,17.40808 -1.0224,2.67935 -1.0225,2.67947 -2.2791,1.47877 -2.2791,1.47877 -8.9697,1.54571 c -4.9333,0.85011 -17.4481,3.80304 -27.8108,6.56202 l -18.84105,5.01644 -4.46965,2.1919 -4.46965,2.19178 0.16708,6.12895 0.16684,6.12894 2.02693,4.58199 2.02681,4.582 3.48542,1.45625 3.48555,1.45637 7.23273,-0.0174 7.23298,-0.0174 8.3767,-3.39697 8.37661,-3.39696 1.8867,1.00973 1.8867,1.00974 1.8146,-1.64225 c 0.9979,-0.90311 2.0621,-2.61478 2.3649,-3.8038 l 0.5507,-2.16167 6.2485,-4.22132 6.2489,-4.2212 1.8276,0 1.8276,0 2.8411,-2.02307 c 1.5625,-1.11262 4.9092,-2.93776 7.4369,-4.05598 l 4.5958,-2.0329 0.5193,0.5193 0.5192,0.51929 -1.6648,4.35918 -1.6648,4.35929 -3.8728,5.11685 c -2.1301,2.81434 -4.7649,6.86546 -5.8552,9.00262 l -1.9823,3.88579 -5.0262,4.39674 -5.0259,4.39662 -9.1622,4.61123 -9.1621,4.61123 -4.72697,1.24015 -4.72668,1.24002 -1.53725,-2.19476 -1.53736,-2.19489 -2.675,0 -2.67512,0 -3.97312,2.44707 c -2.18519,1.3459 -4.64333,2.44135 -5.46271,2.43438 -0.81951,-0.0124 -3.10684,-0.59046 -5.08313,-1.29663 z m 16.0088,-71.19565 c 7.37493,-1.63354 16.20699,-3.89064 19.62689,-5.0157 l 6.2179,-2.04559 1.0967,-2.04896 1.0965,-2.04907 0.1348,-11.52373 0.1346,-11.5236 -2.0669,-3.47634 -2.0669,-3.47634 -3.4782,0.0983 -3.4783,0.0983 -6.10579,4.14656 -6.10618,4.14655 -2.35973,-0.59233 -2.35986,-0.59221 -1.63342,1.63354 -1.63366,1.63354 0.6085,2.42406 0.60838,2.42405 -3.93828,5.2017 c -2.16615,2.86099 -5.79179,8.60898 -8.05697,12.77332 l -4.11843,7.57164 0,2.22835 0,2.22836 2.23482,-0.64732 c 1.2292,-0.35595 8.26872,-1.98389 15.64353,-3.61743 z m 617.07169,71.86848 -2.215,-0.42786 -2.0064,-2.55058 -2.0062,-2.55046 0,-1.73095 0,-1.73096 -1.4027,-1.16413 -1.4027,-1.16413 -6.0193,2.53354 c -3.3105,1.39342 -9.4956,3.68113 -13.7442,5.08388 l -7.725,2.55033 -9.0187,0.56409 -9.0189,0.56409 -5.2701,-1.75036 -5.27,-1.75049 -3.8322,-3.46203 -3.8321,-3.46216 -1.4956,-5.03598 -1.4956,-5.0361 0,-4.74074 0,-4.74075 2.4065,-6.62958 2.4064,-6.6297 3.7175,-5.39752 3.7174,-5.3974 5.5467,-4.00459 5.547,-4.00447 11.9187,-5.80647 11.9189,-5.80646 8.7497,-2.18158 8.7497,-2.18157 2.0859,-1.68903 2.0856,-1.68903 -1.0966,-9.65305 -1.0964,-9.65293 -1.7929,-3.66831 -1.7931,-3.66819 -7.9459,-0.27968 -7.946,-0.27968 -7.9459,3.86252 -7.9459,3.86252 -7.4494,5.52716 c -4.0971,3.03989 -8.02,6.1206 -8.7176,6.84618 -0.6977,0.72545 -2.3426,2.65994 -3.6556,4.29883 l -2.3873,2.97968 -1.1945,-1.17508 -1.1944,-1.1752 2.6802,-6.77079 c 1.474,-3.72392 4.1036,-9.16386 5.8433,-12.08868 l 3.1632,-5.31777 5.834,-4.89315 c 3.2089,-2.6913 7.6932,-5.98251 9.965,-7.31397 2.2719,-1.33134 6.1276,-3.13135 8.5679,-3.99975 l 4.437,-1.57892 7.1481,-0.0398 7.148,-0.0398 5.3128,2.43227 5.3129,2.43239 3.6391,3.19516 3.6393,3.1953 2.4094,5.14682 2.4094,5.14696 1.1293,5.36741 1.1294,5.36741 0.9562,14.00078 c 0.5259,7.7004 0.963,17.9117 0.9709,22.69163 l 0.015,8.69085 0.9347,0 c 0.5139,0 1.2106,-0.44689 1.5484,-0.99319 l 0.6137,-0.99331 2.0521,0 2.0519,0 -0.6444,3.22814 c -0.3546,1.77537 -1.9747,6.07171 -3.6006,9.5473 l -2.9558,6.3193 0,1.8749 0,1.87502 1.048,0 c 0.5763,0 3.5934,-1.30546 6.7045,-2.90093 8.3366,-4.27557 14.5695,-7.03156 15.9022,-7.03156 l 1.1763,0 0,0.92302 c 0,0.50773 -1.8188,3.66109 -4.0414,7.00767 l -4.0416,6.08453 -0.7655,4.84276 -0.7656,4.84264 -1.6093,2.45603 -1.6093,2.45616 -5.2543,2.98254 -5.2542,2.98255 -5.3948,1.58265 c -2.967,0.87052 -5.6488,1.52182 -5.9595,1.44742 -0.3106,-0.0747 -1.5614,-0.32783 -2.7796,-0.56309 z m -35.522,-22.61288 7.6304,-1.45986 5.6175,-2.56203 c 3.0895,-1.40909 7.2955,-3.71956 9.3465,-5.13426 l 3.7289,-2.57223 1.9821,-3.20711 1.9822,-3.20724 0,-4.14916 0,-4.14929 -2.4379,-2.43786 -2.4381,-2.43799 -1.9104,0 -1.9105,0 -1.4928,-2.23483 -1.4929,-2.2347 -1.9006,1.70744 -1.9006,1.70744 -6.7229,2.07645 -6.7229,2.07657 -3.6618,3.23672 c -2.014,1.7801 -5.7684,4.72258 -8.3432,6.53876 l -4.6812,3.30216 -2.4205,3.58259 c -1.3311,1.97044 -2.7256,4.61011 -3.0987,5.86605 l -0.6785,2.28335 1.5953,2.43451 1.5952,2.4345 5.3526,0 5.3526,0 7.6302,-1.45998 z m -503.4123,17.95002 -3.6443,-3.6443 -2.483,-4.89999 -2.4832,-4.9 0,-2.45752 0,-2.45753 1.2368,-0.76426 1.2365,-0.76427 8.4475,-0.0398 8.4475,-0.0398 0.5981,-19.86485 0.5979,-19.86485 1.2194,-5.20008 1.2194,-5.20008 -0.3275,-12.84959 -0.3276,-12.84959 -2.1997,-2.33846 -2.1998,-2.33846 0.5743,-2.19601 0.5742,-2.19613 -1.6696,-0.6406 -1.6695,-0.64073 -2.1677,1.14087 -2.1677,1.14074 -4.9663,-1.89941 -4.9662,-1.89929 -0.3383,-1.68118 -0.3381,-1.68119 2.205,-2.34705 2.2049,-2.34717 8.5623,-3.1459 8.5622,-3.1459 5.5252,-0.11694 5.5249,-0.11695 2.7521,1.80323 2.7522,1.80324 1.407,3.36723 1.4068,3.36723 0,4.99803 0,4.99816 1.2415,-5e-4 1.2417,-6.2e-4 5.6803,-6.35202 5.6802,-6.35189 4.3175,-2.09001 4.3173,-2.09013 4.5714,0 c 2.5143,0 5.3126,0.28453 6.2186,0.63214 l 1.6472,0.63214 0.8926,2.34755 0.8926,2.34766 2.8185,0 2.8184,0 2.546,2.73148 2.546,2.73136 4.096,8.47748 4.0958,8.47748 -0.057,1.95154 c -0.031,1.07343 -0.8542,5.00823 -1.8283,8.74422 l -1.7706,6.79256 -4.3798,1.95689 -4.3796,1.95676 -2.6389,2.52172 -2.6391,2.52185 -5.9293,-2.66094 -5.9291,-2.66082 -1.0785,-2.36707 -1.0784,-2.36708 0.8229,-0.50872 0.823,-0.5086 1.7766,1.96298 1.7765,1.96311 2.6361,0 2.6358,0 1.6269,-1.24151 1.6267,-1.24164 1.5284,-4.46953 c 0.8406,-2.45827 1.5348,-5.27211 1.5428,-6.25298 l 0.015,-1.78333 -2.4831,-2.48303 c -1.3657,-1.36568 -2.483,-2.83188 -2.483,-3.25812 0,-0.42624 -1.0345,-1.74675 -2.2989,-2.93452 l -2.2989,-2.15968 -5.4261,0 -5.4261,0 -2.2293,1.5615 -2.2294,1.56151 -2.8196,5.6395 c -1.5508,3.10173 -3.5403,7.8742 -4.4211,10.60568 -0.8809,2.73136 -2.7437,11.66095 -4.1397,19.84333 l -2.5384,14.87714 -0.1,7.69779 -0.1,7.69778 1.702,2.59737 1.7017,2.59736 4.2686,1.88821 4.2685,1.88809 0.5404,2.06625 0.5403,2.06612 2.0372,-1.09023 2.0372,-1.09023 1.948,1.21663 1.948,1.21651 2.468,-1.32077 2.4678,-1.32076 2.808,0.70094 c 1.5443,0.38543 3.4784,1.27648 4.2979,1.9799 0.8194,0.70356 2.7281,1.57345 4.2416,1.93313 l 2.7519,0.65416 2.0727,-1.10939 2.0727,-1.10926 0.9504,0.95051 0.9505,0.95039 -1.7018,1.70184 -1.7017,1.70172 -2.0135,-0.52652 -2.0134,-0.52651 -2.5565,1.37575 c -3.8845,2.09064 -11.9999,4.48931 -15.1884,4.48931 l -2.8423,0 -4.1819,2.16453 -4.1815,2.16441 -10.9258,0.73565 c -6.009,0.40447 -15.208,1.05552 -20.4418,1.44655 l -9.5162,0.71114 -3.6444,-3.64442 z m 576.3134,0.7517 c -1.4185,-1.56188 -3.318,-3.94488 -4.2213,-5.2955 l -1.6422,-2.45579 0,-2.75872 0,-2.75873 1.9473,-1.94743 1.9474,-1.94731 5.5007,-1.59908 5.5005,-1.59907 0.5662,-2.2561 0.5663,-2.2561 -0.3165,-35.66539 -0.3167,-35.66526 -2.0403,-3.47298 -2.04,-3.47298 -3.4227,-2.30661 -3.4227,-2.30648 0,-1.17322 0,-1.17321 9.4358,-3.20275 c 5.1898,-1.76144 10.3298,-3.21408 11.4225,-3.22802 l 1.9865,-0.0249 2.5737,3.22801 2.5736,3.22789 1.271,3.973 c 0.699,2.18518 1.6491,4.38281 2.1113,4.88369 l 0.8405,0.9107 7.2339,-7.51378 7.2337,-7.51365 4.2214,-1.13291 4.2212,-1.1329 3.7465,1.00887 3.7463,1.00873 4.2146,3.09937 4.2144,3.09937 2.3708,4.12441 c 1.3039,2.26841 2.665,5.53748 3.0243,7.26458 l 0.6538,3.14017 -1.1197,6.29566 c -0.616,3.46253 -2.2477,10.02691 -3.626,14.58751 l -2.5061,8.29198 -5.8746,6.0222 -5.8745,6.02232 -0.6103,-0.61012 -0.61,-0.61012 1.6993,-6.93427 1.6993,-6.93426 -0.5651,-10.1741 -0.5652,-10.17409 -1.0025,-1.00252 -1.0026,-1.00264 -5.5154,1.73866 -5.5156,1.73855 -3.0586,4.15812 c -1.6824,2.28695 -3.6761,5.59683 -4.4306,7.3554 l -1.3719,3.19741 -2.4826,16.35666 -2.4825,16.35666 0,6.07121 0,6.07134 1.453,2.80998 c 0.7994,1.54558 2.0286,3.02497 2.7315,3.28761 0.7032,0.26264 6.6418,0.158 13.1972,-0.2324 l 11.9189,-0.70978 0.8978,0.80346 0.8977,0.80346 -2.723,3.57027 c -1.4978,1.9636 -4.1713,4.51941 -5.9414,5.67969 l -3.2181,2.10954 -2.1472,3.27566 -2.1473,3.27566 -2.5975,1.70197 -2.5977,1.70209 -9.5799,0.71873 c -5.2689,0.39538 -13.826,1.03237 -19.0157,1.41569 l -9.4358,0.69696 -2.5791,-2.83972 z m 84.8394,1.00426 c -1.1909,-1.02168 -3.314,-3.59603 -4.7178,-5.72075 l -2.5526,-3.86326 0,-1.92429 0,-1.92429 2.7827,-2.78274 2.7828,-2.78274 4.1127,-0.69484 4.1128,-0.69485 0.9587,-1.164 0.9589,-1.16389 0.2116,-34.76339 0.2118,-34.76352 -0.992,-4.75368 -0.9916,-4.75368 -1.749,-1.93263 -1.7489,-1.93263 -5.0771,-1.89119 -5.0768,-1.89133 -0.2709,-1.35485 -0.2709,-1.35485 12.5933,-2.24727 12.5936,-2.24727 2.5759,1.63839 c 1.4168,0.901 3.566,2.80626 4.7755,4.23377 l 2.1992,2.59537 0.6428,3.22801 0.6427,3.22801 1.131,-0.0124 1.131,-0.0124 4.6671,-5.85362 4.6675,-5.85349 5.4602,-2.67151 5.4604,-2.67139 3.2811,0.70679 c 1.8046,0.38879 4.6221,1.37438 6.2608,2.19041 3.8241,1.90401 8.257,6.0253 9.9364,9.23789 l 1.3164,2.51811 -1.4177,12.87709 -1.4177,12.87708 -2.9415,4.46965 c -1.6177,2.45827 -3.7062,5.92217 -4.6409,7.69754 l -1.6993,3.22814 -1.6081,0 -1.6079,0 -0.096,-8.19432 -0.097,-8.19419 -1.6889,-4.20229 -1.6886,-4.20216 -3.2451,-2.00554 -3.2453,-2.00553 -2.4917,0 -2.4919,0 -1.9867,4.71785 c -1.0926,2.59488 -2.6862,6.95268 -3.5413,9.68416 -1.6864,5.38658 -5.1467,26.49642 -6.2078,37.87172 l -0.6608,7.08132 1.1605,3.51665 c 0.6384,1.93412 1.6965,3.95434 2.3514,4.48956 l 1.1908,0.97278 5.4628,-0.97738 c 3.0046,-0.53772 8.1447,-1.09807 11.4223,-1.2455 3.2777,-0.1473 6.6964,-0.58698 7.5972,-0.97689 l 1.6376,-0.70903 0.7032,1.13776 0.7032,1.13775 -6.5293,6.27724 -6.5294,6.27737 -1.5517,3.87794 -1.5516,3.87795 -3.1792,1.87801 -3.1794,1.87801 -9.4556,0.70168 c -5.2004,0.38593 -13.4781,1.02405 -18.3947,1.41806 l -8.9391,0.71637 -2.1654,-1.85748 z m 112.9119,0.0846 -5.4629,-1.50017 -5.2781,-3.61344 -5.2778,-3.61357 -3.8941,-4.55313 -3.8939,-4.55326 -2.8942,-5.95949 -2.8942,-5.95937 -1.0943,-5.26352 -1.0942,-5.26341 0.02,-9.13861 0.02,-9.13848 0.9659,-6.67798 0.9657,-6.67797 2.1329,-6.2342 c 2.8073,-8.20551 7.3607,-17.25131 11.0235,-21.89937 l 2.9519,-3.74619 6.2296,-4.44526 c 3.4263,-2.44496 8.6721,-5.56349 11.6574,-6.93016 l 5.4277,-2.4849 7.3621,-0.60016 7.3622,-0.60005 6.9305,1.63056 6.9305,1.63055 4.1497,2.43177 4.1494,2.43177 3.071,3.87732 3.0708,3.87732 3.4478,7.30987 c 1.8962,4.0204 4.1592,9.99146 5.0293,13.26923 l 1.5815,5.9595 0.5551,9.4357 0.5552,9.43584 -1.607,8.44252 c -0.8838,4.64345 -2.0653,10.08078 -2.6254,12.08296 l -1.0184,3.64031 -3.453,2.03738 -3.4529,2.03726 0,1.53675 c 0,0.84538 0.5513,2.4197 1.2251,3.49873 l 1.2253,1.96174 -1.9701,3.67229 c -1.0835,2.01971 -4.0531,5.95464 -6.5992,8.74422 l -4.6292,5.07193 -5.3033,2.92781 -5.3032,2.9278 -12.4157,0.24086 -12.4155,0.24087 -5.4627,-1.50017 z m 23.7945,-20.56505 5.4779,-1.24151 3.8006,-3.78638 3.8005,-3.7865 1.9305,-4.50398 1.9307,-4.50387 1.0946,-7.05494 1.0947,-7.05483 -0.6607,-13.95537 c -0.3633,-7.67551 -0.6421,-16.03169 -0.6194,-18.56946 l 0.04,-4.61397 -2.683,-1.75783 c -1.4755,-0.96681 -5.0615,-3.6953 -7.9687,-6.06337 l -5.2858,-4.30555 -3.2575,0 -3.2575,0 -5.0993,1.51435 -5.0996,1.51435 -3.1991,2.69217 -3.1995,2.69216 -3.7778,5.84478 -3.7777,5.84479 -0.606,3.60573 c -0.3333,1.98326 -0.8143,4.36825 -1.0688,5.29998 -0.2546,0.93172 -2.2269,3.8288 -4.383,6.43786 l -3.9198,4.74373 0,1.53562 0,1.53575 1.8329,1.56959 1.8332,1.56959 0.6823,5.8056 0.6824,5.80559 4.2938,9.06421 4.2938,9.06434 2.9111,2.07284 c 3.4359,2.44657 8.4459,4.01193 13.2385,4.13647 1.896,0.0498 5.9123,-0.46904 8.925,-1.15194 z m 88.6602,19.53939 -5.1378,-2.56029 -2.554,-3.03517 c -1.4046,-1.66937 -3.3858,-4.66573 -4.4025,-6.65869 l -1.8486,-3.62352 -1.0838,-5.86208 -1.0835,-5.86208 -0.07,-26.38681 -0.07,-26.38681 -0.7767,-1.9865 -0.7767,-1.98649 -7.1681,0 -7.1679,0 -3.9044,-4.18276 -3.9045,-4.18288 0,-2.53503 0,-2.53503 -1.1499,-1.84143 -1.1498,-1.84144 0.5413,-1.41096 0.5413,-1.41109 5.8597,-3.0715 5.8596,-3.0715 5.7311,-1.28257 5.731,-1.28245 1.1852,-2.06413 1.1852,-2.06413 -0.2548,-20.19056 -0.255,-20.19055 -1.0556,-1.97256 -1.0556,-1.97257 1.1837,-1.42639 1.1838,-1.42639 1.9832,0 1.9834,0 5.812,3.53071 5.8121,3.53058 2.0906,2.93614 2.0908,2.936 0.5781,15.04486 0.5783,15.04473 1.8449,1.84479 1.8447,1.84479 2.7163,-0.65267 c 1.494,-0.35893 4.2806,-1.42689 6.1925,-2.37317 l 3.4764,-1.72051 7.8027,-0.71624 7.8027,-0.71624 3.6196,-1.54235 3.6195,-1.54234 5.2039,-0.10078 5.2038,-0.10077 0.4867,1.26888 0.4867,1.26901 -1.7175,1.40002 c -0.9447,0.76999 -3.814,3.10422 -6.3763,5.18714 -2.5623,2.08292 -8.4498,7.17376 -13.0837,11.31297 l -8.4249,7.52572 -8.7677,3.31572 c -4.8221,1.82365 -9.4381,3.92746 -10.2576,4.67518 l -1.4897,1.35959 -0.3199,27.52867 -0.3201,27.52867 0.6437,5.24685 0.644,5.24698 2.3047,2.67948 2.3048,2.6796 3.0531,-1.47043 3.0528,-1.47044 11.3055,-11.06066 c 6.2179,-6.08328 12.2744,-11.57921 13.4588,-12.21309 l 2.1534,-1.15256 0.8479,0.52415 0.8479,0.52402 -0.8028,4.23974 c -0.4418,2.33187 -1.5167,5.93448 -2.389,8.00583 l -1.586,3.76597 -3.0825,2.75438 -3.0826,2.75424 1.1494,2.14786 1.1495,2.14787 -1.5595,3.74743 -1.5598,3.74731 -4.1742,4.34474 c -2.2959,2.38959 -6.1614,5.63005 -8.5902,7.20101 l -4.4157,2.85626 -5.5699,0 -5.5698,0 -5.138,-2.56041 z"
       id="path4376"
       inkscape:connector-curvature="0" />
  </g>
</svg>
