<?xml version="1.0" encoding="UTF-8" standalone="no"?>
<!-- Created with Inkscape (http://www.inkscape.org/) -->

<svg
   xmlns:dc="http://purl.org/dc/elements/1.1/"
   xmlns:cc="http://creativecommons.org/ns#"
   xmlns:rdf="http://www.w3.org/1999/02/22-rdf-syntax-ns#"
   xmlns:svg="http://www.w3.org/2000/svg"
   xmlns="http://www.w3.org/2000/svg"
   xmlns:xlink="http://www.w3.org/1999/xlink"
   xmlns:sodipodi="http://sodipodi.sourceforge.net/DTD/sodipodi-0.dtd"
   xmlns:inkscape="http://www.inkscape.org/namespaces/inkscape"
   id="svg2"
   version="1.1"
   inkscape:version="0.91 r13725"
   width="2481"
   height="663"
   sodipodi:docname="Pepper-and-Carrot_by-David-Revoy_E02P00.svg">
  <metadata
     id="metadata8">
    <rdf:RDF>
      <cc:Work
         rdf:about="">
        <dc:format>image/svg+xml</dc:format>
        <dc:type
           rdf:resource="http://purl.org/dc/dcmitype/StillImage" />
        <dc:title />
      </cc:Work>
    </rdf:RDF>
  </metadata>
  <defs
     id="defs6" />
  <sodipodi:namedview
     pagecolor="#ffffff"
     bordercolor="#666666"
     borderopacity="1"
     objecttolerance="10"
     gridtolerance="10"
     guidetolerance="10"
     inkscape:pageopacity="0"
     inkscape:pageshadow="2"
     inkscape:window-width="1358"
     inkscape:window-height="694"
     id="namedview4"
     showgrid="false"
     inkscape:zoom="0.59209996"
     inkscape:cx="1210.9442"
     inkscape:cy="331.5"
     inkscape:window-x="0"
     inkscape:window-y="41"
     inkscape:window-maximized="0"
     inkscape:current-layer="layer1" />
  <g
     inkscape:groupmode="layer"
     id="layer2"
     inkscape:label="artwork"
     sodipodi:insensitive="true">
    <image
       sodipodi:absref="/home/erwhann/Documents/Traduction/Pepper et Carrot/peppercarrot_ep02_translation/kt/../gfx_Pepper-and-Carrot_by-David-Revoy_E02P00.png"
       xlink:href="../gfx_Pepper-and-Carrot_by-David-Revoy_E02P00.png"
       y="0"
       x="-1.6728083e-06"
       id="image10"
       height="663"
       width="2481" />
  </g>
  <g
     inkscape:groupmode="layer"
     id="layer1"
     inkscape:label="text">
    <path
       style="display:inline;fill:#562f13;fill-opacity:1;stroke:none"
       d="m 721.06206,506.57707 c -1.96428,-1.72468 -4.22079,-4.39153 -5.01449,-5.92636 l -1.44307,-2.7906 0,-4.0786 0,-4.0786 2.44465,-2.44465 2.44464,-2.44466 1.78823,-0.0317 c 0.98352,-0.0175 2.65233,-0.68542 3.70849,-1.48443 l 1.92028,-1.45276 0.74593,-5.23838 0.74592,-5.2383 0.0727,-22.72384 0.0727,-22.72372 -1.03101,-1.92646 -1.03102,-1.92645 -1.77611,0 c -0.97687,0 -4.15208,-0.70561 -7.05603,-1.56791 l -5.27988,-1.56804 -2.37063,-2.37058 -2.37065,-2.3707 0,-1.53922 0,-1.53921 5.72681,-0.0412 5.72683,-0.0412 4.48185,-2.19979 4.48186,-2.19991 0.28456,-34.85894 0.28458,-34.8588 -1.18218,-4.30864 -1.18221,-4.30863 -2.09027,-1.35583 -2.09029,-1.3557 -8.71473,-0.69738 -8.71471,-0.69737 0,-1.1929 0,-1.1929 4.40496,-4.46807 4.40497,-4.46807 12.60551,-5.69777 12.60553,-5.69778 1.91828,0.60893 c 1.05506,0.33484 3.26042,1.7382 4.90083,3.11848 l 2.98252,2.50955 0,1.33437 c 0,0.73381 0.7043,2.03849 1.5651,2.89929 l 1.56509,1.56517 10.27511,0 10.27512,0 8.63436,2.50207 c 4.74892,1.37616 10.79593,3.59753 13.43783,4.93627 2.64188,1.33874 8.36342,5.11667 12.71457,8.39533 l 7.91112,5.96113 2.73404,3.94522 2.73403,3.94523 1.42562,4.73704 1.42563,4.73704 0,6.72475 0,6.72474 -1.864,5.98908 -1.864,5.98907 -3.68435,6.58827 -3.68435,6.58814 -5.99011,6.4035 -5.99012,6.40339 -6.63795,4.89186 c -3.65088,2.69057 -8.87889,6.00104 -11.61779,7.35662 -2.73893,1.35558 -10.13399,4.17116 -16.43349,6.25692 -6.2995,2.08577 -12.46206,4.15806 -13.69456,4.60505 l -2.24093,0.8129 0,21.47992 0,21.47992 2.40414,2.40414 2.40415,2.40414 2.82469,0.59869 c 1.55358,0.32923 3.57773,1.00402 4.49814,1.49955 l 1.67347,0.9008 4.34289,-0.0872 c 2.38861,-0.0478 6.63097,0.22753 9.4275,0.61216 l 5.08459,0.6993 3.16429,-1.63633 3.1643,-1.63637 2.9328,0.64423 c 1.61303,0.3543 4.94172,0.6441 7.39706,0.6441 2.45536,0 4.46429,0.20964 4.46429,0.46584 0,0.25618 -1.61845,1.14203 -3.59655,1.96854 -3.62895,1.51625 -11.43325,6.41447 -16.67709,10.46701 l -2.84419,2.19803 -6.48038,1.79695 -6.48038,1.79696 -4.619,2.93674 -4.61899,2.93675 -7.46976,2.1102 c -4.10837,1.16063 -9.75009,2.76672 -12.53713,3.56912 l -5.06738,1.45882 -4.11069,0 -4.11067,0 -3.57141,-3.13576 z m 43.9866,-106.86678 8.81596,-4.42977 8.02848,-6.4453 8.02847,-6.4453 4.80939,-5.80731 4.80939,-5.80743 2.84786,-5.97572 2.84784,-5.97585 7.9e-4,-4.28231 7.8e-4,-4.28231 -1.45818,-2.81982 c -0.802,-1.55095 -2.84863,-3.98976 -4.5481,-5.41982 l -3.08989,-2.6 -5.6606,-1.70003 -5.66058,-1.6999 -8.46573,-0.0262 -8.46573,-0.0262 -5.50304,1.24379 -5.50305,1.24393 -3.21168,1.95315 -3.21167,1.95315 0,29.84419 0,29.84419 1.74294,1.01525 c 0.95861,0.55827 2.2576,1.02872 2.88665,1.04544 0.62905,0.0162 5.11091,-1.96314 9.9597,-4.39958 z m 73.05592,108.42928 c -1.36945,-0.8854 -3.71351,-3.1953 -5.20903,-5.13309 l -2.7191,-3.52329 -0.61273,-3.2662 -0.61275,-3.26621 1.33992,-2.82362 1.33989,-2.82364 4.40087,-2.11187 4.40086,-2.1119 1.32597,-1.81336 1.32595,-1.81335 0,-27.57344 0,-27.57341 -5.22884,-0.5841 c -2.87585,-0.32136 -6.98477,-0.93865 -9.13092,-1.37192 l -3.90207,-0.7877 -0.3146,-0.99242 c -0.17303,-0.5458 0.0345,-1.54258 0.46121,-2.21513 l 0.7758,-1.22259 7.69903,-1.4731 c 4.23446,-0.81015 8.13584,-1.74306 8.6697,-2.07304 l 0.97069,-0.59982 0,-40.3274 0,-40.3274 -1.45329,-2.81034 -1.45331,-2.81046 -8.2574,-1.17282 c -4.54157,-0.64498 -9.714,-1.39525 -11.49429,-1.66709 l -3.2369,-0.4944 0,-0.77722 c 0,-0.4274 1.00842,-1.69553 2.24093,-2.81794 2.4388,-2.221 15.00736,-10.25816 16.04177,-10.25816 0.35088,0 4.63025,-1.79759 9.50969,-3.99463 l 8.87172,-3.99475 2.83045,1.07613 c 1.55673,0.59183 3.61561,1.78672 4.57525,2.65514 l 1.74471,1.57901 0,2.7174 0,2.71727 2.24095,0.60056 c 1.23257,0.33035 6.73181,0.60668 12.2207,0.61417 l 9.97967,0.0137 7.14588,1.98022 c 3.93021,1.08911 9.69496,3.10763 12.81042,4.48541 l 5.66478,2.50519 6.59081,4.90421 c 3.62503,2.69731 8.24939,6.61734 10.2766,8.71121 l 3.68566,3.807 2.21005,4.97981 2.20991,4.97981 0.44571,7.52205 0.4457,7.52193 -2.91524,8.45746 -2.91512,8.45758 -3.83441,5.77662 c -2.10887,3.17724 -6.08098,8.2349 -8.82687,11.23935 l -4.99245,5.46249 -3.17622,-0.59583 -3.17611,-0.59583 -1.03839,1.26426 c -0.57114,0.69526 -1.19348,2.38044 -1.38305,3.74462 l -0.34438,2.48062 -4.90069,3.20206 -4.90085,3.20194 -12.36038,4.52621 -12.36043,4.52608 -2.16024,0.015 c -1.18806,0.0125 -2.8324,0.44001 -3.65409,0.95911 l -1.49396,0.94389 0,21.36889 0,21.36889 2.37427,2.52826 2.37414,2.52827 5.17205,1.07364 5.17204,1.07376 9.88324,-0.0287 c 5.43575,-0.0162 12.48641,-0.0798 15.66829,-0.14247 l 5.7851,-0.11352 0.68041,0.68037 0.6804,0.68038 -1.98369,1.16352 c -1.09095,0.63995 -4.83522,2.40167 -8.32052,3.91492 l -6.33684,2.75142 -2.95231,2.48417 c -1.62365,1.36624 -3.52702,2.48411 -4.2295,2.48411 l -1.27728,0 -4.37315,3.84192 c -2.40515,2.11302 -6.29241,4.81867 -8.63824,6.01253 l -4.26521,2.17063 -9.67831,2.63092 -9.6784,2.63093 -4.97982,0.33855 -4.97989,0.33855 -2.48992,-1.60982 z m 40.61501,-107.44697 7.19392,-3.44758 7.21963,-5.35956 7.21947,-5.35944 6.97171,-7.39069 6.97184,-7.39056 2.79102,-5.75728 2.79103,-5.7574 0.50444,-4.68714 0.50444,-4.68714 -1.8014,-3.46043 -1.80167,-3.46056 -3.98383,-2.77091 -3.98382,-2.77091 -7.46982,-1.58027 -7.46981,-1.58038 -6.47371,0.57761 c -3.56065,0.31775 -9.16292,1.26364 -12.44963,2.10223 l -5.97576,1.5245 -2.28416,2.57854 -2.28418,2.57842 0.29218,28.12807 0.29227,28.12807 1.36688,1.64526 1.36687,1.64513 1.64918,0 c 0.90694,0 4.88627,-1.55144 8.84291,-3.44758 z m 343.33091,77.2207 c -2.7389,-0.97632 -7.261,-2.9316 -10.0494,-4.34519 l -5.0694,-2.57018 -3.1412,-3.57745 c -1.7277,-1.96775 -4.1376,-5.46997 -5.3555,-7.78279 l -2.2143,-4.20521 -0.032,-7.46966 -0.033,-7.46978 3.1443,-6.63692 3.1443,-6.63679 7.7286,-8.08919 7.7282,-8.08931 -2.7977,-5.85384 -2.7979,-5.85371 0.5976,-2.98749 0.5976,-2.98749 -1.4256,-1.18304 -1.4254,-1.18304 1.5459,-2.98936 1.5458,-2.98936 -2.2103,-2.35274 -2.2103,-2.35274 0.6316,-4.60767 0.6315,-4.60767 1.9837,-4.48466 1.9837,-4.48454 4.2356,-5.05903 4.2356,-5.05891 4.3723,-2.77278 4.3722,-2.77291 5.394,-1.20712 5.394,-1.20712 5.1854,1.63814 5.1855,1.63815 5.6857,3.56098 5.6857,3.56098 3.6281,5.97261 3.6282,5.97261 0.5097,3.79951 0.5096,3.79939 -2.1987,6.96652 -2.1988,6.96664 -3.8264,4.87265 c -2.1046,2.67985 -5.4719,7.33767 -7.4829,10.35035 -2.0109,3.01282 -4.998,6.66899 -6.6382,8.12474 l -2.982,2.64679 0.8481,1.44652 c 0.4665,0.79568 4.9289,5.77911 9.9167,11.0743 l 9.0689,9.62766 1.1894,-1.43318 1.1894,-1.43318 0.1996,-2.82618 0.1994,-2.82618 -3.7299,-0.30876 -3.7298,-0.30889 -2.495,-3.27106 -2.4949,-3.27105 0,-2.07579 0,-2.07578 1.4267,-1.42681 1.4268,-1.42669 8.2839,-2.57543 c 4.5561,-1.41646 10.5248,-3.08454 13.2637,-3.70682 l 4.9798,-1.13152 11.9517,-0.39297 c 6.5735,-0.2162 14.3046,-0.65945 17.1806,-0.98506 l 5.2287,-0.59196 -5e-4,1.31665 -5e-4,1.31666 -7.0831,6.47374 c -3.8957,3.56061 -8.4894,7.87324 -10.2081,9.58349 l -3.1251,3.10987 -4.8582,0.70524 c -2.6721,0.38786 -5.4732,0.94114 -6.2247,1.22958 l -1.3668,0.52446 0,4.83597 0,4.83585 -2.1248,5.67955 -2.1251,5.67944 2.8616,2.07666 c 1.5739,1.14212 4.6591,3.45993 6.856,5.15047 l 3.994,3.07394 -0.1849,1.40798 c -0.101,0.77435 -0.8046,3.08517 -1.5622,5.13513 l -1.3771,3.72715 -2.3463,2.49758 -2.3463,2.49771 -3.0634,0 -3.0633,0 -3.261,-1.98821 c -1.7936,-1.09297 -3.862,-1.98771 -4.5965,-1.98771 -0.7347,0 -2.4752,-0.89636 -3.868,-1.99195 -1.3928,-1.09559 -3.134,-1.98047 -3.8692,-1.96637 -0.7353,0.0137 -3.802,1.59909 -6.8148,3.52255 l -5.4777,3.49711 -9.4222,2.95119 -9.422,2.95118 -5.0195,-0.0729 -5.0194,-0.0729 -4.9799,-1.77493 z m 24.1669,-24.10238 4.3786,-2.11969 0.4877,-1.27087 0.4877,-1.27075 -10.2786,-10.04907 -10.2787,-10.04907 -1.2025,0 -1.2025,0 -2.7812,3.66615 c -1.5299,2.0164 -4.2381,5.01212 -6.0184,6.65713 l -3.2369,2.99085 0,1.34697 0,1.34685 4.2329,4.31886 c 2.328,2.37532 5.1291,4.8104 6.2249,5.41122 l 1.9918,1.09259 6.4085,0.0299 6.4081,0.0299 4.3786,-2.11957 z m -5.3279,-61.2115 7.6894,-6.56094 1.9206,-3.14979 1.9206,-3.1498 0,-3.16039 0,-3.16053 -2.4697,-2.93509 -2.4698,-2.93521 -2.9914,-1.23906 -2.9915,-1.23906 -3.4424,0.64573 -3.4425,0.64585 -2.7009,3.20306 c -1.4856,1.76166 -3.3051,4.64522 -4.0439,6.40788 l -1.3436,3.20493 0,3.85752 0,3.85765 1.4106,4.68639 c 1.4007,4.6547 3.1516,7.58181 4.5353,7.58181 0.3971,0 4.1822,-2.95243 8.4114,-6.56095 z m 176.6506,58.35551 c -3.1327,-0.40184 -8.8722,-1.75193 -12.7542,-3.00009 l -7.058,-2.26953 -5.914,-3.59217 c -3.2527,-1.97561 -8.2061,-5.38476 -11.0073,-7.57595 l -5.0931,-3.98389 -5.759,-6.77715 -5.7589,-6.77714 -3.0131,-5.67245 c -1.6571,-3.11985 -3.929,-8.58558 -5.0487,-12.14619 -1.1195,-3.56061 -2.9867,-11.61835 -4.1492,-17.90609 l -2.1137,-11.43222 0.4426,-4.50325 c 0.6395,-6.50581 3.4545,-20.95458 6.2284,-31.97025 2.7617,-10.96701 8.6687,-28.36947 11.6248,-34.24776 4.404,-8.75712 15.4835,-26.34396 22.2841,-35.37192 3.9454,-5.2373 10.2469,-12.66591 14.0035,-16.50809 3.7566,-3.84206 9.9659,-9.35631 13.7985,-12.25373 l 6.9684,-5.26812 8.2584,-4.09231 8.2586,-4.09231 10.6683,-0.0674 10.6683,-0.0674 9.4618,3.81797 c 5.2039,2.09999 10.358,3.89271 11.4536,3.9839 l 1.9919,0.16592 0.4981,-5.52286 0.4979,-5.52299 1.8479,-2.81857 1.8476,-2.8187 5.4795,0.64398 5.4796,0.64411 5.3829,2.54648 5.3829,2.54648 3.4743,3.27667 3.4743,3.27667 0,4.98679 c 0,2.74273 -0.2804,6.38804 -0.6228,8.10067 l -0.6228,3.11398 -3.9284,4.46308 -3.9287,4.46296 0.6264,1.01325 0.6261,1.01326 1.8228,0 1.8228,0 2.3004,1.8627 2.3004,1.86283 -1.1827,13.82376 c -1.3613,15.91027 -2.3828,23.51104 -4.5107,33.56049 -0.8333,3.93487 -1.9491,9.39523 -2.4796,12.13421 -0.5307,2.73885 -1.7026,8.27457 -2.6043,12.30138 l -1.6391,7.32158 -2.4724,4.87901 -2.4724,4.87913 -0.863,0 -0.8631,0 -0.6006,-2.24096 c -0.3303,-1.23257 -0.6066,-4.60829 -0.614,-7.50171 l -0.014,-5.26089 -1.3459,-3.2209 -1.3458,-3.22103 -0.7344,-12.89172 -0.7343,-12.89172 -4.2678,-12.48939 -4.2677,-12.48938 -4.2888,-8.36315 -4.289,-8.36314 -3.5785,-3.76171 -3.5783,-3.76172 -2.7595,-0.69263 -2.7594,-0.69251 -4.3621,1.66597 c -2.3993,0.91619 -7.1978,3.53727 -10.6635,5.82452 l -6.3012,4.15868 -9.2826,9.40908 -9.2824,9.40908 -7.3373,11.02927 -7.3375,11.02939 -6.9617,14.44154 c -7.4764,15.50906 -12.4844,28.33067 -16.5636,42.40706 l -2.5576,8.8256 -0.6168,7.4996 -0.6167,7.4996 -2.3313,2.80509 -2.3312,2.8051 1.4655,2.83404 c 0.8061,1.5588 2.7424,3.88197 4.3031,5.1627 l 2.8375,2.32854 2.6679,4.67241 2.6677,4.67242 4.7232,4.83647 4.723,4.83647 4.8258,2.32854 4.8255,2.32841 11.11,-0.52185 11.1097,-0.52197 9.6448,-3.12434 c 5.3045,-1.71837 12.2217,-4.26398 15.3714,-5.65698 l 5.7266,-2.53251 1.7698,0.46271 1.7696,0.46272 2.8604,-2.73349 2.8604,-2.73349 7.023,-2.68371 7.0233,-2.68371 1.8562,-2.05096 c 1.0209,-1.12803 3.0265,-2.65627 4.457,-3.39593 l 2.6008,-1.3451 1.1817,-2.78589 1.1814,-2.78588 5.6374,-3.42438 c 3.1005,-1.88341 7.3208,-4.9455 9.3789,-6.80484 l 3.7418,-3.38046 3.9528,-6.25892 3.9528,-6.25892 1.4897,-0.57162 1.4896,-0.5715 1.2188,1.46861 1.219,1.46873 -1.1108,2.20702 c -0.6109,1.21386 -2.2115,6.77278 -3.557,12.35316 l -2.4462,10.14626 -4.8071,8.7772 -4.807,8.77708 -6.6568,6.66175 -6.6568,6.66162 -2.8576,1.47759 -2.8573,1.47758 -1.92,-0.17153 -1.9202,-0.17141 -2.7709,5.4777 -2.7707,5.47796 -10.6969,6.66461 -10.6967,6.66474 -8.9638,2.97676 -8.9637,2.97664 -7.7909,1.06527 c -8.5321,1.16658 -13.1644,1.18217 -21.8084,0.0736 z m -939.34139,-17.32436 -3.84717,-1.44578 -2.96683,-2.8177 -2.96684,-2.81769 -1.95571,-3.80288 -1.95571,-3.80301 -0.55917,-4.7212 -0.55916,-4.72119 2.37571,-2.76181 2.37569,-2.76193 6.24091,-0.73593 6.24092,-0.7358 1.69538,-1.69541 1.69536,-1.69541 0.51083,-9.18377 0.51086,-9.18378 2.9879,-0.50887 2.98791,-0.50887 0.30911,-2.67186 0.30914,-2.67186 -2.79904,-1.78224 c -1.53948,-0.98032 -3.12834,-2.24084 -3.53078,-2.80136 l -0.73172,-1.01899 -0.0154,-28.66526 -0.0152,-28.66538 1.24496,-0.3835 c 0.68473,-0.21096 2.42804,-0.64124 3.87403,-0.95611 l 2.62906,-0.57263 0.63251,-1.64825 0.63254,-1.64838 -1.26966,-1.6999 c -0.6983,-0.9349 -2.77833,-3.67039 -4.6223,-6.07902 l -3.35264,-4.37912 0.80512,-15.93547 c 0.44283,-8.7646 0.83105,-20.27005 0.86273,-25.56786 l 0.0575,-9.63227 -2.40496,-2.55809 -2.40497,-2.5582 -5.56279,-2.07417 -5.56275,-2.07416 -2.16044,-2.0179 -2.16045,-2.01777 -2.12098,-4.93041 -2.12101,-4.93041 -0.16315,-5.88665 -0.16318,-5.88677 2.33264,-2.48298 2.33262,-2.48299 8.58576,-3.13831 8.58576,-3.13844 15.43752,-2.88045 15.43751,-2.88045 17.92742,0.0212 17.92744,0.0212 9.57721,0.93203 9.57718,0.93204 8.18436,2.98687 c 4.50139,1.64288 10.95546,4.53668 14.34237,6.4307 3.38691,1.89402 8.18758,5.23019 10.66815,7.41376 l 4.51013,3.96993 6.31825,8.81001 6.31823,8.81002 4.77311,9.95962 4.77312,9.95975 1.67283,6.47374 1.67285,6.47374 0.0893,7.46978 0.0894,7.46978 -1.29007,5.47783 -1.29004,5.47783 -3.89367,7.9678 -3.89367,7.96768 -5.72254,6.64914 c -3.14738,3.65705 -7.96347,8.6391 -10.70238,11.07106 -2.73891,2.43208 -8.49022,6.93983 -12.78068,10.01714 l -7.80086,5.59522 -12.11852,5.86332 c -15.27781,7.39181 -33.10579,14.52937 -41.49959,16.61451 -3.56058,0.88451 -8.13432,2.03437 -10.16385,2.55534 l -3.69007,0.94701 -1.53877,1.53884 -1.53876,1.53872 0,12.92178 0,12.92167 2.28449,2.28449 2.28453,2.2845 4.05992,0.64922 4.05994,0.64922 1.24726,1.50292 1.24728,1.50291 5.10688,0.0137 5.10688,0.015 4.29903,1.4973 4.29902,1.4973 0.92252,-0.57013 c 0.86872,-0.53681 21.83438,-1.65174 28.32624,-1.50615 1.64334,0.0362 4.55656,0.0736 6.47378,0.0811 1.91725,0.0125 4.0966,0.23304 4.84302,0.50064 l 1.35714,0.48641 -1.23008,1.48208 -1.2301,1.48221 -1.55552,0 c -0.85557,0 -3.60185,0.95212 -6.10288,2.11595 -2.50101,1.16371 -7.23642,3.36574 -10.52312,4.89323 -3.28669,1.52762 -8.66493,3.53641 -11.95161,4.46421 -3.2867,0.92779 -7.44764,2.31119 -9.24651,3.07444 l -3.2707,1.38764 -3.72848,0 -3.72847,0 -2.17819,1.52574 c -3.25631,2.28076 -9.62351,4.34232 -20.17635,6.53238 l -9.4617,1.96375 -11.9516,0.49752 -11.95162,0.49752 -3.84717,-1.44577 z m 74.42622,-110.85068 8.82905,-3.48888 4.31022,0.64635 4.31026,0.64636 1.5967,-2.43695 1.59671,-2.43682 -0.59984,-2.39004 -0.59984,-2.38992 1.96549,-1.77874 1.96551,-1.77875 2.13846,1.1445 2.13844,1.14436 1.51614,-1.25827 1.51615,-1.25827 -0.55414,-2.77066 -0.55414,-2.77067 4.97504,-5.68529 c 6.21501,-7.10226 11.22713,-14.60959 14.69453,-22.00988 l 2.67902,-5.71786 6.5e-4,-8.96371 6.5e-4,-8.96371 -2.64969,-5.65223 -2.64968,-5.65224 -4.07562,-4.42154 -4.07563,-4.42153 -5.8073,-2.60624 -5.80733,-2.60612 -7.64268,-1.13676 -7.64266,-1.13663 -9.70376,1.17755 c -5.33707,0.6476 -10.45135,1.39338 -11.3651,1.65724 l -1.66135,0.4798 -3.44998,-3.02915 -3.44997,-3.02916 -2.0744,0 -2.07442,0 -1.03101,1.92645 c -0.56705,1.05954 -1.03101,3.00134 -1.03101,4.315 l 0,2.38854 -3.65679,2.40776 c -2.01125,1.32426 -4.53499,3.60178 -5.60833,5.06102 l -1.95154,2.65328 -0.81963,15.77216 -0.81965,15.77217 -0.0458,28.4437 -0.0458,28.44382 1.24496,1.56966 c 0.68472,0.86342 1.91725,1.77151 2.73891,2.01815 l 1.49395,0.44824 11.45364,-2.41848 11.45364,-2.41861 8.82901,-3.489 z m 93.75573,108.55271 c -1.64335,-0.21808 -5.37517,-1.06977 -8.29291,-1.89277 l -5.30502,-1.49631 -4.19985,-4.19984 -4.19985,-4.19985 -4.37481,-11.43672 -4.3748,-11.43671 -0.41566,-13.40645 -0.41566,-13.40658 1.18291,-7.3328 1.18292,-7.33293 2.39847,-7.05173 c 1.31916,-3.87848 4.00622,-9.97671 5.97123,-13.55167 4.27896,-7.78453 11.09328,-16.84056 17.58263,-23.36657 l 4.74847,-4.77534 8.25494,-3.96107 8.25495,-3.96095 5.07804,-0.60144 5.07802,-0.60144 5.16693,2.81221 5.16692,2.81221 5.28862,5.08149 5.28863,5.08161 2.48369,4.92991 2.48371,4.92991 1.11984,5.27785 1.11986,5.27784 -0.005,12.64958 -0.005,12.64957 -1.03984,3.74437 -1.03981,3.74425 -2.19152,1.42207 -2.19152,1.42195 -6.97179,1.14 c -6.99001,1.14287 -41.32784,9.67132 -48.80244,12.12099 l -3.98388,1.30555 -1.73598,3.54863 -1.736,3.54864 1.68876,4.41916 c 0.92882,2.43046 2.73433,6.11607 4.01221,8.19011 l 2.32342,3.77095 3.20162,2.01914 3.20163,2.01927 6.06513,-0.43389 6.06514,-0.43377 6.38445,-2.8157 c 3.51147,-1.5487 11.76019,-6.03187 18.33048,-9.96262 l 11.94601,-7.14679 1.35697,0.52072 1.35698,0.52073 -0.53249,3.28128 c -0.29286,1.80482 -1.43602,5.32388 -2.54032,7.82046 l -2.00782,4.53893 -2.47479,0 -2.47478,0 -1.63184,1.63191 -1.63182,1.63179 0.15908,4.09493 c 0.0876,2.25231 0.11752,4.58097 0.0667,5.1748 l -0.0923,1.07987 -8.74294,4.15481 -8.74294,4.15494 -6.94356,1.47073 c -6.87689,1.45675 -9.12066,1.57876 -14.9113,0.81078 z m 9.51993,-73.4928 16.37525,-3.68274 4.14769,-1.80582 4.14769,-1.80594 1.08114,-2.02015 1.08113,-2.02014 0,-10.50305 0,-10.50293 -1.60572,-4.01322 -1.60572,-4.01309 -2.35213,-0.59034 -2.35213,-0.59033 -4.49591,2.17646 -4.49592,2.17646 -7.44162,6.94968 c -4.09291,3.82234 -8.96989,9.05104 -10.8377,11.61948 -1.86785,2.56856 -5.29541,8.33245 -7.61683,12.80876 l -4.22076,8.13871 0.7057,1.14187 0.70569,1.14188 1.20246,-0.46147 c 0.66136,-0.25375 8.57131,-2.11857 17.57769,-4.14408 z m 315.54664,71.81647 c -1.98184,-0.7081 -5.23518,-2.2961 -7.22963,-3.52879 l -3.62652,-2.24134 -2.49209,-4.25237 c -1.37068,-2.33889 -4.16791,-8.91056 -6.216,-14.60384 l -3.72392,-10.35148 0.0923,-15.93547 0.0936,-15.93547 2.15812,-7.9678 2.15787,-7.96767 4.03817,-8.46582 4.03822,-8.46569 5.39462,-7.05859 c 2.96702,-3.88223 7.87598,-9.40522 10.90875,-12.27344 l 5.51388,-5.21485 7.5011,-3.4658 7.50121,-3.46567 4.8482,-0.57424 4.8482,-0.57424 4.3157,2.10722 4.3157,2.10722 6.1834,5.5341 6.1833,5.53422 3.2784,6.65376 3.2782,6.65376 0.3229,17.45585 0.3227,17.45573 -1.0252,2.68683 -1.0254,2.68683 -2.2854,1.4827 -2.2853,1.48283 -8.9942,1.54995 c -4.947,0.85244 -17.4961,3.81348 -27.88727,6.58015 l -18.89277,5.03009 -4.4818,2.19792 -4.48191,2.19792 0.16742,6.14564 0.16729,6.14576 2.0325,4.59457 2.03237,4.59457 3.49498,1.46025 3.49512,1.46037 7.2527,-0.0175 7.25284,-0.0175 8.39957,-3.40629 8.39966,-3.40628 1.8919,1.0125 1.8918,1.01251 1.8197,-1.64663 c 1.0006,-0.90572 2.0676,-2.62209 2.3714,-3.81424 l 0.5522,-2.16773 6.2656,-4.23278 6.2659,-4.23291 1.8327,0 1.8327,0 2.8488,-2.0285 c 1.5668,-1.1158 4.9227,-2.94595 7.4573,-4.06711 l 4.6084,-2.03861 0.5209,0.52073 0.5206,0.52072 -1.6695,4.37126 -1.6693,4.37114 -3.8835,5.13101 c -2.1359,2.82194 -4.778,6.88431 -5.8713,9.02734 l -1.9877,3.89644 -5.0398,4.40869 -5.0398,4.40869 -9.1874,4.62401 -9.1873,4.62389 -4.7398,1.24342 -4.73978,1.24355 -1.54146,-2.20091 -1.54146,-2.20091 -2.68247,0 -2.68246,0 -3.9839,2.45366 c -2.19118,1.34959 -4.65608,2.44805 -5.47771,2.44119 -0.82175,-0.0125 -3.11548,-0.59208 -5.0972,-1.30031 z m 16.05274,-71.39094 c 7.39506,-1.63802 16.25133,-3.90131 19.68063,-5.02946 l 6.2349,-2.05121 1.0997,-2.0547 1.0996,-2.0547 0.1351,-11.55523 0.135,-11.55535 -2.0724,-3.48588 -2.0727,-3.48588 -3.4877,0.0985 -3.4879,0.0986 -6.12256,4.15781 -6.12281,4.15793 -2.36621,-0.59396 -2.36634,-0.59383 -1.63802,1.63802 -1.63814,1.63803 0.61029,2.43071 0.61005,2.43083 -3.94922,5.21597 c -2.17209,2.86872 -5.80768,8.63249 -8.07895,12.80826 l -4.12974,7.59254 0,2.23447 0,2.23447 2.24084,-0.64909 c 1.23257,-0.35705 8.29141,-1.98933 15.68658,-3.62748 z m 618.76513,72.06574 -2.2208,-0.42903 -2.0121,-2.55759 -2.0116,-2.55758 0,-1.73571 0,-1.73558 -1.4066,-1.16732 -1.4066,-1.16745 -6.0359,2.54049 c -3.3196,1.39725 -9.5215,3.69123 -13.7818,5.09783 l -7.7461,2.55734 -9.0436,0.56576 -9.0437,0.56563 -5.2844,-1.75529 -5.2846,-1.75529 -3.8427,-3.47153 -3.8425,-3.47154 -1.4998,-5.04992 -1.4996,-5.0498 0,-4.75375 0,-4.75389 2.4131,-6.64777 2.4129,-6.64778 3.7278,-5.41233 3.7275,-5.41233 5.5621,-4.01547 5.562,-4.01546 11.9514,-5.8224 11.9517,-5.8224 8.7736,-2.18769 8.7739,-2.18756 2.0916,-1.69367 2.0912,-1.69353 -1.0994,-9.67955 -1.0995,-9.67955 -1.7979,-3.67826 -1.7979,-3.67837 -7.9678,-0.28032 -7.9678,-0.28045 -7.9676,3.87312 -7.9678,3.87311 -7.4698,5.54221 c -4.1084,3.04824 -8.042,6.13753 -8.7417,6.86497 -0.6995,0.72756 -2.3488,2.66737 -3.6655,4.31063 l -2.3939,2.98799 -1.1978,-1.17843 -1.1977,-1.1783 2.6877,-6.78938 c 1.4779,-3.73426 4.1147,-9.18901 5.8593,-12.12186 l 3.1718,-5.33249 5.8502,-4.90658 c 3.2175,-2.69856 7.7142,-5.9988 9.9923,-7.33392 2.278,-1.33512 6.1443,-3.13994 8.5913,-4.01072 l 4.4492,-1.58338 7.1678,-0.0399 7.1676,-0.0399 5.3274,2.43895 5.3274,2.43894 3.6492,3.20406 3.6491,3.20406 2.416,5.16096 2.4161,5.16095 1.1324,5.38215 1.1324,5.38214 0.959,14.03921 c 0.5273,7.72166 0.9655,17.96085 0.9736,22.75403 l 0.015,8.7147 0.9371,0 c 0.5154,0 1.2141,-0.44824 1.5527,-0.99603 l 0.6154,-0.99591 2.0577,0 2.0577,0 -0.6463,3.23687 c -0.3556,1.78036 -1.9801,6.08837 -3.6106,9.57351 l -2.9637,6.33663 0,1.88017 0,1.88005 1.0509,0 c 0.5779,0 3.6031,-1.30892 6.7227,-2.90877 8.3597,-4.28743 14.6096,-7.05085 15.9459,-7.05085 l 1.1796,0 0,0.92555 c 0,0.50899 -1.8237,3.67114 -4.0526,7.02677 l -4.0526,6.10136 -0.7676,4.85593 -0.7677,4.85605 -1.6138,2.46277 -1.6137,2.46278 -5.2686,2.99073 -5.2686,2.99073 -5.4096,1.587 c -2.9753,0.8729 -5.6645,1.52611 -5.976,1.45151 -0.3115,-0.0748 -1.5655,-0.32873 -2.7872,-0.56476 z m -35.6194,-22.67494 7.6513,-1.46399 5.633,-2.56906 c 3.0979,-1.41297 7.3155,-3.72965 9.3721,-5.14823 l 3.7392,-2.5793 1.9876,-3.21603 1.9876,-3.21604 0,-4.16055 0,-4.16055 -2.4447,-2.44469 -2.4447,-2.44468 -1.9157,0 -1.9156,0 -1.497,-2.24083 -1.4971,-2.24096 -1.9056,1.71212 -1.906,1.71213 -6.7414,2.08227 -6.7412,2.08215 -3.672,3.2456 c -2.0195,1.78511 -5.7841,4.73567 -8.3659,6.55683 l -4.6941,3.3111 -2.4271,3.59242 c -1.3349,1.97586 -2.7331,4.62289 -3.1072,5.88216 l -0.6803,2.28974 1.5995,2.44106 1.5995,2.44119 5.3673,0 5.3673,0 7.6512,-1.46386 z m -504.794,17.99928 -3.6542,-3.65443 -2.4899,-4.91344 -2.4899,-4.91344 0,-2.46427 0,-2.46427 1.2401,-0.76636 1.2399,-0.76637 8.4708,-0.0399 8.4706,-0.0399 0.5998,-19.91937 0.5995,-19.91937 1.2228,-5.21448 1.2227,-5.21435 -0.3284,-12.88485 -0.3285,-12.88486 -2.2057,-2.34488 -2.2059,-2.34488 0.5758,-2.20204 0.5759,-2.20203 -1.6742,-0.64249 -1.6741,-0.64236 -2.1737,1.14388 -2.1736,1.14387 -4.9799,-1.9045 -4.9798,-1.90462 -0.3394,-1.68581 -0.339,-1.68567 2.2111,-2.35362 2.211,-2.35348 8.5858,-3.15466 8.5857,-3.15453 5.5403,-0.11727 5.5402,-0.11727 2.7595,1.80818 2.7598,1.80832 1.4109,3.37634 1.4106,3.37647 0,5.01188 0,5.01175 1.2449,-5e-4 1.2452,-5e-4 5.6959,-6.36945 5.6957,-6.36945 4.3293,-2.09574 4.3293,-2.09575 4.5838,0 c 2.5212,0 5.3272,0.28519 6.2358,0.63375 l 1.6517,0.63388 0.8949,2.35411 0.8951,2.35411 2.8263,0 2.8262,0 2.5528,2.73885 2.553,2.73886 4.1073,8.50074 4.1072,8.50075 -0.057,1.95702 c -0.031,1.07625 -0.8565,5.02198 -1.8332,8.7681 l -1.7755,6.81132 -4.3918,1.96214 -4.3917,1.96213 -2.6462,2.52877 -2.6462,2.52864 -5.9455,-2.66812 -5.9456,-2.66824 -1.0815,-2.37357 -1.0813,-2.37358 0.8252,-0.50999 0.8253,-0.51012 1.7815,1.9685 1.7815,1.96837 2.6431,0 2.6432,0 1.6312,-1.24492 1.6313,-1.24493 1.5326,-4.48191 c 0.8428,-2.46502 1.5391,-5.28659 1.5469,-6.27002 l 0.015,-1.78823 -2.4899,-2.48997 c -1.3694,-1.36942 -2.4899,-2.83953 -2.4899,-3.26693 0,-0.42741 -1.0373,-1.75168 -2.305,-2.94271 l -2.3052,-2.1656 -5.4412,0 -5.4409,0 -2.2354,1.56579 -2.2355,1.56579 -2.8274,5.65498 c -1.555,3.11024 -3.55,7.89594 -4.4332,10.63479 -0.8834,2.73898 -2.7513,11.69296 -4.1512,19.89791 l -2.5452,14.91798 -0.1,7.71891 -0.1,7.71879 1.7067,2.6045 1.7064,2.60449 4.2802,1.89339 4.2803,1.8934 0.542,2.07179 0.5417,2.07191 2.0427,-1.09322 2.0428,-1.09334 1.9534,1.21997 1.9534,1.21997 2.4746,-1.32439 2.4747,-1.32439 2.8157,0.70274 c 1.5485,0.38661 3.4878,1.27998 4.3096,1.98546 0.8217,0.70536 2.7358,1.57764 4.2534,1.93843 l 2.7593,0.65584 2.0784,-1.11231 2.0784,-1.11244 0.953,0.95313 0.9532,0.95312 -1.7064,1.70639 -1.7064,1.70651 -2.019,-0.52796 -2.0191,-0.52796 -2.5634,1.37953 c -3.8953,2.09624 -12.033,4.5015 -15.23,4.5015 l -2.8502,0 -4.1933,2.17048 -4.1931,2.17047 -10.9558,0.73755 c -6.0255,0.4057 -15.2497,1.05841 -20.4979,1.45064 l -9.5423,0.71297 -3.6544,-3.6543 z m 577.8953,0.75376 c -1.4225,-1.56616 -3.3273,-3.95583 -4.233,-5.31016 l -1.6468,-2.46252 0,-2.7663 0,-2.7663 1.9528,-1.95277 1.9527,-1.95266 5.5157,-1.60346 5.5157,-1.60347 0.5677,-2.26229 0.568,-2.26229 -0.3175,-35.76315 -0.3175,-35.76327 -2.0458,-3.48252 -2.0457,-3.48251 -3.4321,-2.31281 -3.432,-2.31282 0,-1.17643 0,-1.17644 9.4617,-3.21154 c 5.204,-1.7664 10.3581,-3.22303 11.4537,-3.23687 l 1.9919,-0.0249 2.5809,3.23687 2.5807,3.23687 1.2745,3.9839 c 0.7009,2.19106 1.6535,4.39471 2.1171,4.89697 l 0.8427,0.9132 7.2537,-7.5344 7.2537,-7.53428 4.2329,-1.13601 4.2329,-1.13588 3.7566,1.0115 3.7567,1.01163 4.2261,3.10775 4.2259,3.10788 2.3774,4.13572 c 1.3075,2.27465 2.6723,5.55269 3.0326,7.28452 l 0.6557,3.14892 -1.1229,6.31281 c -0.6177,3.47204 -2.2537,10.05444 -3.636,14.62755 l -2.5129,8.31474 -5.8908,6.03885 -5.8905,6.03873 -0.6121,-0.6118 -0.6116,-0.61179 1.704,-6.9533 1.704,-6.95317 -0.5667,-10.20202 -0.5667,-10.20202 -1.0052,-1.0054 -1.0054,-1.00527 -5.5306,1.74332 -5.5308,1.74344 -3.067,4.16941 c -1.687,2.29323 -3.6862,5.61231 -4.4428,7.37571 l -1.3757,3.20618 -2.4893,16.40143 -2.4893,16.40156 0,6.088 0,6.08788 1.457,2.81782 c 0.8015,1.5497 2.0341,3.03315 2.7391,3.2965 0.7049,0.26336 6.6598,0.15857 13.2333,-0.23291 l 11.9515,-0.71185 0.9004,0.80566 0.9001,0.80579 -2.7305,3.57994 c -1.5019,1.969 -4.1826,4.53182 -5.9575,5.69528 l -3.227,2.11533 -2.1532,3.28465 -2.1531,3.28466 -2.6047,1.70676 -2.6048,1.70664 -9.6062,0.72082 c -5.2833,0.39635 -13.864,1.03521 -19.0679,1.41958 l -9.4617,0.69887 -2.5861,-2.84763 z m 85.0721,1.00689 c -1.1941,-1.02435 -3.323,-3.60577 -4.7308,-5.73644 l -2.5595,-3.87387 0,-1.92957 0,-1.92957 2.7903,-2.79038 2.7904,-2.79038 4.1241,-0.69675 4.124,-0.69675 0.9614,-1.16707 0.9615,-1.16708 0.2122,-34.85893 0.2123,-34.85893 -0.9945,-4.76673 -0.9945,-4.76673 -1.7536,-1.93794 -1.7538,-1.9378 -5.091,-1.89651 -5.0908,-1.89639 -0.2716,-1.3587 -0.2717,-1.35857 12.6278,-2.25344 12.6281,-2.25343 2.5831,1.64289 c 1.4208,0.90359 3.5757,2.81395 4.7885,4.24538 l 2.2055,2.6025 0.6444,3.23687 0.6444,3.23699 1.1343,-0.0125 1.134,-0.0125 4.68,-5.86955 4.6803,-5.86956 5.4752,-2.67885 5.4753,-2.67885 3.29,0.70873 c 1.8097,0.38986 4.6348,1.37829 6.2782,2.19655 3.8345,1.90924 8.2795,6.04172 9.9636,9.26312 l 1.32,2.52515 -1.4216,12.91243 -1.4215,12.91243 -2.9497,4.48179 c -1.6222,2.46502 -3.7163,5.93855 -4.6537,7.71879 l -1.7039,3.23687 -1.6125,0 -1.6124,0 -0.096,-8.21668 -0.097,-8.21681 -1.6934,-4.2137 -1.6934,-4.21382 -3.254,-2.01103 -3.2541,-2.01104 -2.4987,0 -2.4985,0 -1.9922,4.7308 c -1.0958,2.602 -2.6937,6.97189 -3.5512,9.71074 -1.691,5.40148 -5.1608,26.56914 -6.2248,37.97579 l -0.6625,7.10063 1.1637,3.5263 c 0.6401,1.93943 1.7012,3.96531 2.3579,4.50188 l 1.194,0.97558 5.4777,-0.9802 c 3.0128,-0.53906 8.1672,-1.10108 11.4537,-1.24878 3.2868,-0.14784 6.7148,-0.58859 7.618,-0.9797 l 1.6421,-0.71085 0.7051,1.14075 0.7053,1.14088 -6.5474,6.2946 -6.5472,6.29447 -1.5559,3.88858 -1.556,3.88872 -3.1879,1.88316 -3.1881,1.88316 -9.4816,0.70362 c -5.2147,0.38698 -13.515,1.02685 -18.4452,1.42182 l -8.9637,0.71833 -2.1712,-1.86257 z m 113.2219,0.0848 -5.4779,-1.50429 -5.2925,-3.62336 -5.2924,-3.62336 -3.9047,-4.56575 -3.9047,-4.56575 -2.9021,-5.97573 -2.9022,-5.97585 -1.0973,-5.27785 -1.0972,-5.27785 0.02,-9.16369 0.02,-9.16369 0.9686,-6.6963 0.9683,-6.69618 2.1388,-6.25131 c 2.8149,-8.22816 7.3808,-17.29866 11.0537,-21.95947 l 2.9602,-3.75648 6.2467,-4.45759 c 3.4357,-2.45154 8.6957,-5.57875 11.6893,-6.94918 l 5.4425,-2.49171 7.3824,-0.60169 7.3824,-0.60182 6.9494,1.63503 6.9497,1.63503 4.1609,2.43844 4.161,2.43857 3.0793,3.88797 3.0792,3.88784 3.4573,7.32993 c 1.9013,4.03143 4.1708,10.019 5.0432,13.30565 l 1.5857,5.97585 0.5568,9.46173 0.5565,9.4616 -1.6112,8.46582 c -0.8864,4.65608 -2.071,10.10833 -2.6328,12.116 l -1.0211,3.65043 -3.4626,2.04285 -3.4623,2.04285 0,1.54109 c 0,0.84758 0.5529,2.42622 1.2286,3.50821 l 1.2285,1.96712 -1.9755,3.68237 c -1.0865,2.02538 -4.0643,5.97098 -6.6173,8.76822 l -4.6419,5.08598 -5.3178,2.93584 -5.3179,2.93584 -12.4496,0.2414 -12.4496,0.24152 -5.4778,-1.50428 z m 23.8599,-20.62137 5.4928,-1.24504 3.811,-3.79677 3.8111,-3.79689 1.9357,-4.51623 1.936,-4.51635 1.0975,-7.07418 1.0977,-7.07431 -0.6623,-13.99368 c -0.3643,-7.69645 -0.6439,-16.07569 -0.6213,-18.6203 l 0.04,-4.62676 -2.6902,-1.76265 c -1.4797,-0.96947 -5.0755,-3.70545 -7.9907,-6.08002 l -5.3003,-4.31724 -3.2663,0 -3.2666,0 -5.1133,1.51851 -5.1134,1.5185 -3.2081,2.69943 -3.2083,2.69956 -3.788,5.86082 -3.7881,5.86083 -0.6076,3.61575 c -0.3344,1.98858 -0.8167,4.38012 -1.0719,5.3144 -0.2551,0.93429 -2.2329,3.83931 -4.3949,6.45553 l -3.9307,4.75688 0,1.53984 0,1.53984 1.838,1.5739 1.8384,1.57389 0.684,5.82153 0.6843,5.82153 4.3056,9.08921 4.3055,9.08909 2.9193,2.07866 c 3.4452,2.45316 8.4689,4.02294 13.2748,4.14782 1.901,0.0499 5.9285,-0.47045 8.9495,-1.1551 z m 88.9034,19.59289 -5.152,-2.56731 -2.5608,-3.04351 c -1.4086,-1.67382 -3.3951,-4.67853 -4.4147,-6.67696 l -1.8536,-3.63347 -1.0868,-5.87816 -1.0865,-5.87805 -0.07,-26.45923 -0.07,-26.45923 -0.7788,-1.99195 -0.7789,-1.99195 -7.1877,0 -7.1875,0 -3.9153,-4.19436 -3.9151,-4.19424 0,-2.54199 0,-2.54199 -1.153,-1.84648 -1.1531,-1.84661 0.5428,-1.41484 0.5429,-1.41484 5.8758,-3.07993 5.8756,-3.08005 5.7469,-1.28597 5.7468,-1.28609 1.1883,-2.0698 1.1884,-2.06979 -0.2555,-20.24598 -0.2555,-20.24598 -1.0587,-1.97797 -1.0585,-1.97798 1.187,-1.43031 1.1871,-1.4303 1.9887,0 1.9888,0 5.8279,3.54039 5.8281,3.5404 2.0963,2.94408 2.0965,2.94419 0.5797,15.08602 0.58,15.08615 1.8498,1.84973 1.8498,1.84985 2.7238,-0.65446 c 1.4981,-0.35991 4.2923,-1.4308 6.2096,-2.37956 l 3.486,-1.72522 7.8239,-0.71834 7.8242,-0.71821 3.6296,-1.54645 3.6294,-1.54658 5.2181,-0.10105 5.2182,-0.10229 0.4879,1.27249 0.488,1.27237 -1.7222,1.40385 c -0.9473,0.77211 -3.8243,3.11274 -6.3938,5.20138 -2.5692,2.08863 -8.473,7.19345 -13.1196,11.34402 l -8.448,7.5465 -8.7917,3.3247 c -4.8353,1.82865 -9.4639,3.93836 -10.2857,4.68814 l -1.4938,1.36319 -0.3209,27.60422 -0.3208,27.60423 0.6454,5.26126 0.6456,5.26138 2.3112,2.68695 2.3111,2.68683 3.0615,-1.47447 3.0611,-1.47434 11.3365,-11.09102 c 6.235,-6.1001 12.3081,-11.61112 13.4959,-12.24674 l 2.1592,-1.1556 0.8501,0.52547 0.8503,0.52546 -0.805,4.2515 c -0.443,2.33827 -1.5209,5.95077 -2.3955,8.02768 l -1.5903,3.77643 -3.0911,2.76181 -3.0911,2.76181 1.1526,2.15375 1.1528,2.15388 -1.5639,3.7576 -1.564,3.75759 -4.1857,4.35667 c -2.3022,2.39628 -6.1782,5.64562 -8.6137,7.22089 l -4.4279,2.86398 -5.5852,0 -5.5851,0 -5.1521,-2.56731 z"
       id="path4376"
       inkscape:connector-curvature="0" />
    <flowRoot
       xml:space="preserve"
       id="flowRoot3063"
       style="font-style:normal;font-variant:normal;font-weight:normal;font-stretch:normal;font-size:72px;line-height:125%;font-family:Arial;-inkscape-font-specification:Arial;letter-spacing:0px;word-spacing:0px;display:inline;fill:#562f13;fill-opacity:1;stroke:none"
       transform="matrix(0.77923967,0,0,0.77489763,105.86796,203.13789)"><flowRegion
         id="flowRegion3065"><rect
           id="rect3067"
           width="2715.5891"
           height="110.01318"
           x="92.642677"
           y="425.30325"
           style="font-size:72px;fill:#562f13;fill-opacity:1" /></flowRegion><flowPara
         id="flowPara3069"
         style="font-style:normal;font-variant:normal;font-weight:normal;font-stretch:normal;font-size:88px;font-family:Lavi;-inkscape-font-specification:Lavi;text-align:center;text-anchor:middle;fill:#562f13;fill-opacity:1">Zixa 2 : Korfiulibeem</flowPara></flowRoot>  </g>
</svg>
