<?xml version="1.0" encoding="UTF-8" standalone="no"?>
<!-- Created with Inkscape (http://www.inkscape.org/) -->

<svg
   xmlns:dc="http://purl.org/dc/elements/1.1/"
   xmlns:cc="http://creativecommons.org/ns#"
   xmlns:rdf="http://www.w3.org/1999/02/22-rdf-syntax-ns#"
   xmlns:svg="http://www.w3.org/2000/svg"
   xmlns="http://www.w3.org/2000/svg"
   xmlns:xlink="http://www.w3.org/1999/xlink"
   xmlns:sodipodi="http://sodipodi.sourceforge.net/DTD/sodipodi-0.dtd"
   xmlns:inkscape="http://www.inkscape.org/namespaces/inkscape"
   id="svg2"
   version="1.1"
   inkscape:version="0.91 r"
   width="2481"
   height="663"
   sodipodi:docname="Pepper-and-Carrot_by-David-Revoy_E02P00.svg">
  <metadata
     id="metadata8">
    <rdf:RDF>
      <cc:Work
         rdf:about="">
        <dc:format>image/svg+xml</dc:format>
        <dc:type
           rdf:resource="http://purl.org/dc/dcmitype/StillImage" />
        <dc:title />
      </cc:Work>
    </rdf:RDF>
  </metadata>
  <defs
     id="defs6" />
  <sodipodi:namedview
     pagecolor="#ffffff"
     bordercolor="#666666"
     borderopacity="1"
     objecttolerance="10"
     gridtolerance="10"
     guidetolerance="10"
     inkscape:pageopacity="0"
     inkscape:pageshadow="2"
     inkscape:window-width="1000"
     inkscape:window-height="939"
     id="namedview4"
     showgrid="false"
     inkscape:zoom="0.38931533"
     inkscape:cx="1047.3794"
     inkscape:cy="190.57605"
     inkscape:window-x="666"
     inkscape:window-y="35"
     inkscape:window-maximized="0"
     inkscape:current-layer="layer1" />
  <g
     inkscape:groupmode="layer"
     id="layer2"
     inkscape:label="artwork"
     sodipodi:insensitive="true">
    <image
       sodipodi:absref="/home/deevad/peppercarrot/webcomics/New/lang/eo/../gfx_Pepper-and-Carrot_by-David-Revoy_E02P00.png"
       xlink:href="../gfx_Pepper-and-Carrot_by-David-Revoy_E02P00.png"
       width="2481"
       height="663"
       id="image10"
       x="-1.6728083e-06"
       y="0" />
  </g>
  <g
     inkscape:groupmode="layer"
     id="layer1"
     inkscape:label="text">
    <flowRoot
       xml:space="preserve"
       id="flowRoot3063"
       style="font-style:normal;font-variant:normal;font-weight:normal;font-stretch:normal;font-size:72px;line-height:125%;font-family:Arial;-inkscape-font-specification:Arial;letter-spacing:0px;word-spacing:0px;display:inline;fill:#562f13;fill-opacity:1;stroke:none"
       transform="matrix(0.77923967,0,0,0.77489763,113.44943,205.06335)"><flowRegion
         id="flowRegion3065"><rect
           id="rect3067"
           width="2715.5891"
           height="110.01318"
           x="92.642677"
           y="425.30325"
           style="font-size:72px;fill:#562f13;fill-opacity:1" /></flowRegion><flowPara
         id="flowPara3069"
         style="font-style:normal;font-variant:normal;font-weight:normal;font-stretch:normal;font-size:88px;font-family:Lavi;-inkscape-font-specification:Lavi;text-align:center;text-anchor:middle;fill:#562f13;fill-opacity:1">Rakontaĵo 2a: La ĉielarkaj Sorĉotrinkaĵoj</flowPara></flowRoot>    <path
       style="display:inline;fill:#562f13;fill-opacity:1;stroke:none"
       d="m 717.95443,509.87877 c -1.97284,-1.7322 -4.2392,-4.41067 -5.03636,-5.95221 l -1.44936,-2.80277 0,-4.09638 0,-4.09639 2.45531,-2.45531 2.45531,-2.45531 1.79602,-0.0318 c 0.98781,-0.0175 2.6639,-0.6884 3.72466,-1.4909 l 1.92865,-1.4591 0.74919,-5.26117 0.74917,-5.26127 0.0731,-22.82282 0.073,-22.82281 -1.0355,-1.93486 -1.03551,-1.93485 -1.78386,0 c -0.98114,0 -4.17019,-0.70869 -7.08679,-1.57488 l -5.30291,-1.57474 -2.38098,-2.38104 -2.38099,-2.38092 0,-1.54593 0,-1.54593 5.75179,-0.0413 5.7518,-0.0414 4.50141,-2.2095 4.50139,-2.20939 0.28582,-35.01095 0.2858,-35.01095 -1.18733,-4.3273 -1.18735,-4.32742 -2.0994,-1.36174 -2.09941,-1.36174 -8.75273,-0.70042 -8.75272,-0.70029 0,-1.1981 0,-1.1981 4.42418,-4.48768 4.42418,-4.48756 12.66048,-5.72249 12.66049,-5.72262 1.92665,0.61145 c 1.05966,0.33643 3.27465,1.74578 4.9222,3.13208 l 2.99553,2.52063 0,1.34006 c 0,0.73713 0.70737,2.0475 1.57193,2.91206 l 1.57192,1.57186 10.31991,0 10.31993,0 8.67203,2.51311 c 4.76963,1.38216 10.84299,3.61322 13.49642,4.9578 2.6534,1.34457 8.39991,5.13885 12.77002,8.43182 l 7.94562,5.98724 2.74596,3.96243 2.74595,3.96244 1.43184,4.75769 1.43185,4.75758 0,6.75407 0,6.75407 -1.87213,6.0152 -1.87212,6.01519 -3.70043,6.61699 -3.70042,6.617 -6.01623,6.43131 -6.01624,6.43143 -6.6669,4.91319 c -3.6668,2.70218 -8.91759,6.0271 -11.66845,7.38859 -2.75088,1.36161 -10.17819,4.18947 -16.50516,6.28433 -6.32696,2.09473 -12.51639,4.17606 -13.75427,4.62513 l -2.25071,0.81644 0,21.5736 0,21.57359 2.41464,2.41462 2.41463,2.41463 2.83699,0.6013 c 1.56036,0.33066 3.59335,1.0084 4.51778,1.50596 l 1.68075,0.90478 4.36183,-0.0877 c 2.39902,-0.0476 6.65988,0.22858 9.46861,0.61489 l 5.10676,0.70235 3.1781,-1.64352 3.17809,-1.64341 2.94559,0.64692 c 1.62007,0.35584 4.96327,0.64704 7.42933,0.64704 2.46607,0 4.48375,0.2105 4.48375,0.46786 0,0.25724 -1.62551,1.14697 -3.61224,1.97708 -3.64476,1.52286 -11.4831,6.44245 -16.74981,10.51266 l -2.8566,2.20761 -6.50864,1.80479 -6.50864,1.80479 -4.63913,2.94955 -4.63914,2.94957 -7.50234,2.11939 c -4.12627,1.16569 -9.79261,2.77879 -12.59181,3.58468 l -5.08947,1.46519 -4.12862,0 -4.12859,0 -3.58699,-3.14943 z m 44.17842,-107.33277 8.85441,-4.44922 8.06349,-6.4734 8.06348,-6.47341 4.83037,-5.83263 4.83036,-5.83263 2.86028,-6.00191 2.86026,-6.00179 7.9e-4,-4.30111 8e-4,-4.30098 -1.46455,-2.83212 c -0.8055,-1.55758 -2.86106,-4.00716 -4.56792,-5.44333 l -3.10339,-2.61134 -5.68526,-1.70744 -5.68528,-1.70744 -8.50265,-0.0263 -8.50265,-0.0263 -5.52704,1.24935 -5.52704,1.24935 -3.22568,1.96166 -3.22569,1.96167 0,29.97434 0,29.97434 1.75054,1.01955 c 0.9628,0.56083 2.26746,1.03333 2.89925,1.05 0.63179,0.0163 5.13319,-1.97169 10.00312,-4.41877 z m 73.37451,108.90209 c -1.37542,-0.88927 -3.7297,-3.20924 -5.23173,-5.15548 l -2.73097,-3.53865 -0.6154,-3.28044 -0.61543,-3.28046 1.34577,-2.83594 1.34575,-2.83595 4.42005,-2.12108 4.42005,-2.12111 1.33175,-1.82126 1.33173,-1.82126 0,-27.69364 0,-27.69366 -5.25164,-0.58677 c -2.88839,-0.32264 -7.01523,-0.94274 -9.17073,-1.3779 l -3.91909,-0.79113 -0.31598,-0.99663 c -0.17378,-0.54818 0.0346,-1.54931 0.46323,-2.22479 l 0.77918,-1.22805 7.7326,-1.4794 c 4.25295,-0.81381 8.17132,-1.75066 8.70751,-2.08208 l 0.97492,-0.60255 0,-40.50327 0,-40.50328 -1.45962,-2.82259 -1.45964,-2.82259 -8.29343,-1.17793 c -4.56136,-0.64792 -9.75634,-1.40133 -11.54441,-1.67448 l -3.251,-0.49644 0,-0.7806 c 0,-0.4294 1.0128,-1.70306 2.25068,-2.83036 2.44945,-2.23069 15.07281,-10.30277 16.11174,-10.30277 0.35241,0 4.65045,-1.80543 9.55117,-4.01218 l 8.9104,-4.01205 2.8428,1.08083 c 1.56351,0.59441 3.63138,1.79439 4.5952,2.66659 l 1.75231,1.5859 0,2.72925 0,2.72924 2.25072,0.60319 c 1.23795,0.33179 6.76118,0.60932 12.27401,0.61684 l 10.02318,0.0138 7.17705,1.98886 c 3.94734,1.09386 9.73723,3.12105 12.86628,4.50497 l 5.68949,2.51612 6.61954,4.92559 c 3.64084,2.70908 8.28537,6.6462 10.32143,8.74908 l 3.70173,3.8236 2.21969,5.00152 2.21955,5.00166 0.44764,7.55473 0.44764,7.55485 -2.92795,8.49434 -2.92783,8.49435 -3.85113,5.80193 c -2.11807,3.19109 -6.1075,8.27081 -8.86536,11.28824 l -5.01422,5.48643 -3.19008,-0.59842 -3.18994,-0.59855 -1.04294,1.26977 c -0.57362,0.69841 -1.19867,2.39081 -1.38908,3.76108 l -0.34588,2.4913 -4.92207,3.21603 -4.9222,3.21603 -12.41428,4.54582 -12.41435,4.54582 -2.16965,0.015 c -1.19325,0.0125 -2.84477,0.44193 -3.67003,0.96342 l -1.50049,0.94801 0,21.46207 0,21.46208 2.38463,2.53917 2.38451,2.53929 5.19459,1.07845 5.1946,1.07831 9.92635,-0.0288 c 5.45944,-0.0163 12.54084,-0.0802 15.73661,-0.14321 l 5.81032,-0.11402 0.68337,0.68325 0.68338,0.68339 -1.99234,1.16859 c -1.09571,0.64274 -4.85631,2.41214 -8.35681,3.932 l -6.36448,2.76341 -2.96517,2.495 c -1.63074,1.37222 -3.5424,2.49495 -4.24794,2.49495 l -1.28286,0 -4.39221,3.85867 c -2.41564,2.12224 -6.31986,4.83968 -8.67593,6.03875 l -4.2838,2.1801 -9.72052,2.64239 -9.72061,2.6424 -5.00153,0.34003 -5.00161,0.34003 -2.50079,-1.61684 z m 40.79214,-107.9155 7.22529,-3.46261 7.25111,-5.38294 7.25097,-5.38293 7.0021,-7.42279 7.00224,-7.42292 2.8032,-5.78239 2.80319,-5.78238 0.50665,-4.70758 0.50664,-4.70758 -1.80925,-3.47565 -1.80952,-3.47552 -4.00121,-2.783 -4.0012,-2.783 -7.50239,-1.58727 -7.5024,-1.58716 -6.50193,0.58013 c -3.57618,0.31901 -9.20288,1.26915 -12.50392,2.11128 l -6.00183,1.53127 -2.29412,2.58966 -2.29413,2.58979 0.29344,28.25074 0.29357,28.25073 1.37284,1.65231 1.37282,1.65243 1.65638,0 c 0.91089,0 4.90756,-1.55821 8.88146,-3.46262 z m 344.828,77.55734 c -2.7509,-0.98046 -7.2927,-2.94426 -10.0932,-4.36401 l -5.0915,-2.5814 -3.1549,-3.59317 c -1.7353,-1.97621 -4.1555,-5.4937 -5.3789,-7.81661 l -2.2238,-4.22355 -0.033,-7.50235 -0.033,-7.50236 3.158,-6.66574 3.158,-6.66574 7.7623,-8.12458 7.7621,-8.12459 -2.81,-5.87924 -2.8102,-5.87924 0.6002,-3.00065 0.6002,-3.00051 -1.4317,-1.1882 -1.4317,-1.18808 1.5527,-3.0024 1.5525,-3.00239 -2.2199,-2.36313 -2.22,-2.363 0.6344,-4.62776 0.6342,-4.62764 1.9924,-4.50422 1.9925,-4.50422 4.254,-5.08097 4.2541,-5.08109 4.3913,-2.78488 4.3914,-2.78487 5.4175,-1.21239 5.4174,-1.21238 5.208,1.64529 5.208,1.64529 5.7106,3.57651 5.7105,3.57651 3.6439,5.99865 3.6442,5.99865 0.5117,3.81596 0.5119,3.81608 -2.2083,6.9969 -2.2083,6.99691 -3.8431,4.89389 c -2.1139,2.69166 -5.4957,7.36967 -7.5155,10.39562 -2.0197,3.02595 -5.02,6.69794 -6.6673,8.16005 l -2.9949,2.65832 0.8517,1.45296 c 0.4685,0.79903 4.9505,5.80419 9.9599,11.12247 l 9.1085,9.66976 1.1946,-1.43955 1.1946,-1.43942 0.2004,-2.83851 0.2003,-2.83838 -3.7461,-0.31024 -3.7462,-0.31011 -2.5057,-3.28532 -2.5059,-3.28544 0,-2.08484 0,-2.08484 1.4329,-1.43291 1.4331,-1.43303 8.32,-2.58653 c 4.5761,-1.42264 10.5706,-3.098 13.3217,-3.72311 l 5.0015,-1.13633 12.0037,-0.39482 c 6.6021,-0.21701 14.3669,-0.6622 17.2554,-0.98923 l 5.2517,-0.59454 -7e-4,1.32227 -5e-4,1.3224 -7.1139,6.5021 c -3.9127,3.57601 -8.5263,7.90745 -10.2526,9.62528 l -3.1386,3.12331 -4.8795,0.70831 c -2.6837,0.38956 -5.4971,0.94538 -6.2519,1.23507 l -1.3727,0.52675 0,4.85694 0,4.85706 -2.1342,5.7042 -2.1343,5.70432 2.8741,2.08572 c 1.5809,1.1471 4.6795,3.47489 6.8859,5.17293 l 4.0115,3.08735 -0.1857,1.41412 c -0.1014,0.77772 -0.8083,3.09862 -1.5691,5.15739 l -1.383,3.74354 -2.3566,2.50847 -2.3566,2.50847 -3.0767,0 -3.0767,0 -3.2752,-1.997 c -1.8014,-1.09774 -3.8788,-1.99625 -4.6166,-1.99625 -0.7378,0 -2.4859,-0.9004 -3.8849,-2.00064 -1.3988,-1.10037 -3.1475,-1.98911 -3.886,-1.97508 -0.7385,0.0138 -3.8184,1.6062 -6.8444,3.53805 l -5.5017,3.51236 -9.4631,2.96405 -9.4633,2.96401 -5.0413,-0.0732 -5.0412,-0.0732 -5.0017,-1.78274 z m 24.2724,-24.20749 4.3977,-2.12882 0.4897,-1.27641 0.4899,-1.27641 -10.3234,-10.0929 -10.3235,-10.09289 -1.2077,0 -1.2078,0 -2.7935,3.68213 c -1.5364,2.0252 -4.2564,5.03399 -6.0445,6.68604 l -3.251,3.00403 0,1.35272 0,1.35284 4.2513,4.33757 c 2.3381,2.38568 5.1516,4.83138 6.252,5.43494 l 2.0006,1.09736 6.4363,0.0301 6.4362,0.0301 4.3977,-2.12894 z m -5.3512,-61.47844 7.723,-6.58956 1.9288,-3.1634 1.9291,-3.16353 0,-3.17431 0,-3.17418 -2.4805,-2.94801 -2.4805,-2.94789 -3.0044,-1.24446 -3.0047,-1.24459 -3.4575,0.64867 -3.4574,0.64854 -2.7126,3.21703 c -1.4921,1.76934 -3.3197,4.66548 -4.0616,6.43594 l -1.3494,3.21879 0,3.87447 0,3.87435 1.4166,4.70695 c 1.4068,4.67488 3.1655,7.61475 4.5551,7.61475 0.3988,0 4.2005,-2.96531 8.4482,-6.58956 z m 177.4209,58.60999 c -3.1464,-0.40359 -8.9109,-1.75944 -12.8098,-3.01317 l -7.0887,-2.2793 -5.9399,-3.60784 c -3.2668,-1.98422 -8.2417,-5.40837 -11.0553,-7.60898 l -5.1153,-4.00128 -5.784,-6.80682 -5.7842,-6.8067 -3.0262,-5.69718 c -1.6643,-3.13334 -3.946,-8.62303 -5.0705,-12.19916 -1.1246,-3.57614 -2.9999,-11.6689 -4.1675,-17.98418 l -2.1229,-11.48208 0.4447,-4.52289 c 0.6423,-6.53405 3.4694,-21.04583 6.2554,-32.10954 2.7738,-11.01496 8.7065,-28.49319 11.6755,-34.39724 4.4232,-8.79531 15.5512,-26.45884 22.3814,-35.52605 3.9624,-5.26014 10.2915,-12.72127 14.0646,-16.58008 3.7729,-3.85894 10.0093,-9.39712 13.8585,-12.30729 l 6.9988,-5.2911 8.2946,-4.11015 8.2945,-4.11003 10.7149,-0.0677 10.7147,-0.0677 9.503,3.83463 c 5.2267,2.10902 10.4033,3.90955 11.5038,4.00127 l 2.0003,0.16652 0.5004,-5.54695 0.5001,-5.54695 1.8558,-2.83099 1.8557,-2.83086 5.5036,0.64679 5.5033,0.64679 5.4064,2.55759 5.4064,2.55771 3.4894,3.29096 3.4894,3.29095 0,5.00855 c 0,2.75455 -0.2814,6.41577 -0.6254,8.13599 l -0.6254,3.12757 -3.9457,4.48241 -3.9458,4.48255 0.6291,1.01767 0.6289,1.01767 1.8307,0 1.8308,0 2.3105,1.87083 2.3104,1.87095 -1.1879,13.88392 c -1.3673,15.97965 -2.3932,23.61357 -4.5304,33.70697 -0.8369,3.95203 -1.9575,9.43621 -2.4903,12.18713 -0.5331,2.7508 -1.71,8.31053 -2.6158,12.35503 l -1.6463,7.3535 -2.4831,4.90029 -2.4832,4.90028 -0.8667,0 -0.8669,0 -0.6031,-2.25073 c -0.3318,-1.23782 -0.6094,-4.62839 -0.6168,-7.53443 l -0.014,-5.2837 -1.3517,-3.23507 -1.3516,-3.23495 -0.7376,-12.94794 -0.7375,-12.94794 -4.2864,-12.54398 -4.2863,-12.54386 -4.3076,-8.39961 -4.3076,-8.39962 -3.5941,-3.77811 -3.5941,-3.77812 -2.7714,-0.69553 -2.7715,-0.69553 -4.3812,1.67311 c -2.4096,0.92031 -7.2292,3.55283 -10.7098,5.85004 l -6.3289,4.17682 -9.3229,9.44999 -9.3231,9.45012 -7.3692,11.07748 -7.3693,11.07737 -6.9923,14.50452 c -7.509,15.57669 -12.5388,28.45434 -16.6358,42.59211 l -2.5687,8.8641 -0.6194,7.5323 -0.6195,7.5323 -2.3414,2.81721 -2.3415,2.81733 1.4719,2.84652 c 0.8098,1.56548 2.7544,3.89891 4.3219,5.18522 l 2.8499,2.33869 2.6795,4.69279 2.6794,4.6928 4.7438,4.85743 4.7436,4.85769 4.8468,2.33856 4.8466,2.33869 11.1584,-0.52424 11.1583,-0.52425 9.6867,-3.13784 c 5.3278,-1.72586 12.2749,-4.2827 15.4385,-5.68165 l 5.7515,-2.54368 1.7775,0.46486 1.7774,0.46473 2.8728,-2.74541 2.873,-2.74541 7.0536,-2.69541 7.0539,-2.69542 1.8642,-2.0599 c 1.0253,-1.13295 3.0398,-2.66785 4.4764,-3.41087 l 2.6124,-1.35084 1.1867,-2.79803 1.1867,-2.79804 5.6618,-3.43931 c 3.1141,-1.89163 7.3529,-4.96719 9.4199,-6.83451 l 3.7581,-3.39521 3.9701,-6.28621 3.9701,-6.28621 1.496,-0.57412 1.4962,-0.57411 1.224,1.47513 1.2243,1.47514 -1.1155,2.21652 c -0.6136,1.21915 -2.2213,6.80232 -3.5725,12.40716 l -2.457,10.1905 -4.828,8.81535 -4.828,8.81548 -6.6859,6.69068 -6.6856,6.6908 -2.8701,1.48403 -2.87,1.48403 -1.9283,-0.17228 -1.9286,-0.17229 -2.7829,5.50172 -2.7827,5.50172 -10.7437,6.6938 -10.7433,6.69381 -9.0028,2.98961 -9.003,2.98975 -7.8248,1.06992 c -8.5693,1.17166 -13.2217,1.18732 -21.9035,0.0739 z m -943.43764,-17.39979 -3.86395,-1.45208 -2.97976,-2.82998 -2.97978,-2.82999 -1.96424,-3.81959 -1.96424,-3.81959 -0.56159,-4.74166 -0.5616,-4.74178 2.38606,-2.77398 2.38606,-2.77398 6.26813,-0.73901 6.26813,-0.73913 1.70276,-1.70268 1.70277,-1.7028 0.51306,-9.22383 0.51307,-9.22395 3.00093,-0.51109 3.00094,-0.51109 0.31046,-2.68339 0.31049,-2.68351 -2.81125,-1.79014 c -1.54619,-0.98447 -3.14198,-2.2506 -3.54618,-2.81344 l -0.73491,-1.02344 -0.0154,-28.79039 -0.0153,-28.79027 1.25039,-0.38529 c 0.6877,-0.21176 2.43862,-0.64391 3.89091,-0.96029 l 2.64052,-0.57499 0.63528,-1.65557 0.63529,-1.65556 -1.27519,-1.70719 c -0.70135,-0.93899 -2.79046,-3.68653 -4.64245,-6.10553 l -3.36728,-4.39822 0.80865,-16.00509 c 0.44475,-8.8027 0.83466,-20.35833 0.86648,-25.67924 l 0.0578,-9.67428 -2.41546,-2.56936 -2.41546,-2.56924 -5.58704,-2.08321 -5.58702,-2.08321 -2.16986,-2.02669 -2.16987,-2.0267 -2.13023,-4.95191 -2.13026,-4.95179 -0.16386,-5.91244 -0.16388,-5.91233 2.3428,-2.49381 2.34279,-2.49381 8.62321,-3.15212 8.62321,-3.15213 15.50484,-2.89301 15.50482,-2.89301 18.00561,0.0213 18.00561,0.0213 9.61898,0.9361 9.61894,0.93598 8.22005,3.00002 c 4.52103,1.64992 11.00324,4.55634 14.40492,6.45874 3.40169,1.90228 8.22329,5.25301 10.71469,7.44597 l 4.52978,3.98737 6.34581,8.84831 6.34579,8.84843 4.79392,10.00318 4.79393,10.00306 1.68014,6.5021 1.68013,6.50197 0.0897,7.50236 0.0898,7.50235 -1.2957,5.50172 -1.29567,5.50172 -3.91065,8.00242 -3.91065,8.00255 -5.74749,6.67814 c -3.16111,3.67299 -7.9982,8.67665 -10.74906,11.11934 -2.75085,2.44269 -8.52725,6.97009 -12.83641,10.06082 l -7.83489,5.61962 -12.17136,5.88889 c -15.34444,7.42405 -33.25016,14.59261 -41.68056,16.68684 -3.57612,0.88837 -8.1698,2.04337 -10.20819,2.56649 l -3.70616,0.95126 -1.54546,1.54543 -1.54549,1.54555 0,12.97801 0,12.97814 2.29447,2.29446 2.29447,2.29446 4.07763,0.65205 4.07766,0.65205 1.25269,1.50947 1.25272,1.50934 5.12915,0.015 5.12917,0.015 4.31776,1.50395 4.31776,1.50383 0.92655,-0.57261 c 0.87251,-0.53929 21.9296,-1.65895 28.44977,-1.51285 1.6505,0.0376 4.57643,0.0739 6.50202,0.0814 1.9256,0.0125 4.11447,0.23406 4.86414,0.5027 l 1.36306,0.48853 -1.23546,1.48867 -1.23546,1.48867 -1.56231,0 c -0.85929,0 -3.61754,0.95628 -6.12947,2.12506 -2.51192,1.1689 -7.26799,3.38042 -10.56903,4.91469 -3.30102,1.53416 -8.7027,3.55183 -12.00372,4.48368 -3.30104,0.93171 -7.48013,2.32127 -9.28684,3.08784 l -3.28497,1.3937 -3.74473,0 -3.74474,0 -2.18767,1.53227 c -3.27052,2.29082 -9.66549,4.36125 -20.26434,6.56099 l -9.50297,1.97219 -12.00373,0.49982 -12.00374,0.49968 -3.86395,-1.45208 z m 74.75079,-111.33409 8.86756,-3.50422 4.32901,0.64917 4.32905,0.64917 1.60367,-2.44745 1.60368,-2.44757 -0.60246,-2.40034 -0.60246,-2.40034 1.97406,-1.78662 1.9741,-1.78651 2.14777,1.14949 2.14777,1.14949 1.52275,-1.26376 1.52277,-1.26376 -0.55656,-2.78275 -0.55656,-2.78287 4.99674,-5.70996 c 6.2421,-7.13323 11.27608,-14.6733 14.75861,-22.10599 l 2.6907,-5.74267 6.5e-4,-9.0028 6.6e-4,-9.0028 -2.66125,-5.67689 -2.66123,-5.67701 -4.0934,-4.44082 -4.0934,-4.44069 -5.83263,-2.6176 -5.83266,-2.61748 -7.676,-1.14172 -7.676,-1.14159 -9.74607,1.18256 c -5.36033,0.65055 -10.49693,1.39958 -11.41465,1.66459 l -1.66861,0.48177 -3.46502,-3.04237 -3.46502,-3.04224 -2.08345,0 -2.08346,0 -1.03551,1.93486 c -0.56952,1.06416 -1.0355,3.0143 -1.0355,4.33381 l 0,2.39896 -3.67274,2.41826 c -2.02002,1.33004 -4.55477,3.61748 -5.63279,5.0831 l -1.96005,2.66484 -0.82319,15.84095 -0.82324,15.84095 -0.046,28.56774 -0.046,28.56774 1.25039,1.57662 c 0.68772,0.86707 1.92561,1.77924 2.75087,2.02683 l 1.50045,0.45032 11.50359,-2.42916 11.50359,-2.42915 8.86753,-3.50409 z m 94.16459,109.02597 c -1.65051,-0.21889 -5.39861,-1.0743 -8.32907,-1.90089 l -5.32814,-1.50296 -4.21817,-4.21816 -4.21816,-4.21816 -4.39389,-11.48647 -4.39389,-11.48658 -0.41748,-13.46505 -0.41747,-13.46492 1.18807,-7.3649 1.18808,-7.36478 2.40893,-7.08248 c 1.32492,-3.89552 4.0237,-10.02035 5.99727,-13.61077 4.29762,-7.81861 11.14167,-16.91401 17.65931,-23.4686 l 4.76917,-4.79617 8.29095,-3.97822 8.29095,-3.97822 5.10018,-0.60406 5.10016,-0.60406 5.18947,2.82447 5.18946,2.82447 5.31168,5.10365 5.31169,5.10365 2.49452,4.95141 2.49455,4.95153 1.12473,5.30087 1.12473,5.30086 -0.005,12.70474 -0.005,12.70473 -1.04437,3.76058 -1.04435,3.76057 -2.20107,1.42828 -2.20108,1.42827 -7.00219,1.14498 c -7.0205,1.14785 -41.50807,9.71349 -49.01527,12.17372 l -4.00126,1.31137 -1.74353,3.56411 -1.74358,3.56411 1.69613,4.43831 c 0.93287,2.44118 2.74624,6.14274 4.0297,8.22583 l 2.33356,3.78739 3.21557,2.02807 3.21559,2.02795 6.09159,-0.43566 6.09158,-0.43579 6.41231,-2.82798 c 3.52677,-1.55532 11.81146,-6.05804 18.41042,-10.00593 l 11.99809,-7.17796 1.36291,0.52299 1.36289,0.523 -0.53482,3.29559 c -0.29414,1.81256 -1.44229,5.3471 -2.55139,7.85444 l -2.01658,4.55885 -2.48558,0 -2.48558,0 -1.63896,1.6389 -1.63894,1.63903 0.15979,4.11279 c 0.088,2.26213 0.11803,4.60082 0.067,5.19737 l -0.0927,1.08445 -8.78106,4.17306 -8.78108,4.17293 -6.97384,1.47727 c -6.90688,1.4631 -9.16044,1.58552 -14.97633,0.81418 z m 9.56145,-73.81329 16.44667,-3.69868 4.16577,-1.81382 4.16578,-1.81381 1.08586,-2.02896 1.08586,-2.02895 0,-10.54873 0,-10.54886 -1.61274,-4.03059 -1.61273,-4.03059 -2.36238,-0.59291 -2.36239,-0.59291 -4.51552,2.18595 -4.51552,2.18582 -7.47407,6.97999 c -4.11076,3.83901 -9.00901,9.09064 -10.88497,11.67028 -1.87599,2.57964 -5.3185,8.36866 -7.65005,12.86449 l -4.23916,8.17433 0.70877,1.14673 0.70878,1.14685 1.2077,-0.46335 c 0.66424,-0.25498 8.60868,-2.12794 17.65434,-4.16228 z m 316.92266,72.12979 c -1.99045,-0.71132 -5.25794,-2.30624 -7.26112,-3.54431 l -3.64232,-2.25099 -2.50292,-4.27103 c -1.37664,-2.34897 -4.18605,-8.94943 -6.24308,-14.66754 l -3.74017,-10.39649 0.0933,-16.00497 0.0933,-16.00509 2.16744,-8.00242 2.16732,-8.00254 4.05574,-8.50261 4.05587,-8.50262 5.41817,-7.08937 c 2.97992,-3.89915 7.91025,-9.44635 10.95621,-12.32696 l 5.53792,-5.23772 7.53403,-3.48078 7.5338,-3.48091 4.86936,-0.57675 4.8694,-0.57662 4.3345,2.11629 4.3346,2.11641 6.2102,5.55835 6.2104,5.55836 3.2926,6.68278 3.2926,6.68278 0.3242,17.53185 0.3241,17.53197 -1.0297,2.69842 -1.0298,2.69855 -2.2954,1.48929 -2.2952,1.4893 -9.0335,1.5567 c -4.9684,0.85617 -17.5723,3.83012 -28.00876,6.60873 l -18.97533,5.05215 -4.50136,2.20751 -4.50149,2.20737 0.16821,6.17257 0.16806,6.17256 2.04134,4.61461 2.0412,4.61461 3.51026,1.46661 3.51038,1.46675 7.28426,-0.0176 7.28454,-0.0175 8.43632,-3.42114 8.43617,-3.42114 1.9002,1.01692 1.9001,1.01692 1.8275,-1.65394 c 1.005,-0.90954 2.0768,-2.63339 2.3818,-3.83087 l 0.5546,-2.17705 6.2929,-4.25137 6.2934,-4.25124 1.8406,0 1.8407,0 2.8613,-2.03748 c 1.5736,-1.12054 4.944,-2.95866 7.4897,-4.08484 l 4.6286,-2.04738 0.523,0.523 0.5229,0.52299 -1.6766,4.3902 -1.6767,4.39033 -3.9004,5.15326 c -2.1452,2.83437 -4.7988,6.91433 -5.8969,9.0667 l -1.9965,3.91344 -5.0618,4.42804 -5.0616,4.42791 -9.2276,4.64406 -9.2274,4.64405 -4.76042,1.24897 -4.76033,1.24885 -1.54818,-2.21039 -1.54831,-2.21051 -2.69404,0 -2.69416,0 -4.00141,2.46449 c -2.20075,1.35548 -4.67647,2.45873 -5.50166,2.45171 -0.82532,-0.0125 -3.12905,-0.59466 -5.11937,-1.30586 z m 16.12268,-71.7024 c 7.42743,-1.64517 16.32227,-3.91833 19.76657,-5.0514 l 6.2621,-2.06015 1.1045,-2.06354 1.1043,-2.06366 0.1358,-11.60574 0.1356,-11.60562 -2.0816,-3.50109 -2.0816,-3.50108 -3.5029,0.099 -3.5031,0.099 -6.14941,4.17607 -6.14951,4.17606 -2.37653,-0.59655 -2.37666,-0.59641 -1.64517,1.64516 -1.64516,1.64517 0.61283,2.44131 0.61271,2.44131 -3.96639,5.23871 c -2.18153,2.88136 -5.83292,8.67026 -8.11419,12.86425 l -4.14774,7.62552 0,2.24421 0,2.24422 2.25067,-0.65193 c 1.23793,-0.35847 8.32758,-1.998 15.75488,-3.64317 z m 621.46367,72.38001 -2.2307,-0.4309 -2.0208,-2.56874 -2.0204,-2.56861 0,-1.74328 0,-1.74327 -1.4126,-1.17242 -1.4128,-1.17241 -6.0621,2.55157 c -3.3341,1.40334 -9.5632,3.70733 -13.842,5.12006 l -7.78,2.56849 -9.0829,0.5681 -9.0831,0.5681 -5.3076,-1.76282 -5.3077,-1.76294 -3.8593,-3.48667 -3.8594,-3.4868 -1.5062,-5.07182 -1.5062,-5.07195 0,-4.77449 0,-4.77449 2.4236,-6.67676 2.4235,-6.67689 3.744,-5.43594 3.7437,-5.43581 5.5863,-4.0331 5.5863,-4.03297 12.0037,-5.84779 12.0037,-5.8478 8.812,-2.1971 8.812,-2.19711 2.1007,-1.70104 2.1005,-1.70105 -1.1044,-9.72176 -1.1042,-9.72164 -1.8057,-3.69442 -1.8058,-3.69429 -8.0025,-0.28167 -8.0026,-0.28167 -8.0024,3.89001 -8.0026,3.89 -7.5023,5.5665 c -4.1262,3.06154 -8.0771,6.16417 -8.7797,6.89491 -0.7026,0.73062 -2.3592,2.67888 -3.6816,4.32943 l -2.4042,3.00089 -1.203,-1.18344 -1.2031,-1.18357 2.6994,-6.81897 c 1.4845,-3.75043 4.1327,-9.22909 5.8849,-12.17473 l 3.1857,-5.35562 5.8756,-4.92798 c 3.2317,-2.71045 7.7479,-6.02509 10.0359,-7.36603 2.2881,-1.34082 6.1711,-3.15363 8.6288,-4.02821 l 4.4686,-1.59016 7.199,-0.0401 7.1989,-0.0401 5.3506,2.44958 5.3506,2.4497 3.6651,3.21791 3.6652,3.21803 2.4264,5.18347 2.4267,5.18358 1.1373,5.40562 1.1375,5.40561 0.963,14.10044 c 0.5297,7.7552 0.9697,18.03918 0.9778,22.85314 l 0.015,8.7527 0.9412,0 c 0.5176,0 1.2194,-0.45007 1.5595,-1.00025 l 0.6182,-1.00038 2.0667,0 2.0665,0 -0.649,3.25111 c -0.3572,1.788 -1.9888,6.11493 -3.6263,9.61526 l -2.9768,6.36427 0,1.88824 0,1.88837 1.0555,0 c 0.5804,0 3.6189,-1.31475 6.7522,-2.92158 8.396,-4.306 14.6732,-7.0816 16.0154,-7.0816 l 1.1847,0 0,0.92959 c 0,0.51134 -1.8318,3.68715 -4.0702,7.05754 l -4.0703,6.12784 -0.771,4.87723 -0.7711,4.87711 -1.6207,2.47351 -1.6208,2.47364 -5.2917,3.00377 -5.2916,3.00377 -5.4331,1.59392 c -2.9883,0.87671 -5.6891,1.53265 -6.002,1.45772 -0.3128,-0.0752 -1.5725,-0.33016 -2.7994,-0.5671 z m -35.7749,-22.77383 7.6847,-1.47024 5.6576,-2.58027 c 3.1114,-1.41913 7.3475,-3.74604 9.413,-5.17081 l 3.7554,-2.59054 1.9963,-3.22993 1.9962,-3.23007 0,-4.17869 0,-4.17882 -2.4552,-2.45522 -2.4555,-2.45534 -1.9239,0 -1.9241,0 -1.5036,-2.25074 -1.5034,-2.2506 -1.9141,1.71959 -1.9143,1.71959 -6.7706,2.09123 -6.7707,2.09135 -3.6879,3.25976 c -2.0284,1.79277 -5.8095,4.7562 -8.4025,6.5853 l -4.7146,3.32566 -2.4377,3.60809 c -1.3407,1.98447 -2.745,4.64293 -3.1208,5.90781 l -0.6833,2.2996 1.6066,2.45183 1.6066,2.45184 5.3907,0 5.3906,0 7.6845,-1.47038 z m -506.9952,18.07778 -3.6703,-3.67024 -2.5007,-4.93487 -2.5008,-4.93487 0,-2.47501 0,-2.47502 1.2455,-0.7697 1.2454,-0.76971 8.5077,-0.0401 8.5076,-0.0401 0.6023,-20.00624 0.6022,-20.00624 1.228,-5.23709 1.2281,-5.23709 -0.3298,-12.94105 -0.3299,-12.94104 -2.2154,-2.35511 -2.2156,-2.3551 0.5784,-2.21164 0.5784,-2.21177 -1.6815,-0.64516 -1.6814,-0.64528 -2.183,1.14898 -2.1832,1.14886 -5.0017,-1.91293 -5.0015,-1.9128 -0.3407,-1.69315 -0.3407,-1.69316 2.2208,-2.36375 2.2206,-2.36388 8.6233,-3.16829 8.6232,-3.16829 5.5645,-0.11778 5.5642,-0.11778 2.7717,1.81608 2.7717,1.81607 1.417,3.39119 1.4169,3.3912 0,5.0336 0,5.03373 1.2504,-5e-4 1.2504,-6.2e-4 5.7208,-6.39723 5.7206,-6.3971 4.3481,-2.10488 4.3482,-2.10501 4.604,0 c 2.5321,0 5.3503,0.28655 6.2628,0.63664 l 1.6589,0.63664 0.8988,2.36425 0.8991,2.36438 2.8385,0 2.8385,0 2.5641,2.75092 2.5641,2.7508 4.1251,8.53782 4.1251,8.53781 -0.058,1.96543 c -0.031,1.08108 -0.8603,5.04388 -1.8412,8.80646 l -1.7833,6.84091 -4.411,1.97081 -4.4107,1.97069 -2.6578,2.53967 -2.6577,2.5398 -5.9715,-2.67988 -5.9713,-2.67975 -1.0863,-2.38393 -1.086,-2.38392 0.8288,-0.51235 0.8289,-0.51221 1.7891,1.97695 1.7892,1.97708 2.6549,0 2.6545,0 1.6384,-1.25035 1.6383,-1.25048 1.5393,-4.50133 c 0.8466,-2.47577 1.5458,-5.30964 1.5538,-6.29749 l 0.015,-1.79603 -2.5008,-2.5007 c -1.3753,-1.3754 -2.5007,-2.85204 -2.5007,-3.28131 0,-0.42927 -1.0418,-1.75918 -2.3151,-2.95541 l -2.3152,-2.17505 -5.4648,0 -5.4648,0 -2.2451,1.57262 -2.2453,1.57262 -2.8398,5.67964 c -1.5617,3.12381 -3.5653,7.93025 -4.4524,10.68117 -0.8871,2.7508 -2.7632,11.74395 -4.1693,19.98456 l -2.5564,14.98304 -0.1002,7.75257 -0.1002,7.75258 1.714,2.61585 1.7139,2.61585 4.299,1.90165 4.2988,1.90153 0.5443,2.08095 0.5442,2.08083 2.0516,-1.09799 2.0516,-1.09799 1.962,1.22529 1.9619,1.22517 2.4855,-1.33017 2.4854,-1.33017 2.828,0.70593 c 1.5552,0.38818 3.5031,1.28556 4.3284,1.994 0.8251,0.70856 2.7476,1.58465 4.2718,1.94688 l 2.7714,0.65882 2.0876,-1.11728 2.0874,-1.11716 0.9571,0.95728 0.9572,0.95715 -1.7138,1.71395 -1.7138,1.71383 -2.0278,-0.53026 -2.0279,-0.53026 -2.5746,1.38555 c -3.9122,2.10551 -12.0853,4.52126 -15.2964,4.52126 l -2.8626,0 -4.2116,2.17994 -4.2114,2.17981 -11.0036,0.74089 c -6.0516,0.40734 -15.316,1.06303 -20.5871,1.45684 l -9.5839,0.7162 -3.6704,-3.67036 z m 580.4153,0.75705 c -1.4288,-1.57299 -3.3418,-3.97295 -4.2513,-5.33319 l -1.654,-2.47326 0,-2.77837 0,-2.77836 1.9612,-1.96129 1.9613,-1.96117 5.5398,-1.61046 5.5397,-1.61045 0.5702,-2.27216 0.5704,-2.27216 -0.3188,-35.91923 -0.319,-35.91912 -2.0548,-3.49769 -2.0545,-3.4977 -3.4471,-2.32303 -3.447,-2.32291 0,-1.18156 0,-1.18156 9.5029,-3.22555 c 5.2267,-1.77397 10.4033,-3.23696 11.5038,-3.25099 l 2.0006,-0.0251 2.5921,3.25099 2.5919,3.25086 1.28,4.00127 c 0.704,2.20074 1.6609,4.41401 2.1264,4.91846 l 0.8463,0.91718 7.2854,-7.56726 7.2853,-7.56713 4.2515,-1.14097 4.2513,-1.14096 3.7731,1.01604 3.7729,1.01592 4.2445,3.12143 4.2445,3.12143 2.3877,4.15376 c 1.3131,2.28456 2.684,5.57689 3.0459,7.31628 l 0.6584,3.16253 -1.1278,6.34047 c -0.6202,3.48717 -2.2635,10.09828 -3.6518,14.69133 l -2.5239,8.351 -5.9163,6.06506 -5.9164,6.06519 -0.6146,-0.61446 -0.6143,-0.61447 1.7113,-6.98362 1.7115,-6.98362 -0.5691,-10.24651 -0.5693,-10.24651 -1.0096,-1.00965 -1.0098,-1.00978 -5.5547,1.75104 -5.5547,1.75092 -3.0806,4.18772 c -1.6942,2.30323 -3.7021,5.63666 -4.4621,7.40775 l -1.3816,3.22016 -2.5002,16.47308 -2.5002,16.47308 0,6.11443 0,6.11455 1.4634,2.82999 c 0.805,1.55658 2.0428,3.0465 2.7509,3.311 0.7082,0.26451 6.6889,0.15913 13.291,-0.23405 l 12.0038,-0.71483 0.9042,0.80918 0.9041,0.80917 -2.7424,3.59568 c -1.5084,1.97759 -4.201,4.55159 -5.9836,5.72012 l -3.2411,2.12455 -2.1624,3.29898 -2.1626,3.29898 -2.616,1.71408 -2.6162,1.7142 -9.6481,0.72385 c -5.3064,0.3982 -13.9245,1.03972 -19.151,1.42577 l -9.5029,0.70192 -2.5975,-2.85993 z m 85.4431,1.01141 c -1.1993,-1.02895 -3.3375,-3.62162 -4.7513,-5.76146 l -2.5707,-3.89076 0,-1.93799 0,-1.93799 2.8025,-2.80254 2.8024,-2.80255 4.1421,-0.69979 4.1422,-0.69979 0.9655,-1.17229 0.9655,-1.17216 0.2132,-35.01083 0.2134,-35.01095 -0.999,-4.78752 -0.9987,-4.78752 -1.7614,-1.94638 -1.7615,-1.94638 -5.1131,-1.90466 -5.1131,-1.90478 -0.2727,-1.3645 -0.2728,-1.3645 12.6829,-2.26326 12.6832,-2.26326 2.5943,1.65005 c 1.4269,0.90741 3.5913,2.82623 4.8095,4.2639 l 2.2148,2.61385 0.6473,3.25098 0.6473,3.25099 1.1391,-0.0125 1.139,-0.0125 4.7004,-5.89528 4.7007,-5.89515 5.4991,-2.69053 5.4992,-2.69041 3.3045,0.71182 c 1.8174,0.39156 4.6549,1.38417 6.3054,2.206 3.8513,1.91757 8.3156,6.0682 10.007,9.30365 l 1.3258,2.53603 -1.4278,12.96874 -1.4277,12.96874 -2.9625,4.50146 c -1.6293,2.47577 -3.7326,5.96432 -4.6741,7.75233 l -1.7112,3.25111 -1.6196,0 -1.6193,0 -0.096,-8.25264 -0.098,-8.25251 -1.7008,-4.2322 -1.7007,-4.23207 -3.2683,-2.01981 -3.2683,-2.01981 -2.5094,0 -2.5096,0 -2.0009,4.75144 c -1.1004,2.61334 -2.7053,7.00216 -3.5665,9.75308 -1.6984,5.42491 -5.1835,26.68501 -6.252,38.14128 l -0.6655,7.13172 1.1688,3.54168 c 0.6429,1.94788 1.7086,3.98248 2.3681,4.52151 l 1.1993,0.97971 5.5017,-0.98435 c 3.0259,-0.54154 8.2026,-1.10588 11.5035,-1.25436 3.3011,-0.14835 6.744,-0.59115 7.6513,-0.98384 l 1.6493,-0.71407 0.7081,1.14585 0.7083,1.14585 -6.5758,6.32192 -6.5759,6.32205 -1.5627,3.90554 -1.5627,3.90555 -3.2019,1.89137 -3.2019,1.89138 -9.5229,0.70668 c -5.2376,0.38868 -13.574,1.03133 -18.5256,1.42815 l -9.0029,0.72147 -2.1807,-1.8707 z m 113.7157,0.0852 -5.5018,-1.51085 -5.3156,-3.63916 -5.3154,-3.63928 -3.9218,-4.58554 -3.9216,-4.58566 -2.9148,-6.00191 -2.915,-6.00179 -1.102,-5.30099 -1.1021,-5.30086 0.02,-9.20366 0.02,-9.20353 0.9728,-6.7255 0.9726,-6.72551 2.1481,-6.27857 c 2.8273,-8.26392 7.4131,-17.3741 11.102,-22.05524 l 2.973,-3.77285 6.2739,-4.47691 c 3.4507,-2.46236 8.7337,-5.60308 11.7403,-6.97948 l 5.4664,-2.50258 7.4145,-0.60444 7.4146,-0.60432 6.9798,1.64216 6.9799,1.64216 4.1792,2.44908 4.1789,2.44908 3.0929,3.90492 3.0926,3.90492 3.4724,7.36189 c 1.9097,4.04901 4.1888,10.06257 5.065,13.36368 l 1.5928,6.00191 0.5591,9.50287 0.5591,9.50299 -1.6184,8.50261 c -0.8901,4.6765 -2.08,10.15254 -2.6441,12.16896 l -1.0257,3.66623 -3.4775,2.05188 -3.4774,2.05176 0,1.54768 c 0,0.8514 0.5552,2.43693 1.2338,3.52364 l 1.2339,1.9757 -1.9841,3.69843 c -1.0912,2.03409 -4.082,5.99702 -6.6462,8.80645 l -4.6622,5.10804 -5.341,2.94864 -5.3411,2.94864 -12.5038,0.24258 -12.5039,0.24258 -5.5016,-1.51085 z m 23.9639,-20.71142 5.5168,-1.25035 3.8275,-3.81332 3.8278,-3.81345 1.9442,-4.53605 1.9444,-4.53592 1.1024,-7.10516 1.1025,-7.10503 -0.6654,-14.0547 c -0.3658,-7.73015 -0.6466,-16.1458 -0.624,-18.70164 l 0.04,-4.64681 -2.7019,-1.77033 c -1.486,-0.9737 -5.0976,-3.72161 -8.0255,-6.10654 l -5.3235,-4.33619 -3.2806,0 -3.2808,0 -5.1356,1.52513 -5.1357,1.52513 -3.222,2.71132 -3.2223,2.71133 -3.8046,5.88639 -3.8045,5.88638 -0.6104,3.63139 c -0.3356,1.99738 -0.8202,4.39935 -1.0764,5.33771 -0.2564,0.93835 -2.2427,3.85605 -4.4141,6.48368 l -3.9479,4.77749 0,1.54656 0,1.54668 1.8461,1.58076 1.8463,1.58076 0.687,5.84692 0.6874,5.84691 4.3243,9.12873 4.3244,9.12885 2.9318,2.08759 c 3.4604,2.46399 8.506,4.0405 13.3328,4.16592 1.9094,0.0501 5.9543,-0.47237 8.9885,-1.16014 z m 89.2912,19.67846 -5.1745,-2.57851 -2.572,-3.05677 c -1.4147,-1.68126 -3.4099,-4.69894 -4.4338,-6.70609 l -1.8618,-3.64931 -1.0915,-5.9038 -1.0912,-5.9038 -0.07,-26.57462 -0.07,-26.57462 -0.7821,-2.00064 -0.7822,-2.00064 -7.2191,0 -7.2189,0 -3.9324,-4.21252 -3.9321,-4.21265 0,-2.55308 0,-2.55308 -1.1581,-1.85453 -1.158,-1.85454 0.5452,-1.42101 0.5451,-1.42113 5.9015,-3.09336 5.9012,-3.09337 5.7719,-1.2917 5.7719,-1.29157 1.1936,-2.07882 1.1934,-2.07882 -0.2565,-20.33427 -0.2567,-20.33427 -1.0633,-1.98661 -1.063,-1.9866 1.1922,-1.43654 1.1921,-1.43655 1.9974,0 1.9975,0 5.8534,3.55584 5.8534,3.55571 2.1055,2.95704 2.1057,2.95691 0.5822,15.15194 0.5824,15.15181 1.8581,1.85792 1.8578,1.85792 2.7356,-0.65731 c 1.5047,-0.36149 4.3111,-1.43705 6.2366,-2.39006 l 3.5012,-1.73275 7.8582,-0.72135 7.8582,-0.72134 3.6454,-1.55332 3.6452,-1.55332 5.241,-0.10149 5.2408,-0.10149 0.4902,1.27791 0.49,1.27804 -1.7296,1.40999 c -0.9515,0.77547 -3.8411,3.12631 -6.4218,5.22405 -2.5803,2.09775 -8.5098,7.22482 -13.1767,11.39349 l -8.4849,7.57929 -8.83,3.33932 c -4.8565,1.83663 -9.5053,3.95542 -10.3306,4.70846 l -1.5004,1.36926 -0.3221,27.72461 -0.3224,27.72461 0.6483,5.2842 0.6485,5.28432 2.3212,2.69855 2.3211,2.69867 3.0749,-1.4809 3.0745,-1.4809 11.386,-11.13938 c 6.2622,-6.12658 12.3618,-11.66163 13.5546,-12.30003 l 2.1687,-1.16076 0.8539,0.52788 0.854,0.52776 -0.8085,4.26991 c -0.4449,2.34847 -1.5275,5.97673 -2.4061,8.06282 l -1.5972,3.79277 -3.1045,2.77398 -3.1046,2.77385 1.1577,2.16315 1.1576,2.16315 -1.5706,3.7741 -1.5708,3.77399 -4.2039,4.37566 c -2.3123,2.4066 -6.2053,5.67012 -8.6513,7.25226 l -4.4473,2.8766 -5.6094,0 -5.6095,0 -5.1746,-2.57864 z"
       id="path4376"
       inkscape:connector-curvature="0" />
    <text
       xml:space="preserve"
       style="font-style:normal;font-weight:normal;font-size:64.80561066px;line-height:125%;font-family:Sans;letter-spacing:0px;word-spacing:0px;display:inline;fill:#a0892c;fill-opacity:1;stroke:none"
       x="725.58093"
       y="242.99509"
       id="text3764"
       sodipodi:linespacing="125%"
       transform="scale(0.97941993,1.0210125)"><tspan
         sodipodi:role="line"
         x="725.58093"
         y="242.99509"
         id="tspan3766"><tspan
           x="725.58093"
           y="242.99509"
           style="font-size:98.9831543px;fill:#a0892c"
           id="tspan3768"><tspan
             style="font-style:normal;font-variant:normal;font-weight:normal;font-stretch:normal;font-family:Risque;-inkscape-font-specification:Risque;fill:#a0892c"
             id="tspan3782">Pipro </tspan></tspan></tspan></text>
    <text
       xml:space="preserve"
       style="font-style:normal;font-variant:normal;font-weight:normal;font-stretch:normal;font-size:54.99064255px;line-height:125%;font-family:Risque;-inkscape-font-specification:Risque;letter-spacing:0px;word-spacing:0px;display:inline;fill:#a0892c;fill-opacity:1;stroke:none"
       x="1178.152"
       y="289.28613"
       id="text3770"
       sodipodi:linespacing="125%"><tspan
         sodipodi:role="line"
         x="1178.152"
         y="289.28613"
         id="tspan3772"><tspan
           x="1178.152"
           y="289.28613"
           style="font-size:87.98503113px;fill:#a0892c"
           id="tspan3774">kaj</tspan></tspan></text>
    <text
       xml:space="preserve"
       style="font-style:normal;font-weight:normal;font-size:118.82922363px;line-height:125%;font-family:Sans;letter-spacing:0px;word-spacing:0px;display:inline;fill:#a0892c;fill-opacity:1;stroke:none"
       x="1598.0011"
       y="240.12914"
       id="text3776"
       sodipodi:linespacing="125%"
       transform="scale(0.97261733,1.0281536)"><tspan
         sodipodi:role="line"
         x="1598.0011"
         y="240.12914"
         id="tspan3778"><tspan
           x="1598.0011"
           y="240.12914"
           style="font-variant:normal;font-stretch:normal;font-size:98.9831543px;font-family:Risque;-inkscape-font-specification:Risque;fill:#a0892c"
           id="tspan3780">Karoĉjo</tspan></tspan></text>
  </g>
</svg>
