<?xml version="1.0" encoding="UTF-8" standalone="no"?>
<!-- Created with Inkscape (http://www.inkscape.org/) -->

<svg
   xmlns:dc="http://purl.org/dc/elements/1.1/"
   xmlns:cc="http://creativecommons.org/ns#"
   xmlns:rdf="http://www.w3.org/1999/02/22-rdf-syntax-ns#"
   xmlns:svg="http://www.w3.org/2000/svg"
   xmlns="http://www.w3.org/2000/svg"
   xmlns:xlink="http://www.w3.org/1999/xlink"
   xmlns:sodipodi="http://sodipodi.sourceforge.net/DTD/sodipodi-0.dtd"
   xmlns:inkscape="http://www.inkscape.org/namespaces/inkscape"
   id="svg2"
   version="1.1"
   inkscape:version="0.92.0 r15299"
   width="2481"
   height="663"
   sodipodi:docname="Pepper-and-Carrot_by-David-Revoy_E01P00.svg"
   enable-background="new">
  <metadata
     id="metadata8">
    <rdf:RDF>
      <cc:Work
         rdf:about="">
        <dc:format>image/svg+xml</dc:format>
        <dc:type
           rdf:resource="http://purl.org/dc/dcmitype/StillImage" />
        <dc:title />
      </cc:Work>
    </rdf:RDF>
  </metadata>
  <defs
     id="defs6">
    <filter
       inkscape:collect="always"
       id="filter4386">
      <feBlend
         inkscape:collect="always"
         mode="screen"
         in2="BackgroundImage"
         id="feBlend4388" />
    </filter>
  </defs>
  <sodipodi:namedview
     pagecolor="#ffffff"
     bordercolor="#666666"
     borderopacity="1"
     objecttolerance="10"
     gridtolerance="10"
     guidetolerance="10"
     inkscape:pageopacity="0"
     inkscape:pageshadow="2"
     inkscape:window-width="1345"
     inkscape:window-height="768"
     id="namedview4"
     showgrid="false"
     inkscape:zoom="0.45053878"
     inkscape:cx="1086.217"
     inkscape:cy="155.33613"
     inkscape:window-x="1"
     inkscape:window-y="41"
     inkscape:window-maximized="0"
     inkscape:current-layer="layer3"
     inkscape:snap-global="false">
    <inkscape:grid
       type="xygrid"
       id="grid4282" />
  </sodipodi:namedview>
  <flowRoot
     xml:space="preserve"
     id="flowRoot2987"
     style="font-style:normal;font-variant:normal;font-weight:normal;font-stretch:normal;font-size:12px;line-height:125%;font-family:Lavi;-inkscape-font-specification:Lavi;letter-spacing:0px;word-spacing:0px;fill:#000000;fill-opacity:1;stroke:none;stroke-width:1px;stroke-linecap:butt;stroke-linejoin:miter;stroke-opacity:1"
     transform="matrix(0.71,0,0,0.71,302.16372,408.87978)"><flowRegion
       id="flowRegion2989"><rect
         id="rect2991"
         width="1016.5607"
         height="77.684769"
         x="838.99548"
         y="443.73529"
         style="font-style:normal;font-variant:normal;font-weight:normal;font-stretch:normal;font-family:Lavi;-inkscape-font-specification:Lavi" /></flowRegion><flowPara
       id="flowPara2993" /></flowRoot>  <g
     inkscape:groupmode="layer"
     id="layer1"
     inkscape:label="artwork"
     style="display:inline"
     sodipodi:insensitive="true">
    <image
       sodipodi:absref="C:\Users\Gebruiker\Downloads\peppercarrot_ep01_translation-master\eo\..\gfx_Pepper-and-Carrot_by-David-Revoy_E01P00.png"
       xlink:href="..\gfx_Pepper-and-Carrot_by-David-Revoy_E01P00.png"
       y="0"
       x="0"
       id="image3084"
       height="663"
       width="2481" />
  </g>
  <g
     inkscape:groupmode="layer"
     id="layer2"
     inkscape:label="speechbubbles"
     style="opacity:0.70232556;display:inline;filter:url(#filter4386)" />
  <g
     inkscape:groupmode="layer"
     id="layer3"
     inkscape:label="txt"
     style="display:inline">
    <flowRoot
       xml:space="preserve"
       id="flowRoot3063"
       style="font-style:normal;font-variant:normal;font-weight:normal;font-stretch:normal;font-size:58.27750397px;line-height:72.84687805px;font-family:Arial;-inkscape-font-specification:Arial;letter-spacing:0px;word-spacing:0px;display:inline;fill:#2a5953;fill-opacity:1;stroke:none"
       transform="translate(-5.104999,68.917486)"><flowRegion
         id="flowRegion3065"
         style="line-height:72.84687805px"><rect
           id="rect3067"
           width="2198.0244"
           height="89.045746"
           x="157.84683"
           y="446.12552"
           style="font-size:58.27750397px;line-height:72.84687805px;fill:#2a5953;fill-opacity:1" /></flowRegion><flowPara
         id="flowPara3069"
         style="font-style:normal;font-variant:normal;font-weight:normal;font-stretch:normal;font-size:71.22805786px;line-height:72.84687805px;font-family:Lavi;-inkscape-font-specification:Lavi;text-align:center;text-anchor:middle;fill:#2a5953;fill-opacity:1">ĉapitro 1: La sorĉotrinkaĵo de flugo</flowPara></flowRoot>    <path
       style="fill:#2a5953;fill-opacity:1;stroke:none"
       d="m 715.16714,502.49146 c -1.99062,-1.7478 -4.27741,-4.45042 -5.08174,-6.00583 l -1.46243,-2.82803 0,-4.1333 0,-4.1333 2.47744,-2.47743 2.47743,-2.47744 1.8122,-0.0321 c 0.99671,-0.0177 2.68791,-0.69461 3.75822,-1.50434 l 1.94604,-1.47224 0.75593,-5.30861 0.75592,-5.30861 0.0737,-23.0285 0.0737,-23.02851 -1.04483,-1.95229 -1.04484,-1.9523 -1.79994,0 c -0.98998,0 -4.20777,-0.71505 -7.15065,-1.58899 l -5.3507,-1.58898 -2.40243,-2.40244 -2.40244,-2.40244 0,-1.55987 0,-1.55986 5.80362,-0.0416 5.80362,-0.0416 4.54197,-2.22938 4.54196,-2.22937 0.28839,-35.32639 0.28839,-35.32639 -1.19805,-4.36639 -1.19805,-4.3664 -2.11831,-1.37397 -2.11832,-1.37396 -8.8316,-0.70672 -8.8316,-0.70673 0,-1.20889 0,-1.20889 4.46405,-4.52801 4.46405,-4.52801 12.77457,-5.77414 12.77457,-5.77414 1.94401,0.61701 c 1.06921,0.33935 3.30415,1.76149 4.96655,3.16029 l 3.02252,2.5433 0,1.35217 c 0,0.74369 0.71374,2.06591 1.58609,2.93825 l 1.58608,1.58608 10.41291,0 10.41292,0 8.75017,2.5357 c 4.8126,1.39464 10.94071,3.64574 13.61804,5.00243 2.67731,1.35671 8.47559,5.18526 12.88508,8.5079 l 8.01723,6.04116 2.7707,3.99811 2.77069,3.99812 1.44475,4.80055 1.44475,4.80055 0,6.81494 0,6.81494 -1.889,6.06938 -1.889,6.06939 -3.73377,6.67659 -3.73376,6.67658 -6.07044,6.48933 -6.07045,6.48933 -6.72698,4.95746 c -3.69984,2.7266 -8.99796,6.08146 -11.7736,7.45524 -2.77565,1.37378 -10.26989,4.22717 -16.65387,6.34086 -6.38399,2.11369 -12.62919,4.21377 -13.87823,4.66683 l -2.27098,0.82375 0,21.76802 0,21.76801 2.43639,2.43639 2.43639,2.43639 2.86257,0.60668 c 1.57442,0.33366 3.62572,1.01749 4.55847,1.51961 l 1.6959,0.91292 4.40114,-0.0883 c 2.42063,-0.0485 6.7199,0.23058 9.55393,0.62036 l 5.15279,0.70868 3.20673,-1.65827 3.20672,-1.65826 2.97213,0.65279 c 1.63467,0.35904 5.008,0.65279 7.49628,0.65279 2.48828,0 4.52414,0.21243 4.52414,0.47206 0,0.25962 -1.64015,1.15735 -3.64478,1.99494 -3.6776,1.53659 -11.58658,6.5005 -16.90074,10.60738 l -2.88233,2.22751 -6.56729,1.82106 -6.56729,1.82105 -4.68094,2.97613 -4.68094,2.97614 -7.56994,2.1385 c -4.16347,1.17619 -9.88085,2.80382 -12.70528,3.61697 l -5.13533,1.47839 -4.16581,0 -4.1658,0 -3.61932,-3.1778 z m 44.5765,-108.29994 8.93419,-4.48926 8.13615,-6.53173 8.13614,-6.53173 4.8739,-5.88521 4.87389,-5.88522 2.88605,-6.05595 2.88603,-6.05595 8e-4,-4.33976 8e-4,-4.33975 -1.47774,-2.85763 c -0.81276,-1.5717 -2.88684,-4.04331 -4.60909,-5.49248 l -3.13134,-2.63487 -5.7365,-1.72277 -5.73651,-1.72279 -8.57926,-0.0266 -8.57927,-0.0266 -5.57684,1.26058 -5.57684,1.26059 -3.25475,1.97933 -3.25476,1.97934 0,30.24444 0,30.24445 1.76631,1.02878 c 0.97148,0.56584 2.2879,1.0426 2.92538,1.05948 0.63748,0.0169 5.17945,-1.98947 10.09326,-4.45856 z m 74.03569,109.88341 c -1.38783,-0.89728 -3.76332,-3.23816 -5.27889,-5.20194 l -2.75557,-3.57053 -0.62095,-3.31001 -0.62097,-3.31001 1.35789,-2.8615 1.35787,-2.8615 4.45989,-2.14021 4.45988,-2.14022 1.34374,-1.83767 1.34373,-1.83766 0,-27.94322 0,-27.94321 -5.29895,-0.59199 c -2.91443,-0.3256 -7.07844,-0.95123 -9.25337,-1.3903 l -3.95441,-0.79829 -0.31882,-1.00567 c -0.17535,-0.55313 0.035,-1.56328 0.4674,-2.24478 l 0.7862,-1.23909 7.80228,-1.49282 c 4.29126,-0.82106 8.24495,-1.76641 8.78598,-2.10078 l 0.98369,-0.60796 0,-40.86824 0,-40.86823 -1.47278,-2.84805 -1.47279,-2.84806 -8.36814,-1.18856 c -4.60247,-0.6537 -9.84427,-1.41398 -11.64844,-1.68952 l -3.28031,-0.50097 0,-0.78764 c 0,-0.43321 1.02194,-1.71832 2.27098,-2.8558 2.47151,-2.25076 15.20862,-10.39564 16.2569,-10.39564 0.3556,0 4.69236,-1.82173 9.63724,-4.04829 l 8.99071,-4.04829 2.8684,1.09056 c 1.5776,0.59981 3.6641,1.81065 4.63661,2.69074 l 1.7681,1.60018 0,2.75382 0,2.75382 2.271,0.6086 c 1.2491,0.33473 6.8221,0.61481 12.3846,0.62239 l 10.1135,0.0138 7.2417,2.00677 c 3.9829,1.10372 9.825,3.14923 12.9823,4.54556 l 5.7407,2.5388 6.6792,4.96997 c 3.6736,2.73348 8.36,6.70608 10.4144,8.82799 l 3.7351,3.85803 2.2397,5.04662 2.2396,5.04663 0.4516,7.62288 0.4517,7.62287 -2.9543,8.57092 -2.9543,8.57091 -3.8858,5.85418 c -2.1371,3.21981 -6.1625,8.34531 -8.9452,11.39001 l -5.0594,5.53581 -3.2188,-0.60385 -3.2187,-0.60384 -1.0524,1.28116 c -0.5788,0.70464 -1.2095,2.41238 -1.4015,3.79497 l -0.349,2.5138 -4.9665,3.24497 -4.9666,3.24497 -12.5261,4.58681 -12.5262,4.58682 -2.1892,0.0154 c -1.204,0.008 -2.8704,0.44591 -3.7031,0.97202 l -1.514,0.95656 0,21.65547 0,21.65546 2.4061,2.56213 2.406,2.56214 5.2414,1.08811 5.2414,1.08811 10.0158,-0.0288 c 5.5086,-0.0159 12.6539,-0.0808 15.8784,-0.1444 l 5.8627,-0.11564 0.6895,0.68949 0.6895,0.6895 -2.0102,1.17913 c -1.1056,0.64853 -4.9001,2.43388 -8.4321,3.96743 l -6.4218,2.78831 -2.9919,2.51748 c -1.6455,1.38458 -3.5744,2.51744 -4.2863,2.51744 l -1.2944,0 -4.4318,3.89343 c -2.4374,2.14137 -6.3768,4.8833 -8.7541,6.09316 l -4.3224,2.19975 -9.80811,2.66621 -9.8082,2.6662 -5.0466,0.3431 -5.04668,0.34309 -2.52331,-1.63141 z m 41.1597,-108.88796 7.2904,-3.49381 7.3164,-5.4314 7.3163,-5.43139 7.0653,-7.48975 7.0653,-7.48974 2.8284,-5.83451 2.8285,-5.8345 0.5112,-4.75001 0.5112,-4.74999 -1.8256,-3.50692 -1.8257,-3.50691 -4.0373,-2.80807 -4.0373,-2.80808 -7.57,-1.60153 -7.5699,-1.60154 -6.5606,0.58538 c -3.6084,0.32196 -9.2858,1.28062 -12.6166,2.13036 l -6.0559,1.54499 -2.3148,2.61306 -2.3148,2.61306 0.2961,28.50531 0.2962,28.5053 1.3852,1.66725 1.3852,1.66724 1.6713,0 c 0.9191,0 4.9518,-1.57221 8.9615,-3.4938 z m 347.93527,78.25626 c -2.7757,-0.98933 -7.3585,-2.97086 -10.1841,-4.40341 l -5.1375,-2.60461 -3.1833,-3.62552 c -1.7508,-1.99404 -4.193,-5.54323 -5.4273,-7.88709 l -2.244,-4.26157 -0.033,-7.56994 -0.033,-7.56994 3.1865,-6.72584 3.1865,-6.72583 7.8321,-8.19777 7.8321,-8.19775 -2.8354,-5.93227 -2.8353,-5.93226 0.6055,-3.02759 0.6055,-3.02758 -1.4446,-1.19889 -1.4445,-1.19888 1.5666,-3.02944 1.5666,-3.02945 -2.24,-2.38432 -2.24,-2.38433 0.6401,-4.66942 0.64,-4.66942 2.0103,-4.54478 2.0104,-4.54478 4.2924,-5.12682 4.2924,-5.12682 4.4309,-2.80998 4.4309,-2.80998 5.4663,-1.22332 5.4663,-1.2233 5.255,1.66011 5.2549,1.66011 5.762,3.60872 5.762,3.60873 3.6768,6.05272 3.6769,6.05273 0.5164,3.85037 0.5165,3.85037 -2.2282,7.06 -2.2282,7.06001 -3.8778,4.93798 c -2.1329,2.71589 -5.5453,7.43606 -7.5832,10.48927 -2.0379,3.05321 -5.0652,6.75832 -6.7273,8.23359 l -3.0219,2.68229 0.8594,1.46598 c 0.4726,0.80629 4.995,5.85654 10.0497,11.22279 l 9.1904,9.7568 1.2054,-1.45243 1.2054,-1.45243 0.2022,-2.86406 0.2021,-2.86406 -3.7799,-0.31295 -3.7798,-0.31295 -2.5284,-3.31496 -2.5285,-3.31496 0,-2.10361 0,-2.10362 1.4459,-1.4459 1.4459,-1.4459 8.395,-2.60989 c 4.6173,-1.43544 10.666,-3.1259 13.4417,-3.75658 l 5.0466,-1.14668 12.1119,-0.39825 c 6.6616,-0.21904 14.4965,-0.66823 17.4109,-0.99821 l 5.2989,-0.59994 -5e-4,1.33428 -5e-4,1.33429 -7.1781,6.56061 c -3.9479,3.60834 -8.6032,7.97878 -10.345,9.71208 l -3.167,3.15147 -4.9233,0.7147 c -2.7079,0.39309 -5.5467,0.95385 -6.3083,1.24615 l -1.385,0.53146 0,4.90078 0,4.90077 -2.1535,5.75567 -2.1535,5.75567 2.9001,2.10446 c 1.595,1.15746 4.7215,3.50629 6.9478,5.21962 l 4.0477,3.11515 -0.1874,1.42681 c -0.1031,0.78475 -0.8155,3.12654 -1.5831,5.20398 l -1.3956,3.77717 -2.3778,2.53112 -2.3779,2.53111 -3.1044,-0.004 -3.1044,-0.004 -3.3047,-2.01488 c -1.8176,-1.10765 -3.9138,-2.01435 -4.6582,-2.01435 -0.7444,0 -2.5083,-0.90839 -3.9198,-2.01865 -1.4115,-1.11026 -3.176,-2.00702 -3.9211,-1.99281 -0.7451,0.0142 -3.8529,1.62064 -6.9061,3.56985 l -5.5513,3.54404 -9.5484,2.99075 -9.5485,2.99075 -5.0867,-0.0738 -5.0868,-0.0738 -5.0466,-1.79878 z m 24.4911,-24.4256 4.4373,-2.14807 0.4942,-1.28787 0.4942,-1.28788 -10.4164,-10.18384 -10.4165,-10.18384 -1.2186,-0.006 -1.2187,-0.006 -2.8186,3.71532 c -1.5503,2.04343 -4.2948,5.07928 -6.099,6.74634 l -3.2803,3.031 0,1.36498 0,1.36497 4.2896,4.37671 c 2.3593,2.40718 5.198,4.87494 6.3083,5.48389 l 2.0187,1.10719 6.4942,0.0307 6.4943,0.0307 4.4373,-2.14806 z m -5.3994,-62.03241 7.7925,-6.64895 1.9463,-3.19198 1.9464,-3.19199 0,-3.20286 0,-3.20287 -2.5028,-2.9745 -2.5029,-2.97451 -3.0316,-1.25572 -3.0316,-1.25572 -3.4886,0.65447 -3.4886,0.65446 -2.7372,3.24598 c -1.5054,1.7853 -3.3495,4.70755 -4.0981,6.49388 l -1.3616,3.24789 0,3.90931 0,3.90931 1.4294,4.74927 c 1.4196,4.71711 3.1941,7.68346 4.5962,7.68346 0.4024,0 4.2383,-2.99203 8.5242,-6.64893 z m 179.0196,59.13809 c -3.1748,-0.40721 -8.9912,-1.77535 -12.9252,-3.04031 l -7.1528,-2.29991 -5.9933,-3.6403 c -3.2963,-2.00216 -8.316,-5.45708 -11.1549,-7.67759 l -5.1614,-4.03731 -5.8362,-6.86808 -5.8362,-6.86808 -3.0534,-5.74849 c -1.6793,-3.16166 -3.9817,-8.70076 -5.1164,-12.30909 -1.1347,-3.60834 -3.0268,-11.77414 -4.2049,-18.14621 l -2.142,-11.58558 0.4486,-4.56363 c 0.6481,-6.59295 3.5007,-21.23553 6.3118,-32.39897 2.7988,-11.11411 8.7849,-28.74988 11.7808,-34.70708 4.4629,-8.87459 15.6912,-26.6973 22.583,-35.84622 3.9982,-5.30759 10.3842,-12.83586 14.1912,-16.7295 3.807,-3.89364 10.0996,-9.4818 13.9836,-12.41812 l 7.0617,-5.33879 8.3693,-4.14718 8.3694,-4.14717 10.8113,-0.068 10.8114,-0.068 9.5886,3.86919 c 5.2738,2.12805 10.497,3.94483 11.6073,4.0373 l 2.0186,0.16811 0.5047,-5.59695 0.5047,-5.59696 1.8725,-2.85647 1.8724,-2.85646 5.5531,0.65266 5.5531,0.65265 5.4551,2.58066 5.4551,2.58066 3.5208,3.32063 3.5209,3.32063 0,5.05362 c 0,2.77948 -0.284,6.4737 -0.6311,8.20935 l -0.6311,3.15573 -3.9812,4.52288 -3.9813,4.52287 0.6347,1.02683 0.6345,1.02682 1.8473,0 1.8473,0 2.3313,1.88774 2.3312,1.88775 -1.1986,14.00912 c -1.3796,16.12366 -2.4148,23.82637 -4.5713,34.01067 -0.8443,3.98764 -1.975,9.52123 -2.5128,12.29688 -0.5378,2.77564 -1.7253,8.38552 -2.6391,12.4664 l -1.6612,7.41976 -2.5056,4.94447 -2.5055,4.94447 -0.8746,0 -0.8746,0 -0.6086,-2.27099 c -0.3348,-1.24904 -0.6148,-4.67009 -0.6224,-7.60235 l -0.014,-5.33138 -1.3639,-3.26415 -1.3638,-3.26416 -0.7443,-13.06463 -0.7442,-13.06462 -4.3249,-12.65691 -4.3249,-12.6569 -4.3464,-8.4753 -4.3466,-8.47528 -3.6264,-3.81216 -3.6264,-3.81216 -2.7964,-0.70186 -2.7964,-0.70185 -4.4207,1.68827 c -2.4314,0.92855 -7.2943,3.58478 -10.8064,5.90271 l -6.3858,4.21442 -9.407,9.53525 -9.407,9.53523 -7.4357,11.17726 -7.4357,11.17725 -7.0553,14.63522 c -7.5767,15.71707 -12.6518,28.71069 -16.7857,42.97582 l -2.5918,8.94402 -0.6251,7.60015 -0.625,7.60015 -2.3626,2.84268 -2.3625,2.8427 1.4852,2.87211 c 0.817,1.57968 2.7793,3.93403 4.3608,5.23192 l 2.8755,2.35979 2.7037,4.73506 2.7035,4.73507 4.7866,4.90132 4.7864,4.90134 4.8904,2.35972 4.8903,2.35973 11.2589,-0.52893 11.2588,-0.52894 9.774,-3.16621 c 5.3758,-1.74142 12.3856,-4.32119 15.5776,-5.73282 l 5.8035,-2.56658 1.7934,0.46898 1.7934,0.46897 2.8988,-2.77016 2.8987,-2.77018 7.1173,-2.71969 7.1174,-2.71971 1.8811,-2.07848 c 1.0345,-1.14316 3.0671,-2.69185 4.5168,-3.44152 l 2.6358,-1.36306 1.1974,-2.82324 1.1974,-2.82325 5.7128,-3.47031 c 3.1421,-1.90866 7.4192,-5.01191 9.5048,-6.89609 l 3.7919,-3.42578 4.0058,-6.34286 4.0059,-6.34285 1.5096,-0.57928 1.5096,-0.57928 1.2352,1.4884 1.2353,1.4884 -1.1257,2.23657 c -0.6191,1.23012 -2.2412,6.86363 -3.6047,12.51891 l -2.479,10.28232 -4.8715,8.89486 -4.8716,8.89485 -6.7461,6.75099 -6.746,6.75101 -2.8958,1.49744 -2.8958,1.49744 -1.9458,-0.17384 -1.9459,-0.17383 -2.808,5.55129 -2.8079,5.55129 -10.8404,6.75412 -10.8402,6.75412 -9.0839,3.0166 -9.084,3.01661 -7.8953,1.07953 c -8.6465,1.18222 -13.3409,1.19804 -22.1009,0.0745 z m -951.93889,-17.55659 -3.89876,-1.4652 -3.00662,-2.85546 -3.00663,-2.85547 -1.98194,-3.85399 -1.98194,-3.854 -0.56665,-4.78447 -0.56666,-4.78446 2.40756,-2.79894 2.40755,-2.79895 6.32462,-0.74573 6.32461,-0.74573 1.71811,-1.71811 1.71811,-1.7181 0.51768,-9.30699 0.5177,-9.30699 3.02797,-0.5157 3.02798,-0.51572 0.31327,-2.70764 0.31328,-2.70766 -2.83659,-1.80621 c -1.56012,-0.99341 -3.17028,-2.27089 -3.57813,-2.83884 l -0.74153,-1.03264 -0.0155,-29.04977 -0.0155,-29.04979 1.26166,-0.38868 c 0.69391,-0.21378 2.4606,-0.64981 3.92598,-0.96894 l 2.66431,-0.58026 0.641,-1.67043 0.64102,-1.67044 -1.28668,-1.72264 c -0.70767,-0.94744 -2.8156,-3.7197 -4.68429,-6.16054 l -3.39762,-4.43791 0.81593,-16.14921 c 0.44876,-8.88206 0.8422,-20.54187 0.8743,-25.91069 l 0.0583,-9.76148 -2.43723,-2.59243 -2.43722,-2.59243 -5.63738,-2.102 -5.63737,-2.102 -2.18941,-2.04493 -2.18941,-2.04493 -2.14944,-4.9965 -2.14944,-4.99651 -0.16535,-5.96564 -0.16536,-5.96566 2.36391,-2.51626 2.36391,-2.51627 8.70091,-3.18049 8.70091,-3.18051 15.64454,-2.91908 15.64455,-2.91908 18.16785,0.0215 18.16786,0.0215 9.70565,0.94452 9.70563,0.94451 8.29411,3.02698 c 4.56177,1.66484 11.10239,4.59746 14.53473,6.51692 3.43233,1.91948 8.29738,5.30039 10.81122,7.51317 l 4.57061,4.02321 6.40298,8.92813 6.40298,8.92815 4.83712,10.09326 4.83712,10.09325 1.69527,6.56061 1.69529,6.56062 0.0906,7.56994 0.0906,7.56994 -1.30736,5.55129 -1.30735,5.55129 -3.94588,8.0746 -3.9459,8.0746 -5.79928,6.73832 c -3.1896,3.70607 -8.07027,8.75487 -10.84591,11.21956 -2.77565,2.46468 -8.60409,7.03285 -12.95209,10.15147 l -7.90547,5.67022 -12.28104,5.94193 c -15.48271,7.49098 -33.54978,14.72419 -42.05615,16.8373 -3.60834,0.89637 -8.24341,2.06168 -10.30016,2.58959 l -3.73956,0.95982 -1.5594,1.5594 -1.55941,1.55942 0,13.09501 0,13.09502 2.31515,2.31515 2.31515,2.31514 4.11438,0.65792 4.11439,0.65791 1.26399,1.52303 1.264,1.52302 5.17536,0.0146 5.17538,0.0147 4.35668,1.51743 4.35667,1.51743 0.93489,-0.5778 c 0.88037,-0.54409 22.12721,-1.67389 28.70613,-1.52643 1.66538,0.0373 4.61766,0.0744 6.56061,0.0823 1.94295,0.008 4.15154,0.23621 4.90797,0.50732 l 1.37534,0.49295 -1.24659,1.50204 -1.24659,1.50204 -1.57639,0 c -0.86703,0 -3.65014,0.96493 -6.18471,2.14429 -2.53455,1.17935 -7.33347,3.41086 -10.66425,4.95891 -3.33077,1.54804 -8.78113,3.58387 -12.1119,4.52405 -3.33078,0.94019 -7.54751,2.34224 -9.37051,3.11569 l -3.31457,1.40629 -3.77848,0 -3.77849,0 -2.20738,1.54611 c -3.29999,2.31141 -9.75258,4.40054 -20.44694,6.62005 l -9.58859,1.99002 -12.1119,0.50422 -12.11191,0.50422 -3.89876,-1.46518 z m 75.42437,-112.33733 8.94744,-3.53574 4.36804,0.65503 4.36805,0.65503 1.61812,-2.46957 1.61813,-2.46957 -0.60788,-2.42202 -0.6079,-2.42201 1.99186,-1.80262 1.99187,-1.8026 2.16713,1.15981 2.16712,1.15982 1.53648,-1.27516 1.53648,-1.27517 -0.56156,-2.80784 -0.56158,-2.80785 5.04176,-5.7615 c 6.29835,-7.19748 11.3777,-14.80549 14.8916,-22.30511 l 2.71495,-5.79446 6.6e-4,-9.08393 6.5e-4,-9.08393 -2.68522,-5.72807 -2.68521,-5.72806 -4.13028,-4.48083 -4.13028,-4.48082 -5.8852,-2.64112 -5.88521,-2.64112 -7.74517,-1.15196 -7.74517,-1.15194 -9.83389,1.19333 c -5.40864,0.65632 -10.59152,1.41209 -11.51752,1.67949 l -1.68363,0.48617 -3.49624,-3.06975 -3.49625,-3.06974 -2.10222,0 -2.10223,0 -1.04484,1.9523 c -0.57466,1.07376 -1.04483,3.04155 -1.04483,4.37286 l 0,2.42056 -3.70585,2.44009 c -2.03822,1.34205 -4.59581,3.65005 -5.68354,5.12891 l -1.9777,2.68882 -0.83063,15.98369 -0.83064,15.9837 -0.0464,28.82519 -0.0464,28.82519 1.26166,1.5908 c 0.69391,0.87494 1.94295,1.79525 2.77565,2.04514 l 1.51398,0.45434 11.60725,-2.45103 11.60724,-2.45103 8.94743,-3.53572 z m 95.01309,110.00843 c -1.66538,-0.22088 -5.44725,-1.08401 -8.40413,-1.91806 l -5.37616,-1.51645 -4.25617,-4.25618 -4.25617,-4.25617 -4.43349,-11.59006 -4.43347,-11.59007 -0.42124,-13.5863 -0.42123,-13.58632 1.19877,-7.43118 1.19878,-7.43119 2.43064,-7.14636 c 1.33685,-3.9305 4.05995,-10.11053 6.05132,-13.73339 4.33633,-7.88898 11.24205,-17.06642 17.81842,-23.67998 l 4.81216,-4.83939 8.36565,-4.01411 8.36566,-4.01413 5.14613,-0.60948 5.14613,-0.60948 5.23623,2.84991 5.23621,2.8499 5.35955,5.14967 5.35955,5.14966 2.51701,4.99605 2.51701,4.99605 1.13487,5.34863 1.13486,5.34864 -0.006,12.81922 -0.006,12.81922 -1.05378,3.79452 -1.05377,3.79451 -2.2209,1.44111 -2.22091,1.4411 -7.06528,1.15526 c -7.08376,1.15826 -41.8821,9.80105 -49.45695,12.28352 l -4.0373,1.32311 -1.75926,3.59622 -1.75928,3.59622 1.71141,4.47838 c 0.94128,2.46312 2.77099,6.19809 4.06601,8.29994 l 2.35459,3.82154 3.24455,2.04627 3.24456,2.04628 6.14647,-0.43966 6.14648,-0.43964 6.47009,-2.85347 c 3.55856,-1.56941 11.91789,-6.11268 18.57631,-10.09614 l 12.10621,-7.24268 1.37518,0.52771 1.37518,0.5277 -0.53964,3.32534 c -0.29679,1.82893 -1.45527,5.39529 -2.57438,7.92524 l -2.03476,4.5999 -2.50797,0 -2.50797,0 -1.65373,1.65372 -1.65372,1.65373 0.16124,4.14989 c 0.0887,2.28245 0.11912,4.64233 0.0676,5.24418 l -0.0936,1.09428 -8.86019,4.21058 -8.8602,4.21059 -7.03668,1.49056 c -6.96912,1.47624 -9.24298,1.59986 -15.11128,0.82154 z m 9.64761,-74.47838 16.59486,-3.73207 4.20331,-1.83014 4.20331,-1.83015 1.09565,-2.04724 1.09564,-2.04723 0,-10.64384 0,-10.64385 -1.62726,-4.06693 -1.62726,-4.06692 -2.38367,-0.59827 -2.38368,-0.59826 -4.55621,2.20562 -4.55621,2.20563 -7.54143,7.04287 c -4.1478,3.87358 -9.09017,9.1725 -10.98305,11.77539 -1.89288,2.6029 -5.36642,8.4441 -7.71897,12.98045 l -4.27737,8.24791 0.71517,1.15716 0.71516,1.15716 1.21858,-0.46762 c 0.67022,-0.25719 8.68626,-2.14704 17.81343,-4.19967 z m 319.77835,72.77966 c -2.0083,-0.71766 -5.3052,-2.32694 -7.3265,-3.57617 l -3.6751,-2.27133 -2.5255,-4.30945 c -1.3891,-2.3702 -4.2238,-9.03007 -6.2994,-14.79971 l -3.7738,-10.49026 0.094,-16.1492 0.094,-16.14921 2.1869,-8.0746 2.1869,-8.07461 4.0923,-8.57926 4.0924,-8.57927 5.467,-7.15323 c 3.0068,-3.93428 7.9815,-9.5314 11.0549,-12.43805 l 5.5879,-5.28484 7.6018,-3.51222 7.6017,-3.51222 4.91327,-0.58191 4.9133,-0.58191 4.3735,2.13545 4.3735,2.13545 6.2664,5.6084 6.2663,5.6084 3.3223,6.743 3.3222,6.743 0.3271,17.68989 0.3271,17.68988 -1.039,2.72286 -1.0391,2.72285 -2.316,1.50267 -2.316,1.50265 -9.1149,1.57074 c -5.0132,0.86391 -17.7307,3.86468 -28.26107,6.66837 l -19.1463,5.09763 -4.5419,2.22734 -4.542,2.22735 0.1697,6.22816 0.1696,6.22817 2.0597,4.65616 2.0596,4.65618 3.5419,1.4799 3.5419,1.4799 7.35,-0.017 7.3501,-0.017 8.5123,-3.45196 8.51227,-3.45195 1.9172,1.02606 1.9173,1.02607 1.8439,-1.66872 c 1.0141,-0.9178 2.0956,-2.65723 2.4033,-3.86542 l 0.5595,-2.1967 6.3498,-4.28963 6.3499,-4.28963 1.8573,0 1.8572,0 2.8871,-2.05577 c 1.5878,-1.13067 4.9886,-2.98541 7.5573,-4.12164 l 4.6702,-2.06587 0.5277,0.52768 0.5277,0.52768 -1.6918,4.42986 -1.6918,4.42984 -3.9355,5.19974 c -2.1646,2.85984 -4.842,6.97662 -5.95,9.14841 l -2.0145,3.94868 -5.1074,4.46786 -5.1074,4.46786 -9.3106,4.68593 -9.3105,4.68592 -4.80327,1.26016 -4.8033,1.26017 -1.5622,-2.2304 -1.5622,-2.2304 -2.7184,0.005 -2.7184,0.005 -4.0373,2.48664 c -2.2206,1.36765 -4.7186,2.48088 -5.5513,2.47385 -0.8327,-0.007 -3.1572,-0.59999 -5.1655,-1.31766 z m 16.268,-72.34842 c 7.4943,-1.66003 16.46927,-3.95366 19.94457,-5.09694 l 6.3186,-2.0787 1.1144,-2.08223 1.1144,-2.08223 0.1369,-11.71026 0.1369,-11.71024 -2.1004,-3.53264 -2.1004,-3.53264 -3.5345,0.10013 -3.5346,0.10012 -6.20477,4.21366 -6.2049,4.21366 -2.398,-0.60186 -2.398,-0.60186 -1.66,1.66 -1.66,1.66 0.6183,2.46334 0.6183,2.46334 -4.0022,5.28592 c -2.2011,2.90727 -5.8854,8.74832 -8.1873,12.98013 l -4.1851,7.69428 0,2.26444 0,2.26444 2.271,-0.6578 c 1.249,-0.3618 8.4026,-2.01602 15.8968,-3.67606 z m 627.06357,73.0322 -2.2508,-0.43478 -2.0389,-2.59186 -2.0387,-2.59187 0,-1.75894 0,-1.75895 -1.4254,-1.18299 -1.4254,-1.18299 -6.1169,2.5745 c -3.3641,1.416 -9.6492,3.74078 -13.9667,5.16621 l -7.85,2.59167 -9.1648,0.57325 -9.1649,0.57323 -5.3554,-1.7788 -5.3555,-1.77881 -3.8941,-3.51811 -3.8942,-3.51813 -1.5198,-5.11759 -1.5197,-5.11758 0,-4.81752 0,-4.81752 2.4454,-6.73698 2.4454,-6.73699 3.7776,-5.4849 3.7776,-5.48489 5.6366,-4.06933 5.6366,-4.06934 12.1119,-5.90048 12.1119,-5.90049 8.8913,-2.21694 8.8914,-2.21693 2.1196,-1.71634 2.1195,-1.71635 -1.1143,-9.80933 -1.1143,-9.80933 -1.822,-3.72763 -1.822,-3.72762 -8.0746,-0.28419 -8.0746,-0.28418 -8.0746,3.92504 -8.0746,3.92505 -7.57,5.61658 c -4.1634,3.08913 -8.1499,6.21981 -8.8588,6.95706 -0.7089,0.73726 -2.3805,2.70306 -3.7148,4.36845 l -2.4259,3.02797 -1.2139,-1.19415 -1.2138,-1.19414 2.7237,-6.88046 c 1.4979,-3.78424 4.17,-9.31223 5.9379,-12.28441 l 3.2143,-5.40396 5.9287,-4.97236 c 3.2607,-2.7348 7.8176,-6.07935 10.1263,-7.43235 2.3087,-1.353 6.2267,-3.18204 8.7066,-4.06453 l 4.5089,-1.60453 7.2638,-0.0407 7.2637,-0.0407 5.3989,2.47168 5.3989,2.47168 3.698,3.24701 3.6982,3.24702 2.4484,5.23019 2.4484,5.23019 1.1477,5.45435 1.1476,5.45435 0.9717,14.22749 c 0.5345,7.82513 0.9785,18.20172 0.9867,23.0591 l 0.015,8.83159 0.9498,0 c 0.5223,0 1.2304,-0.45419 1.5735,-1.00932 l 0.6238,-1.00933 2.0852,0 2.0853,0 -0.6551,3.28031 c -0.3602,1.80417 -2.0066,6.17003 -3.6588,9.70191 l -3.0037,6.42161 0,1.90532 0,1.90534 1.065,0 c 0.5857,0 3.6516,-1.32654 6.813,-2.94786 8.4718,-4.34486 14.8055,-7.1454 16.1598,-7.1454 l 1.1953,0 0,0.93796 c 0,0.51587 -1.8482,3.72035 -4.1069,7.12107 l -4.107,6.18313 -0.7779,4.92112 -0.778,4.92111 -1.6353,2.49582 -1.6353,2.49582 -5.3394,3.03086 -5.3393,3.03084 -5.4822,1.60832 c -3.0151,0.88457 -5.7403,1.54647 -6.0559,1.47087 -0.3157,-0.0756 -1.5867,-0.33311 -2.8247,-0.57223 z m -36.0972,-22.97905 7.754,-1.48356 5.7084,-2.60349 c 3.1396,-1.43192 7.4137,-3.77973 9.4979,-5.21736 l 3.7893,-2.61389 2.0143,-3.25912 2.0142,-3.25913 0,-4.21637 0,-4.21638 -2.4774,-2.47743 -2.4775,-2.47744 -1.9414,0 -1.9414,0 -1.5171,-2.27098 -1.517,-2.27098 -1.9313,1.73512 -1.9315,1.73512 -6.8317,2.11011 -6.8317,2.1101 -3.7212,3.28915 c -2.0466,1.80903 -5.8618,4.79915 -8.4782,6.64472 l -4.7571,3.3556 -2.4596,3.64059 c -1.3527,2.00233 -2.7698,4.68478 -3.1489,5.961 l -0.6894,2.32041 1.621,2.47388 1.621,2.4739 5.4393,0 5.4392,0 7.7538,-1.48357 z m -511.5638,18.24068 -3.7033,-3.70335 -2.5233,-4.97934 -2.5232,-4.97933 0,-2.49731 0,-2.4973 1.2567,-0.77665 1.2566,-0.77665 8.5843,-0.0399 8.5843,-0.0399 0.6077,-20.18651 0.6076,-20.1865 1.2392,-5.28434 1.2391,-5.28433 -0.3328,-13.05765 -0.3329,-13.05764 -2.2353,-2.37635 -2.2354,-2.37633 0.5835,-2.23157 0.5836,-2.23157 -1.6966,-0.65104 -1.6966,-0.65104 -2.2029,1.15922 -2.2028,1.15922 -5.0467,-1.93008 -5.0466,-1.9301 -0.3437,-1.70837 -0.3437,-1.70837 2.2407,-2.38511 2.2407,-2.38511 8.7009,-3.1969 8.7009,-3.1969 5.6146,-0.11922 5.6145,-0.11921 2.7967,1.83247 2.7967,1.83247 1.4297,3.42171 1.4297,3.42172 0,5.07904 0,5.07905 1.2616,-5.7e-4 1.2617,-5.5e-4 5.7723,-6.45484 5.7722,-6.45484 4.3874,-2.12386 4.3873,-2.12387 4.6454,0 c 2.555,0 5.3986,0.28904 6.3193,0.64231 l 1.6738,0.64233 0.907,2.38565 0.9071,2.38566 2.8641,0 2.8641,0 2.5872,2.77564 2.5872,2.77565 4.1623,8.61473 4.1622,8.61474 -0.058,1.98318 c -0.032,1.09075 -0.868,5.08936 -1.8577,8.8858 l -1.7994,6.90261 -4.4507,1.98848 -4.4506,1.98849 -2.6817,2.56259 -2.6816,2.5626 -6.0253,-2.70397 -6.0252,-2.70397 -1.096,-2.40539 -1.0959,-2.4054 0.8363,-0.51691 0.8364,-0.51691 1.8053,1.99485 1.8053,1.99486 2.6787,0 2.6786,0 1.6531,-1.26166 1.6531,-1.26166 1.5531,-4.54196 c 0.8542,-2.49808 1.5597,-5.35745 1.5678,-6.35416 l 0.015,-1.8122 -2.5233,-2.52332 c -1.3878,-1.38782 -2.5233,-2.87768 -2.5233,-3.31082 0,-0.43313 -1.0512,-1.77507 -2.336,-2.9821 l -2.3361,-2.19466 -5.514,0 -5.514,0 -2.2654,1.58678 -2.2654,1.58678 -2.8653,5.73082 c -1.5759,3.15196 -3.5976,8.00181 -4.4927,10.77746 -0.8951,2.77564 -2.7881,11.84976 -4.2068,20.1647 l -2.5794,15.11806 -0.1013,7.82241 -0.1013,7.82239 1.7295,2.63941 1.7294,2.63941 4.3376,1.91876 4.3377,1.91877 0.5491,2.09964 0.5491,2.09964 2.0701,-1.10791 2.0702,-1.10791 1.9796,1.23629 1.9796,1.23628 2.5078,-1.34215 2.5079,-1.34215 2.8534,0.71224 c 1.5693,0.39173 3.5347,1.29713 4.3674,2.01202 0.8327,0.71488 2.7723,1.59888 4.3103,1.96444 l 2.7964,0.66465 2.1063,-1.12726 2.1063,-1.12725 0.9658,0.96585 0.9659,0.96585 -1.7294,1.72933 -1.7293,1.72934 -2.046,-0.53504 -2.0461,-0.53505 -2.5978,1.39807 c -3.9474,2.12441 -12.1942,4.56191 -15.4343,4.56191 l -2.8884,0 -4.2495,2.19955 -4.2494,2.19955 -11.1026,0.74749 c -6.1064,0.41111 -15.4542,1.07264 -20.7728,1.47006 l -9.6703,0.72259 -3.7034,-3.70336 z m 585.6454,0.76389 c -1.4415,-1.58717 -3.3718,-4.00879 -4.2896,-5.38135 l -1.6688,-2.49556 0,-2.8034 0,-2.80339 1.9788,-1.9789 1.9789,-1.9789 5.5898,-1.62496 5.5896,-1.62497 0.5754,-2.29263 0.5754,-2.29263 -0.3216,-36.24284 -0.3218,-36.24284 -2.0733,-3.5292 -2.0731,-3.52921 -3.4781,-2.34388 -3.4781,-2.34386 0,-1.19221 0,-1.19219 9.5886,-3.25461 c 5.2737,-1.79004 10.497,-3.26617 11.6073,-3.28028 l 2.0186,-0.0256 2.6154,3.28028 2.6154,3.28028 1.2915,4.0373 c 0.7103,2.22052 1.6758,4.45374 2.1455,4.96273 l 0.854,0.92542 7.351,-7.63539 7.351,-7.63539 4.2897,-1.15121 4.2896,-1.15121 3.8071,1.02513 3.807,1.02514 4.2827,3.14953 4.2827,3.14954 2.4092,4.19116 c 1.3251,2.30515 2.7082,5.62715 3.0734,7.38225 l 0.6643,3.19106 -1.1379,6.39753 c -0.6259,3.51863 -2.2839,10.18932 -3.6847,14.82375 l -2.5466,8.42624 -5.9698,6.11976 -5.9696,6.11978 -0.6201,-0.61999 -0.6199,-0.62 1.7268,-7.04652 1.7268,-7.04652 -0.5742,-10.33884 -0.5743,-10.33884 -1.0188,-1.01882 -1.0188,-1.0188 -5.6048,1.76676 -5.6049,1.76678 -3.1082,4.22538 c -1.7095,2.32396 -3.7355,5.6875 -4.5023,7.47455 l -1.3941,3.24917 -2.5227,16.62148 -2.5228,16.62148 0,6.1696 0,6.1696 1.4766,2.85554 c 0.8122,1.57055 2.0613,3.07389 2.7757,3.34077 0.7145,0.26686 6.7493,0.16062 13.4109,-0.23612 l 12.1119,-0.72133 0.9123,0.81652 0.9123,0.81653 -2.7672,3.62798 c -1.522,1.99539 -4.2388,4.59264 -6.0374,5.77167 l -3.2703,2.1437 -2.182,3.32868 -2.182,3.32869 -2.6397,1.72961 -2.6397,1.72961 -9.735,0.73041 c -5.3542,0.40173 -14.0499,1.04912 -19.3236,1.43864 l -9.5886,0.70822 -2.6208,-2.88579 z m 86.2131,1.02043 c -1.2102,-1.03816 -3.3677,-3.65418 -4.7943,-5.81338 l -2.5939,-3.92581 0,-1.95545 0,-1.95545 2.8278,-2.82779 2.8278,-2.8278 4.1794,-0.70611 4.1794,-0.70609 0.9742,-1.18276 0.9743,-1.18275 0.2151,-35.32639 0.2152,-35.32639 -1.0079,-4.83067 -1.0078,-4.83067 -1.7772,-1.96389 -1.7773,-1.96387 -5.1592,-1.92189 -5.1591,-1.92188 -0.2753,-1.37682 -0.2752,-1.37682 12.7972,-2.28368 12.7974,-2.28368 2.6177,1.66492 c 1.4398,0.9157 3.6236,2.85174 4.8528,4.30233 l 2.2349,2.63741 0.6531,3.28031 0.6531,3.28031 1.1493,-0.008 1.1493,-0.008 4.7428,-5.9483 4.743,-5.94829 5.5487,-2.71476 5.5488,-2.71475 3.3342,0.71827 c 1.8339,0.39505 4.6969,1.39671 6.3623,2.22592 3.8859,1.93484 8.3906,6.12282 10.0972,9.38742 l 1.3377,2.55894 -1.4407,13.08561 -1.4406,13.08561 -2.9892,4.54196 c -1.644,2.49808 -3.7662,6.01811 -4.7161,7.82227 l -1.7268,3.28031 -1.6341,0 -1.634,0 -0.097,-8.32693 -0.098,-8.32694 -1.7161,-4.27025 -1.7161,-4.27025 -3.2976,-2.03803 -3.2977,-2.03803 -2.5322,0 -2.5322,0 -2.0188,4.79429 c -1.1104,2.63686 -2.7298,7.06528 -3.5988,9.84092 -1.7137,5.47389 -5.23,26.92548 -6.3083,38.48503 l -0.6714,7.19596 1.1793,3.57356 c 0.6487,1.96546 1.724,4.01845 2.3895,4.56223 l 1.21,0.98865 5.5513,-0.99332 c 3.0532,-0.54632 8.2765,-1.11583 11.6072,-1.26558 3.3308,-0.14974 6.8049,-0.59648 7.7202,-0.99274 l 1.6642,-0.72048 0.7145,1.15615 0.7146,1.15613 -6.6351,6.37896 -6.6351,6.37897 -1.5767,3.94075 -1.5768,3.94075 -3.2307,1.90844 -3.2308,1.90844 -9.6087,0.71303 c -5.2847,0.39217 -13.6964,1.04062 -18.6926,1.44097 l -9.0839,0.72795 -2.2004,-1.88756 z m 114.7402,0.0856 -5.5513,-1.52447 -5.3635,-3.67197 -5.3634,-3.67198 -3.9571,-4.62695 -3.9569,-4.62696 -2.9412,-6.05595 -2.9411,-6.05595 -1.112,-5.34864 -1.1119,-5.34864 0.02,-9.28658 0.02,-9.28658 0.9815,-6.78606 0.9814,-6.78606 2.1674,-6.33516 c 2.8528,-8.3384 7.4799,-17.53062 11.202,-22.25395 l 2.9999,-3.80688 6.3304,-4.51726 c 3.4818,-2.48451 8.8124,-5.65359 11.8461,-7.04241 l 5.5156,-2.52514 7.4813,-0.60982 7.4814,-0.60983 7.0427,1.65695 7.0428,1.65696 4.2168,2.47118 4.2167,2.47118 3.1207,3.9401 3.1205,3.94009 3.5036,7.42817 c 1.9269,4.0855 4.2267,10.15336 5.1107,13.48413 l 1.6072,6.05596 0.5641,9.58859 0.5641,9.58859 -1.6329,8.57926 c -0.8982,4.7186 -2.0988,10.24396 -2.668,12.27858 l -1.0349,3.69931 -3.5089,2.07027 -3.5088,2.07027 0,1.56172 c 0,0.85896 0.5603,2.45883 1.245,3.55528 l 1.245,1.99355 -2.002,3.73174 c -1.1011,2.05246 -4.1188,6.05108 -6.706,8.88583 l -4.7042,5.15409 -5.3891,2.97522 -5.3892,2.97522 -12.6166,0.24473 -12.6165,0.24473 -5.5513,-1.52446 z m 24.1799,-20.89797 5.5665,-1.26166 3.8621,-3.84775 3.8621,-3.84775 1.9618,-4.57687 1.9619,-4.57686 1.1123,-7.16913 1.1124,-7.16913 -0.6712,-14.18135 c -0.3692,-7.79974 -0.6526,-16.29128 -0.6297,-18.87009 l 0.041,-4.68873 -2.7263,-1.78631 c -1.4995,-0.98247 -5.1435,-3.75515 -8.0979,-6.16152 l -5.3714,-4.37523 -3.3102,0 -3.3102,0 -5.1819,1.53888 -5.182,1.53887 -3.2511,2.73573 -3.2513,2.73573 -3.8389,5.93942 -3.8388,5.93943 -0.6159,3.66419 c -0.3387,2.01531 -0.8275,4.43888 -1.0861,5.38572 -0.2587,0.94684 -2.263,3.89079 -4.4539,6.54212 l -3.9835,4.82058 0,1.56051 0,1.56051 1.8628,1.59502 1.8629,1.59501 0.6933,5.89961 0.6934,5.89961 4.3633,9.21106 4.3634,9.21105 2.9583,2.10647 c 3.4915,2.48614 8.5825,4.07689 13.4528,4.20345 1.9267,0.0501 6.008,-0.47671 9.0696,-1.17062 z m 90.0957,19.8557 -5.2211,-2.60179 -2.5952,-3.08428 c -1.4274,-1.69635 -3.4406,-4.74127 -4.4738,-6.76648 l -1.8785,-3.68222 -1.1013,-5.95697 -1.1011,-5.95698 -0.071,-26.81408 -0.071,-26.81408 -0.7892,-2.01865 -0.7894,-2.01865 -7.284,0 -7.284,0 -3.9677,-4.25055 -3.9676,-4.25055 0,-2.5761 0,-2.57609 -1.1686,-1.87125 -1.1685,-1.87126 0.5501,-1.43386 0.5502,-1.43388 5.9545,-3.12124 5.9544,-3.12125 5.8239,-1.30331 5.8239,-1.30331 1.2043,-2.09755 1.2043,-2.09754 -0.2589,-20.5175 -0.259,-20.51751 -1.0727,-2.0045 -1.0728,-2.0045 1.203,-1.44947 1.2029,-1.44947 2.0154,0 2.0154,0 5.9062,3.58784 5.9062,3.58785 2.1245,2.98362 2.1246,2.98362 0.5875,15.28839 0.5876,15.28839 1.8747,1.87466 1.8747,1.87466 2.7602,-0.66326 c 1.5182,-0.36479 4.35,-1.44999 6.2929,-2.41158 l 3.5327,-1.74831 7.929,-0.7279 7.9291,-0.72789 3.6782,-1.56726 3.6781,-1.56727 5.2881,-0.10293 5.2881,-0.10293 0.4945,1.2895 0.4946,1.28952 -1.7453,1.42266 c -0.96,0.78247 -3.8757,3.15446 -6.4796,5.27111 -2.6037,2.11664 -8.5867,7.2899 -13.2955,11.49614 l -8.5613,7.64769 -8.9097,3.36936 c -4.9002,1.85316 -9.5909,3.99106 -10.4236,4.75091 l -1.5139,1.38153 -0.3251,27.97442 -0.3253,27.97442 0.6543,5.33189 0.6542,5.33189 2.3422,2.72294 2.3421,2.72294 3.1024,-1.49422 3.1023,-1.49421 11.4885,-11.23977 c 6.3187,-6.18188 12.4732,-11.76679 13.6769,-12.41092 l 2.1882,-1.17114 0.8616,0.53254 0.8617,0.53254 -0.8159,4.30844 c -0.4489,2.36963 -1.5413,6.03057 -2.4277,8.13541 l -1.6116,3.82699 -3.1325,2.79889 -3.1325,2.79889 1.1681,2.18267 1.1681,2.18267 -1.5849,3.80802 -1.585,3.80802 -4.2417,4.41512 c -2.3331,2.42832 -6.2612,5.72124 -8.7292,7.31761 l -4.4873,2.90249 -5.6601,0 -5.6601,0 -5.2212,-2.60179 z"
       id="path4376"
       inkscape:connector-curvature="0" />
    <flowRoot
       xml:space="preserve"
       id="flowRoot2996"
       style="font-style:normal;font-weight:normal;font-size:40px;line-height:125%;font-family:Sans;letter-spacing:0px;word-spacing:0px;display:inline;fill:#90c2bb;fill-opacity:1;stroke:none"
       transform="matrix(1.4459619,0,0,1.3974976,-22.773223,156.53834)"><flowRegion
         id="flowRegion2998"><rect
           id="rect3000"
           width="549.01398"
           height="107.30727"
           x="464.16632"
           y="16.660873"
           style="fill:#90c2bb;fill-opacity:1" /></flowRegion><flowPara
         id="flowPara3002"
         style="font-style:normal;font-variant:normal;font-weight:normal;font-stretch:normal;font-size:72px;font-family:Risque;-inkscape-font-specification:Risque;fill:#90c2bb;fill-opacity:1">Pipro </flowPara></flowRoot>    <flowRoot
       xml:space="preserve"
       id="flowRoot3012"
       style="font-style:normal;font-variant:normal;font-weight:normal;font-stretch:normal;font-size:40px;line-height:125%;font-family:Risque;-inkscape-font-specification:Risque;letter-spacing:0px;word-spacing:0px;display:inline;fill:#90c2bb;fill-opacity:1;stroke:none"
       transform="translate(-220.77687,33.789226)"><flowRegion
         id="flowRegion3014"><rect
           id="rect3016"
           width="247.05627"
           height="82.352089"
           x="1140.4517"
           y="178.86954"
           style="font-style:normal;font-variant:normal;font-weight:normal;font-stretch:normal;font-family:Risque;-inkscape-font-specification:Risque;fill:#90c2bb;fill-opacity:1" /></flowRegion><flowPara
         id="flowPara3018"
         style="font-size:72px;fill:#90c2bb;fill-opacity:1">kaj</flowPara></flowRoot>    <flowRoot
       xml:space="preserve"
       id="flowRoot3020"
       style="font-style:normal;font-weight:normal;font-size:40px;line-height:125%;font-family:Sans;letter-spacing:0px;word-spacing:0px;display:inline;fill:#90c2bb;fill-opacity:1;stroke:none"
       transform="matrix(2.5856793,0,0,2.7333209,-2732.1167,-176.57799)"><flowRegion
         id="flowRegion3022"><rect
           id="rect3024"
           width="158.68651"
           height="53.440353"
           x="1459.8779"
           y="118.9771"
           style="fill:#90c2bb;fill-opacity:1" /></flowRegion><flowPara
         id="flowPara3026"
         style="font-style:normal;font-variant:normal;font-weight:normal;font-stretch:normal;font-size:38.49537659px;font-family:Risque;-inkscape-font-specification:Risque;fill:#90c2bb;fill-opacity:1">Karoĉjo</flowPara></flowRoot>  </g>
</svg>
