<?xml version="1.0" encoding="UTF-8" standalone="no"?>
<!-- Created with Inkscape (http://www.inkscape.org/) -->

<svg
   xmlns:dc="http://purl.org/dc/elements/1.1/"
   xmlns:cc="http://creativecommons.org/ns#"
   xmlns:rdf="http://www.w3.org/1999/02/22-rdf-syntax-ns#"
   xmlns:svg="http://www.w3.org/2000/svg"
   xmlns="http://www.w3.org/2000/svg"
   xmlns:xlink="http://www.w3.org/1999/xlink"
   xmlns:sodipodi="http://sodipodi.sourceforge.net/DTD/sodipodi-0.dtd"
   xmlns:inkscape="http://www.inkscape.org/namespaces/inkscape"
   id="svg2"
   version="1.1"
   inkscape:version="0.91 r"
   width="2481"
   height="663"
   sodipodi:docname="Pepper-and-Carrot_by-David-Revoy_E02P00.svg">
  <metadata
     id="metadata8">
    <rdf:RDF>
      <cc:Work
         rdf:about="">
        <dc:format>image/svg+xml</dc:format>
        <dc:type
           rdf:resource="http://purl.org/dc/dcmitype/StillImage" />
        <dc:title />
      </cc:Work>
    </rdf:RDF>
  </metadata>
  <defs
     id="defs6" />
  <sodipodi:namedview
     pagecolor="#ffffff"
     bordercolor="#666666"
     borderopacity="1"
     objecttolerance="10"
     gridtolerance="10"
     guidetolerance="10"
     inkscape:pageopacity="0"
     inkscape:pageshadow="2"
     inkscape:window-width="1920"
     inkscape:window-height="1056"
     id="namedview4"
     showgrid="false"
     inkscape:zoom="0.59975816"
     inkscape:cx="1240.5"
     inkscape:cy="331.5"
     inkscape:window-x="0"
     inkscape:window-y="24"
     inkscape:window-maximized="1"
     inkscape:current-layer="layer1" />
  <g
     inkscape:groupmode="layer"
     id="layer2"
     inkscape:label="artwork"
     sodipodi:insensitive="true">
    <image
       sodipodi:absref="/home/deevad/peppercarrot/webcomics/New/lang/sv/../gfx_Pepper-and-Carrot_by-David-Revoy_E02P00.png"
       xlink:href="../gfx_Pepper-and-Carrot_by-David-Revoy_E02P00.png"
       y="0"
       x="-1.6728083e-06"
       id="image10"
       height="663"
       width="2481" />
  </g>
  <g
     inkscape:groupmode="layer"
     id="layer1"
     inkscape:label="text"
     style="opacity:1">
    <flowRoot
       xml:space="preserve"
       id="flowRoot3063"
       style="font-style:normal;font-variant:normal;font-weight:normal;font-stretch:normal;font-size:72px;line-height:125%;font-family:Arial;-inkscape-font-specification:Arial;letter-spacing:0px;word-spacing:0px;display:inline;fill:#562f13;fill-opacity:1;stroke:none"
       transform="matrix(0.94455904,0,0,0.93929582,-122.7331,125.3673)"><flowRegion
         id="flowRegion3065"><rect
           id="rect3067"
           width="2715.5891"
           height="110.01318"
           x="92.642677"
           y="425.30325"
           style="font-size:72px;fill:#562f13;fill-opacity:1" /></flowRegion><flowPara
         id="flowPara3069"
         style="font-style:normal;font-variant:normal;font-weight:normal;font-stretch:normal;font-size:88px;font-family:Lavi;-inkscape-font-specification:Lavi;text-align:center;text-anchor:middle;fill:#562f13;fill-opacity:1">Episode 2 : Regnbågselixir</flowPara></flowRoot>    <path
       style="display:inline;fill:#562f13;fill-opacity:1;stroke:none"
       d="m 720.33415,505.61533 c -1.96141,-1.72216 -4.21464,-4.38511 -5.00719,-5.91772 l -1.44096,-2.78653 0,-4.07266 0,-4.07266 2.44108,-2.44108 2.44108,-2.4411 1.78563,-0.0317 c 0.98209,-0.0175 2.64845,-0.68441 3.70308,-1.48226 l 1.91747,-1.45066 0.74484,-5.23074 0.74483,-5.23066 0.0727,-22.69073 0.0727,-22.69061 -1.02949,-1.92364 -1.02952,-1.92365 -1.77352,0 c -0.97545,0 -4.14603,-0.70458 -7.04575,-1.56563 l -5.27219,-1.56575 -2.36719,-2.36712 -2.36719,-2.36725 0,-1.53697 0,-1.53697 5.71848,-0.0411 5.71847,-0.0411 4.47533,-2.19658 4.47533,-2.1967 0.28415,-34.80814 0.28415,-34.808 -1.18046,-4.30236 -1.18048,-4.30236 -2.08722,-1.35385 -2.08725,-1.35372 -8.70202,-0.69636 -8.70203,-0.69636 0,-1.19117 0,-1.19116 4.39855,-4.46155 4.39855,-4.46156 12.58715,-5.68946 12.58714,-5.68948 1.91548,0.60803 c 1.05354,0.33436 3.2557,1.73568 4.89371,3.11395 l 2.97818,2.50589 0,1.33243 c 0,0.73273 0.70327,2.03551 1.56281,2.89506 l 1.56282,1.56289 10.26013,0 10.26015,0 8.62177,2.49841 c 4.742,1.37416 10.7802,3.5923 13.41825,4.92909 2.63804,1.33678 8.35123,5.10921 12.69604,8.38309 l 7.89959,5.95244 2.73005,3.93948 2.73005,3.93948 1.42355,4.73013 1.42355,4.73014 0,6.71494 0,6.71495 -1.86129,5.98035 -1.86128,5.98034 -3.67898,6.57867 -3.67899,6.57854 -5.98137,6.39418 -5.98139,6.39405 -6.62829,4.88473 c -3.64555,2.68665 -8.86594,5.9923 -11.60085,7.3459 -2.73494,1.35361 -10.11922,4.16508 -16.40954,6.2478 -6.29032,2.08273 -12.4439,4.15201 -13.6746,4.59834 l -2.23767,0.81172 0,21.44862 0,21.44862 2.40064,2.40063 2.40065,2.40063 2.82057,0.59782 c 1.55132,0.32875 3.57252,1.00257 4.49159,1.49736 l 1.67102,0.89949 4.33657,-0.087 c 2.38512,-0.0477 6.62131,0.2272 9.41375,0.61127 l 5.07719,0.69828 3.15967,-1.63394 3.1597,-1.63399 2.9285,0.64328 c 1.6107,0.3538 4.93453,0.64318 7.38629,0.64318 2.45179,0 4.45778,0.20933 4.45778,0.46515 0,0.2558 -1.61608,1.14037 -3.5913,1.96568 -3.62365,1.51404 -11.41659,6.40512 -16.65278,10.45176 l -2.84005,2.19482 -6.47094,1.79433 -6.47093,1.79433 -4.61227,2.93247 -4.61225,2.93247 -7.45888,2.10713 c -4.10238,1.15893 -9.73588,2.76269 -12.51886,3.56391 l -5.06,1.4567 -4.10469,0 -4.10468,0 -3.56621,-3.13119 z m 43.92249,-106.71104 8.80312,-4.42331 8.01678,-6.43591 8.01675,-6.43591 4.8024,-5.79884 4.80238,-5.79897 2.8437,-5.96701 2.8437,-5.96714 7.7e-4,-4.27607 8.1e-4,-4.27608 -1.45606,-2.8157 c -0.80084,-1.54869 -2.84448,-3.98395 -4.54147,-5.41192 l -3.08539,-2.59622 -5.65235,-1.69754 -5.65233,-1.69743 -8.4534,-0.0262 -8.45339,-0.0262 -5.49502,1.24199 -5.49503,1.24211 -3.207,1.9503 -3.207,1.9503 0,29.8007 0,29.80069 1.74039,1.01378 c 0.95724,0.55747 2.25433,1.02722 2.88246,1.04391 0.62813,0.0162 5.10347,-1.96027 9.94518,-4.39316 z m 72.94946,108.27128 c -1.36745,-0.88412 -3.70809,-3.19065 -5.20143,-5.12563 l -2.71514,-3.51814 -0.61184,-3.26144 -0.61186,-3.26145 1.33796,-2.81951 1.33795,-2.81952 4.39446,-2.10881 4.39444,-2.10881 1.32403,-1.81072 1.32402,-1.8107 0,-27.53325 0,-27.53324 -5.22121,-0.58325 c -2.87166,-0.32089 -6.9746,-0.93728 -9.11762,-1.36992 l -3.89638,-0.78655 -0.31415,-0.99097 c -0.17276,-0.54501 0.0344,-1.54034 0.46053,-2.21191 l 0.77469,-1.2208 7.6878,-1.47096 c 4.2283,-0.80897 8.12399,-1.74052 8.65707,-2.07001 l 0.96927,-0.59895 0,-40.26864 0,-40.26863 -1.45118,-2.80624 -1.45117,-2.80637 -8.24537,-1.1711 c -4.53495,-0.64405 -9.69985,-1.39322 -11.47755,-1.66466 l -3.23217,-0.49368 0,-0.77608 c 0,-0.4268 1.00694,-1.69307 2.23766,-2.81385 2.43523,-2.21776 14.98549,-10.24321 16.01838,-10.24321 0.35038,0 4.62351,-1.79497 9.49584,-3.9888 l 8.8588,-3.98893 2.82632,1.07455 c 1.55446,0.59098 3.61035,1.78413 4.56858,2.65128 l 1.74217,1.5767 0,2.71344 0,2.71331 2.23766,0.5997 c 1.2308,0.32986 6.72202,0.6058 12.20295,0.61327 l 9.96513,0.0137 7.13538,1.97734 c 3.92456,1.08751 9.68087,3.10309 12.7918,4.47887 l 5.65653,2.50153 6.58114,4.89707 c 3.61985,2.69338 8.23738,6.60769 10.26173,8.69851 l 3.68027,3.80145 2.20677,4.97256 2.20677,4.97256 0.44499,7.51108 0.44509,7.51097 -2.91104,8.44513 -2.91084,8.44526 -3.82888,5.76819 c -2.10574,3.17262 -6.07202,8.2229 -8.81391,11.22298 l -4.98524,5.45453 -3.17156,-0.59497 -3.17147,-0.59495 -1.03694,1.26241 c -0.57027,0.69425 -1.19171,2.37697 -1.38101,3.73917 l -0.34387,2.477 -4.89357,3.19739 -4.89367,3.19728 -12.34239,4.51961 -12.3424,4.51949 -2.15709,0.0149 c -1.18633,0.0124 -2.82829,0.43937 -3.64876,0.95772 l -1.4918,0.9425 0,21.33776 0,21.33774 2.37082,2.52459 2.37068,2.52458 5.16454,1.07207 5.16447,1.07219 9.86884,-0.0287 c 5.42787,-0.0162 12.46818,-0.0797 15.6455,-0.14226 l 5.77667,-0.11336 0.67941,0.67938 0.6794,0.6794 -1.98088,1.16182 c -1.08925,0.63901 -4.8281,2.39817 -8.30838,3.90922 l -6.32751,2.7474 -2.94804,2.48055 c -1.62129,1.36425 -3.52191,2.4805 -4.22331,2.4805 l -1.27547,0 -4.36677,3.83631 c -2.40162,2.10994 -6.28322,4.81165 -8.62564,6.00376 l -4.259,2.16748 -9.66421,2.62708 -9.6643,2.62709 -4.97255,0.33806 -4.97264,0.33806 -2.4863,-1.60747 z m 40.55586,-107.2904 7.18337,-3.44255 7.20916,-5.35175 7.20897,-5.35164 6.96149,-7.37991 6.9617,-7.37979 2.7869,-5.74889 2.787,-5.74902 0.50367,-4.68031 0.50378,-4.6803 -1.79878,-3.45539 -1.79908,-3.45551 -3.97799,-2.76688 -3.978,-2.76688 -7.459,-1.57795 -7.45889,-1.57808 -6.4643,0.57677 c -3.55541,0.31728 -9.14955,1.26179 -12.43149,2.09917 l -5.96703,1.52227 -2.28084,2.57478 -2.28083,2.57467 0.29175,28.08708 0.29184,28.08708 1.36489,1.64286 1.36488,1.64272 1.64677,0 c 0.90561,0 4.87919,-1.54917 8.83006,-3.44255 z m 342.83054,77.10817 c -2.735,-0.9749 -7.2506,-2.92732 -10.0348,-4.33885 l -5.062,-2.56644 -3.1366,-3.57224 c -1.7252,-1.96488 -4.1316,-5.462 -5.3479,-7.77145 l -2.2109,-4.19908 -0.032,-7.45877 -0.033,-7.45889 3.1398,-6.62726 3.1397,-6.62712 7.7173,-8.0774 7.7169,-8.07751 -2.7936,-5.84532 -2.7938,-5.84518 0.5968,-2.98314 0.5966,-2.98312 -1.4234,-1.18133 -1.4234,-1.18132 1.5437,-2.985 1.5434,-2.985 -2.2071,-2.34931 -2.2069,-2.34931 0.6307,-4.60095 0.6306,-4.60097 1.9807,-4.47812 1.9809,-4.478 4.2294,-5.05166 4.2295,-5.05153 4.3658,-2.76875 4.3659,-2.76886 5.3861,-1.20537 5.3861,-1.20536 5.1779,1.63576 5.1779,1.63576 5.6775,3.55579 5.6774,3.5558 3.6228,5.9639 3.6229,5.9639 0.5088,3.79398 0.509,3.79384 -2.1955,6.95638 -2.1956,6.95648 -3.8208,4.86556 c -2.1016,2.67594 -5.464,7.32697 -7.4721,10.33526 -2.0079,3.00842 -4.9907,6.65927 -6.6284,8.1129 l -2.9777,2.64293 0.8469,1.44442 c 0.4657,0.79452 4.9217,5.77069 9.9022,11.05816 l 9.0556,9.61362 1.1877,-1.43109 1.1878,-1.43108 0.1992,-2.82206 0.1991,-2.82207 -3.7245,-0.30832 -3.7243,-0.30844 -2.4914,-3.26628 -2.4912,-3.26629 0,-2.07276 0,-2.07276 1.4246,-1.42474 1.4247,-1.4246 8.2719,-2.57167 c 4.5495,-1.4144 10.5094,-3.08005 13.2444,-3.70142 l 4.9725,-1.12987 11.9343,-0.39241 c 6.5638,-0.21588 14.2837,-0.65848 17.1555,-0.98361 l 5.2211,-0.5911 -6e-4,1.31474 -5e-4,1.31472 -7.0727,6.46432 c -3.89,3.55542 -8.477,7.86176 -10.1932,9.56952 l -3.1205,3.10534 -4.8512,0.70421 c -2.6682,0.3873 -5.4652,0.93977 -6.2157,1.22778 l -1.3647,0.52371 0,4.82892 0,4.8288 -2.1219,5.67128 -2.1218,5.67115 2.8574,2.07363 c 1.5717,1.14046 4.6523,3.45489 6.846,5.14297 l 3.9882,3.06946 -0.1846,1.40593 c -0.1007,0.77323 -0.8035,3.08067 -1.5599,5.12764 l -1.3752,3.72174 -2.3428,2.49393 -2.343,2.49406 -3.0588,0 -3.0589,0 -3.2562,-1.98531 c -1.7909,-1.09138 -3.8564,-1.98481 -4.5899,-1.98481 -0.7336,0 -2.4715,-0.89506 -3.8623,-1.98905 -1.3907,-1.09399 -3.1295,-1.97759 -3.8635,-1.96351 -0.7342,0.0137 -3.7964,1.59677 -6.8049,3.51743 l -5.4697,3.49201 -9.4084,2.94689 -9.4084,2.94688 -5.0121,-0.0728 -5.0121,-0.0728 -4.9727,-1.77234 z m 24.1316,-24.06726 4.3722,-2.1166 0.487,-1.26902 0.4869,-1.26889 -10.2636,-10.03443 -10.2636,-10.03443 -1.2008,0 -1.2007,0 -2.7773,3.66081 c -1.5276,2.01346 -4.2318,5.00482 -6.0096,6.64742 l -3.2321,2.9865 0,1.34502 0,1.34488 4.2267,4.31257 c 2.3246,2.37185 5.1217,4.80338 6.2158,5.40332 l 1.9889,1.091 6.399,0.0299 6.399,0.0299 4.3722,-2.11649 z m -5.3201,-61.12229 7.6781,-6.55138 1.9178,-3.14521 1.9178,-3.1452 0,-3.15579 0,-3.15592 -2.466,-2.93081 -2.4663,-2.93093 -2.987,-1.23727 -2.9871,-1.23725 -3.4374,0.64479 -3.4375,0.64492 -2.6971,3.19839 c -1.4833,1.75909 -3.3002,4.63845 -4.038,6.39853 l -1.3415,3.20027 0,3.85189 0,3.85204 1.4084,4.67956 c 1.3987,4.64792 3.1471,7.57076 4.5288,7.57076 0.3963,0 4.1761,-2.94814 8.3991,-6.55139 z m 176.3931,58.27046 c -3.1282,-0.40125 -8.8592,-1.74937 -12.7356,-2.99571 l -7.0478,-2.26622 -5.9053,-3.58694 c -3.2479,-1.97273 -8.1941,-5.37692 -10.9913,-7.5649 l -5.0856,-3.9781 -5.7507,-6.76727 -5.7505,-6.76727 -3.0086,-5.66417 c -1.6547,-3.11531 -3.9234,-8.57307 -5.0414,-12.12849 -1.118,-3.55542 -2.9824,-11.60143 -4.1431,-17.88 l -2.1106,-11.41556 0.4419,-4.49669 c 0.6386,-6.49633 3.4493,-20.92404 6.2193,-31.92365 2.7577,-10.95103 8.656,-28.32814 11.6079,-34.19786 4.3975,-8.74436 15.4609,-26.30557 22.2516,-35.32037 3.9396,-5.22967 10.232,-12.64745 13.9831,-16.48403 3.7512,-3.83646 9.9514,-9.34268 13.7784,-12.23587 l 6.9582,-5.26044 8.2464,-4.08635 8.2466,-4.08634 10.6527,-0.0673 10.6528,-0.0673 9.448,3.81241 c 5.1962,2.09693 10.3429,3.88703 11.437,3.97809 l 1.9889,0.16569 0.4974,-5.51482 0.4972,-5.51495 1.8451,-2.81446 1.8449,-2.81459 5.4716,0.64305 5.4716,0.64316 5.375,2.54277 5.3751,2.54277 3.4691,3.2719 3.4693,3.27189 0,4.97953 c 0,2.73872 -0.2799,6.37873 -0.6218,8.08885 l -0.6219,3.10945 -3.9227,4.45659 -3.923,4.45644 0.6255,1.01178 0.6252,1.01177 1.8202,0 1.82,0 2.2972,1.86 2.297,1.86011 -1.181,13.80361 c -1.3594,15.88708 -2.3793,23.47677 -4.5042,33.51157 -0.832,3.92914 -1.9461,9.38155 -2.4759,12.11654 -0.53,2.73486 -1.7001,8.26251 -2.6005,12.28346 l -1.6368,7.31089 -2.4687,4.87191 -2.4689,4.87203 -0.8617,0 -0.8618,0 -0.5997,-2.2377 c -0.3299,-1.23078 -0.6058,-4.60158 -0.6131,-7.49079 l -0.013,-5.25321 -1.3441,-3.21621 -1.3437,-3.21634 -0.7333,-12.87293 -0.7333,-12.87293 -4.2615,-12.47119 -4.2615,-12.47119 -4.2826,-8.35095 -4.2827,-8.35095 -3.5733,-3.75623 -3.573,-3.75624 -2.7556,-0.69161 -2.7552,-0.69151 -4.3559,1.66354 c -2.3958,0.91486 -7.1873,3.53212 -10.648,5.81604 l -6.292,4.15261 -9.269,9.39538 -9.269,9.39536 -7.3266,11.01319 -7.3266,11.01332 -6.9518,14.42049 c -7.4654,15.48647 -12.4661,28.28939 -16.5393,42.34526 l -2.554,8.81275 -0.6159,7.48867 -0.6157,7.48865 -2.3279,2.80101 -2.328,2.80101 1.4635,2.82992 c 0.805,1.55653 2.7385,3.87632 4.2969,5.15518 l 2.8333,2.32514 2.664,4.66561 2.6639,4.66561 4.7163,4.82942 4.7161,4.82942 4.8188,2.32514 4.8185,2.32501 11.0938,-0.52108 11.0935,-0.52121 9.6307,-3.11979 c 5.2968,-1.71586 12.2038,-4.25776 15.349,-5.64873 l 5.7183,-2.52882 1.7671,0.46204 1.7671,0.46204 2.8562,-2.72951 2.8562,-2.7295 7.0129,-2.6798 7.0129,-2.6798 1.8536,-2.04797 c 1.0194,-1.12638 3.0221,-2.6524 4.4504,-3.39099 l 2.5971,-1.34313 1.18,-2.78183 1.1797,-2.78183 5.6292,-3.41938 c 3.096,-1.88067 7.3102,-4.93829 9.3651,-6.79493 l 3.7364,-3.37554 3.9471,-6.24979 3.9471,-6.2498 1.4874,-0.57079 1.4874,-0.57066 1.2171,1.46647 1.2172,1.46659 -1.1092,2.20381 c -0.61,1.21208 -2.2083,6.7629 -3.5518,12.33515 l -2.4426,10.13147 -4.8002,8.76441 -4.8,8.76429 -6.647,6.65204 -6.647,6.65192 -2.8535,1.47543 -2.8532,1.47543 -1.9172,-0.17128 -1.9175,-0.17116 -2.7668,5.46972 -2.7667,5.46997 -10.6813,6.6549 -10.681,6.65504 -8.9508,2.97241 -8.9506,2.9723 -7.7795,1.06372 c -8.5197,1.16487 -13.1454,1.18045 -21.7767,0.0735 z m -937.97237,-17.29911 -3.84157,-1.44367 -2.9625,-2.81359 -2.96252,-2.81359 -1.95286,-3.79735 -1.95287,-3.79746 -0.55835,-4.71432 -0.55834,-4.7143 2.37224,-2.75779 2.37224,-2.75791 6.23182,-0.73485 6.23182,-0.73473 1.69291,-1.69294 1.69288,-1.69294 0.51009,-9.17038 0.51012,-9.1704 2.98352,-0.50813 2.98357,-0.50814 0.30867,-2.66796 0.30868,-2.66796 -2.79496,-1.77964 c -1.53723,-0.9789 -3.12378,-2.23758 -3.52564,-2.79728 l -0.73064,-1.01751 -0.0153,-28.62348 -0.0152,-28.62362 1.24314,-0.38293 c 0.68374,-0.21065 2.42451,-0.6403 3.86839,-0.95472 l 2.62523,-0.57179 0.63159,-1.64584 0.63161,-1.64598 -1.26781,-1.69743 c -0.69729,-0.93355 -2.77427,-3.66504 -4.61556,-6.07015 l -3.34776,-4.37275 0.80396,-15.91225 c 0.44216,-8.75182 0.82983,-20.2405 0.86146,-25.5306 l 0.0574,-9.61823 -2.40146,-2.55435 -2.40146,-2.55448 -5.55469,-2.07114 -5.55464,-2.07114 -2.15729,-2.01496 -2.1573,-2.01483 -2.1179,-4.92323 -2.1179,-4.92322 -0.16292,-5.87808 -0.16294,-5.87819 2.32923,-2.47936 2.32923,-2.47936 8.57324,-3.13375 8.57325,-3.13387 15.41502,-2.87624 15.41503,-2.87626 17.90129,0.0212 17.90131,0.0212 9.56326,0.93068 9.56321,0.93069 8.17244,2.98251 c 4.49483,1.64049 10.9395,4.53007 14.32147,6.42133 3.38198,1.89125 8.17563,5.22257 10.65261,7.40296 l 4.50354,3.96414 6.30905,8.79718 6.30903,8.79717 4.76615,9.94511 4.76616,9.94523 1.67039,6.46431 1.67041,6.46431 0.0892,7.45889 0.0893,7.4589 -1.28819,5.46985 -1.28816,5.46985 -3.88799,7.95618 -3.88801,7.95606 -5.71419,6.63946 c -3.1428,3.65171 -7.95186,8.62651 -10.68679,11.05492 -2.73491,2.42854 -8.47786,6.92971 -12.76207,10.00254 l -7.78948,5.58707 -12.10085,5.85478 c -15.25556,7.38103 -33.05754,14.50819 -41.43911,16.59029 -3.5554,0.88322 -8.12247,2.0314 -10.14905,2.55162 l -3.68468,0.94562 -1.53653,1.53661 -1.53652,1.53647 0,12.90295 0,12.90284 2.28117,2.28117 2.28119,2.28117 4.054,0.64827 4.05403,0.64828 1.24544,1.50072 1.24546,1.50072 5.09943,0.0137 5.09945,0.0149 4.29276,1.49512 4.29276,1.49512 0.92116,-0.56931 c 0.86747,-0.53603 21.80256,-1.64933 28.28496,-1.50395 1.64095,0.0362 4.54992,0.0735 6.46436,0.081 1.91445,0.0124 4.09063,0.2327 4.83595,0.49991 l 1.35517,0.4857 -1.22829,1.47992 -1.22831,1.48005 -1.55325,0 c -0.85431,0 -3.5966,0.95073 -6.09398,2.11287 -2.49737,1.16201 -7.22588,3.36083 -10.50778,4.8861 -3.2819,1.52539 -8.65231,3.53125 -11.9342,4.4577 -3.28191,0.92644 -7.43679,2.30783 -9.23303,3.06995 l -3.26594,1.38562 -3.72305,0 -3.72305,0 -2.17499,1.52353 c -3.25156,2.27743 -9.60949,4.33599 -20.14696,6.52285 l -9.44791,1.9609 -11.93419,0.49679 -11.93421,0.49679 -3.84156,-1.44367 z m 74.31776,-110.68913 8.81617,-3.4838 4.30395,0.64541 4.30396,0.64541 1.59439,-2.43339 1.59438,-2.43328 -0.59897,-2.38655 -0.59898,-2.38644 1.96264,-1.77615 1.96265,-1.77616 2.13533,1.14283 2.13534,1.1427 1.51393,-1.25643 1.51393,-1.25644 -0.55332,-2.76662 -0.55334,-2.76663 4.96778,-5.67702 c 6.20596,-7.09189 11.21078,-14.58829 14.67313,-21.9778 l 2.67512,-5.70951 6.4e-4,-8.95065 6.4e-4,-8.95065 -2.64582,-5.64399 -2.64581,-5.64401 -4.06969,-4.41509 -4.06969,-4.41509 -5.79884,-2.60245 -5.79886,-2.60232 -7.63154,-1.13509 -7.63153,-1.13499 -9.68961,1.17585 c -5.32929,0.64665 -10.43612,1.39134 -11.34854,1.65481 l -1.65893,0.47911 -3.44496,-3.02474 -3.44495,-3.02475 -2.07137,0 -2.07139,0 -1.02951,1.92365 c -0.56622,1.058 -1.02951,2.99696 -1.02951,4.30871 l 0,2.38506 -3.65147,2.40425 c -2.00832,1.32234 -4.52838,3.59653 -5.60015,5.05365 l -1.94868,2.6494 -0.81845,15.74919 -0.81847,15.74919 -0.0457,28.40224 -0.0457,28.40236 1.24316,1.56738 c 0.68372,0.86216 1.91444,1.76893 2.73492,2.0152 l 1.49177,0.44759 11.43695,-2.41496 11.43695,-2.41508 8.81615,-3.48391 z m 93.61908,108.39451 c -1.64094,-0.21776 -5.36732,-1.06821 -8.28083,-1.89001 l -5.29727,-1.49413 -4.19373,-4.19373 -4.19373,-4.19372 -4.36844,-11.42005 -4.36843,-11.42004 -0.41506,-13.38692 -0.41504,-13.38705 1.18119,-7.32211 1.1812,-7.32224 2.39497,-7.04145 c 1.31724,-3.87283 4.00038,-9.96218 5.96253,-13.53193 4.2727,-7.77318 11.07711,-16.81601 17.55699,-23.33251 l 4.74156,-4.76839 8.24291,-3.95529 8.24292,-3.95517 5.07065,-0.60057 5.07061,-0.60056 5.1594,2.80811 5.15939,2.8081 5.28093,5.07408 5.28091,5.07421 2.48007,4.92272 2.48009,4.92274 1.11822,5.27015 1.11822,5.27016 -0.005,12.63113 -0.005,12.63115 -1.03834,3.73891 -1.03829,3.73879 -2.18832,1.42 -2.18831,1.41988 -6.96163,1.13834 c -6.97983,1.14121 -41.26762,9.65722 -48.73134,12.10333 l -3.97806,1.30364 -1.73345,3.54346 -1.73348,3.54347 1.68631,4.41272 c 0.92747,2.42692 2.73034,6.10716 4.00636,8.17818 l 2.32003,3.76545 3.19695,2.0162 3.19697,2.01632 6.05628,-0.43325 6.05631,-0.43315 6.37515,-2.81159 c 3.50635,-1.54644 11.74304,-6.02308 18.30377,-9.9481 l 11.92859,-7.13638 1.35501,0.51997 1.35499,0.51996 -0.53171,3.27651 c -0.29243,1.80218 -1.43393,5.31612 -2.53661,7.80906 l -2.0049,4.53231 -2.47119,0 -2.47116,0 -1.62947,1.62953 -1.62945,1.62941 0.15886,4.08897 c 0.0875,2.24902 0.11734,4.57429 0.0666,5.16726 l -0.0922,1.0783 -8.73019,4.14876 -8.73021,4.14888 -6.93344,1.46858 c -6.86687,1.45463 -9.10736,1.57646 -14.88958,0.8096 z m 9.50606,-73.3857 16.3514,-3.67738 4.14164,-1.80318 4.14164,-1.80331 1.07958,-2.0172 1.07955,-2.0172 0,-10.48775 0,-10.48762 -1.60339,-4.00736 -1.60337,-4.00725 -2.3487,-0.58947 -2.34871,-0.58948 -4.48936,2.17329 -4.48936,2.17329 -7.4308,6.93955 c -4.08694,3.81677 -8.9568,9.03785 -10.82191,11.60254 -1.86511,2.56482 -5.28767,8.32032 -7.60571,12.7901 l -4.2146,8.12684 0.70467,1.14022 0.70467,1.1402 1.20069,-0.46078 c 0.66039,-0.25338 8.55883,-2.11549 17.55207,-4.13805 z m 315.08673,71.71182 c -1.97892,-0.70707 -5.22756,-2.29275 -7.21913,-3.52365 l -3.62118,-2.23807 -2.48836,-4.24617 c -1.36868,-2.33549 -4.16185,-8.89759 -6.20696,-14.58257 l -3.7185,-10.33639 0.0925,-15.91225 0.0925,-15.91225 2.15498,-7.95619 2.15476,-7.95606 4.03216,-8.45348 4.03246,-8.45336 5.38676,-7.0483 c 2.96263,-3.87656 7.86442,-9.3915 10.89273,-12.25555 l 5.50586,-5.20725 7.49014,-3.46074 7.49035,-3.46062 4.84109,-0.57341 4.8411,-0.57341 4.3094,2.10415 4.3094,2.10416 6.1745,5.52603 6.1742,5.52615 3.2737,6.64407 3.2734,6.64406 0.3224,17.43042 0.3222,17.43029 -1.0236,2.68291 -1.0239,2.68291 -2.2821,1.48055 -2.282,1.48066 -8.981,1.54768 c -4.9399,0.85121 -17.4707,3.80794 -27.84674,6.57057 l -18.86527,5.02276 -4.47519,2.19472 -4.4754,2.19472 0.1672,6.13668 0.167,6.13681 2.02949,4.58787 2.02949,4.58787 3.48984,1.45813 3.49005,1.45824 7.24216,-0.0175 7.24225,-0.0175 8.38732,-3.40133 8.3874,-3.40132 1.8892,1.01103 1.889,1.01103 1.817,-1.64423 c 0.9992,-0.90439 2.0646,-2.61827 2.368,-3.80867 l 0.5513,-2.16457 6.2566,-4.22662 6.2568,-4.22674 1.83,0 1.83,0 2.8447,-2.02554 c 1.5644,-1.11419 4.9154,-2.94166 7.4464,-4.06119 l 4.6017,-2.03563 0.5199,0.51996 0.52,0.51996 -1.667,4.36489 -1.6669,4.36477 -3.8778,5.12353 c -2.1329,2.81784 -4.7711,6.87429 -5.8628,9.01419 l -1.9848,3.89077 -5.0326,4.40226 -5.0324,4.40225 -9.1739,4.61729 -9.1739,4.61715 -4.73296,1.2416 -4.73284,1.24175 -1.53918,-2.19772 -1.53928,-2.1977 -2.67847,0 -2.67858,0 -3.9781,2.4501 c -2.18796,1.34762 -4.64929,2.44448 -5.4697,2.43762 -0.82061,-0.0124 -3.11103,-0.59122 -5.08985,-1.29842 z m 16.02925,-71.2869 c 7.38439,-1.63564 16.22779,-3.89563 19.65199,-5.02214 l 6.2259,-2.04822 1.0981,-2.05171 1.098,-2.05171 0.1349,-11.53838 0.1348,-11.53851 -2.0694,-3.4808 -2.0696,-3.48081 -3.4827,0.0985 -3.4828,0.0985 -6.11369,4.15174 -6.11396,4.15188 -2.36266,-0.59309 -2.36298,-0.59296 -1.63557,1.63563 -1.63578,1.63564 0.60942,2.42716 0.60922,2.4273 -3.94347,5.20836 c -2.16895,2.86454 -5.79927,8.61991 -8.06719,12.7896 l -4.12372,7.58148 0,2.23121 0,2.23122 2.2376,-0.64816 c 1.23076,-0.35652 8.2793,-1.98643 15.66359,-3.62219 z m 617.86349,71.96071 -2.2176,-0.42841 -2.0091,-2.55386 -2.0087,-2.55385 0,-1.73318 0,-1.73305 -1.4046,-1.16562 -1.4045,-1.16574 -6.0271,2.53679 c -3.3147,1.3952 -9.5076,3.68584 -13.7618,5.0904 l -7.7348,2.5536 -9.0303,0.56493 -9.0306,0.56481 -5.2767,-1.75273 -5.2769,-1.75273 -3.8371,-3.46647 -3.837,-3.46647 -1.4975,-5.04258 -1.4974,-5.04244 0,-4.74682 0,-4.74696 2.4096,-6.63808 2.4094,-6.63809 3.7223,-5.40445 3.7221,-5.40444 5.5539,-4.00961 5.5539,-4.00961 11.9341,-5.81392 11.9343,-5.81392 8.7608,-2.18449 8.7611,-2.18438 2.0886,-1.6912 2.0881,-1.69107 -1.0979,-9.66544 -1.0978,-9.66544 -1.7953,-3.6729 -1.7952,-3.67301 -7.9562,-0.27992 -7.9562,-0.28003 -7.9561,3.86747 -7.9562,3.86747 -7.4589,5.53413 c -4.1023,3.0438 -8.0303,6.12858 -8.7289,6.85496 -0.6984,0.72651 -2.3454,2.66349 -3.6601,4.30436 l -2.3904,2.98363 -1.1961,-1.17671 -1.196,-1.17659 2.6838,-6.77948 c 1.4758,-3.72882 4.1087,-9.17562 5.8508,-12.10419 l 3.1671,-5.32472 5.8416,-4.89943 c 3.2129,-2.69463 7.703,-5.99007 9.9778,-7.32323 2.2747,-1.33318 6.1353,-3.13537 8.5788,-4.00489 l 4.4428,-1.58107 7.1573,-0.0399 7.1571,-0.0399 5.3197,2.43539 5.3196,2.43538 3.6438,3.1994 3.6439,3.19938 2.4125,5.15344 2.4124,5.15343 1.1309,5.37431 1.1308,5.3743 0.9576,14.01875 c 0.5265,7.7104 0.9641,17.93468 0.9721,22.72087 l 0.015,8.70201 0.9358,0 c 0.5146,0 1.2123,-0.4476 1.5504,-0.9946 l 0.6146,-0.99445 2.0546,0 2.0547,0 -0.6454,3.23215 c -0.3551,1.77777 -1.9772,6.07951 -3.6052,9.55956 l -2.9595,6.3274 0,1.87743 0,1.8773 1.0494,0 c 0.577,0 3.5978,-1.30701 6.713,-2.90453 8.3474,-4.28117 14.5882,-7.04057 15.9225,-7.04057 l 1.178,0 0,0.9242 c 0,0.50825 -1.8212,3.66579 -4.0468,7.01654 l -4.0467,6.09246 -0.7665,4.84885 -0.7665,4.84899 -1.6114,2.45917 -1.6114,2.45918 -5.2609,2.98638 -5.261,2.98637 -5.4017,1.58468 c -2.9709,0.87164 -5.6562,1.5239 -5.9673,1.44941 -0.3109,-0.0747 -1.5632,-0.32825 -2.7832,-0.56395 z m -35.5675,-22.6419 7.6402,-1.46185 5.6247,-2.56532 c 3.0935,-1.41091 7.3049,-3.72422 9.3584,-5.14073 l 3.7338,-2.57553 1.9847,-3.21136 1.9847,-3.21135 0,-4.15449 0,-4.15448 -2.4411,-2.44112 -2.4411,-2.44112 -1.9129,0 -1.9129,0 -1.4948,-2.23757 -1.4949,-2.23769 -1.9028,1.70963 -1.9033,1.70963 -6.7315,2.07924 -6.7315,2.07911 -3.6665,3.24087 c -2.0166,1.78251 -5.7757,4.72877 -8.3537,6.54728 l -4.6873,3.30628 -2.4235,3.58718 c -1.333,1.97298 -2.7292,4.61615 -3.1028,5.87359 l -0.6792,2.28639 1.5971,2.43751 1.5973,2.43763 5.3594,0 5.3595,0 7.64,-1.46173 z m -504.0583,17.97306 -3.6489,-3.64911 -2.4863,-4.90628 -2.4862,-4.90628 0,-2.46068 0,-2.46068 1.2383,-0.76525 1.238,-0.76524 8.4584,-0.0399 8.4583,-0.0399 0.5988,-19.89034 0.5987,-19.89035 1.2209,-5.20687 1.2209,-5.20675 -0.3277,-12.86608 -0.3281,-12.86608 -2.2024,-2.34146 -2.2027,-2.34147 0.5751,-2.19882 0.575,-2.19883 -1.6718,-0.64155 -1.6716,-0.64142 -2.1706,1.14221 -2.1704,1.14219 -4.9727,-1.90171 -4.9725,-1.90185 -0.3389,-1.68334 -0.3386,-1.68323 2.2079,-2.35018 2.2078,-2.35006 8.5733,-3.15005 8.5731,-3.14995 5.5322,-0.11709 5.5322,-0.1171 2.7556,1.80555 2.7557,1.80568 1.4087,3.37143 1.4087,3.37154 0,5.00457 0,5.00444 1.2431,-4.9e-4 1.2434,-5e-4 5.6875,-6.36016 5.6874,-6.36017 4.323,-2.09269 4.3231,-2.09269 4.5771,0 c 2.5175,0 5.3194,0.28477 6.2266,0.63283 l 1.6493,0.63295 0.8936,2.35068 0.8938,2.35067 2.8223,0 2.822,0 2.5491,2.73487 2.5493,2.73486 4.1012,8.48837 4.1012,8.48835 -0.059,1.95417 c -0.031,1.07468 -0.8552,5.01465 -1.8305,8.75531 l -1.7729,6.8014 -4.3854,1.95928 -4.3854,1.95928 -2.6423,2.52508 -2.6423,2.52495 -5.9369,-2.66422 -5.9369,-2.66436 -1.0799,-2.37012 -1.0798,-2.3701 0.8241,-0.50926 0.824,-0.50937 1.779,1.96562 1.7788,1.96551 2.6393,0 2.6394,0 1.6288,-1.24311 1.6288,-1.24311 1.5305,-4.47539 c 0.8416,-2.46142 1.5367,-5.27888 1.5446,-6.26088 l 0.015,-1.78562 -2.4862,-2.48634 c -1.3676,-1.36743 -2.4864,-2.83538 -2.4864,-3.26217 0,-0.42678 -1.0358,-1.74912 -2.3016,-2.93842 l -2.3018,-2.16245 -5.4332,0 -5.4331,0 -2.2321,1.56351 -2.2322,1.56351 -2.8233,5.64674 c -1.5527,3.10571 -3.5448,7.88443 -4.4267,10.61929 -0.8821,2.73499 -2.7473,11.67592 -4.1452,19.86892 l -2.5415,14.89623 -0.1,7.70768 -0.1,7.70753 1.7043,2.6007 1.7039,2.60069 4.2739,1.89064 4.2741,1.89064 0.5411,2.06877 0.541,2.0689 2.0396,-1.09163 2.0399,-1.09176 1.9506,1.2182 1.9505,1.2182 2.4711,-1.32247 2.471,-1.32246 2.8116,0.70172 c 1.5463,0.38605 3.4828,1.27811 4.3033,1.98257 0.8204,0.70433 2.7317,1.57534 4.2472,1.93561 l 2.7553,0.65487 2.0754,-1.11069 2.0754,-1.11081 0.9515,0.95174 0.9518,0.95172 -1.7039,1.70391 -1.7039,1.70402 -2.0161,-0.52719 -2.016,-0.52719 -2.5598,1.37753 c -3.8895,2.09318 -12.0154,4.49494 -15.2078,4.49494 l -2.846,0 -4.1872,2.1673 -4.1869,2.16732 -10.9399,0.73646 c -6.0168,0.40512 -15.2275,1.05688 -20.468,1.44854 l -9.5284,0.71192 -3.6491,-3.64897 z m 577.0531,0.75266 c -1.4205,-1.56388 -3.3224,-3.95007 -4.2268,-5.30243 l -1.6444,-2.45893 0,-2.76226 0,-2.76227 1.9499,-1.94994 1.9499,-1.9498 5.5077,-1.60113 5.5075,-1.60113 0.567,-2.25899 0.5672,-2.259 -0.3171,-35.71103 -0.317,-35.71116 -2.0429,-3.47743 -2.0427,-3.47744 -3.4272,-2.30944 -3.4269,-2.30946 0,-1.17471 0,-1.17472 9.4479,-3.20686 c 5.1963,-1.76382 10.343,-3.21833 11.437,-3.23216 l 1.9891,-0.0249 2.577,3.23216 2.5769,3.23214 1.2727,3.9781 c 0.6999,2.18787 1.6511,4.38832 2.114,4.88984 l 0.8415,0.91187 7.2432,-7.52342 7.243,-7.52331 4.2268,-1.13434 4.2267,-1.13424 3.7511,1.01003 3.7513,1.01016 4.2199,3.10322 4.2197,3.10335 2.374,4.12969 c 1.3056,2.27134 2.6684,5.5446 3.0281,7.27392 l 0.6549,3.14433 -1.1214,6.3036 c -0.6167,3.46698 -2.2504,10.03979 -3.6306,14.60624 l -2.5093,8.30262 -5.8821,6.03005 -5.882,6.02993 -0.6112,-0.61091 -0.6108,-0.6109 1.7016,-6.94317 1.7016,-6.94303 -0.566,-10.18716 -0.5658,-10.18715 -1.0038,-1.00393 -1.0039,-1.00381 -5.5226,1.74078 -5.5227,1.74089 -3.0625,4.16333 c -1.6845,2.2899 -3.6808,5.60415 -4.4364,7.36498 l -1.3736,3.2015 -2.4857,16.37753 -2.4857,16.37765 0,6.07914 0,6.079 1.4549,2.81371 c 0.8003,1.54744 2.0311,3.02874 2.7351,3.2917 0.7039,0.26298 6.6502,0.15834 13.2139,-0.23257 l 11.9342,-0.71081 0.8991,0.80449 0.8988,0.80461 -2.7266,3.57473 c -1.4997,1.96612 -4.1765,4.52521 -5.9488,5.68697 l -3.2223,2.11225 -2.15,3.27987 -2.15,3.27987 -2.6009,1.70427 -2.601,1.70414 -9.5922,0.71979 c -5.2756,0.39576 -13.8438,1.0337 -19.0401,1.41751 l -9.4479,0.69785 -2.5823,-2.84349 z m 84.9481,1.00542 c -1.1923,-1.02286 -3.3182,-3.60051 -4.7239,-5.72808 l -2.5559,-3.86822 0,-1.92676 0,-1.92676 2.7864,-2.78632 2.7863,-2.78631 4.1181,-0.69573 4.1179,-0.69574 0.96,-1.16537 0.9601,-1.16537 0.2119,-34.80814 0.212,-34.80813 -0.9931,-4.75978 -0.9929,-4.75979 -1.7511,-1.93511 -1.7513,-1.93498 -5.0835,-1.89374 -5.0835,-1.89363 -0.2712,-1.35672 -0.2713,-1.35659 12.6095,-2.25015 12.6097,-2.25015 2.5793,1.64049 c 1.4187,0.90228 3.5705,2.80986 4.7816,4.2392 l 2.2022,2.5987 0.6433,3.23216 0.6436,3.23228 1.1326,-0.0124 1.1324,-0.0124 4.6732,-5.861 4.6735,-5.86101 5.4672,-2.67494 5.4673,-2.67494 3.2853,0.70769 c 1.8071,0.38929 4.628,1.37628 6.269,2.19335 3.829,1.90646 8.2675,6.03291 9.9491,9.24962 l 1.318,2.52147 -1.4194,12.89361 -1.4197,12.89362 -2.9453,4.47525 c -1.6198,2.46143 -3.711,5.9299 -4.6469,7.70755 l -1.7013,3.23215 -1.6102,0 -1.6101,0 -0.096,-8.20471 -0.098,-8.20484 -1.6909,-4.20755 -1.6909,-4.20768 -3.2493,-2.00811 -3.2494,-2.0081 -2.495,0 -2.4949,0 -1.9893,4.72391 c -1.0941,2.5982 -2.6898,6.96173 -3.546,9.69658 -1.6886,5.39362 -5.1533,26.53042 -6.2158,37.92045 l -0.6614,7.09029 1.162,3.52115 c 0.6391,1.93661 1.6987,3.95954 2.3544,4.49533 l 1.1923,0.97415 5.4697,-0.97876 c 3.0084,-0.53828 8.1552,-1.09948 11.437,-1.24698 3.2818,-0.14762 6.7049,-0.58772 7.6068,-0.97826 l 1.6398,-0.70982 0.7041,1.1391 0.7042,1.13921 -6.5378,6.28542 -6.5377,6.2853 -1.5536,3.88292 -1.5537,3.88305 -3.1833,1.88042 -3.1835,1.88042 -9.4677,0.70258 c -5.2071,0.38643 -13.4954,1.02536 -18.4183,1.41975 l -8.9506,0.71729 -2.1681,-1.85986 z m 113.0569,0.0847 -5.4699,-1.50209 -5.2848,-3.61808 -5.2847,-3.61808 -3.899,-4.5591 -3.899,-4.5591 -2.898,-5.96701 -2.8979,-5.96715 -1.0957,-5.27016 -1.0956,-5.27015 0.019,-9.15034 0.02,-9.15034 0.9672,-6.68654 0.967,-6.68642 2.1356,-6.2422 c 2.8109,-8.21617 7.3701,-17.27345 11.0376,-21.92747 l 2.9559,-3.751 6.2376,-4.4511 c 3.4307,-2.44796 8.6831,-5.57062 11.6721,-6.93905 l 5.4348,-2.48808 7.3715,-0.60081 7.3718,-0.60095 6.9392,1.63265 6.9395,1.63264 4.1549,2.4349 4.1549,2.43501 3.0748,3.8823 3.0747,3.88218 3.4523,7.31924 c 1.8986,4.02556 4.1646,10.00441 5.0358,13.28627 l 1.5835,5.96713 0.556,9.44795 0.5556,9.44781 -1.6088,8.45348 c -0.8851,4.6493 -2.068,10.0936 -2.629,12.09835 l -1.0196,3.64511 -3.4575,2.03987 -3.4573,2.03987 0,1.53885 c 0,0.84633 0.5521,2.42268 1.2268,3.5031 l 1.2266,1.96425 -1.9725,3.677 c -1.0849,2.02243 -4.0584,5.96228 -6.6077,8.75545 l -4.6351,5.07856 -5.3102,2.93156 -5.31,2.93157 -12.4314,0.24104 -12.4314,0.24117 -5.4699,-1.50209 z m 23.8251,-20.59132 5.4848,-1.24323 3.8054,-3.79123 3.8056,-3.79136 1.9329,-4.50964 1.9332,-4.50978 1.0959,-7.06387 1.096,-7.06399 -0.6613,-13.97328 c -0.3638,-7.68525 -0.6429,-16.05228 -0.6204,-18.59318 l 0.04,-4.62001 -2.6863,-1.76008 c -1.4775,-0.96806 -5.0681,-3.70005 -7.979,-6.07116 l -5.2926,-4.31095 -3.2616,0 -3.2618,0 -5.1058,1.51629 -5.106,1.5163 -3.2034,2.69549 -3.2037,2.69562 -3.7825,5.85229 -3.7824,5.85228 -0.6069,3.61048 c -0.3338,1.98569 -0.8154,4.37374 -1.0703,5.30666 -0.2548,0.93292 -2.2296,3.83372 -4.3884,6.44613 l -3.925,4.74993 0,1.5376 0,1.5376 1.8353,1.5716 1.8357,1.57161 0.683,5.81304 0.6833,5.81304 4.2994,9.07598 4.2992,9.07583 2.915,2.07564 c 3.4402,2.44959 8.4565,4.01708 13.2555,4.14178 1.8982,0.0498 5.9198,-0.46977 8.9363,-1.15343 z m 88.7739,19.56435 -5.1445,-2.56358 -2.5572,-3.03907 c -1.4064,-1.67139 -3.39,-4.67171 -4.4081,-6.66723 l -1.8509,-3.62817 -1.0853,-5.8696 -1.0849,-5.86947 -0.07,-26.42068 -0.07,-26.42068 -0.7776,-1.98904 -0.7779,-1.98905 -7.1772,0 -7.177,0 -3.9095,-4.18825 -3.9095,-4.18812 0,-2.53829 0,-2.53828 -1.1513,-1.8438 -1.1514,-1.84391 0.542,-1.41278 0.5421,-1.41277 5.8673,-3.07545 5.867,-3.07557 5.7383,-1.28409 5.7387,-1.28422 1.1864,-2.06677 1.1867,-2.06678 -0.2551,-20.21648 -0.2552,-20.21647 -1.057,-1.97509 -1.057,-1.9751 1.1852,-1.42821 1.1854,-1.42823 1.9858,0 1.9859,0 5.8194,3.53524 5.8197,3.53524 2.0932,2.93978 2.0934,2.9399 0.5789,15.06404 0.5792,15.06416 1.847,1.84704 1.8471,1.84715 2.7199,-0.6535 c 1.4959,-0.35939 4.2861,-1.42872 6.2005,-2.3761 l 3.4808,-1.72271 7.8127,-0.71729 7.8128,-0.71715 3.6243,-1.54421 3.6241,-1.54432 5.2104,-0.10092 5.2105,-0.10215 0.4873,1.27064 0.4874,1.27051 -1.7198,1.40181 c -0.9459,0.77098 -3.8187,3.10821 -6.3844,5.1938 -2.5654,2.08559 -8.4607,7.18296 -13.1005,11.32748 l -8.4357,7.53551 -8.7788,3.31985 c -4.8283,1.82599 -9.4503,3.93263 -10.2708,4.68131 l -1.4916,1.3612 -0.3204,27.56399 -0.3205,27.56401 0.6446,5.25359 0.6447,5.25371 2.3077,2.68304 2.3078,2.68292 3.0569,-1.47233 3.0567,-1.47219 11.32,-11.07486 c 6.2259,-6.09121 12.2902,-11.5942 13.4763,-12.22889 l 2.1561,-1.15392 0.8489,0.5247 0.8491,0.5247 -0.8039,4.2453 c -0.4424,2.33486 -1.5187,5.94211 -2.3921,8.01599 l -1.588,3.77093 -3.0865,2.75778 -3.0866,2.75779 1.1509,2.15061 1.1511,2.15074 -1.5617,3.75211 -1.5616,3.75212 -4.1797,4.35032 c -2.2988,2.39279 -6.1691,5.63741 -8.601,7.21037 l -4.4215,2.85982 -5.5771,0 -5.577,0 -5.1446,-2.56358 z"
       id="path4376"
       inkscape:connector-curvature="0" />
  </g>
</svg>
