<?xml version="1.0" encoding="UTF-8" standalone="no"?>
<!-- Created with Inkscape (http://www.inkscape.org/) -->

<svg
   xmlns:dc="http://purl.org/dc/elements/1.1/"
   xmlns:cc="http://creativecommons.org/ns#"
   xmlns:rdf="http://www.w3.org/1999/02/22-rdf-syntax-ns#"
   xmlns:svg="http://www.w3.org/2000/svg"
   xmlns="http://www.w3.org/2000/svg"
   xmlns:xlink="http://www.w3.org/1999/xlink"
   xmlns:sodipodi="http://sodipodi.sourceforge.net/DTD/sodipodi-0.dtd"
   xmlns:inkscape="http://www.inkscape.org/namespaces/inkscape"
   id="svg2"
   version="1.1"
   inkscape:version="0.92.1 renderfarm"
   width="2481"
   height="663"
   sodipodi:docname="Pepper-and-Carrot_by-David-Revoy_E02P00_092.svg">
  <sodipodi:namedview pagecolor="#ffffff" bordercolor="#666666" inkscape:pageopacity="0" inkscape:pageshadow="2" inkscape:window-width="1813" inkscape:window-height="955" id="namedview70" showgrid="false" inkscape:zoom="0.4" inkscape:cx="1284.4231" inkscape:cy="2618.6204" inkscape:current-layer="layer1" /><metadata
     id="metadata8">
    <rdf:RDF>
      <cc:Work
         rdf:about="">
        <dc:format>image/svg+xml</dc:format>
        <dc:type
           rdf:resource="http://purl.org/dc/dcmitype/StillImage" />
        <dc:title />
      </cc:Work>
    </rdf:RDF>
  </metadata>
  <defs
     id="defs6" />
  <sodipodi:namedview
     pagecolor="#ffffff"
     bordercolor="#666666"
     borderopacity="1"
     objecttolerance="10"
     gridtolerance="10"
     guidetolerance="10"
     inkscape:pageopacity="0"
     inkscape:pageshadow="2"
     inkscape:window-width="477"
     inkscape:window-height="415"
     id="namedview4"
     showgrid="false"
     inkscape:zoom="0.59975816"
     inkscape:cx="1240.5"
     inkscape:cy="331.5"
     inkscape:window-x="0"
     inkscape:window-y="175"
     inkscape:window-maximized="0"
     inkscape:current-layer="layer1" />
  <g
     inkscape:groupmode="layer"
     id="layer2"
     inkscape:label="artwork"
     sodipodi:insensitive="true">
    <image
       sodipodi:absref="/home/deevad/peppercarrot/webcomics/ep02_Rainbow-potions/lang/mx/../gfx_Pepper-and-Carrot_by-David-Revoy_E02P00.png"
       xlink:href="../gfx_Pepper-and-Carrot_by-David-Revoy_E02P00.png"
       width="2481"
       height="663"
       id="image10"
       x="-1.6728083e-06"
       y="0" />
  </g>
  <g
     inkscape:groupmode="layer"
     id="layer1"
     inkscape:label="text">
    <flowRoot
       xml:space="preserve"
       id="flowRoot3063"
       style="font-style:normal;font-variant:normal;font-weight:normal;font-stretch:normal;line-height:0.01%;font-family:Arial;-inkscape-font-specification:Arial;letter-spacing:0px;word-spacing:0px;display:inline;fill:#562f13;fill-opacity:1;stroke:none"
       transform="matrix(0.77923967,0,0,0.77489763,82.304015,209.80734)"><flowRegion
         id="flowRegion3065"><rect
           id="rect3067"
           width="2715.5891"
           height="110.01318"
           x="92.642677"
           y="425.30325"
           style="font-size:72px;fill:#562f13;fill-opacity:1" /></flowRegion><flowPara
         id="flowPara3069"
         style="font-style:normal;font-variant:normal;font-weight:normal;font-stretch:normal;font-size:88px;line-height:1.25;font-family:Lavi;-inkscape-font-specification:Lavi;text-align:center;text-anchor:middle;fill:#562f13;fill-opacity:1">Episodio 2 : Pociones de Arcoíris</flowPara></flowRoot>    <path
       style="display:inline;fill:#562f13;fill-opacity:1;stroke:none"
       d="m 719.73492,506.31002 c -1.96776,-1.72773 -4.22828,-4.3993 -5.02338,-5.93686 l -1.44563,-2.79554 0,-4.08583 0,-4.08582 2.44899,-2.44898 2.44897,-2.44899 1.7914,-0.0317 c 0.98526,-0.0175 2.65702,-0.68663 3.71504,-1.48706 l 1.92369,-1.45533 0.74725,-5.24763 0.74724,-5.24769 0.0729,-22.76398 0.0729,-22.76397 -1.03284,-1.92987 -1.03283,-1.92987 -1.77926,0 c -0.9786,0 -4.15945,-0.70686 -7.06853,-1.57081 l -5.28924,-1.57069 -2.37484,-2.3749 -2.37485,-2.37478 0,-1.54194 0,-1.54195 5.73697,-0.0412 5.73696,-0.0412 4.48981,-2.20381 4.48978,-2.20369 0.28508,-34.92069 0.28509,-34.92069 -1.18429,-4.31614 -1.18429,-4.31627 -2.09398,-1.35823 -2.094,-1.35823 -8.73016,-0.69861 -8.73016,-0.69849 0,-1.19501 0,-1.19501 4.41277,-4.47611 4.41277,-4.47599 12.62786,-5.70774 12.62784,-5.70787 1.92168,0.60988 c 1.05694,0.33556 3.2662,1.74128 4.90951,3.12401 l 2.98781,2.51412 0,1.33661 c 0,0.73523 0.70555,2.04222 1.56787,2.90455 l 1.56787,1.56781 10.29332,0 10.29331,0 8.64967,2.50663 c 4.75733,1.3786 10.81505,3.60391 13.46163,4.94502 2.64657,1.34111 8.37825,5.12561 12.73709,8.41008 l 7.92515,5.97181 2.73887,3.95222 2.73888,3.95221 1.42816,4.74544 1.42814,4.7453 0,6.73666 0,6.73667 -1.86729,5.99968 -1.86731,5.99968 -3.69088,6.59994 -3.69088,6.59994 -6.00072,6.41473 -6.00073,6.41485 -6.64972,4.90052 c -3.65733,2.69522 -8.8946,6.01156 -11.63837,7.36954 -2.74377,1.35811 -10.15193,4.17867 -16.46259,6.26813 -6.31066,2.08934 -12.48414,4.1653 -13.71883,4.61321 l -2.2449,0.81434 0,21.51797 0,21.51798 2.40841,2.4084 2.40841,2.40839 2.82968,0.59971 c 1.55633,0.32983 3.58408,1.00581 4.50612,1.50216 l 1.67642,0.90245 4.3506,-0.0874 c 2.39282,-0.0479 6.64271,0.22793 9.44418,0.61324 l 5.09362,0.70054 3.16989,-1.63923 3.1699,-1.63922 2.93799,0.64529 c 1.6159,0.35493 4.95048,0.6453 7.41018,0.6453 2.45971,0 4.47218,0.20998 4.47218,0.46663 0,0.25665 -1.62131,1.14406 -3.60292,1.97204 -3.63536,1.51893 -11.4535,6.42583 -16.70663,10.48555 l -2.84922,2.20193 -6.49186,1.80013 -6.49186,1.80014 -4.62718,2.94194 -4.62718,2.94197 -7.48299,2.11393 c -4.11565,1.16268 -9.76736,2.77162 -12.55936,3.57544 l -5.07635,1.4614 -4.11796,0 -4.11796,0 -3.57775,-3.14131 z m 44.06452,-107.05606 8.83157,-4.43774 8.04271,-6.45672 8.04269,-6.45672 4.81791,-5.81759 4.81792,-5.8176 2.8529,-5.98643 2.85289,-5.98631 7.8e-4,-4.29003 8e-4,-4.28989 -1.46076,-2.82482 c -0.80343,-1.55356 -2.85368,-3.99683 -4.55616,-5.42929 l -3.09538,-2.60461 -5.67061,-1.70304 -5.67062,-1.70303 -8.48072,-0.0263 -8.48074,-0.0262 -5.51278,1.24612 -5.5128,1.24613 -3.21737,1.95661 -3.21737,1.95661 0,29.89706 0,29.89707 1.74603,1.01692 c 0.96032,0.55939 2.26161,1.03067 2.89177,1.04729 0.63016,0.0163 5.11997,-1.96661 9.97734,-4.40737 z m 73.18535,108.62134 c -1.37187,-0.88698 -3.72009,-3.20097 -5.21825,-5.14219 l -2.72392,-3.52953 -0.61381,-3.27198 -0.61386,-3.272 1.3423,-2.82863 1.34228,-2.82864 4.40866,-2.11562 4.40865,-2.11564 1.32831,-1.81656 1.3283,-1.81657 0,-27.62223 0,-27.62227 -5.23809,-0.58526 c -2.88094,-0.32181 -6.99714,-0.94031 -9.14709,-1.37435 l -3.90898,-0.78909 -0.31517,-0.99405 c -0.17334,-0.54677 0.0345,-1.54532 0.46203,-2.21906 l 0.77718,-1.22489 7.71265,-1.47558 c 4.24199,-0.81171 8.15027,-1.74615 8.68508,-2.07671 l 0.97239,-0.60101 0,-40.39885 0,-40.39885 -1.45586,-2.81531 -1.45587,-2.81532 -8.27203,-1.17489 c -4.54961,-0.64625 -9.73121,-1.39772 -11.51467,-1.67017 l -3.24261,-0.49515 0,-0.77859 c 0,-0.42829 1.01018,-1.69867 2.24489,-2.82307 2.44311,-2.22493 15.03394,-10.27621 16.07018,-10.27621 0.35152,0 4.63847,-1.80076 9.52655,-4.00183 l 8.88744,-4.0017 2.83546,1.07803 c 1.55948,0.59289 3.62202,1.78977 4.58336,2.65973 l 1.74779,1.58181 0,2.72221 0,2.7222 2.24491,0.60163 c 1.23477,0.33094 6.74375,0.60776 12.24237,0.61526 l 9.99734,0.0137 7.15855,1.98374 c 3.93717,1.09103 9.71212,3.113 12.83312,4.49335 l 5.67481,2.50963 6.60249,4.9129 c 3.63145,2.70209 8.26399,6.62906 10.2948,8.72652 l 3.69219,3.81374 2.21396,4.98863 2.21384,4.98876 0.44648,7.53525 0.4465,7.53538 -2.92042,8.47244 -2.92028,8.47245 -3.8412,5.78697 c -2.11259,3.18287 -6.09174,8.24949 -8.84249,11.25914 l -5.0013,5.47229 -3.18186,-0.59688 -3.18172,-0.59701 -1.04025,1.2665 c -0.57214,0.69661 -1.19558,2.38465 -1.3855,3.75138 l -0.34498,2.48488 -4.90938,3.20774 -4.90952,3.20774 -12.38227,4.5341 -12.38233,4.53409 -2.16407,0.015 c -1.19017,0.0125 -2.83744,0.44079 -3.66058,0.96094 l -1.4966,0.94556 0,21.40675 0,21.40674 2.37847,2.53268 2.37836,2.53272 5.18121,1.07561 5.1812,1.07562 9.90075,-0.0285 c 5.44537,-0.0156 12.50852,-0.0799 15.69605,-0.14274 l 5.79535,-0.11435 0.68161,0.68157 0.68162,0.68159 -1.98722,1.16558 c -1.09287,0.64108 -4.84378,2.40592 -8.33527,3.92186 l -6.34805,2.75629 -2.95754,2.48856 c -1.62654,1.36868 -3.53327,2.48852 -4.23699,2.48852 l -1.27955,0 -4.38089,3.84873 c -2.40941,2.11676 -6.30356,4.8272 -8.65356,6.02317 l -4.27276,2.17448 -9.69546,2.63558 -9.69554,2.63559 -4.98863,0.33916 -4.98873,0.33914 -2.49433,-1.61266 z m 40.68697,-107.63728 7.20666,-3.45369 7.23242,-5.36906 7.23227,-5.36906 6.98405,-7.40365 6.98419,-7.40378 2.79596,-5.76748 2.79597,-5.76748 0.50534,-4.69544 0.50535,-4.69545 -1.80459,-3.46668 -1.80487,-3.46656 -3.99088,-2.77583 -3.99089,-2.77582 -7.48305,-1.58319 -7.48304,-1.58306 -6.48519,0.57864 c -3.56694,0.31818 -9.17914,1.26587 -12.47169,2.10583 l -5.98633,1.52732 -2.28822,2.58299 -2.28821,2.58311 0.29268,28.1779 0.2928,28.1779 1.36931,1.64805 1.36929,1.64818 1.65209,0 c 0.90855,0 4.89493,-1.5542 8.85858,-3.45369 z m 343.93914,77.35739 c -2.744,-0.97795 -7.2741,-2.93673 -10.0673,-4.35282 l -5.0783,-2.57469 -3.1468,-3.58391 c -1.7308,-1.97111 -4.1449,-5.47954 -5.365,-7.79645 l -2.2182,-4.21267 -0.033,-7.48301 -0.033,-7.48301 3.1499,-6.64856 3.1498,-6.64855 7.7421,-8.10364 7.7421,-8.10364 -2.8027,-5.86409 -2.8028,-5.86408 0.5986,-2.99291 0.5985,-2.99278 -1.4279,-1.18514 -1.428,-1.18501 1.5486,-2.99466 1.5485,-2.99465 -2.2142,-2.35704 -2.2143,-2.3569 0.6329,-4.61584 0.6325,-4.6157 1.9872,-4.49261 1.9874,-4.49261 4.243,-5.06787 4.2432,-5.06799 4.38,-2.7777 4.38,-2.7777 5.4035,-1.20926 5.4036,-1.20926 5.1946,1.64105 5.1945,1.64105 5.6958,3.56729 5.6958,3.56729 3.6346,5.98319 3.6347,5.98319 0.5104,3.80612 0.5106,3.80624 -2.2025,6.97886 -2.2027,6.97887 -3.8333,4.88128 c -2.1084,2.68471 -5.4815,7.35066 -7.4961,10.36881 -2.0145,3.01815 -5.007,6.68068 -6.6499,8.13901 l -2.9873,2.65147 0.8494,1.44922 c 0.4673,0.79696 4.9378,5.78922 9.9345,11.09379 l 9.0848,9.64484 1.1916,-1.43584 1.1915,-1.43572 0.1999,-2.83118 0.1998,-2.83107 -3.7365,-0.30944 -3.7365,-0.30931 -2.4993,-3.27685 -2.4994,-3.27697 0,-2.07946 0,-2.07947 1.4293,-1.42921 1.4293,-1.42934 8.2986,-2.57987 c 4.5642,-1.41896 10.5434,-3.09001 13.2872,-3.71351 l 4.9887,-1.1334 11.9727,-0.3938 c 6.5851,-0.21645 14.33,-0.66049 17.211,-0.98667 l 5.2381,-0.59301 -5e-4,1.31886 -7e-4,1.31899 -7.0954,6.48534 c -3.9026,3.56679 -8.5045,7.88705 -10.2262,9.60046 l -3.1307,3.11526 -4.8669,0.70649 c -2.6767,0.38854 -5.4828,0.94293 -6.2357,1.23188 l -1.3691,0.52539 0,4.84441 0,4.84454 -2.1288,5.6895 -2.1287,5.68962 2.8667,2.08033 c 1.5767,1.14415 4.6674,3.46594 6.868,5.1596 l 4.0012,3.07939 -0.1852,1.41047 c -0.1012,0.77572 -0.8062,3.09064 -1.5649,5.1441 l -1.3796,3.73389 -2.3504,2.50201 -2.3506,2.50203 -3.0687,-0.004 -3.0688,-0.004 -3.2667,-1.99174 c -1.7968,-1.09493 -3.869,-1.99115 -4.6048,-1.99115 -0.7359,0 -2.4794,-0.89808 -3.8748,-1.99548 -1.3952,-1.09753 -3.1395,-1.98398 -3.8761,-1.96999 -0.7365,0.0137 -3.8086,1.60206 -6.8267,3.52893 l -5.4875,3.50328 -9.4388,2.9564 -9.4388,2.9564 -5.0284,-0.073 -5.0282,-0.073 -4.9888,-1.77812 z m 24.2097,-24.14509 4.3864,-2.12333 0.4884,-1.27312 0.4886,-1.27312 -10.2968,-10.06688 -10.2969,-10.06687 -1.2046,0 -1.2046,0 -2.7862,3.67264 c -1.5326,2.01998 -4.2456,5.02101 -6.0291,6.6688 l -3.2426,2.99628 0,1.34924 0,1.34935 4.2403,4.32639 c 2.3323,2.37953 5.1384,4.81892 6.236,5.42093 l 1.9954,1.09453 6.4197,0.03 6.4196,0.03 4.3864,-2.12346 z m -5.3373,-61.31994 7.7029,-6.57257 1.924,-3.15525 1.924,-3.15537 0,-3.16613 0,-3.16599 -2.474,-2.94042 -2.4743,-2.94029 -2.9966,-1.24125 -2.9968,-1.24138 -3.4486,0.647 -3.4485,0.64687 -2.7057,3.20874 c -1.4882,1.76477 -3.311,4.65345 -4.0511,6.41935 l -1.346,3.21048 0,3.86448 0,3.86436 1.4131,4.69482 c 1.4031,4.66282 3.1573,7.59512 4.5434,7.59512 0.3976,0 4.1896,-2.95767 8.4263,-6.57257 z m 176.9634,58.45888 c -3.1382,-0.40254 -8.8878,-1.7549 -12.7767,-3.0054 l -7.0706,-2.27342 -5.9245,-3.59854 c -3.2584,-1.9791 -8.2205,-5.39443 -11.0267,-7.58936 l -5.1021,-3.99096 -5.7693,-6.78928 -5.7691,-6.78915 -3.0184,-5.6825 c -1.66,-3.12525 -3.9359,-8.60079 -5.0576,-12.1677 -1.1217,-3.56692 -2.992,-11.63882 -4.1567,-17.93782 l -2.1174,-11.45247 0.4435,-4.51123 c 0.6406,-6.51721 3.4604,-20.99158 6.2393,-32.02676 2.7667,-10.98657 8.684,-28.41973 11.6455,-34.30856 4.4118,-8.77264 15.5109,-26.39064 22.3236,-35.43446 3.9523,-5.24659 10.265,-12.68848 14.0283,-16.53734 3.7632,-3.84899 9.9836,-9.37289 13.8229,-12.27557 l 6.9806,-5.27745 8.2733,-4.09956 8.2732,-4.09943 10.6871,-0.0675 10.6871,-0.0675 9.4785,3.82474 c 5.2133,2.10358 10.3766,3.89948 11.4741,3.99096 l 1.9954,0.16609 0.499,-5.53265 0.4988,-5.53265 1.851,-2.82369 1.8509,-2.82356 5.4894,0.64512 5.4893,0.64512 5.3924,2.55099 5.3924,2.55112 3.4805,3.28247 3.4804,3.28248 0,4.99563 c 0,2.74745 -0.2808,6.39923 -0.6239,8.11501 l -0.6239,3.11951 -3.9353,4.47086 -3.9357,4.47099 0.6275,1.01505 0.6271,1.01504 1.8261,0 1.8261,0 2.3045,1.86601 2.3044,1.86613 -1.1847,13.84812 c -1.3639,15.93846 -2.3871,23.5527 -4.5189,33.62007 -0.8346,3.94185 -1.9524,9.41188 -2.4839,12.15571 -0.5316,2.74371 -1.7055,8.28911 -2.6088,12.32318 l -1.6422,7.33454 -2.4768,4.88766 -2.4767,4.88765 -0.8645,0 -0.8646,0 -0.6016,-2.24493 c -0.3309,-1.23463 -0.6077,-4.61645 -0.6152,-7.515 l -0.014,-5.27008 -1.3482,-3.22674 -1.3481,-3.2266 -0.7358,-12.91456 -0.7356,-12.91456 -4.2752,-12.51164 -4.2753,-12.51152 -4.2964,-8.37796 -4.2967,-8.37796 -3.5847,-3.76838 -3.5847,-3.76837 -2.7645,-0.69374 -2.7642,-0.69374 -4.3698,1.6688 c -2.4036,0.91794 -7.2106,3.54367 -10.6824,5.83496 l -6.3124,4.16605 -9.299,9.42563 -9.299,9.42575 -7.3502,11.04893 -7.3504,11.04881 -6.9741,14.46712 c -7.4898,15.53654 -12.5066,28.38099 -16.593,42.48231 l -2.5621,8.84125 -0.6179,7.51288 -0.6177,7.51288 -2.3355,2.80994 -2.3355,2.81007 1.4681,2.83919 c 0.8077,1.56144 2.7475,3.88885 4.3108,5.17184 l 2.8425,2.33267 2.6726,4.68069 2.6725,4.6807 4.7317,4.84491 4.7313,4.84516 4.8344,2.33254 4.834,2.33266 11.1296,-0.5229 11.1295,-0.52289 9.6618,-3.12976 c 5.314,-1.7214 12.2432,-4.27165 15.3987,-5.66699 l 5.7368,-2.53713 1.7729,0.46366 1.7726,0.46354 2.8656,-2.73834 2.8654,-2.73833 7.0355,-2.68846 7.0357,-2.68847 1.8594,-2.05459 c 1.0227,-1.13003 3.0319,-2.66097 4.465,-3.40207 l 2.6055,-1.34736 1.1837,-2.79082 1.1835,-2.79082 5.6473,-3.43045 c 3.106,-1.88675 7.3339,-4.95439 9.3956,-6.81689 l 3.7484,-3.38646 3.9598,-6.27 3.9599,-6.27 1.4922,-0.57264 1.4923,-0.57264 1.221,1.47134 1.221,1.47133 -1.1126,2.21081 c -0.612,1.21601 -2.2155,6.78478 -3.5633,12.37517 l -2.4506,10.16423 -4.8156,8.79263 -4.8155,8.79275 -6.6687,6.67342 -6.6684,6.67355 -2.8627,1.48021 -2.8625,1.4802 -1.9233,-0.17184 -1.9238,-0.17184 -2.7757,5.48754 -2.7755,5.48753 -10.7159,6.67655 -10.7158,6.67655 -8.9795,2.98191 -8.9796,2.98203 -7.8047,1.06716 c -8.5472,1.16865 -13.1878,1.18427 -21.8471,0.0737 z m -941.00541,-17.35492 -3.85399,-1.44834 -2.97207,-2.82269 -2.9721,-2.82269 -1.95918,-3.80974 -1.95918,-3.80975 -0.56015,-4.72943 -0.56015,-4.72956 2.37992,-2.76683 2.3799,-2.76682 6.25197,-0.73711 6.25197,-0.73722 1.69839,-1.69829 1.69836,-1.69842 0.51173,-9.20004 0.51175,-9.20018 2.9932,-0.50977 2.9932,-0.50977 0.30968,-2.67647 0.30967,-2.67659 -2.80399,-1.78552 c -1.54221,-0.98193 -3.13388,-2.24481 -3.53705,-2.8062 l -0.733,-1.02079 -0.0154,-28.71618 -0.0152,-28.71604 1.24716,-0.3843 c 0.68594,-0.21121 2.43235,-0.64225 3.88088,-0.95781 l 2.63373,-0.57351 0.63362,-1.6513 0.63367,-1.65129 -1.27191,-1.70279 c -0.69954,-0.93657 -2.78325,-3.67702 -4.63048,-6.08979 l -3.3586,-4.38688 0.80657,-15.96383 c 0.4436,-8.78001 0.83251,-20.30584 0.86424,-25.61304 l 0.0576,-9.64933 -2.40923,-2.56274 -2.40924,-2.56262 -5.57263,-2.07783 -5.57262,-2.07784 -2.16425,-2.02148 -2.16427,-2.02147 -2.12476,-4.93914 -2.12476,-4.93902 -0.16343,-5.8972 -0.16347,-5.89708 2.33676,-2.48738 2.33675,-2.48739 8.60098,-3.144 8.60098,-3.144 15.46486,-2.88555 15.46487,-2.88555 17.95918,0.0212 17.9592,0.0212 9.59417,0.93369 9.59415,0.93357 8.19885,2.99228 c 4.50938,1.64567 10.97487,4.54459 14.36779,6.44209 3.39292,1.89737 8.20208,5.23946 10.68706,7.42678 l 4.5181,3.97708 6.32944,8.8255 6.32944,8.82562 4.78156,9.97739 4.78157,9.97727 1.6758,6.48534 1.67582,6.48521 0.0895,7.48301 0.0896,7.48302 -1.29235,5.48753 -1.29232,5.48754 -3.90057,7.98179 -3.90058,7.98191 -5.73268,6.66093 c -3.15296,3.66352 -7.97757,8.65428 -10.72133,11.09067 -2.74377,2.43639 -8.50527,6.95212 -12.80333,10.03488 l -7.81467,5.60514 -12.13999,5.87371 c -15.30489,7.4049 -33.16444,14.55498 -41.57311,16.64382 -3.5669,0.88607 -8.14874,2.03809 -10.18186,2.55986 l -3.69661,0.94881 -1.54149,1.54145 -1.54151,1.54157 0,12.94455 0,12.94468 2.28856,2.28854 2.28856,2.28855 4.06713,0.65037 4.06713,0.65037 1.24948,1.50558 1.24949,1.50545 5.1159,0.015 5.11595,0.015 4.30665,1.50008 4.30663,1.49995 0.92414,-0.57114 c 0.87026,-0.53789 21.87307,-1.65467 28.37642,-1.50895 1.64627,0.0362 4.56464,0.0737 6.48527,0.0812 1.92064,0.0125 4.10386,0.23345 4.8516,0.5014 l 1.35954,0.48728 -1.23227,1.48483 -1.23228,1.48483 -1.55828,0 c -0.85708,0 -3.60822,0.95381 -6.11367,2.11958 -2.50544,1.16589 -7.24925,3.3717 -10.54177,4.90202 -3.29251,1.5302 -8.68028,3.54267 -11.97278,4.47211 -3.29253,0.92932 -7.46083,2.31529 -9.26289,3.07989 l -3.2765,1.3901 -3.73509,0 -3.73509,0 -2.18203,1.52832 c -3.26209,2.28492 -9.64057,4.35001 -20.21209,6.54408 l -9.47847,1.96711 -11.97279,0.49852 -11.97279,0.4984 -3.85399,-1.44833 z m 74.55809,-111.04707 8.84468,-3.49518 4.31786,0.6475 4.31788,0.64749 1.59955,-2.44114 1.59953,-2.44126 -0.60089,-2.39415 -0.60092,-2.39415 1.96897,-1.78202 1.96901,-1.7819 2.14224,1.14652 2.14222,1.14653 1.51884,-1.2605 1.51883,-1.2605 -0.55511,-2.77558 -0.55514,-2.7757 4.98386,-5.69524 c 6.22601,-7.11484 11.24701,-14.63547 14.72057,-22.049 l 2.68377,-5.72786 6.4e-4,-8.97959 6.5e-4,-8.97959 -2.65439,-5.66225 -2.65436,-5.66238 -4.08285,-4.42937 -4.08284,-4.42924 -5.8176,-2.61086 -5.81761,-2.61073 -7.65623,-1.13877 -7.6562,-1.13865 -9.72095,1.17951 c -5.34651,0.64888 -10.46987,1.39598 -11.38522,1.6603 l -1.66431,0.48053 -3.45608,-3.03452 -3.4561,-3.0344 -2.07807,0 -2.07809,0 -1.03285,1.92987 c -0.56803,1.06141 -1.03282,3.00652 -1.03282,4.32264 l 0,2.39277 -3.66328,2.41202 c -2.01481,1.32661 -4.54302,3.60816 -5.61826,5.07 l -1.95499,2.65797 -0.82108,15.80011 -0.82111,15.80011 -0.0459,28.49409 -0.0459,28.49409 1.24717,1.57256 c 0.68595,0.86483 1.92064,1.77465 2.74378,2.0216 l 1.49658,0.44916 11.47394,-2.42289 11.47394,-2.42289 8.84465,-3.49506 z m 93.92181,108.7449 c -1.64624,-0.21833 -5.38468,-1.07154 -8.3076,-1.896 l -5.3144,-1.49908 -4.20729,-4.20729 -4.20729,-4.20729 -4.38257,-11.45684 -4.38255,-11.45698 -0.41641,-13.43033 -0.41639,-13.43021 1.18502,-7.34591 1.18501,-7.34579 2.40272,-7.06423 c 1.32149,-3.88547 4.01332,-9.99451 5.98181,-13.57567 4.28653,-7.79846 11.11293,-16.8704 17.61377,-23.40811 l 4.75689,-4.7838 8.26956,-3.96796 8.26958,-3.96796 5.08703,-0.6025 5.08702,-0.60251 5.17609,2.81719 5.17607,2.81719 5.298,5.09049 5.29798,5.09049 2.48811,4.93864 2.48811,4.93877 1.12182,5.2872 1.12183,5.2872 -0.005,12.67198 -0.005,12.67199 -1.04168,3.75088 -1.04165,3.75088 -2.19539,1.42459 -2.19542,1.42459 -6.98412,1.14202 c -7.0024,1.1449 -41.40108,9.68846 -48.88892,12.14234 l -3.99094,1.30799 -1.73904,3.55492 -1.73908,3.55492 1.69175,4.42687 c 0.93046,2.43489 2.73918,6.12691 4.01931,8.20462 l 2.32755,3.77763 3.20729,2.02284 3.2073,2.02273 6.07587,-0.43454 6.07589,-0.43466 6.39577,-2.82069 c 3.51769,-1.55132 11.78101,-6.04243 18.36295,-9.98015 l 11.96717,-7.15945 1.35938,0.52165 1.35938,0.52164 -0.53344,3.2871 c -0.29338,1.80789 -1.43855,5.33332 -2.54481,7.83419 l -2.01138,4.5471 -2.47917,0 -2.47916,0 -1.63475,1.63468 -1.63471,1.6348 0.15938,4.10218 c 0.0877,2.2563 0.11772,4.58896 0.0669,5.18397 l -0.0925,1.08166 -8.75843,4.1623 -8.75843,4.16217 -6.95586,1.47346 c -6.88909,1.45934 -9.13682,1.58144 -14.93773,0.81209 z m 9.53681,-73.623 16.40425,-3.68914 4.15505,-1.80914 4.15503,-1.80915 1.08307,-2.02372 1.08305,-2.02372 0,-10.52154 0,-10.52166 -1.60857,-4.0202 -1.60857,-4.0202 -2.35629,-0.59138 -2.3563,-0.59138 -4.50388,2.18031 -4.50388,2.18019 -7.45482,6.962 c -4.10016,3.82911 -8.98576,9.0672 -10.8569,11.64018 -1.87114,2.57299 -5.30479,8.3471 -7.63031,12.83133 l -4.22825,8.15326 0.70696,1.14377 0.70695,1.1439 1.20457,-0.46216 c 0.66253,-0.25433 8.5865,-2.12245 17.60884,-4.15155 z M 970.5636,429.253 c -1.98532,-0.70948 -5.24439,-2.30029 -7.24239,-3.53517 l -3.63294,-2.24518 -2.49647,-4.26003 c -1.37307,-2.34291 -4.17525,-8.92635 -6.22698,-14.62972 l -3.73053,-10.36969 0.0931,-15.9637 0.0931,-15.96383 2.16187,-7.98179 2.16172,-7.98191 4.04528,-8.48069 4.04542,-8.4807 5.40419,-7.07109 c 2.97225,-3.8891 7.88986,-9.422 10.92797,-12.29518 l 5.5237,-5.22422 7.51451,-3.47181 7.51451,-3.47193 4.85662,-0.57526 4.8569,-0.57514 4.3234,2.11083 4.3233,2.11096 6.1944,5.54402 6.1943,5.54403 3.2842,6.66555 3.284,6.66555 0.3234,17.48665 0.3232,17.48678 -1.0269,2.69146 -1.0272,2.69159 -2.2894,1.48546 -2.2894,1.48545 -9.0103,1.55269 c -4.9556,0.85396 -17.527,3.82024 -27.93653,6.59169 l -18.92638,5.03913 -4.48975,2.20181 -4.48988,2.20169 0.16777,6.15665 0.16764,6.15665 2.03607,4.60271 2.03593,4.60271 3.50121,1.46284 3.50134,1.46296 7.26551,-0.0163 7.2658,-0.0175 8.41446,-3.41232 8.41441,-3.41232 1.8954,1.0143 1.8951,1.0143 1.8228,-1.64968 c 1.0024,-0.90719 2.0715,-2.6266 2.3757,-3.82099 l 0.5531,-2.17144 6.2769,-4.24041 6.277,-4.24028 1.8359,0 1.8358,0 2.854,-2.03222 c 1.5695,-1.11765 4.9314,-2.95104 7.4705,-4.07432 l 4.6166,-2.04209 0.5216,0.52164 0.5215,0.52165 -1.6722,4.37888 -1.6723,4.37901 -3.8904,5.13998 c -2.1397,2.82706 -4.7864,6.8965 -5.8817,9.04332 l -1.9912,3.90335 -5.0489,4.41663 -5.0486,4.41649 -9.2037,4.63208 -9.2035,4.63208 -4.74835,1.24576 -4.74806,1.24562 -1.54419,-2.20468 -1.54419,-2.20482 -2.68722,0 -2.68721,0 -3.99096,2.45814 c -2.19517,1.35198 -4.6645,2.45239 -5.48757,2.44539 -0.8232,-0.0125 -3.12098,-0.59313 -5.10616,-1.30249 z m 16.08108,-71.51754 c 7.40828,-1.64093 16.28022,-3.90823 19.71562,-5.03838 l 6.246,-2.05484 1.1016,-2.05821 1.1016,-2.05834 0.1353,-11.57583 0.1352,-11.5757 -2.0761,-3.49206 -2.0763,-3.49205 -3.4939,0.0987 -3.4941,0.0987 -6.13339,4.16529 -6.13378,4.1653 -2.3704,-0.595 -2.37053,-0.59489 -1.6408,1.64093 -1.64105,1.64092 0.61125,2.43502 0.61126,2.43501 -3.95622,5.22522 c -2.17593,2.87393 -5.81792,8.6479 -8.09329,12.83107 l -4.13707,7.60587 0,2.23843 0,2.23843 2.24488,-0.65025 c 1.23473,-0.35755 8.30612,-1.99285 15.71422,-3.63378 z m 619.86152,72.19341 -2.225,-0.42979 -2.0154,-2.56212 -2.0154,-2.56199 0,-1.73878 0,-1.73878 -1.409,-1.16939 -1.409,-1.16939 -6.0466,2.54499 c -3.3255,1.39972 -9.5384,3.69777 -13.8063,5.10686 l -7.7598,2.56187 -9.0596,0.56664 -9.0597,0.56663 -5.2939,-1.75827 -5.2938,-1.7584 -3.8495,-3.47769 -3.8494,-3.47781 -1.5024,-5.05874 -1.5022,-5.05887 0,-4.76218 0,-4.76218 2.4172,-6.65955 2.4173,-6.65968 3.7344,-5.42192 3.7341,-5.4218 5.5718,-4.0227 5.572,-4.02258 11.9726,-5.83271 11.9729,-5.83272 8.7891,-2.19144 8.7894,-2.19144 2.0952,-1.69666 2.0951,-1.69667 -1.1015,-9.69669 -1.1013,-9.69658 -1.8012,-3.68489 -1.8011,-3.68477 -7.9818,-0.28094 -7.9819,-0.28095 -7.9818,3.87998 -7.9819,3.87998 -7.4831,5.55215 c -4.1156,3.05364 -8.0563,6.14828 -8.757,6.87713 -0.7008,0.72873 -2.3532,2.67197 -3.6721,4.31827 l -2.3981,2.99315 -1.1999,-1.18039 -1.1999,-1.18051 2.6925,-6.8014 c 1.4806,-3.74076 4.122,-9.2053 5.8697,-12.14334 l 3.1774,-5.34181 5.8605,-4.91528 c 3.2233,-2.70346 7.7279,-6.00955 10.01,-7.34704 2.2821,-1.33736 6.1552,-3.1455 8.6066,-4.01782 l 4.4571,-1.58606 7.1803,-0.04 7.1804,-0.04 5.3369,2.44327 5.3368,2.44339 3.6555,3.20961 3.6558,3.20974 2.4203,5.17009 2.4202,5.17023 1.1346,5.39168 1.1344,5.39168 0.9605,14.06408 c 0.5284,7.73521 0.9673,17.99267 0.9755,22.79422 l 0.015,8.73014 0.9389,0 c 0.5163,0 1.2163,-0.44891 1.5554,-0.99768 l 0.6165,-0.9978 2.0614,0 2.0613,0 -0.6475,3.24273 c -0.3562,1.7834 -1.9836,6.09917 -3.6169,9.59047 l -2.9691,6.34787 0,1.88337 0,1.8835 1.0527,0 c 0.5789,0 3.6097,-1.31136 6.7348,-2.91404 8.3745,-4.2949 14.6355,-7.06335 15.9741,-7.06335 l 1.1816,0 0,0.92719 c 0,0.51002 -1.8268,3.67765 -4.0596,7.03935 l -4.0599,6.11204 -0.7689,4.86466 -0.7691,4.86453 -1.6166,2.46714 -1.6165,2.46726 -5.278,2.99603 -5.2781,2.99603 -5.4191,1.5898 c -2.9805,0.87446 -5.6744,1.5287 -5.9865,1.45397 -0.312,-0.075 -1.5683,-0.32931 -2.7922,-0.56564 z m -35.6826,-22.71511 7.6649,-1.46646 5.6429,-2.57362 c 3.1035,-1.41547 7.3285,-3.73638 9.3887,-5.15747 l 3.7458,-2.58386 1.9912,-3.22161 1.9911,-3.22174 0,-4.16792 0,-4.16805 -2.449,-2.44889 -2.449,-2.44901 -1.9191,0 -1.919,0 -1.4997,-2.24493 -1.4997,-2.2448 -1.9091,1.71516 -1.9093,1.71515 -6.7533,2.08584 -6.7533,2.08596 -3.6784,3.25136 c -2.023,1.78814 -5.7943,4.74393 -8.3807,6.56832 l -4.7025,3.31709 -2.4314,3.59878 c -1.3371,1.97936 -2.7379,4.63096 -3.1128,5.89258 l -0.6815,2.29367 1.6025,2.44551 1.6024,2.44552 5.3768,0 5.3768,0 7.6647,-1.46658 z m -505.6883,18.03116 -3.6607,-3.66077 -2.4943,-4.92215 -2.4942,-4.92214 0,-2.46864 0,-2.46863 1.2422,-0.76773 1.2421,-0.76772 8.4859,-0.04 8.4855,-0.04 0.6008,-19.95466 0.6006,-19.95466 1.2249,-5.22359 1.2249,-5.22359 -0.329,-12.90769 -0.329,-12.90768 -2.2096,-2.34903 -2.2098,-2.34904 0.5769,-2.20594 0.5769,-2.20606 -1.6772,-0.64349 -1.677,-0.64363 -2.1776,1.14603 -2.1776,1.14589 -4.9887,-1.90799 -4.9885,-1.90787 -0.34,-1.68879 -0.3397,-1.68879 2.2151,-2.35766 2.2149,-2.35778 8.601,-3.16012 8.6009,-3.16013 5.5501,-0.11747 5.5499,-0.11748 2.7646,1.81139 2.7647,1.81139 1.4132,3.38245 1.4132,3.38246 0,5.02063 0,5.02075 1.2472,-5e-4 1.2472,-6.3e-4 5.706,-6.38073 5.7059,-6.38061 4.337,-2.09945 4.3369,-2.09959 4.5921,0 c 2.5256,0 5.3365,0.28582 6.2467,0.635 l 1.6546,0.635 0.8965,2.35816 0.8967,2.35828 2.8312,0 2.8312,0 2.5575,2.74383 2.5575,2.7437 4.1146,8.51581 4.1143,8.51581 -0.057,1.96036 c -0.031,1.07829 -0.8581,5.03088 -1.8364,8.78376 l -1.7788,6.82327 -4.3995,1.96573 -4.3995,1.96561 -2.6508,2.53312 -2.6509,2.53325 -5.9562,-2.67297 -5.9559,-2.67284 -1.0834,-2.37778 -1.0833,-2.37778 0.8267,-0.51102 0.8267,-0.5109 1.7847,1.97186 1.7846,1.97198 2.6478,0 2.6478,0 1.6341,-1.24713 1.6341,-1.24725 1.5353,-4.48973 c 0.8445,-2.46939 1.5418,-5.29595 1.5498,-6.28126 l 0.015,-1.79139 -2.4943,-2.49425 c -1.3719,-1.37186 -2.4943,-2.84469 -2.4943,-3.27285 0,-0.42817 -1.0392,-1.75466 -2.3092,-2.94779 l -2.3091,-2.16945 -5.4508,0 -5.4507,0 -2.2393,1.56857 -2.2394,1.56856 -2.8325,5.665 c -1.5577,3.11575 -3.5563,7.9098 -4.441,10.65363 -0.8849,2.74371 -2.7562,11.71368 -4.1585,19.93304 l -2.5498,14.94441 -0.1,7.73259 -0.1,7.73259 1.7096,2.6091 1.7096,2.60911 4.2878,1.89675 4.2879,1.89662 0.5427,2.07559 0.5428,2.07546 2.0463,-1.09515 2.0465,-1.09516 1.9569,1.22213 1.9568,1.22201 2.479,-1.32674 2.479,-1.32674 2.8207,0.70411 c 1.5513,0.38718 3.4941,1.28225 4.3173,1.98886 0.8231,0.70673 2.7405,1.58056 4.2608,1.94186 l 2.7643,0.65712 2.0821,-1.1144 2.0821,-1.11428 0.9547,0.95481 0.9548,0.95469 -1.7094,1.70953 -1.7096,1.70941 -2.0225,-0.52889 -2.0225,-0.5289 -2.568,1.38198 c -3.9021,2.10008 -12.0543,4.5096 -15.257,4.5096 l -2.8553,0 -4.2007,2.17432 -4.2005,2.17419 -10.9752,0.73898 c -6.0362,0.4063 -15.2767,1.06029 -20.5342,1.45309 l -9.5592,0.71436 -3.6609,-3.6609 z m 578.919,0.7551 c -1.4249,-1.56893 -3.333,-3.96271 -4.2404,-5.31944 l -1.6496,-2.46688 0,-2.7712 0,-2.7712 1.9562,-1.95624 1.9561,-1.95611 5.5255,-1.60631 5.5254,-1.6063 0.5688,-2.2663 0.5689,-2.2663 -0.3179,-35.82664 -0.3182,-35.82651 -2.0494,-3.48868 -2.0493,-3.48868 -3.4382,-2.31704 -3.4382,-2.31691 0,-1.17852 0,-1.17852 9.4785,-3.21723 c 5.2132,-1.7694 10.3766,-3.22861 11.4741,-3.24261 l 1.9955,-0.025 2.5853,3.2426 2.5854,3.24248 1.2766,3.99096 c 0.7021,2.19507 1.6566,4.40263 2.1208,4.90578 l 0.8444,0.91482 7.2665,-7.54776 7.2666,-7.54762 4.2404,-1.13802 4.2403,-1.13803 3.7633,1.01342 3.7633,1.0133 4.2337,3.11339 4.2334,3.11338 2.3816,4.14305 c 1.3098,2.27867 2.677,5.56252 3.0379,7.29742 l 0.6568,3.15438 -1.1248,6.32412 c -0.6188,3.47818 -2.2577,10.07225 -3.6424,14.65346 l -2.5174,8.32947 -5.9012,6.04942 -5.9011,6.04955 -0.613,-0.61288 -0.6127,-0.61287 1.707,-6.96562 1.7069,-6.96562 -0.5676,-10.22009 -0.5678,-10.2201 -1.0069,-1.00705 -1.0072,-1.00717 -5.5404,1.74653 -5.5405,1.7464 -3.0725,4.17692 c -1.6899,2.29729 -3.6927,5.62213 -4.4506,7.38866 l -1.3781,3.21186 -2.4938,16.43061 -2.4937,16.43061 0,6.09867 0,6.09878 1.4595,2.82269 c 0.803,1.55257 2.0378,3.03865 2.7439,3.30247 0.7063,0.26383 6.6718,0.15872 13.2568,-0.23345 l 11.9728,-0.71298 0.9019,0.80709 0.9017,0.80709 -2.7353,3.58641 c -1.5046,1.97248 -4.1902,4.53985 -5.9681,5.70536 l -3.2328,2.11908 -2.1568,3.29047 -2.157,3.29048 -2.6094,1.70966 -2.6094,1.70978 -9.6231,0.72198 c -5.2927,0.39717 -13.8886,1.03705 -19.1017,1.4221 l -9.4785,0.70011 -2.5908,-2.85256 z m 85.223,1.0088 c -1.1963,-1.02629 -3.329,-3.61228 -4.7392,-5.74661 l -2.5641,-3.88072 0,-1.933 0,-1.93299 2.7953,-2.79532 2.7953,-2.79532 4.1313,-0.69798 4.1315,-0.69799 0.963,-1.16927 0.9632,-1.16914 0.2126,-34.92056 0.2127,-34.92069 -0.9964,-4.77518 -0.9961,-4.77517 -1.7568,-1.94137 -1.757,-1.94136 -5.0998,-1.89975 -5.0999,-1.89987 -0.2721,-1.36098 -0.2722,-1.36098 12.6503,-2.25743 12.6504,-2.25743 2.5877,1.6458 c 1.4233,0.90507 3.582,2.81894 4.797,4.25291 l 2.2093,2.6071 0.6455,3.24261 0.6456,3.24261 1.1362,-0.0125 1.1361,-0.0125 4.6884,-5.88008 4.6884,-5.87996 5.4849,-2.68359 5.485,-2.68347 3.296,0.70999 c 1.8128,0.39055 4.643,1.3806 6.2893,2.20031 3.8412,1.91262 8.2942,6.05255 9.9812,9.27966 l 1.3223,2.52949 -1.4241,12.93531 -1.4241,12.93531 -2.9548,4.48985 c -1.6251,2.46939 -3.723,5.94895 -4.662,7.73234 l -1.7069,3.24273 -1.6153,0 -1.6153,0 -0.096,-8.23136 -0.097,-8.23124 -1.6965,-4.22129 -1.6963,-4.22116 -3.2597,-2.0146 -3.2599,-2.0146 -2.5031,0 -2.5031,0 -1.9956,4.73919 c -1.0977,2.6066 -2.6985,6.98411 -3.5575,9.72794 -1.694,5.41092 -5.1699,26.61621 -6.2359,38.04294 l -0.6636,7.11334 1.1658,3.53255 c 0.6412,1.94286 1.7042,3.97221 2.362,4.50985 l 1.1962,0.97718 5.4874,-0.9818 c 3.0181,-0.54015 8.1815,-1.10303 11.4739,-1.25113 3.2925,-0.14797 6.7267,-0.58963 7.6315,-0.9813 l 1.6451,-0.71224 0.7063,1.1429 0.7064,1.1429 -6.5588,6.30562 -6.559,6.30575 -1.5585,3.89547 -1.5587,3.89548 -3.1936,1.8865 -3.1938,1.8865 -9.4983,0.70486 c -5.224,0.38767 -13.5391,1.02867 -18.4779,1.42447 l -8.9796,0.7196 -2.175,-1.86587 z m 113.4223,0.085 -5.4875,-1.50695 -5.3019,-3.62978 -5.3017,-3.62991 -3.9116,-4.57371 -3.9116,-4.57385 -2.9073,-5.98643 -2.9073,-5.98631 -1.0993,-5.28733 -1.0992,-5.2872 0.02,-9.17992 0.02,-9.1798 0.9703,-6.70817 0.9701,-6.70817 2.1426,-6.26238 c 2.8199,-8.24261 7.3939,-17.32931 11.0733,-21.99838 l 2.9654,-3.76313 6.2577,-4.46536 c 3.4418,-2.45601 8.7112,-5.58864 11.71,-6.96149 l 5.4522,-2.49613 7.3954,-0.60288 7.3956,-0.60276 6.9617,1.63793 6.9619,1.63792 4.1684,2.44277 4.1683,2.44276 3.0848,3.89485 3.0846,3.89485 3.4634,7.34292 c 1.9048,4.03857 4.1781,10.03663 5.052,13.32923 l 1.5887,5.98643 0.5578,9.47837 0.5575,9.47849 -1.6142,8.48069 c -0.8878,4.66445 -2.0746,10.12637 -2.6373,12.13759 l -1.0229,3.65678 -3.4687,2.04659 -3.4685,2.04647 0,1.54369 c 0,0.84921 0.5538,2.43064 1.2308,3.51455 l 1.2306,1.97061 -1.979,3.68889 c -1.0884,2.02885 -4.0714,5.98157 -6.629,8.78376 l -4.6501,5.09486 -5.3273,2.94104 -5.3272,2.94104 -12.4717,0.24196 -12.4716,0.24195 -5.4875,-1.50695 z m 23.9023,-20.65803 5.5025,-1.24712 3.8178,-3.8035 3.8178,-3.80362 1.9391,-4.52435 1.9395,-4.52422 1.0994,-7.08685 1.0997,-7.08671 -0.6635,-14.01847 c -0.3651,-7.71022 -0.6451,-16.10418 -0.6224,-18.65342 l 0.04,-4.63483 -2.6951,-1.76577 c -1.4822,-0.97118 -5.0843,-3.71201 -8.0048,-6.09079 l -5.3097,-4.32502 -3.2722,0 -3.2722,0 -5.1224,1.5212 -5.1224,1.5212 -3.2138,2.70434 -3.214,2.70433 -3.7947,5.87121 -3.7949,5.87121 -0.6086,3.62203 c -0.3349,1.99223 -0.8181,4.388 -1.0738,5.32394 -0.2556,0.93594 -2.2369,3.84611 -4.4026,6.46697 l -3.9377,4.76518 0,1.54257 0,1.54269 1.8412,1.57669 1.8417,1.57668 0.6852,5.83184 0.6855,5.83185 4.3132,9.10519 4.3132,9.10531 2.9243,2.08222 c 3.4514,2.45763 8.484,4.03007 13.2983,4.15517 1.9045,0.05 5.9391,-0.47116 8.9654,-1.15715 z m 89.0609,19.62773 -5.1611,-2.57186 -2.5655,-3.0489 c -1.4109,-1.67691 -3.401,-4.68682 -4.4223,-6.68879 l -1.857,-3.63991 -1.0887,-5.88858 -1.0884,-5.88858 -0.07,-26.50611 -0.07,-26.50611 -0.7802,-1.99547 -0.7802,-1.99548 -7.2005,0 -7.2002,0 -3.9222,-4.20167 -3.9221,-4.20179 0,-2.54649 0,-2.5465 -1.155,-1.84976 -1.1551,-1.84975 0.5437,-1.41735 0.5439,-1.41746 5.8861,-3.08539 5.8861,-3.08539 5.757,-1.28837 5.7571,-1.28824 1.1903,-2.07347 1.1906,-2.07346 -0.256,-20.28184 -0.2561,-20.28185 -1.0604,-1.98148 -1.0604,-1.98148 1.1891,-1.43284 1.1892,-1.43284 1.9922,0 1.9924,0 5.8382,3.54667 5.8383,3.54654 2.1001,2.94942 2.1002,2.94928 0.5808,15.11288 0.5809,15.11275 1.8532,1.85313 1.853,1.85313 2.7286,-0.65562 c 1.5008,-0.36055 4.3,-1.43334 6.2205,-2.3839 l 3.4922,-1.72828 7.8379,-0.71949 7.8381,-0.71948 3.636,-1.54931 3.6358,-1.54932 5.2274,-0.10123 5.2273,-0.10123 0.4889,1.27462 0.4889,1.27475 -1.7253,1.40634 c -0.9489,0.77347 -3.8312,3.11826 -6.4051,5.21059 -2.5738,2.09234 -8.488,7.2062 -13.1429,11.36412 l -8.4629,7.55975 -8.8073,3.33071 c -4.8439,1.83189 -9.4808,3.94522 -10.304,4.69632 l -1.4965,1.36573 -0.3213,27.65313 -0.3216,27.65313 0.6468,5.27058 0.6467,5.2707 2.3152,2.69159 2.3153,2.69172 3.0667,-1.47708 3.0667,-1.47708 11.3566,-11.11067 c 6.246,-6.11079 12.3299,-11.63157 13.5197,-12.26832 l 2.1631,-1.15777 0.8517,0.52652 0.8518,0.5264 -0.8065,4.2589 c -0.4438,2.34241 -1.5235,5.96132 -2.3997,8.04203 l -1.5932,3.783 -3.0965,2.76683 -3.0965,2.7667 1.1546,2.15757 1.1548,2.15757 -1.5667,3.76438 -1.5668,3.76425 -4.1931,4.36438 c -2.3063,2.4004 -6.1891,5.6555 -8.6289,7.23357 l -4.4359,2.86918 -5.595,0 -5.595,0 -5.1612,-2.57199 z"
       id="path4376"
       inkscape:connector-curvature="0" />
  </g>
</svg>
