<?xml version="1.0" encoding="UTF-8" standalone="no"?>
<!-- Created with Inkscape (http://www.inkscape.org/) -->

<svg
   xmlns:dc="http://purl.org/dc/elements/1.1/"
   xmlns:cc="http://creativecommons.org/ns#"
   xmlns:rdf="http://www.w3.org/1999/02/22-rdf-syntax-ns#"
   xmlns:svg="http://www.w3.org/2000/svg"
   xmlns="http://www.w3.org/2000/svg"
   xmlns:xlink="http://www.w3.org/1999/xlink"
   xmlns:sodipodi="http://sodipodi.sourceforge.net/DTD/sodipodi-0.dtd"
   xmlns:inkscape="http://www.inkscape.org/namespaces/inkscape"
   id="svg2"
   version="1.1"
   inkscape:version="0.92.1 renderfarm"
   width="2481"
   height="663"
   sodipodi:docname="Pepper-and-Carrot_by-David-Revoy_E02P00_092.svg">
  <sodipodi:namedview pagecolor="#ffffff" bordercolor="#666666" inkscape:pageopacity="0" inkscape:pageshadow="2" inkscape:window-width="1813" inkscape:window-height="955" id="namedview70" showgrid="false" inkscape:zoom="0.4" inkscape:cx="1284.4231" inkscape:cy="2618.6204" inkscape:current-layer="layer1" /><metadata
     id="metadata8">
    <rdf:RDF>
      <cc:Work
         rdf:about="">
        <dc:format>image/svg+xml</dc:format>
        <dc:type
           rdf:resource="http://purl.org/dc/dcmitype/StillImage" />
        <dc:title />
      </cc:Work>
    </rdf:RDF>
  </metadata>
  <defs
     id="defs6" />
  <sodipodi:namedview
     pagecolor="#ffffff"
     bordercolor="#666666"
     borderopacity="1"
     objecttolerance="10"
     gridtolerance="10"
     guidetolerance="10"
     inkscape:pageopacity="0"
     inkscape:pageshadow="2"
     inkscape:window-width="1920"
     inkscape:window-height="1026"
     id="namedview4"
     showgrid="false"
     inkscape:zoom="0.59975816"
     inkscape:cx="1243.8347"
     inkscape:cy="314.82661"
     inkscape:window-x="0"
     inkscape:window-y="27"
     inkscape:window-maximized="1"
     inkscape:current-layer="layer1" />
  <g
     inkscape:groupmode="layer"
     id="layer2"
     inkscape:label="artwork"
     sodipodi:insensitive="true">
    <image
       sodipodi:absref="/home/deevad/peppercarrot/webcomics/ep02_Rainbow-potions/lang/ru/../gfx_Pepper-and-Carrot_by-David-Revoy_E02P00.png"
       xlink:href="../gfx_Pepper-and-Carrot_by-David-Revoy_E02P00.png"
       width="2481"
       height="663"
       id="image10"
       x="-1.6728083e-06"
       y="0" />
  </g>
  <g
     inkscape:groupmode="layer"
     id="layer1"
     inkscape:label="text">
    <flowRoot
       xml:space="preserve"
       id="flowRoot3063"
       style="font-style:normal;font-variant:normal;font-weight:normal;font-stretch:normal;line-height:0.01%;font-family:Arial;-inkscape-font-specification:Arial;letter-spacing:0px;word-spacing:0px;display:inline;fill:#562f13;fill-opacity:1;stroke:none"
       transform="matrix(0.97280983,0,0,0.96738919,-159.1006,114.69105)"><flowRegion
         id="flowRegion3065"><rect
           id="rect3067"
           width="2715.5891"
           height="110.01318"
           x="92.642677"
           y="425.30325"
           style="font-size:72px;fill:#562f13;fill-opacity:1" /></flowRegion><flowPara
         id="flowPara3069"
         style="font-style:normal;font-variant:normal;font-weight:normal;font-stretch:normal;font-size:88px;line-height:1.25;font-family:Neucha;-inkscape-font-specification:Neucha;text-align:center;text-anchor:middle;fill:#562f13;fill-opacity:1">Эпизод 2 : Радужные зелья</flowPara></flowRoot>    <path
       style="display:inline;fill:#562f13;fill-opacity:1;stroke:none"
       d="m 719.10277,505.90342 c -1.96564,-1.72588 -4.22373,-4.39457 -5.01798,-5.93048 l -1.44407,-2.79254 0,-4.08144 0,-4.08143 2.44634,-2.44635 2.44635,-2.44635 1.78947,-0.0317 c 0.98421,-0.0175 2.65417,-0.68589 3.71107,-1.48546 l 1.9216,-1.45377 0.74645,-5.24202 0.74644,-5.24195 0.0728,-22.73964 0.0728,-22.73952 -1.03171,-1.9278 -1.03174,-1.92779 -1.77734,0 c -0.97756,0 -4.15497,-0.7061 -7.06094,-1.569 l -5.28356,-1.56913 -2.37228,-2.37222 -2.37231,-2.37235 0,-1.54029 0,-1.54029 5.73081,-0.0412 5.73081,-0.0412 4.48497,-2.20132 4.48498,-2.20145 0.28476,-34.88317 0.28477,-34.88304 -1.183,-4.31163 -1.18303,-4.31163 -2.09172,-1.35677 -2.09175,-1.35665 -8.72079,-0.69786 -8.72078,-0.69786 0,-1.19373 0,-1.19373 4.40803,-4.47117 4.40803,-4.47118 12.61429,-5.70173 12.61427,-5.70174 1.91962,0.60935 c 1.0558,0.33507 3.2627,1.73941 4.90425,3.12065 l 2.98459,2.5113 0,1.3353 c 0,0.73431 0.70479,2.0399 1.5662,2.9013 l 1.56618,1.56625 10.28224,0 10.28227,0 8.64037,2.50381 c 4.75221,1.37712 10.80343,3.60004 13.44717,4.93971 2.64372,1.33966 8.36924,5.12022 12.72341,8.40116 l 7.91663,5.96528 2.73592,3.94797 2.73594,3.94796 1.42662,4.74034 1.42662,4.74033 0,6.72943 0,6.72942 -1.8653,5.99324 -1.8653,5.99323 -3.68691,6.59285 -3.68692,6.59273 -5.99427,6.40795 -5.99428,6.40784 -6.64258,4.89526 c -3.6534,2.69244 -8.88505,6.00522 -11.62586,7.36174 -2.74083,1.35652 -10.14103,4.17406 -16.44491,6.26127 -6.30388,2.08722 -12.47072,4.16095 -13.70409,4.60826 l -2.24249,0.81346 0,21.49486 0,21.49485 2.40582,2.40581 2.40582,2.40581 2.82665,0.59911 c 1.55467,0.32946 3.58022,1.00472 4.50128,1.50059 l 1.67462,0.90143 4.34592,-0.0873 c 2.39026,-0.0478 6.63558,0.22769 9.43405,0.61258 l 5.08813,0.69979 3.16649,-1.63747 3.1665,-1.63751 2.93482,0.64468 c 1.61417,0.35455 4.94516,0.64455 7.40222,0.64455 2.45707,0 4.46738,0.20979 4.46738,0.46616 0,0.25636 -1.61956,1.14283 -3.59904,1.96991 -3.63147,1.51731 -11.44121,6.41894 -16.68868,10.47429 l -2.84617,2.19956 -6.48489,1.7982 -6.48489,1.79821 -4.6222,2.93878 -4.6222,2.93879 -7.47496,2.11167 c -4.11123,1.16143 -9.75687,2.76865 -12.54585,3.5716 l -5.07091,1.45984 -4.11354,0 -4.11353,0 -3.5739,-3.13794 z m 44.01718,-106.94109 8.8221,-4.43285 8.03406,-6.44978 8.03403,-6.44978 4.81276,-5.81134 4.81273,-5.81147 2.84983,-5.97988 2.84983,-5.98 7.7e-4,-4.28529 8e-4,-4.28529 -1.45919,-2.82178 c -0.80256,-1.55202 -2.85062,-3.99254 -4.55126,-5.42359 l -3.09205,-2.60181 -5.66453,-1.70121 -5.66452,-1.70108 -8.47161,-0.0262 -8.47162,-0.0262 -5.50687,1.24466 -5.50687,1.24479 -3.21392,1.95451 -3.2139,1.95451 0,29.86494 0,29.86494 1.74414,1.01595 c 0.95929,0.55867 2.25918,1.02944 2.88867,1.04617 0.62948,0.0162 5.11447,-1.9645 9.96662,-4.40264 z m 73.10672,108.50469 c -1.3704,-0.88603 -3.71609,-3.19753 -5.21264,-5.13667 l -2.721,-3.52573 -0.61315,-3.26847 -0.61319,-3.26849 1.34085,-2.82559 1.34084,-2.8256 4.40392,-2.11334 4.40391,-2.11337 1.32689,-1.81461 1.32687,-1.81461 0,-27.59261 0,-27.59259 -5.23246,-0.5845 c -2.87785,-0.32159 -6.98963,-0.93931 -9.13726,-1.37288 l -3.90479,-0.78825 -0.31482,-0.99311 c -0.17315,-0.54617 0.0344,-1.54365 0.46152,-2.21667 l 0.77635,-1.22344 7.70438,-1.47412 c 4.23741,-0.81072 8.1415,-1.74428 8.67573,-2.07448 l 0.97135,-0.60024 0,-40.35544 0,-40.35545 -1.4543,-2.81229 -1.45431,-2.81242 -8.26314,-1.17363 c -4.54472,-0.64542 -9.72075,-1.39622 -11.50229,-1.66824 l -3.23914,-0.49475 0,-0.77776 c 0,-0.4277 1.00912,-1.69671 2.24248,-2.8199 2.44049,-2.22255 15.0178,-10.2653 16.05292,-10.2653 0.35114,0 4.63348,-1.79883 9.51631,-3.9974 l 8.8779,-3.99753 2.83241,1.07687 c 1.55781,0.59225 3.61813,1.78798 4.57843,2.65699 l 1.74593,1.58011 0,2.71929 0,2.71916 2.24249,0.60098 c 1.23344,0.33058 6.7365,0.6071 12.22921,0.61459 l 9.9866,0.0137 7.15086,1.9816 c 3.93294,1.08986 9.7017,3.10978 12.81933,4.48853 l 5.66871,2.50693 6.5954,4.90762 c 3.62755,2.69918 8.25511,6.62193 10.28374,8.71726 l 3.68823,3.80965 2.21159,4.98327 2.21144,4.98328 0.44602,7.52728 0.44601,7.52716 -2.91728,8.46334 -2.91713,8.46346 -3.83709,5.78063 c -2.11032,3.17945 -6.08519,8.24063 -8.83299,11.24717 l -4.99592,5.46628 -3.17844,-0.59624 -3.17831,-0.59624 -1.03912,1.26514 c -0.57154,0.69574 -1.19431,2.38209 -1.38401,3.74722 l -0.34462,2.48234 -4.90411,3.20429 -4.90424,3.20417 -12.36897,4.52935 -12.36903,4.52923 -2.16174,0.015 c -1.18889,0.0125 -2.83439,0.44031 -3.65663,0.95978 l -1.49501,0.94454 0,21.38375 0,21.38375 2.37592,2.53003 2.3758,2.53002 5.17564,1.07438 5.17563,1.07451 9.89012,-0.0287 c 5.43952,-0.0162 12.49508,-0.0799 15.67918,-0.14256 l 5.78913,-0.11361 0.68088,0.68085 0.68088,0.68085 -1.98508,1.16433 c -1.0917,0.6404 -4.83857,2.40334 -8.32632,3.91765 l -6.34123,2.75333 -2.95436,2.48589 c -1.62478,1.36719 -3.52947,2.48584 -4.23244,2.48584 l -1.27817,0 -4.37619,3.84459 c -2.40682,2.11449 -6.29679,4.82202 -8.64424,6.01671 l -4.26818,2.17214 -9.68504,2.63275 -9.68513,2.63276 -4.98328,0.33879 -4.98336,0.33878 -2.49165,-1.61093 z m 40.64325,-107.52169 7.19893,-3.44998 7.22464,-5.36329 7.2245,-5.36316 6.97654,-7.39583 6.97669,-7.3957 2.79296,-5.76128 2.79297,-5.76141 0.5048,-4.6904 0.5048,-4.69039 -1.80265,-3.46284 -1.80293,-3.46296 -3.9866,-2.77284 -3.9866,-2.77284 -7.475,-1.58136 -7.47501,-1.58149 -6.47821,0.57801 c -3.56312,0.31797 -9.16929,1.26452 -12.45829,2.1037 l -5.97991,1.52555 -2.28576,2.58034 -2.28575,2.58021 0.29237,28.14763 0.29248,28.14763 1.36783,1.6464 1.36782,1.64628 1.65032,0 c 0.90757,0 4.88967,-1.55252 8.84906,-3.44998 z m 343.56958,77.2744 c -2.7409,-0.97701 -7.2662,-2.93364 -10.0565,-4.34821 l -5.0729,-2.57198 -3.1434,-3.57993 c -1.7289,-1.96912 -4.1404,-5.47378 -5.3592,-7.7882 l -2.2158,-4.20814 -0.033,-7.47485 -0.033,-7.47497 3.1465,-6.64154 3.1465,-6.64141 7.7339,-8.09481 7.7337,-8.09493 -2.7997,-5.85791 -2.7998,-5.85779 0.598,-2.98956 0.5979,-2.98957 -1.4265,-1.18386 -1.4264,-1.18387 1.547,-2.99144 1.5468,-2.99143 -2.2118,-2.35438 -2.2119,-2.35437 0.6321,-4.61088 0.632,-4.61087 1.9851,-4.48778 1.9851,-4.48766 4.2384,-5.06255 4.2386,-5.06242 4.3753,-2.77471 4.3753,-2.77484 5.3978,-1.20796 5.3977,-1.20796 5.189,1.63928 5.189,1.63929 5.6898,3.56346 5.6896,3.56346 3.6306,5.97675 3.6308,5.97676 0.51,3.80216 0.5099,3.80203 -2.2002,6.97136 -2.2003,6.97149 -3.8291,4.87604 c -2.1061,2.68171 -5.4757,7.34277 -7.4881,10.35755 -2.0123,3.01491 -5.0015,6.67362 -6.6428,8.13039 l -2.984,2.64862 0.8486,1.44753 c 0.4668,0.79624 4.9324,5.78313 9.9236,11.082 l 9.0752,9.63435 1.1902,-1.43417 1.1903,-1.43417 0.1997,-2.82815 0.1995,-2.82815 -3.7325,-0.30898 -3.7323,-0.3091 -2.4967,-3.27333 -2.4967,-3.27333 0,-2.07723 0,-2.07723 1.4277,-1.4278 1.4278,-1.42768 8.2896,-2.57722 c 4.5594,-1.41744 10.5321,-3.08669 13.273,-3.70939 l 4.9833,-1.13231 11.96,-0.39325 c 6.578,-0.21635 14.3145,-0.65991 17.1924,-0.98574 l 5.2324,-0.59237 -5e-4,1.31757 -5e-4,1.31757 -7.088,6.47824 c -3.8984,3.56309 -8.4953,7.87871 -10.2152,9.59015 l -3.1273,3.11204 -4.8615,0.70572 c -2.674,0.38813 -5.4771,0.9418 -6.2291,1.23044 l -1.3678,0.52483 0,4.83933 0,4.83921 -2.1264,5.6835 -2.1264,5.68339 2.8636,2.0781 c 1.575,1.14292 4.6623,3.46234 6.8608,5.15406 l 3.9968,3.07607 -0.1851,1.40896 c -0.1011,0.77489 -0.8052,3.08731 -1.5632,5.1387 l -1.3781,3.72975 -2.3479,2.49931 -2.348,2.49944 -3.0655,0 -3.0655,0 -3.2632,-1.98959 c -1.7948,-1.09373 -3.8647,-1.98909 -4.5997,-1.98909 -0.7352,0 -2.4769,-0.89698 -3.8707,-1.99333 -1.3938,-1.09636 -3.1362,-1.98185 -3.8718,-1.96774 -0.7359,0.0137 -3.8047,1.60021 -6.8196,3.525 l -5.4815,3.49954 -9.4288,2.95324 -9.4286,2.95324 -5.0229,-0.0729 -5.0229,-0.0729 -4.9834,-1.77616 z m 24.1836,-24.11914 4.3817,-2.12117 0.488,-1.27176 0.488,-1.27163 -10.2858,-10.05606 -10.2857,-10.05606 -1.2034,0 -1.2033,0 -2.7832,3.6687 c -1.5309,2.01781 -4.241,5.01561 -6.0226,6.66176 l -3.2391,2.99294 0,1.34791 0,1.34778 4.2359,4.32187 c 2.3296,2.37697 5.1327,4.81374 6.2291,5.41497 l 1.9932,1.09336 6.4129,0.03 6.4127,0.03 4.3816,-2.12105 z m -5.3315,-61.25406 7.6947,-6.56551 1.9219,-3.15199 1.9219,-3.15198 0,-3.16259 0,-3.16272 -2.4713,-2.93713 -2.4716,-2.93726 -2.9935,-1.23992 -2.9935,-1.23992 -3.4449,0.64618 -3.4449,0.6463 -2.7028,3.20529 c -1.4866,1.76288 -3.3074,4.64845 -4.0467,6.41233 l -1.3445,3.20716 0,3.8602 0,3.86033 1.4116,4.68965 c 1.4017,4.65794 3.1538,7.58708 4.5384,7.58708 0.3973,0 4.1852,-2.95448 8.4173,-6.5655 z m 176.7733,58.39608 c -3.1349,-0.40212 -8.8783,-1.75315 -12.763,-3.00218 l -7.063,-2.2711 -5.9181,-3.59467 c -3.2549,-1.97698 -8.2117,-5.38851 -11.0149,-7.58122 l -5.0967,-3.98667 -5.763,-6.78185 -5.7629,-6.78186 -3.0151,-5.67639 c -1.6583,-3.12202 -3.9318,-8.59155 -5.0522,-12.15464 -1.1205,-3.56308 -2.9888,-11.62643 -4.1521,-17.91854 l -2.1152,-11.44017 0.4429,-4.50638 c 0.64,-6.51033 3.4568,-20.96915 6.2327,-31.99248 2.7636,-10.97464 8.6747,-28.38919 11.6329,-34.27157 4.4071,-8.76321 15.4943,-26.36228 22.2996,-35.39652 3.9481,-5.24094 10.2541,-12.67472 14.0133,-16.51957 3.7592,-3.84472 9.9728,-9.36282 13.808,-12.26225 l 6.9733,-5.27178 8.2642,-4.09515 8.2643,-4.09516 10.6757,-0.0674 10.6757,-0.0674 9.4683,3.82063 c 5.2075,2.10145 10.3653,3.89541 11.4617,3.98667 l 1.9932,0.16604 0.4985,-5.52671 0.4982,-5.52683 1.8492,-2.82053 1.8489,-2.82065 5.4834,0.64443 5.4833,0.64455 5.3867,2.54825 5.3866,2.54825 3.4767,3.27895 3.4767,3.27895 0,4.99026 c 0,2.74463 -0.2805,6.39248 -0.6232,8.1063 l -0.6232,3.11615 -3.9311,4.46618 -3.9315,4.46606 0.6268,1.01396 0.6266,1.01396 1.824,0 1.8241,0 2.302,1.864 2.302,1.86412 -1.1835,13.83337 c -1.3623,15.92134 -2.3845,23.52739 -4.5139,33.58383 -0.8338,3.9376 -1.9504,9.40177 -2.4813,12.14265 -0.5311,2.74075 -1.7037,8.28032 -2.6061,12.30993 l -1.6402,7.32667 -2.4741,4.8824 -2.4741,4.88253 -0.8637,0 -0.8636,0 -0.601,-2.24252 c -0.3306,-1.23343 -0.6071,-4.6115 -0.6145,-7.50693 l -0.014,-5.26454 -1.3469,-3.22315 -1.3467,-3.22326 -0.7349,-12.90069 -0.7348,-12.90068 -4.2707,-12.49807 -4.2707,-12.49808 -4.2918,-8.36896 -4.292,-8.36896 -3.581,-3.76432 -3.5808,-3.76433 -2.7614,-0.69312 -2.7613,-0.69299 -4.3652,1.66713 c -2.4009,0.91683 -7.2028,3.53974 -10.6709,5.82857 l -6.3056,4.16157 -9.289,9.41563 -9.2889,9.41562 -7.3424,11.03694 -7.3425,11.03705 -6.9666,14.45159 c -7.4816,15.51984 -12.4931,28.35037 -16.5752,42.43654 l -2.5593,8.83175 -0.6172,7.50481 -0.6171,7.50481 -2.3329,2.80704 -2.3331,2.80705 1.4667,2.83601 c 0.8067,1.55989 2.7443,3.88468 4.3061,5.16629 l 2.8394,2.33016 2.6698,4.67567 2.6696,4.67566 4.7265,4.83983 4.7262,4.83984 4.8293,2.33015 4.8288,2.33003 11.1177,-0.52221 11.1175,-0.52233 9.6514,-3.12652 c 5.3083,-1.71956 12.2301,-4.26693 15.3822,-5.66091 l 5.7305,-2.53427 1.771,0.46304 1.7708,0.46303 2.8625,-2.73539 2.8623,-2.73539 7.0279,-2.68557 7.0282,-2.68558 1.8575,-2.05239 c 1.0216,-1.12881 3.0286,-2.65811 4.4601,-3.39829 l 2.6026,-1.34603 1.1825,-2.78783 1.1823,-2.78782 5.6413,-3.42676 c 3.1027,-1.88472 7.3259,-4.94894 9.3854,-6.80957 l 3.7444,-3.38281 3.9555,-6.26327 3.9556,-6.26327 1.4908,-0.57202 1.4906,-0.5719 1.2197,1.46963 1.2198,1.46975 -1.1116,2.20856 c -0.6114,1.21471 -2.2131,6.77749 -3.5595,12.36175 l -2.4479,10.15331 -4.8105,8.78331 -4.8103,8.78318 -6.6614,6.66638 -6.6614,6.66625 -2.8596,1.47862 -2.8594,1.47861 -1.9213,-0.17165 -1.9215,-0.17153 -2.7728,5.48151 -2.7726,5.48176 -10.7044,6.66925 -10.7041,6.66938 -8.9701,2.97883 -8.9699,2.9787 -7.7963,1.06602 c -8.538,1.16739 -13.1736,1.18299 -21.8236,0.0737 z m -939.99435,-17.33641 -3.84985,-1.44678 -2.96889,-2.81966 -2.9689,-2.81966 -1.95707,-3.80552 -1.95708,-3.80565 -0.55955,-4.72448 -0.55955,-4.72448 2.37736,-2.76373 2.37734,-2.76385 6.24525,-0.73644 6.24526,-0.73631 1.69656,-1.69659 1.69654,-1.69658 0.51119,-9.19017 0.51121,-9.19016 2.98996,-0.50923 2.99,-0.50922 0.30933,-2.67372 0.30935,-2.67372 -2.80098,-1.78347 c -1.54055,-0.981 -3.13051,-2.2424 -3.53325,-2.80331 l -0.73222,-1.0197 -0.0154,-28.68519 -0.0152,-28.68532 1.24582,-0.38376 c 0.6852,-0.2111 2.42973,-0.64168 3.87672,-0.95678 l 2.63089,-0.57302 0.63295,-1.6494 0.63297,-1.64952 -1.27053,-1.70108 c -0.6988,-0.93556 -2.78027,-3.67295 -4.62552,-6.08325 l -3.35497,-4.38216 0.80568,-15.94656 c 0.44313,-8.77069 0.83163,-20.28415 0.86333,-25.58564 l 0.0576,-9.63897 -2.40664,-2.55986 -2.40664,-2.55999 -5.56665,-2.0756 -5.56662,-2.07561 -2.16195,-2.0193 -2.16194,-2.01917 -2.12247,-4.93384 -2.12247,-4.93384 -0.16327,-5.89074 -0.16329,-5.89087 2.33425,-2.48471 2.33425,-2.48471 8.59173,-3.14049 8.59173,-3.14063 15.44825,-2.88245 15.44825,-2.88245 17.93989,0.0212 17.9399,0.0212 9.58387,0.93268 9.58384,0.93269 8.19005,2.98894 c 4.50452,1.64403 10.96308,4.53984 14.35235,6.43517 3.38927,1.89534 8.19326,5.23383 10.67557,7.41892 l 4.51325,3.97269 6.32265,8.81614 6.32263,8.81614 4.77643,9.96655 4.77643,9.96667 1.674,6.47825 1.67401,6.47824 0.0894,7.47497 0.0895,7.47498 -1.29097,5.48164 -1.29094,5.48164 -3.89637,7.97333 -3.89639,7.97322 -5.72651,6.65377 c -3.14957,3.65958 -7.96901,8.64511 -10.70983,11.07875 -2.7408,2.43378 -8.49613,6.94465 -12.78957,10.02411 l -7.80628,5.59911 -12.12695,5.8674 c -15.28844,7.39695 -33.1288,14.53947 -41.52843,16.62606 -3.56306,0.88512 -8.13998,2.03578 -10.17093,2.55711 l -3.69263,0.94767 -1.53984,1.53991 -1.53984,1.53979 0,12.93077 0,12.93065 2.28609,2.28609 2.28611,2.28608 4.06275,0.64967 4.06276,0.64968 1.24813,1.50395 1.24815,1.50396 5.11041,0.0137 5.11045,0.015 4.30202,1.49834 4.30201,1.49834 0.92314,-0.57053 c 0.86935,-0.53719 21.84957,-1.65289 28.34594,-1.5072 1.64449,0.0362 4.55973,0.0737 6.4783,0.0812 1.91858,0.0125 4.09945,0.2332 4.84638,0.50098 l 1.35808,0.48676 -1.23093,1.48311 -1.23095,1.48323 -1.55661,0 c -0.85616,0 -3.60435,0.95279 -6.10711,2.11743 -2.50275,1.16452 -7.24146,3.36808 -10.53045,4.89663 -3.28897,1.52868 -8.67095,3.53887 -11.95992,4.46731 -3.28898,0.92844 -7.45281,2.3128 -9.25293,3.07658 l -3.27298,1.38861 -3.73107,0 -3.73108,0 -2.17969,1.5268 c -3.25857,2.28234 -9.6302,4.34534 -20.19038,6.53692 l -9.46828,1.96512 -11.95992,0.49786 -11.95994,0.49787 -3.84984,-1.44678 z m 74.47797,-110.92776 8.83518,-3.4913 4.31322,0.6468 4.31324,0.6468 1.59783,-2.43864 1.59783,-2.43852 -0.60026,-2.3917 -0.60028,-2.39158 1.96687,-1.77998 1.96688,-1.77998 2.13994,1.14529 2.13993,1.14517 1.5172,-1.25915 1.5172,-1.25914 -0.55452,-2.7726 -0.55453,-2.77259 4.97849,-5.68925 c 6.21934,-7.10719 11.23495,-14.61974 14.70476,-22.02518 l 2.68089,-5.72183 6.5e-4,-8.96994 6.3e-4,-8.96995 -2.65152,-5.65616 -2.65152,-5.65617 -4.07846,-4.42461 -4.07846,-4.42461 -5.81134,-2.60805 -5.81137,-2.60793 -7.64799,-1.13755 -7.64798,-1.13743 -9.7105,1.17838 c -5.34078,0.64805 -10.45862,1.39434 -11.373,1.65838 l -1.66251,0.48014 -3.45238,-3.03126 -3.45238,-3.03126 -2.07585,0 -2.07585,0 -1.03172,1.92779 c -0.56744,1.06027 -1.03173,3.00342 -1.03173,4.318 l 0,2.3902 -3.65934,2.40943 c -2.01265,1.32519 -4.53815,3.60428 -5.61223,5.06455 l -1.95288,2.65511 -0.82021,15.78314 -0.82023,15.78313 -0.0458,28.46348 -0.0458,28.4636 1.24584,1.57075 c 0.6852,0.86402 1.91856,1.77274 2.74082,2.01955 l 1.49498,0.44855 11.4616,-2.42016 11.46161,-2.42029 8.83515,-3.49143 z m 93.82091,108.62819 c -1.64448,-0.21822 -5.3789,-1.07051 -8.29868,-1.89409 l -5.3087,-1.49734 -4.20276,-4.20277 -4.20277,-4.20277 -4.37786,-11.44466 -4.37785,-11.44467 -0.41595,-13.41577 -0.41595,-13.41591 1.18374,-7.33789 1.18374,-7.33803 2.40014,-7.05663 c 1.32008,-3.88118 4.00901,-9.98365 5.97539,-13.56109 4.28192,-7.78995 11.10099,-16.85228 17.59484,-23.38283 l 4.75178,-4.77866 8.26069,-3.96382 8.26068,-3.9637 5.08157,-0.60186 5.08155,-0.60186 5.17053,2.81417 5.17051,2.81416 5.2923,5.08502 5.29231,5.08514 2.48542,4.93334 2.48543,4.93334 1.12062,5.28152 1.12064,5.28152 -0.005,12.65837 -0.005,12.65837 -1.04057,3.74697 -1.04054,3.74685 -2.19303,1.42306 -2.19304,1.42294 -6.97664,1.14079 c -6.99487,1.14367 -41.35658,9.67805 -48.83638,12.12942 l -3.98665,1.30646 -1.73719,3.5511 -1.73721,3.5511 1.68995,4.42224 c 0.92947,2.43215 2.73623,6.12032 4.015,8.1958 l 2.32503,3.77357 3.20384,2.02055 3.20386,2.02068 6.06934,-0.4342 6.06936,-0.43407 6.3889,-2.81766 c 3.51391,-1.54978 11.76835,-6.03606 18.34322,-9.96955 l 11.95432,-7.15176 1.35792,0.52109 1.35792,0.52108 -0.53286,3.28357 c -0.29307,1.80607 -1.43702,5.32758 -2.54209,7.8259 l -2.00921,4.54209 -2.47652,0 -2.47649,0 -1.63299,1.63304 -1.63295,1.63292 0.1592,4.09778 c 0.0876,2.25388 0.1176,4.58416 0.0668,5.1784 l -0.0924,1.08062 -8.74901,4.1577 -8.74902,4.15783 -6.94839,1.47175 c -6.88168,1.45777 -9.127,1.57986 -14.92168,0.81134 z m 9.52656,-73.5439 16.38664,-3.6853 4.15057,-1.80708 4.15056,-1.80719 1.08191,-2.02155 1.08188,-2.02155 0,-10.51036 0,-10.51023 -1.60684,-4.016 -1.60684,-4.01589 -2.35376,-0.59074 -2.35376,-0.59075 -4.49904,2.17797 -4.49905,2.17798 -7.44681,6.95451 c -4.09575,3.825 -8.97611,9.05733 -10.84524,11.62756 -1.86913,2.57035 -5.29908,8.33825 -7.62211,12.81766 l -4.22369,8.14437 0.70619,1.14267 0.70619,1.14267 1.20329,-0.46179 c 0.6618,-0.25392 8.57727,-2.12004 17.58991,-4.14696 z m 315.76597,71.86641 c -1.98319,-0.70859 -5.23875,-2.29769 -7.23461,-3.53125 l -3.62904,-2.24289 -2.49378,-4.25533 c -1.3716,-2.34051 -4.17077,-8.91676 -6.2203,-14.614 l -3.72651,-10.35867 0.093,-15.94655 0.093,-15.94656 2.15955,-7.97333 2.15941,-7.97322 4.04092,-8.4717 4.04108,-8.47158 5.39838,-7.0635 c 2.96906,-3.88492 7.88138,-9.41175 10.91623,-12.28197 l 5.51772,-5.21848 7.50641,-3.4682 7.50643,-3.46808 4.85154,-0.57464 4.8516,-0.57465 4.3187,2.10869 4.3187,2.10869 6.1877,5.53794 6.1876,5.53807 3.2807,6.65839 3.2805,6.65839 0.3231,17.46799 0.3229,17.46786 -1.0259,2.6887 -1.0261,2.6887 -2.287,1.48373 -2.2869,1.48386 -9.0004,1.55102 c -4.9505,0.85304 -17.5083,3.81614 -27.90672,6.58474 l -18.90597,5.03358 -4.48492,2.19945 -4.48506,2.19945 0.16759,6.14991 0.16746,6.15004 2.03388,4.59776 2.03375,4.59777 3.49744,1.46126 3.49758,1.46139 7.25767,-0.0175 7.25796,-0.0175 8.40541,-3.40865 8.40553,-3.40866 1.8932,1.01321 1.8931,1.01321 1.8209,-1.64778 c 1.0014,-0.90634 2.0692,-2.6239 2.3731,-3.81688 l 0.5525,-2.16924 6.2701,-4.23573 6.2703,-4.23585 1.8339,0 1.834,0 2.8508,-2.02991 c 1.5678,-1.11658 4.9261,-2.94799 7.4624,-4.06994 l 4.6117,-2.04002 0.5211,0.52108 0.521,0.52109 -1.6706,4.3743 -1.6705,4.37417 -3.8861,5.13458 c -2.1374,2.82391 -4.7813,6.8891 -5.8754,9.03362 l -1.9891,3.89915 -5.0435,4.41176 -5.0432,4.41175 -9.1938,4.62723 -9.1936,4.6271 -4.7431,1.24429 -4.74308,1.24441 -1.54254,-2.20244 -1.54253,-2.20244 -2.68433,0 -2.68433,0 -3.98669,2.45537 c -2.19271,1.35053 -4.65939,2.44975 -5.48157,2.44288 -0.82233,-0.0125 -3.11764,-0.59249 -5.10069,-1.30121 z m 16.06377,-71.44058 c 7.40032,-1.63916 16.26277,-3.90402 19.69437,-5.03296 l 6.2393,-2.05263 1.1005,-2.05613 1.1004,-2.05613 0.1352,-11.56327 0.135,-11.56338 -2.0738,-3.48831 -2.0741,-3.4883 -3.4902,0.0986 -3.4903,0.0986 -6.12682,4.16069 -6.1272,4.16083 -2.36773,-0.59437 -2.36811,-0.59424 -1.63903,1.63916 -1.63929,1.63916 0.61072,2.4324 0.61048,2.43252 -3.95197,5.2196 c -2.17356,2.87072 -5.81164,8.63849 -8.08457,12.81717 l -4.13262,7.59781 0,2.23603 0,2.23602 2.24247,-0.64954 c 1.2334,-0.3573 8.29719,-1.99072 15.6973,-3.63 z m 619.19547,72.11585 -2.2224,-0.42933 -2.0134,-2.55936 -2.0131,-2.55937 0,-1.73691 0,-1.73679 -1.4076,-1.16813 -1.4075,-1.16826 -6.0401,2.54226 c -3.3219,1.39821 -9.5281,3.69379 -13.7914,5.10137 l -7.7515,2.55911 -9.0499,0.56616 -9.0499,0.56603 -5.2882,-1.75652 -5.2882,-1.75651 -3.8454,-3.47394 -3.8452,-3.47395 -1.5008,-5.05344 -1.5006,-5.05331 0,-4.75706 0,-4.75719 2.4148,-6.65239 2.4145,-6.6524 3.7304,-5.4161 3.7301,-5.4161 5.5658,-4.01825 5.566,-4.01825 11.9598,-5.82645 11.96,-5.82645 8.7797,-2.18921 8.7799,-2.18909 2.0931,-1.69484 2.0927,-1.69471 -1.1002,-9.68629 -1.1002,-9.68628 -1.7992,-3.68081 -1.7991,-3.68093 -7.9734,-0.28052 -7.9733,-0.28064 -7.9732,3.87581 -7.9734,3.87581 -7.4749,5.54606 c -4.1113,3.05036 -8.0477,6.1418 -8.7478,6.86974 -0.6999,0.72808 -2.3505,2.66923 -3.668,4.31363 l -2.3956,2.99007 -1.1986,-1.17925 -1.1986,-1.17912 2.6896,-6.79409 c 1.479,-3.73687 4.1176,-9.19541 5.8634,-12.1303 l 3.1739,-5.33619 5.8543,-4.91 c 3.2198,-2.70043 7.7196,-6.00297 9.9993,-7.33902 2.2796,-1.33605 6.1485,-3.14212 8.5973,-4.01351 l 4.4523,-1.58448 7.1727,-0.0399 7.1726,-0.0399 5.3311,2.44064 5.3311,2.44064 3.6517,3.20629 3.6517,3.20629 2.4177,5.16454 2.4177,5.16454 1.1333,5.38589 1.1332,5.38589 0.9596,14.04897 c 0.5277,7.72703 0.9662,17.97334 0.9743,22.76985 l 0.015,8.72077 0.9378,0 c 0.5157,0 1.2149,-0.44856 1.5537,-0.99673 l 0.6159,-0.99661 2.0591,0 2.0591,0 -0.6468,3.23912 c -0.3558,1.78161 -1.9815,6.09261 -3.613,9.58017 l -2.9658,6.34104 0,1.88148 0,1.88135 1.0516,0 c 0.5783,0 3.6057,-1.30983 6.7274,-2.91079 8.3655,-4.2904 14.6198,-7.05576 15.957,-7.05576 l 1.1805,0 0,0.9262 c 0,0.50935 -1.8251,3.67369 -4.0555,7.03166 l -4.0555,6.1056 -0.7681,4.8593 -0.7682,4.85944 -1.6149,2.46448 -1.6148,2.46448 -5.2723,2.99282 -5.2723,2.99281 -5.4133,1.5881 c -2.9774,0.87351 -5.6684,1.52718 -5.9802,1.45252 -0.3117,-0.0749 -1.5666,-0.32895 -2.7892,-0.56515 z m -35.6442,-22.69071 7.6566,-1.46501 5.637,-2.57085 c 3.1,-1.41395 7.3205,-3.73224 9.3785,-5.15181 l 3.7419,-2.58108 1.989,-3.21828 1.9889,-3.21827 0,-4.16344 0,-4.16345 -2.4464,-2.44638 -2.4463,-2.44638 -1.9171,0 -1.9169,0 -1.4981,-2.24239 -1.4981,-2.24252 -1.907,1.71331 -1.9073,1.71332 -6.746,2.08372 -6.746,2.0836 -3.6745,3.24786 c -2.0209,1.78634 -5.7881,4.73896 -8.3717,6.56138 l -4.6974,3.31341 -2.4288,3.59492 c -1.3358,1.97723 -2.735,4.6261 -3.1094,5.88624 l -0.6807,2.29133 1.6006,2.44277 1.6007,2.44288 5.371,0 5.371,0 7.6565,-1.46488 z m -505.145,18.01179 -3.6567,-3.65696 -2.4917,-4.91686 -2.4916,-4.91686 0,-2.46598 0,-2.46598 1.241,-0.7669 1.2407,-0.7669 8.4767,-0.0399 8.4765,-0.04 0.6001,-19.93322 0.6,-19.93322 1.2236,-5.2181 1.2235,-5.21797 -0.3284,-12.89382 -0.3289,-12.89382 -2.2072,-2.34651 -2.2074,-2.34651 0.5763,-2.20357 0.5762,-2.20356 -1.6753,-0.64293 -1.6753,-0.64281 -2.1752,1.14467 -2.1751,1.14466 -4.9834,-1.90582 -4.9833,-1.90594 -0.3395,-1.68698 -0.3394,-1.68685 2.2127,-2.35525 2.2126,-2.35512 8.5918,-3.15685 8.5915,-3.15673 5.5442,-0.11735 5.5441,-0.11735 2.7615,1.80944 2.7617,1.80957 1.4117,3.3787 1.4117,3.37881 0,5.01536 0,5.01524 1.2458,-5e-4 1.246,-5e-4 5.6999,-6.37388 5.6996,-6.37388 4.3323,-2.0972 4.3324,-2.0972 4.587,0 c 2.5229,0 5.3309,0.28539 6.2401,0.63419 l 1.6529,0.63432 0.8954,2.35574 0.8958,2.35575 2.8283,0 2.8281,0 2.5546,2.74076 2.5548,2.74076 4.1101,8.50666 4.11,8.50666 -0.059,1.95837 c -0.031,1.07701 -0.857,5.02547 -1.8344,8.7742 l -1.7767,6.81606 -4.3949,1.9635 -4.3948,1.9635 -2.648,2.53052 -2.648,2.5304 -5.9497,-2.66997 -5.9496,-2.6701 -1.0823,-2.37522 -1.0821,-2.37522 0.8258,-0.51035 0.8259,-0.51048 1.7827,1.96987 1.7827,1.96974 2.645,0 2.645,0 1.6323,-1.24579 1.6324,-1.24579 1.5337,-4.48503 c 0.8434,-2.46673 1.5401,-5.29026 1.548,-6.27438 l 0.015,-1.78947 -2.4915,-2.4917 c -1.3706,-1.37038 -2.4918,-2.8415 -2.4918,-3.26921 0,-0.4277 -1.038,-1.75289 -2.3065,-2.94475 l -2.3068,-2.16711 -5.445,0 -5.4448,0 -2.2369,1.56688 -2.237,1.56688 -2.8294,5.65891 c -1.556,3.11241 -3.5525,7.90143 -4.4362,10.64219 -0.884,2.74088 -2.7533,11.70109 -4.1541,19.91175 l -2.547,14.92835 -0.1,7.72428 -0.1,7.72415 1.7079,2.60631 1.7076,2.6063 4.2831,1.89471 4.2833,1.89471 0.5423,2.07323 0.5421,2.07336 2.0441,-1.09398 2.0443,-1.0941 1.9548,1.22082 1.9547,1.22081 2.4764,-1.32531 2.4763,-1.32531 2.8177,0.70323 c 1.5496,0.38688 3.4903,1.28087 4.3126,1.98684 0.8222,0.70585 2.7375,1.57874 4.2563,1.93978 l 2.7613,0.65629 2.0798,-1.11308 2.0799,-1.11321 0.9536,0.95379 0.9538,0.95378 -1.7076,1.70758 -1.7075,1.70769 -2.0205,-0.52832 -2.0204,-0.52833 -2.5652,1.38049 c -3.8979,2.0977 -12.0413,4.50464 -15.2406,4.50464 l -2.8521,0 -4.1963,2.17198 -4.196,2.17198 -10.9634,0.73806 c -6.0297,0.40598 -15.2603,1.05915 -20.5121,1.45165 l -9.549,0.71346 -3.6569,-3.65683 z m 578.2972,0.75429 c -1.4236,-1.56725 -3.3297,-3.95858 -4.236,-5.31385 l -1.6479,-2.46423 0,-2.76823 0,-2.76822 1.9541,-1.95413 1.954,-1.95401 5.5196,-1.60458 5.5195,-1.60458 0.5681,-2.26387 0.5685,-2.26386 -0.3178,-35.78802 -0.3177,-35.78814 -2.0473,-3.48493 -2.0471,-3.48494 -3.4345,-2.31442 -3.4344,-2.31443 0,-1.17725 0,-1.17725 9.4683,-3.21378 c 5.2075,-1.76762 10.3653,-3.22526 11.4617,-3.23912 l 1.9933,-0.025 2.5826,3.23912 2.5826,3.23913 1.2754,3.98667 c 0.7013,2.19258 1.6546,4.39777 2.1185,4.90038 l 0.8433,0.91383 7.2588,-7.53964 7.2587,-7.53952 4.2359,-1.1368 4.2358,-1.13667 3.7592,1.01221 3.7594,1.01233 4.2289,3.10991 4.2289,3.11004 2.3791,4.1386 c 1.3083,2.27622 2.6741,5.55654 3.0346,7.28958 l 0.6562,3.15111 -1.1237,6.3172 c -0.6181,3.47445 -2.2553,10.06143 -3.6385,14.63772 l -2.5147,8.32052 -5.8948,6.04305 -5.8946,6.04293 -0.6125,-0.61222 -0.6121,-0.61222 1.7052,-6.95814 1.7052,-6.958 -0.5671,-10.20912 -0.5671,-10.20911 -1.0059,-1.00609 -1.0061,-1.00597 -5.5345,1.74452 -5.5346,1.74466 -3.0692,4.1723 c -1.6881,2.29483 -3.6886,5.61622 -4.4458,7.38085 l -1.3766,3.20841 -2.4911,16.41283 -2.4911,16.41296 0,6.09224 0,6.09211 1.458,2.81978 c 0.8021,1.55077 2.0356,3.03526 2.7411,3.29879 0.7054,0.26354 6.6645,0.15868 13.2424,-0.23307 l 11.9599,-0.71235 0.901,0.80623 0.9007,0.80634 -2.7324,3.58244 c -1.5029,1.97036 -4.1855,4.53497 -5.9616,5.69924 l -3.2293,2.1168 -2.1546,3.28693 -2.1546,3.28694 -2.6066,1.70795 -2.6065,1.70782 -9.6129,0.72133 c -5.287,0.39662 -13.8737,1.03593 -19.0812,1.42057 l -9.4683,0.69936 -2.5878,-2.84962 z m 85.1312,1.00759 c -1.1949,-1.02506 -3.3254,-3.60827 -4.7341,-5.74043 l -2.5613,-3.87656 0,-1.93091 0,-1.93092 2.7923,-2.79231 2.7923,-2.79232 4.127,-0.69724 4.1269,-0.69723 0.962,-1.16789 0.9621,-1.16789 0.2124,-34.88317 0.2125,-34.88317 -0.9953,-4.77004 -0.9951,-4.77005 -1.7549,-1.93928 -1.755,-1.93915 -5.0945,-1.89783 -5.0944,-1.89771 -0.2717,-1.35964 -0.2719,-1.35952 12.6366,-2.255 12.6369,-2.255 2.5848,1.64403 c 1.4218,0.90422 3.5782,2.81591 4.7919,4.24834 l 2.207,2.6043 0.6448,3.23912 0.6449,3.23925 1.135,-0.0125 1.1349,-0.0125 4.6832,-5.87364 4.6836,-5.87364 5.479,-2.68071 5.4791,-2.6807 3.2923,0.70922 c 1.811,0.39012 4.638,1.37924 6.2825,2.19807 3.8373,1.91057 8.2853,6.04592 9.9706,9.26956 l 1.3209,2.52691 -1.4226,12.9214 -1.4226,12.92141 -2.9517,4.48491 c -1.6233,2.46673 -3.719,5.94268 -4.6569,7.72416 l -1.7051,3.23912 -1.6135,0 -1.6136,0 -0.096,-8.2224 -0.097,-8.22252 -1.6946,-4.21662 -1.6946,-4.21675 -3.2562,-2.01244 -3.2564,-2.01244 -2.5004,0 -2.5003,0 -1.9936,4.7341 c -1.0965,2.6038 -2.6956,6.97673 -3.5536,9.71749 -1.6922,5.40523 -5.1644,26.58761 -6.2292,38.00219 l -0.6629,7.10557 1.1645,3.52875 c 0.6406,1.94078 1.7024,3.96807 2.3595,4.50501 l 1.1949,0.97626 5.4815,-0.98088 c 3.0149,-0.53943 8.1728,-1.10184 11.4616,-1.24965 3.289,-0.14794 6.7195,-0.589 7.6233,-0.98038 l 1.6433,-0.71134 0.7056,1.14154 0.7057,1.14167 -6.5519,6.29898 -6.5518,6.29884 -1.557,3.89129 -1.557,3.89142 -3.1902,1.88447 -3.1903,1.88448 -9.4881,0.7041 c -5.2184,0.38726 -13.5244,1.02756 -18.458,1.42281 l -8.97,0.71883 -2.1727,-1.86387 z m 113.3006,0.0849 -5.4817,-1.50534 -5.2961,-3.62587 -5.2962,-3.62588 -3.9074,-4.56893 -3.9074,-4.56893 -2.9041,-5.97988 -2.9042,-5.98 -1.0981,-5.28152 -1.098,-5.28152 0.02,-9.17006 0.02,-9.17007 0.9692,-6.70096 0.969,-6.70083 2.1403,-6.25566 c 2.8169,-8.23388 7.386,-17.31068 11.0614,-21.97474 l 2.9622,-3.75908 6.2511,-4.4607 c 3.4381,-2.45324 8.7018,-5.58263 11.6973,-6.95401 l 5.4465,-2.49345 7.3874,-0.6021 7.3876,-0.60224 6.9543,1.63617 6.9545,1.63616 4.1638,2.44014 4.1638,2.44027 3.0815,3.89067 3.0813,3.89054 3.4597,7.33503 c 1.9027,4.03423 4.1737,10.02597 5.0467,13.3149 l 1.5868,5.98001 0.5572,9.4683 0.5569,9.46819 -1.6123,8.4717 c -0.887,4.65931 -2.0725,10.11536 -2.6346,12.12442 l -1.0219,3.65297 -3.4649,2.04427 -3.4647,2.04427 0,1.54216 c 0,0.84817 0.5533,2.42791 1.2294,3.51065 l 1.2293,1.9685 -1.9768,3.68492 c -1.0873,2.0268 -4.0671,5.97514 -6.622,8.77432 l -4.6451,5.08952 -5.3216,2.93788 -5.3214,2.93788 -12.4583,0.24157 -12.4582,0.24169 -5.4817,-1.50533 z m 23.8765,-20.63571 5.4966,-1.24591 3.8136,-3.79941 3.8138,-3.79953 1.937,-4.51936 1.9374,-4.51949 1.0983,-7.07911 1.0984,-7.07923 -0.6627,-14.0034 c -0.3646,-7.70181 -0.6443,-16.08687 -0.6217,-18.63325 l 0.04,-4.62998 -2.6921,-1.76387 c -1.4807,-0.97014 -5.079,-3.70803 -7.9963,-6.08425 l -5.304,-4.32025 -3.2685,0 -3.2689,0 -5.1168,1.51957 -5.117,1.51956 -3.2103,2.70131 -3.2105,2.70143 -3.7907,5.8649 -3.7907,5.8649 -0.6081,3.61827 c -0.3345,1.98996 -0.8172,4.38316 -1.0726,5.31809 -0.2553,0.93494 -2.2344,3.84198 -4.3979,6.46002 l -3.9335,4.76019 0,1.54091 0,1.54091 1.8393,1.57499 1.8397,1.57499 0.6845,5.82558 0.6847,5.82557 4.3086,9.09554 4.3086,9.09541 2.9212,2.0801 c 3.4476,2.45487 8.4749,4.02574 13.2841,4.15071 1.9023,0.0499 5.9326,-0.47078 8.9556,-1.15591 z m 88.9652,19.60652 -5.1555,-2.5691 -2.5628,-3.04562 c -1.4094,-1.67499 -3.3973,-4.68179 -4.4176,-6.68161 l -1.8549,-3.63599 -1.0876,-5.88226 -1.0872,-5.88213 -0.07,-26.47763 -0.07,-26.47763 -0.7793,-1.99333 -0.7795,-1.99334 -7.1927,0 -7.1925,0 -3.918,-4.19727 -3.9179,-4.19715 0,-2.54376 0,-2.54376 -1.1537,-1.84777 -1.1539,-1.8479 0.5431,-1.41582 0.5433,-1.41582 5.8799,-3.08207 5.8797,-3.0822 5.7508,-1.28686 5.7509,-1.28698 1.1891,-2.07124 1.1892,-2.07123 -0.2556,-20.26006 -0.2558,-20.26005 -1.0593,-1.97936 -1.0593,-1.97935 1.1879,-1.4313 1.1878,-1.4313 1.9901,0 1.9902,0 5.832,3.54286 5.8322,3.54286 2.0977,2.94612 2.0979,2.94625 0.5801,15.09651 0.5804,15.09663 1.8512,1.85102 1.851,1.85114 2.7258,-0.65492 c 1.4991,-0.36016 4.2952,-1.4318 6.2138,-2.38121 l 3.4883,-1.72643 7.8295,-0.71883 7.8297,-0.71871 3.6321,-1.54753 3.6319,-1.54765 5.2217,-0.10112 5.2217,-0.10237 0.4884,1.27338 0.4884,1.27325 -1.7235,1.40483 c -0.9479,0.77264 -3.827,3.11491 -6.3982,5.205 -2.571,2.09008 -8.4789,7.19845 -13.1288,11.3519 l -8.4538,7.55175 -8.7978,3.32701 c -4.8387,1.82992 -9.4706,3.94111 -10.2929,4.6914 l -1.4948,1.36414 -0.3211,27.62342 -0.3211,27.62342 0.6459,5.26491 0.6461,5.26505 2.3127,2.68882 2.3128,2.6887 3.0634,-1.4755 3.0634,-1.47537 11.3444,-11.09873 c 6.2393,-6.10434 12.3167,-11.61919 13.5053,-12.25525 l 2.1607,-1.15641 0.8507,0.52583 0.8509,0.52583 -0.8056,4.25446 c -0.4433,2.33989 -1.5219,5.95491 -2.3972,8.03326 l -1.5913,3.77906 -3.0933,2.76373 -3.0932,2.76372 1.1534,2.15526 1.1535,2.15538 -1.565,3.7602 -1.565,3.76021 -4.1887,4.3597 c -2.3038,2.39794 -6.1825,5.64955 -8.6196,7.22591 l -4.431,2.86597 -5.5891,0 -5.589,0 -5.1557,-2.5691 z"
       id="path4376"
       inkscape:connector-curvature="0" />
    <flowRoot
       xml:space="preserve"
       id="flowRoot3063-2"
       style="font-style:normal;font-variant:normal;font-weight:normal;font-stretch:normal;line-height:0.01%;font-family:Arial;-inkscape-font-specification:Arial;letter-spacing:0px;word-spacing:0px;display:inline;fill:#562f13;fill-opacity:1;stroke:none"
       transform="matrix(0.97280983,0,0,0.96738919,-517.90969,-219.13883)"><flowRegion
         id="flowRegion3065-7"><rect
           id="rect3067-4"
           width="2715.5891"
           height="110.01318"
           x="92.642677"
           y="425.30325"
           style="font-size:72px;fill:#562f13;fill-opacity:1" /></flowRegion><flowPara
         id="flowPara3069-5"
         style="font-style:normal;font-variant:normal;font-weight:normal;font-stretch:normal;font-size:88px;line-height:1.25;font-family:Neucha;-inkscape-font-specification:Neucha;text-align:center;text-anchor:middle;fill:#562f13;fill-opacity:1">Перчинка</flowPara></flowRoot>    <flowRoot
       xml:space="preserve"
       id="flowRoot3063-2-8"
       style="font-style:normal;font-variant:normal;font-weight:normal;font-stretch:normal;line-height:0.01%;font-family:Arial;-inkscape-font-specification:Arial;letter-spacing:0px;word-spacing:0px;display:inline;fill:#562f13;fill-opacity:1;stroke:none"
       transform="matrix(0.97280983,0,0,0.96738919,286.92066,-224.59562)"><flowRegion
         id="flowRegion3065-7-5"><rect
           id="rect3067-4-4"
           width="2715.5891"
           height="110.01318"
           x="92.642677"
           y="425.30325"
           style="font-size:72px;fill:#562f13;fill-opacity:1" /></flowRegion><flowPara
         id="flowPara3069-5-1"
         style="font-style:normal;font-variant:normal;font-weight:normal;font-stretch:normal;font-size:88px;line-height:1.25;font-family:Neucha;-inkscape-font-specification:Neucha;text-align:center;text-anchor:middle;fill:#562f13;fill-opacity:1">Морквик</flowPara></flowRoot>  </g>
</svg>
